<?xml version="1.0" encoding="utf-8" standalone="no"?>
<!DOCTYPE svg PUBLIC "-//W3C//DTD SVG 1.1//EN"
  "http://www.w3.org/Graphics/SVG/1.1/DTD/svg11.dtd">
<!-- Created with matplotlib (https://matplotlib.org/) -->
<svg height="288pt" version="1.1" viewBox="0 0 432 288" width="432pt" xmlns="http://www.w3.org/2000/svg" xmlns:xlink="http://www.w3.org/1999/xlink">
 <metadata>
  <rdf:RDF xmlns:cc="http://creativecommons.org/ns#" xmlns:dc="http://purl.org/dc/elements/1.1/" xmlns:rdf="http://www.w3.org/1999/02/22-rdf-syntax-ns#">
   <cc:Work>
    <dc:type rdf:resource="http://purl.org/dc/dcmitype/StillImage"/>
    <dc:date>2020-12-01T00:50:31.414790</dc:date>
    <dc:format>image/svg+xml</dc:format>
    <dc:creator>
     <cc:Agent>
      <dc:title>Matplotlib v3.3.3, https://matplotlib.org/</dc:title>
     </cc:Agent>
    </dc:creator>
   </cc:Work>
  </rdf:RDF>
 </metadata>
 <defs>
  <style type="text/css">*{stroke-linecap:butt;stroke-linejoin:round;}</style>
 </defs>
 <g id="figure_1">
  <g id="patch_1">
   <path d="M 0 288 
L 432 288 
L 432 0 
L 0 0 
z
" style="fill:none;"/>
  </g>
  <g id="axes_1">
   <g id="patch_2">
    <path d="M 326.617699 135.949699 
C 326.617699 119.759654 322.617212 103.817686 314.973091 89.545862 
C 307.328971 75.274038 296.275475 63.109726 282.798607 54.138016 
L 255.567107 95.043858 
C 262.30554 99.529712 267.832288 105.611869 271.654348 112.74778 
C 275.476409 119.883692 277.476653 127.854677 277.476653 135.949699 
L 326.617699 135.949699 
z
" style="fill:#092436;opacity:0.5;stroke:#092436;stroke-linejoin:miter;"/>
   </g>
   <g id="patch_3">
    <path d="M 265.47111 63.418784 
C 256.4176 57.391755 246.426111 52.909146 235.904685 50.154021 
C 225.38326 47.398896 214.477101 46.409278 203.631606 47.225583 
C 192.786111 48.041887 182.150956 50.652848 172.16047 54.951837 
C 162.169984 59.250825 152.962043 65.178512 144.912691 72.492816 
C 136.863339 79.80712 130.083663 88.407098 124.850537 97.941536 
C 119.617412 107.475975 116.003058 117.81329 114.155084 128.531317 
C 112.307109 139.249344 112.251017 150.200166 113.989097 160.936561 
C 115.727178 171.672957 119.235444 182.046756 124.370623 191.634303 
C 129.505802 201.22185 136.197023 209.890829 144.171024 217.287208 
C 152.145025 224.683587 161.291758 230.70529 171.23768 235.106397 
C 181.183603 239.507504 191.791452 242.227276 202.628016 243.154641 
C 213.464579 244.082006 224.380303 243.204164 234.929401 240.556967 
C 245.478499 237.90977 255.515384 233.52975 264.630161 227.595783 
C 273.744938 221.661817 281.811815 214.255797 288.501349 205.680178 
C 295.190884 197.104558 300.410754 187.477691 303.947788 177.192725 
C 307.484821 166.90776 309.290202 156.106638 309.290202 145.230466 
L 260.149155 145.230466 
C 260.149155 150.668552 259.246465 156.069113 257.477948 161.211596 
C 255.709432 166.354078 253.099496 171.167512 249.754729 175.455322 
C 246.409962 179.743132 242.376523 183.446141 237.819135 186.413125 
C 233.261746 189.380108 228.243304 191.570118 222.968755 192.893716 
C 217.694206 194.217315 212.236344 194.656236 206.818062 194.192554 
C 201.39978 193.728871 196.095856 192.368985 191.122894 190.168432 
C 186.149933 187.967878 181.576567 184.957027 177.589566 181.258837 
C 173.602566 177.560647 170.256955 173.226158 167.689366 168.432384 
C 165.121776 163.638611 163.367643 158.451712 162.498603 153.083514 
C 161.629563 147.715316 161.657609 142.239905 162.581596 136.880892 
C 163.505583 131.521878 165.31276 126.35322 167.929323 121.586001 
C 170.545886 116.818782 173.935724 112.518793 177.9604 108.861641 
C 181.985076 105.204489 186.589046 102.240646 191.584289 100.091151 
C 196.579532 97.941657 201.89711 96.636177 207.319857 96.228024 
C 212.742605 95.819872 218.195684 96.314681 223.456397 97.692244 
C 228.71711 99.069806 233.712854 101.311111 238.239609 104.324625 
L 265.47111 63.418784 
z
" style="fill:#4c2604;opacity:0.5;stroke:#4c2604;stroke-linejoin:miter;"/>
   </g>
   <g id="patch_4">
    <path d="M 328.583341 133.984057 
C 328.583341 117.794013 324.582854 101.852044 316.938733 87.58022 
C 309.294613 73.308396 298.241117 61.144084 284.764249 52.172374 
L 257.532748 93.078216 
C 264.271182 97.56407 269.79793 103.646227 273.61999 110.782139 
C 277.442051 117.918051 279.442294 125.889035 279.442294 133.984057 
L 328.583341 133.984057 
z
" style="fill:#1f77b4;"/>
   </g>
   <g id="patch_5">
    <path d="M 267.436752 61.453142 
C 258.383242 55.426113 248.391753 50.943504 237.870327 48.188379 
C 227.348901 45.433254 216.442743 44.443636 205.597248 45.259941 
C 194.751753 46.076245 184.116598 48.687206 174.126112 52.986195 
C 164.135626 57.285183 154.927685 63.21287 146.878333 70.527174 
C 138.828981 77.841478 132.049305 86.441456 126.816179 95.975895 
C 121.583054 105.510333 117.9687 115.847648 116.120726 126.565675 
C 114.272751 137.283702 114.216659 148.234524 115.954739 158.970919 
C 117.69282 169.707315 121.201086 180.081114 126.336265 189.668661 
C 131.471443 199.256208 138.162664 207.925187 146.136665 215.321566 
C 154.110666 222.717945 163.2574 228.739648 173.203322 233.140755 
C 183.149244 237.541862 193.757094 240.261635 204.593658 241.188999 
C 215.430221 242.116364 226.345945 241.238522 236.895043 238.591325 
C 247.444141 235.944128 257.481026 231.564108 266.595803 225.630141 
C 275.71058 219.696175 283.777457 212.290155 290.466991 203.714536 
C 297.156526 195.138917 302.376396 185.512049 305.91343 175.227083 
C 309.450463 164.942118 311.255844 154.140996 311.255844 143.264824 
L 262.114797 143.264824 
C 262.114797 148.70291 261.212107 154.103471 259.44359 159.245954 
C 257.675073 164.388437 255.065138 169.20187 251.720371 173.48968 
C 248.375603 177.77749 244.342165 181.4805 239.784777 184.447483 
C 235.227388 187.414466 230.208946 189.604476 224.934397 190.928075 
C 219.659848 192.251673 214.201986 192.690594 208.783704 192.226912 
C 203.365422 191.763229 198.061497 190.403343 193.088536 188.20279 
C 188.115575 186.002236 183.542208 182.991385 179.555208 179.293195 
C 175.568207 175.595006 172.222597 171.260516 169.655008 166.466743 
C 167.087418 161.672969 165.333285 156.48607 164.464245 151.117872 
C 163.595205 145.749674 163.623251 140.274263 164.547238 134.91525 
C 165.471225 129.556236 167.278402 124.387579 169.894965 119.620359 
C 172.511527 114.85314 175.901366 110.553151 179.926042 106.895999 
C 183.950718 103.238847 188.554688 100.275004 193.549931 98.125509 
C 198.545174 95.976015 203.862752 94.670535 209.285499 94.262383 
C 214.708247 93.85423 220.161326 94.349039 225.422039 95.726602 
C 230.682752 97.104164 235.678496 99.345469 240.205251 102.358983 
L 267.436752 61.453142 
z
" style="fill:#ff7f0e;"/>
   </g>
   <g id="matplotlib.axis_1"/>
   <g id="matplotlib.axis_2"/>
   <g id="text_1">
    <!-- С высшим образованием -->
    <g transform="translate(325.602482 85.784368)scale(0.1 -0.1)">
     <defs>
      <path d="M 64.40625 67.28125 
L 64.40625 56.890625 
Q 59.421875 61.53125 53.78125 63.8125 
Q 48.140625 66.109375 41.796875 66.109375 
Q 29.296875 66.109375 22.65625 58.46875 
Q 16.015625 50.828125 16.015625 36.375 
Q 16.015625 21.96875 22.65625 14.328125 
Q 29.296875 6.6875 41.796875 6.6875 
Q 48.140625 6.6875 53.78125 8.984375 
Q 59.421875 11.28125 64.40625 15.921875 
L 64.40625 5.609375 
Q 59.234375 2.09375 53.4375 0.328125 
Q 47.65625 -1.421875 41.21875 -1.421875 
Q 24.65625 -1.421875 15.125 8.703125 
Q 5.609375 18.84375 5.609375 36.375 
Q 5.609375 53.953125 15.125 64.078125 
Q 24.65625 74.21875 41.21875 74.21875 
Q 47.75 74.21875 53.53125 72.484375 
Q 59.328125 70.75 64.40625 67.28125 
z
" id="DejaVuSans-1057"/>
      <path id="DejaVuSans-32"/>
      <path d="M 18.0625 25.203125 
L 18.0625 7.171875 
L 30.859375 7.171875 
Q 37.015625 7.171875 40.234375 9.484375 
Q 43.453125 11.8125 43.453125 16.21875 
Q 43.453125 20.609375 40.234375 22.90625 
Q 37.015625 25.203125 30.859375 25.203125 
z
M 18.0625 47.515625 
L 18.0625 32.375 
L 29.890625 32.375 
Q 34.96875 32.375 38.1875 34.390625 
Q 41.40625 36.421875 41.40625 40.046875 
Q 41.40625 43.65625 38.1875 45.578125 
Q 34.96875 47.515625 29.890625 47.515625 
z
M 9.078125 54.6875 
L 30.46875 54.6875 
Q 40.09375 54.6875 45.265625 51.171875 
Q 50.4375 47.65625 50.4375 41.15625 
Q 50.4375 36.140625 47.796875 33.171875 
Q 45.171875 30.21875 39.984375 29.5 
Q 46.1875 28.328125 49.609375 24.609375 
Q 53.03125 20.90625 53.03125 15.328125 
Q 53.03125 8.015625 47.390625 4 
Q 41.75 0 31.296875 0 
L 9.078125 0 
z
" id="DejaVuSans-1074"/>
      <path d="M 61.046875 54.6875 
L 70.03125 54.6875 
L 70.03125 0 
L 61.046875 0 
z
M 65.546875 56 
z
M 43.453125 16.21875 
Q 43.453125 20.609375 40.25 22.90625 
Q 37.0625 25.203125 30.90625 25.203125 
L 18.109375 25.203125 
L 18.109375 7.171875 
L 30.90625 7.171875 
Q 37.0625 7.171875 40.25 9.484375 
Q 43.453125 11.8125 43.453125 16.21875 
z
M 9.078125 54.6875 
L 18.109375 54.6875 
L 18.109375 32.375 
L 31.296875 32.375 
Q 41.75 32.375 47.390625 28.390625 
Q 53.03125 24.421875 53.03125 16.21875 
Q 53.03125 8.015625 47.390625 4 
Q 41.75 0 31.296875 0 
L 9.078125 0 
z
" id="DejaVuSans-1099"/>
      <path d="M 48.78125 52.59375 
L 48.78125 44.1875 
Q 44.96875 46.296875 41.140625 47.34375 
Q 37.3125 48.390625 33.40625 48.390625 
Q 24.65625 48.390625 19.8125 42.84375 
Q 14.984375 37.3125 14.984375 27.296875 
Q 14.984375 17.28125 19.8125 11.734375 
Q 24.65625 6.203125 33.40625 6.203125 
Q 37.3125 6.203125 41.140625 7.25 
Q 44.96875 8.296875 48.78125 10.40625 
L 48.78125 2.09375 
Q 45.015625 0.34375 40.984375 -0.53125 
Q 36.96875 -1.421875 32.421875 -1.421875 
Q 20.0625 -1.421875 12.78125 6.34375 
Q 5.515625 14.109375 5.515625 27.296875 
Q 5.515625 40.671875 12.859375 48.328125 
Q 20.21875 56 33.015625 56 
Q 37.15625 56 41.109375 55.140625 
Q 45.0625 54.296875 48.78125 52.59375 
z
" id="DejaVuSans-1089"/>
      <path d="M 50.25 7.171875 
L 73.390625 7.171875 
L 73.390625 54.6875 
L 82.421875 54.6875 
L 82.421875 0 
L 9.078125 0 
L 9.078125 54.6875 
L 18.109375 54.6875 
L 18.109375 7.171875 
L 41.21875 7.171875 
L 41.21875 54.6875 
L 50.25 54.6875 
z
" id="DejaVuSans-1096"/>
      <path d="M 55.90625 54.6875 
L 55.90625 0 
L 46.96875 0 
L 46.96875 43.890625 
L 20.609375 0 
L 9.078125 0 
L 9.078125 54.6875 
L 18.015625 54.6875 
L 18.015625 10.890625 
L 44.34375 54.6875 
z
" id="DejaVuSans-1080"/>
      <path d="M 9.078125 54.6875 
L 22.21875 54.6875 
L 37.75 18.0625 
L 53.328125 54.6875 
L 66.359375 54.6875 
L 66.359375 0 
L 57.328125 0 
L 57.328125 46.09375 
L 42.234375 10.5 
L 33.25 10.5 
L 18.109375 46.09375 
L 18.109375 0 
L 9.078125 0 
z
" id="DejaVuSans-1084"/>
      <path d="M 30.609375 48.390625 
Q 23.390625 48.390625 19.1875 42.75 
Q 14.984375 37.109375 14.984375 27.296875 
Q 14.984375 17.484375 19.15625 11.84375 
Q 23.34375 6.203125 30.609375 6.203125 
Q 37.796875 6.203125 41.984375 11.859375 
Q 46.1875 17.53125 46.1875 27.296875 
Q 46.1875 37.015625 41.984375 42.703125 
Q 37.796875 48.390625 30.609375 48.390625 
z
M 30.609375 56 
Q 42.328125 56 49.015625 48.375 
Q 55.71875 40.765625 55.71875 27.296875 
Q 55.71875 13.875 49.015625 6.21875 
Q 42.328125 -1.421875 30.609375 -1.421875 
Q 18.84375 -1.421875 12.171875 6.21875 
Q 5.515625 13.875 5.515625 27.296875 
Q 5.515625 40.765625 12.171875 48.375 
Q 18.84375 56 30.609375 56 
z
" id="DejaVuSans-1086"/>
      <path d="M 31.109375 56 
Q 42.828125 56 49.515625 48.375 
Q 56.203125 40.765625 56.203125 27.296875 
Q 56.203125 13.875 49.515625 6.21875 
Q 42.828125 -1.421875 31.109375 -1.421875 
Q 19.34375 -1.421875 12.84375 6 
Q 6.34375 13.421875 6 27.296875 
L 5.71875 38.484375 
Q 5.46875 44.28125 5.46875 46.296875 
Q 5.46875 54.109375 8.296875 59.859375 
Q 12.75 68.890625 20.4375 72.796875 
Q 28.125 76.703125 41.015625 76.8125 
Q 46.96875 76.859375 49.609375 77.6875 
L 52.09375 70.5625 
Q 49.703125 69.578125 47.515625 69.53125 
L 35.296875 68.703125 
Q 29.15625 68.265625 25.4375 66.109375 
Q 15.71875 60.40625 14.796875 52.9375 
L 14.453125 50.203125 
Q 20.796875 56 31.109375 56 
z
M 31.109375 48.390625 
Q 23.875 48.390625 19.671875 42.75 
Q 15.484375 37.109375 15.484375 27.296875 
Q 15.484375 17.484375 19.65625 11.84375 
Q 23.828125 6.203125 31.109375 6.203125 
Q 38.28125 6.203125 42.484375 11.859375 
Q 46.6875 17.53125 46.6875 27.296875 
Q 46.6875 37.015625 42.484375 42.703125 
Q 38.28125 48.390625 31.109375 48.390625 
z
" id="DejaVuSans-1073"/>
      <path d="M 18.109375 8.203125 
L 18.109375 -20.796875 
L 9.078125 -20.796875 
L 9.078125 54.6875 
L 18.109375 54.6875 
L 18.109375 46.390625 
Q 20.953125 51.265625 25.265625 53.625 
Q 29.59375 56 35.59375 56 
Q 45.5625 56 51.78125 48.09375 
Q 58.015625 40.1875 58.015625 27.296875 
Q 58.015625 14.40625 51.78125 6.484375 
Q 45.5625 -1.421875 35.59375 -1.421875 
Q 29.59375 -1.421875 25.265625 0.953125 
Q 20.953125 3.328125 18.109375 8.203125 
z
M 48.6875 27.296875 
Q 48.6875 37.203125 44.609375 42.84375 
Q 40.53125 48.484375 33.40625 48.484375 
Q 26.265625 48.484375 22.1875 42.84375 
Q 18.109375 37.203125 18.109375 27.296875 
Q 18.109375 17.390625 22.1875 11.75 
Q 26.265625 6.109375 33.40625 6.109375 
Q 40.53125 6.109375 44.609375 11.75 
Q 48.6875 17.390625 48.6875 27.296875 
z
" id="DejaVuSans-1088"/>
      <path d="M 34.28125 27.484375 
Q 23.390625 27.484375 19.1875 25 
Q 14.984375 22.515625 14.984375 16.5 
Q 14.984375 11.71875 18.140625 8.90625 
Q 21.296875 6.109375 26.703125 6.109375 
Q 34.1875 6.109375 38.703125 11.40625 
Q 43.21875 16.703125 43.21875 25.484375 
L 43.21875 27.484375 
z
M 52.203125 31.203125 
L 52.203125 0 
L 43.21875 0 
L 43.21875 8.296875 
Q 40.140625 3.328125 35.546875 0.953125 
Q 30.953125 -1.421875 24.3125 -1.421875 
Q 15.921875 -1.421875 10.953125 3.296875 
Q 6 8.015625 6 15.921875 
Q 6 25.140625 12.171875 29.828125 
Q 18.359375 34.515625 30.609375 34.515625 
L 43.21875 34.515625 
L 43.21875 35.40625 
Q 43.21875 41.609375 39.140625 45 
Q 35.0625 48.390625 27.6875 48.390625 
Q 23 48.390625 18.546875 47.265625 
Q 14.109375 46.140625 10.015625 43.890625 
L 10.015625 52.203125 
Q 14.9375 54.109375 19.578125 55.046875 
Q 24.21875 56 28.609375 56 
Q 40.484375 56 46.34375 49.84375 
Q 52.203125 43.703125 52.203125 31.203125 
z
" id="DejaVuSans-1072"/>
      <path d="M 34.46875 29.5 
Q 40.53125 28.328125 43.890625 24.75 
Q 47.265625 21.1875 47.265625 15.921875 
Q 47.265625 7.46875 40.96875 3.015625 
Q 34.671875 -1.421875 23.046875 -1.421875 
Q 19.140625 -1.421875 15.015625 -0.734375 
Q 10.890625 -0.046875 6.5 1.3125 
L 6.5 9.671875 
Q 9.96875 7.859375 14.109375 6.953125 
Q 18.265625 6.0625 22.796875 6.0625 
Q 30.171875 6.0625 34.296875 8.796875 
Q 38.421875 11.53125 38.421875 15.921875 
Q 38.421875 20.21875 34.765625 22.828125 
Q 31.109375 25.4375 24.421875 25.4375 
L 17.1875 25.4375 
L 17.1875 32.859375 
L 24.75 32.859375 
Q 30.421875 32.859375 33.71875 35.03125 
Q 37.015625 37.203125 37.015625 40.625 
Q 37.015625 43.75 33.609375 46 
Q 30.21875 48.25 24.421875 48.25 
Q 20.953125 48.25 17.015625 47.609375 
Q 13.09375 46.96875 8.34375 45.5625 
L 8.34375 53.71875 
Q 13.140625 54.890625 17.28125 55.46875 
Q 21.4375 56.0625 25.140625 56.0625 
Q 34.71875 56.0625 40.25 52.21875 
Q 45.796875 48.390625 45.796875 41.5 
Q 45.796875 36.96875 42.859375 33.8125 
Q 39.9375 30.671875 34.46875 29.5 
z
" id="DejaVuSans-1079"/>
      <path d="M 9.078125 54.6875 
L 18.109375 54.6875 
L 18.109375 32.375 
L 47.265625 32.375 
L 47.265625 54.6875 
L 56.296875 54.6875 
L 56.296875 0 
L 47.265625 0 
L 47.265625 25.203125 
L 18.109375 25.203125 
L 18.109375 0 
L 9.078125 0 
z
" id="DejaVuSans-1085"/>
      <path d="M 56.203125 29.59375 
L 56.203125 25.203125 
L 14.890625 25.203125 
Q 15.484375 15.921875 20.484375 11.0625 
Q 25.484375 6.203125 34.421875 6.203125 
Q 39.59375 6.203125 44.453125 7.46875 
Q 49.3125 8.734375 54.109375 11.28125 
L 54.109375 2.78125 
Q 49.265625 0.734375 44.1875 -0.34375 
Q 39.109375 -1.421875 33.890625 -1.421875 
Q 20.796875 -1.421875 13.15625 6.1875 
Q 5.515625 13.8125 5.515625 26.8125 
Q 5.515625 40.234375 12.765625 48.109375 
Q 20.015625 56 32.328125 56 
Q 43.359375 56 49.78125 48.890625 
Q 56.203125 41.796875 56.203125 29.59375 
z
M 47.21875 32.234375 
Q 47.125 39.59375 43.09375 43.984375 
Q 39.0625 48.390625 32.421875 48.390625 
Q 24.90625 48.390625 20.390625 44.140625 
Q 15.875 39.890625 15.1875 32.171875 
z
" id="DejaVuSans-1077"/>
     </defs>
     <use xlink:href="#DejaVuSans-1057"/>
     <use x="69.824219" xlink:href="#DejaVuSans-32"/>
     <use x="101.611328" xlink:href="#DejaVuSans-1074"/>
     <use x="160.546875" xlink:href="#DejaVuSans-1099"/>
     <use x="239.501953" xlink:href="#DejaVuSans-1089"/>
     <use x="294.482422" xlink:href="#DejaVuSans-1096"/>
     <use x="385.986328" xlink:href="#DejaVuSans-1080"/>
     <use x="450.976562" xlink:href="#DejaVuSans-1084"/>
     <use x="526.416016" xlink:href="#DejaVuSans-32"/>
     <use x="558.203125" xlink:href="#DejaVuSans-1086"/>
     <use x="619.384766" xlink:href="#DejaVuSans-1073"/>
     <use x="681.054688" xlink:href="#DejaVuSans-1088"/>
     <use x="744.53125" xlink:href="#DejaVuSans-1072"/>
     <use x="805.810547" xlink:href="#DejaVuSans-1079"/>
     <use x="858.984375" xlink:href="#DejaVuSans-1086"/>
     <use x="920.166016" xlink:href="#DejaVuSans-1074"/>
     <use x="979.101562" xlink:href="#DejaVuSans-1072"/>
     <use x="1040.380859" xlink:href="#DejaVuSans-1085"/>
     <use x="1105.761719" xlink:href="#DejaVuSans-1080"/>
     <use x="1170.751953" xlink:href="#DejaVuSans-1077"/>
     <use x="1232.275391" xlink:href="#DejaVuSans-1084"/>
    </g>
   </g>
   <g id="text_2">
    <!-- 15.7% -->
    <g transform="translate(266.400145 108.90113)scale(0.1 -0.1)">
     <defs>
      <path d="M 12.40625 8.296875 
L 28.515625 8.296875 
L 28.515625 63.921875 
L 10.984375 60.40625 
L 10.984375 69.390625 
L 28.421875 72.90625 
L 38.28125 72.90625 
L 38.28125 8.296875 
L 54.390625 8.296875 
L 54.390625 0 
L 12.40625 0 
z
" id="DejaVuSans-49"/>
      <path d="M 10.796875 72.90625 
L 49.515625 72.90625 
L 49.515625 64.59375 
L 19.828125 64.59375 
L 19.828125 46.734375 
Q 21.96875 47.46875 24.109375 47.828125 
Q 26.265625 48.1875 28.421875 48.1875 
Q 40.625 48.1875 47.75 41.5 
Q 54.890625 34.8125 54.890625 23.390625 
Q 54.890625 11.625 47.5625 5.09375 
Q 40.234375 -1.421875 26.90625 -1.421875 
Q 22.3125 -1.421875 17.546875 -0.640625 
Q 12.796875 0.140625 7.71875 1.703125 
L 7.71875 11.625 
Q 12.109375 9.234375 16.796875 8.0625 
Q 21.484375 6.890625 26.703125 6.890625 
Q 35.15625 6.890625 40.078125 11.328125 
Q 45.015625 15.765625 45.015625 23.390625 
Q 45.015625 31 40.078125 35.4375 
Q 35.15625 39.890625 26.703125 39.890625 
Q 22.75 39.890625 18.8125 39.015625 
Q 14.890625 38.140625 10.796875 36.28125 
z
" id="DejaVuSans-53"/>
      <path d="M 10.6875 12.40625 
L 21 12.40625 
L 21 0 
L 10.6875 0 
z
" id="DejaVuSans-46"/>
      <path d="M 8.203125 72.90625 
L 55.078125 72.90625 
L 55.078125 68.703125 
L 28.609375 0 
L 18.3125 0 
L 43.21875 64.59375 
L 8.203125 64.59375 
z
" id="DejaVuSans-55"/>
      <path d="M 72.703125 32.078125 
Q 68.453125 32.078125 66.03125 28.46875 
Q 63.625 24.859375 63.625 18.40625 
Q 63.625 12.0625 66.03125 8.421875 
Q 68.453125 4.78125 72.703125 4.78125 
Q 76.859375 4.78125 79.265625 8.421875 
Q 81.6875 12.0625 81.6875 18.40625 
Q 81.6875 24.8125 79.265625 28.4375 
Q 76.859375 32.078125 72.703125 32.078125 
z
M 72.703125 38.28125 
Q 80.421875 38.28125 84.953125 32.90625 
Q 89.5 27.546875 89.5 18.40625 
Q 89.5 9.28125 84.9375 3.921875 
Q 80.375 -1.421875 72.703125 -1.421875 
Q 64.890625 -1.421875 60.34375 3.921875 
Q 55.8125 9.28125 55.8125 18.40625 
Q 55.8125 27.59375 60.375 32.9375 
Q 64.9375 38.28125 72.703125 38.28125 
z
M 22.3125 68.015625 
Q 18.109375 68.015625 15.6875 64.375 
Q 13.28125 60.75 13.28125 54.390625 
Q 13.28125 47.953125 15.671875 44.328125 
Q 18.0625 40.71875 22.3125 40.71875 
Q 26.5625 40.71875 28.96875 44.328125 
Q 31.390625 47.953125 31.390625 54.390625 
Q 31.390625 60.6875 28.953125 64.34375 
Q 26.515625 68.015625 22.3125 68.015625 
z
M 66.40625 74.21875 
L 74.21875 74.21875 
L 28.609375 -1.421875 
L 20.796875 -1.421875 
z
M 22.3125 74.21875 
Q 30.03125 74.21875 34.609375 68.875 
Q 39.203125 63.53125 39.203125 54.390625 
Q 39.203125 45.171875 34.640625 39.84375 
Q 30.078125 34.515625 22.3125 34.515625 
Q 14.546875 34.515625 10.03125 39.859375 
Q 5.515625 45.21875 5.515625 54.390625 
Q 5.515625 63.484375 10.046875 68.84375 
Q 14.59375 74.21875 22.3125 74.21875 
z
" id="DejaVuSans-37"/>
     </defs>
     <use xlink:href="#DejaVuSans-49"/>
     <use x="63.623047" xlink:href="#DejaVuSans-53"/>
     <use x="127.246094" xlink:href="#DejaVuSans-46"/>
     <use x="159.033203" xlink:href="#DejaVuSans-55"/>
     <use x="222.65625" xlink:href="#DejaVuSans-37"/>
    </g>
   </g>
   <g id="text_3">
    <!-- Без высшего образования -->
    <g transform="translate(-20.250921 197.153576)scale(0.1 -0.1)">
     <defs>
      <path d="M 51.125 21.4375 
Q 51.125 28.21875 47.28125 31.515625 
Q 43.453125 34.8125 35.5 34.8125 
L 19.671875 34.8125 
L 19.671875 8.109375 
L 35.5 8.109375 
Q 43.453125 8.109375 47.28125 11.40625 
Q 51.125 14.703125 51.125 21.4375 
z
M 56.390625 72.90625 
L 56.390625 64.796875 
L 19.671875 64.796875 
L 19.671875 42.921875 
L 35.984375 42.921875 
Q 48.25 42.921875 54.890625 37.59375 
Q 61.53125 32.28125 61.53125 21.4375 
Q 61.53125 10.640625 55.109375 5.3125 
Q 48.6875 0 35.984375 0 
L 9.8125 0 
L 9.8125 72.90625 
z
" id="DejaVuSans-1041"/>
      <path d="M 9.078125 0 
L 9.078125 54.6875 
L 47.65625 54.6875 
L 47.65625 47.515625 
L 18.109375 47.515625 
L 18.109375 0 
z
" id="DejaVuSans-1075"/>
      <path d="M 18.453125 38.921875 
Q 18.453125 34.859375 21.578125 32.5625 
Q 24.703125 30.28125 30.515625 30.28125 
L 42.625 30.28125 
L 42.625 47.515625 
L 30.515625 47.515625 
Q 24.703125 47.515625 21.578125 45.265625 
Q 18.453125 43.015625 18.453125 38.921875 
z
M 5.671875 0 
L 22.359375 23.96875 
Q 16.703125 25.25 12.9375 28.59375 
Q 9.1875 31.9375 9.1875 38.921875 
Q 9.1875 46.828125 14.421875 50.75 
Q 19.671875 54.6875 30.28125 54.6875 
L 51.65625 54.6875 
L 51.65625 0 
L 42.625 0 
L 42.625 23.09375 
L 31.453125 23.09375 
L 15.328125 0 
z
" id="DejaVuSans-1103"/>
     </defs>
     <use xlink:href="#DejaVuSans-1041"/>
     <use x="68.603516" xlink:href="#DejaVuSans-1077"/>
     <use x="130.126953" xlink:href="#DejaVuSans-1079"/>
     <use x="183.300781" xlink:href="#DejaVuSans-32"/>
     <use x="215.087891" xlink:href="#DejaVuSans-1074"/>
     <use x="274.023438" xlink:href="#DejaVuSans-1099"/>
     <use x="352.978516" xlink:href="#DejaVuSans-1089"/>
     <use x="407.958984" xlink:href="#DejaVuSans-1096"/>
     <use x="499.462891" xlink:href="#DejaVuSans-1077"/>
     <use x="560.986328" xlink:href="#DejaVuSans-1075"/>
     <use x="613.525391" xlink:href="#DejaVuSans-1086"/>
     <use x="674.707031" xlink:href="#DejaVuSans-32"/>
     <use x="706.494141" xlink:href="#DejaVuSans-1086"/>
     <use x="767.675781" xlink:href="#DejaVuSans-1073"/>
     <use x="829.345703" xlink:href="#DejaVuSans-1088"/>
     <use x="892.822266" xlink:href="#DejaVuSans-1072"/>
     <use x="954.101562" xlink:href="#DejaVuSans-1079"/>
     <use x="1007.275391" xlink:href="#DejaVuSans-1086"/>
     <use x="1068.457031" xlink:href="#DejaVuSans-1074"/>
     <use x="1127.392578" xlink:href="#DejaVuSans-1072"/>
     <use x="1188.671875" xlink:href="#DejaVuSans-1085"/>
     <use x="1254.052734" xlink:href="#DejaVuSans-1080"/>
     <use x="1319.042969" xlink:href="#DejaVuSans-1103"/>
    </g>
   </g>
   <g id="text_4">
    <!-- 84.3% -->
    <g transform="translate(145.107665 173.866501)scale(0.1 -0.1)">
     <defs>
      <path d="M 31.78125 34.625 
Q 24.75 34.625 20.71875 30.859375 
Q 16.703125 27.09375 16.703125 20.515625 
Q 16.703125 13.921875 20.71875 10.15625 
Q 24.75 6.390625 31.78125 6.390625 
Q 38.8125 6.390625 42.859375 10.171875 
Q 46.921875 13.96875 46.921875 20.515625 
Q 46.921875 27.09375 42.890625 30.859375 
Q 38.875 34.625 31.78125 34.625 
z
M 21.921875 38.8125 
Q 15.578125 40.375 12.03125 44.71875 
Q 8.5 49.078125 8.5 55.328125 
Q 8.5 64.0625 14.71875 69.140625 
Q 20.953125 74.21875 31.78125 74.21875 
Q 42.671875 74.21875 48.875 69.140625 
Q 55.078125 64.0625 55.078125 55.328125 
Q 55.078125 49.078125 51.53125 44.71875 
Q 48 40.375 41.703125 38.8125 
Q 48.828125 37.15625 52.796875 32.3125 
Q 56.78125 27.484375 56.78125 20.515625 
Q 56.78125 9.90625 50.3125 4.234375 
Q 43.84375 -1.421875 31.78125 -1.421875 
Q 19.734375 -1.421875 13.25 4.234375 
Q 6.78125 9.90625 6.78125 20.515625 
Q 6.78125 27.484375 10.78125 32.3125 
Q 14.796875 37.15625 21.921875 38.8125 
z
M 18.3125 54.390625 
Q 18.3125 48.734375 21.84375 45.5625 
Q 25.390625 42.390625 31.78125 42.390625 
Q 38.140625 42.390625 41.71875 45.5625 
Q 45.3125 48.734375 45.3125 54.390625 
Q 45.3125 60.0625 41.71875 63.234375 
Q 38.140625 66.40625 31.78125 66.40625 
Q 25.390625 66.40625 21.84375 63.234375 
Q 18.3125 60.0625 18.3125 54.390625 
z
" id="DejaVuSans-56"/>
      <path d="M 37.796875 64.3125 
L 12.890625 25.390625 
L 37.796875 25.390625 
z
M 35.203125 72.90625 
L 47.609375 72.90625 
L 47.609375 25.390625 
L 58.015625 25.390625 
L 58.015625 17.1875 
L 47.609375 17.1875 
L 47.609375 0 
L 37.796875 0 
L 37.796875 17.1875 
L 4.890625 17.1875 
L 4.890625 26.703125 
z
" id="DejaVuSans-52"/>
      <path d="M 40.578125 39.3125 
Q 47.65625 37.796875 51.625 33 
Q 55.609375 28.21875 55.609375 21.1875 
Q 55.609375 10.40625 48.1875 4.484375 
Q 40.765625 -1.421875 27.09375 -1.421875 
Q 22.515625 -1.421875 17.65625 -0.515625 
Q 12.796875 0.390625 7.625 2.203125 
L 7.625 11.71875 
Q 11.71875 9.328125 16.59375 8.109375 
Q 21.484375 6.890625 26.8125 6.890625 
Q 36.078125 6.890625 40.9375 10.546875 
Q 45.796875 14.203125 45.796875 21.1875 
Q 45.796875 27.640625 41.28125 31.265625 
Q 36.765625 34.90625 28.71875 34.90625 
L 20.21875 34.90625 
L 20.21875 43.015625 
L 29.109375 43.015625 
Q 36.375 43.015625 40.234375 45.921875 
Q 44.09375 48.828125 44.09375 54.296875 
Q 44.09375 59.90625 40.109375 62.90625 
Q 36.140625 65.921875 28.71875 65.921875 
Q 24.65625 65.921875 20.015625 65.03125 
Q 15.375 64.15625 9.8125 62.3125 
L 9.8125 71.09375 
Q 15.4375 72.65625 20.34375 73.4375 
Q 25.25 74.21875 29.59375 74.21875 
Q 40.828125 74.21875 47.359375 69.109375 
Q 53.90625 64.015625 53.90625 55.328125 
Q 53.90625 49.265625 50.4375 45.09375 
Q 46.96875 40.921875 40.578125 39.3125 
z
" id="DejaVuSans-51"/>
     </defs>
     <use xlink:href="#DejaVuSans-56"/>
     <use x="63.623047" xlink:href="#DejaVuSans-52"/>
     <use x="127.246094" xlink:href="#DejaVuSans-46"/>
     <use x="159.033203" xlink:href="#DejaVuSans-51"/>
     <use x="222.65625" xlink:href="#DejaVuSans-37"/>
    </g>
   </g>
  </g>
 </g>
</svg>
