<?xml version="1.0" encoding="utf-8" standalone="no"?>
<!DOCTYPE svg PUBLIC "-//W3C//DTD SVG 1.1//EN"
  "http://www.w3.org/Graphics/SVG/1.1/DTD/svg11.dtd">
<!-- Created with matplotlib (https://matplotlib.org/) -->
<svg height="288pt" version="1.1" viewBox="0 0 432 288" width="432pt" xmlns="http://www.w3.org/2000/svg" xmlns:xlink="http://www.w3.org/1999/xlink">
 <metadata>
  <rdf:RDF xmlns:cc="http://creativecommons.org/ns#" xmlns:dc="http://purl.org/dc/elements/1.1/" xmlns:rdf="http://www.w3.org/1999/02/22-rdf-syntax-ns#">
   <cc:Work>
    <dc:type rdf:resource="http://purl.org/dc/dcmitype/StillImage"/>
    <dc:date>2020-11-30T18:54:38.401224</dc:date>
    <dc:format>image/svg+xml</dc:format>
    <dc:creator>
     <cc:Agent>
      <dc:title>Matplotlib v3.3.3, https://matplotlib.org/</dc:title>
     </cc:Agent>
    </dc:creator>
   </cc:Work>
  </rdf:RDF>
 </metadata>
 <defs>
  <style type="text/css">*{stroke-linecap:butt;stroke-linejoin:round;}</style>
 </defs>
 <g id="figure_1">
  <g id="patch_1">
   <path d="M 0 288 
L 432 288 
L 432 0 
L 0 0 
z
" style="fill:none;"/>
  </g>
  <g id="axes_1">
   <g id="patch_2">
    <path d="M 316.853828 143.684755 
C 316.853828 140.740536 316.709275 137.798092 316.420691 134.86805 
C 316.132107 131.938008 315.69984 129.023901 315.125451 126.136254 
L 271.014314 134.910505 
C 271.301508 136.354328 271.517642 137.811382 271.661934 139.276403 
C 271.806225 140.741424 271.878502 142.212646 271.878502 143.684755 
L 316.853828 143.684755 
z
" style="fill:#4c4c00;opacity:0.5;stroke:#4c4c00;stroke-linejoin:miter;"/>
   </g>
   <g id="patch_3">
    <path d="M 314.899194 124.832302 
C 314.612043 123.388696 314.289502 121.952355 313.931862 120.524578 
C 313.574223 119.096801 313.181592 117.678017 312.754326 116.269508 
L 269.715622 129.325156 
C 269.929256 130.02941 270.125571 130.738802 270.304391 131.452691 
C 270.483211 132.166579 270.644481 132.88475 270.788057 133.606553 
L 314.899194 124.832302 
z
" style="fill:#002600;opacity:0.5;stroke:#002600;stroke-linejoin:miter;"/>
   </g>
   <g id="patch_4">
    <path d="M 298.670477 111.230226 
C 294.485062 97.432759 287.042933 84.841755 276.973525 74.522123 
C 266.904116 64.202491 254.499544 56.453605 240.808948 51.930843 
C 227.118352 47.408081 212.5389 46.242649 198.303677 48.533116 
C 184.068455 50.823583 170.590429 56.503501 159.00953 65.092481 
C 147.428631 73.681461 138.080824 84.930334 131.756717 97.887705 
C 125.43261 110.845077 122.315667 125.135049 122.669511 139.549021 
C 123.023354 153.962993 126.837718 168.082812 133.789995 180.714266 
C 140.742272 193.345721 150.630776 204.122369 162.619166 212.132755 
L 187.606118 174.737139 
C 181.611923 170.731945 176.667671 165.343621 173.191533 159.027894 
C 169.715394 152.712167 167.808212 145.652258 167.631291 138.445272 
C 167.454369 131.238286 169.01284 124.093299 172.174894 117.614614 
C 175.336947 111.135928 180.010851 105.511491 185.8013 101.217002 
C 191.59175 96.922512 198.330763 94.082552 205.448374 92.937319 
C 212.565985 91.792086 219.855711 92.374802 226.701009 94.636183 
C 233.546307 96.897564 239.748594 100.772007 244.783298 105.931823 
C 249.818002 111.091639 253.539066 117.387141 255.631774 124.285874 
L 298.670477 111.230226 
z
" style="fill:#4c3200;opacity:0.5;stroke:#4c3200;stroke-linejoin:miter;"/>
   </g>
   <g id="patch_5">
    <path d="M 166.22267 228.179887 
C 176.044165 234.7424 187.06283 239.30648 198.648073 241.610929 
C 210.233316 243.915377 222.159833 243.915377 233.745076 241.610929 
L 224.970825 197.499791 
C 219.178204 198.652015 213.214945 198.652015 207.422324 197.499791 
C 201.629702 196.347567 196.12037 194.065527 191.209622 190.78427 
L 166.22267 228.179887 
z
" style="fill:#4c004c;opacity:0.5;stroke:#4c004c;stroke-linejoin:miter;"/>
   </g>
   <g id="patch_6">
    <path d="M 238.111056 241.396442 
C 240.998703 240.822053 243.856408 240.106235 246.67385 239.251573 
C 249.491292 238.396912 252.265075 237.404437 254.985178 236.277733 
L 237.773866 194.72595 
C 236.413814 195.289302 235.026923 195.785539 233.618202 196.21287 
C 232.209481 196.640201 230.780629 196.99811 229.336805 197.285304 
L 238.111056 241.396442 
z
" style="fill:#4c0000;opacity:0.5;stroke:#4c0000;stroke-linejoin:miter;"/>
   </g>
   <g id="patch_7">
    <path d="M 257.732403 234.894896 
C 264.539819 232.075172 270.97505 228.429658 276.893319 224.040371 
C 282.811588 219.651083 288.168177 214.551187 292.842573 208.855419 
L 258.076176 180.323375 
C 255.738978 183.171259 253.060684 185.721207 250.101549 187.915851 
C 247.142415 190.110494 243.924799 191.933251 240.521091 193.343113 
L 257.732403 234.894896 
z
" style="fill:#00004c;opacity:0.5;stroke:#00004c;stroke-linejoin:miter;"/>
   </g>
   <g id="patch_8">
    <path d="M 295.794575 205.072778 
C 301.406934 198.234099 305.979819 190.604702 309.365347 182.431313 
C 312.750876 174.257923 314.912157 165.629607 315.779296 156.825394 
L 271.020539 152.417041 
C 270.586969 156.819148 269.506329 161.133306 267.813564 165.22 
C 266.1208 169.306695 263.834358 173.121394 261.028178 176.540733 
L 295.794575 205.072778 
z
" style="fill:#4c3a3d;opacity:0.5;stroke:#4c3a3d;stroke-linejoin:miter;"/>
   </g>
   <g id="patch_9">
    <path d="M 316.45317 153.824499 
C 316.59744 152.359698 316.705735 150.891577 316.777957 149.421462 
C 316.850179 147.951347 316.886307 146.479681 316.886307 145.007793 
L 271.910981 145.007793 
C 271.910981 145.743737 271.892917 146.47957 271.856806 147.214628 
C 271.820695 147.949685 271.766547 148.683746 271.694412 149.416146 
L 316.45317 153.824499 
z
" style="fill:#320d0d;opacity:0.5;stroke:#320d0d;stroke-linejoin:miter;"/>
   </g>
   <g id="patch_10">
    <path d="M 318.652841 141.885742 
C 318.652841 138.941523 318.508288 135.999079 318.219704 133.069037 
C 317.93112 130.138995 317.498853 127.224888 316.924464 124.337241 
L 272.813327 133.111492 
C 273.100521 134.555315 273.316655 136.012369 273.460947 137.47739 
C 273.605239 138.942411 273.677515 140.413633 273.677515 141.885742 
L 318.652841 141.885742 
z
" style="fill:#ffff00;"/>
   </g>
   <g id="patch_11">
    <path d="M 316.698207 123.033289 
C 316.411056 121.589683 316.088515 120.153342 315.730875 118.725565 
C 315.373236 117.297788 314.980605 115.879004 314.553339 114.470495 
L 271.514635 127.526143 
C 271.728269 128.230397 271.924584 128.939789 272.103404 129.653678 
C 272.282224 130.367566 272.443494 131.085737 272.58707 131.80754 
L 316.698207 123.033289 
z
" style="fill:#008000;"/>
   </g>
   <g id="patch_12">
    <path d="M 300.46949 109.431213 
C 296.284075 95.633746 288.841946 83.042742 278.772538 72.72311 
C 268.703129 62.403478 256.298557 54.654592 242.607961 50.13183 
C 228.917365 45.609068 214.337913 44.443636 200.10269 46.734103 
C 185.867468 49.02457 172.389442 54.704488 160.808543 63.293468 
C 149.227644 71.882448 139.879837 83.131321 133.55573 96.088692 
C 127.231623 109.046064 124.11468 123.336036 124.468524 137.750008 
C 124.822367 152.16398 128.636731 166.283799 135.589008 178.915253 
C 142.541285 191.546708 152.429789 202.323356 164.418179 210.333742 
L 189.405131 172.938126 
C 183.410936 168.932932 178.466684 163.544608 174.990546 157.228881 
C 171.514407 150.913154 169.607225 143.853245 169.430304 136.646259 
C 169.253382 129.439273 170.811853 122.294286 173.973907 115.815601 
C 177.13596 109.336915 181.809864 103.712478 187.600313 99.417988 
C 193.390763 95.123499 200.129776 92.283539 207.247387 91.138306 
C 214.364998 89.993073 221.654724 90.575789 228.500022 92.83717 
C 235.34532 95.098551 241.547607 98.972993 246.582311 104.13281 
C 251.617015 109.292626 255.338079 115.588128 257.430787 122.486861 
L 300.46949 109.431213 
z
" style="fill:#ffa500;"/>
   </g>
   <g id="patch_13">
    <path d="M 168.021683 226.380874 
C 177.843178 232.943387 188.861843 237.507467 200.447086 239.811916 
C 212.032329 242.116364 223.958846 242.116364 235.544089 239.811916 
L 226.769838 195.700778 
C 220.977217 196.853002 215.013958 196.853002 209.221337 195.700778 
C 203.428715 194.548554 197.919383 192.266514 193.008635 188.985257 
L 168.021683 226.380874 
z
" style="fill:#ff00ff;"/>
   </g>
   <g id="patch_14">
    <path d="M 239.910069 239.597429 
C 242.797716 239.02304 245.655421 238.307222 248.472863 237.45256 
C 251.290305 236.597899 254.064088 235.605423 256.784191 234.47872 
L 239.572879 192.926937 
C 238.212828 193.490289 236.825936 193.986526 235.417215 194.413857 
C 234.008494 194.841188 232.579642 195.199097 231.135818 195.486291 
L 239.910069 239.597429 
z
" style="fill:#ff0000;"/>
   </g>
   <g id="patch_15">
    <path d="M 259.531416 233.095883 
C 266.338832 230.276159 272.774063 226.630645 278.692332 222.241358 
C 284.610601 217.85207 289.96719 212.752174 294.641586 207.056406 
L 259.875189 178.524362 
C 257.537991 181.372246 254.859697 183.922194 251.900562 186.116837 
C 248.941428 188.311481 245.723812 190.134238 242.320104 191.5441 
L 259.531416 233.095883 
z
" style="fill:#0000ff;"/>
   </g>
   <g id="patch_16">
    <path d="M 297.593588 203.273765 
C 303.205947 196.435086 307.778832 188.805689 311.16436 180.632299 
C 314.549889 172.45891 316.71117 163.830594 317.578309 155.026381 
L 272.819552 150.618028 
C 272.385982 155.020135 271.305342 159.334293 269.612577 163.420987 
C 267.919813 167.507682 265.633371 171.322381 262.827191 174.74172 
L 297.593588 203.273765 
z
" style="fill:#ffc0cb;"/>
   </g>
   <g id="patch_17">
    <path d="M 318.252183 152.025486 
C 318.396453 150.560685 318.504748 149.092564 318.57697 147.622449 
C 318.649192 146.152334 318.68532 144.680668 318.68532 143.20878 
L 273.709994 143.20878 
C 273.709994 143.944724 273.69193 144.680557 273.655819 145.415615 
C 273.619708 146.150672 273.56556 146.884733 273.493425 147.617133 
L 318.252183 152.025486 
z
" style="fill:#a52a2a;"/>
   </g>
   <g id="matplotlib.axis_1"/>
   <g id="matplotlib.axis_2"/>
   <g id="text_1">
    <!-- Коммунистические -->
    <g transform="translate(327.171455 134.946741)scale(0.1 -0.1)">
     <defs>
      <path d="M 9.8125 72.90625 
L 19.671875 72.90625 
L 19.671875 36.859375 
L 54.9375 72.90625 
L 67.578125 72.90625 
L 39.40625 44.09375 
L 69.046875 0 
L 58.296875 0 
L 33.015625 37.546875 
L 19.671875 23.921875 
L 19.671875 0 
L 9.8125 0 
z
" id="DejaVuSans-1050"/>
      <path d="M 30.609375 48.390625 
Q 23.390625 48.390625 19.1875 42.75 
Q 14.984375 37.109375 14.984375 27.296875 
Q 14.984375 17.484375 19.15625 11.84375 
Q 23.34375 6.203125 30.609375 6.203125 
Q 37.796875 6.203125 41.984375 11.859375 
Q 46.1875 17.53125 46.1875 27.296875 
Q 46.1875 37.015625 41.984375 42.703125 
Q 37.796875 48.390625 30.609375 48.390625 
z
M 30.609375 56 
Q 42.328125 56 49.015625 48.375 
Q 55.71875 40.765625 55.71875 27.296875 
Q 55.71875 13.875 49.015625 6.21875 
Q 42.328125 -1.421875 30.609375 -1.421875 
Q 18.84375 -1.421875 12.171875 6.21875 
Q 5.515625 13.875 5.515625 27.296875 
Q 5.515625 40.765625 12.171875 48.375 
Q 18.84375 56 30.609375 56 
z
" id="DejaVuSans-1086"/>
      <path d="M 9.078125 54.6875 
L 22.21875 54.6875 
L 37.75 18.0625 
L 53.328125 54.6875 
L 66.359375 54.6875 
L 66.359375 0 
L 57.328125 0 
L 57.328125 46.09375 
L 42.234375 10.5 
L 33.25 10.5 
L 18.109375 46.09375 
L 18.109375 0 
L 9.078125 0 
z
" id="DejaVuSans-1084"/>
      <path d="M 32.171875 -5.078125 
Q 28.375 -14.84375 24.75 -17.8125 
Q 21.140625 -20.796875 15.09375 -20.796875 
L 7.90625 -20.796875 
L 7.90625 -13.28125 
L 13.1875 -13.28125 
Q 16.890625 -13.28125 18.9375 -11.515625 
Q 21 -9.765625 23.484375 -3.21875 
L 25.09375 0.875 
L 2.984375 54.6875 
L 12.5 54.6875 
L 29.59375 11.921875 
L 46.6875 54.6875 
L 56.203125 54.6875 
z
" id="DejaVuSans-1091"/>
      <path d="M 9.078125 54.6875 
L 18.109375 54.6875 
L 18.109375 32.375 
L 47.265625 32.375 
L 47.265625 54.6875 
L 56.296875 54.6875 
L 56.296875 0 
L 47.265625 0 
L 47.265625 25.203125 
L 18.109375 25.203125 
L 18.109375 0 
L 9.078125 0 
z
" id="DejaVuSans-1085"/>
      <path d="M 55.90625 54.6875 
L 55.90625 0 
L 46.96875 0 
L 46.96875 43.890625 
L 20.609375 0 
L 9.078125 0 
L 9.078125 54.6875 
L 18.015625 54.6875 
L 18.015625 10.890625 
L 44.34375 54.6875 
z
" id="DejaVuSans-1080"/>
      <path d="M 48.78125 52.59375 
L 48.78125 44.1875 
Q 44.96875 46.296875 41.140625 47.34375 
Q 37.3125 48.390625 33.40625 48.390625 
Q 24.65625 48.390625 19.8125 42.84375 
Q 14.984375 37.3125 14.984375 27.296875 
Q 14.984375 17.28125 19.8125 11.734375 
Q 24.65625 6.203125 33.40625 6.203125 
Q 37.3125 6.203125 41.140625 7.25 
Q 44.96875 8.296875 48.78125 10.40625 
L 48.78125 2.09375 
Q 45.015625 0.34375 40.984375 -0.53125 
Q 36.96875 -1.421875 32.421875 -1.421875 
Q 20.0625 -1.421875 12.78125 6.34375 
Q 5.515625 14.109375 5.515625 27.296875 
Q 5.515625 40.671875 12.859375 48.328125 
Q 20.21875 56 33.015625 56 
Q 37.15625 56 41.109375 55.140625 
Q 45.0625 54.296875 48.78125 52.59375 
z
" id="DejaVuSans-1089"/>
      <path d="M 2.9375 54.6875 
L 55.328125 54.6875 
L 55.328125 47.515625 
L 33.546875 47.515625 
L 33.546875 0 
L 24.703125 0 
L 24.703125 47.515625 
L 2.9375 47.515625 
z
" id="DejaVuSans-1090"/>
      <path d="M 41.015625 0 
L 41.015625 23 
L 24.265625 23 
Q 16.796875 23 11.8125 27.640625 
Q 7.328125 31.84375 7.328125 40.828125 
L 7.328125 54.6875 
L 16.3125 54.6875 
L 16.3125 41.65625 
Q 16.3125 35.9375 18.84375 33.0625 
Q 21.4375 30.171875 26.515625 30.171875 
L 41.015625 30.171875 
L 41.015625 54.6875 
L 50 54.6875 
L 50 0 
z
" id="DejaVuSans-1095"/>
      <path d="M 56.203125 29.59375 
L 56.203125 25.203125 
L 14.890625 25.203125 
Q 15.484375 15.921875 20.484375 11.0625 
Q 25.484375 6.203125 34.421875 6.203125 
Q 39.59375 6.203125 44.453125 7.46875 
Q 49.3125 8.734375 54.109375 11.28125 
L 54.109375 2.78125 
Q 49.265625 0.734375 44.1875 -0.34375 
Q 39.109375 -1.421875 33.890625 -1.421875 
Q 20.796875 -1.421875 13.15625 6.1875 
Q 5.515625 13.8125 5.515625 26.8125 
Q 5.515625 40.234375 12.765625 48.109375 
Q 20.015625 56 32.328125 56 
Q 43.359375 56 49.78125 48.890625 
Q 56.203125 41.796875 56.203125 29.59375 
z
M 47.21875 32.234375 
Q 47.125 39.59375 43.09375 43.984375 
Q 39.0625 48.390625 32.421875 48.390625 
Q 24.90625 48.390625 20.390625 44.140625 
Q 15.875 39.890625 15.1875 32.171875 
z
" id="DejaVuSans-1077"/>
      <path d="M 9.078125 54.6875 
L 18.015625 54.6875 
L 18.015625 29 
L 43.359375 54.6875 
L 54.390625 54.6875 
L 33.5 33.546875 
L 57.078125 0 
L 47.015625 0 
L 27.640625 27.59375 
L 18.015625 17.828125 
L 18.015625 0 
L 9.078125 0 
z
" id="DejaVuSans-1082"/>
     </defs>
     <use xlink:href="#DejaVuSans-1050"/>
     <use x="70.996094" xlink:href="#DejaVuSans-1086"/>
     <use x="132.177734" xlink:href="#DejaVuSans-1084"/>
     <use x="207.617188" xlink:href="#DejaVuSans-1084"/>
     <use x="283.056641" xlink:href="#DejaVuSans-1091"/>
     <use x="342.236328" xlink:href="#DejaVuSans-1085"/>
     <use x="407.617188" xlink:href="#DejaVuSans-1080"/>
     <use x="472.607422" xlink:href="#DejaVuSans-1089"/>
     <use x="527.587891" xlink:href="#DejaVuSans-1090"/>
     <use x="585.839844" xlink:href="#DejaVuSans-1080"/>
     <use x="650.830078" xlink:href="#DejaVuSans-1095"/>
     <use x="709.912109" xlink:href="#DejaVuSans-1077"/>
     <use x="771.435547" xlink:href="#DejaVuSans-1089"/>
     <use x="826.416016" xlink:href="#DejaVuSans-1082"/>
     <use x="886.816406" xlink:href="#DejaVuSans-1080"/>
     <use x="951.806641" xlink:href="#DejaVuSans-1077"/>
    </g>
   </g>
   <g id="text_2">
    <!-- 3.1% -->
    <g transform="translate(269.710354 139.355094)scale(0.1 -0.1)">
     <defs>
      <path d="M 40.578125 39.3125 
Q 47.65625 37.796875 51.625 33 
Q 55.609375 28.21875 55.609375 21.1875 
Q 55.609375 10.40625 48.1875 4.484375 
Q 40.765625 -1.421875 27.09375 -1.421875 
Q 22.515625 -1.421875 17.65625 -0.515625 
Q 12.796875 0.390625 7.625 2.203125 
L 7.625 11.71875 
Q 11.71875 9.328125 16.59375 8.109375 
Q 21.484375 6.890625 26.8125 6.890625 
Q 36.078125 6.890625 40.9375 10.546875 
Q 45.796875 14.203125 45.796875 21.1875 
Q 45.796875 27.640625 41.28125 31.265625 
Q 36.765625 34.90625 28.71875 34.90625 
L 20.21875 34.90625 
L 20.21875 43.015625 
L 29.109375 43.015625 
Q 36.375 43.015625 40.234375 45.921875 
Q 44.09375 48.828125 44.09375 54.296875 
Q 44.09375 59.90625 40.109375 62.90625 
Q 36.140625 65.921875 28.71875 65.921875 
Q 24.65625 65.921875 20.015625 65.03125 
Q 15.375 64.15625 9.8125 62.3125 
L 9.8125 71.09375 
Q 15.4375 72.65625 20.34375 73.4375 
Q 25.25 74.21875 29.59375 74.21875 
Q 40.828125 74.21875 47.359375 69.109375 
Q 53.90625 64.015625 53.90625 55.328125 
Q 53.90625 49.265625 50.4375 45.09375 
Q 46.96875 40.921875 40.578125 39.3125 
z
" id="DejaVuSans-51"/>
      <path d="M 10.6875 12.40625 
L 21 12.40625 
L 21 0 
L 10.6875 0 
z
" id="DejaVuSans-46"/>
      <path d="M 12.40625 8.296875 
L 28.515625 8.296875 
L 28.515625 63.921875 
L 10.984375 60.40625 
L 10.984375 69.390625 
L 28.421875 72.90625 
L 38.28125 72.90625 
L 38.28125 8.296875 
L 54.390625 8.296875 
L 54.390625 0 
L 12.40625 0 
z
" id="DejaVuSans-49"/>
      <path d="M 72.703125 32.078125 
Q 68.453125 32.078125 66.03125 28.46875 
Q 63.625 24.859375 63.625 18.40625 
Q 63.625 12.0625 66.03125 8.421875 
Q 68.453125 4.78125 72.703125 4.78125 
Q 76.859375 4.78125 79.265625 8.421875 
Q 81.6875 12.0625 81.6875 18.40625 
Q 81.6875 24.8125 79.265625 28.4375 
Q 76.859375 32.078125 72.703125 32.078125 
z
M 72.703125 38.28125 
Q 80.421875 38.28125 84.953125 32.90625 
Q 89.5 27.546875 89.5 18.40625 
Q 89.5 9.28125 84.9375 3.921875 
Q 80.375 -1.421875 72.703125 -1.421875 
Q 64.890625 -1.421875 60.34375 3.921875 
Q 55.8125 9.28125 55.8125 18.40625 
Q 55.8125 27.59375 60.375 32.9375 
Q 64.9375 38.28125 72.703125 38.28125 
z
M 22.3125 68.015625 
Q 18.109375 68.015625 15.6875 64.375 
Q 13.28125 60.75 13.28125 54.390625 
Q 13.28125 47.953125 15.671875 44.328125 
Q 18.0625 40.71875 22.3125 40.71875 
Q 26.5625 40.71875 28.96875 44.328125 
Q 31.390625 47.953125 31.390625 54.390625 
Q 31.390625 60.6875 28.953125 64.34375 
Q 26.515625 68.015625 22.3125 68.015625 
z
M 66.40625 74.21875 
L 74.21875 74.21875 
L 28.609375 -1.421875 
L 20.796875 -1.421875 
z
M 22.3125 74.21875 
Q 30.03125 74.21875 34.609375 68.875 
Q 39.203125 63.53125 39.203125 54.390625 
Q 39.203125 45.171875 34.640625 39.84375 
Q 30.078125 34.515625 22.3125 34.515625 
Q 14.546875 34.515625 10.03125 39.859375 
Q 5.515625 45.21875 5.515625 54.390625 
Q 5.515625 63.484375 10.046875 68.84375 
Q 14.59375 74.21875 22.3125 74.21875 
z
" id="DejaVuSans-37"/>
     </defs>
     <use xlink:href="#DejaVuSans-51"/>
     <use x="63.623047" xlink:href="#DejaVuSans-46"/>
     <use x="95.410156" xlink:href="#DejaVuSans-49"/>
     <use x="159.033203" xlink:href="#DejaVuSans-37"/>
    </g>
   </g>
   <g id="text_3">
    <!-- Социалистические -->
    <g transform="translate(324.45637 119.299317)scale(0.1 -0.1)">
     <defs>
      <path d="M 64.40625 67.28125 
L 64.40625 56.890625 
Q 59.421875 61.53125 53.78125 63.8125 
Q 48.140625 66.109375 41.796875 66.109375 
Q 29.296875 66.109375 22.65625 58.46875 
Q 16.015625 50.828125 16.015625 36.375 
Q 16.015625 21.96875 22.65625 14.328125 
Q 29.296875 6.6875 41.796875 6.6875 
Q 48.140625 6.6875 53.78125 8.984375 
Q 59.421875 11.28125 64.40625 15.921875 
L 64.40625 5.609375 
Q 59.234375 2.09375 53.4375 0.328125 
Q 47.65625 -1.421875 41.21875 -1.421875 
Q 24.65625 -1.421875 15.125 8.703125 
Q 5.609375 18.84375 5.609375 36.375 
Q 5.609375 53.953125 15.125 64.078125 
Q 24.65625 74.21875 41.21875 74.21875 
Q 47.75 74.21875 53.53125 72.484375 
Q 59.328125 70.75 64.40625 67.28125 
z
" id="DejaVuSans-1057"/>
      <path d="M 56.296875 0 
L 9.078125 0 
L 9.078125 54.6875 
L 18.109375 54.6875 
L 18.109375 7.171875 
L 47.265625 7.171875 
L 47.265625 54.6875 
L 56.296875 54.6875 
L 56.296875 7.171875 
L 63.484375 7.171875 
L 63.484375 -13.8125 
L 56.296875 -13.8125 
z
" id="DejaVuSans-1094"/>
      <path d="M 34.28125 27.484375 
Q 23.390625 27.484375 19.1875 25 
Q 14.984375 22.515625 14.984375 16.5 
Q 14.984375 11.71875 18.140625 8.90625 
Q 21.296875 6.109375 26.703125 6.109375 
Q 34.1875 6.109375 38.703125 11.40625 
Q 43.21875 16.703125 43.21875 25.484375 
L 43.21875 27.484375 
z
M 52.203125 31.203125 
L 52.203125 0 
L 43.21875 0 
L 43.21875 8.296875 
Q 40.140625 3.328125 35.546875 0.953125 
Q 30.953125 -1.421875 24.3125 -1.421875 
Q 15.921875 -1.421875 10.953125 3.296875 
Q 6 8.015625 6 15.921875 
Q 6 25.140625 12.171875 29.828125 
Q 18.359375 34.515625 30.609375 34.515625 
L 43.21875 34.515625 
L 43.21875 35.40625 
Q 43.21875 41.609375 39.140625 45 
Q 35.0625 48.390625 27.6875 48.390625 
Q 23 48.390625 18.546875 47.265625 
Q 14.109375 46.140625 10.015625 43.890625 
L 10.015625 52.203125 
Q 14.9375 54.109375 19.578125 55.046875 
Q 24.21875 56 28.609375 56 
Q 40.484375 56 46.34375 49.84375 
Q 52.203125 43.703125 52.203125 31.203125 
z
" id="DejaVuSans-1072"/>
      <path d="M 3.71875 0 
L 3.71875 7.46875 
Q 12.59375 8.84375 15.328125 14.984375 
Q 18.65625 23.640625 18.65625 45.75 
L 18.65625 54.6875 
L 55.609375 54.6875 
L 55.609375 0 
L 46.625 0 
L 46.625 47.515625 
L 27.640625 47.515625 
L 27.640625 42.09375 
Q 27.640625 21 23.34375 11.53125 
Q 18.75 1.421875 3.71875 0 
z
" id="DejaVuSans-1083"/>
     </defs>
     <use xlink:href="#DejaVuSans-1057"/>
     <use x="69.824219" xlink:href="#DejaVuSans-1086"/>
     <use x="131.005859" xlink:href="#DejaVuSans-1094"/>
     <use x="199.072266" xlink:href="#DejaVuSans-1080"/>
     <use x="264.0625" xlink:href="#DejaVuSans-1072"/>
     <use x="325.341797" xlink:href="#DejaVuSans-1083"/>
     <use x="389.257812" xlink:href="#DejaVuSans-1080"/>
     <use x="454.248047" xlink:href="#DejaVuSans-1089"/>
     <use x="509.228516" xlink:href="#DejaVuSans-1090"/>
     <use x="567.480469" xlink:href="#DejaVuSans-1080"/>
     <use x="632.470703" xlink:href="#DejaVuSans-1095"/>
     <use x="691.552734" xlink:href="#DejaVuSans-1077"/>
     <use x="753.076172" xlink:href="#DejaVuSans-1089"/>
     <use x="808.056641" xlink:href="#DejaVuSans-1082"/>
     <use x="868.457031" xlink:href="#DejaVuSans-1080"/>
     <use x="933.447266" xlink:href="#DejaVuSans-1077"/>
    </g>
   </g>
   <g id="text_4">
    <!-- 1.6% -->
    <g transform="translate(268.126554 130.22743)scale(0.1 -0.1)">
     <defs>
      <path d="M 33.015625 40.375 
Q 26.375 40.375 22.484375 35.828125 
Q 18.609375 31.296875 18.609375 23.390625 
Q 18.609375 15.53125 22.484375 10.953125 
Q 26.375 6.390625 33.015625 6.390625 
Q 39.65625 6.390625 43.53125 10.953125 
Q 47.40625 15.53125 47.40625 23.390625 
Q 47.40625 31.296875 43.53125 35.828125 
Q 39.65625 40.375 33.015625 40.375 
z
M 52.59375 71.296875 
L 52.59375 62.3125 
Q 48.875 64.0625 45.09375 64.984375 
Q 41.3125 65.921875 37.59375 65.921875 
Q 27.828125 65.921875 22.671875 59.328125 
Q 17.53125 52.734375 16.796875 39.40625 
Q 19.671875 43.65625 24.015625 45.921875 
Q 28.375 48.1875 33.59375 48.1875 
Q 44.578125 48.1875 50.953125 41.515625 
Q 57.328125 34.859375 57.328125 23.390625 
Q 57.328125 12.15625 50.6875 5.359375 
Q 44.046875 -1.421875 33.015625 -1.421875 
Q 20.359375 -1.421875 13.671875 8.265625 
Q 6.984375 17.96875 6.984375 36.375 
Q 6.984375 53.65625 15.1875 63.9375 
Q 23.390625 74.21875 37.203125 74.21875 
Q 40.921875 74.21875 44.703125 73.484375 
Q 48.484375 72.75 52.59375 71.296875 
z
" id="DejaVuSans-54"/>
     </defs>
     <use xlink:href="#DejaVuSans-49"/>
     <use x="63.623047" xlink:href="#DejaVuSans-46"/>
     <use x="95.410156" xlink:href="#DejaVuSans-54"/>
     <use x="159.033203" xlink:href="#DejaVuSans-37"/>
    </g>
   </g>
   <g id="text_5">
    <!-- Умеренные -->
    <g transform="translate(96.034564 58.827939)scale(0.1 -0.1)">
     <defs>
      <path d="M 31.984375 8.84375 
Q 30.953125 6.390625 29.390625 4.546875 
Q 25.53125 0 13.28125 0 
L 9.515625 0 
L 9.515625 8.296875 
L 12.59375 8.296875 
Q 18.40625 8.296875 20.65625 9.625 
Q 22.015625 10.453125 22.90625 12.5 
L 25.09375 17.671875 
L 1.703125 72.90625 
L 12.3125 72.90625 
L 30.421875 30.125 
L 48.640625 72.90625 
L 59.234375 72.90625 
z
" id="DejaVuSans-1059"/>
      <path d="M 18.109375 8.203125 
L 18.109375 -20.796875 
L 9.078125 -20.796875 
L 9.078125 54.6875 
L 18.109375 54.6875 
L 18.109375 46.390625 
Q 20.953125 51.265625 25.265625 53.625 
Q 29.59375 56 35.59375 56 
Q 45.5625 56 51.78125 48.09375 
Q 58.015625 40.1875 58.015625 27.296875 
Q 58.015625 14.40625 51.78125 6.484375 
Q 45.5625 -1.421875 35.59375 -1.421875 
Q 29.59375 -1.421875 25.265625 0.953125 
Q 20.953125 3.328125 18.109375 8.203125 
z
M 48.6875 27.296875 
Q 48.6875 37.203125 44.609375 42.84375 
Q 40.53125 48.484375 33.40625 48.484375 
Q 26.265625 48.484375 22.1875 42.84375 
Q 18.109375 37.203125 18.109375 27.296875 
Q 18.109375 17.390625 22.1875 11.75 
Q 26.265625 6.109375 33.40625 6.109375 
Q 40.53125 6.109375 44.609375 11.75 
Q 48.6875 17.390625 48.6875 27.296875 
z
" id="DejaVuSans-1088"/>
      <path d="M 61.046875 54.6875 
L 70.03125 54.6875 
L 70.03125 0 
L 61.046875 0 
z
M 65.546875 56 
z
M 43.453125 16.21875 
Q 43.453125 20.609375 40.25 22.90625 
Q 37.0625 25.203125 30.90625 25.203125 
L 18.109375 25.203125 
L 18.109375 7.171875 
L 30.90625 7.171875 
Q 37.0625 7.171875 40.25 9.484375 
Q 43.453125 11.8125 43.453125 16.21875 
z
M 9.078125 54.6875 
L 18.109375 54.6875 
L 18.109375 32.375 
L 31.296875 32.375 
Q 41.75 32.375 47.390625 28.390625 
Q 53.03125 24.421875 53.03125 16.21875 
Q 53.03125 8.015625 47.390625 4 
Q 41.75 0 31.296875 0 
L 9.078125 0 
z
" id="DejaVuSans-1099"/>
     </defs>
     <use xlink:href="#DejaVuSans-1059"/>
     <use x="60.9375" xlink:href="#DejaVuSans-1084"/>
     <use x="136.376953" xlink:href="#DejaVuSans-1077"/>
     <use x="197.900391" xlink:href="#DejaVuSans-1088"/>
     <use x="261.376953" xlink:href="#DejaVuSans-1077"/>
     <use x="322.900391" xlink:href="#DejaVuSans-1085"/>
     <use x="388.28125" xlink:href="#DejaVuSans-1085"/>
     <use x="453.662109" xlink:href="#DejaVuSans-1099"/>
     <use x="532.617188" xlink:href="#DejaVuSans-1077"/>
    </g>
   </g>
   <g id="text_6">
    <!-- 60.9% -->
    <g transform="translate(166.358366 94.952459)scale(0.1 -0.1)">
     <defs>
      <path d="M 31.78125 66.40625 
Q 24.171875 66.40625 20.328125 58.90625 
Q 16.5 51.421875 16.5 36.375 
Q 16.5 21.390625 20.328125 13.890625 
Q 24.171875 6.390625 31.78125 6.390625 
Q 39.453125 6.390625 43.28125 13.890625 
Q 47.125 21.390625 47.125 36.375 
Q 47.125 51.421875 43.28125 58.90625 
Q 39.453125 66.40625 31.78125 66.40625 
z
M 31.78125 74.21875 
Q 44.046875 74.21875 50.515625 64.515625 
Q 56.984375 54.828125 56.984375 36.375 
Q 56.984375 17.96875 50.515625 8.265625 
Q 44.046875 -1.421875 31.78125 -1.421875 
Q 19.53125 -1.421875 13.0625 8.265625 
Q 6.59375 17.96875 6.59375 36.375 
Q 6.59375 54.828125 13.0625 64.515625 
Q 19.53125 74.21875 31.78125 74.21875 
z
" id="DejaVuSans-48"/>
      <path d="M 10.984375 1.515625 
L 10.984375 10.5 
Q 14.703125 8.734375 18.5 7.8125 
Q 22.3125 6.890625 25.984375 6.890625 
Q 35.75 6.890625 40.890625 13.453125 
Q 46.046875 20.015625 46.78125 33.40625 
Q 43.953125 29.203125 39.59375 26.953125 
Q 35.25 24.703125 29.984375 24.703125 
Q 19.046875 24.703125 12.671875 31.3125 
Q 6.296875 37.9375 6.296875 49.421875 
Q 6.296875 60.640625 12.9375 67.421875 
Q 19.578125 74.21875 30.609375 74.21875 
Q 43.265625 74.21875 49.921875 64.515625 
Q 56.59375 54.828125 56.59375 36.375 
Q 56.59375 19.140625 48.40625 8.859375 
Q 40.234375 -1.421875 26.421875 -1.421875 
Q 22.703125 -1.421875 18.890625 -0.6875 
Q 15.09375 0.046875 10.984375 1.515625 
z
M 30.609375 32.421875 
Q 37.25 32.421875 41.125 36.953125 
Q 45.015625 41.5 45.015625 49.421875 
Q 45.015625 57.28125 41.125 61.84375 
Q 37.25 66.40625 30.609375 66.40625 
Q 23.96875 66.40625 20.09375 61.84375 
Q 16.21875 57.28125 16.21875 49.421875 
Q 16.21875 41.5 20.09375 36.953125 
Q 23.96875 32.421875 30.609375 32.421875 
z
" id="DejaVuSans-57"/>
     </defs>
     <use xlink:href="#DejaVuSans-54"/>
     <use x="63.623047" xlink:href="#DejaVuSans-48"/>
     <use x="127.246094" xlink:href="#DejaVuSans-46"/>
     <use x="159.033203" xlink:href="#DejaVuSans-57"/>
     <use x="222.65625" xlink:href="#DejaVuSans-37"/>
    </g>
   </g>
   <g id="text_7">
    <!-- Либеральные -->
    <g transform="translate(127.004736 251.478674)scale(0.1 -0.1)">
     <defs>
      <path d="M 4.109375 0 
L 4.109375 8.296875 
Q 14.703125 10.59375 17.71875 18.609375 
Q 21.96875 31.203125 21.96875 60.5 
L 21.96875 72.90625 
L 65.328125 72.90625 
L 65.328125 0 
L 55.46875 0 
L 55.46875 64.59375 
L 31.78125 64.59375 
L 31.78125 55.609375 
Q 31.78125 27.984375 26.8125 15.09375 
Q 22.015625 2.734375 4.109375 0 
z
" id="DejaVuSans-1051"/>
      <path d="M 31.109375 56 
Q 42.828125 56 49.515625 48.375 
Q 56.203125 40.765625 56.203125 27.296875 
Q 56.203125 13.875 49.515625 6.21875 
Q 42.828125 -1.421875 31.109375 -1.421875 
Q 19.34375 -1.421875 12.84375 6 
Q 6.34375 13.421875 6 27.296875 
L 5.71875 38.484375 
Q 5.46875 44.28125 5.46875 46.296875 
Q 5.46875 54.109375 8.296875 59.859375 
Q 12.75 68.890625 20.4375 72.796875 
Q 28.125 76.703125 41.015625 76.8125 
Q 46.96875 76.859375 49.609375 77.6875 
L 52.09375 70.5625 
Q 49.703125 69.578125 47.515625 69.53125 
L 35.296875 68.703125 
Q 29.15625 68.265625 25.4375 66.109375 
Q 15.71875 60.40625 14.796875 52.9375 
L 14.453125 50.203125 
Q 20.796875 56 31.109375 56 
z
M 31.109375 48.390625 
Q 23.875 48.390625 19.671875 42.75 
Q 15.484375 37.109375 15.484375 27.296875 
Q 15.484375 17.484375 19.65625 11.84375 
Q 23.828125 6.203125 31.109375 6.203125 
Q 38.28125 6.203125 42.484375 11.859375 
Q 46.6875 17.53125 46.6875 27.296875 
Q 46.6875 37.015625 42.484375 42.703125 
Q 38.28125 48.390625 31.109375 48.390625 
z
" id="DejaVuSans-1073"/>
      <path d="M 43.453125 16.21875 
Q 43.453125 20.609375 40.25 22.90625 
Q 37.0625 25.203125 30.90625 25.203125 
L 18.109375 25.203125 
L 18.109375 7.171875 
L 30.90625 7.171875 
Q 37.0625 7.171875 40.25 9.484375 
Q 43.453125 11.8125 43.453125 16.21875 
z
M 9.078125 54.6875 
L 18.109375 54.6875 
L 18.109375 32.375 
L 31.296875 32.375 
Q 41.75 32.375 47.390625 28.390625 
Q 53.03125 24.421875 53.03125 16.21875 
Q 53.03125 8.015625 47.390625 4 
Q 41.75 0 31.296875 0 
L 9.078125 0 
z
" id="DejaVuSans-1100"/>
     </defs>
     <use xlink:href="#DejaVuSans-1051"/>
     <use x="75.195312" xlink:href="#DejaVuSans-1080"/>
     <use x="140.185547" xlink:href="#DejaVuSans-1073"/>
     <use x="201.855469" xlink:href="#DejaVuSans-1077"/>
     <use x="263.378906" xlink:href="#DejaVuSans-1088"/>
     <use x="326.855469" xlink:href="#DejaVuSans-1072"/>
     <use x="388.134766" xlink:href="#DejaVuSans-1083"/>
     <use x="452.050781" xlink:href="#DejaVuSans-1100"/>
     <use x="510.986328" xlink:href="#DejaVuSans-1085"/>
     <use x="576.367188" xlink:href="#DejaVuSans-1099"/>
     <use x="655.322266" xlink:href="#DejaVuSans-1077"/>
    </g>
   </g>
   <g id="text_8">
    <!-- 12.5% -->
    <g transform="translate(191.582893 207.282381)scale(0.1 -0.1)">
     <defs>
      <path d="M 19.1875 8.296875 
L 53.609375 8.296875 
L 53.609375 0 
L 7.328125 0 
L 7.328125 8.296875 
Q 12.9375 14.109375 22.625 23.890625 
Q 32.328125 33.6875 34.8125 36.53125 
Q 39.546875 41.84375 41.421875 45.53125 
Q 43.3125 49.21875 43.3125 52.78125 
Q 43.3125 58.59375 39.234375 62.25 
Q 35.15625 65.921875 28.609375 65.921875 
Q 23.96875 65.921875 18.8125 64.3125 
Q 13.671875 62.703125 7.8125 59.421875 
L 7.8125 69.390625 
Q 13.765625 71.78125 18.9375 73 
Q 24.125 74.21875 28.421875 74.21875 
Q 39.75 74.21875 46.484375 68.546875 
Q 53.21875 62.890625 53.21875 53.421875 
Q 53.21875 48.921875 51.53125 44.890625 
Q 49.859375 40.875 45.40625 35.40625 
Q 44.1875 33.984375 37.640625 27.21875 
Q 31.109375 20.453125 19.1875 8.296875 
z
" id="DejaVuSans-50"/>
      <path d="M 10.796875 72.90625 
L 49.515625 72.90625 
L 49.515625 64.59375 
L 19.828125 64.59375 
L 19.828125 46.734375 
Q 21.96875 47.46875 24.109375 47.828125 
Q 26.265625 48.1875 28.421875 48.1875 
Q 40.625 48.1875 47.75 41.5 
Q 54.890625 34.8125 54.890625 23.390625 
Q 54.890625 11.625 47.5625 5.09375 
Q 40.234375 -1.421875 26.90625 -1.421875 
Q 22.3125 -1.421875 17.546875 -0.640625 
Q 12.796875 0.140625 7.71875 1.703125 
L 7.71875 11.625 
Q 12.109375 9.234375 16.796875 8.0625 
Q 21.484375 6.890625 26.703125 6.890625 
Q 35.15625 6.890625 40.078125 11.328125 
Q 45.015625 15.765625 45.015625 23.390625 
Q 45.015625 31 40.078125 35.4375 
Q 35.15625 39.890625 26.703125 39.890625 
Q 22.75 39.890625 18.8125 39.015625 
Q 14.890625 38.140625 10.796875 36.28125 
z
" id="DejaVuSans-53"/>
     </defs>
     <use xlink:href="#DejaVuSans-49"/>
     <use x="63.623047" xlink:href="#DejaVuSans-50"/>
     <use x="127.246094" xlink:href="#DejaVuSans-46"/>
     <use x="159.033203" xlink:href="#DejaVuSans-53"/>
     <use x="222.65625" xlink:href="#DejaVuSans-37"/>
    </g>
   </g>
   <g id="text_9">
    <!-- Консервативные -->
    <g transform="translate(251.083993 248.819676)scale(0.1 -0.1)">
     <defs>
      <path d="M 18.0625 25.203125 
L 18.0625 7.171875 
L 30.859375 7.171875 
Q 37.015625 7.171875 40.234375 9.484375 
Q 43.453125 11.8125 43.453125 16.21875 
Q 43.453125 20.609375 40.234375 22.90625 
Q 37.015625 25.203125 30.859375 25.203125 
z
M 18.0625 47.515625 
L 18.0625 32.375 
L 29.890625 32.375 
Q 34.96875 32.375 38.1875 34.390625 
Q 41.40625 36.421875 41.40625 40.046875 
Q 41.40625 43.65625 38.1875 45.578125 
Q 34.96875 47.515625 29.890625 47.515625 
z
M 9.078125 54.6875 
L 30.46875 54.6875 
Q 40.09375 54.6875 45.265625 51.171875 
Q 50.4375 47.65625 50.4375 41.15625 
Q 50.4375 36.140625 47.796875 33.171875 
Q 45.171875 30.21875 39.984375 29.5 
Q 46.1875 28.328125 49.609375 24.609375 
Q 53.03125 20.90625 53.03125 15.328125 
Q 53.03125 8.015625 47.390625 4 
Q 41.75 0 31.296875 0 
L 9.078125 0 
z
" id="DejaVuSans-1074"/>
     </defs>
     <use xlink:href="#DejaVuSans-1050"/>
     <use x="70.996094" xlink:href="#DejaVuSans-1086"/>
     <use x="132.177734" xlink:href="#DejaVuSans-1085"/>
     <use x="197.558594" xlink:href="#DejaVuSans-1089"/>
     <use x="252.539062" xlink:href="#DejaVuSans-1077"/>
     <use x="314.0625" xlink:href="#DejaVuSans-1088"/>
     <use x="377.539062" xlink:href="#DejaVuSans-1074"/>
     <use x="436.474609" xlink:href="#DejaVuSans-1072"/>
     <use x="497.753906" xlink:href="#DejaVuSans-1090"/>
     <use x="556.005859" xlink:href="#DejaVuSans-1080"/>
     <use x="620.996094" xlink:href="#DejaVuSans-1074"/>
     <use x="679.931641" xlink:href="#DejaVuSans-1085"/>
     <use x="745.3125" xlink:href="#DejaVuSans-1099"/>
     <use x="824.267578" xlink:href="#DejaVuSans-1077"/>
    </g>
   </g>
   <g id="text_10">
    <!-- 3.1% -->
    <g transform="translate(225.326001 205.780973)scale(0.1 -0.1)">
     <use xlink:href="#DejaVuSans-51"/>
     <use x="63.623047" xlink:href="#DejaVuSans-46"/>
     <use x="95.410156" xlink:href="#DejaVuSans-49"/>
     <use x="159.033203" xlink:href="#DejaVuSans-37"/>
    </g>
   </g>
   <g id="text_11">
    <!-- Монархические -->
    <g transform="translate(284.050686 232.225637)scale(0.1 -0.1)">
     <defs>
      <path d="M 9.8125 72.90625 
L 24.515625 72.90625 
L 43.109375 23.296875 
L 61.8125 72.90625 
L 76.515625 72.90625 
L 76.515625 0 
L 66.890625 0 
L 66.890625 64.015625 
L 48.09375 14.015625 
L 38.1875 14.015625 
L 19.390625 64.015625 
L 19.390625 0 
L 9.8125 0 
z
" id="DejaVuSans-1052"/>
      <path d="M 54.890625 54.6875 
L 35.109375 28.078125 
L 55.90625 0 
L 45.3125 0 
L 29.390625 21.484375 
L 13.484375 0 
L 2.875 0 
L 24.125 28.609375 
L 4.6875 54.6875 
L 15.28125 54.6875 
L 29.78125 35.203125 
L 44.28125 54.6875 
z
" id="DejaVuSans-1093"/>
     </defs>
     <use xlink:href="#DejaVuSans-1052"/>
     <use x="86.279297" xlink:href="#DejaVuSans-1086"/>
     <use x="147.460938" xlink:href="#DejaVuSans-1085"/>
     <use x="212.841797" xlink:href="#DejaVuSans-1072"/>
     <use x="274.121094" xlink:href="#DejaVuSans-1088"/>
     <use x="337.597656" xlink:href="#DejaVuSans-1093"/>
     <use x="396.777344" xlink:href="#DejaVuSans-1080"/>
     <use x="461.767578" xlink:href="#DejaVuSans-1095"/>
     <use x="520.849609" xlink:href="#DejaVuSans-1077"/>
     <use x="582.373047" xlink:href="#DejaVuSans-1089"/>
     <use x="637.353516" xlink:href="#DejaVuSans-1082"/>
     <use x="697.753906" xlink:href="#DejaVuSans-1080"/>
     <use x="762.744141" xlink:href="#DejaVuSans-1077"/>
    </g>
   </g>
   <g id="text_12">
    <!-- 7.8% -->
    <g transform="translate(244.556572 196.101117)scale(0.1 -0.1)">
     <defs>
      <path d="M 8.203125 72.90625 
L 55.078125 72.90625 
L 55.078125 68.703125 
L 28.609375 0 
L 18.3125 0 
L 43.21875 64.59375 
L 8.203125 64.59375 
z
" id="DejaVuSans-55"/>
      <path d="M 31.78125 34.625 
Q 24.75 34.625 20.71875 30.859375 
Q 16.703125 27.09375 16.703125 20.515625 
Q 16.703125 13.921875 20.71875 10.15625 
Q 24.75 6.390625 31.78125 6.390625 
Q 38.8125 6.390625 42.859375 10.171875 
Q 46.921875 13.96875 46.921875 20.515625 
Q 46.921875 27.09375 42.890625 30.859375 
Q 38.875 34.625 31.78125 34.625 
z
M 21.921875 38.8125 
Q 15.578125 40.375 12.03125 44.71875 
Q 8.5 49.078125 8.5 55.328125 
Q 8.5 64.0625 14.71875 69.140625 
Q 20.953125 74.21875 31.78125 74.21875 
Q 42.671875 74.21875 48.875 69.140625 
Q 55.078125 64.0625 55.078125 55.328125 
Q 55.078125 49.078125 51.53125 44.71875 
Q 48 40.375 41.703125 38.8125 
Q 48.828125 37.15625 52.796875 32.3125 
Q 56.78125 27.484375 56.78125 20.515625 
Q 56.78125 9.90625 50.3125 4.234375 
Q 43.84375 -1.421875 31.78125 -1.421875 
Q 19.734375 -1.421875 13.25 4.234375 
Q 6.78125 9.90625 6.78125 20.515625 
Q 6.78125 27.484375 10.78125 32.3125 
Q 14.796875 37.15625 21.921875 38.8125 
z
M 18.3125 54.390625 
Q 18.3125 48.734375 21.84375 45.5625 
Q 25.390625 42.390625 31.78125 42.390625 
Q 38.140625 42.390625 41.71875 45.5625 
Q 45.3125 48.734375 45.3125 54.390625 
Q 45.3125 60.0625 41.71875 63.234375 
Q 38.140625 66.40625 31.78125 66.40625 
Q 25.390625 66.40625 21.84375 63.234375 
Q 18.3125 60.0625 18.3125 54.390625 
z
" id="DejaVuSans-56"/>
     </defs>
     <use xlink:href="#DejaVuSans-55"/>
     <use x="63.623047" xlink:href="#DejaVuSans-46"/>
     <use x="95.410156" xlink:href="#DejaVuSans-56"/>
     <use x="159.033203" xlink:href="#DejaVuSans-37"/>
    </g>
   </g>
   <g id="text_13">
    <!-- Индиффирентные -->
    <g transform="translate(319.474717 186.833937)scale(0.1 -0.1)">
     <defs>
      <path d="M 64.984375 72.90625 
L 64.984375 0 
L 55.421875 0 
L 55.421875 60.984375 
L 23.09375 0 
L 9.8125 0 
L 9.8125 72.90625 
L 19.390625 72.90625 
L 19.390625 11.921875 
L 51.703125 72.90625 
z
" id="DejaVuSans-1048"/>
      <path d="M 21.625 7.171875 
L 47.703125 7.171875 
L 47.703125 47.515625 
L 28.8125 47.515625 
L 28.8125 40.671875 
Q 28.8125 20.5625 23.046875 9.8125 
z
M 8.59375 7.171875 
Q 13.03125 9.125 14.984375 13.28125 
Q 19.78125 23.578125 19.78125 44.34375 
L 19.78125 54.6875 
L 56.734375 54.6875 
L 56.734375 7.171875 
L 63.921875 7.171875 
L 63.921875 -13.8125 
L 56.734375 -13.8125 
L 56.734375 0 
L 12.40625 0 
L 12.40625 -13.8125 
L 5.21875 -13.8125 
L 5.21875 7.171875 
z
" id="DejaVuSans-1076"/>
      <path d="M 14.796875 27.296875 
Q 14.796875 15.828125 18.328125 10.96875 
Q 21.875 6.109375 27.875 6.109375 
Q 32.671875 6.109375 38.234375 14.3125 
L 38.234375 40.28125 
Q 32.671875 48.484375 27.875 48.484375 
Q 21.875 48.484375 18.328125 43.625 
Q 14.796875 38.765625 14.796875 27.296875 
z
M 38.234375 -20.796875 
L 38.234375 6.984375 
Q 35.453125 2.390625 32.25 0.484375 
Q 29.046875 -1.421875 25 -1.421875 
Q 16.84375 -1.421875 11.15625 6.125 
Q 5.46875 13.671875 5.46875 27.09375 
Q 5.46875 40.53125 11.15625 48.265625 
Q 16.84375 56 25 56 
Q 29.046875 56 32.25 54.140625 
Q 35.453125 52.296875 38.234375 47.703125 
L 38.234375 72.90625 
L 47.265625 72.90625 
L 47.265625 47.703125 
Q 50.046875 52.296875 53.25 54.140625 
Q 56.453125 56 60.5 56 
Q 68.65625 56 74.34375 48.265625 
Q 80.03125 40.53125 80.03125 27.09375 
Q 80.03125 13.671875 74.34375 6.125 
Q 68.65625 -1.421875 60.5 -1.421875 
Q 56.453125 -1.421875 53.25 0.484375 
Q 50.046875 2.390625 47.265625 6.984375 
L 47.265625 -20.796875 
z
M 70.703125 27.296875 
Q 70.703125 38.765625 67.15625 43.625 
Q 63.625 48.484375 57.625 48.484375 
Q 52.828125 48.484375 47.265625 40.28125 
L 47.265625 14.3125 
Q 52.828125 6.109375 57.625 6.109375 
Q 63.625 6.109375 67.15625 10.96875 
Q 70.703125 15.828125 70.703125 27.296875 
z
" id="DejaVuSans-1092"/>
     </defs>
     <use xlink:href="#DejaVuSans-1048"/>
     <use x="74.804688" xlink:href="#DejaVuSans-1085"/>
     <use x="140.185547" xlink:href="#DejaVuSans-1076"/>
     <use x="209.326172" xlink:href="#DejaVuSans-1080"/>
     <use x="274.316406" xlink:href="#DejaVuSans-1092"/>
     <use x="359.814453" xlink:href="#DejaVuSans-1092"/>
     <use x="445.3125" xlink:href="#DejaVuSans-1080"/>
     <use x="510.302734" xlink:href="#DejaVuSans-1088"/>
     <use x="573.779297" xlink:href="#DejaVuSans-1077"/>
     <use x="635.302734" xlink:href="#DejaVuSans-1085"/>
     <use x="700.683594" xlink:href="#DejaVuSans-1090"/>
     <use x="758.935547" xlink:href="#DejaVuSans-1085"/>
     <use x="824.316406" xlink:href="#DejaVuSans-1099"/>
     <use x="903.271484" xlink:href="#DejaVuSans-1077"/>
    </g>
   </g>
   <g id="text_14">
    <!-- 9.4% -->
    <g transform="translate(265.22059 169.622625)scale(0.1 -0.1)">
     <defs>
      <path d="M 37.796875 64.3125 
L 12.890625 25.390625 
L 37.796875 25.390625 
z
M 35.203125 72.90625 
L 47.609375 72.90625 
L 47.609375 25.390625 
L 58.015625 25.390625 
L 58.015625 17.1875 
L 47.609375 17.1875 
L 47.609375 0 
L 37.796875 0 
L 37.796875 17.1875 
L 4.890625 17.1875 
L 4.890625 26.703125 
z
" id="DejaVuSans-52"/>
     </defs>
     <use xlink:href="#DejaVuSans-57"/>
     <use x="63.623047" xlink:href="#DejaVuSans-46"/>
     <use x="95.410156" xlink:href="#DejaVuSans-52"/>
     <use x="159.033203" xlink:href="#DejaVuSans-37"/>
    </g>
   </g>
   <g id="text_15">
    <!-- Либертарианские -->
    <g transform="translate(327.5612 150.908347)scale(0.1 -0.1)">
     <use xlink:href="#DejaVuSans-1051"/>
     <use x="75.195312" xlink:href="#DejaVuSans-1080"/>
     <use x="140.185547" xlink:href="#DejaVuSans-1073"/>
     <use x="201.855469" xlink:href="#DejaVuSans-1077"/>
     <use x="263.378906" xlink:href="#DejaVuSans-1088"/>
     <use x="326.855469" xlink:href="#DejaVuSans-1090"/>
     <use x="385.107422" xlink:href="#DejaVuSans-1072"/>
     <use x="446.386719" xlink:href="#DejaVuSans-1088"/>
     <use x="509.863281" xlink:href="#DejaVuSans-1080"/>
     <use x="574.853516" xlink:href="#DejaVuSans-1072"/>
     <use x="636.132812" xlink:href="#DejaVuSans-1085"/>
     <use x="701.513672" xlink:href="#DejaVuSans-1089"/>
     <use x="756.494141" xlink:href="#DejaVuSans-1082"/>
     <use x="816.894531" xlink:href="#DejaVuSans-1080"/>
     <use x="881.884766" xlink:href="#DejaVuSans-1077"/>
    </g>
   </g>
   <g id="text_16">
    <!-- 1.6% -->
    <g transform="translate(269.937705 148.616356)scale(0.1 -0.1)">
     <use xlink:href="#DejaVuSans-49"/>
     <use x="63.623047" xlink:href="#DejaVuSans-46"/>
     <use x="95.410156" xlink:href="#DejaVuSans-54"/>
     <use x="159.033203" xlink:href="#DejaVuSans-37"/>
    </g>
   </g>
  </g>
 </g>
</svg>
