<?xml version="1.0" encoding="utf-8" standalone="no"?>
<!DOCTYPE svg PUBLIC "-//W3C//DTD SVG 1.1//EN"
  "http://www.w3.org/Graphics/SVG/1.1/DTD/svg11.dtd">
<!-- Created with matplotlib (https://matplotlib.org/) -->
<svg height="231.84pt" version="1.1" viewBox="0 0 717.975 231.84" width="717.975pt" xmlns="http://www.w3.org/2000/svg" xmlns:xlink="http://www.w3.org/1999/xlink">
 <metadata>
  <rdf:RDF xmlns:cc="http://creativecommons.org/ns#" xmlns:dc="http://purl.org/dc/elements/1.1/" xmlns:rdf="http://www.w3.org/1999/02/22-rdf-syntax-ns#">
   <cc:Work>
    <dc:type rdf:resource="http://purl.org/dc/dcmitype/StillImage"/>
    <dc:date>2020-12-02T00:37:49.422445</dc:date>
    <dc:format>image/svg+xml</dc:format>
    <dc:creator>
     <cc:Agent>
      <dc:title>Matplotlib v3.3.3, https://matplotlib.org/</dc:title>
     </cc:Agent>
    </dc:creator>
   </cc:Work>
  </rdf:RDF>
 </metadata>
 <defs>
  <style type="text/css">*{stroke-linecap:butt;stroke-linejoin:round;}</style>
 </defs>
 <g id="figure_1">
  <g id="patch_1">
   <path d="M 0 231.84 
L 717.975 231.84 
L 717.975 0 
L 0 0 
z
" style="fill:none;"/>
  </g>
  <g id="axes_1">
   <g id="patch_2">
    <path d="M 271.360818 114.731239 
C 271.360818 103.866601 269.386275 93.091864 265.533621 82.933252 
C 261.680968 72.774639 256.013962 63.400268 248.809375 55.26797 
L 181.68922 114.731239 
L 271.360818 114.731239 
z
" style="fill:#092436;opacity:0.5;stroke:#092436;stroke-linejoin:miter;"/>
   </g>
   <g id="patch_3">
    <path d="M 244.592182 50.507743 
C 237.387595 42.375445 228.764655 35.619803 219.144496 30.570754 
C 209.524338 25.521706 199.066165 22.262807 188.280743 20.95322 
L 177.472027 109.971012 
L 244.592182 50.507743 
z
" style="fill:#4c2604;opacity:0.5;stroke:#4c2604;stroke-linejoin:miter;"/>
   </g>
   <g id="patch_4">
    <path d="M 181.967514 20.186656 
C 171.182093 18.877068 160.24791 19.538465 149.698979 22.138543 
C 139.150049 24.738621 129.160945 29.234351 120.219524 35.406169 
L 171.158798 109.204447 
L 181.967514 20.186656 
z
" style="fill:#0d300d;opacity:0.5;stroke:#0d300d;stroke-linejoin:miter;"/>
   </g>
   <g id="patch_5">
    <path d="M 114.985678 39.018832 
C 106.044257 45.19065 98.29849 52.936416 92.126673 61.877837 
C 85.954856 70.819258 81.459125 80.808363 78.859047 91.357293 
L 165.924952 112.81711 
L 114.985678 39.018832 
z
" style="fill:#400c0c;opacity:0.5;stroke:#400c0c;stroke-linejoin:miter;"/>
   </g>
   <g id="patch_6">
    <path d="M 77.337096 97.532092 
C 74.737019 108.081023 74.075623 119.015206 75.38521 129.800627 
C 76.694797 140.586049 79.953696 151.044222 85.002745 160.66438 
L 164.403001 118.991909 
L 77.337096 97.532092 
z
" style="fill:#2c1f39;opacity:0.5;stroke:#2c1f39;stroke-linejoin:miter;"/>
   </g>
   <g id="patch_7">
    <path d="M 87.958197 166.295524 
C 93.007246 175.915682 99.762888 184.538622 107.895186 191.743209 
C 116.027484 198.947796 125.401856 204.614801 135.560468 208.467454 
L 167.358453 124.623053 
L 87.958197 166.295524 
z
" style="fill:#2a1a16;opacity:0.5;stroke:#2a1a16;stroke-linejoin:miter;"/>
   </g>
   <g id="patch_8">
    <path d="M 141.506795 210.722599 
C 151.665408 214.575252 162.440145 216.549796 173.304783 216.549795 
C 184.16942 216.549795 194.944157 214.575251 205.102769 210.722597 
L 173.30478 126.878197 
L 141.506795 210.722599 
z
" style="fill:#44243a;opacity:0.5;stroke:#44243a;stroke-linejoin:miter;"/>
   </g>
   <g id="patch_9">
    <path d="M 210.632986 208.814237 
C 219.09147 205.606357 227.01603 201.136891 234.137166 195.557836 
C 241.258303 189.978782 247.494366 183.354108 252.633278 175.909108 
L 178.834997 124.969837 
L 210.632986 208.814237 
z
" style="fill:#262626;opacity:0.5;stroke:#262626;stroke-linejoin:miter;"/>
   </g>
   <g id="patch_10">
    <path d="M 255.664195 171.518065 
C 260.803107 164.073066 264.785946 155.893104 267.477262 147.256365 
C 270.168578 138.619626 271.537514 129.62514 271.537513 120.57879 
L 181.865915 120.578794 
L 255.664195 171.518065 
z
" style="fill:#38390a;opacity:0.5;stroke:#38390a;stroke-linejoin:miter;"/>
   </g>
   <g id="patch_11">
    <path d="M 273.15425 112.937807 
C 273.15425 102.073169 271.179706 91.298432 267.327053 81.13982 
C 263.4744 70.981207 257.807394 61.606836 250.602807 53.474538 
L 183.482652 112.937807 
L 273.15425 112.937807 
z
" style="fill:#1f77b4;"/>
   </g>
   <g id="patch_12">
    <path d="M 246.385614 48.714311 
C 239.181027 40.582013 230.558087 33.826371 220.937928 28.777322 
C 211.31777 23.728274 200.859597 20.469376 190.074175 19.159788 
L 179.265459 108.17758 
L 246.385614 48.714311 
z
" style="fill:#ff7f0e;"/>
   </g>
   <g id="patch_13">
    <path d="M 183.760946 18.393224 
C 172.975525 17.083636 162.041342 17.745033 151.492411 20.345111 
C 140.943481 22.945189 130.954377 27.440919 122.012956 33.612737 
L 172.95223 107.411015 
L 183.760946 18.393224 
z
" style="fill:#2ca02c;"/>
   </g>
   <g id="patch_14">
    <path d="M 116.77911 37.2254 
C 107.837689 43.397218 100.091922 51.142984 93.920105 60.084405 
C 87.748288 69.025827 83.252557 79.014931 80.652479 89.563861 
L 167.718384 111.023678 
L 116.77911 37.2254 
z
" style="fill:#d62728;"/>
   </g>
   <g id="patch_15">
    <path d="M 79.130528 95.73866 
C 76.530451 106.287591 75.869054 117.221774 77.178642 128.007195 
C 78.488229 138.792617 81.747128 149.25079 86.796177 158.870948 
L 166.196433 117.198477 
L 79.130528 95.73866 
z
" style="fill:#9467bd;"/>
   </g>
   <g id="patch_16">
    <path d="M 89.751629 164.502092 
C 94.800678 174.12225 101.55632 182.74519 109.688618 189.949777 
C 117.820916 197.154364 127.195288 202.821369 137.3539 206.674022 
L 169.151885 122.829621 
L 89.751629 164.502092 
z
" style="fill:#8c564b;"/>
   </g>
   <g id="patch_17">
    <path d="M 143.300227 208.929167 
C 153.45884 212.78182 164.233577 214.756364 175.098214 214.756363 
C 185.962852 214.756363 196.737589 212.781819 206.896201 208.929165 
L 175.098212 125.084765 
L 143.300227 208.929167 
z
" style="fill:#e377c2;"/>
   </g>
   <g id="patch_18">
    <path d="M 212.426418 207.020805 
C 220.884902 203.812925 228.809462 199.343459 235.930598 193.764404 
C 243.051735 188.18535 249.287798 181.560676 254.426709 174.115676 
L 180.628429 123.176405 
L 212.426418 207.020805 
z
" style="fill:#7f7f7f;"/>
   </g>
   <g id="patch_19">
    <path d="M 257.457627 169.724634 
C 262.596539 162.279634 266.579378 154.099672 269.270694 145.462933 
C 271.96201 136.826194 273.330946 127.831708 273.330945 118.785358 
L 183.659347 118.785362 
L 257.457627 169.724634 
z
" style="fill:#bcbd22;"/>
   </g>
   <g id="matplotlib.axis_1"/>
   <g id="matplotlib.axis_2"/>
   <g id="text_1">
    <!-- 11.5% -->
    <g style="fill:#ffffff;" transform="translate(217.905699 96.618389)scale(0.1 -0.1)">
     <defs>
      <path d="M 12.40625 8.296875 
L 28.515625 8.296875 
L 28.515625 63.921875 
L 10.984375 60.40625 
L 10.984375 69.390625 
L 28.421875 72.90625 
L 38.28125 72.90625 
L 38.28125 8.296875 
L 54.390625 8.296875 
L 54.390625 0 
L 12.40625 0 
z
" id="DejaVuSans-49"/>
      <path d="M 10.6875 12.40625 
L 21 12.40625 
L 21 0 
L 10.6875 0 
z
" id="DejaVuSans-46"/>
      <path d="M 10.796875 72.90625 
L 49.515625 72.90625 
L 49.515625 64.59375 
L 19.828125 64.59375 
L 19.828125 46.734375 
Q 21.96875 47.46875 24.109375 47.828125 
Q 26.265625 48.1875 28.421875 48.1875 
Q 40.625 48.1875 47.75 41.5 
Q 54.890625 34.8125 54.890625 23.390625 
Q 54.890625 11.625 47.5625 5.09375 
Q 40.234375 -1.421875 26.90625 -1.421875 
Q 22.3125 -1.421875 17.546875 -0.640625 
Q 12.796875 0.140625 7.71875 1.703125 
L 7.71875 11.625 
Q 12.109375 9.234375 16.796875 8.0625 
Q 21.484375 6.890625 26.703125 6.890625 
Q 35.15625 6.890625 40.078125 11.328125 
Q 45.015625 15.765625 45.015625 23.390625 
Q 45.015625 31 40.078125 35.4375 
Q 35.15625 39.890625 26.703125 39.890625 
Q 22.75 39.890625 18.8125 39.015625 
Q 14.890625 38.140625 10.796875 36.28125 
z
" id="DejaVuSans-53"/>
      <path d="M 72.703125 32.078125 
Q 68.453125 32.078125 66.03125 28.46875 
Q 63.625 24.859375 63.625 18.40625 
Q 63.625 12.0625 66.03125 8.421875 
Q 68.453125 4.78125 72.703125 4.78125 
Q 76.859375 4.78125 79.265625 8.421875 
Q 81.6875 12.0625 81.6875 18.40625 
Q 81.6875 24.8125 79.265625 28.4375 
Q 76.859375 32.078125 72.703125 32.078125 
z
M 72.703125 38.28125 
Q 80.421875 38.28125 84.953125 32.90625 
Q 89.5 27.546875 89.5 18.40625 
Q 89.5 9.28125 84.9375 3.921875 
Q 80.375 -1.421875 72.703125 -1.421875 
Q 64.890625 -1.421875 60.34375 3.921875 
Q 55.8125 9.28125 55.8125 18.40625 
Q 55.8125 27.59375 60.375 32.9375 
Q 64.9375 38.28125 72.703125 38.28125 
z
M 22.3125 68.015625 
Q 18.109375 68.015625 15.6875 64.375 
Q 13.28125 60.75 13.28125 54.390625 
Q 13.28125 47.953125 15.671875 44.328125 
Q 18.0625 40.71875 22.3125 40.71875 
Q 26.5625 40.71875 28.96875 44.328125 
Q 31.390625 47.953125 31.390625 54.390625 
Q 31.390625 60.6875 28.953125 64.34375 
Q 26.515625 68.015625 22.3125 68.015625 
z
M 66.40625 74.21875 
L 74.21875 74.21875 
L 28.609375 -1.421875 
L 20.796875 -1.421875 
z
M 22.3125 74.21875 
Q 30.03125 74.21875 34.609375 68.875 
Q 39.203125 63.53125 39.203125 54.390625 
Q 39.203125 45.171875 34.640625 39.84375 
Q 30.078125 34.515625 22.3125 34.515625 
Q 14.546875 34.515625 10.03125 39.859375 
Q 5.515625 45.21875 5.515625 54.390625 
Q 5.515625 63.484375 10.046875 68.84375 
Q 14.59375 74.21875 22.3125 74.21875 
z
" id="DejaVuSans-37"/>
     </defs>
     <use xlink:href="#DejaVuSans-49"/>
     <use x="63.623047" xlink:href="#DejaVuSans-49"/>
     <use x="127.246094" xlink:href="#DejaVuSans-46"/>
     <use x="159.033203" xlink:href="#DejaVuSans-53"/>
     <use x="222.65625" xlink:href="#DejaVuSans-37"/>
    </g>
   </g>
   <g id="text_2">
    <!-- 11.5% -->
    <g style="fill:#ffffff;" transform="translate(188.385347 63.2968)scale(0.1 -0.1)">
     <use xlink:href="#DejaVuSans-49"/>
     <use x="63.623047" xlink:href="#DejaVuSans-49"/>
     <use x="127.246094" xlink:href="#DejaVuSans-46"/>
     <use x="159.033203" xlink:href="#DejaVuSans-53"/>
     <use x="222.65625" xlink:href="#DejaVuSans-37"/>
    </g>
   </g>
   <g id="text_3">
    <!-- 11.5% -->
    <g style="fill:#ffffff;" transform="translate(144.192745 57.930847)scale(0.1 -0.1)">
     <use xlink:href="#DejaVuSans-49"/>
     <use x="63.623047" xlink:href="#DejaVuSans-49"/>
     <use x="127.246094" xlink:href="#DejaVuSans-46"/>
     <use x="159.033203" xlink:href="#DejaVuSans-53"/>
     <use x="222.65625" xlink:href="#DejaVuSans-37"/>
    </g>
   </g>
   <g id="text_4">
    <!-- 11.5% -->
    <g style="fill:#ffffff;" transform="translate(107.555823 83.219489)scale(0.1 -0.1)">
     <use xlink:href="#DejaVuSans-49"/>
     <use x="63.623047" xlink:href="#DejaVuSans-49"/>
     <use x="127.246094" xlink:href="#DejaVuSans-46"/>
     <use x="159.033203" xlink:href="#DejaVuSans-53"/>
     <use x="222.65625" xlink:href="#DejaVuSans-37"/>
    </g>
   </g>
   <g id="text_5">
    <!-- 11.5% -->
    <g style="fill:#ffffff;" transform="translate(96.902165 126.443083)scale(0.1 -0.1)">
     <use xlink:href="#DejaVuSans-49"/>
     <use x="63.623047" xlink:href="#DejaVuSans-49"/>
     <use x="127.246094" xlink:href="#DejaVuSans-46"/>
     <use x="159.033203" xlink:href="#DejaVuSans-53"/>
     <use x="222.65625" xlink:href="#DejaVuSans-37"/>
    </g>
   </g>
   <g id="text_6">
    <!-- 11.5% -->
    <g style="fill:#ffffff;" transform="translate(117.590331 165.86109)scale(0.1 -0.1)">
     <use xlink:href="#DejaVuSans-49"/>
     <use x="63.623047" xlink:href="#DejaVuSans-49"/>
     <use x="127.246094" xlink:href="#DejaVuSans-46"/>
     <use x="159.033203" xlink:href="#DejaVuSans-53"/>
     <use x="222.65625" xlink:href="#DejaVuSans-37"/>
    </g>
   </g>
   <g id="text_7">
    <!-- 11.5% -->
    <g style="fill:#ffffff;" transform="translate(159.21462 181.647099)scale(0.1 -0.1)">
     <use xlink:href="#DejaVuSans-49"/>
     <use x="63.623047" xlink:href="#DejaVuSans-49"/>
     <use x="127.246094" xlink:href="#DejaVuSans-46"/>
     <use x="159.033203" xlink:href="#DejaVuSans-53"/>
     <use x="222.65625" xlink:href="#DejaVuSans-37"/>
    </g>
   </g>
   <g id="text_8">
    <!-- 9.6% -->
    <g style="fill:#ffffff;" transform="translate(201.107387 168.28858)scale(0.1 -0.1)">
     <defs>
      <path d="M 10.984375 1.515625 
L 10.984375 10.5 
Q 14.703125 8.734375 18.5 7.8125 
Q 22.3125 6.890625 25.984375 6.890625 
Q 35.75 6.890625 40.890625 13.453125 
Q 46.046875 20.015625 46.78125 33.40625 
Q 43.953125 29.203125 39.59375 26.953125 
Q 35.25 24.703125 29.984375 24.703125 
Q 19.046875 24.703125 12.671875 31.3125 
Q 6.296875 37.9375 6.296875 49.421875 
Q 6.296875 60.640625 12.9375 67.421875 
Q 19.578125 74.21875 30.609375 74.21875 
Q 43.265625 74.21875 49.921875 64.515625 
Q 56.59375 54.828125 56.59375 36.375 
Q 56.59375 19.140625 48.40625 8.859375 
Q 40.234375 -1.421875 26.421875 -1.421875 
Q 22.703125 -1.421875 18.890625 -0.6875 
Q 15.09375 0.046875 10.984375 1.515625 
z
M 30.609375 32.421875 
Q 37.25 32.421875 41.125 36.953125 
Q 45.015625 41.5 45.015625 49.421875 
Q 45.015625 57.28125 41.125 61.84375 
Q 37.25 66.40625 30.609375 66.40625 
Q 23.96875 66.40625 20.09375 61.84375 
Q 16.21875 57.28125 16.21875 49.421875 
Q 16.21875 41.5 20.09375 36.953125 
Q 23.96875 32.421875 30.609375 32.421875 
z
" id="DejaVuSans-57"/>
      <path d="M 33.015625 40.375 
Q 26.375 40.375 22.484375 35.828125 
Q 18.609375 31.296875 18.609375 23.390625 
Q 18.609375 15.53125 22.484375 10.953125 
Q 26.375 6.390625 33.015625 6.390625 
Q 39.65625 6.390625 43.53125 10.953125 
Q 47.40625 15.53125 47.40625 23.390625 
Q 47.40625 31.296875 43.53125 35.828125 
Q 39.65625 40.375 33.015625 40.375 
z
M 52.59375 71.296875 
L 52.59375 62.3125 
Q 48.875 64.0625 45.09375 64.984375 
Q 41.3125 65.921875 37.59375 65.921875 
Q 27.828125 65.921875 22.671875 59.328125 
Q 17.53125 52.734375 16.796875 39.40625 
Q 19.671875 43.65625 24.015625 45.921875 
Q 28.375 48.1875 33.59375 48.1875 
Q 44.578125 48.1875 50.953125 41.515625 
Q 57.328125 34.859375 57.328125 23.390625 
Q 57.328125 12.15625 50.6875 5.359375 
Q 44.046875 -1.421875 33.015625 -1.421875 
Q 20.359375 -1.421875 13.671875 8.265625 
Q 6.984375 17.96875 6.984375 36.375 
Q 6.984375 53.65625 15.1875 63.9375 
Q 23.390625 74.21875 37.203125 74.21875 
Q 40.921875 74.21875 44.703125 73.484375 
Q 48.484375 72.75 52.59375 71.296875 
z
" id="DejaVuSans-54"/>
     </defs>
     <use xlink:href="#DejaVuSans-57"/>
     <use x="63.623047" xlink:href="#DejaVuSans-46"/>
     <use x="95.410156" xlink:href="#DejaVuSans-54"/>
     <use x="159.033203" xlink:href="#DejaVuSans-37"/>
    </g>
   </g>
   <g id="text_9">
    <!-- 9.6% -->
    <g style="fill:#ffffff;" transform="translate(222.323811 137.55128)scale(0.1 -0.1)">
     <use xlink:href="#DejaVuSans-57"/>
     <use x="63.623047" xlink:href="#DejaVuSans-46"/>
     <use x="95.410156" xlink:href="#DejaVuSans-54"/>
     <use x="159.033203" xlink:href="#DejaVuSans-37"/>
    </g>
   </g>
   <g id="legend_1">
    <g id="patch_20">
     <path d="M 349 191.900469 
L 708.775 191.900469 
Q 710.775 191.900469 710.775 189.900469 
L 710.775 41.939531 
Q 710.775 39.939531 708.775 39.939531 
L 349 39.939531 
Q 347 39.939531 347 41.939531 
L 347 189.900469 
Q 347 191.900469 349 191.900469 
z
" style="fill:#ffffff;opacity:0.8;stroke:#cccccc;stroke-linejoin:miter;"/>
    </g>
    <g id="text_10">
     <!-- Топ-10 -->
     <g transform="translate(511.339063 51.537969)scale(0.1 -0.1)">
      <defs>
       <path d="M -0.296875 72.90625 
L 61.375 72.90625 
L 61.375 64.59375 
L 35.5 64.59375 
L 35.5 0 
L 25.59375 0 
L 25.59375 64.59375 
L -0.296875 64.59375 
z
" id="DejaVuSans-1058"/>
       <path d="M 30.609375 48.390625 
Q 23.390625 48.390625 19.1875 42.75 
Q 14.984375 37.109375 14.984375 27.296875 
Q 14.984375 17.484375 19.15625 11.84375 
Q 23.34375 6.203125 30.609375 6.203125 
Q 37.796875 6.203125 41.984375 11.859375 
Q 46.1875 17.53125 46.1875 27.296875 
Q 46.1875 37.015625 41.984375 42.703125 
Q 37.796875 48.390625 30.609375 48.390625 
z
M 30.609375 56 
Q 42.328125 56 49.015625 48.375 
Q 55.71875 40.765625 55.71875 27.296875 
Q 55.71875 13.875 49.015625 6.21875 
Q 42.328125 -1.421875 30.609375 -1.421875 
Q 18.84375 -1.421875 12.171875 6.21875 
Q 5.515625 13.875 5.515625 27.296875 
Q 5.515625 40.765625 12.171875 48.375 
Q 18.84375 56 30.609375 56 
z
" id="DejaVuSans-1086"/>
       <path d="M 56.296875 54.6875 
L 56.296875 0 
L 47.265625 0 
L 47.265625 47.515625 
L 18.109375 47.515625 
L 18.109375 0 
L 9.078125 0 
L 9.078125 54.6875 
z
" id="DejaVuSans-1087"/>
       <path d="M 4.890625 31.390625 
L 31.203125 31.390625 
L 31.203125 23.390625 
L 4.890625 23.390625 
z
" id="DejaVuSans-45"/>
       <path d="M 31.78125 66.40625 
Q 24.171875 66.40625 20.328125 58.90625 
Q 16.5 51.421875 16.5 36.375 
Q 16.5 21.390625 20.328125 13.890625 
Q 24.171875 6.390625 31.78125 6.390625 
Q 39.453125 6.390625 43.28125 13.890625 
Q 47.125 21.390625 47.125 36.375 
Q 47.125 51.421875 43.28125 58.90625 
Q 39.453125 66.40625 31.78125 66.40625 
z
M 31.78125 74.21875 
Q 44.046875 74.21875 50.515625 64.515625 
Q 56.984375 54.828125 56.984375 36.375 
Q 56.984375 17.96875 50.515625 8.265625 
Q 44.046875 -1.421875 31.78125 -1.421875 
Q 19.53125 -1.421875 13.0625 8.265625 
Q 6.59375 17.96875 6.59375 36.375 
Q 6.59375 54.828125 13.0625 64.515625 
Q 19.53125 74.21875 31.78125 74.21875 
z
" id="DejaVuSans-48"/>
      </defs>
      <use xlink:href="#DejaVuSans-1058"/>
      <use x="61.083984" xlink:href="#DejaVuSans-1086"/>
      <use x="122.265625" xlink:href="#DejaVuSans-1087"/>
      <use x="187.646484" xlink:href="#DejaVuSans-45"/>
      <use x="223.730469" xlink:href="#DejaVuSans-49"/>
      <use x="287.353516" xlink:href="#DejaVuSans-48"/>
     </g>
    </g>
    <g id="patch_21">
     <path d="M 351 66.216094 
L 371 66.216094 
L 371 59.216094 
L 351 59.216094 
z
" style="fill:#1f77b4;"/>
    </g>
    <g id="text_11">
     <!-- Движение ЗА ПРАВДУ Белгород (zapravdu_belgorod) -->
     <g transform="translate(379 66.216094)scale(0.1 -0.1)">
      <defs>
       <path d="M 22.796875 8.296875 
L 55.03125 8.296875 
L 55.03125 64.59375 
L 31.34375 64.59375 
L 31.34375 54.25 
Q 31.34375 29.890625 25.875 13.71875 
Q 24.75 10.40625 22.796875 8.296875 
z
M 8.40625 8.296875 
Q 14.9375 11.375 16.796875 17.234375 
Q 21.53125 32.28125 21.53125 59.125 
L 21.53125 72.90625 
L 64.890625 72.90625 
L 64.890625 8.296875 
L 73.1875 8.296875 
L 73.1875 -15.671875 
L 64.890625 -15.671875 
L 64.890625 0 
L 13.234375 0 
L 13.234375 -15.671875 
L 4.9375 -15.671875 
L 4.9375 8.296875 
z
" id="DejaVuSans-1044"/>
       <path d="M 18.0625 25.203125 
L 18.0625 7.171875 
L 30.859375 7.171875 
Q 37.015625 7.171875 40.234375 9.484375 
Q 43.453125 11.8125 43.453125 16.21875 
Q 43.453125 20.609375 40.234375 22.90625 
Q 37.015625 25.203125 30.859375 25.203125 
z
M 18.0625 47.515625 
L 18.0625 32.375 
L 29.890625 32.375 
Q 34.96875 32.375 38.1875 34.390625 
Q 41.40625 36.421875 41.40625 40.046875 
Q 41.40625 43.65625 38.1875 45.578125 
Q 34.96875 47.515625 29.890625 47.515625 
z
M 9.078125 54.6875 
L 30.46875 54.6875 
Q 40.09375 54.6875 45.265625 51.171875 
Q 50.4375 47.65625 50.4375 41.15625 
Q 50.4375 36.140625 47.796875 33.171875 
Q 45.171875 30.21875 39.984375 29.5 
Q 46.1875 28.328125 49.609375 24.609375 
Q 53.03125 20.90625 53.03125 15.328125 
Q 53.03125 8.015625 47.390625 4 
Q 41.75 0 31.296875 0 
L 9.078125 0 
z
" id="DejaVuSans-1074"/>
       <path d="M 55.90625 54.6875 
L 55.90625 0 
L 46.96875 0 
L 46.96875 43.890625 
L 20.609375 0 
L 9.078125 0 
L 9.078125 54.6875 
L 18.015625 54.6875 
L 18.015625 10.890625 
L 44.34375 54.6875 
z
" id="DejaVuSans-1080"/>
       <path d="M 40.578125 54.6875 
L 49.515625 54.6875 
L 49.515625 29 
L 73.390625 54.6875 
L 83.84375 54.6875 
L 64.203125 33.640625 
L 86.671875 0 
L 77.046875 0 
L 58.640625 27.640625 
L 49.515625 17.828125 
L 49.515625 0 
L 40.578125 0 
L 40.578125 17.828125 
L 31.453125 27.640625 
L 13.03125 0 
L 3.421875 0 
L 25.875 33.640625 
L 6.25 54.6875 
L 16.703125 54.6875 
L 40.578125 29 
z
" id="DejaVuSans-1078"/>
       <path d="M 56.203125 29.59375 
L 56.203125 25.203125 
L 14.890625 25.203125 
Q 15.484375 15.921875 20.484375 11.0625 
Q 25.484375 6.203125 34.421875 6.203125 
Q 39.59375 6.203125 44.453125 7.46875 
Q 49.3125 8.734375 54.109375 11.28125 
L 54.109375 2.78125 
Q 49.265625 0.734375 44.1875 -0.34375 
Q 39.109375 -1.421875 33.890625 -1.421875 
Q 20.796875 -1.421875 13.15625 6.1875 
Q 5.515625 13.8125 5.515625 26.8125 
Q 5.515625 40.234375 12.765625 48.109375 
Q 20.015625 56 32.328125 56 
Q 43.359375 56 49.78125 48.890625 
Q 56.203125 41.796875 56.203125 29.59375 
z
M 47.21875 32.234375 
Q 47.125 39.59375 43.09375 43.984375 
Q 39.0625 48.390625 32.421875 48.390625 
Q 24.90625 48.390625 20.390625 44.140625 
Q 15.875 39.890625 15.1875 32.171875 
z
" id="DejaVuSans-1077"/>
       <path d="M 9.078125 54.6875 
L 18.109375 54.6875 
L 18.109375 32.375 
L 47.265625 32.375 
L 47.265625 54.6875 
L 56.296875 54.6875 
L 56.296875 0 
L 47.265625 0 
L 47.265625 25.203125 
L 18.109375 25.203125 
L 18.109375 0 
L 9.078125 0 
z
" id="DejaVuSans-1085"/>
       <path id="DejaVuSans-32"/>
       <path d="M 28.5625 74.21875 
Q 40.578125 74.21875 48.1875 69.109375 
Q 55.8125 64.015625 55.8125 55.328125 
Q 55.8125 49.265625 52.34375 45.09375 
Q 48.875 40.921875 42.484375 39.3125 
Q 49.5625 37.796875 53.53125 33 
Q 57.515625 28.21875 57.515625 21.1875 
Q 57.515625 9.96875 48.84375 4.265625 
Q 40.1875 -1.421875 28.5625 -1.421875 
Q 22.609375 -1.421875 15.671875 0.1875 
Q 8.734375 1.8125 6.59375 3.171875 
L 6.59375 13.328125 
Q 14.0625 8.984375 18.1875 7.9375 
Q 22.3125 6.890625 28.375 6.890625 
Q 37.546875 6.890625 42.625 10.40625 
Q 47.703125 13.921875 47.703125 21.1875 
Q 47.703125 27.640625 43.1875 31.265625 
Q 38.671875 34.90625 29.15625 34.90625 
L 19.1875 34.90625 
L 19.1875 43.015625 
L 29.546875 43.015625 
Q 38.28125 43.015625 42.140625 45.921875 
Q 46 48.828125 46 54.296875 
Q 46 59.90625 42.015625 62.90625 
Q 38.03125 65.921875 28.375 65.921875 
Q 21.828125 65.921875 19.578125 65.328125 
Q 17.328125 64.75 7.328125 60.984375 
L 7.328125 70.609375 
Q 12.84375 72.5625 18.59375 73.390625 
Q 24.359375 74.21875 28.5625 74.21875 
z
" id="DejaVuSans-1047"/>
       <path d="M 34.1875 63.1875 
L 20.796875 26.90625 
L 47.609375 26.90625 
z
M 28.609375 72.90625 
L 39.796875 72.90625 
L 67.578125 0 
L 57.328125 0 
L 50.6875 18.703125 
L 17.828125 18.703125 
L 11.1875 0 
L 0.78125 0 
z
" id="DejaVuSans-1040"/>
       <path d="M 65.375 72.90625 
L 65.375 0 
L 55.515625 0 
L 55.515625 64.59375 
L 19.671875 64.59375 
L 19.671875 0 
L 9.8125 0 
L 9.8125 72.90625 
z
" id="DejaVuSans-1055"/>
       <path d="M 19.671875 64.796875 
L 19.671875 37.40625 
L 32.078125 37.40625 
Q 38.96875 37.40625 42.71875 40.96875 
Q 46.484375 44.53125 46.484375 51.125 
Q 46.484375 57.671875 42.71875 61.234375 
Q 38.96875 64.796875 32.078125 64.796875 
z
M 9.8125 72.90625 
L 32.078125 72.90625 
Q 44.34375 72.90625 50.609375 67.359375 
Q 56.890625 61.8125 56.890625 51.125 
Q 56.890625 40.328125 50.609375 34.8125 
Q 44.34375 29.296875 32.078125 29.296875 
L 19.671875 29.296875 
L 19.671875 0 
L 9.8125 0 
z
" id="DejaVuSans-1056"/>
       <path d="M 19.671875 34.8125 
L 19.671875 8.109375 
L 35.5 8.109375 
Q 43.453125 8.109375 47.28125 11.40625 
Q 51.125 14.703125 51.125 21.484375 
Q 51.125 28.328125 47.28125 31.5625 
Q 43.453125 34.8125 35.5 34.8125 
z
M 19.671875 64.796875 
L 19.671875 42.828125 
L 34.28125 42.828125 
Q 41.5 42.828125 45.03125 45.53125 
Q 48.578125 48.25 48.578125 53.8125 
Q 48.578125 59.328125 45.03125 62.0625 
Q 41.5 64.796875 34.28125 64.796875 
z
M 9.8125 72.90625 
L 35.015625 72.90625 
Q 46.296875 72.90625 52.390625 68.21875 
Q 58.5 63.53125 58.5 54.890625 
Q 58.5 48.1875 55.375 44.234375 
Q 52.25 40.28125 46.1875 39.3125 
Q 53.46875 37.75 57.5 32.78125 
Q 61.53125 27.828125 61.53125 20.40625 
Q 61.53125 10.640625 54.890625 5.3125 
Q 48.25 0 35.984375 0 
L 9.8125 0 
z
" id="DejaVuSans-1042"/>
       <path d="M 31.984375 8.84375 
Q 30.953125 6.390625 29.390625 4.546875 
Q 25.53125 0 13.28125 0 
L 9.515625 0 
L 9.515625 8.296875 
L 12.59375 8.296875 
Q 18.40625 8.296875 20.65625 9.625 
Q 22.015625 10.453125 22.90625 12.5 
L 25.09375 17.671875 
L 1.703125 72.90625 
L 12.3125 72.90625 
L 30.421875 30.125 
L 48.640625 72.90625 
L 59.234375 72.90625 
z
" id="DejaVuSans-1059"/>
       <path d="M 51.125 21.4375 
Q 51.125 28.21875 47.28125 31.515625 
Q 43.453125 34.8125 35.5 34.8125 
L 19.671875 34.8125 
L 19.671875 8.109375 
L 35.5 8.109375 
Q 43.453125 8.109375 47.28125 11.40625 
Q 51.125 14.703125 51.125 21.4375 
z
M 56.390625 72.90625 
L 56.390625 64.796875 
L 19.671875 64.796875 
L 19.671875 42.921875 
L 35.984375 42.921875 
Q 48.25 42.921875 54.890625 37.59375 
Q 61.53125 32.28125 61.53125 21.4375 
Q 61.53125 10.640625 55.109375 5.3125 
Q 48.6875 0 35.984375 0 
L 9.8125 0 
L 9.8125 72.90625 
z
" id="DejaVuSans-1041"/>
       <path d="M 3.71875 0 
L 3.71875 7.46875 
Q 12.59375 8.84375 15.328125 14.984375 
Q 18.65625 23.640625 18.65625 45.75 
L 18.65625 54.6875 
L 55.609375 54.6875 
L 55.609375 0 
L 46.625 0 
L 46.625 47.515625 
L 27.640625 47.515625 
L 27.640625 42.09375 
Q 27.640625 21 23.34375 11.53125 
Q 18.75 1.421875 3.71875 0 
z
" id="DejaVuSans-1083"/>
       <path d="M 9.078125 0 
L 9.078125 54.6875 
L 47.65625 54.6875 
L 47.65625 47.515625 
L 18.109375 47.515625 
L 18.109375 0 
z
" id="DejaVuSans-1075"/>
       <path d="M 18.109375 8.203125 
L 18.109375 -20.796875 
L 9.078125 -20.796875 
L 9.078125 54.6875 
L 18.109375 54.6875 
L 18.109375 46.390625 
Q 20.953125 51.265625 25.265625 53.625 
Q 29.59375 56 35.59375 56 
Q 45.5625 56 51.78125 48.09375 
Q 58.015625 40.1875 58.015625 27.296875 
Q 58.015625 14.40625 51.78125 6.484375 
Q 45.5625 -1.421875 35.59375 -1.421875 
Q 29.59375 -1.421875 25.265625 0.953125 
Q 20.953125 3.328125 18.109375 8.203125 
z
M 48.6875 27.296875 
Q 48.6875 37.203125 44.609375 42.84375 
Q 40.53125 48.484375 33.40625 48.484375 
Q 26.265625 48.484375 22.1875 42.84375 
Q 18.109375 37.203125 18.109375 27.296875 
Q 18.109375 17.390625 22.1875 11.75 
Q 26.265625 6.109375 33.40625 6.109375 
Q 40.53125 6.109375 44.609375 11.75 
Q 48.6875 17.390625 48.6875 27.296875 
z
" id="DejaVuSans-1088"/>
       <path d="M 21.625 7.171875 
L 47.703125 7.171875 
L 47.703125 47.515625 
L 28.8125 47.515625 
L 28.8125 40.671875 
Q 28.8125 20.5625 23.046875 9.8125 
z
M 8.59375 7.171875 
Q 13.03125 9.125 14.984375 13.28125 
Q 19.78125 23.578125 19.78125 44.34375 
L 19.78125 54.6875 
L 56.734375 54.6875 
L 56.734375 7.171875 
L 63.921875 7.171875 
L 63.921875 -13.8125 
L 56.734375 -13.8125 
L 56.734375 0 
L 12.40625 0 
L 12.40625 -13.8125 
L 5.21875 -13.8125 
L 5.21875 7.171875 
z
" id="DejaVuSans-1076"/>
       <path d="M 31 75.875 
Q 24.46875 64.65625 21.28125 53.65625 
Q 18.109375 42.671875 18.109375 31.390625 
Q 18.109375 20.125 21.3125 9.0625 
Q 24.515625 -2 31 -13.1875 
L 23.1875 -13.1875 
Q 15.875 -1.703125 12.234375 9.375 
Q 8.59375 20.453125 8.59375 31.390625 
Q 8.59375 42.28125 12.203125 53.3125 
Q 15.828125 64.359375 23.1875 75.875 
z
" id="DejaVuSans-40"/>
       <path d="M 5.515625 54.6875 
L 48.1875 54.6875 
L 48.1875 46.484375 
L 14.40625 7.171875 
L 48.1875 7.171875 
L 48.1875 0 
L 4.296875 0 
L 4.296875 8.203125 
L 38.09375 47.515625 
L 5.515625 47.515625 
z
" id="DejaVuSans-122"/>
       <path d="M 34.28125 27.484375 
Q 23.390625 27.484375 19.1875 25 
Q 14.984375 22.515625 14.984375 16.5 
Q 14.984375 11.71875 18.140625 8.90625 
Q 21.296875 6.109375 26.703125 6.109375 
Q 34.1875 6.109375 38.703125 11.40625 
Q 43.21875 16.703125 43.21875 25.484375 
L 43.21875 27.484375 
z
M 52.203125 31.203125 
L 52.203125 0 
L 43.21875 0 
L 43.21875 8.296875 
Q 40.140625 3.328125 35.546875 0.953125 
Q 30.953125 -1.421875 24.3125 -1.421875 
Q 15.921875 -1.421875 10.953125 3.296875 
Q 6 8.015625 6 15.921875 
Q 6 25.140625 12.171875 29.828125 
Q 18.359375 34.515625 30.609375 34.515625 
L 43.21875 34.515625 
L 43.21875 35.40625 
Q 43.21875 41.609375 39.140625 45 
Q 35.0625 48.390625 27.6875 48.390625 
Q 23 48.390625 18.546875 47.265625 
Q 14.109375 46.140625 10.015625 43.890625 
L 10.015625 52.203125 
Q 14.9375 54.109375 19.578125 55.046875 
Q 24.21875 56 28.609375 56 
Q 40.484375 56 46.34375 49.84375 
Q 52.203125 43.703125 52.203125 31.203125 
z
" id="DejaVuSans-97"/>
       <path d="M 18.109375 8.203125 
L 18.109375 -20.796875 
L 9.078125 -20.796875 
L 9.078125 54.6875 
L 18.109375 54.6875 
L 18.109375 46.390625 
Q 20.953125 51.265625 25.265625 53.625 
Q 29.59375 56 35.59375 56 
Q 45.5625 56 51.78125 48.09375 
Q 58.015625 40.1875 58.015625 27.296875 
Q 58.015625 14.40625 51.78125 6.484375 
Q 45.5625 -1.421875 35.59375 -1.421875 
Q 29.59375 -1.421875 25.265625 0.953125 
Q 20.953125 3.328125 18.109375 8.203125 
z
M 48.6875 27.296875 
Q 48.6875 37.203125 44.609375 42.84375 
Q 40.53125 48.484375 33.40625 48.484375 
Q 26.265625 48.484375 22.1875 42.84375 
Q 18.109375 37.203125 18.109375 27.296875 
Q 18.109375 17.390625 22.1875 11.75 
Q 26.265625 6.109375 33.40625 6.109375 
Q 40.53125 6.109375 44.609375 11.75 
Q 48.6875 17.390625 48.6875 27.296875 
z
" id="DejaVuSans-112"/>
       <path d="M 41.109375 46.296875 
Q 39.59375 47.171875 37.8125 47.578125 
Q 36.03125 48 33.890625 48 
Q 26.265625 48 22.1875 43.046875 
Q 18.109375 38.09375 18.109375 28.8125 
L 18.109375 0 
L 9.078125 0 
L 9.078125 54.6875 
L 18.109375 54.6875 
L 18.109375 46.1875 
Q 20.953125 51.171875 25.484375 53.578125 
Q 30.03125 56 36.53125 56 
Q 37.453125 56 38.578125 55.875 
Q 39.703125 55.765625 41.0625 55.515625 
z
" id="DejaVuSans-114"/>
       <path d="M 2.984375 54.6875 
L 12.5 54.6875 
L 29.59375 8.796875 
L 46.6875 54.6875 
L 56.203125 54.6875 
L 35.6875 0 
L 23.484375 0 
z
" id="DejaVuSans-118"/>
       <path d="M 45.40625 46.390625 
L 45.40625 75.984375 
L 54.390625 75.984375 
L 54.390625 0 
L 45.40625 0 
L 45.40625 8.203125 
Q 42.578125 3.328125 38.25 0.953125 
Q 33.9375 -1.421875 27.875 -1.421875 
Q 17.96875 -1.421875 11.734375 6.484375 
Q 5.515625 14.40625 5.515625 27.296875 
Q 5.515625 40.1875 11.734375 48.09375 
Q 17.96875 56 27.875 56 
Q 33.9375 56 38.25 53.625 
Q 42.578125 51.265625 45.40625 46.390625 
z
M 14.796875 27.296875 
Q 14.796875 17.390625 18.875 11.75 
Q 22.953125 6.109375 30.078125 6.109375 
Q 37.203125 6.109375 41.296875 11.75 
Q 45.40625 17.390625 45.40625 27.296875 
Q 45.40625 37.203125 41.296875 42.84375 
Q 37.203125 48.484375 30.078125 48.484375 
Q 22.953125 48.484375 18.875 42.84375 
Q 14.796875 37.203125 14.796875 27.296875 
z
" id="DejaVuSans-100"/>
       <path d="M 8.5 21.578125 
L 8.5 54.6875 
L 17.484375 54.6875 
L 17.484375 21.921875 
Q 17.484375 14.15625 20.5 10.265625 
Q 23.53125 6.390625 29.59375 6.390625 
Q 36.859375 6.390625 41.078125 11.03125 
Q 45.3125 15.671875 45.3125 23.6875 
L 45.3125 54.6875 
L 54.296875 54.6875 
L 54.296875 0 
L 45.3125 0 
L 45.3125 8.40625 
Q 42.046875 3.421875 37.71875 1 
Q 33.40625 -1.421875 27.6875 -1.421875 
Q 18.265625 -1.421875 13.375 4.4375 
Q 8.5 10.296875 8.5 21.578125 
z
M 31.109375 56 
z
" id="DejaVuSans-117"/>
       <path d="M 50.984375 -16.609375 
L 50.984375 -23.578125 
L -0.984375 -23.578125 
L -0.984375 -16.609375 
z
" id="DejaVuSans-95"/>
       <path d="M 48.6875 27.296875 
Q 48.6875 37.203125 44.609375 42.84375 
Q 40.53125 48.484375 33.40625 48.484375 
Q 26.265625 48.484375 22.1875 42.84375 
Q 18.109375 37.203125 18.109375 27.296875 
Q 18.109375 17.390625 22.1875 11.75 
Q 26.265625 6.109375 33.40625 6.109375 
Q 40.53125 6.109375 44.609375 11.75 
Q 48.6875 17.390625 48.6875 27.296875 
z
M 18.109375 46.390625 
Q 20.953125 51.265625 25.265625 53.625 
Q 29.59375 56 35.59375 56 
Q 45.5625 56 51.78125 48.09375 
Q 58.015625 40.1875 58.015625 27.296875 
Q 58.015625 14.40625 51.78125 6.484375 
Q 45.5625 -1.421875 35.59375 -1.421875 
Q 29.59375 -1.421875 25.265625 0.953125 
Q 20.953125 3.328125 18.109375 8.203125 
L 18.109375 0 
L 9.078125 0 
L 9.078125 75.984375 
L 18.109375 75.984375 
z
" id="DejaVuSans-98"/>
       <path d="M 56.203125 29.59375 
L 56.203125 25.203125 
L 14.890625 25.203125 
Q 15.484375 15.921875 20.484375 11.0625 
Q 25.484375 6.203125 34.421875 6.203125 
Q 39.59375 6.203125 44.453125 7.46875 
Q 49.3125 8.734375 54.109375 11.28125 
L 54.109375 2.78125 
Q 49.265625 0.734375 44.1875 -0.34375 
Q 39.109375 -1.421875 33.890625 -1.421875 
Q 20.796875 -1.421875 13.15625 6.1875 
Q 5.515625 13.8125 5.515625 26.8125 
Q 5.515625 40.234375 12.765625 48.109375 
Q 20.015625 56 32.328125 56 
Q 43.359375 56 49.78125 48.890625 
Q 56.203125 41.796875 56.203125 29.59375 
z
M 47.21875 32.234375 
Q 47.125 39.59375 43.09375 43.984375 
Q 39.0625 48.390625 32.421875 48.390625 
Q 24.90625 48.390625 20.390625 44.140625 
Q 15.875 39.890625 15.1875 32.171875 
z
" id="DejaVuSans-101"/>
       <path d="M 9.421875 75.984375 
L 18.40625 75.984375 
L 18.40625 0 
L 9.421875 0 
z
" id="DejaVuSans-108"/>
       <path d="M 45.40625 27.984375 
Q 45.40625 37.75 41.375 43.109375 
Q 37.359375 48.484375 30.078125 48.484375 
Q 22.859375 48.484375 18.828125 43.109375 
Q 14.796875 37.75 14.796875 27.984375 
Q 14.796875 18.265625 18.828125 12.890625 
Q 22.859375 7.515625 30.078125 7.515625 
Q 37.359375 7.515625 41.375 12.890625 
Q 45.40625 18.265625 45.40625 27.984375 
z
M 54.390625 6.78125 
Q 54.390625 -7.171875 48.1875 -13.984375 
Q 42 -20.796875 29.203125 -20.796875 
Q 24.46875 -20.796875 20.265625 -20.09375 
Q 16.0625 -19.390625 12.109375 -17.921875 
L 12.109375 -9.1875 
Q 16.0625 -11.328125 19.921875 -12.34375 
Q 23.78125 -13.375 27.78125 -13.375 
Q 36.625 -13.375 41.015625 -8.765625 
Q 45.40625 -4.15625 45.40625 5.171875 
L 45.40625 9.625 
Q 42.625 4.78125 38.28125 2.390625 
Q 33.9375 0 27.875 0 
Q 17.828125 0 11.671875 7.65625 
Q 5.515625 15.328125 5.515625 27.984375 
Q 5.515625 40.671875 11.671875 48.328125 
Q 17.828125 56 27.875 56 
Q 33.9375 56 38.28125 53.609375 
Q 42.625 51.21875 45.40625 46.390625 
L 45.40625 54.6875 
L 54.390625 54.6875 
z
" id="DejaVuSans-103"/>
       <path d="M 30.609375 48.390625 
Q 23.390625 48.390625 19.1875 42.75 
Q 14.984375 37.109375 14.984375 27.296875 
Q 14.984375 17.484375 19.15625 11.84375 
Q 23.34375 6.203125 30.609375 6.203125 
Q 37.796875 6.203125 41.984375 11.859375 
Q 46.1875 17.53125 46.1875 27.296875 
Q 46.1875 37.015625 41.984375 42.703125 
Q 37.796875 48.390625 30.609375 48.390625 
z
M 30.609375 56 
Q 42.328125 56 49.015625 48.375 
Q 55.71875 40.765625 55.71875 27.296875 
Q 55.71875 13.875 49.015625 6.21875 
Q 42.328125 -1.421875 30.609375 -1.421875 
Q 18.84375 -1.421875 12.171875 6.21875 
Q 5.515625 13.875 5.515625 27.296875 
Q 5.515625 40.765625 12.171875 48.375 
Q 18.84375 56 30.609375 56 
z
" id="DejaVuSans-111"/>
       <path d="M 8.015625 75.875 
L 15.828125 75.875 
Q 23.140625 64.359375 26.78125 53.3125 
Q 30.421875 42.28125 30.421875 31.390625 
Q 30.421875 20.453125 26.78125 9.375 
Q 23.140625 -1.703125 15.828125 -13.1875 
L 8.015625 -13.1875 
Q 14.5 -2 17.703125 9.0625 
Q 20.90625 20.125 20.90625 31.390625 
Q 20.90625 42.671875 17.703125 53.65625 
Q 14.5 64.65625 8.015625 75.875 
z
" id="DejaVuSans-41"/>
      </defs>
      <use xlink:href="#DejaVuSans-1044"/>
      <use x="78.125" xlink:href="#DejaVuSans-1074"/>
      <use x="137.060547" xlink:href="#DejaVuSans-1080"/>
      <use x="202.050781" xlink:href="#DejaVuSans-1078"/>
      <use x="292.138672" xlink:href="#DejaVuSans-1077"/>
      <use x="353.662109" xlink:href="#DejaVuSans-1085"/>
      <use x="419.042969" xlink:href="#DejaVuSans-1080"/>
      <use x="484.033203" xlink:href="#DejaVuSans-1077"/>
      <use x="545.556641" xlink:href="#DejaVuSans-32"/>
      <use x="577.34375" xlink:href="#DejaVuSans-1047"/>
      <use x="641.455078" xlink:href="#DejaVuSans-1040"/>
      <use x="709.863281" xlink:href="#DejaVuSans-32"/>
      <use x="741.650391" xlink:href="#DejaVuSans-1055"/>
      <use x="816.845703" xlink:href="#DejaVuSans-1056"/>
      <use x="877.148438" xlink:href="#DejaVuSans-1040"/>
      <use x="945.556641" xlink:href="#DejaVuSans-1042"/>
      <use x="1014.160156" xlink:href="#DejaVuSans-1044"/>
      <use x="1092.285156" xlink:href="#DejaVuSans-1059"/>
      <use x="1153.222656" xlink:href="#DejaVuSans-32"/>
      <use x="1185.009766" xlink:href="#DejaVuSans-1041"/>
      <use x="1253.613281" xlink:href="#DejaVuSans-1077"/>
      <use x="1315.136719" xlink:href="#DejaVuSans-1083"/>
      <use x="1379.052734" xlink:href="#DejaVuSans-1075"/>
      <use x="1431.591797" xlink:href="#DejaVuSans-1086"/>
      <use x="1492.773438" xlink:href="#DejaVuSans-1088"/>
      <use x="1556.25" xlink:href="#DejaVuSans-1086"/>
      <use x="1617.431641" xlink:href="#DejaVuSans-1076"/>
      <use x="1686.572266" xlink:href="#DejaVuSans-32"/>
      <use x="1718.359375" xlink:href="#DejaVuSans-40"/>
      <use x="1757.373047" xlink:href="#DejaVuSans-122"/>
      <use x="1809.863281" xlink:href="#DejaVuSans-97"/>
      <use x="1871.142578" xlink:href="#DejaVuSans-112"/>
      <use x="1934.619141" xlink:href="#DejaVuSans-114"/>
      <use x="1975.732422" xlink:href="#DejaVuSans-97"/>
      <use x="2037.011719" xlink:href="#DejaVuSans-118"/>
      <use x="2096.191406" xlink:href="#DejaVuSans-100"/>
      <use x="2159.667969" xlink:href="#DejaVuSans-117"/>
      <use x="2223.046875" xlink:href="#DejaVuSans-95"/>
      <use x="2273.046875" xlink:href="#DejaVuSans-98"/>
      <use x="2336.523438" xlink:href="#DejaVuSans-101"/>
      <use x="2398.046875" xlink:href="#DejaVuSans-108"/>
      <use x="2425.830078" xlink:href="#DejaVuSans-103"/>
      <use x="2489.306641" xlink:href="#DejaVuSans-111"/>
      <use x="2550.488281" xlink:href="#DejaVuSans-114"/>
      <use x="2589.351562" xlink:href="#DejaVuSans-111"/>
      <use x="2650.533203" xlink:href="#DejaVuSans-100"/>
      <use x="2714.009766" xlink:href="#DejaVuSans-41"/>
     </g>
    </g>
    <g id="patch_22">
     <path d="M 351 81.172344 
L 371 81.172344 
L 371 74.172344 
L 351 74.172344 
z
" style="fill:#ff7f0e;"/>
    </g>
    <g id="text_12">
     <!-- Захар Прилепин (zaharprilepin) -->
     <g transform="translate(379 81.172344)scale(0.1 -0.1)">
      <defs>
       <path d="M 34.28125 27.484375 
Q 23.390625 27.484375 19.1875 25 
Q 14.984375 22.515625 14.984375 16.5 
Q 14.984375 11.71875 18.140625 8.90625 
Q 21.296875 6.109375 26.703125 6.109375 
Q 34.1875 6.109375 38.703125 11.40625 
Q 43.21875 16.703125 43.21875 25.484375 
L 43.21875 27.484375 
z
M 52.203125 31.203125 
L 52.203125 0 
L 43.21875 0 
L 43.21875 8.296875 
Q 40.140625 3.328125 35.546875 0.953125 
Q 30.953125 -1.421875 24.3125 -1.421875 
Q 15.921875 -1.421875 10.953125 3.296875 
Q 6 8.015625 6 15.921875 
Q 6 25.140625 12.171875 29.828125 
Q 18.359375 34.515625 30.609375 34.515625 
L 43.21875 34.515625 
L 43.21875 35.40625 
Q 43.21875 41.609375 39.140625 45 
Q 35.0625 48.390625 27.6875 48.390625 
Q 23 48.390625 18.546875 47.265625 
Q 14.109375 46.140625 10.015625 43.890625 
L 10.015625 52.203125 
Q 14.9375 54.109375 19.578125 55.046875 
Q 24.21875 56 28.609375 56 
Q 40.484375 56 46.34375 49.84375 
Q 52.203125 43.703125 52.203125 31.203125 
z
" id="DejaVuSans-1072"/>
       <path d="M 54.890625 54.6875 
L 35.109375 28.078125 
L 55.90625 0 
L 45.3125 0 
L 29.390625 21.484375 
L 13.484375 0 
L 2.875 0 
L 24.125 28.609375 
L 4.6875 54.6875 
L 15.28125 54.6875 
L 29.78125 35.203125 
L 44.28125 54.6875 
z
" id="DejaVuSans-1093"/>
       <path d="M 54.890625 33.015625 
L 54.890625 0 
L 45.90625 0 
L 45.90625 32.71875 
Q 45.90625 40.484375 42.875 44.328125 
Q 39.84375 48.1875 33.796875 48.1875 
Q 26.515625 48.1875 22.3125 43.546875 
Q 18.109375 38.921875 18.109375 30.90625 
L 18.109375 0 
L 9.078125 0 
L 9.078125 75.984375 
L 18.109375 75.984375 
L 18.109375 46.1875 
Q 21.34375 51.125 25.703125 53.5625 
Q 30.078125 56 35.796875 56 
Q 45.21875 56 50.046875 50.171875 
Q 54.890625 44.34375 54.890625 33.015625 
z
" id="DejaVuSans-104"/>
       <path d="M 9.421875 54.6875 
L 18.40625 54.6875 
L 18.40625 0 
L 9.421875 0 
z
M 9.421875 75.984375 
L 18.40625 75.984375 
L 18.40625 64.59375 
L 9.421875 64.59375 
z
" id="DejaVuSans-105"/>
       <path d="M 54.890625 33.015625 
L 54.890625 0 
L 45.90625 0 
L 45.90625 32.71875 
Q 45.90625 40.484375 42.875 44.328125 
Q 39.84375 48.1875 33.796875 48.1875 
Q 26.515625 48.1875 22.3125 43.546875 
Q 18.109375 38.921875 18.109375 30.90625 
L 18.109375 0 
L 9.078125 0 
L 9.078125 54.6875 
L 18.109375 54.6875 
L 18.109375 46.1875 
Q 21.34375 51.125 25.703125 53.5625 
Q 30.078125 56 35.796875 56 
Q 45.21875 56 50.046875 50.171875 
Q 54.890625 44.34375 54.890625 33.015625 
z
" id="DejaVuSans-110"/>
      </defs>
      <use xlink:href="#DejaVuSans-1047"/>
      <use x="64.111328" xlink:href="#DejaVuSans-1072"/>
      <use x="125.390625" xlink:href="#DejaVuSans-1093"/>
      <use x="184.570312" xlink:href="#DejaVuSans-1072"/>
      <use x="245.849609" xlink:href="#DejaVuSans-1088"/>
      <use x="309.326172" xlink:href="#DejaVuSans-32"/>
      <use x="341.113281" xlink:href="#DejaVuSans-1055"/>
      <use x="416.308594" xlink:href="#DejaVuSans-1088"/>
      <use x="479.785156" xlink:href="#DejaVuSans-1080"/>
      <use x="544.775391" xlink:href="#DejaVuSans-1083"/>
      <use x="608.691406" xlink:href="#DejaVuSans-1077"/>
      <use x="670.214844" xlink:href="#DejaVuSans-1087"/>
      <use x="735.595703" xlink:href="#DejaVuSans-1080"/>
      <use x="800.585938" xlink:href="#DejaVuSans-1085"/>
      <use x="865.966797" xlink:href="#DejaVuSans-32"/>
      <use x="897.753906" xlink:href="#DejaVuSans-40"/>
      <use x="936.767578" xlink:href="#DejaVuSans-122"/>
      <use x="989.257812" xlink:href="#DejaVuSans-97"/>
      <use x="1050.537109" xlink:href="#DejaVuSans-104"/>
      <use x="1113.916016" xlink:href="#DejaVuSans-97"/>
      <use x="1175.195312" xlink:href="#DejaVuSans-114"/>
      <use x="1216.308594" xlink:href="#DejaVuSans-112"/>
      <use x="1279.785156" xlink:href="#DejaVuSans-114"/>
      <use x="1320.898438" xlink:href="#DejaVuSans-105"/>
      <use x="1348.681641" xlink:href="#DejaVuSans-108"/>
      <use x="1376.464844" xlink:href="#DejaVuSans-101"/>
      <use x="1437.988281" xlink:href="#DejaVuSans-112"/>
      <use x="1501.464844" xlink:href="#DejaVuSans-105"/>
      <use x="1529.248047" xlink:href="#DejaVuSans-110"/>
      <use x="1592.626953" xlink:href="#DejaVuSans-41"/>
     </g>
    </g>
    <g id="patch_23">
     <path d="M 351 95.850469 
L 371 95.850469 
L 371 88.850469 
L 351 88.850469 
z
" style="fill:#2ca02c;"/>
    </g>
    <g id="text_13">
     <!-- Движение ЗА ПРАВДУ. Новости из регионов. (zapravdu.region) -->
     <g transform="translate(379 95.850469)scale(0.1 -0.1)">
      <defs>
       <path d="M 9.8125 72.90625 
L 19.671875 72.90625 
L 19.671875 43.015625 
L 55.515625 43.015625 
L 55.515625 72.90625 
L 65.375 72.90625 
L 65.375 0 
L 55.515625 0 
L 55.515625 34.71875 
L 19.671875 34.71875 
L 19.671875 0 
L 9.8125 0 
z
" id="DejaVuSans-1053"/>
       <path d="M 48.78125 52.59375 
L 48.78125 44.1875 
Q 44.96875 46.296875 41.140625 47.34375 
Q 37.3125 48.390625 33.40625 48.390625 
Q 24.65625 48.390625 19.8125 42.84375 
Q 14.984375 37.3125 14.984375 27.296875 
Q 14.984375 17.28125 19.8125 11.734375 
Q 24.65625 6.203125 33.40625 6.203125 
Q 37.3125 6.203125 41.140625 7.25 
Q 44.96875 8.296875 48.78125 10.40625 
L 48.78125 2.09375 
Q 45.015625 0.34375 40.984375 -0.53125 
Q 36.96875 -1.421875 32.421875 -1.421875 
Q 20.0625 -1.421875 12.78125 6.34375 
Q 5.515625 14.109375 5.515625 27.296875 
Q 5.515625 40.671875 12.859375 48.328125 
Q 20.21875 56 33.015625 56 
Q 37.15625 56 41.109375 55.140625 
Q 45.0625 54.296875 48.78125 52.59375 
z
" id="DejaVuSans-1089"/>
       <path d="M 2.9375 54.6875 
L 55.328125 54.6875 
L 55.328125 47.515625 
L 33.546875 47.515625 
L 33.546875 0 
L 24.703125 0 
L 24.703125 47.515625 
L 2.9375 47.515625 
z
" id="DejaVuSans-1090"/>
       <path d="M 34.46875 29.5 
Q 40.53125 28.328125 43.890625 24.75 
Q 47.265625 21.1875 47.265625 15.921875 
Q 47.265625 7.46875 40.96875 3.015625 
Q 34.671875 -1.421875 23.046875 -1.421875 
Q 19.140625 -1.421875 15.015625 -0.734375 
Q 10.890625 -0.046875 6.5 1.3125 
L 6.5 9.671875 
Q 9.96875 7.859375 14.109375 6.953125 
Q 18.265625 6.0625 22.796875 6.0625 
Q 30.171875 6.0625 34.296875 8.796875 
Q 38.421875 11.53125 38.421875 15.921875 
Q 38.421875 20.21875 34.765625 22.828125 
Q 31.109375 25.4375 24.421875 25.4375 
L 17.1875 25.4375 
L 17.1875 32.859375 
L 24.75 32.859375 
Q 30.421875 32.859375 33.71875 35.03125 
Q 37.015625 37.203125 37.015625 40.625 
Q 37.015625 43.75 33.609375 46 
Q 30.21875 48.25 24.421875 48.25 
Q 20.953125 48.25 17.015625 47.609375 
Q 13.09375 46.96875 8.34375 45.5625 
L 8.34375 53.71875 
Q 13.140625 54.890625 17.28125 55.46875 
Q 21.4375 56.0625 25.140625 56.0625 
Q 34.71875 56.0625 40.25 52.21875 
Q 45.796875 48.390625 45.796875 41.5 
Q 45.796875 36.96875 42.859375 33.8125 
Q 39.9375 30.671875 34.46875 29.5 
z
" id="DejaVuSans-1079"/>
      </defs>
      <use xlink:href="#DejaVuSans-1044"/>
      <use x="78.125" xlink:href="#DejaVuSans-1074"/>
      <use x="137.060547" xlink:href="#DejaVuSans-1080"/>
      <use x="202.050781" xlink:href="#DejaVuSans-1078"/>
      <use x="292.138672" xlink:href="#DejaVuSans-1077"/>
      <use x="353.662109" xlink:href="#DejaVuSans-1085"/>
      <use x="419.042969" xlink:href="#DejaVuSans-1080"/>
      <use x="484.033203" xlink:href="#DejaVuSans-1077"/>
      <use x="545.556641" xlink:href="#DejaVuSans-32"/>
      <use x="577.34375" xlink:href="#DejaVuSans-1047"/>
      <use x="641.455078" xlink:href="#DejaVuSans-1040"/>
      <use x="709.863281" xlink:href="#DejaVuSans-32"/>
      <use x="741.650391" xlink:href="#DejaVuSans-1055"/>
      <use x="816.845703" xlink:href="#DejaVuSans-1056"/>
      <use x="877.148438" xlink:href="#DejaVuSans-1040"/>
      <use x="945.556641" xlink:href="#DejaVuSans-1042"/>
      <use x="1014.160156" xlink:href="#DejaVuSans-1044"/>
      <use x="1092.285156" xlink:href="#DejaVuSans-1059"/>
      <use x="1153.222656" xlink:href="#DejaVuSans-46"/>
      <use x="1185.009766" xlink:href="#DejaVuSans-32"/>
      <use x="1216.796875" xlink:href="#DejaVuSans-1053"/>
      <use x="1291.992188" xlink:href="#DejaVuSans-1086"/>
      <use x="1353.173828" xlink:href="#DejaVuSans-1074"/>
      <use x="1412.109375" xlink:href="#DejaVuSans-1086"/>
      <use x="1473.291016" xlink:href="#DejaVuSans-1089"/>
      <use x="1528.271484" xlink:href="#DejaVuSans-1090"/>
      <use x="1586.523438" xlink:href="#DejaVuSans-1080"/>
      <use x="1651.513672" xlink:href="#DejaVuSans-32"/>
      <use x="1683.300781" xlink:href="#DejaVuSans-1080"/>
      <use x="1748.291016" xlink:href="#DejaVuSans-1079"/>
      <use x="1801.464844" xlink:href="#DejaVuSans-32"/>
      <use x="1833.251953" xlink:href="#DejaVuSans-1088"/>
      <use x="1896.728516" xlink:href="#DejaVuSans-1077"/>
      <use x="1958.251953" xlink:href="#DejaVuSans-1075"/>
      <use x="2010.791016" xlink:href="#DejaVuSans-1080"/>
      <use x="2075.78125" xlink:href="#DejaVuSans-1086"/>
      <use x="2136.962891" xlink:href="#DejaVuSans-1085"/>
      <use x="2202.34375" xlink:href="#DejaVuSans-1086"/>
      <use x="2263.525391" xlink:href="#DejaVuSans-1074"/>
      <use x="2322.460938" xlink:href="#DejaVuSans-46"/>
      <use x="2354.248047" xlink:href="#DejaVuSans-32"/>
      <use x="2386.035156" xlink:href="#DejaVuSans-40"/>
      <use x="2425.048828" xlink:href="#DejaVuSans-122"/>
      <use x="2477.539062" xlink:href="#DejaVuSans-97"/>
      <use x="2538.818359" xlink:href="#DejaVuSans-112"/>
      <use x="2602.294922" xlink:href="#DejaVuSans-114"/>
      <use x="2643.408203" xlink:href="#DejaVuSans-97"/>
      <use x="2704.6875" xlink:href="#DejaVuSans-118"/>
      <use x="2763.867188" xlink:href="#DejaVuSans-100"/>
      <use x="2827.34375" xlink:href="#DejaVuSans-117"/>
      <use x="2890.722656" xlink:href="#DejaVuSans-46"/>
      <use x="2922.509766" xlink:href="#DejaVuSans-114"/>
      <use x="2961.373047" xlink:href="#DejaVuSans-101"/>
      <use x="3022.896484" xlink:href="#DejaVuSans-103"/>
      <use x="3086.373047" xlink:href="#DejaVuSans-105"/>
      <use x="3114.15625" xlink:href="#DejaVuSans-111"/>
      <use x="3175.337891" xlink:href="#DejaVuSans-110"/>
      <use x="3238.716797" xlink:href="#DejaVuSans-41"/>
     </g>
    </g>
    <g id="patch_24">
     <path d="M 351 110.698906 
L 371 110.698906 
L 371 103.698906 
L 351 103.698906 
z
" style="fill:#d62728;"/>
    </g>
    <g id="text_14">
     <!-- ЗА ПРАВДУ Челябинская область (zapravdu_chelyabinsk) -->
     <g transform="translate(379 110.698906)scale(0.1 -0.1)">
      <defs>
       <path d="M 48.828125 0 
L 48.828125 29.890625 
L 28.46875 29.890625 
Q 19.390625 29.890625 13.96875 35.578125 
Q 8.546875 41.265625 8.546875 52.875 
L 8.546875 72.90625 
L 18.359375 72.90625 
L 18.359375 53.65625 
Q 18.359375 45.90625 21.390625 42.046875 
Q 24.421875 38.1875 30.46875 38.1875 
L 48.828125 38.1875 
L 48.828125 72.90625 
L 58.734375 72.90625 
L 58.734375 0 
z
" id="DejaVuSans-1063"/>
       <path d="M 18.453125 38.921875 
Q 18.453125 34.859375 21.578125 32.5625 
Q 24.703125 30.28125 30.515625 30.28125 
L 42.625 30.28125 
L 42.625 47.515625 
L 30.515625 47.515625 
Q 24.703125 47.515625 21.578125 45.265625 
Q 18.453125 43.015625 18.453125 38.921875 
z
M 5.671875 0 
L 22.359375 23.96875 
Q 16.703125 25.25 12.9375 28.59375 
Q 9.1875 31.9375 9.1875 38.921875 
Q 9.1875 46.828125 14.421875 50.75 
Q 19.671875 54.6875 30.28125 54.6875 
L 51.65625 54.6875 
L 51.65625 0 
L 42.625 0 
L 42.625 23.09375 
L 31.453125 23.09375 
L 15.328125 0 
z
" id="DejaVuSans-1103"/>
       <path d="M 31.109375 56 
Q 42.828125 56 49.515625 48.375 
Q 56.203125 40.765625 56.203125 27.296875 
Q 56.203125 13.875 49.515625 6.21875 
Q 42.828125 -1.421875 31.109375 -1.421875 
Q 19.34375 -1.421875 12.84375 6 
Q 6.34375 13.421875 6 27.296875 
L 5.71875 38.484375 
Q 5.46875 44.28125 5.46875 46.296875 
Q 5.46875 54.109375 8.296875 59.859375 
Q 12.75 68.890625 20.4375 72.796875 
Q 28.125 76.703125 41.015625 76.8125 
Q 46.96875 76.859375 49.609375 77.6875 
L 52.09375 70.5625 
Q 49.703125 69.578125 47.515625 69.53125 
L 35.296875 68.703125 
Q 29.15625 68.265625 25.4375 66.109375 
Q 15.71875 60.40625 14.796875 52.9375 
L 14.453125 50.203125 
Q 20.796875 56 31.109375 56 
z
M 31.109375 48.390625 
Q 23.875 48.390625 19.671875 42.75 
Q 15.484375 37.109375 15.484375 27.296875 
Q 15.484375 17.484375 19.65625 11.84375 
Q 23.828125 6.203125 31.109375 6.203125 
Q 38.28125 6.203125 42.484375 11.859375 
Q 46.6875 17.53125 46.6875 27.296875 
Q 46.6875 37.015625 42.484375 42.703125 
Q 38.28125 48.390625 31.109375 48.390625 
z
" id="DejaVuSans-1073"/>
       <path d="M 9.078125 54.6875 
L 18.015625 54.6875 
L 18.015625 29 
L 43.359375 54.6875 
L 54.390625 54.6875 
L 33.5 33.546875 
L 57.078125 0 
L 47.015625 0 
L 27.640625 27.59375 
L 18.015625 17.828125 
L 18.015625 0 
L 9.078125 0 
z
" id="DejaVuSans-1082"/>
       <path d="M 43.453125 16.21875 
Q 43.453125 20.609375 40.25 22.90625 
Q 37.0625 25.203125 30.90625 25.203125 
L 18.109375 25.203125 
L 18.109375 7.171875 
L 30.90625 7.171875 
Q 37.0625 7.171875 40.25 9.484375 
Q 43.453125 11.8125 43.453125 16.21875 
z
M 9.078125 54.6875 
L 18.109375 54.6875 
L 18.109375 32.375 
L 31.296875 32.375 
Q 41.75 32.375 47.390625 28.390625 
Q 53.03125 24.421875 53.03125 16.21875 
Q 53.03125 8.015625 47.390625 4 
Q 41.75 0 31.296875 0 
L 9.078125 0 
z
" id="DejaVuSans-1100"/>
       <path d="M 48.78125 52.59375 
L 48.78125 44.1875 
Q 44.96875 46.296875 41.140625 47.34375 
Q 37.3125 48.390625 33.40625 48.390625 
Q 24.65625 48.390625 19.8125 42.84375 
Q 14.984375 37.3125 14.984375 27.296875 
Q 14.984375 17.28125 19.8125 11.734375 
Q 24.65625 6.203125 33.40625 6.203125 
Q 37.3125 6.203125 41.140625 7.25 
Q 44.96875 8.296875 48.78125 10.40625 
L 48.78125 2.09375 
Q 45.015625 0.34375 40.984375 -0.53125 
Q 36.96875 -1.421875 32.421875 -1.421875 
Q 20.0625 -1.421875 12.78125 6.34375 
Q 5.515625 14.109375 5.515625 27.296875 
Q 5.515625 40.671875 12.859375 48.328125 
Q 20.21875 56 33.015625 56 
Q 37.15625 56 41.109375 55.140625 
Q 45.0625 54.296875 48.78125 52.59375 
z
" id="DejaVuSans-99"/>
       <path d="M 32.171875 -5.078125 
Q 28.375 -14.84375 24.75 -17.8125 
Q 21.140625 -20.796875 15.09375 -20.796875 
L 7.90625 -20.796875 
L 7.90625 -13.28125 
L 13.1875 -13.28125 
Q 16.890625 -13.28125 18.9375 -11.515625 
Q 21 -9.765625 23.484375 -3.21875 
L 25.09375 0.875 
L 2.984375 54.6875 
L 12.5 54.6875 
L 29.59375 11.921875 
L 46.6875 54.6875 
L 56.203125 54.6875 
z
" id="DejaVuSans-121"/>
       <path d="M 44.28125 53.078125 
L 44.28125 44.578125 
Q 40.484375 46.53125 36.375 47.5 
Q 32.28125 48.484375 27.875 48.484375 
Q 21.1875 48.484375 17.84375 46.4375 
Q 14.5 44.390625 14.5 40.28125 
Q 14.5 37.15625 16.890625 35.375 
Q 19.28125 33.59375 26.515625 31.984375 
L 29.59375 31.296875 
Q 39.15625 29.25 43.1875 25.515625 
Q 47.21875 21.78125 47.21875 15.09375 
Q 47.21875 7.46875 41.1875 3.015625 
Q 35.15625 -1.421875 24.609375 -1.421875 
Q 20.21875 -1.421875 15.453125 -0.5625 
Q 10.6875 0.296875 5.421875 2 
L 5.421875 11.28125 
Q 10.40625 8.6875 15.234375 7.390625 
Q 20.0625 6.109375 24.8125 6.109375 
Q 31.15625 6.109375 34.5625 8.28125 
Q 37.984375 10.453125 37.984375 14.40625 
Q 37.984375 18.0625 35.515625 20.015625 
Q 33.0625 21.96875 24.703125 23.78125 
L 21.578125 24.515625 
Q 13.234375 26.265625 9.515625 29.90625 
Q 5.8125 33.546875 5.8125 39.890625 
Q 5.8125 47.609375 11.28125 51.796875 
Q 16.75 56 26.8125 56 
Q 31.78125 56 36.171875 55.265625 
Q 40.578125 54.546875 44.28125 53.078125 
z
" id="DejaVuSans-115"/>
       <path d="M 9.078125 75.984375 
L 18.109375 75.984375 
L 18.109375 31.109375 
L 44.921875 54.6875 
L 56.390625 54.6875 
L 27.390625 29.109375 
L 57.625 0 
L 45.90625 0 
L 18.109375 26.703125 
L 18.109375 0 
L 9.078125 0 
z
" id="DejaVuSans-107"/>
      </defs>
      <use xlink:href="#DejaVuSans-1047"/>
      <use x="64.111328" xlink:href="#DejaVuSans-1040"/>
      <use x="132.519531" xlink:href="#DejaVuSans-32"/>
      <use x="164.306641" xlink:href="#DejaVuSans-1055"/>
      <use x="239.501953" xlink:href="#DejaVuSans-1056"/>
      <use x="299.804688" xlink:href="#DejaVuSans-1040"/>
      <use x="368.212891" xlink:href="#DejaVuSans-1042"/>
      <use x="436.816406" xlink:href="#DejaVuSans-1044"/>
      <use x="514.941406" xlink:href="#DejaVuSans-1059"/>
      <use x="575.878906" xlink:href="#DejaVuSans-32"/>
      <use x="607.666016" xlink:href="#DejaVuSans-1063"/>
      <use x="676.220703" xlink:href="#DejaVuSans-1077"/>
      <use x="737.744141" xlink:href="#DejaVuSans-1083"/>
      <use x="801.660156" xlink:href="#DejaVuSans-1103"/>
      <use x="861.816406" xlink:href="#DejaVuSans-1073"/>
      <use x="923.486328" xlink:href="#DejaVuSans-1080"/>
      <use x="988.476562" xlink:href="#DejaVuSans-1085"/>
      <use x="1053.857422" xlink:href="#DejaVuSans-1089"/>
      <use x="1108.837891" xlink:href="#DejaVuSans-1082"/>
      <use x="1169.238281" xlink:href="#DejaVuSans-1072"/>
      <use x="1230.517578" xlink:href="#DejaVuSans-1103"/>
      <use x="1290.673828" xlink:href="#DejaVuSans-32"/>
      <use x="1322.460938" xlink:href="#DejaVuSans-1086"/>
      <use x="1383.642578" xlink:href="#DejaVuSans-1073"/>
      <use x="1445.3125" xlink:href="#DejaVuSans-1083"/>
      <use x="1509.228516" xlink:href="#DejaVuSans-1072"/>
      <use x="1570.507812" xlink:href="#DejaVuSans-1089"/>
      <use x="1625.488281" xlink:href="#DejaVuSans-1090"/>
      <use x="1683.740234" xlink:href="#DejaVuSans-1100"/>
      <use x="1742.675781" xlink:href="#DejaVuSans-32"/>
      <use x="1774.462891" xlink:href="#DejaVuSans-40"/>
      <use x="1813.476562" xlink:href="#DejaVuSans-122"/>
      <use x="1865.966797" xlink:href="#DejaVuSans-97"/>
      <use x="1927.246094" xlink:href="#DejaVuSans-112"/>
      <use x="1990.722656" xlink:href="#DejaVuSans-114"/>
      <use x="2031.835938" xlink:href="#DejaVuSans-97"/>
      <use x="2093.115234" xlink:href="#DejaVuSans-118"/>
      <use x="2152.294922" xlink:href="#DejaVuSans-100"/>
      <use x="2215.771484" xlink:href="#DejaVuSans-117"/>
      <use x="2279.150391" xlink:href="#DejaVuSans-95"/>
      <use x="2329.150391" xlink:href="#DejaVuSans-99"/>
      <use x="2384.130859" xlink:href="#DejaVuSans-104"/>
      <use x="2447.509766" xlink:href="#DejaVuSans-101"/>
      <use x="2509.033203" xlink:href="#DejaVuSans-108"/>
      <use x="2536.816406" xlink:href="#DejaVuSans-121"/>
      <use x="2595.996094" xlink:href="#DejaVuSans-97"/>
      <use x="2657.275391" xlink:href="#DejaVuSans-98"/>
      <use x="2720.751953" xlink:href="#DejaVuSans-105"/>
      <use x="2748.535156" xlink:href="#DejaVuSans-110"/>
      <use x="2811.914062" xlink:href="#DejaVuSans-115"/>
      <use x="2864.013672" xlink:href="#DejaVuSans-107"/>
      <use x="2921.923828" xlink:href="#DejaVuSans-41"/>
     </g>
    </g>
    <g id="patch_25">
     <path d="M 351 125.655156 
L 371 125.655156 
L 371 118.655156 
L 351 118.655156 
z
" style="fill:#9467bd;"/>
    </g>
    <g id="text_15">
     <!-- ЗА ПРАВДУ Калининград (zapravdu_kaliningrad) -->
     <g transform="translate(379 125.655156)scale(0.1 -0.1)">
      <defs>
       <path d="M 9.8125 72.90625 
L 19.671875 72.90625 
L 19.671875 36.859375 
L 54.9375 72.90625 
L 67.578125 72.90625 
L 39.40625 44.09375 
L 69.046875 0 
L 58.296875 0 
L 33.015625 37.546875 
L 19.671875 23.921875 
L 19.671875 0 
L 9.8125 0 
z
" id="DejaVuSans-1050"/>
      </defs>
      <use xlink:href="#DejaVuSans-1047"/>
      <use x="64.111328" xlink:href="#DejaVuSans-1040"/>
      <use x="132.519531" xlink:href="#DejaVuSans-32"/>
      <use x="164.306641" xlink:href="#DejaVuSans-1055"/>
      <use x="239.501953" xlink:href="#DejaVuSans-1056"/>
      <use x="299.804688" xlink:href="#DejaVuSans-1040"/>
      <use x="368.212891" xlink:href="#DejaVuSans-1042"/>
      <use x="436.816406" xlink:href="#DejaVuSans-1044"/>
      <use x="514.941406" xlink:href="#DejaVuSans-1059"/>
      <use x="575.878906" xlink:href="#DejaVuSans-32"/>
      <use x="607.666016" xlink:href="#DejaVuSans-1050"/>
      <use x="678.662109" xlink:href="#DejaVuSans-1072"/>
      <use x="739.941406" xlink:href="#DejaVuSans-1083"/>
      <use x="803.857422" xlink:href="#DejaVuSans-1080"/>
      <use x="868.847656" xlink:href="#DejaVuSans-1085"/>
      <use x="934.228516" xlink:href="#DejaVuSans-1080"/>
      <use x="999.21875" xlink:href="#DejaVuSans-1085"/>
      <use x="1064.599609" xlink:href="#DejaVuSans-1075"/>
      <use x="1117.138672" xlink:href="#DejaVuSans-1088"/>
      <use x="1180.615234" xlink:href="#DejaVuSans-1072"/>
      <use x="1241.894531" xlink:href="#DejaVuSans-1076"/>
      <use x="1311.035156" xlink:href="#DejaVuSans-32"/>
      <use x="1342.822266" xlink:href="#DejaVuSans-40"/>
      <use x="1381.835938" xlink:href="#DejaVuSans-122"/>
      <use x="1434.326172" xlink:href="#DejaVuSans-97"/>
      <use x="1495.605469" xlink:href="#DejaVuSans-112"/>
      <use x="1559.082031" xlink:href="#DejaVuSans-114"/>
      <use x="1600.195312" xlink:href="#DejaVuSans-97"/>
      <use x="1661.474609" xlink:href="#DejaVuSans-118"/>
      <use x="1720.654297" xlink:href="#DejaVuSans-100"/>
      <use x="1784.130859" xlink:href="#DejaVuSans-117"/>
      <use x="1847.509766" xlink:href="#DejaVuSans-95"/>
      <use x="1897.509766" xlink:href="#DejaVuSans-107"/>
      <use x="1953.669922" xlink:href="#DejaVuSans-97"/>
      <use x="2014.949219" xlink:href="#DejaVuSans-108"/>
      <use x="2042.732422" xlink:href="#DejaVuSans-105"/>
      <use x="2070.515625" xlink:href="#DejaVuSans-110"/>
      <use x="2133.894531" xlink:href="#DejaVuSans-105"/>
      <use x="2161.677734" xlink:href="#DejaVuSans-110"/>
      <use x="2225.056641" xlink:href="#DejaVuSans-103"/>
      <use x="2288.533203" xlink:href="#DejaVuSans-114"/>
      <use x="2329.646484" xlink:href="#DejaVuSans-97"/>
      <use x="2390.925781" xlink:href="#DejaVuSans-100"/>
      <use x="2454.402344" xlink:href="#DejaVuSans-41"/>
     </g>
    </g>
    <g id="patch_26">
     <path d="M 351 140.781719 
L 371 140.781719 
L 371 133.781719 
L 351 133.781719 
z
" style="fill:#8c564b;"/>
    </g>
    <g id="text_16">
     <!-- ЗА ПРАВДУ Калужская область (zapravdu_kaluga) -->
     <g transform="translate(379 140.781719)scale(0.1 -0.1)">
      <defs>
       <path d="M 32.171875 -5.078125 
Q 28.375 -14.84375 24.75 -17.8125 
Q 21.140625 -20.796875 15.09375 -20.796875 
L 7.90625 -20.796875 
L 7.90625 -13.28125 
L 13.1875 -13.28125 
Q 16.890625 -13.28125 18.9375 -11.515625 
Q 21 -9.765625 23.484375 -3.21875 
L 25.09375 0.875 
L 2.984375 54.6875 
L 12.5 54.6875 
L 29.59375 11.921875 
L 46.6875 54.6875 
L 56.203125 54.6875 
z
" id="DejaVuSans-1091"/>
      </defs>
      <use xlink:href="#DejaVuSans-1047"/>
      <use x="64.111328" xlink:href="#DejaVuSans-1040"/>
      <use x="132.519531" xlink:href="#DejaVuSans-32"/>
      <use x="164.306641" xlink:href="#DejaVuSans-1055"/>
      <use x="239.501953" xlink:href="#DejaVuSans-1056"/>
      <use x="299.804688" xlink:href="#DejaVuSans-1040"/>
      <use x="368.212891" xlink:href="#DejaVuSans-1042"/>
      <use x="436.816406" xlink:href="#DejaVuSans-1044"/>
      <use x="514.941406" xlink:href="#DejaVuSans-1059"/>
      <use x="575.878906" xlink:href="#DejaVuSans-32"/>
      <use x="607.666016" xlink:href="#DejaVuSans-1050"/>
      <use x="678.662109" xlink:href="#DejaVuSans-1072"/>
      <use x="739.941406" xlink:href="#DejaVuSans-1083"/>
      <use x="803.857422" xlink:href="#DejaVuSans-1091"/>
      <use x="863.037109" xlink:href="#DejaVuSans-1078"/>
      <use x="953.125" xlink:href="#DejaVuSans-1089"/>
      <use x="1008.105469" xlink:href="#DejaVuSans-1082"/>
      <use x="1068.505859" xlink:href="#DejaVuSans-1072"/>
      <use x="1129.785156" xlink:href="#DejaVuSans-1103"/>
      <use x="1189.941406" xlink:href="#DejaVuSans-32"/>
      <use x="1221.728516" xlink:href="#DejaVuSans-1086"/>
      <use x="1282.910156" xlink:href="#DejaVuSans-1073"/>
      <use x="1344.580078" xlink:href="#DejaVuSans-1083"/>
      <use x="1408.496094" xlink:href="#DejaVuSans-1072"/>
      <use x="1469.775391" xlink:href="#DejaVuSans-1089"/>
      <use x="1524.755859" xlink:href="#DejaVuSans-1090"/>
      <use x="1583.007812" xlink:href="#DejaVuSans-1100"/>
      <use x="1641.943359" xlink:href="#DejaVuSans-32"/>
      <use x="1673.730469" xlink:href="#DejaVuSans-40"/>
      <use x="1712.744141" xlink:href="#DejaVuSans-122"/>
      <use x="1765.234375" xlink:href="#DejaVuSans-97"/>
      <use x="1826.513672" xlink:href="#DejaVuSans-112"/>
      <use x="1889.990234" xlink:href="#DejaVuSans-114"/>
      <use x="1931.103516" xlink:href="#DejaVuSans-97"/>
      <use x="1992.382812" xlink:href="#DejaVuSans-118"/>
      <use x="2051.5625" xlink:href="#DejaVuSans-100"/>
      <use x="2115.039062" xlink:href="#DejaVuSans-117"/>
      <use x="2178.417969" xlink:href="#DejaVuSans-95"/>
      <use x="2228.417969" xlink:href="#DejaVuSans-107"/>
      <use x="2284.578125" xlink:href="#DejaVuSans-97"/>
      <use x="2345.857422" xlink:href="#DejaVuSans-108"/>
      <use x="2373.640625" xlink:href="#DejaVuSans-117"/>
      <use x="2437.019531" xlink:href="#DejaVuSans-103"/>
      <use x="2500.496094" xlink:href="#DejaVuSans-97"/>
      <use x="2561.775391" xlink:href="#DejaVuSans-41"/>
     </g>
    </g>
    <g id="patch_27">
     <path d="M 351 155.737969 
L 371 155.737969 
L 371 148.737969 
L 351 148.737969 
z
" style="fill:#e377c2;"/>
    </g>
    <g id="text_17">
     <!-- ЗА ПРАВДУ Ставропольский край (zapravdu_stavropol) -->
     <g transform="translate(379 155.737969)scale(0.1 -0.1)">
      <defs>
       <path d="M 64.40625 67.28125 
L 64.40625 56.890625 
Q 59.421875 61.53125 53.78125 63.8125 
Q 48.140625 66.109375 41.796875 66.109375 
Q 29.296875 66.109375 22.65625 58.46875 
Q 16.015625 50.828125 16.015625 36.375 
Q 16.015625 21.96875 22.65625 14.328125 
Q 29.296875 6.6875 41.796875 6.6875 
Q 48.140625 6.6875 53.78125 8.984375 
Q 59.421875 11.28125 64.40625 15.921875 
L 64.40625 5.609375 
Q 59.234375 2.09375 53.4375 0.328125 
Q 47.65625 -1.421875 41.21875 -1.421875 
Q 24.65625 -1.421875 15.125 8.703125 
Q 5.609375 18.84375 5.609375 36.375 
Q 5.609375 53.953125 15.125 64.078125 
Q 24.65625 74.21875 41.21875 74.21875 
Q 47.75 74.21875 53.53125 72.484375 
Q 59.328125 70.75 64.40625 67.28125 
z
" id="DejaVuSans-1057"/>
       <path d="M 55.90625 54.6875 
L 55.90625 0 
L 46.96875 0 
L 46.96875 43.890625 
L 20.609375 0 
L 9.078125 0 
L 9.078125 54.6875 
L 18.015625 54.6875 
L 18.015625 10.890625 
L 44.34375 54.6875 
z
M 17.21875 75.515625 
L 22.984375 75.515625 
Q 23.515625 71.859375 25.875 70.015625 
Q 28.25 68.1875 32.5 68.1875 
Q 36.703125 68.1875 39.046875 70 
Q 41.390625 71.8125 42.015625 75.515625 
L 47.78125 75.515625 
Q 47.296875 68.53125 43.4375 65.015625 
Q 39.578125 61.5 32.5 61.5 
Q 25.421875 61.5 21.5625 65.015625 
Q 17.703125 68.53125 17.21875 75.515625 
z
" id="DejaVuSans-1081"/>
       <path d="M 18.3125 70.21875 
L 18.3125 54.6875 
L 36.8125 54.6875 
L 36.8125 47.703125 
L 18.3125 47.703125 
L 18.3125 18.015625 
Q 18.3125 11.328125 20.140625 9.421875 
Q 21.96875 7.515625 27.59375 7.515625 
L 36.8125 7.515625 
L 36.8125 0 
L 27.59375 0 
Q 17.1875 0 13.234375 3.875 
Q 9.28125 7.765625 9.28125 18.015625 
L 9.28125 47.703125 
L 2.6875 47.703125 
L 2.6875 54.6875 
L 9.28125 54.6875 
L 9.28125 70.21875 
z
" id="DejaVuSans-116"/>
      </defs>
      <use xlink:href="#DejaVuSans-1047"/>
      <use x="64.111328" xlink:href="#DejaVuSans-1040"/>
      <use x="132.519531" xlink:href="#DejaVuSans-32"/>
      <use x="164.306641" xlink:href="#DejaVuSans-1055"/>
      <use x="239.501953" xlink:href="#DejaVuSans-1056"/>
      <use x="299.804688" xlink:href="#DejaVuSans-1040"/>
      <use x="368.212891" xlink:href="#DejaVuSans-1042"/>
      <use x="436.816406" xlink:href="#DejaVuSans-1044"/>
      <use x="514.941406" xlink:href="#DejaVuSans-1059"/>
      <use x="575.878906" xlink:href="#DejaVuSans-32"/>
      <use x="607.666016" xlink:href="#DejaVuSans-1057"/>
      <use x="677.490234" xlink:href="#DejaVuSans-1090"/>
      <use x="735.742188" xlink:href="#DejaVuSans-1072"/>
      <use x="797.021484" xlink:href="#DejaVuSans-1074"/>
      <use x="855.957031" xlink:href="#DejaVuSans-1088"/>
      <use x="919.433594" xlink:href="#DejaVuSans-1086"/>
      <use x="980.615234" xlink:href="#DejaVuSans-1087"/>
      <use x="1045.996094" xlink:href="#DejaVuSans-1086"/>
      <use x="1107.177734" xlink:href="#DejaVuSans-1083"/>
      <use x="1171.09375" xlink:href="#DejaVuSans-1100"/>
      <use x="1230.029297" xlink:href="#DejaVuSans-1089"/>
      <use x="1285.009766" xlink:href="#DejaVuSans-1082"/>
      <use x="1345.410156" xlink:href="#DejaVuSans-1080"/>
      <use x="1410.400391" xlink:href="#DejaVuSans-1081"/>
      <use x="1475.390625" xlink:href="#DejaVuSans-32"/>
      <use x="1507.177734" xlink:href="#DejaVuSans-1082"/>
      <use x="1567.578125" xlink:href="#DejaVuSans-1088"/>
      <use x="1631.054688" xlink:href="#DejaVuSans-1072"/>
      <use x="1692.333984" xlink:href="#DejaVuSans-1081"/>
      <use x="1757.324219" xlink:href="#DejaVuSans-32"/>
      <use x="1789.111328" xlink:href="#DejaVuSans-40"/>
      <use x="1828.125" xlink:href="#DejaVuSans-122"/>
      <use x="1880.615234" xlink:href="#DejaVuSans-97"/>
      <use x="1941.894531" xlink:href="#DejaVuSans-112"/>
      <use x="2005.371094" xlink:href="#DejaVuSans-114"/>
      <use x="2046.484375" xlink:href="#DejaVuSans-97"/>
      <use x="2107.763672" xlink:href="#DejaVuSans-118"/>
      <use x="2166.943359" xlink:href="#DejaVuSans-100"/>
      <use x="2230.419922" xlink:href="#DejaVuSans-117"/>
      <use x="2293.798828" xlink:href="#DejaVuSans-95"/>
      <use x="2343.798828" xlink:href="#DejaVuSans-115"/>
      <use x="2395.898438" xlink:href="#DejaVuSans-116"/>
      <use x="2435.107422" xlink:href="#DejaVuSans-97"/>
      <use x="2496.386719" xlink:href="#DejaVuSans-118"/>
      <use x="2555.566406" xlink:href="#DejaVuSans-114"/>
      <use x="2594.429688" xlink:href="#DejaVuSans-111"/>
      <use x="2655.611328" xlink:href="#DejaVuSans-112"/>
      <use x="2719.087891" xlink:href="#DejaVuSans-111"/>
      <use x="2780.269531" xlink:href="#DejaVuSans-108"/>
      <use x="2808.052734" xlink:href="#DejaVuSans-41"/>
     </g>
    </g>
    <g id="patch_28">
     <path d="M 351 170.864531 
L 371 170.864531 
L 371 163.864531 
L 351 163.864531 
z
" style="fill:#7f7f7f;"/>
    </g>
    <g id="text_18">
     <!-- Екатеринбург ЗА ПРАВДУ (zapravdu_ekb) -->
     <g transform="translate(379 170.864531)scale(0.1 -0.1)">
      <defs>
       <path d="M 9.8125 72.90625 
L 55.90625 72.90625 
L 55.90625 64.59375 
L 19.671875 64.59375 
L 19.671875 43.015625 
L 54.390625 43.015625 
L 54.390625 34.71875 
L 19.671875 34.71875 
L 19.671875 8.296875 
L 56.78125 8.296875 
L 56.78125 0 
L 9.8125 0 
z
" id="DejaVuSans-1045"/>
      </defs>
      <use xlink:href="#DejaVuSans-1045"/>
      <use x="63.183594" xlink:href="#DejaVuSans-1082"/>
      <use x="123.583984" xlink:href="#DejaVuSans-1072"/>
      <use x="184.863281" xlink:href="#DejaVuSans-1090"/>
      <use x="243.115234" xlink:href="#DejaVuSans-1077"/>
      <use x="304.638672" xlink:href="#DejaVuSans-1088"/>
      <use x="368.115234" xlink:href="#DejaVuSans-1080"/>
      <use x="433.105469" xlink:href="#DejaVuSans-1085"/>
      <use x="498.486328" xlink:href="#DejaVuSans-1073"/>
      <use x="560.15625" xlink:href="#DejaVuSans-1091"/>
      <use x="619.335938" xlink:href="#DejaVuSans-1088"/>
      <use x="682.8125" xlink:href="#DejaVuSans-1075"/>
      <use x="735.351562" xlink:href="#DejaVuSans-32"/>
      <use x="767.138672" xlink:href="#DejaVuSans-1047"/>
      <use x="831.25" xlink:href="#DejaVuSans-1040"/>
      <use x="899.658203" xlink:href="#DejaVuSans-32"/>
      <use x="931.445312" xlink:href="#DejaVuSans-1055"/>
      <use x="1006.640625" xlink:href="#DejaVuSans-1056"/>
      <use x="1066.943359" xlink:href="#DejaVuSans-1040"/>
      <use x="1135.351562" xlink:href="#DejaVuSans-1042"/>
      <use x="1203.955078" xlink:href="#DejaVuSans-1044"/>
      <use x="1282.080078" xlink:href="#DejaVuSans-1059"/>
      <use x="1343.017578" xlink:href="#DejaVuSans-32"/>
      <use x="1374.804688" xlink:href="#DejaVuSans-40"/>
      <use x="1413.818359" xlink:href="#DejaVuSans-122"/>
      <use x="1466.308594" xlink:href="#DejaVuSans-97"/>
      <use x="1527.587891" xlink:href="#DejaVuSans-112"/>
      <use x="1591.064453" xlink:href="#DejaVuSans-114"/>
      <use x="1632.177734" xlink:href="#DejaVuSans-97"/>
      <use x="1693.457031" xlink:href="#DejaVuSans-118"/>
      <use x="1752.636719" xlink:href="#DejaVuSans-100"/>
      <use x="1816.113281" xlink:href="#DejaVuSans-117"/>
      <use x="1879.492188" xlink:href="#DejaVuSans-95"/>
      <use x="1929.492188" xlink:href="#DejaVuSans-101"/>
      <use x="1991.015625" xlink:href="#DejaVuSans-107"/>
      <use x="2048.925781" xlink:href="#DejaVuSans-98"/>
      <use x="2112.402344" xlink:href="#DejaVuSans-41"/>
     </g>
    </g>
    <g id="patch_29">
     <path d="M 351 185.820781 
L 371 185.820781 
L 371 178.820781 
L 351 178.820781 
z
" style="fill:#bcbd22;"/>
    </g>
    <g id="text_19">
     <!-- ДРУГАЯ РОССИЯ Э.В.ЛИМОНОВА (drugoross) -->
     <g transform="translate(379 185.820781)scale(0.1 -0.1)">
      <defs>
       <path d="M 9.8125 0 
L 9.8125 72.90625 
L 55.171875 72.90625 
L 55.171875 64.59375 
L 19.671875 64.59375 
L 19.671875 0 
z
" id="DejaVuSans-1043"/>
       <path d="M 20.0625 51.90625 
Q 20.0625 45.515625 23.703125 42.21875 
Q 27.34375 38.921875 34.46875 38.921875 
L 49.8125 38.921875 
L 49.8125 64.796875 
L 34.46875 64.796875 
Q 27.34375 64.796875 23.703125 61.546875 
Q 20.0625 58.296875 20.0625 51.90625 
z
M 6.640625 0 
L 26.5625 31.890625 
Q 21.6875 33.15625 15.4375 37.28125 
Q 9.1875 41.40625 9.1875 51.90625 
Q 9.1875 61.96875 15.53125 67.4375 
Q 21.875 72.90625 34.46875 72.90625 
L 59.671875 72.90625 
L 59.671875 0 
L 49.8125 0 
L 49.8125 30.8125 
L 36.625 30.8125 
L 17.390625 0 
z
" id="DejaVuSans-1071"/>
       <path d="M 39.40625 66.21875 
Q 28.65625 66.21875 22.328125 58.203125 
Q 16.015625 50.203125 16.015625 36.375 
Q 16.015625 22.609375 22.328125 14.59375 
Q 28.65625 6.59375 39.40625 6.59375 
Q 50.140625 6.59375 56.421875 14.59375 
Q 62.703125 22.609375 62.703125 36.375 
Q 62.703125 50.203125 56.421875 58.203125 
Q 50.140625 66.21875 39.40625 66.21875 
z
M 39.40625 74.21875 
Q 54.734375 74.21875 63.90625 63.9375 
Q 73.09375 53.65625 73.09375 36.375 
Q 73.09375 19.140625 63.90625 8.859375 
Q 54.734375 -1.421875 39.40625 -1.421875 
Q 24.03125 -1.421875 14.8125 8.828125 
Q 5.609375 19.09375 5.609375 36.375 
Q 5.609375 53.65625 14.8125 63.9375 
Q 24.03125 74.21875 39.40625 74.21875 
z
" id="DejaVuSans-1054"/>
       <path d="M 64.984375 72.90625 
L 64.984375 0 
L 55.421875 0 
L 55.421875 60.984375 
L 23.09375 0 
L 9.8125 0 
L 9.8125 72.90625 
L 19.390625 72.90625 
L 19.390625 11.921875 
L 51.703125 72.90625 
z
" id="DejaVuSans-1048"/>
       <path d="M 5.421875 15.921875 
Q 15.71875 6.6875 28.21875 6.6875 
Q 41.109375 6.6875 46.921875 13.625 
Q 52.734375 20.5625 53.8125 32.234375 
L 14.84375 32.234375 
L 14.84375 40.53125 
L 53.8125 40.53125 
Q 52.734375 52.203125 46.921875 59.15625 
Q 41.109375 66.109375 28.21875 66.109375 
Q 15.71875 66.109375 5.421875 56.890625 
L 5.421875 67.28125 
Q 15.578125 74.21875 28.8125 74.21875 
Q 45.171875 74.21875 54.6875 64.078125 
Q 64.203125 53.953125 64.203125 36.421875 
Q 64.203125 18.84375 54.6875 8.703125 
Q 45.171875 -1.421875 28.8125 -1.421875 
Q 15.765625 -1.421875 5.421875 5.609375 
z
" id="DejaVuSans-1069"/>
       <path d="M 4.109375 0 
L 4.109375 8.296875 
Q 14.703125 10.59375 17.71875 18.609375 
Q 21.96875 31.203125 21.96875 60.5 
L 21.96875 72.90625 
L 65.328125 72.90625 
L 65.328125 0 
L 55.46875 0 
L 55.46875 64.59375 
L 31.78125 64.59375 
L 31.78125 55.609375 
Q 31.78125 27.984375 26.8125 15.09375 
Q 22.015625 2.734375 4.109375 0 
z
" id="DejaVuSans-1051"/>
       <path d="M 9.8125 72.90625 
L 24.515625 72.90625 
L 43.109375 23.296875 
L 61.8125 72.90625 
L 76.515625 72.90625 
L 76.515625 0 
L 66.890625 0 
L 66.890625 64.015625 
L 48.09375 14.015625 
L 38.1875 14.015625 
L 19.390625 64.015625 
L 19.390625 0 
L 9.8125 0 
z
" id="DejaVuSans-1052"/>
      </defs>
      <use xlink:href="#DejaVuSans-1044"/>
      <use x="78.125" xlink:href="#DejaVuSans-1056"/>
      <use x="138.427734" xlink:href="#DejaVuSans-1059"/>
      <use x="199.365234" xlink:href="#DejaVuSans-1043"/>
      <use x="260.351562" xlink:href="#DejaVuSans-1040"/>
      <use x="328.759766" xlink:href="#DejaVuSans-1071"/>
      <use x="398.242188" xlink:href="#DejaVuSans-32"/>
      <use x="430.029297" xlink:href="#DejaVuSans-1056"/>
      <use x="490.332031" xlink:href="#DejaVuSans-1054"/>
      <use x="569.042969" xlink:href="#DejaVuSans-1057"/>
      <use x="638.867188" xlink:href="#DejaVuSans-1057"/>
      <use x="708.691406" xlink:href="#DejaVuSans-1048"/>
      <use x="783.496094" xlink:href="#DejaVuSans-1071"/>
      <use x="852.978516" xlink:href="#DejaVuSans-32"/>
      <use x="884.765625" xlink:href="#DejaVuSans-1069"/>
      <use x="954.589844" xlink:href="#DejaVuSans-46"/>
      <use x="986.376953" xlink:href="#DejaVuSans-1042"/>
      <use x="1054.980469" xlink:href="#DejaVuSans-46"/>
      <use x="1086.767578" xlink:href="#DejaVuSans-1051"/>
      <use x="1161.962891" xlink:href="#DejaVuSans-1048"/>
      <use x="1236.767578" xlink:href="#DejaVuSans-1052"/>
      <use x="1323.046875" xlink:href="#DejaVuSans-1054"/>
      <use x="1401.757812" xlink:href="#DejaVuSans-1053"/>
      <use x="1476.953125" xlink:href="#DejaVuSans-1054"/>
      <use x="1555.664062" xlink:href="#DejaVuSans-1042"/>
      <use x="1624.267578" xlink:href="#DejaVuSans-1040"/>
      <use x="1692.675781" xlink:href="#DejaVuSans-32"/>
      <use x="1724.462891" xlink:href="#DejaVuSans-40"/>
      <use x="1763.476562" xlink:href="#DejaVuSans-100"/>
      <use x="1826.953125" xlink:href="#DejaVuSans-114"/>
      <use x="1868.066406" xlink:href="#DejaVuSans-117"/>
      <use x="1931.445312" xlink:href="#DejaVuSans-103"/>
      <use x="1994.921875" xlink:href="#DejaVuSans-111"/>
      <use x="2056.103516" xlink:href="#DejaVuSans-114"/>
      <use x="2094.966797" xlink:href="#DejaVuSans-111"/>
      <use x="2156.148438" xlink:href="#DejaVuSans-115"/>
      <use x="2208.248047" xlink:href="#DejaVuSans-115"/>
      <use x="2260.347656" xlink:href="#DejaVuSans-41"/>
     </g>
    </g>
   </g>
  </g>
 </g>
</svg>
