<?xml version="1.0" encoding="utf-8" standalone="no"?>
<!DOCTYPE svg PUBLIC "-//W3C//DTD SVG 1.1//EN"
  "http://www.w3.org/Graphics/SVG/1.1/DTD/svg11.dtd">
<!-- Created with matplotlib (https://matplotlib.org/) -->
<svg height="231.84pt" version="1.1" viewBox="0 0 757.545312 231.84" width="757.545312pt" xmlns="http://www.w3.org/2000/svg" xmlns:xlink="http://www.w3.org/1999/xlink">
 <metadata>
  <rdf:RDF xmlns:cc="http://creativecommons.org/ns#" xmlns:dc="http://purl.org/dc/elements/1.1/" xmlns:rdf="http://www.w3.org/1999/02/22-rdf-syntax-ns#">
   <cc:Work>
    <dc:type rdf:resource="http://purl.org/dc/dcmitype/StillImage"/>
    <dc:date>2020-12-02T00:40:18.736885</dc:date>
    <dc:format>image/svg+xml</dc:format>
    <dc:creator>
     <cc:Agent>
      <dc:title>Matplotlib v3.3.3, https://matplotlib.org/</dc:title>
     </cc:Agent>
    </dc:creator>
   </cc:Work>
  </rdf:RDF>
 </metadata>
 <defs>
  <style type="text/css">*{stroke-linecap:butt;stroke-linejoin:round;}</style>
 </defs>
 <g id="figure_1">
  <g id="patch_1">
   <path d="M 0 231.84 
L 757.545312 231.84 
L 757.545312 0 
L 0 0 
z
" style="fill:none;"/>
  </g>
  <g id="axes_1">
   <g id="patch_2">
    <path d="M 269.574209 110.977442 
C 269.574209 87.6077 260.474906 65.132247 244.216984 48.344608 
C 227.959063 31.55697 205.786804 21.741969 182.429069 20.992932 
L 179.543443 110.977442 
L 269.574209 110.977442 
z
" style="fill:#092436;opacity:0.5;stroke:#092436;stroke-linejoin:miter;"/>
   </g>
   <g id="patch_3">
    <path d="M 171.543747 19.411667 
C 155.096998 18.884252 138.816167 22.87583 124.478441 30.950688 
C 110.140714 39.025545 98.287484 50.878776 90.212628 65.216504 
L 168.658121 109.396176 
L 171.543747 19.411667 
z
" style="fill:#4c2604;opacity:0.5;stroke:#4c2604;stroke-linejoin:miter;"/>
   </g>
   <g id="patch_4">
    <path d="M 85.793544 71.340037 
C 81.062557 79.740385 77.711464 88.846387 75.868512 98.309558 
C 74.025561 107.772729 73.714564 117.47079 74.947423 127.032596 
L 164.239036 115.51971 
L 85.793544 71.340037 
z
" style="fill:#0d300d;opacity:0.5;stroke:#0d300d;stroke-linejoin:miter;"/>
   </g>
   <g id="patch_5">
    <path d="M 75.551948 132.397907 
C 76.661073 141.000053 79.007466 149.396958 82.518296 157.327982 
C 86.029126 165.259007 90.667689 172.641235 96.290004 179.245526 
L 164.843562 120.885021 
L 75.551948 132.397907 
z
" style="fill:#400c0c;opacity:0.5;stroke:#400c0c;stroke-linejoin:miter;"/>
   </g>
   <g id="patch_6">
    <path d="M 99.371721 182.985304 
C 104.367525 188.853658 110.096234 194.056319 116.417184 198.465539 
C 122.738134 202.87476 129.599163 206.454154 136.831805 209.115832 
L 167.925279 124.624799 
L 99.371721 182.985304 
z
" style="fill:#2c1f39;opacity:0.5;stroke:#2c1f39;stroke-linejoin:miter;"/>
   </g>
   <g id="patch_7">
    <path d="M 141.118113 210.693232 
C 148.350754 213.354911 155.895322 215.076909 163.566566 215.816944 
C 171.23781 216.556979 178.972425 216.308944 186.580493 215.07893 
L 172.211587 126.202199 
L 141.118113 210.693232 
z
" style="fill:#2a1a16;opacity:0.5;stroke:#2a1a16;stroke-linejoin:miter;"/>
   </g>
   <g id="patch_8">
    <path d="M 191.089291 214.349983 
C 198.697359 213.119969 206.116097 210.918126 213.163344 207.798518 
C 220.21059 204.678911 226.82819 200.667282 232.853653 195.862136 
L 176.720384 125.473252 
L 191.089291 214.349983 
z
" style="fill:#44243a;opacity:0.5;stroke:#44243a;stroke-linejoin:miter;"/>
   </g>
   <g id="patch_9">
    <path d="M 236.248246 193.242935 
C 241.518839 189.039776 246.30071 184.257905 250.503868 178.987311 
C 254.707026 173.716717 258.304939 167.99067 261.229898 161.91693 
L 180.114978 122.854051 
L 236.248246 193.242935 
z
" style="fill:#262626;opacity:0.5;stroke:#262626;stroke-linejoin:miter;"/>
   </g>
   <g id="patch_10">
    <path d="M 262.968359 158.306977 
C 265.893318 152.233236 268.126858 145.850143 269.626948 139.27782 
C 271.127037 132.705497 271.884206 125.985432 271.884205 119.244089 
L 181.853439 119.244097 
L 262.968359 158.306977 
z
" style="fill:#38390a;opacity:0.5;stroke:#38390a;stroke-linejoin:miter;"/>
   </g>
   <g id="patch_11">
    <path d="M 271.374824 109.176826 
C 271.374824 85.807085 262.275521 63.331631 246.0176 46.543993 
C 229.759678 29.756355 207.587419 19.941354 184.229685 19.192317 
L 181.344058 109.176826 
L 271.374824 109.176826 
z
" style="fill:#1f77b4;"/>
   </g>
   <g id="patch_12">
    <path d="M 173.344363 17.611051 
C 156.897613 17.083636 140.616783 21.075214 126.279056 29.150072 
C 111.94133 37.22493 100.0881 49.078161 92.013243 63.415888 
L 170.458736 107.595561 
L 173.344363 17.611051 
z
" style="fill:#ff7f0e;"/>
   </g>
   <g id="patch_13">
    <path d="M 87.594159 69.539422 
C 82.863172 77.939769 79.512079 87.045772 77.669128 96.508943 
C 75.826176 105.972114 75.515179 115.670174 76.748038 125.23198 
L 166.039652 113.719095 
L 87.594159 69.539422 
z
" style="fill:#2ca02c;"/>
   </g>
   <g id="patch_14">
    <path d="M 77.352564 130.597292 
C 78.461688 139.199438 80.808081 147.596342 84.318912 155.527367 
C 87.829742 163.458392 92.468304 170.84062 98.09062 177.44491 
L 166.644177 119.084406 
L 77.352564 130.597292 
z
" style="fill:#d62728;"/>
   </g>
   <g id="patch_15">
    <path d="M 101.172337 181.184688 
C 106.16814 187.053043 111.896849 192.255704 118.217799 196.664924 
C 124.538749 201.074144 131.399779 204.653538 138.63242 207.315217 
L 169.725894 122.824184 
L 101.172337 181.184688 
z
" style="fill:#9467bd;"/>
   </g>
   <g id="patch_16">
    <path d="M 142.918728 208.892617 
C 150.151369 211.554295 157.695938 213.276293 165.367182 214.016328 
C 173.038425 214.756364 180.77304 214.508329 188.381108 213.278315 
L 174.012202 124.401584 
L 142.918728 208.892617 
z
" style="fill:#8c564b;"/>
   </g>
   <g id="patch_17">
    <path d="M 192.889906 212.549367 
C 200.497974 211.319353 207.916712 209.11751 214.963959 205.997903 
C 222.011206 202.878295 228.628805 198.866667 234.654268 194.06152 
L 178.521 123.672636 
L 192.889906 212.549367 
z
" style="fill:#e377c2;"/>
   </g>
   <g id="patch_18">
    <path d="M 238.048861 191.44232 
C 243.319455 187.239161 248.101326 182.45729 252.304484 177.186696 
C 256.507642 171.916101 260.105554 166.190055 263.030513 160.116315 
L 181.915593 121.053436 
L 238.048861 191.44232 
z
" style="fill:#7f7f7f;"/>
   </g>
   <g id="patch_19">
    <path d="M 264.768975 156.506361 
C 267.693933 150.432621 269.927474 144.049528 271.427563 137.477205 
C 272.927652 130.904881 273.684821 124.184816 273.68482 117.443474 
L 183.654055 117.443482 
L 264.768975 156.506361 
z
" style="fill:#bcbd22;"/>
   </g>
   <g id="matplotlib.axis_1"/>
   <g id="matplotlib.axis_2"/>
   <g id="text_1">
    <!-- 24.5% -->
    <g style="fill:#ffffff;" transform="translate(204.264589 74.356501)scale(0.1 -0.1)">
     <defs>
      <path d="M 19.1875 8.296875 
L 53.609375 8.296875 
L 53.609375 0 
L 7.328125 0 
L 7.328125 8.296875 
Q 12.9375 14.109375 22.625 23.890625 
Q 32.328125 33.6875 34.8125 36.53125 
Q 39.546875 41.84375 41.421875 45.53125 
Q 43.3125 49.21875 43.3125 52.78125 
Q 43.3125 58.59375 39.234375 62.25 
Q 35.15625 65.921875 28.609375 65.921875 
Q 23.96875 65.921875 18.8125 64.3125 
Q 13.671875 62.703125 7.8125 59.421875 
L 7.8125 69.390625 
Q 13.765625 71.78125 18.9375 73 
Q 24.125 74.21875 28.421875 74.21875 
Q 39.75 74.21875 46.484375 68.546875 
Q 53.21875 62.890625 53.21875 53.421875 
Q 53.21875 48.921875 51.53125 44.890625 
Q 49.859375 40.875 45.40625 35.40625 
Q 44.1875 33.984375 37.640625 27.21875 
Q 31.109375 20.453125 19.1875 8.296875 
z
" id="DejaVuSans-50"/>
      <path d="M 37.796875 64.3125 
L 12.890625 25.390625 
L 37.796875 25.390625 
z
M 35.203125 72.90625 
L 47.609375 72.90625 
L 47.609375 25.390625 
L 58.015625 25.390625 
L 58.015625 17.1875 
L 47.609375 17.1875 
L 47.609375 0 
L 37.796875 0 
L 37.796875 17.1875 
L 4.890625 17.1875 
L 4.890625 26.703125 
z
" id="DejaVuSans-52"/>
      <path d="M 10.6875 12.40625 
L 21 12.40625 
L 21 0 
L 10.6875 0 
z
" id="DejaVuSans-46"/>
      <path d="M 10.796875 72.90625 
L 49.515625 72.90625 
L 49.515625 64.59375 
L 19.828125 64.59375 
L 19.828125 46.734375 
Q 21.96875 47.46875 24.109375 47.828125 
Q 26.265625 48.1875 28.421875 48.1875 
Q 40.625 48.1875 47.75 41.5 
Q 54.890625 34.8125 54.890625 23.390625 
Q 54.890625 11.625 47.5625 5.09375 
Q 40.234375 -1.421875 26.90625 -1.421875 
Q 22.3125 -1.421875 17.546875 -0.640625 
Q 12.796875 0.140625 7.71875 1.703125 
L 7.71875 11.625 
Q 12.109375 9.234375 16.796875 8.0625 
Q 21.484375 6.890625 26.703125 6.890625 
Q 35.15625 6.890625 40.078125 11.328125 
Q 45.015625 15.765625 45.015625 23.390625 
Q 45.015625 31 40.078125 35.4375 
Q 35.15625 39.890625 26.703125 39.890625 
Q 22.75 39.890625 18.8125 39.015625 
Q 14.890625 38.140625 10.796875 36.28125 
z
" id="DejaVuSans-53"/>
      <path d="M 72.703125 32.078125 
Q 68.453125 32.078125 66.03125 28.46875 
Q 63.625 24.859375 63.625 18.40625 
Q 63.625 12.0625 66.03125 8.421875 
Q 68.453125 4.78125 72.703125 4.78125 
Q 76.859375 4.78125 79.265625 8.421875 
Q 81.6875 12.0625 81.6875 18.40625 
Q 81.6875 24.8125 79.265625 28.4375 
Q 76.859375 32.078125 72.703125 32.078125 
z
M 72.703125 38.28125 
Q 80.421875 38.28125 84.953125 32.90625 
Q 89.5 27.546875 89.5 18.40625 
Q 89.5 9.28125 84.9375 3.921875 
Q 80.375 -1.421875 72.703125 -1.421875 
Q 64.890625 -1.421875 60.34375 3.921875 
Q 55.8125 9.28125 55.8125 18.40625 
Q 55.8125 27.59375 60.375 32.9375 
Q 64.9375 38.28125 72.703125 38.28125 
z
M 22.3125 68.015625 
Q 18.109375 68.015625 15.6875 64.375 
Q 13.28125 60.75 13.28125 54.390625 
Q 13.28125 47.953125 15.671875 44.328125 
Q 18.0625 40.71875 22.3125 40.71875 
Q 26.5625 40.71875 28.96875 44.328125 
Q 31.390625 47.953125 31.390625 54.390625 
Q 31.390625 60.6875 28.953125 64.34375 
Q 26.515625 68.015625 22.3125 68.015625 
z
M 66.40625 74.21875 
L 74.21875 74.21875 
L 28.609375 -1.421875 
L 20.796875 -1.421875 
z
M 22.3125 74.21875 
Q 30.03125 74.21875 34.609375 68.875 
Q 39.203125 63.53125 39.203125 54.390625 
Q 39.203125 45.171875 34.640625 39.84375 
Q 30.078125 34.515625 22.3125 34.515625 
Q 14.546875 34.515625 10.03125 39.859375 
Q 5.515625 45.21875 5.515625 54.390625 
Q 5.515625 63.484375 10.046875 68.84375 
Q 14.59375 74.21875 22.3125 74.21875 
z
" id="DejaVuSans-37"/>
     </defs>
     <use xlink:href="#DejaVuSans-50"/>
     <use x="63.623047" xlink:href="#DejaVuSans-52"/>
     <use x="127.246094" xlink:href="#DejaVuSans-46"/>
     <use x="159.033203" xlink:href="#DejaVuSans-53"/>
     <use x="222.65625" xlink:href="#DejaVuSans-37"/>
    </g>
   </g>
   <g id="text_2">
    <!-- 17.3% -->
    <g style="fill:#ffffff;" transform="translate(128.067334 63.287643)scale(0.1 -0.1)">
     <defs>
      <path d="M 12.40625 8.296875 
L 28.515625 8.296875 
L 28.515625 63.921875 
L 10.984375 60.40625 
L 10.984375 69.390625 
L 28.421875 72.90625 
L 38.28125 72.90625 
L 38.28125 8.296875 
L 54.390625 8.296875 
L 54.390625 0 
L 12.40625 0 
z
" id="DejaVuSans-49"/>
      <path d="M 8.203125 72.90625 
L 55.078125 72.90625 
L 55.078125 68.703125 
L 28.609375 0 
L 18.3125 0 
L 43.21875 64.59375 
L 8.203125 64.59375 
z
" id="DejaVuSans-55"/>
      <path d="M 40.578125 39.3125 
Q 47.65625 37.796875 51.625 33 
Q 55.609375 28.21875 55.609375 21.1875 
Q 55.609375 10.40625 48.1875 4.484375 
Q 40.765625 -1.421875 27.09375 -1.421875 
Q 22.515625 -1.421875 17.65625 -0.515625 
Q 12.796875 0.390625 7.625 2.203125 
L 7.625 11.71875 
Q 11.71875 9.328125 16.59375 8.109375 
Q 21.484375 6.890625 26.8125 6.890625 
Q 36.078125 6.890625 40.9375 10.546875 
Q 45.796875 14.203125 45.796875 21.1875 
Q 45.796875 27.640625 41.28125 31.265625 
Q 36.765625 34.90625 28.71875 34.90625 
L 20.21875 34.90625 
L 20.21875 43.015625 
L 29.109375 43.015625 
Q 36.375 43.015625 40.234375 45.921875 
Q 44.09375 48.828125 44.09375 54.296875 
Q 44.09375 59.90625 40.109375 62.90625 
Q 36.140625 65.921875 28.71875 65.921875 
Q 24.65625 65.921875 20.015625 65.03125 
Q 15.375 64.15625 9.8125 62.3125 
L 9.8125 71.09375 
Q 15.4375 72.65625 20.34375 73.4375 
Q 25.25 74.21875 29.59375 74.21875 
Q 40.828125 74.21875 47.359375 69.109375 
Q 53.90625 64.015625 53.90625 55.328125 
Q 53.90625 49.265625 50.4375 45.09375 
Q 46.96875 40.921875 40.578125 39.3125 
z
" id="DejaVuSans-51"/>
     </defs>
     <use xlink:href="#DejaVuSans-49"/>
     <use x="63.623047" xlink:href="#DejaVuSans-55"/>
     <use x="127.246094" xlink:href="#DejaVuSans-46"/>
     <use x="159.033203" xlink:href="#DejaVuSans-51"/>
     <use x="222.65625" xlink:href="#DejaVuSans-37"/>
    </g>
   </g>
   <g id="text_3">
    <!-- 10.2% -->
    <g style="fill:#ffffff;" transform="translate(97.133744 106.152378)scale(0.1 -0.1)">
     <defs>
      <path d="M 31.78125 66.40625 
Q 24.171875 66.40625 20.328125 58.90625 
Q 16.5 51.421875 16.5 36.375 
Q 16.5 21.390625 20.328125 13.890625 
Q 24.171875 6.390625 31.78125 6.390625 
Q 39.453125 6.390625 43.28125 13.890625 
Q 47.125 21.390625 47.125 36.375 
Q 47.125 51.421875 43.28125 58.90625 
Q 39.453125 66.40625 31.78125 66.40625 
z
M 31.78125 74.21875 
Q 44.046875 74.21875 50.515625 64.515625 
Q 56.984375 54.828125 56.984375 36.375 
Q 56.984375 17.96875 50.515625 8.265625 
Q 44.046875 -1.421875 31.78125 -1.421875 
Q 19.53125 -1.421875 13.0625 8.265625 
Q 6.59375 17.96875 6.59375 36.375 
Q 6.59375 54.828125 13.0625 64.515625 
Q 19.53125 74.21875 31.78125 74.21875 
z
" id="DejaVuSans-48"/>
     </defs>
     <use xlink:href="#DejaVuSans-49"/>
     <use x="63.623047" xlink:href="#DejaVuSans-48"/>
     <use x="127.246094" xlink:href="#DejaVuSans-46"/>
     <use x="159.033203" xlink:href="#DejaVuSans-50"/>
     <use x="222.65625" xlink:href="#DejaVuSans-37"/>
    </g>
   </g>
   <g id="text_4">
    <!-- 9.2% -->
    <g style="fill:#ffffff;" transform="translate(104.546674 143.709557)scale(0.1 -0.1)">
     <defs>
      <path d="M 10.984375 1.515625 
L 10.984375 10.5 
Q 14.703125 8.734375 18.5 7.8125 
Q 22.3125 6.890625 25.984375 6.890625 
Q 35.75 6.890625 40.890625 13.453125 
Q 46.046875 20.015625 46.78125 33.40625 
Q 43.953125 29.203125 39.59375 26.953125 
Q 35.25 24.703125 29.984375 24.703125 
Q 19.046875 24.703125 12.671875 31.3125 
Q 6.296875 37.9375 6.296875 49.421875 
Q 6.296875 60.640625 12.9375 67.421875 
Q 19.578125 74.21875 30.609375 74.21875 
Q 43.265625 74.21875 49.921875 64.515625 
Q 56.59375 54.828125 56.59375 36.375 
Q 56.59375 19.140625 48.40625 8.859375 
Q 40.234375 -1.421875 26.421875 -1.421875 
Q 22.703125 -1.421875 18.890625 -0.6875 
Q 15.09375 0.046875 10.984375 1.515625 
z
M 30.609375 32.421875 
Q 37.25 32.421875 41.125 36.953125 
Q 45.015625 41.5 45.015625 49.421875 
Q 45.015625 57.28125 41.125 61.84375 
Q 37.25 66.40625 30.609375 66.40625 
Q 23.96875 66.40625 20.09375 61.84375 
Q 16.21875 57.28125 16.21875 49.421875 
Q 16.21875 41.5 20.09375 36.953125 
Q 23.96875 32.421875 30.609375 32.421875 
z
" id="DejaVuSans-57"/>
     </defs>
     <use xlink:href="#DejaVuSans-57"/>
     <use x="63.623047" xlink:href="#DejaVuSans-46"/>
     <use x="95.410156" xlink:href="#DejaVuSans-50"/>
     <use x="159.033203" xlink:href="#DejaVuSans-37"/>
    </g>
   </g>
   <g id="text_5">
    <!-- 8.2% -->
    <g style="fill:#ffffff;" transform="translate(126.118694 169.888003)scale(0.1 -0.1)">
     <defs>
      <path d="M 31.78125 34.625 
Q 24.75 34.625 20.71875 30.859375 
Q 16.703125 27.09375 16.703125 20.515625 
Q 16.703125 13.921875 20.71875 10.15625 
Q 24.75 6.390625 31.78125 6.390625 
Q 38.8125 6.390625 42.859375 10.171875 
Q 46.921875 13.96875 46.921875 20.515625 
Q 46.921875 27.09375 42.890625 30.859375 
Q 38.875 34.625 31.78125 34.625 
z
M 21.921875 38.8125 
Q 15.578125 40.375 12.03125 44.71875 
Q 8.5 49.078125 8.5 55.328125 
Q 8.5 64.0625 14.71875 69.140625 
Q 20.953125 74.21875 31.78125 74.21875 
Q 42.671875 74.21875 48.875 69.140625 
Q 55.078125 64.0625 55.078125 55.328125 
Q 55.078125 49.078125 51.53125 44.71875 
Q 48 40.375 41.703125 38.8125 
Q 48.828125 37.15625 52.796875 32.3125 
Q 56.78125 27.484375 56.78125 20.515625 
Q 56.78125 9.90625 50.3125 4.234375 
Q 43.84375 -1.421875 31.78125 -1.421875 
Q 19.734375 -1.421875 13.25 4.234375 
Q 6.78125 9.90625 6.78125 20.515625 
Q 6.78125 27.484375 10.78125 32.3125 
Q 14.796875 37.15625 21.921875 38.8125 
z
M 18.3125 54.390625 
Q 18.3125 48.734375 21.84375 45.5625 
Q 25.390625 42.390625 31.78125 42.390625 
Q 38.140625 42.390625 41.71875 45.5625 
Q 45.3125 48.734375 45.3125 54.390625 
Q 45.3125 60.0625 41.71875 63.234375 
Q 38.140625 66.40625 31.78125 66.40625 
Q 25.390625 66.40625 21.84375 63.234375 
Q 18.3125 60.0625 18.3125 54.390625 
z
" id="DejaVuSans-56"/>
     </defs>
     <use xlink:href="#DejaVuSans-56"/>
     <use x="63.623047" xlink:href="#DejaVuSans-46"/>
     <use x="95.410156" xlink:href="#DejaVuSans-50"/>
     <use x="159.033203" xlink:href="#DejaVuSans-37"/>
    </g>
   </g>
   <g id="text_6">
    <!-- 8.2% -->
    <g style="fill:#ffffff;" transform="translate(156.122846 180.929806)scale(0.1 -0.1)">
     <use xlink:href="#DejaVuSans-56"/>
     <use x="63.623047" xlink:href="#DejaVuSans-46"/>
     <use x="95.410156" xlink:href="#DejaVuSans-50"/>
     <use x="159.033203" xlink:href="#DejaVuSans-37"/>
    </g>
   </g>
   <g id="text_7">
    <!-- 8.2% -->
    <g style="fill:#ffffff;" transform="translate(187.684432 175.827171)scale(0.1 -0.1)">
     <use xlink:href="#DejaVuSans-56"/>
     <use x="63.623047" xlink:href="#DejaVuSans-46"/>
     <use x="95.410156" xlink:href="#DejaVuSans-50"/>
     <use x="159.033203" xlink:href="#DejaVuSans-37"/>
    </g>
   </g>
   <g id="text_8">
    <!-- 7.1% -->
    <g style="fill:#ffffff;" transform="translate(211.446584 157.492767)scale(0.1 -0.1)">
     <use xlink:href="#DejaVuSans-55"/>
     <use x="63.623047" xlink:href="#DejaVuSans-46"/>
     <use x="95.410156" xlink:href="#DejaVuSans-49"/>
     <use x="159.033203" xlink:href="#DejaVuSans-37"/>
    </g>
   </g>
   <g id="text_9">
    <!-- 7.1% -->
    <g style="fill:#ffffff;" transform="translate(223.615816 132.223091)scale(0.1 -0.1)">
     <use xlink:href="#DejaVuSans-55"/>
     <use x="63.623047" xlink:href="#DejaVuSans-46"/>
     <use x="95.410156" xlink:href="#DejaVuSans-49"/>
     <use x="159.033203" xlink:href="#DejaVuSans-37"/>
    </g>
   </g>
   <g id="legend_1">
    <g id="patch_20">
     <path d="M 349 192.070781 
L 748.345313 192.070781 
Q 750.345313 192.070781 750.345313 190.070781 
L 750.345313 41.769219 
Q 750.345313 39.769219 748.345313 39.769219 
L 349 39.769219 
Q 347 39.769219 347 41.769219 
L 347 190.070781 
Q 347 192.070781 349 192.070781 
z
" style="fill:#ffffff;opacity:0.8;stroke:#cccccc;stroke-linejoin:miter;"/>
    </g>
    <g id="text_10">
     <!-- Топ-10 -->
     <g transform="translate(531.124219 51.367656)scale(0.1 -0.1)">
      <defs>
       <path d="M -0.296875 72.90625 
L 61.375 72.90625 
L 61.375 64.59375 
L 35.5 64.59375 
L 35.5 0 
L 25.59375 0 
L 25.59375 64.59375 
L -0.296875 64.59375 
z
" id="DejaVuSans-1058"/>
       <path d="M 30.609375 48.390625 
Q 23.390625 48.390625 19.1875 42.75 
Q 14.984375 37.109375 14.984375 27.296875 
Q 14.984375 17.484375 19.15625 11.84375 
Q 23.34375 6.203125 30.609375 6.203125 
Q 37.796875 6.203125 41.984375 11.859375 
Q 46.1875 17.53125 46.1875 27.296875 
Q 46.1875 37.015625 41.984375 42.703125 
Q 37.796875 48.390625 30.609375 48.390625 
z
M 30.609375 56 
Q 42.328125 56 49.015625 48.375 
Q 55.71875 40.765625 55.71875 27.296875 
Q 55.71875 13.875 49.015625 6.21875 
Q 42.328125 -1.421875 30.609375 -1.421875 
Q 18.84375 -1.421875 12.171875 6.21875 
Q 5.515625 13.875 5.515625 27.296875 
Q 5.515625 40.765625 12.171875 48.375 
Q 18.84375 56 30.609375 56 
z
" id="DejaVuSans-1086"/>
       <path d="M 56.296875 54.6875 
L 56.296875 0 
L 47.265625 0 
L 47.265625 47.515625 
L 18.109375 47.515625 
L 18.109375 0 
L 9.078125 0 
L 9.078125 54.6875 
z
" id="DejaVuSans-1087"/>
       <path d="M 4.890625 31.390625 
L 31.203125 31.390625 
L 31.203125 23.390625 
L 4.890625 23.390625 
z
" id="DejaVuSans-45"/>
      </defs>
      <use xlink:href="#DejaVuSans-1058"/>
      <use x="61.083984" xlink:href="#DejaVuSans-1086"/>
      <use x="122.265625" xlink:href="#DejaVuSans-1087"/>
      <use x="187.646484" xlink:href="#DejaVuSans-45"/>
      <use x="223.730469" xlink:href="#DejaVuSans-49"/>
      <use x="287.353516" xlink:href="#DejaVuSans-48"/>
     </g>
    </g>
    <g id="patch_21">
     <path d="M 351 66.045781 
L 371 66.045781 
L 371 59.045781 
L 351 59.045781 
z
" style="fill:#1f77b4;"/>
    </g>
    <g id="text_11">
     <!-- Движение ЗА ПРАВДУ (zapravduorg) -->
     <g transform="translate(379 66.045781)scale(0.1 -0.1)">
      <defs>
       <path d="M 22.796875 8.296875 
L 55.03125 8.296875 
L 55.03125 64.59375 
L 31.34375 64.59375 
L 31.34375 54.25 
Q 31.34375 29.890625 25.875 13.71875 
Q 24.75 10.40625 22.796875 8.296875 
z
M 8.40625 8.296875 
Q 14.9375 11.375 16.796875 17.234375 
Q 21.53125 32.28125 21.53125 59.125 
L 21.53125 72.90625 
L 64.890625 72.90625 
L 64.890625 8.296875 
L 73.1875 8.296875 
L 73.1875 -15.671875 
L 64.890625 -15.671875 
L 64.890625 0 
L 13.234375 0 
L 13.234375 -15.671875 
L 4.9375 -15.671875 
L 4.9375 8.296875 
z
" id="DejaVuSans-1044"/>
       <path d="M 18.0625 25.203125 
L 18.0625 7.171875 
L 30.859375 7.171875 
Q 37.015625 7.171875 40.234375 9.484375 
Q 43.453125 11.8125 43.453125 16.21875 
Q 43.453125 20.609375 40.234375 22.90625 
Q 37.015625 25.203125 30.859375 25.203125 
z
M 18.0625 47.515625 
L 18.0625 32.375 
L 29.890625 32.375 
Q 34.96875 32.375 38.1875 34.390625 
Q 41.40625 36.421875 41.40625 40.046875 
Q 41.40625 43.65625 38.1875 45.578125 
Q 34.96875 47.515625 29.890625 47.515625 
z
M 9.078125 54.6875 
L 30.46875 54.6875 
Q 40.09375 54.6875 45.265625 51.171875 
Q 50.4375 47.65625 50.4375 41.15625 
Q 50.4375 36.140625 47.796875 33.171875 
Q 45.171875 30.21875 39.984375 29.5 
Q 46.1875 28.328125 49.609375 24.609375 
Q 53.03125 20.90625 53.03125 15.328125 
Q 53.03125 8.015625 47.390625 4 
Q 41.75 0 31.296875 0 
L 9.078125 0 
z
" id="DejaVuSans-1074"/>
       <path d="M 55.90625 54.6875 
L 55.90625 0 
L 46.96875 0 
L 46.96875 43.890625 
L 20.609375 0 
L 9.078125 0 
L 9.078125 54.6875 
L 18.015625 54.6875 
L 18.015625 10.890625 
L 44.34375 54.6875 
z
" id="DejaVuSans-1080"/>
       <path d="M 40.578125 54.6875 
L 49.515625 54.6875 
L 49.515625 29 
L 73.390625 54.6875 
L 83.84375 54.6875 
L 64.203125 33.640625 
L 86.671875 0 
L 77.046875 0 
L 58.640625 27.640625 
L 49.515625 17.828125 
L 49.515625 0 
L 40.578125 0 
L 40.578125 17.828125 
L 31.453125 27.640625 
L 13.03125 0 
L 3.421875 0 
L 25.875 33.640625 
L 6.25 54.6875 
L 16.703125 54.6875 
L 40.578125 29 
z
" id="DejaVuSans-1078"/>
       <path d="M 56.203125 29.59375 
L 56.203125 25.203125 
L 14.890625 25.203125 
Q 15.484375 15.921875 20.484375 11.0625 
Q 25.484375 6.203125 34.421875 6.203125 
Q 39.59375 6.203125 44.453125 7.46875 
Q 49.3125 8.734375 54.109375 11.28125 
L 54.109375 2.78125 
Q 49.265625 0.734375 44.1875 -0.34375 
Q 39.109375 -1.421875 33.890625 -1.421875 
Q 20.796875 -1.421875 13.15625 6.1875 
Q 5.515625 13.8125 5.515625 26.8125 
Q 5.515625 40.234375 12.765625 48.109375 
Q 20.015625 56 32.328125 56 
Q 43.359375 56 49.78125 48.890625 
Q 56.203125 41.796875 56.203125 29.59375 
z
M 47.21875 32.234375 
Q 47.125 39.59375 43.09375 43.984375 
Q 39.0625 48.390625 32.421875 48.390625 
Q 24.90625 48.390625 20.390625 44.140625 
Q 15.875 39.890625 15.1875 32.171875 
z
" id="DejaVuSans-1077"/>
       <path d="M 9.078125 54.6875 
L 18.109375 54.6875 
L 18.109375 32.375 
L 47.265625 32.375 
L 47.265625 54.6875 
L 56.296875 54.6875 
L 56.296875 0 
L 47.265625 0 
L 47.265625 25.203125 
L 18.109375 25.203125 
L 18.109375 0 
L 9.078125 0 
z
" id="DejaVuSans-1085"/>
       <path id="DejaVuSans-32"/>
       <path d="M 28.5625 74.21875 
Q 40.578125 74.21875 48.1875 69.109375 
Q 55.8125 64.015625 55.8125 55.328125 
Q 55.8125 49.265625 52.34375 45.09375 
Q 48.875 40.921875 42.484375 39.3125 
Q 49.5625 37.796875 53.53125 33 
Q 57.515625 28.21875 57.515625 21.1875 
Q 57.515625 9.96875 48.84375 4.265625 
Q 40.1875 -1.421875 28.5625 -1.421875 
Q 22.609375 -1.421875 15.671875 0.1875 
Q 8.734375 1.8125 6.59375 3.171875 
L 6.59375 13.328125 
Q 14.0625 8.984375 18.1875 7.9375 
Q 22.3125 6.890625 28.375 6.890625 
Q 37.546875 6.890625 42.625 10.40625 
Q 47.703125 13.921875 47.703125 21.1875 
Q 47.703125 27.640625 43.1875 31.265625 
Q 38.671875 34.90625 29.15625 34.90625 
L 19.1875 34.90625 
L 19.1875 43.015625 
L 29.546875 43.015625 
Q 38.28125 43.015625 42.140625 45.921875 
Q 46 48.828125 46 54.296875 
Q 46 59.90625 42.015625 62.90625 
Q 38.03125 65.921875 28.375 65.921875 
Q 21.828125 65.921875 19.578125 65.328125 
Q 17.328125 64.75 7.328125 60.984375 
L 7.328125 70.609375 
Q 12.84375 72.5625 18.59375 73.390625 
Q 24.359375 74.21875 28.5625 74.21875 
z
" id="DejaVuSans-1047"/>
       <path d="M 34.1875 63.1875 
L 20.796875 26.90625 
L 47.609375 26.90625 
z
M 28.609375 72.90625 
L 39.796875 72.90625 
L 67.578125 0 
L 57.328125 0 
L 50.6875 18.703125 
L 17.828125 18.703125 
L 11.1875 0 
L 0.78125 0 
z
" id="DejaVuSans-1040"/>
       <path d="M 65.375 72.90625 
L 65.375 0 
L 55.515625 0 
L 55.515625 64.59375 
L 19.671875 64.59375 
L 19.671875 0 
L 9.8125 0 
L 9.8125 72.90625 
z
" id="DejaVuSans-1055"/>
       <path d="M 19.671875 64.796875 
L 19.671875 37.40625 
L 32.078125 37.40625 
Q 38.96875 37.40625 42.71875 40.96875 
Q 46.484375 44.53125 46.484375 51.125 
Q 46.484375 57.671875 42.71875 61.234375 
Q 38.96875 64.796875 32.078125 64.796875 
z
M 9.8125 72.90625 
L 32.078125 72.90625 
Q 44.34375 72.90625 50.609375 67.359375 
Q 56.890625 61.8125 56.890625 51.125 
Q 56.890625 40.328125 50.609375 34.8125 
Q 44.34375 29.296875 32.078125 29.296875 
L 19.671875 29.296875 
L 19.671875 0 
L 9.8125 0 
z
" id="DejaVuSans-1056"/>
       <path d="M 19.671875 34.8125 
L 19.671875 8.109375 
L 35.5 8.109375 
Q 43.453125 8.109375 47.28125 11.40625 
Q 51.125 14.703125 51.125 21.484375 
Q 51.125 28.328125 47.28125 31.5625 
Q 43.453125 34.8125 35.5 34.8125 
z
M 19.671875 64.796875 
L 19.671875 42.828125 
L 34.28125 42.828125 
Q 41.5 42.828125 45.03125 45.53125 
Q 48.578125 48.25 48.578125 53.8125 
Q 48.578125 59.328125 45.03125 62.0625 
Q 41.5 64.796875 34.28125 64.796875 
z
M 9.8125 72.90625 
L 35.015625 72.90625 
Q 46.296875 72.90625 52.390625 68.21875 
Q 58.5 63.53125 58.5 54.890625 
Q 58.5 48.1875 55.375 44.234375 
Q 52.25 40.28125 46.1875 39.3125 
Q 53.46875 37.75 57.5 32.78125 
Q 61.53125 27.828125 61.53125 20.40625 
Q 61.53125 10.640625 54.890625 5.3125 
Q 48.25 0 35.984375 0 
L 9.8125 0 
z
" id="DejaVuSans-1042"/>
       <path d="M 31.984375 8.84375 
Q 30.953125 6.390625 29.390625 4.546875 
Q 25.53125 0 13.28125 0 
L 9.515625 0 
L 9.515625 8.296875 
L 12.59375 8.296875 
Q 18.40625 8.296875 20.65625 9.625 
Q 22.015625 10.453125 22.90625 12.5 
L 25.09375 17.671875 
L 1.703125 72.90625 
L 12.3125 72.90625 
L 30.421875 30.125 
L 48.640625 72.90625 
L 59.234375 72.90625 
z
" id="DejaVuSans-1059"/>
       <path d="M 31 75.875 
Q 24.46875 64.65625 21.28125 53.65625 
Q 18.109375 42.671875 18.109375 31.390625 
Q 18.109375 20.125 21.3125 9.0625 
Q 24.515625 -2 31 -13.1875 
L 23.1875 -13.1875 
Q 15.875 -1.703125 12.234375 9.375 
Q 8.59375 20.453125 8.59375 31.390625 
Q 8.59375 42.28125 12.203125 53.3125 
Q 15.828125 64.359375 23.1875 75.875 
z
" id="DejaVuSans-40"/>
       <path d="M 5.515625 54.6875 
L 48.1875 54.6875 
L 48.1875 46.484375 
L 14.40625 7.171875 
L 48.1875 7.171875 
L 48.1875 0 
L 4.296875 0 
L 4.296875 8.203125 
L 38.09375 47.515625 
L 5.515625 47.515625 
z
" id="DejaVuSans-122"/>
       <path d="M 34.28125 27.484375 
Q 23.390625 27.484375 19.1875 25 
Q 14.984375 22.515625 14.984375 16.5 
Q 14.984375 11.71875 18.140625 8.90625 
Q 21.296875 6.109375 26.703125 6.109375 
Q 34.1875 6.109375 38.703125 11.40625 
Q 43.21875 16.703125 43.21875 25.484375 
L 43.21875 27.484375 
z
M 52.203125 31.203125 
L 52.203125 0 
L 43.21875 0 
L 43.21875 8.296875 
Q 40.140625 3.328125 35.546875 0.953125 
Q 30.953125 -1.421875 24.3125 -1.421875 
Q 15.921875 -1.421875 10.953125 3.296875 
Q 6 8.015625 6 15.921875 
Q 6 25.140625 12.171875 29.828125 
Q 18.359375 34.515625 30.609375 34.515625 
L 43.21875 34.515625 
L 43.21875 35.40625 
Q 43.21875 41.609375 39.140625 45 
Q 35.0625 48.390625 27.6875 48.390625 
Q 23 48.390625 18.546875 47.265625 
Q 14.109375 46.140625 10.015625 43.890625 
L 10.015625 52.203125 
Q 14.9375 54.109375 19.578125 55.046875 
Q 24.21875 56 28.609375 56 
Q 40.484375 56 46.34375 49.84375 
Q 52.203125 43.703125 52.203125 31.203125 
z
" id="DejaVuSans-97"/>
       <path d="M 18.109375 8.203125 
L 18.109375 -20.796875 
L 9.078125 -20.796875 
L 9.078125 54.6875 
L 18.109375 54.6875 
L 18.109375 46.390625 
Q 20.953125 51.265625 25.265625 53.625 
Q 29.59375 56 35.59375 56 
Q 45.5625 56 51.78125 48.09375 
Q 58.015625 40.1875 58.015625 27.296875 
Q 58.015625 14.40625 51.78125 6.484375 
Q 45.5625 -1.421875 35.59375 -1.421875 
Q 29.59375 -1.421875 25.265625 0.953125 
Q 20.953125 3.328125 18.109375 8.203125 
z
M 48.6875 27.296875 
Q 48.6875 37.203125 44.609375 42.84375 
Q 40.53125 48.484375 33.40625 48.484375 
Q 26.265625 48.484375 22.1875 42.84375 
Q 18.109375 37.203125 18.109375 27.296875 
Q 18.109375 17.390625 22.1875 11.75 
Q 26.265625 6.109375 33.40625 6.109375 
Q 40.53125 6.109375 44.609375 11.75 
Q 48.6875 17.390625 48.6875 27.296875 
z
" id="DejaVuSans-112"/>
       <path d="M 41.109375 46.296875 
Q 39.59375 47.171875 37.8125 47.578125 
Q 36.03125 48 33.890625 48 
Q 26.265625 48 22.1875 43.046875 
Q 18.109375 38.09375 18.109375 28.8125 
L 18.109375 0 
L 9.078125 0 
L 9.078125 54.6875 
L 18.109375 54.6875 
L 18.109375 46.1875 
Q 20.953125 51.171875 25.484375 53.578125 
Q 30.03125 56 36.53125 56 
Q 37.453125 56 38.578125 55.875 
Q 39.703125 55.765625 41.0625 55.515625 
z
" id="DejaVuSans-114"/>
       <path d="M 2.984375 54.6875 
L 12.5 54.6875 
L 29.59375 8.796875 
L 46.6875 54.6875 
L 56.203125 54.6875 
L 35.6875 0 
L 23.484375 0 
z
" id="DejaVuSans-118"/>
       <path d="M 45.40625 46.390625 
L 45.40625 75.984375 
L 54.390625 75.984375 
L 54.390625 0 
L 45.40625 0 
L 45.40625 8.203125 
Q 42.578125 3.328125 38.25 0.953125 
Q 33.9375 -1.421875 27.875 -1.421875 
Q 17.96875 -1.421875 11.734375 6.484375 
Q 5.515625 14.40625 5.515625 27.296875 
Q 5.515625 40.1875 11.734375 48.09375 
Q 17.96875 56 27.875 56 
Q 33.9375 56 38.25 53.625 
Q 42.578125 51.265625 45.40625 46.390625 
z
M 14.796875 27.296875 
Q 14.796875 17.390625 18.875 11.75 
Q 22.953125 6.109375 30.078125 6.109375 
Q 37.203125 6.109375 41.296875 11.75 
Q 45.40625 17.390625 45.40625 27.296875 
Q 45.40625 37.203125 41.296875 42.84375 
Q 37.203125 48.484375 30.078125 48.484375 
Q 22.953125 48.484375 18.875 42.84375 
Q 14.796875 37.203125 14.796875 27.296875 
z
" id="DejaVuSans-100"/>
       <path d="M 8.5 21.578125 
L 8.5 54.6875 
L 17.484375 54.6875 
L 17.484375 21.921875 
Q 17.484375 14.15625 20.5 10.265625 
Q 23.53125 6.390625 29.59375 6.390625 
Q 36.859375 6.390625 41.078125 11.03125 
Q 45.3125 15.671875 45.3125 23.6875 
L 45.3125 54.6875 
L 54.296875 54.6875 
L 54.296875 0 
L 45.3125 0 
L 45.3125 8.40625 
Q 42.046875 3.421875 37.71875 1 
Q 33.40625 -1.421875 27.6875 -1.421875 
Q 18.265625 -1.421875 13.375 4.4375 
Q 8.5 10.296875 8.5 21.578125 
z
M 31.109375 56 
z
" id="DejaVuSans-117"/>
       <path d="M 30.609375 48.390625 
Q 23.390625 48.390625 19.1875 42.75 
Q 14.984375 37.109375 14.984375 27.296875 
Q 14.984375 17.484375 19.15625 11.84375 
Q 23.34375 6.203125 30.609375 6.203125 
Q 37.796875 6.203125 41.984375 11.859375 
Q 46.1875 17.53125 46.1875 27.296875 
Q 46.1875 37.015625 41.984375 42.703125 
Q 37.796875 48.390625 30.609375 48.390625 
z
M 30.609375 56 
Q 42.328125 56 49.015625 48.375 
Q 55.71875 40.765625 55.71875 27.296875 
Q 55.71875 13.875 49.015625 6.21875 
Q 42.328125 -1.421875 30.609375 -1.421875 
Q 18.84375 -1.421875 12.171875 6.21875 
Q 5.515625 13.875 5.515625 27.296875 
Q 5.515625 40.765625 12.171875 48.375 
Q 18.84375 56 30.609375 56 
z
" id="DejaVuSans-111"/>
       <path d="M 45.40625 27.984375 
Q 45.40625 37.75 41.375 43.109375 
Q 37.359375 48.484375 30.078125 48.484375 
Q 22.859375 48.484375 18.828125 43.109375 
Q 14.796875 37.75 14.796875 27.984375 
Q 14.796875 18.265625 18.828125 12.890625 
Q 22.859375 7.515625 30.078125 7.515625 
Q 37.359375 7.515625 41.375 12.890625 
Q 45.40625 18.265625 45.40625 27.984375 
z
M 54.390625 6.78125 
Q 54.390625 -7.171875 48.1875 -13.984375 
Q 42 -20.796875 29.203125 -20.796875 
Q 24.46875 -20.796875 20.265625 -20.09375 
Q 16.0625 -19.390625 12.109375 -17.921875 
L 12.109375 -9.1875 
Q 16.0625 -11.328125 19.921875 -12.34375 
Q 23.78125 -13.375 27.78125 -13.375 
Q 36.625 -13.375 41.015625 -8.765625 
Q 45.40625 -4.15625 45.40625 5.171875 
L 45.40625 9.625 
Q 42.625 4.78125 38.28125 2.390625 
Q 33.9375 0 27.875 0 
Q 17.828125 0 11.671875 7.65625 
Q 5.515625 15.328125 5.515625 27.984375 
Q 5.515625 40.671875 11.671875 48.328125 
Q 17.828125 56 27.875 56 
Q 33.9375 56 38.28125 53.609375 
Q 42.625 51.21875 45.40625 46.390625 
L 45.40625 54.6875 
L 54.390625 54.6875 
z
" id="DejaVuSans-103"/>
       <path d="M 8.015625 75.875 
L 15.828125 75.875 
Q 23.140625 64.359375 26.78125 53.3125 
Q 30.421875 42.28125 30.421875 31.390625 
Q 30.421875 20.453125 26.78125 9.375 
Q 23.140625 -1.703125 15.828125 -13.1875 
L 8.015625 -13.1875 
Q 14.5 -2 17.703125 9.0625 
Q 20.90625 20.125 20.90625 31.390625 
Q 20.90625 42.671875 17.703125 53.65625 
Q 14.5 64.65625 8.015625 75.875 
z
" id="DejaVuSans-41"/>
      </defs>
      <use xlink:href="#DejaVuSans-1044"/>
      <use x="78.125" xlink:href="#DejaVuSans-1074"/>
      <use x="137.060547" xlink:href="#DejaVuSans-1080"/>
      <use x="202.050781" xlink:href="#DejaVuSans-1078"/>
      <use x="292.138672" xlink:href="#DejaVuSans-1077"/>
      <use x="353.662109" xlink:href="#DejaVuSans-1085"/>
      <use x="419.042969" xlink:href="#DejaVuSans-1080"/>
      <use x="484.033203" xlink:href="#DejaVuSans-1077"/>
      <use x="545.556641" xlink:href="#DejaVuSans-32"/>
      <use x="577.34375" xlink:href="#DejaVuSans-1047"/>
      <use x="641.455078" xlink:href="#DejaVuSans-1040"/>
      <use x="709.863281" xlink:href="#DejaVuSans-32"/>
      <use x="741.650391" xlink:href="#DejaVuSans-1055"/>
      <use x="816.845703" xlink:href="#DejaVuSans-1056"/>
      <use x="877.148438" xlink:href="#DejaVuSans-1040"/>
      <use x="945.556641" xlink:href="#DejaVuSans-1042"/>
      <use x="1014.160156" xlink:href="#DejaVuSans-1044"/>
      <use x="1092.285156" xlink:href="#DejaVuSans-1059"/>
      <use x="1153.222656" xlink:href="#DejaVuSans-32"/>
      <use x="1185.009766" xlink:href="#DejaVuSans-40"/>
      <use x="1224.023438" xlink:href="#DejaVuSans-122"/>
      <use x="1276.513672" xlink:href="#DejaVuSans-97"/>
      <use x="1337.792969" xlink:href="#DejaVuSans-112"/>
      <use x="1401.269531" xlink:href="#DejaVuSans-114"/>
      <use x="1442.382812" xlink:href="#DejaVuSans-97"/>
      <use x="1503.662109" xlink:href="#DejaVuSans-118"/>
      <use x="1562.841797" xlink:href="#DejaVuSans-100"/>
      <use x="1626.318359" xlink:href="#DejaVuSans-117"/>
      <use x="1689.697266" xlink:href="#DejaVuSans-111"/>
      <use x="1750.878906" xlink:href="#DejaVuSans-114"/>
      <use x="1790.242188" xlink:href="#DejaVuSans-103"/>
      <use x="1853.71875" xlink:href="#DejaVuSans-41"/>
     </g>
    </g>
    <g id="patch_22">
     <path d="M 351 80.723906 
L 371 80.723906 
L 371 73.723906 
L 351 73.723906 
z
" style="fill:#ff7f0e;"/>
    </g>
    <g id="text_12">
     <!-- Захар Прилепин (zaharprilepin) -->
     <g transform="translate(379 80.723906)scale(0.1 -0.1)">
      <defs>
       <path d="M 34.28125 27.484375 
Q 23.390625 27.484375 19.1875 25 
Q 14.984375 22.515625 14.984375 16.5 
Q 14.984375 11.71875 18.140625 8.90625 
Q 21.296875 6.109375 26.703125 6.109375 
Q 34.1875 6.109375 38.703125 11.40625 
Q 43.21875 16.703125 43.21875 25.484375 
L 43.21875 27.484375 
z
M 52.203125 31.203125 
L 52.203125 0 
L 43.21875 0 
L 43.21875 8.296875 
Q 40.140625 3.328125 35.546875 0.953125 
Q 30.953125 -1.421875 24.3125 -1.421875 
Q 15.921875 -1.421875 10.953125 3.296875 
Q 6 8.015625 6 15.921875 
Q 6 25.140625 12.171875 29.828125 
Q 18.359375 34.515625 30.609375 34.515625 
L 43.21875 34.515625 
L 43.21875 35.40625 
Q 43.21875 41.609375 39.140625 45 
Q 35.0625 48.390625 27.6875 48.390625 
Q 23 48.390625 18.546875 47.265625 
Q 14.109375 46.140625 10.015625 43.890625 
L 10.015625 52.203125 
Q 14.9375 54.109375 19.578125 55.046875 
Q 24.21875 56 28.609375 56 
Q 40.484375 56 46.34375 49.84375 
Q 52.203125 43.703125 52.203125 31.203125 
z
" id="DejaVuSans-1072"/>
       <path d="M 54.890625 54.6875 
L 35.109375 28.078125 
L 55.90625 0 
L 45.3125 0 
L 29.390625 21.484375 
L 13.484375 0 
L 2.875 0 
L 24.125 28.609375 
L 4.6875 54.6875 
L 15.28125 54.6875 
L 29.78125 35.203125 
L 44.28125 54.6875 
z
" id="DejaVuSans-1093"/>
       <path d="M 18.109375 8.203125 
L 18.109375 -20.796875 
L 9.078125 -20.796875 
L 9.078125 54.6875 
L 18.109375 54.6875 
L 18.109375 46.390625 
Q 20.953125 51.265625 25.265625 53.625 
Q 29.59375 56 35.59375 56 
Q 45.5625 56 51.78125 48.09375 
Q 58.015625 40.1875 58.015625 27.296875 
Q 58.015625 14.40625 51.78125 6.484375 
Q 45.5625 -1.421875 35.59375 -1.421875 
Q 29.59375 -1.421875 25.265625 0.953125 
Q 20.953125 3.328125 18.109375 8.203125 
z
M 48.6875 27.296875 
Q 48.6875 37.203125 44.609375 42.84375 
Q 40.53125 48.484375 33.40625 48.484375 
Q 26.265625 48.484375 22.1875 42.84375 
Q 18.109375 37.203125 18.109375 27.296875 
Q 18.109375 17.390625 22.1875 11.75 
Q 26.265625 6.109375 33.40625 6.109375 
Q 40.53125 6.109375 44.609375 11.75 
Q 48.6875 17.390625 48.6875 27.296875 
z
" id="DejaVuSans-1088"/>
       <path d="M 3.71875 0 
L 3.71875 7.46875 
Q 12.59375 8.84375 15.328125 14.984375 
Q 18.65625 23.640625 18.65625 45.75 
L 18.65625 54.6875 
L 55.609375 54.6875 
L 55.609375 0 
L 46.625 0 
L 46.625 47.515625 
L 27.640625 47.515625 
L 27.640625 42.09375 
Q 27.640625 21 23.34375 11.53125 
Q 18.75 1.421875 3.71875 0 
z
" id="DejaVuSans-1083"/>
       <path d="M 54.890625 33.015625 
L 54.890625 0 
L 45.90625 0 
L 45.90625 32.71875 
Q 45.90625 40.484375 42.875 44.328125 
Q 39.84375 48.1875 33.796875 48.1875 
Q 26.515625 48.1875 22.3125 43.546875 
Q 18.109375 38.921875 18.109375 30.90625 
L 18.109375 0 
L 9.078125 0 
L 9.078125 75.984375 
L 18.109375 75.984375 
L 18.109375 46.1875 
Q 21.34375 51.125 25.703125 53.5625 
Q 30.078125 56 35.796875 56 
Q 45.21875 56 50.046875 50.171875 
Q 54.890625 44.34375 54.890625 33.015625 
z
" id="DejaVuSans-104"/>
       <path d="M 9.421875 54.6875 
L 18.40625 54.6875 
L 18.40625 0 
L 9.421875 0 
z
M 9.421875 75.984375 
L 18.40625 75.984375 
L 18.40625 64.59375 
L 9.421875 64.59375 
z
" id="DejaVuSans-105"/>
       <path d="M 9.421875 75.984375 
L 18.40625 75.984375 
L 18.40625 0 
L 9.421875 0 
z
" id="DejaVuSans-108"/>
       <path d="M 56.203125 29.59375 
L 56.203125 25.203125 
L 14.890625 25.203125 
Q 15.484375 15.921875 20.484375 11.0625 
Q 25.484375 6.203125 34.421875 6.203125 
Q 39.59375 6.203125 44.453125 7.46875 
Q 49.3125 8.734375 54.109375 11.28125 
L 54.109375 2.78125 
Q 49.265625 0.734375 44.1875 -0.34375 
Q 39.109375 -1.421875 33.890625 -1.421875 
Q 20.796875 -1.421875 13.15625 6.1875 
Q 5.515625 13.8125 5.515625 26.8125 
Q 5.515625 40.234375 12.765625 48.109375 
Q 20.015625 56 32.328125 56 
Q 43.359375 56 49.78125 48.890625 
Q 56.203125 41.796875 56.203125 29.59375 
z
M 47.21875 32.234375 
Q 47.125 39.59375 43.09375 43.984375 
Q 39.0625 48.390625 32.421875 48.390625 
Q 24.90625 48.390625 20.390625 44.140625 
Q 15.875 39.890625 15.1875 32.171875 
z
" id="DejaVuSans-101"/>
       <path d="M 54.890625 33.015625 
L 54.890625 0 
L 45.90625 0 
L 45.90625 32.71875 
Q 45.90625 40.484375 42.875 44.328125 
Q 39.84375 48.1875 33.796875 48.1875 
Q 26.515625 48.1875 22.3125 43.546875 
Q 18.109375 38.921875 18.109375 30.90625 
L 18.109375 0 
L 9.078125 0 
L 9.078125 54.6875 
L 18.109375 54.6875 
L 18.109375 46.1875 
Q 21.34375 51.125 25.703125 53.5625 
Q 30.078125 56 35.796875 56 
Q 45.21875 56 50.046875 50.171875 
Q 54.890625 44.34375 54.890625 33.015625 
z
" id="DejaVuSans-110"/>
      </defs>
      <use xlink:href="#DejaVuSans-1047"/>
      <use x="64.111328" xlink:href="#DejaVuSans-1072"/>
      <use x="125.390625" xlink:href="#DejaVuSans-1093"/>
      <use x="184.570312" xlink:href="#DejaVuSans-1072"/>
      <use x="245.849609" xlink:href="#DejaVuSans-1088"/>
      <use x="309.326172" xlink:href="#DejaVuSans-32"/>
      <use x="341.113281" xlink:href="#DejaVuSans-1055"/>
      <use x="416.308594" xlink:href="#DejaVuSans-1088"/>
      <use x="479.785156" xlink:href="#DejaVuSans-1080"/>
      <use x="544.775391" xlink:href="#DejaVuSans-1083"/>
      <use x="608.691406" xlink:href="#DejaVuSans-1077"/>
      <use x="670.214844" xlink:href="#DejaVuSans-1087"/>
      <use x="735.595703" xlink:href="#DejaVuSans-1080"/>
      <use x="800.585938" xlink:href="#DejaVuSans-1085"/>
      <use x="865.966797" xlink:href="#DejaVuSans-32"/>
      <use x="897.753906" xlink:href="#DejaVuSans-40"/>
      <use x="936.767578" xlink:href="#DejaVuSans-122"/>
      <use x="989.257812" xlink:href="#DejaVuSans-97"/>
      <use x="1050.537109" xlink:href="#DejaVuSans-104"/>
      <use x="1113.916016" xlink:href="#DejaVuSans-97"/>
      <use x="1175.195312" xlink:href="#DejaVuSans-114"/>
      <use x="1216.308594" xlink:href="#DejaVuSans-112"/>
      <use x="1279.785156" xlink:href="#DejaVuSans-114"/>
      <use x="1320.898438" xlink:href="#DejaVuSans-105"/>
      <use x="1348.681641" xlink:href="#DejaVuSans-108"/>
      <use x="1376.464844" xlink:href="#DejaVuSans-101"/>
      <use x="1437.988281" xlink:href="#DejaVuSans-112"/>
      <use x="1501.464844" xlink:href="#DejaVuSans-105"/>
      <use x="1529.248047" xlink:href="#DejaVuSans-110"/>
      <use x="1592.626953" xlink:href="#DejaVuSans-41"/>
     </g>
    </g>
    <g id="patch_23">
     <path d="M 351 95.572344 
L 371 95.572344 
L 371 88.572344 
L 351 88.572344 
z
" style="fill:#2ca02c;"/>
    </g>
    <g id="text_13">
     <!-- Екатеринбург ЗА ПРАВДУ (zapravdu_ekb) -->
     <g transform="translate(379 95.572344)scale(0.1 -0.1)">
      <defs>
       <path d="M 9.8125 72.90625 
L 55.90625 72.90625 
L 55.90625 64.59375 
L 19.671875 64.59375 
L 19.671875 43.015625 
L 54.390625 43.015625 
L 54.390625 34.71875 
L 19.671875 34.71875 
L 19.671875 8.296875 
L 56.78125 8.296875 
L 56.78125 0 
L 9.8125 0 
z
" id="DejaVuSans-1045"/>
       <path d="M 9.078125 54.6875 
L 18.015625 54.6875 
L 18.015625 29 
L 43.359375 54.6875 
L 54.390625 54.6875 
L 33.5 33.546875 
L 57.078125 0 
L 47.015625 0 
L 27.640625 27.59375 
L 18.015625 17.828125 
L 18.015625 0 
L 9.078125 0 
z
" id="DejaVuSans-1082"/>
       <path d="M 2.9375 54.6875 
L 55.328125 54.6875 
L 55.328125 47.515625 
L 33.546875 47.515625 
L 33.546875 0 
L 24.703125 0 
L 24.703125 47.515625 
L 2.9375 47.515625 
z
" id="DejaVuSans-1090"/>
       <path d="M 31.109375 56 
Q 42.828125 56 49.515625 48.375 
Q 56.203125 40.765625 56.203125 27.296875 
Q 56.203125 13.875 49.515625 6.21875 
Q 42.828125 -1.421875 31.109375 -1.421875 
Q 19.34375 -1.421875 12.84375 6 
Q 6.34375 13.421875 6 27.296875 
L 5.71875 38.484375 
Q 5.46875 44.28125 5.46875 46.296875 
Q 5.46875 54.109375 8.296875 59.859375 
Q 12.75 68.890625 20.4375 72.796875 
Q 28.125 76.703125 41.015625 76.8125 
Q 46.96875 76.859375 49.609375 77.6875 
L 52.09375 70.5625 
Q 49.703125 69.578125 47.515625 69.53125 
L 35.296875 68.703125 
Q 29.15625 68.265625 25.4375 66.109375 
Q 15.71875 60.40625 14.796875 52.9375 
L 14.453125 50.203125 
Q 20.796875 56 31.109375 56 
z
M 31.109375 48.390625 
Q 23.875 48.390625 19.671875 42.75 
Q 15.484375 37.109375 15.484375 27.296875 
Q 15.484375 17.484375 19.65625 11.84375 
Q 23.828125 6.203125 31.109375 6.203125 
Q 38.28125 6.203125 42.484375 11.859375 
Q 46.6875 17.53125 46.6875 27.296875 
Q 46.6875 37.015625 42.484375 42.703125 
Q 38.28125 48.390625 31.109375 48.390625 
z
" id="DejaVuSans-1073"/>
       <path d="M 32.171875 -5.078125 
Q 28.375 -14.84375 24.75 -17.8125 
Q 21.140625 -20.796875 15.09375 -20.796875 
L 7.90625 -20.796875 
L 7.90625 -13.28125 
L 13.1875 -13.28125 
Q 16.890625 -13.28125 18.9375 -11.515625 
Q 21 -9.765625 23.484375 -3.21875 
L 25.09375 0.875 
L 2.984375 54.6875 
L 12.5 54.6875 
L 29.59375 11.921875 
L 46.6875 54.6875 
L 56.203125 54.6875 
z
" id="DejaVuSans-1091"/>
       <path d="M 9.078125 0 
L 9.078125 54.6875 
L 47.65625 54.6875 
L 47.65625 47.515625 
L 18.109375 47.515625 
L 18.109375 0 
z
" id="DejaVuSans-1075"/>
       <path d="M 50.984375 -16.609375 
L 50.984375 -23.578125 
L -0.984375 -23.578125 
L -0.984375 -16.609375 
z
" id="DejaVuSans-95"/>
       <path d="M 9.078125 75.984375 
L 18.109375 75.984375 
L 18.109375 31.109375 
L 44.921875 54.6875 
L 56.390625 54.6875 
L 27.390625 29.109375 
L 57.625 0 
L 45.90625 0 
L 18.109375 26.703125 
L 18.109375 0 
L 9.078125 0 
z
" id="DejaVuSans-107"/>
       <path d="M 48.6875 27.296875 
Q 48.6875 37.203125 44.609375 42.84375 
Q 40.53125 48.484375 33.40625 48.484375 
Q 26.265625 48.484375 22.1875 42.84375 
Q 18.109375 37.203125 18.109375 27.296875 
Q 18.109375 17.390625 22.1875 11.75 
Q 26.265625 6.109375 33.40625 6.109375 
Q 40.53125 6.109375 44.609375 11.75 
Q 48.6875 17.390625 48.6875 27.296875 
z
M 18.109375 46.390625 
Q 20.953125 51.265625 25.265625 53.625 
Q 29.59375 56 35.59375 56 
Q 45.5625 56 51.78125 48.09375 
Q 58.015625 40.1875 58.015625 27.296875 
Q 58.015625 14.40625 51.78125 6.484375 
Q 45.5625 -1.421875 35.59375 -1.421875 
Q 29.59375 -1.421875 25.265625 0.953125 
Q 20.953125 3.328125 18.109375 8.203125 
L 18.109375 0 
L 9.078125 0 
L 9.078125 75.984375 
L 18.109375 75.984375 
z
" id="DejaVuSans-98"/>
      </defs>
      <use xlink:href="#DejaVuSans-1045"/>
      <use x="63.183594" xlink:href="#DejaVuSans-1082"/>
      <use x="123.583984" xlink:href="#DejaVuSans-1072"/>
      <use x="184.863281" xlink:href="#DejaVuSans-1090"/>
      <use x="243.115234" xlink:href="#DejaVuSans-1077"/>
      <use x="304.638672" xlink:href="#DejaVuSans-1088"/>
      <use x="368.115234" xlink:href="#DejaVuSans-1080"/>
      <use x="433.105469" xlink:href="#DejaVuSans-1085"/>
      <use x="498.486328" xlink:href="#DejaVuSans-1073"/>
      <use x="560.15625" xlink:href="#DejaVuSans-1091"/>
      <use x="619.335938" xlink:href="#DejaVuSans-1088"/>
      <use x="682.8125" xlink:href="#DejaVuSans-1075"/>
      <use x="735.351562" xlink:href="#DejaVuSans-32"/>
      <use x="767.138672" xlink:href="#DejaVuSans-1047"/>
      <use x="831.25" xlink:href="#DejaVuSans-1040"/>
      <use x="899.658203" xlink:href="#DejaVuSans-32"/>
      <use x="931.445312" xlink:href="#DejaVuSans-1055"/>
      <use x="1006.640625" xlink:href="#DejaVuSans-1056"/>
      <use x="1066.943359" xlink:href="#DejaVuSans-1040"/>
      <use x="1135.351562" xlink:href="#DejaVuSans-1042"/>
      <use x="1203.955078" xlink:href="#DejaVuSans-1044"/>
      <use x="1282.080078" xlink:href="#DejaVuSans-1059"/>
      <use x="1343.017578" xlink:href="#DejaVuSans-32"/>
      <use x="1374.804688" xlink:href="#DejaVuSans-40"/>
      <use x="1413.818359" xlink:href="#DejaVuSans-122"/>
      <use x="1466.308594" xlink:href="#DejaVuSans-97"/>
      <use x="1527.587891" xlink:href="#DejaVuSans-112"/>
      <use x="1591.064453" xlink:href="#DejaVuSans-114"/>
      <use x="1632.177734" xlink:href="#DejaVuSans-97"/>
      <use x="1693.457031" xlink:href="#DejaVuSans-118"/>
      <use x="1752.636719" xlink:href="#DejaVuSans-100"/>
      <use x="1816.113281" xlink:href="#DejaVuSans-117"/>
      <use x="1879.492188" xlink:href="#DejaVuSans-95"/>
      <use x="1929.492188" xlink:href="#DejaVuSans-101"/>
      <use x="1991.015625" xlink:href="#DejaVuSans-107"/>
      <use x="2048.925781" xlink:href="#DejaVuSans-98"/>
      <use x="2112.402344" xlink:href="#DejaVuSans-41"/>
     </g>
    </g>
    <g id="patch_24">
     <path d="M 351 110.698906 
L 371 110.698906 
L 371 103.698906 
L 351 103.698906 
z
" style="fill:#d62728;"/>
    </g>
    <g id="text_14">
     <!-- Дискуссионный Клуб ЗА ПРАВДУ Орловской области (club194501547) -->
     <g transform="translate(379 110.698906)scale(0.1 -0.1)">
      <defs>
       <path d="M 48.78125 52.59375 
L 48.78125 44.1875 
Q 44.96875 46.296875 41.140625 47.34375 
Q 37.3125 48.390625 33.40625 48.390625 
Q 24.65625 48.390625 19.8125 42.84375 
Q 14.984375 37.3125 14.984375 27.296875 
Q 14.984375 17.28125 19.8125 11.734375 
Q 24.65625 6.203125 33.40625 6.203125 
Q 37.3125 6.203125 41.140625 7.25 
Q 44.96875 8.296875 48.78125 10.40625 
L 48.78125 2.09375 
Q 45.015625 0.34375 40.984375 -0.53125 
Q 36.96875 -1.421875 32.421875 -1.421875 
Q 20.0625 -1.421875 12.78125 6.34375 
Q 5.515625 14.109375 5.515625 27.296875 
Q 5.515625 40.671875 12.859375 48.328125 
Q 20.21875 56 33.015625 56 
Q 37.15625 56 41.109375 55.140625 
Q 45.0625 54.296875 48.78125 52.59375 
z
" id="DejaVuSans-1089"/>
       <path d="M 61.046875 54.6875 
L 70.03125 54.6875 
L 70.03125 0 
L 61.046875 0 
z
M 65.546875 56 
z
M 43.453125 16.21875 
Q 43.453125 20.609375 40.25 22.90625 
Q 37.0625 25.203125 30.90625 25.203125 
L 18.109375 25.203125 
L 18.109375 7.171875 
L 30.90625 7.171875 
Q 37.0625 7.171875 40.25 9.484375 
Q 43.453125 11.8125 43.453125 16.21875 
z
M 9.078125 54.6875 
L 18.109375 54.6875 
L 18.109375 32.375 
L 31.296875 32.375 
Q 41.75 32.375 47.390625 28.390625 
Q 53.03125 24.421875 53.03125 16.21875 
Q 53.03125 8.015625 47.390625 4 
Q 41.75 0 31.296875 0 
L 9.078125 0 
z
" id="DejaVuSans-1099"/>
       <path d="M 55.90625 54.6875 
L 55.90625 0 
L 46.96875 0 
L 46.96875 43.890625 
L 20.609375 0 
L 9.078125 0 
L 9.078125 54.6875 
L 18.015625 54.6875 
L 18.015625 10.890625 
L 44.34375 54.6875 
z
M 17.21875 75.515625 
L 22.984375 75.515625 
Q 23.515625 71.859375 25.875 70.015625 
Q 28.25 68.1875 32.5 68.1875 
Q 36.703125 68.1875 39.046875 70 
Q 41.390625 71.8125 42.015625 75.515625 
L 47.78125 75.515625 
Q 47.296875 68.53125 43.4375 65.015625 
Q 39.578125 61.5 32.5 61.5 
Q 25.421875 61.5 21.5625 65.015625 
Q 17.703125 68.53125 17.21875 75.515625 
z
" id="DejaVuSans-1081"/>
       <path d="M 9.8125 72.90625 
L 19.671875 72.90625 
L 19.671875 36.859375 
L 54.9375 72.90625 
L 67.578125 72.90625 
L 39.40625 44.09375 
L 69.046875 0 
L 58.296875 0 
L 33.015625 37.546875 
L 19.671875 23.921875 
L 19.671875 0 
L 9.8125 0 
z
" id="DejaVuSans-1050"/>
       <path d="M 39.40625 66.21875 
Q 28.65625 66.21875 22.328125 58.203125 
Q 16.015625 50.203125 16.015625 36.375 
Q 16.015625 22.609375 22.328125 14.59375 
Q 28.65625 6.59375 39.40625 6.59375 
Q 50.140625 6.59375 56.421875 14.59375 
Q 62.703125 22.609375 62.703125 36.375 
Q 62.703125 50.203125 56.421875 58.203125 
Q 50.140625 66.21875 39.40625 66.21875 
z
M 39.40625 74.21875 
Q 54.734375 74.21875 63.90625 63.9375 
Q 73.09375 53.65625 73.09375 36.375 
Q 73.09375 19.140625 63.90625 8.859375 
Q 54.734375 -1.421875 39.40625 -1.421875 
Q 24.03125 -1.421875 14.8125 8.828125 
Q 5.609375 19.09375 5.609375 36.375 
Q 5.609375 53.65625 14.8125 63.9375 
Q 24.03125 74.21875 39.40625 74.21875 
z
" id="DejaVuSans-1054"/>
       <path d="M 48.78125 52.59375 
L 48.78125 44.1875 
Q 44.96875 46.296875 41.140625 47.34375 
Q 37.3125 48.390625 33.40625 48.390625 
Q 24.65625 48.390625 19.8125 42.84375 
Q 14.984375 37.3125 14.984375 27.296875 
Q 14.984375 17.28125 19.8125 11.734375 
Q 24.65625 6.203125 33.40625 6.203125 
Q 37.3125 6.203125 41.140625 7.25 
Q 44.96875 8.296875 48.78125 10.40625 
L 48.78125 2.09375 
Q 45.015625 0.34375 40.984375 -0.53125 
Q 36.96875 -1.421875 32.421875 -1.421875 
Q 20.0625 -1.421875 12.78125 6.34375 
Q 5.515625 14.109375 5.515625 27.296875 
Q 5.515625 40.671875 12.859375 48.328125 
Q 20.21875 56 33.015625 56 
Q 37.15625 56 41.109375 55.140625 
Q 45.0625 54.296875 48.78125 52.59375 
z
" id="DejaVuSans-99"/>
      </defs>
      <use xlink:href="#DejaVuSans-1044"/>
      <use x="78.125" xlink:href="#DejaVuSans-1080"/>
      <use x="143.115234" xlink:href="#DejaVuSans-1089"/>
      <use x="198.095703" xlink:href="#DejaVuSans-1082"/>
      <use x="258.496094" xlink:href="#DejaVuSans-1091"/>
      <use x="317.675781" xlink:href="#DejaVuSans-1089"/>
      <use x="372.65625" xlink:href="#DejaVuSans-1089"/>
      <use x="427.636719" xlink:href="#DejaVuSans-1080"/>
      <use x="492.626953" xlink:href="#DejaVuSans-1086"/>
      <use x="553.808594" xlink:href="#DejaVuSans-1085"/>
      <use x="619.189453" xlink:href="#DejaVuSans-1085"/>
      <use x="684.570312" xlink:href="#DejaVuSans-1099"/>
      <use x="763.525391" xlink:href="#DejaVuSans-1081"/>
      <use x="828.515625" xlink:href="#DejaVuSans-32"/>
      <use x="860.302734" xlink:href="#DejaVuSans-1050"/>
      <use x="931.298828" xlink:href="#DejaVuSans-1083"/>
      <use x="995.214844" xlink:href="#DejaVuSans-1091"/>
      <use x="1054.394531" xlink:href="#DejaVuSans-1073"/>
      <use x="1116.064453" xlink:href="#DejaVuSans-32"/>
      <use x="1147.851562" xlink:href="#DejaVuSans-1047"/>
      <use x="1211.962891" xlink:href="#DejaVuSans-1040"/>
      <use x="1280.371094" xlink:href="#DejaVuSans-32"/>
      <use x="1312.158203" xlink:href="#DejaVuSans-1055"/>
      <use x="1387.353516" xlink:href="#DejaVuSans-1056"/>
      <use x="1447.65625" xlink:href="#DejaVuSans-1040"/>
      <use x="1516.064453" xlink:href="#DejaVuSans-1042"/>
      <use x="1584.667969" xlink:href="#DejaVuSans-1044"/>
      <use x="1662.792969" xlink:href="#DejaVuSans-1059"/>
      <use x="1723.730469" xlink:href="#DejaVuSans-32"/>
      <use x="1755.517578" xlink:href="#DejaVuSans-1054"/>
      <use x="1834.228516" xlink:href="#DejaVuSans-1088"/>
      <use x="1897.705078" xlink:href="#DejaVuSans-1083"/>
      <use x="1961.621094" xlink:href="#DejaVuSans-1086"/>
      <use x="2022.802734" xlink:href="#DejaVuSans-1074"/>
      <use x="2081.738281" xlink:href="#DejaVuSans-1089"/>
      <use x="2136.71875" xlink:href="#DejaVuSans-1082"/>
      <use x="2197.119141" xlink:href="#DejaVuSans-1086"/>
      <use x="2258.300781" xlink:href="#DejaVuSans-1081"/>
      <use x="2323.291016" xlink:href="#DejaVuSans-32"/>
      <use x="2355.078125" xlink:href="#DejaVuSans-1086"/>
      <use x="2416.259766" xlink:href="#DejaVuSans-1073"/>
      <use x="2477.929688" xlink:href="#DejaVuSans-1083"/>
      <use x="2541.845703" xlink:href="#DejaVuSans-1072"/>
      <use x="2603.125" xlink:href="#DejaVuSans-1089"/>
      <use x="2658.105469" xlink:href="#DejaVuSans-1090"/>
      <use x="2716.357422" xlink:href="#DejaVuSans-1080"/>
      <use x="2781.347656" xlink:href="#DejaVuSans-32"/>
      <use x="2813.134766" xlink:href="#DejaVuSans-40"/>
      <use x="2852.148438" xlink:href="#DejaVuSans-99"/>
      <use x="2907.128906" xlink:href="#DejaVuSans-108"/>
      <use x="2934.912109" xlink:href="#DejaVuSans-117"/>
      <use x="2998.291016" xlink:href="#DejaVuSans-98"/>
      <use x="3061.767578" xlink:href="#DejaVuSans-49"/>
      <use x="3125.390625" xlink:href="#DejaVuSans-57"/>
      <use x="3189.013672" xlink:href="#DejaVuSans-52"/>
      <use x="3252.636719" xlink:href="#DejaVuSans-53"/>
      <use x="3316.259766" xlink:href="#DejaVuSans-48"/>
      <use x="3379.882812" xlink:href="#DejaVuSans-49"/>
      <use x="3443.505859" xlink:href="#DejaVuSans-53"/>
      <use x="3507.128906" xlink:href="#DejaVuSans-52"/>
      <use x="3570.751953" xlink:href="#DejaVuSans-55"/>
      <use x="3634.375" xlink:href="#DejaVuSans-41"/>
     </g>
    </g>
    <g id="patch_25">
     <path d="M 351 125.377031 
L 371 125.377031 
L 371 118.377031 
L 351 118.377031 
z
" style="fill:#9467bd;"/>
    </g>
    <g id="text_15">
     <!-- ЗА ПРАВДУ Кострома (zapravdu_kostroma) -->
     <g transform="translate(379 125.377031)scale(0.1 -0.1)">
      <defs>
       <path d="M 9.078125 54.6875 
L 22.21875 54.6875 
L 37.75 18.0625 
L 53.328125 54.6875 
L 66.359375 54.6875 
L 66.359375 0 
L 57.328125 0 
L 57.328125 46.09375 
L 42.234375 10.5 
L 33.25 10.5 
L 18.109375 46.09375 
L 18.109375 0 
L 9.078125 0 
z
" id="DejaVuSans-1084"/>
       <path d="M 44.28125 53.078125 
L 44.28125 44.578125 
Q 40.484375 46.53125 36.375 47.5 
Q 32.28125 48.484375 27.875 48.484375 
Q 21.1875 48.484375 17.84375 46.4375 
Q 14.5 44.390625 14.5 40.28125 
Q 14.5 37.15625 16.890625 35.375 
Q 19.28125 33.59375 26.515625 31.984375 
L 29.59375 31.296875 
Q 39.15625 29.25 43.1875 25.515625 
Q 47.21875 21.78125 47.21875 15.09375 
Q 47.21875 7.46875 41.1875 3.015625 
Q 35.15625 -1.421875 24.609375 -1.421875 
Q 20.21875 -1.421875 15.453125 -0.5625 
Q 10.6875 0.296875 5.421875 2 
L 5.421875 11.28125 
Q 10.40625 8.6875 15.234375 7.390625 
Q 20.0625 6.109375 24.8125 6.109375 
Q 31.15625 6.109375 34.5625 8.28125 
Q 37.984375 10.453125 37.984375 14.40625 
Q 37.984375 18.0625 35.515625 20.015625 
Q 33.0625 21.96875 24.703125 23.78125 
L 21.578125 24.515625 
Q 13.234375 26.265625 9.515625 29.90625 
Q 5.8125 33.546875 5.8125 39.890625 
Q 5.8125 47.609375 11.28125 51.796875 
Q 16.75 56 26.8125 56 
Q 31.78125 56 36.171875 55.265625 
Q 40.578125 54.546875 44.28125 53.078125 
z
" id="DejaVuSans-115"/>
       <path d="M 18.3125 70.21875 
L 18.3125 54.6875 
L 36.8125 54.6875 
L 36.8125 47.703125 
L 18.3125 47.703125 
L 18.3125 18.015625 
Q 18.3125 11.328125 20.140625 9.421875 
Q 21.96875 7.515625 27.59375 7.515625 
L 36.8125 7.515625 
L 36.8125 0 
L 27.59375 0 
Q 17.1875 0 13.234375 3.875 
Q 9.28125 7.765625 9.28125 18.015625 
L 9.28125 47.703125 
L 2.6875 47.703125 
L 2.6875 54.6875 
L 9.28125 54.6875 
L 9.28125 70.21875 
z
" id="DejaVuSans-116"/>
       <path d="M 52 44.1875 
Q 55.375 50.25 60.0625 53.125 
Q 64.75 56 71.09375 56 
Q 79.640625 56 84.28125 50.015625 
Q 88.921875 44.046875 88.921875 33.015625 
L 88.921875 0 
L 79.890625 0 
L 79.890625 32.71875 
Q 79.890625 40.578125 77.09375 44.375 
Q 74.3125 48.1875 68.609375 48.1875 
Q 61.625 48.1875 57.5625 43.546875 
Q 53.515625 38.921875 53.515625 30.90625 
L 53.515625 0 
L 44.484375 0 
L 44.484375 32.71875 
Q 44.484375 40.625 41.703125 44.40625 
Q 38.921875 48.1875 33.109375 48.1875 
Q 26.21875 48.1875 22.15625 43.53125 
Q 18.109375 38.875 18.109375 30.90625 
L 18.109375 0 
L 9.078125 0 
L 9.078125 54.6875 
L 18.109375 54.6875 
L 18.109375 46.1875 
Q 21.1875 51.21875 25.484375 53.609375 
Q 29.78125 56 35.6875 56 
Q 41.65625 56 45.828125 52.96875 
Q 50 49.953125 52 44.1875 
z
" id="DejaVuSans-109"/>
      </defs>
      <use xlink:href="#DejaVuSans-1047"/>
      <use x="64.111328" xlink:href="#DejaVuSans-1040"/>
      <use x="132.519531" xlink:href="#DejaVuSans-32"/>
      <use x="164.306641" xlink:href="#DejaVuSans-1055"/>
      <use x="239.501953" xlink:href="#DejaVuSans-1056"/>
      <use x="299.804688" xlink:href="#DejaVuSans-1040"/>
      <use x="368.212891" xlink:href="#DejaVuSans-1042"/>
      <use x="436.816406" xlink:href="#DejaVuSans-1044"/>
      <use x="514.941406" xlink:href="#DejaVuSans-1059"/>
      <use x="575.878906" xlink:href="#DejaVuSans-32"/>
      <use x="607.666016" xlink:href="#DejaVuSans-1050"/>
      <use x="678.662109" xlink:href="#DejaVuSans-1086"/>
      <use x="739.84375" xlink:href="#DejaVuSans-1089"/>
      <use x="794.824219" xlink:href="#DejaVuSans-1090"/>
      <use x="853.076172" xlink:href="#DejaVuSans-1088"/>
      <use x="916.552734" xlink:href="#DejaVuSans-1086"/>
      <use x="977.734375" xlink:href="#DejaVuSans-1084"/>
      <use x="1053.173828" xlink:href="#DejaVuSans-1072"/>
      <use x="1114.453125" xlink:href="#DejaVuSans-32"/>
      <use x="1146.240234" xlink:href="#DejaVuSans-40"/>
      <use x="1185.253906" xlink:href="#DejaVuSans-122"/>
      <use x="1237.744141" xlink:href="#DejaVuSans-97"/>
      <use x="1299.023438" xlink:href="#DejaVuSans-112"/>
      <use x="1362.5" xlink:href="#DejaVuSans-114"/>
      <use x="1403.613281" xlink:href="#DejaVuSans-97"/>
      <use x="1464.892578" xlink:href="#DejaVuSans-118"/>
      <use x="1524.072266" xlink:href="#DejaVuSans-100"/>
      <use x="1587.548828" xlink:href="#DejaVuSans-117"/>
      <use x="1650.927734" xlink:href="#DejaVuSans-95"/>
      <use x="1700.927734" xlink:href="#DejaVuSans-107"/>
      <use x="1755.212891" xlink:href="#DejaVuSans-111"/>
      <use x="1816.394531" xlink:href="#DejaVuSans-115"/>
      <use x="1868.494141" xlink:href="#DejaVuSans-116"/>
      <use x="1907.703125" xlink:href="#DejaVuSans-114"/>
      <use x="1946.566406" xlink:href="#DejaVuSans-111"/>
      <use x="2007.748047" xlink:href="#DejaVuSans-109"/>
      <use x="2105.160156" xlink:href="#DejaVuSans-97"/>
      <use x="2166.439453" xlink:href="#DejaVuSans-41"/>
     </g>
    </g>
    <g id="patch_26">
     <path d="M 351 140.503594 
L 371 140.503594 
L 371 133.503594 
L 351 133.503594 
z
" style="fill:#8c564b;"/>
    </g>
    <g id="text_16">
     <!-- ЗА ПРАВДУ Челябинская область (zapravdu_chelyabinsk) -->
     <g transform="translate(379 140.503594)scale(0.1 -0.1)">
      <defs>
       <path d="M 48.828125 0 
L 48.828125 29.890625 
L 28.46875 29.890625 
Q 19.390625 29.890625 13.96875 35.578125 
Q 8.546875 41.265625 8.546875 52.875 
L 8.546875 72.90625 
L 18.359375 72.90625 
L 18.359375 53.65625 
Q 18.359375 45.90625 21.390625 42.046875 
Q 24.421875 38.1875 30.46875 38.1875 
L 48.828125 38.1875 
L 48.828125 72.90625 
L 58.734375 72.90625 
L 58.734375 0 
z
" id="DejaVuSans-1063"/>
       <path d="M 18.453125 38.921875 
Q 18.453125 34.859375 21.578125 32.5625 
Q 24.703125 30.28125 30.515625 30.28125 
L 42.625 30.28125 
L 42.625 47.515625 
L 30.515625 47.515625 
Q 24.703125 47.515625 21.578125 45.265625 
Q 18.453125 43.015625 18.453125 38.921875 
z
M 5.671875 0 
L 22.359375 23.96875 
Q 16.703125 25.25 12.9375 28.59375 
Q 9.1875 31.9375 9.1875 38.921875 
Q 9.1875 46.828125 14.421875 50.75 
Q 19.671875 54.6875 30.28125 54.6875 
L 51.65625 54.6875 
L 51.65625 0 
L 42.625 0 
L 42.625 23.09375 
L 31.453125 23.09375 
L 15.328125 0 
z
" id="DejaVuSans-1103"/>
       <path d="M 43.453125 16.21875 
Q 43.453125 20.609375 40.25 22.90625 
Q 37.0625 25.203125 30.90625 25.203125 
L 18.109375 25.203125 
L 18.109375 7.171875 
L 30.90625 7.171875 
Q 37.0625 7.171875 40.25 9.484375 
Q 43.453125 11.8125 43.453125 16.21875 
z
M 9.078125 54.6875 
L 18.109375 54.6875 
L 18.109375 32.375 
L 31.296875 32.375 
Q 41.75 32.375 47.390625 28.390625 
Q 53.03125 24.421875 53.03125 16.21875 
Q 53.03125 8.015625 47.390625 4 
Q 41.75 0 31.296875 0 
L 9.078125 0 
z
" id="DejaVuSans-1100"/>
       <path d="M 32.171875 -5.078125 
Q 28.375 -14.84375 24.75 -17.8125 
Q 21.140625 -20.796875 15.09375 -20.796875 
L 7.90625 -20.796875 
L 7.90625 -13.28125 
L 13.1875 -13.28125 
Q 16.890625 -13.28125 18.9375 -11.515625 
Q 21 -9.765625 23.484375 -3.21875 
L 25.09375 0.875 
L 2.984375 54.6875 
L 12.5 54.6875 
L 29.59375 11.921875 
L 46.6875 54.6875 
L 56.203125 54.6875 
z
" id="DejaVuSans-121"/>
      </defs>
      <use xlink:href="#DejaVuSans-1047"/>
      <use x="64.111328" xlink:href="#DejaVuSans-1040"/>
      <use x="132.519531" xlink:href="#DejaVuSans-32"/>
      <use x="164.306641" xlink:href="#DejaVuSans-1055"/>
      <use x="239.501953" xlink:href="#DejaVuSans-1056"/>
      <use x="299.804688" xlink:href="#DejaVuSans-1040"/>
      <use x="368.212891" xlink:href="#DejaVuSans-1042"/>
      <use x="436.816406" xlink:href="#DejaVuSans-1044"/>
      <use x="514.941406" xlink:href="#DejaVuSans-1059"/>
      <use x="575.878906" xlink:href="#DejaVuSans-32"/>
      <use x="607.666016" xlink:href="#DejaVuSans-1063"/>
      <use x="676.220703" xlink:href="#DejaVuSans-1077"/>
      <use x="737.744141" xlink:href="#DejaVuSans-1083"/>
      <use x="801.660156" xlink:href="#DejaVuSans-1103"/>
      <use x="861.816406" xlink:href="#DejaVuSans-1073"/>
      <use x="923.486328" xlink:href="#DejaVuSans-1080"/>
      <use x="988.476562" xlink:href="#DejaVuSans-1085"/>
      <use x="1053.857422" xlink:href="#DejaVuSans-1089"/>
      <use x="1108.837891" xlink:href="#DejaVuSans-1082"/>
      <use x="1169.238281" xlink:href="#DejaVuSans-1072"/>
      <use x="1230.517578" xlink:href="#DejaVuSans-1103"/>
      <use x="1290.673828" xlink:href="#DejaVuSans-32"/>
      <use x="1322.460938" xlink:href="#DejaVuSans-1086"/>
      <use x="1383.642578" xlink:href="#DejaVuSans-1073"/>
      <use x="1445.3125" xlink:href="#DejaVuSans-1083"/>
      <use x="1509.228516" xlink:href="#DejaVuSans-1072"/>
      <use x="1570.507812" xlink:href="#DejaVuSans-1089"/>
      <use x="1625.488281" xlink:href="#DejaVuSans-1090"/>
      <use x="1683.740234" xlink:href="#DejaVuSans-1100"/>
      <use x="1742.675781" xlink:href="#DejaVuSans-32"/>
      <use x="1774.462891" xlink:href="#DejaVuSans-40"/>
      <use x="1813.476562" xlink:href="#DejaVuSans-122"/>
      <use x="1865.966797" xlink:href="#DejaVuSans-97"/>
      <use x="1927.246094" xlink:href="#DejaVuSans-112"/>
      <use x="1990.722656" xlink:href="#DejaVuSans-114"/>
      <use x="2031.835938" xlink:href="#DejaVuSans-97"/>
      <use x="2093.115234" xlink:href="#DejaVuSans-118"/>
      <use x="2152.294922" xlink:href="#DejaVuSans-100"/>
      <use x="2215.771484" xlink:href="#DejaVuSans-117"/>
      <use x="2279.150391" xlink:href="#DejaVuSans-95"/>
      <use x="2329.150391" xlink:href="#DejaVuSans-99"/>
      <use x="2384.130859" xlink:href="#DejaVuSans-104"/>
      <use x="2447.509766" xlink:href="#DejaVuSans-101"/>
      <use x="2509.033203" xlink:href="#DejaVuSans-108"/>
      <use x="2536.816406" xlink:href="#DejaVuSans-121"/>
      <use x="2595.996094" xlink:href="#DejaVuSans-97"/>
      <use x="2657.275391" xlink:href="#DejaVuSans-98"/>
      <use x="2720.751953" xlink:href="#DejaVuSans-105"/>
      <use x="2748.535156" xlink:href="#DejaVuSans-110"/>
      <use x="2811.914062" xlink:href="#DejaVuSans-115"/>
      <use x="2864.013672" xlink:href="#DejaVuSans-107"/>
      <use x="2921.923828" xlink:href="#DejaVuSans-41"/>
     </g>
    </g>
    <g id="patch_27">
     <path d="M 351 155.459844 
L 371 155.459844 
L 371 148.459844 
L 351 148.459844 
z
" style="fill:#e377c2;"/>
    </g>
    <g id="text_17">
     <!-- Севастополь ЗА ПРАВДУ (zapravdu_sevastopol) -->
     <g transform="translate(379 155.459844)scale(0.1 -0.1)">
      <defs>
       <path d="M 64.40625 67.28125 
L 64.40625 56.890625 
Q 59.421875 61.53125 53.78125 63.8125 
Q 48.140625 66.109375 41.796875 66.109375 
Q 29.296875 66.109375 22.65625 58.46875 
Q 16.015625 50.828125 16.015625 36.375 
Q 16.015625 21.96875 22.65625 14.328125 
Q 29.296875 6.6875 41.796875 6.6875 
Q 48.140625 6.6875 53.78125 8.984375 
Q 59.421875 11.28125 64.40625 15.921875 
L 64.40625 5.609375 
Q 59.234375 2.09375 53.4375 0.328125 
Q 47.65625 -1.421875 41.21875 -1.421875 
Q 24.65625 -1.421875 15.125 8.703125 
Q 5.609375 18.84375 5.609375 36.375 
Q 5.609375 53.953125 15.125 64.078125 
Q 24.65625 74.21875 41.21875 74.21875 
Q 47.75 74.21875 53.53125 72.484375 
Q 59.328125 70.75 64.40625 67.28125 
z
" id="DejaVuSans-1057"/>
      </defs>
      <use xlink:href="#DejaVuSans-1057"/>
      <use x="69.824219" xlink:href="#DejaVuSans-1077"/>
      <use x="131.347656" xlink:href="#DejaVuSans-1074"/>
      <use x="190.283203" xlink:href="#DejaVuSans-1072"/>
      <use x="251.5625" xlink:href="#DejaVuSans-1089"/>
      <use x="306.542969" xlink:href="#DejaVuSans-1090"/>
      <use x="364.794922" xlink:href="#DejaVuSans-1086"/>
      <use x="425.976562" xlink:href="#DejaVuSans-1087"/>
      <use x="491.357422" xlink:href="#DejaVuSans-1086"/>
      <use x="552.539062" xlink:href="#DejaVuSans-1083"/>
      <use x="616.455078" xlink:href="#DejaVuSans-1100"/>
      <use x="675.390625" xlink:href="#DejaVuSans-32"/>
      <use x="707.177734" xlink:href="#DejaVuSans-1047"/>
      <use x="771.289062" xlink:href="#DejaVuSans-1040"/>
      <use x="839.697266" xlink:href="#DejaVuSans-32"/>
      <use x="871.484375" xlink:href="#DejaVuSans-1055"/>
      <use x="946.679688" xlink:href="#DejaVuSans-1056"/>
      <use x="1006.982422" xlink:href="#DejaVuSans-1040"/>
      <use x="1075.390625" xlink:href="#DejaVuSans-1042"/>
      <use x="1143.994141" xlink:href="#DejaVuSans-1044"/>
      <use x="1222.119141" xlink:href="#DejaVuSans-1059"/>
      <use x="1283.056641" xlink:href="#DejaVuSans-32"/>
      <use x="1314.84375" xlink:href="#DejaVuSans-40"/>
      <use x="1353.857422" xlink:href="#DejaVuSans-122"/>
      <use x="1406.347656" xlink:href="#DejaVuSans-97"/>
      <use x="1467.626953" xlink:href="#DejaVuSans-112"/>
      <use x="1531.103516" xlink:href="#DejaVuSans-114"/>
      <use x="1572.216797" xlink:href="#DejaVuSans-97"/>
      <use x="1633.496094" xlink:href="#DejaVuSans-118"/>
      <use x="1692.675781" xlink:href="#DejaVuSans-100"/>
      <use x="1756.152344" xlink:href="#DejaVuSans-117"/>
      <use x="1819.53125" xlink:href="#DejaVuSans-95"/>
      <use x="1869.53125" xlink:href="#DejaVuSans-115"/>
      <use x="1921.630859" xlink:href="#DejaVuSans-101"/>
      <use x="1983.154297" xlink:href="#DejaVuSans-118"/>
      <use x="2042.333984" xlink:href="#DejaVuSans-97"/>
      <use x="2103.613281" xlink:href="#DejaVuSans-115"/>
      <use x="2155.712891" xlink:href="#DejaVuSans-116"/>
      <use x="2194.921875" xlink:href="#DejaVuSans-111"/>
      <use x="2256.103516" xlink:href="#DejaVuSans-112"/>
      <use x="2319.580078" xlink:href="#DejaVuSans-111"/>
      <use x="2380.761719" xlink:href="#DejaVuSans-108"/>
      <use x="2408.544922" xlink:href="#DejaVuSans-41"/>
     </g>
    </g>
    <g id="patch_28">
     <path d="M 351 170.586406 
L 371 170.586406 
L 371 163.586406 
L 351 163.586406 
z
" style="fill:#7f7f7f;"/>
    </g>
    <g id="text_18">
     <!-- ЗА ПРАВДУ Белгородская область (zapravdu_belgorodobl) -->
     <g transform="translate(379 170.586406)scale(0.1 -0.1)">
      <defs>
       <path d="M 51.125 21.4375 
Q 51.125 28.21875 47.28125 31.515625 
Q 43.453125 34.8125 35.5 34.8125 
L 19.671875 34.8125 
L 19.671875 8.109375 
L 35.5 8.109375 
Q 43.453125 8.109375 47.28125 11.40625 
Q 51.125 14.703125 51.125 21.4375 
z
M 56.390625 72.90625 
L 56.390625 64.796875 
L 19.671875 64.796875 
L 19.671875 42.921875 
L 35.984375 42.921875 
Q 48.25 42.921875 54.890625 37.59375 
Q 61.53125 32.28125 61.53125 21.4375 
Q 61.53125 10.640625 55.109375 5.3125 
Q 48.6875 0 35.984375 0 
L 9.8125 0 
L 9.8125 72.90625 
z
" id="DejaVuSans-1041"/>
       <path d="M 21.625 7.171875 
L 47.703125 7.171875 
L 47.703125 47.515625 
L 28.8125 47.515625 
L 28.8125 40.671875 
Q 28.8125 20.5625 23.046875 9.8125 
z
M 8.59375 7.171875 
Q 13.03125 9.125 14.984375 13.28125 
Q 19.78125 23.578125 19.78125 44.34375 
L 19.78125 54.6875 
L 56.734375 54.6875 
L 56.734375 7.171875 
L 63.921875 7.171875 
L 63.921875 -13.8125 
L 56.734375 -13.8125 
L 56.734375 0 
L 12.40625 0 
L 12.40625 -13.8125 
L 5.21875 -13.8125 
L 5.21875 7.171875 
z
" id="DejaVuSans-1076"/>
      </defs>
      <use xlink:href="#DejaVuSans-1047"/>
      <use x="64.111328" xlink:href="#DejaVuSans-1040"/>
      <use x="132.519531" xlink:href="#DejaVuSans-32"/>
      <use x="164.306641" xlink:href="#DejaVuSans-1055"/>
      <use x="239.501953" xlink:href="#DejaVuSans-1056"/>
      <use x="299.804688" xlink:href="#DejaVuSans-1040"/>
      <use x="368.212891" xlink:href="#DejaVuSans-1042"/>
      <use x="436.816406" xlink:href="#DejaVuSans-1044"/>
      <use x="514.941406" xlink:href="#DejaVuSans-1059"/>
      <use x="575.878906" xlink:href="#DejaVuSans-32"/>
      <use x="607.666016" xlink:href="#DejaVuSans-1041"/>
      <use x="676.269531" xlink:href="#DejaVuSans-1077"/>
      <use x="737.792969" xlink:href="#DejaVuSans-1083"/>
      <use x="801.708984" xlink:href="#DejaVuSans-1075"/>
      <use x="854.248047" xlink:href="#DejaVuSans-1086"/>
      <use x="915.429688" xlink:href="#DejaVuSans-1088"/>
      <use x="978.90625" xlink:href="#DejaVuSans-1086"/>
      <use x="1040.087891" xlink:href="#DejaVuSans-1076"/>
      <use x="1109.228516" xlink:href="#DejaVuSans-1089"/>
      <use x="1164.208984" xlink:href="#DejaVuSans-1082"/>
      <use x="1224.609375" xlink:href="#DejaVuSans-1072"/>
      <use x="1285.888672" xlink:href="#DejaVuSans-1103"/>
      <use x="1346.044922" xlink:href="#DejaVuSans-32"/>
      <use x="1377.832031" xlink:href="#DejaVuSans-1086"/>
      <use x="1439.013672" xlink:href="#DejaVuSans-1073"/>
      <use x="1500.683594" xlink:href="#DejaVuSans-1083"/>
      <use x="1564.599609" xlink:href="#DejaVuSans-1072"/>
      <use x="1625.878906" xlink:href="#DejaVuSans-1089"/>
      <use x="1680.859375" xlink:href="#DejaVuSans-1090"/>
      <use x="1739.111328" xlink:href="#DejaVuSans-1100"/>
      <use x="1798.046875" xlink:href="#DejaVuSans-32"/>
      <use x="1829.833984" xlink:href="#DejaVuSans-40"/>
      <use x="1868.847656" xlink:href="#DejaVuSans-122"/>
      <use x="1921.337891" xlink:href="#DejaVuSans-97"/>
      <use x="1982.617188" xlink:href="#DejaVuSans-112"/>
      <use x="2046.09375" xlink:href="#DejaVuSans-114"/>
      <use x="2087.207031" xlink:href="#DejaVuSans-97"/>
      <use x="2148.486328" xlink:href="#DejaVuSans-118"/>
      <use x="2207.666016" xlink:href="#DejaVuSans-100"/>
      <use x="2271.142578" xlink:href="#DejaVuSans-117"/>
      <use x="2334.521484" xlink:href="#DejaVuSans-95"/>
      <use x="2384.521484" xlink:href="#DejaVuSans-98"/>
      <use x="2447.998047" xlink:href="#DejaVuSans-101"/>
      <use x="2509.521484" xlink:href="#DejaVuSans-108"/>
      <use x="2537.304688" xlink:href="#DejaVuSans-103"/>
      <use x="2600.78125" xlink:href="#DejaVuSans-111"/>
      <use x="2661.962891" xlink:href="#DejaVuSans-114"/>
      <use x="2700.826172" xlink:href="#DejaVuSans-111"/>
      <use x="2762.007812" xlink:href="#DejaVuSans-100"/>
      <use x="2825.484375" xlink:href="#DejaVuSans-111"/>
      <use x="2886.666016" xlink:href="#DejaVuSans-98"/>
      <use x="2950.142578" xlink:href="#DejaVuSans-108"/>
      <use x="2977.925781" xlink:href="#DejaVuSans-41"/>
     </g>
    </g>
    <g id="patch_29">
     <path d="M 351 185.712969 
L 371 185.712969 
L 371 178.712969 
L 351 178.712969 
z
" style="fill:#bcbd22;"/>
    </g>
    <g id="text_19">
     <!-- ЗА ПРАВДУ Калужская область (zapravdu_kaluga) -->
     <g transform="translate(379 185.712969)scale(0.1 -0.1)">
      <use xlink:href="#DejaVuSans-1047"/>
      <use x="64.111328" xlink:href="#DejaVuSans-1040"/>
      <use x="132.519531" xlink:href="#DejaVuSans-32"/>
      <use x="164.306641" xlink:href="#DejaVuSans-1055"/>
      <use x="239.501953" xlink:href="#DejaVuSans-1056"/>
      <use x="299.804688" xlink:href="#DejaVuSans-1040"/>
      <use x="368.212891" xlink:href="#DejaVuSans-1042"/>
      <use x="436.816406" xlink:href="#DejaVuSans-1044"/>
      <use x="514.941406" xlink:href="#DejaVuSans-1059"/>
      <use x="575.878906" xlink:href="#DejaVuSans-32"/>
      <use x="607.666016" xlink:href="#DejaVuSans-1050"/>
      <use x="678.662109" xlink:href="#DejaVuSans-1072"/>
      <use x="739.941406" xlink:href="#DejaVuSans-1083"/>
      <use x="803.857422" xlink:href="#DejaVuSans-1091"/>
      <use x="863.037109" xlink:href="#DejaVuSans-1078"/>
      <use x="953.125" xlink:href="#DejaVuSans-1089"/>
      <use x="1008.105469" xlink:href="#DejaVuSans-1082"/>
      <use x="1068.505859" xlink:href="#DejaVuSans-1072"/>
      <use x="1129.785156" xlink:href="#DejaVuSans-1103"/>
      <use x="1189.941406" xlink:href="#DejaVuSans-32"/>
      <use x="1221.728516" xlink:href="#DejaVuSans-1086"/>
      <use x="1282.910156" xlink:href="#DejaVuSans-1073"/>
      <use x="1344.580078" xlink:href="#DejaVuSans-1083"/>
      <use x="1408.496094" xlink:href="#DejaVuSans-1072"/>
      <use x="1469.775391" xlink:href="#DejaVuSans-1089"/>
      <use x="1524.755859" xlink:href="#DejaVuSans-1090"/>
      <use x="1583.007812" xlink:href="#DejaVuSans-1100"/>
      <use x="1641.943359" xlink:href="#DejaVuSans-32"/>
      <use x="1673.730469" xlink:href="#DejaVuSans-40"/>
      <use x="1712.744141" xlink:href="#DejaVuSans-122"/>
      <use x="1765.234375" xlink:href="#DejaVuSans-97"/>
      <use x="1826.513672" xlink:href="#DejaVuSans-112"/>
      <use x="1889.990234" xlink:href="#DejaVuSans-114"/>
      <use x="1931.103516" xlink:href="#DejaVuSans-97"/>
      <use x="1992.382812" xlink:href="#DejaVuSans-118"/>
      <use x="2051.5625" xlink:href="#DejaVuSans-100"/>
      <use x="2115.039062" xlink:href="#DejaVuSans-117"/>
      <use x="2178.417969" xlink:href="#DejaVuSans-95"/>
      <use x="2228.417969" xlink:href="#DejaVuSans-107"/>
      <use x="2284.578125" xlink:href="#DejaVuSans-97"/>
      <use x="2345.857422" xlink:href="#DejaVuSans-108"/>
      <use x="2373.640625" xlink:href="#DejaVuSans-117"/>
      <use x="2437.019531" xlink:href="#DejaVuSans-103"/>
      <use x="2500.496094" xlink:href="#DejaVuSans-97"/>
      <use x="2561.775391" xlink:href="#DejaVuSans-41"/>
     </g>
    </g>
   </g>
  </g>
 </g>
</svg>
