<?xml version="1.0" encoding="utf-8" standalone="no"?>
<!DOCTYPE svg PUBLIC "-//W3C//DTD SVG 1.1//EN"
  "http://www.w3.org/Graphics/SVG/1.1/DTD/svg11.dtd">
<!-- Created with matplotlib (https://matplotlib.org/) -->
<svg height="231.84pt" version="1.1" viewBox="0 0 695.78125 231.84" width="695.78125pt" xmlns="http://www.w3.org/2000/svg" xmlns:xlink="http://www.w3.org/1999/xlink">
 <metadata>
  <rdf:RDF xmlns:cc="http://creativecommons.org/ns#" xmlns:dc="http://purl.org/dc/elements/1.1/" xmlns:rdf="http://www.w3.org/1999/02/22-rdf-syntax-ns#">
   <cc:Work>
    <dc:type rdf:resource="http://purl.org/dc/dcmitype/StillImage"/>
    <dc:date>2020-12-02T00:32:18.008221</dc:date>
    <dc:format>image/svg+xml</dc:format>
    <dc:creator>
     <cc:Agent>
      <dc:title>Matplotlib v3.3.3, https://matplotlib.org/</dc:title>
     </cc:Agent>
    </dc:creator>
   </cc:Work>
  </rdf:RDF>
 </metadata>
 <defs>
  <style type="text/css">*{stroke-linecap:butt;stroke-linejoin:round;}</style>
 </defs>
 <g id="figure_1">
  <g id="patch_1">
   <path d="M 0 231.84 
L 695.78125 231.84 
L 695.78125 0 
L 0 0 
z
" style="fill:none;"/>
  </g>
  <g id="axes_1">
   <g id="patch_2">
    <path d="M 271.057586 114.64803 
C 271.057586 104.200562 269.229542 93.833212 265.656298 84.015803 
C 262.083053 74.198394 256.819412 65.0815 250.103908 57.078275 
L 181.494947 114.64803 
L 271.057586 114.64803 
z
" style="fill:#092436;opacity:0.5;stroke:#092436;stroke-linejoin:miter;"/>
   </g>
   <g id="patch_3">
    <path d="M 246.165905 52.385145 
C 239.450402 44.38192 231.386035 37.615114 222.338262 32.391379 
C 213.290489 27.167645 203.398079 23.567103 193.109332 21.752919 
L 177.556943 109.954901 
L 246.165905 52.385145 
z
" style="fill:#4c2604;opacity:0.5;stroke:#4c2604;stroke-linejoin:miter;"/>
   </g>
   <g id="patch_4">
    <path d="M 187.075961 20.689073 
C 176.787213 18.874889 166.25993 18.874889 155.971182 20.689073 
C 145.682434 22.503257 135.790025 26.1038 126.742252 31.327534 
L 171.523572 108.891055 
L 187.075961 20.689073 
z
" style="fill:#0d300d;opacity:0.5;stroke:#0d300d;stroke-linejoin:miter;"/>
   </g>
   <g id="patch_5">
    <path d="M 121.436594 34.390757 
C 112.388821 39.614492 104.324455 46.381299 97.608952 54.384524 
C 90.893449 62.387749 85.629808 71.504643 82.056563 81.322052 
L 166.217915 111.954277 
L 121.436594 34.390757 
z
" style="fill:#400c0c;opacity:0.5;stroke:#400c0c;stroke-linejoin:miter;"/>
   </g>
   <g id="patch_6">
    <path d="M 79.961196 87.079028 
C 76.387951 96.896437 74.559908 107.263787 74.559908 117.711255 
C 74.559909 128.158723 76.387952 138.526073 79.961197 148.343482 
L 164.122548 117.711253 
L 79.961196 87.079028 
z
" style="fill:#2c1f39;opacity:0.5;stroke:#2c1f39;stroke-linejoin:miter;"/>
   </g>
   <g id="patch_7">
    <path d="M 82.056565 154.100457 
C 85.62981 163.917866 90.893451 173.03476 97.608955 181.037985 
C 104.324458 189.04121 112.388825 195.808017 121.436598 201.031751 
L 166.217915 123.468228 
L 82.056565 154.100457 
z
" style="fill:#2a1a16;opacity:0.5;stroke:#2a1a16;stroke-linejoin:miter;"/>
   </g>
   <g id="patch_8">
    <path d="M 126.742256 204.094973 
C 135.790029 209.318707 145.682439 212.919249 155.971187 214.733433 
C 166.259935 216.547616 176.787217 216.547616 187.075965 214.733432 
L 171.523573 126.531451 
L 126.742256 204.094973 
z
" style="fill:#44243a;opacity:0.5;stroke:#44243a;stroke-linejoin:miter;"/>
   </g>
   <g id="patch_9">
    <path d="M 193.109336 213.669586 
C 203.398084 211.855401 213.290493 208.254858 222.338266 203.031124 
C 231.386039 197.807389 239.450405 191.040582 246.165908 183.037357 
L 177.556944 125.467605 
L 193.109336 213.669586 
z
" style="fill:#262626;opacity:0.5;stroke:#262626;stroke-linejoin:miter;"/>
   </g>
   <g id="patch_10">
    <path d="M 250.103911 178.344227 
C 256.819414 170.341001 262.083055 161.224107 265.656299 151.406698 
C 269.229543 141.589289 271.057586 131.221939 271.057586 120.774471 
L 181.494947 120.774475 
L 250.103911 178.344227 
z
" style="fill:#38390a;opacity:0.5;stroke:#38390a;stroke-linejoin:miter;"/>
   </g>
   <g id="patch_11">
    <path d="M 272.848839 112.856777 
C 272.848839 102.409309 271.020795 92.041959 267.44755 82.22455 
C 263.874306 72.407141 258.610664 63.290247 251.895161 55.287022 
L 183.286199 112.856777 
L 272.848839 112.856777 
z
" style="fill:#1f77b4;"/>
   </g>
   <g id="patch_12">
    <path d="M 247.957158 50.593893 
C 241.241655 42.590668 233.177288 35.823861 224.129515 30.600127 
C 215.081742 25.376392 205.189332 21.77585 194.900584 19.961666 
L 179.348196 108.163648 
L 247.957158 50.593893 
z
" style="fill:#ff7f0e;"/>
   </g>
   <g id="patch_13">
    <path d="M 188.867213 18.89782 
C 178.578465 17.083636 168.051183 17.083636 157.762435 18.89782 
C 147.473687 20.712004 137.581277 24.312547 128.533504 29.536282 
L 173.314825 107.099802 
L 188.867213 18.89782 
z
" style="fill:#2ca02c;"/>
   </g>
   <g id="patch_14">
    <path d="M 123.227847 32.599504 
C 114.180074 37.823239 106.115708 44.590046 99.400205 52.593271 
C 92.684702 60.596496 87.421061 69.713391 83.847816 79.5308 
L 168.009168 110.163025 
L 123.227847 32.599504 
z
" style="fill:#d62728;"/>
   </g>
   <g id="patch_15">
    <path d="M 81.752448 85.287775 
C 78.179204 95.105184 76.351161 105.472534 76.351161 115.920002 
C 76.351161 126.367471 78.179205 136.73482 81.75245 146.552229 
L 165.9138 115.92 
L 81.752448 85.287775 
z
" style="fill:#9467bd;"/>
   </g>
   <g id="patch_16">
    <path d="M 83.847818 152.309204 
C 87.421063 162.126613 92.684704 171.243507 99.400208 179.246732 
C 106.115711 187.249957 114.180078 194.016764 123.227851 199.240498 
L 168.009168 121.676976 
L 83.847818 152.309204 
z
" style="fill:#8c564b;"/>
   </g>
   <g id="patch_17">
    <path d="M 128.533508 202.30372 
C 137.581282 207.527454 147.473692 211.127997 157.762439 212.94218 
C 168.051187 214.756364 178.57847 214.756363 188.867218 212.942179 
L 173.314826 124.740198 
L 128.533508 202.30372 
z
" style="fill:#e377c2;"/>
   </g>
   <g id="patch_18">
    <path d="M 194.900589 211.878333 
C 205.189337 210.064149 215.081746 206.463605 224.129519 201.239871 
C 233.177292 196.016136 241.241658 189.249329 247.957161 181.246104 
L 179.348196 123.676352 
L 194.900589 211.878333 
z
" style="fill:#7f7f7f;"/>
   </g>
   <g id="patch_19">
    <path d="M 251.895164 176.552974 
C 258.610667 168.549749 263.874308 159.432854 267.447552 149.615445 
C 271.020796 139.798036 272.848839 129.430686 272.848839 118.983218 
L 183.286199 118.983222 
L 251.895164 176.552974 
z
" style="fill:#bcbd22;"/>
   </g>
   <g id="matplotlib.axis_1"/>
   <g id="matplotlib.axis_2"/>
   <g id="text_1">
    <!-- 11.1% -->
    <g style="fill:#ffffff;" transform="translate(217.899416 97.236816)scale(0.1 -0.1)">
     <defs>
      <path d="M 12.40625 8.296875 
L 28.515625 8.296875 
L 28.515625 63.921875 
L 10.984375 60.40625 
L 10.984375 69.390625 
L 28.421875 72.90625 
L 38.28125 72.90625 
L 38.28125 8.296875 
L 54.390625 8.296875 
L 54.390625 0 
L 12.40625 0 
z
" id="DejaVuSans-49"/>
      <path d="M 10.6875 12.40625 
L 21 12.40625 
L 21 0 
L 10.6875 0 
z
" id="DejaVuSans-46"/>
      <path d="M 72.703125 32.078125 
Q 68.453125 32.078125 66.03125 28.46875 
Q 63.625 24.859375 63.625 18.40625 
Q 63.625 12.0625 66.03125 8.421875 
Q 68.453125 4.78125 72.703125 4.78125 
Q 76.859375 4.78125 79.265625 8.421875 
Q 81.6875 12.0625 81.6875 18.40625 
Q 81.6875 24.8125 79.265625 28.4375 
Q 76.859375 32.078125 72.703125 32.078125 
z
M 72.703125 38.28125 
Q 80.421875 38.28125 84.953125 32.90625 
Q 89.5 27.546875 89.5 18.40625 
Q 89.5 9.28125 84.9375 3.921875 
Q 80.375 -1.421875 72.703125 -1.421875 
Q 64.890625 -1.421875 60.34375 3.921875 
Q 55.8125 9.28125 55.8125 18.40625 
Q 55.8125 27.59375 60.375 32.9375 
Q 64.9375 38.28125 72.703125 38.28125 
z
M 22.3125 68.015625 
Q 18.109375 68.015625 15.6875 64.375 
Q 13.28125 60.75 13.28125 54.390625 
Q 13.28125 47.953125 15.671875 44.328125 
Q 18.0625 40.71875 22.3125 40.71875 
Q 26.5625 40.71875 28.96875 44.328125 
Q 31.390625 47.953125 31.390625 54.390625 
Q 31.390625 60.6875 28.953125 64.34375 
Q 26.515625 68.015625 22.3125 68.015625 
z
M 66.40625 74.21875 
L 74.21875 74.21875 
L 28.609375 -1.421875 
L 20.796875 -1.421875 
z
M 22.3125 74.21875 
Q 30.03125 74.21875 34.609375 68.875 
Q 39.203125 63.53125 39.203125 54.390625 
Q 39.203125 45.171875 34.640625 39.84375 
Q 30.078125 34.515625 22.3125 34.515625 
Q 14.546875 34.515625 10.03125 39.859375 
Q 5.515625 45.21875 5.515625 54.390625 
Q 5.515625 63.484375 10.046875 68.84375 
Q 14.59375 74.21875 22.3125 74.21875 
z
" id="DejaVuSans-37"/>
     </defs>
     <use xlink:href="#DejaVuSans-49"/>
     <use x="63.623047" xlink:href="#DejaVuSans-49"/>
     <use x="127.246094" xlink:href="#DejaVuSans-46"/>
     <use x="159.033203" xlink:href="#DejaVuSans-49"/>
     <use x="222.65625" xlink:href="#DejaVuSans-37"/>
    </g>
   </g>
   <g id="text_2">
    <!-- 11.1% -->
    <g style="fill:#ffffff;" transform="translate(190.333394 64.38491)scale(0.1 -0.1)">
     <use xlink:href="#DejaVuSans-49"/>
     <use x="63.623047" xlink:href="#DejaVuSans-49"/>
     <use x="127.246094" xlink:href="#DejaVuSans-46"/>
     <use x="159.033203" xlink:href="#DejaVuSans-49"/>
     <use x="222.65625" xlink:href="#DejaVuSans-37"/>
    </g>
   </g>
   <g id="text_3">
    <!-- 11.1% -->
    <g style="fill:#ffffff;" transform="translate(148.099797 56.937988)scale(0.1 -0.1)">
     <use xlink:href="#DejaVuSans-49"/>
     <use x="63.623047" xlink:href="#DejaVuSans-49"/>
     <use x="127.246094" xlink:href="#DejaVuSans-46"/>
     <use x="159.033203" xlink:href="#DejaVuSans-49"/>
     <use x="222.65625" xlink:href="#DejaVuSans-37"/>
    </g>
   </g>
   <g id="text_4">
    <!-- 11.1% -->
    <g style="fill:#ffffff;" transform="translate(110.960196 78.380547)scale(0.1 -0.1)">
     <use xlink:href="#DejaVuSans-49"/>
     <use x="63.623047" xlink:href="#DejaVuSans-49"/>
     <use x="127.246094" xlink:href="#DejaVuSans-46"/>
     <use x="159.033203" xlink:href="#DejaVuSans-49"/>
     <use x="222.65625" xlink:href="#DejaVuSans-37"/>
    </g>
   </g>
   <g id="text_5">
    <!-- 11.1% -->
    <g style="fill:#ffffff;" transform="translate(96.292623 118.679376)scale(0.1 -0.1)">
     <use xlink:href="#DejaVuSans-49"/>
     <use x="63.623047" xlink:href="#DejaVuSans-49"/>
     <use x="127.246094" xlink:href="#DejaVuSans-46"/>
     <use x="159.033203" xlink:href="#DejaVuSans-49"/>
     <use x="222.65625" xlink:href="#DejaVuSans-37"/>
    </g>
   </g>
   <g id="text_6">
    <!-- 11.1% -->
    <g style="fill:#ffffff;" transform="translate(110.960198 158.978205)scale(0.1 -0.1)">
     <use xlink:href="#DejaVuSans-49"/>
     <use x="63.623047" xlink:href="#DejaVuSans-49"/>
     <use x="127.246094" xlink:href="#DejaVuSans-46"/>
     <use x="159.033203" xlink:href="#DejaVuSans-49"/>
     <use x="222.65625" xlink:href="#DejaVuSans-37"/>
    </g>
   </g>
   <g id="text_7">
    <!-- 11.1% -->
    <g style="fill:#ffffff;" transform="translate(148.0998 180.420762)scale(0.1 -0.1)">
     <use xlink:href="#DejaVuSans-49"/>
     <use x="63.623047" xlink:href="#DejaVuSans-49"/>
     <use x="127.246094" xlink:href="#DejaVuSans-46"/>
     <use x="159.033203" xlink:href="#DejaVuSans-49"/>
     <use x="222.65625" xlink:href="#DejaVuSans-37"/>
    </g>
   </g>
   <g id="text_8">
    <!-- 11.1% -->
    <g style="fill:#ffffff;" transform="translate(190.333396 172.973838)scale(0.1 -0.1)">
     <use xlink:href="#DejaVuSans-49"/>
     <use x="63.623047" xlink:href="#DejaVuSans-49"/>
     <use x="127.246094" xlink:href="#DejaVuSans-46"/>
     <use x="159.033203" xlink:href="#DejaVuSans-49"/>
     <use x="222.65625" xlink:href="#DejaVuSans-37"/>
    </g>
   </g>
   <g id="text_9">
    <!-- 11.1% -->
    <g style="fill:#ffffff;" transform="translate(217.899417 140.121931)scale(0.1 -0.1)">
     <use xlink:href="#DejaVuSans-49"/>
     <use x="63.623047" xlink:href="#DejaVuSans-49"/>
     <use x="127.246094" xlink:href="#DejaVuSans-46"/>
     <use x="159.033203" xlink:href="#DejaVuSans-49"/>
     <use x="222.65625" xlink:href="#DejaVuSans-37"/>
    </g>
   </g>
   <g id="legend_1">
    <g id="patch_20">
     <path d="M 349 192.487969 
L 686.58125 192.487969 
Q 688.58125 192.487969 688.58125 190.487969 
L 688.58125 41.352031 
Q 688.58125 39.352031 686.58125 39.352031 
L 349 39.352031 
Q 347 39.352031 347 41.352031 
L 347 190.487969 
Q 347 192.487969 349 192.487969 
z
" style="fill:#ffffff;opacity:0.8;stroke:#cccccc;stroke-linejoin:miter;"/>
    </g>
    <g id="text_10">
     <!-- Топ-10 -->
     <g transform="translate(500.242188 50.950469)scale(0.1 -0.1)">
      <defs>
       <path d="M -0.296875 72.90625 
L 61.375 72.90625 
L 61.375 64.59375 
L 35.5 64.59375 
L 35.5 0 
L 25.59375 0 
L 25.59375 64.59375 
L -0.296875 64.59375 
z
" id="DejaVuSans-1058"/>
       <path d="M 30.609375 48.390625 
Q 23.390625 48.390625 19.1875 42.75 
Q 14.984375 37.109375 14.984375 27.296875 
Q 14.984375 17.484375 19.15625 11.84375 
Q 23.34375 6.203125 30.609375 6.203125 
Q 37.796875 6.203125 41.984375 11.859375 
Q 46.1875 17.53125 46.1875 27.296875 
Q 46.1875 37.015625 41.984375 42.703125 
Q 37.796875 48.390625 30.609375 48.390625 
z
M 30.609375 56 
Q 42.328125 56 49.015625 48.375 
Q 55.71875 40.765625 55.71875 27.296875 
Q 55.71875 13.875 49.015625 6.21875 
Q 42.328125 -1.421875 30.609375 -1.421875 
Q 18.84375 -1.421875 12.171875 6.21875 
Q 5.515625 13.875 5.515625 27.296875 
Q 5.515625 40.765625 12.171875 48.375 
Q 18.84375 56 30.609375 56 
z
" id="DejaVuSans-1086"/>
       <path d="M 56.296875 54.6875 
L 56.296875 0 
L 47.265625 0 
L 47.265625 47.515625 
L 18.109375 47.515625 
L 18.109375 0 
L 9.078125 0 
L 9.078125 54.6875 
z
" id="DejaVuSans-1087"/>
       <path d="M 4.890625 31.390625 
L 31.203125 31.390625 
L 31.203125 23.390625 
L 4.890625 23.390625 
z
" id="DejaVuSans-45"/>
       <path d="M 31.78125 66.40625 
Q 24.171875 66.40625 20.328125 58.90625 
Q 16.5 51.421875 16.5 36.375 
Q 16.5 21.390625 20.328125 13.890625 
Q 24.171875 6.390625 31.78125 6.390625 
Q 39.453125 6.390625 43.28125 13.890625 
Q 47.125 21.390625 47.125 36.375 
Q 47.125 51.421875 43.28125 58.90625 
Q 39.453125 66.40625 31.78125 66.40625 
z
M 31.78125 74.21875 
Q 44.046875 74.21875 50.515625 64.515625 
Q 56.984375 54.828125 56.984375 36.375 
Q 56.984375 17.96875 50.515625 8.265625 
Q 44.046875 -1.421875 31.78125 -1.421875 
Q 19.53125 -1.421875 13.0625 8.265625 
Q 6.59375 17.96875 6.59375 36.375 
Q 6.59375 54.828125 13.0625 64.515625 
Q 19.53125 74.21875 31.78125 74.21875 
z
" id="DejaVuSans-48"/>
      </defs>
      <use xlink:href="#DejaVuSans-1058"/>
      <use x="61.083984" xlink:href="#DejaVuSans-1086"/>
      <use x="122.265625" xlink:href="#DejaVuSans-1087"/>
      <use x="187.646484" xlink:href="#DejaVuSans-45"/>
      <use x="223.730469" xlink:href="#DejaVuSans-49"/>
      <use x="287.353516" xlink:href="#DejaVuSans-48"/>
     </g>
    </g>
    <g id="patch_21">
     <path d="M 351 65.798906 
L 371 65.798906 
L 371 58.798906 
L 351 58.798906 
z
" style="fill:#1f77b4;"/>
    </g>
    <g id="text_11">
     <!-- ЗА ПРАВДУ Белгородская область (zapravdu_belgorodobl) -->
     <g transform="translate(379 65.798906)scale(0.1 -0.1)">
      <defs>
       <path d="M 28.5625 74.21875 
Q 40.578125 74.21875 48.1875 69.109375 
Q 55.8125 64.015625 55.8125 55.328125 
Q 55.8125 49.265625 52.34375 45.09375 
Q 48.875 40.921875 42.484375 39.3125 
Q 49.5625 37.796875 53.53125 33 
Q 57.515625 28.21875 57.515625 21.1875 
Q 57.515625 9.96875 48.84375 4.265625 
Q 40.1875 -1.421875 28.5625 -1.421875 
Q 22.609375 -1.421875 15.671875 0.1875 
Q 8.734375 1.8125 6.59375 3.171875 
L 6.59375 13.328125 
Q 14.0625 8.984375 18.1875 7.9375 
Q 22.3125 6.890625 28.375 6.890625 
Q 37.546875 6.890625 42.625 10.40625 
Q 47.703125 13.921875 47.703125 21.1875 
Q 47.703125 27.640625 43.1875 31.265625 
Q 38.671875 34.90625 29.15625 34.90625 
L 19.1875 34.90625 
L 19.1875 43.015625 
L 29.546875 43.015625 
Q 38.28125 43.015625 42.140625 45.921875 
Q 46 48.828125 46 54.296875 
Q 46 59.90625 42.015625 62.90625 
Q 38.03125 65.921875 28.375 65.921875 
Q 21.828125 65.921875 19.578125 65.328125 
Q 17.328125 64.75 7.328125 60.984375 
L 7.328125 70.609375 
Q 12.84375 72.5625 18.59375 73.390625 
Q 24.359375 74.21875 28.5625 74.21875 
z
" id="DejaVuSans-1047"/>
       <path d="M 34.1875 63.1875 
L 20.796875 26.90625 
L 47.609375 26.90625 
z
M 28.609375 72.90625 
L 39.796875 72.90625 
L 67.578125 0 
L 57.328125 0 
L 50.6875 18.703125 
L 17.828125 18.703125 
L 11.1875 0 
L 0.78125 0 
z
" id="DejaVuSans-1040"/>
       <path id="DejaVuSans-32"/>
       <path d="M 65.375 72.90625 
L 65.375 0 
L 55.515625 0 
L 55.515625 64.59375 
L 19.671875 64.59375 
L 19.671875 0 
L 9.8125 0 
L 9.8125 72.90625 
z
" id="DejaVuSans-1055"/>
       <path d="M 19.671875 64.796875 
L 19.671875 37.40625 
L 32.078125 37.40625 
Q 38.96875 37.40625 42.71875 40.96875 
Q 46.484375 44.53125 46.484375 51.125 
Q 46.484375 57.671875 42.71875 61.234375 
Q 38.96875 64.796875 32.078125 64.796875 
z
M 9.8125 72.90625 
L 32.078125 72.90625 
Q 44.34375 72.90625 50.609375 67.359375 
Q 56.890625 61.8125 56.890625 51.125 
Q 56.890625 40.328125 50.609375 34.8125 
Q 44.34375 29.296875 32.078125 29.296875 
L 19.671875 29.296875 
L 19.671875 0 
L 9.8125 0 
z
" id="DejaVuSans-1056"/>
       <path d="M 19.671875 34.8125 
L 19.671875 8.109375 
L 35.5 8.109375 
Q 43.453125 8.109375 47.28125 11.40625 
Q 51.125 14.703125 51.125 21.484375 
Q 51.125 28.328125 47.28125 31.5625 
Q 43.453125 34.8125 35.5 34.8125 
z
M 19.671875 64.796875 
L 19.671875 42.828125 
L 34.28125 42.828125 
Q 41.5 42.828125 45.03125 45.53125 
Q 48.578125 48.25 48.578125 53.8125 
Q 48.578125 59.328125 45.03125 62.0625 
Q 41.5 64.796875 34.28125 64.796875 
z
M 9.8125 72.90625 
L 35.015625 72.90625 
Q 46.296875 72.90625 52.390625 68.21875 
Q 58.5 63.53125 58.5 54.890625 
Q 58.5 48.1875 55.375 44.234375 
Q 52.25 40.28125 46.1875 39.3125 
Q 53.46875 37.75 57.5 32.78125 
Q 61.53125 27.828125 61.53125 20.40625 
Q 61.53125 10.640625 54.890625 5.3125 
Q 48.25 0 35.984375 0 
L 9.8125 0 
z
" id="DejaVuSans-1042"/>
       <path d="M 22.796875 8.296875 
L 55.03125 8.296875 
L 55.03125 64.59375 
L 31.34375 64.59375 
L 31.34375 54.25 
Q 31.34375 29.890625 25.875 13.71875 
Q 24.75 10.40625 22.796875 8.296875 
z
M 8.40625 8.296875 
Q 14.9375 11.375 16.796875 17.234375 
Q 21.53125 32.28125 21.53125 59.125 
L 21.53125 72.90625 
L 64.890625 72.90625 
L 64.890625 8.296875 
L 73.1875 8.296875 
L 73.1875 -15.671875 
L 64.890625 -15.671875 
L 64.890625 0 
L 13.234375 0 
L 13.234375 -15.671875 
L 4.9375 -15.671875 
L 4.9375 8.296875 
z
" id="DejaVuSans-1044"/>
       <path d="M 31.984375 8.84375 
Q 30.953125 6.390625 29.390625 4.546875 
Q 25.53125 0 13.28125 0 
L 9.515625 0 
L 9.515625 8.296875 
L 12.59375 8.296875 
Q 18.40625 8.296875 20.65625 9.625 
Q 22.015625 10.453125 22.90625 12.5 
L 25.09375 17.671875 
L 1.703125 72.90625 
L 12.3125 72.90625 
L 30.421875 30.125 
L 48.640625 72.90625 
L 59.234375 72.90625 
z
" id="DejaVuSans-1059"/>
       <path d="M 51.125 21.4375 
Q 51.125 28.21875 47.28125 31.515625 
Q 43.453125 34.8125 35.5 34.8125 
L 19.671875 34.8125 
L 19.671875 8.109375 
L 35.5 8.109375 
Q 43.453125 8.109375 47.28125 11.40625 
Q 51.125 14.703125 51.125 21.4375 
z
M 56.390625 72.90625 
L 56.390625 64.796875 
L 19.671875 64.796875 
L 19.671875 42.921875 
L 35.984375 42.921875 
Q 48.25 42.921875 54.890625 37.59375 
Q 61.53125 32.28125 61.53125 21.4375 
Q 61.53125 10.640625 55.109375 5.3125 
Q 48.6875 0 35.984375 0 
L 9.8125 0 
L 9.8125 72.90625 
z
" id="DejaVuSans-1041"/>
       <path d="M 56.203125 29.59375 
L 56.203125 25.203125 
L 14.890625 25.203125 
Q 15.484375 15.921875 20.484375 11.0625 
Q 25.484375 6.203125 34.421875 6.203125 
Q 39.59375 6.203125 44.453125 7.46875 
Q 49.3125 8.734375 54.109375 11.28125 
L 54.109375 2.78125 
Q 49.265625 0.734375 44.1875 -0.34375 
Q 39.109375 -1.421875 33.890625 -1.421875 
Q 20.796875 -1.421875 13.15625 6.1875 
Q 5.515625 13.8125 5.515625 26.8125 
Q 5.515625 40.234375 12.765625 48.109375 
Q 20.015625 56 32.328125 56 
Q 43.359375 56 49.78125 48.890625 
Q 56.203125 41.796875 56.203125 29.59375 
z
M 47.21875 32.234375 
Q 47.125 39.59375 43.09375 43.984375 
Q 39.0625 48.390625 32.421875 48.390625 
Q 24.90625 48.390625 20.390625 44.140625 
Q 15.875 39.890625 15.1875 32.171875 
z
" id="DejaVuSans-1077"/>
       <path d="M 3.71875 0 
L 3.71875 7.46875 
Q 12.59375 8.84375 15.328125 14.984375 
Q 18.65625 23.640625 18.65625 45.75 
L 18.65625 54.6875 
L 55.609375 54.6875 
L 55.609375 0 
L 46.625 0 
L 46.625 47.515625 
L 27.640625 47.515625 
L 27.640625 42.09375 
Q 27.640625 21 23.34375 11.53125 
Q 18.75 1.421875 3.71875 0 
z
" id="DejaVuSans-1083"/>
       <path d="M 9.078125 0 
L 9.078125 54.6875 
L 47.65625 54.6875 
L 47.65625 47.515625 
L 18.109375 47.515625 
L 18.109375 0 
z
" id="DejaVuSans-1075"/>
       <path d="M 18.109375 8.203125 
L 18.109375 -20.796875 
L 9.078125 -20.796875 
L 9.078125 54.6875 
L 18.109375 54.6875 
L 18.109375 46.390625 
Q 20.953125 51.265625 25.265625 53.625 
Q 29.59375 56 35.59375 56 
Q 45.5625 56 51.78125 48.09375 
Q 58.015625 40.1875 58.015625 27.296875 
Q 58.015625 14.40625 51.78125 6.484375 
Q 45.5625 -1.421875 35.59375 -1.421875 
Q 29.59375 -1.421875 25.265625 0.953125 
Q 20.953125 3.328125 18.109375 8.203125 
z
M 48.6875 27.296875 
Q 48.6875 37.203125 44.609375 42.84375 
Q 40.53125 48.484375 33.40625 48.484375 
Q 26.265625 48.484375 22.1875 42.84375 
Q 18.109375 37.203125 18.109375 27.296875 
Q 18.109375 17.390625 22.1875 11.75 
Q 26.265625 6.109375 33.40625 6.109375 
Q 40.53125 6.109375 44.609375 11.75 
Q 48.6875 17.390625 48.6875 27.296875 
z
" id="DejaVuSans-1088"/>
       <path d="M 21.625 7.171875 
L 47.703125 7.171875 
L 47.703125 47.515625 
L 28.8125 47.515625 
L 28.8125 40.671875 
Q 28.8125 20.5625 23.046875 9.8125 
z
M 8.59375 7.171875 
Q 13.03125 9.125 14.984375 13.28125 
Q 19.78125 23.578125 19.78125 44.34375 
L 19.78125 54.6875 
L 56.734375 54.6875 
L 56.734375 7.171875 
L 63.921875 7.171875 
L 63.921875 -13.8125 
L 56.734375 -13.8125 
L 56.734375 0 
L 12.40625 0 
L 12.40625 -13.8125 
L 5.21875 -13.8125 
L 5.21875 7.171875 
z
" id="DejaVuSans-1076"/>
       <path d="M 48.78125 52.59375 
L 48.78125 44.1875 
Q 44.96875 46.296875 41.140625 47.34375 
Q 37.3125 48.390625 33.40625 48.390625 
Q 24.65625 48.390625 19.8125 42.84375 
Q 14.984375 37.3125 14.984375 27.296875 
Q 14.984375 17.28125 19.8125 11.734375 
Q 24.65625 6.203125 33.40625 6.203125 
Q 37.3125 6.203125 41.140625 7.25 
Q 44.96875 8.296875 48.78125 10.40625 
L 48.78125 2.09375 
Q 45.015625 0.34375 40.984375 -0.53125 
Q 36.96875 -1.421875 32.421875 -1.421875 
Q 20.0625 -1.421875 12.78125 6.34375 
Q 5.515625 14.109375 5.515625 27.296875 
Q 5.515625 40.671875 12.859375 48.328125 
Q 20.21875 56 33.015625 56 
Q 37.15625 56 41.109375 55.140625 
Q 45.0625 54.296875 48.78125 52.59375 
z
" id="DejaVuSans-1089"/>
       <path d="M 9.078125 54.6875 
L 18.015625 54.6875 
L 18.015625 29 
L 43.359375 54.6875 
L 54.390625 54.6875 
L 33.5 33.546875 
L 57.078125 0 
L 47.015625 0 
L 27.640625 27.59375 
L 18.015625 17.828125 
L 18.015625 0 
L 9.078125 0 
z
" id="DejaVuSans-1082"/>
       <path d="M 34.28125 27.484375 
Q 23.390625 27.484375 19.1875 25 
Q 14.984375 22.515625 14.984375 16.5 
Q 14.984375 11.71875 18.140625 8.90625 
Q 21.296875 6.109375 26.703125 6.109375 
Q 34.1875 6.109375 38.703125 11.40625 
Q 43.21875 16.703125 43.21875 25.484375 
L 43.21875 27.484375 
z
M 52.203125 31.203125 
L 52.203125 0 
L 43.21875 0 
L 43.21875 8.296875 
Q 40.140625 3.328125 35.546875 0.953125 
Q 30.953125 -1.421875 24.3125 -1.421875 
Q 15.921875 -1.421875 10.953125 3.296875 
Q 6 8.015625 6 15.921875 
Q 6 25.140625 12.171875 29.828125 
Q 18.359375 34.515625 30.609375 34.515625 
L 43.21875 34.515625 
L 43.21875 35.40625 
Q 43.21875 41.609375 39.140625 45 
Q 35.0625 48.390625 27.6875 48.390625 
Q 23 48.390625 18.546875 47.265625 
Q 14.109375 46.140625 10.015625 43.890625 
L 10.015625 52.203125 
Q 14.9375 54.109375 19.578125 55.046875 
Q 24.21875 56 28.609375 56 
Q 40.484375 56 46.34375 49.84375 
Q 52.203125 43.703125 52.203125 31.203125 
z
" id="DejaVuSans-1072"/>
       <path d="M 18.453125 38.921875 
Q 18.453125 34.859375 21.578125 32.5625 
Q 24.703125 30.28125 30.515625 30.28125 
L 42.625 30.28125 
L 42.625 47.515625 
L 30.515625 47.515625 
Q 24.703125 47.515625 21.578125 45.265625 
Q 18.453125 43.015625 18.453125 38.921875 
z
M 5.671875 0 
L 22.359375 23.96875 
Q 16.703125 25.25 12.9375 28.59375 
Q 9.1875 31.9375 9.1875 38.921875 
Q 9.1875 46.828125 14.421875 50.75 
Q 19.671875 54.6875 30.28125 54.6875 
L 51.65625 54.6875 
L 51.65625 0 
L 42.625 0 
L 42.625 23.09375 
L 31.453125 23.09375 
L 15.328125 0 
z
" id="DejaVuSans-1103"/>
       <path d="M 31.109375 56 
Q 42.828125 56 49.515625 48.375 
Q 56.203125 40.765625 56.203125 27.296875 
Q 56.203125 13.875 49.515625 6.21875 
Q 42.828125 -1.421875 31.109375 -1.421875 
Q 19.34375 -1.421875 12.84375 6 
Q 6.34375 13.421875 6 27.296875 
L 5.71875 38.484375 
Q 5.46875 44.28125 5.46875 46.296875 
Q 5.46875 54.109375 8.296875 59.859375 
Q 12.75 68.890625 20.4375 72.796875 
Q 28.125 76.703125 41.015625 76.8125 
Q 46.96875 76.859375 49.609375 77.6875 
L 52.09375 70.5625 
Q 49.703125 69.578125 47.515625 69.53125 
L 35.296875 68.703125 
Q 29.15625 68.265625 25.4375 66.109375 
Q 15.71875 60.40625 14.796875 52.9375 
L 14.453125 50.203125 
Q 20.796875 56 31.109375 56 
z
M 31.109375 48.390625 
Q 23.875 48.390625 19.671875 42.75 
Q 15.484375 37.109375 15.484375 27.296875 
Q 15.484375 17.484375 19.65625 11.84375 
Q 23.828125 6.203125 31.109375 6.203125 
Q 38.28125 6.203125 42.484375 11.859375 
Q 46.6875 17.53125 46.6875 27.296875 
Q 46.6875 37.015625 42.484375 42.703125 
Q 38.28125 48.390625 31.109375 48.390625 
z
" id="DejaVuSans-1073"/>
       <path d="M 2.9375 54.6875 
L 55.328125 54.6875 
L 55.328125 47.515625 
L 33.546875 47.515625 
L 33.546875 0 
L 24.703125 0 
L 24.703125 47.515625 
L 2.9375 47.515625 
z
" id="DejaVuSans-1090"/>
       <path d="M 43.453125 16.21875 
Q 43.453125 20.609375 40.25 22.90625 
Q 37.0625 25.203125 30.90625 25.203125 
L 18.109375 25.203125 
L 18.109375 7.171875 
L 30.90625 7.171875 
Q 37.0625 7.171875 40.25 9.484375 
Q 43.453125 11.8125 43.453125 16.21875 
z
M 9.078125 54.6875 
L 18.109375 54.6875 
L 18.109375 32.375 
L 31.296875 32.375 
Q 41.75 32.375 47.390625 28.390625 
Q 53.03125 24.421875 53.03125 16.21875 
Q 53.03125 8.015625 47.390625 4 
Q 41.75 0 31.296875 0 
L 9.078125 0 
z
" id="DejaVuSans-1100"/>
       <path d="M 31 75.875 
Q 24.46875 64.65625 21.28125 53.65625 
Q 18.109375 42.671875 18.109375 31.390625 
Q 18.109375 20.125 21.3125 9.0625 
Q 24.515625 -2 31 -13.1875 
L 23.1875 -13.1875 
Q 15.875 -1.703125 12.234375 9.375 
Q 8.59375 20.453125 8.59375 31.390625 
Q 8.59375 42.28125 12.203125 53.3125 
Q 15.828125 64.359375 23.1875 75.875 
z
" id="DejaVuSans-40"/>
       <path d="M 5.515625 54.6875 
L 48.1875 54.6875 
L 48.1875 46.484375 
L 14.40625 7.171875 
L 48.1875 7.171875 
L 48.1875 0 
L 4.296875 0 
L 4.296875 8.203125 
L 38.09375 47.515625 
L 5.515625 47.515625 
z
" id="DejaVuSans-122"/>
       <path d="M 34.28125 27.484375 
Q 23.390625 27.484375 19.1875 25 
Q 14.984375 22.515625 14.984375 16.5 
Q 14.984375 11.71875 18.140625 8.90625 
Q 21.296875 6.109375 26.703125 6.109375 
Q 34.1875 6.109375 38.703125 11.40625 
Q 43.21875 16.703125 43.21875 25.484375 
L 43.21875 27.484375 
z
M 52.203125 31.203125 
L 52.203125 0 
L 43.21875 0 
L 43.21875 8.296875 
Q 40.140625 3.328125 35.546875 0.953125 
Q 30.953125 -1.421875 24.3125 -1.421875 
Q 15.921875 -1.421875 10.953125 3.296875 
Q 6 8.015625 6 15.921875 
Q 6 25.140625 12.171875 29.828125 
Q 18.359375 34.515625 30.609375 34.515625 
L 43.21875 34.515625 
L 43.21875 35.40625 
Q 43.21875 41.609375 39.140625 45 
Q 35.0625 48.390625 27.6875 48.390625 
Q 23 48.390625 18.546875 47.265625 
Q 14.109375 46.140625 10.015625 43.890625 
L 10.015625 52.203125 
Q 14.9375 54.109375 19.578125 55.046875 
Q 24.21875 56 28.609375 56 
Q 40.484375 56 46.34375 49.84375 
Q 52.203125 43.703125 52.203125 31.203125 
z
" id="DejaVuSans-97"/>
       <path d="M 18.109375 8.203125 
L 18.109375 -20.796875 
L 9.078125 -20.796875 
L 9.078125 54.6875 
L 18.109375 54.6875 
L 18.109375 46.390625 
Q 20.953125 51.265625 25.265625 53.625 
Q 29.59375 56 35.59375 56 
Q 45.5625 56 51.78125 48.09375 
Q 58.015625 40.1875 58.015625 27.296875 
Q 58.015625 14.40625 51.78125 6.484375 
Q 45.5625 -1.421875 35.59375 -1.421875 
Q 29.59375 -1.421875 25.265625 0.953125 
Q 20.953125 3.328125 18.109375 8.203125 
z
M 48.6875 27.296875 
Q 48.6875 37.203125 44.609375 42.84375 
Q 40.53125 48.484375 33.40625 48.484375 
Q 26.265625 48.484375 22.1875 42.84375 
Q 18.109375 37.203125 18.109375 27.296875 
Q 18.109375 17.390625 22.1875 11.75 
Q 26.265625 6.109375 33.40625 6.109375 
Q 40.53125 6.109375 44.609375 11.75 
Q 48.6875 17.390625 48.6875 27.296875 
z
" id="DejaVuSans-112"/>
       <path d="M 41.109375 46.296875 
Q 39.59375 47.171875 37.8125 47.578125 
Q 36.03125 48 33.890625 48 
Q 26.265625 48 22.1875 43.046875 
Q 18.109375 38.09375 18.109375 28.8125 
L 18.109375 0 
L 9.078125 0 
L 9.078125 54.6875 
L 18.109375 54.6875 
L 18.109375 46.1875 
Q 20.953125 51.171875 25.484375 53.578125 
Q 30.03125 56 36.53125 56 
Q 37.453125 56 38.578125 55.875 
Q 39.703125 55.765625 41.0625 55.515625 
z
" id="DejaVuSans-114"/>
       <path d="M 2.984375 54.6875 
L 12.5 54.6875 
L 29.59375 8.796875 
L 46.6875 54.6875 
L 56.203125 54.6875 
L 35.6875 0 
L 23.484375 0 
z
" id="DejaVuSans-118"/>
       <path d="M 45.40625 46.390625 
L 45.40625 75.984375 
L 54.390625 75.984375 
L 54.390625 0 
L 45.40625 0 
L 45.40625 8.203125 
Q 42.578125 3.328125 38.25 0.953125 
Q 33.9375 -1.421875 27.875 -1.421875 
Q 17.96875 -1.421875 11.734375 6.484375 
Q 5.515625 14.40625 5.515625 27.296875 
Q 5.515625 40.1875 11.734375 48.09375 
Q 17.96875 56 27.875 56 
Q 33.9375 56 38.25 53.625 
Q 42.578125 51.265625 45.40625 46.390625 
z
M 14.796875 27.296875 
Q 14.796875 17.390625 18.875 11.75 
Q 22.953125 6.109375 30.078125 6.109375 
Q 37.203125 6.109375 41.296875 11.75 
Q 45.40625 17.390625 45.40625 27.296875 
Q 45.40625 37.203125 41.296875 42.84375 
Q 37.203125 48.484375 30.078125 48.484375 
Q 22.953125 48.484375 18.875 42.84375 
Q 14.796875 37.203125 14.796875 27.296875 
z
" id="DejaVuSans-100"/>
       <path d="M 8.5 21.578125 
L 8.5 54.6875 
L 17.484375 54.6875 
L 17.484375 21.921875 
Q 17.484375 14.15625 20.5 10.265625 
Q 23.53125 6.390625 29.59375 6.390625 
Q 36.859375 6.390625 41.078125 11.03125 
Q 45.3125 15.671875 45.3125 23.6875 
L 45.3125 54.6875 
L 54.296875 54.6875 
L 54.296875 0 
L 45.3125 0 
L 45.3125 8.40625 
Q 42.046875 3.421875 37.71875 1 
Q 33.40625 -1.421875 27.6875 -1.421875 
Q 18.265625 -1.421875 13.375 4.4375 
Q 8.5 10.296875 8.5 21.578125 
z
M 31.109375 56 
z
" id="DejaVuSans-117"/>
       <path d="M 50.984375 -16.609375 
L 50.984375 -23.578125 
L -0.984375 -23.578125 
L -0.984375 -16.609375 
z
" id="DejaVuSans-95"/>
       <path d="M 48.6875 27.296875 
Q 48.6875 37.203125 44.609375 42.84375 
Q 40.53125 48.484375 33.40625 48.484375 
Q 26.265625 48.484375 22.1875 42.84375 
Q 18.109375 37.203125 18.109375 27.296875 
Q 18.109375 17.390625 22.1875 11.75 
Q 26.265625 6.109375 33.40625 6.109375 
Q 40.53125 6.109375 44.609375 11.75 
Q 48.6875 17.390625 48.6875 27.296875 
z
M 18.109375 46.390625 
Q 20.953125 51.265625 25.265625 53.625 
Q 29.59375 56 35.59375 56 
Q 45.5625 56 51.78125 48.09375 
Q 58.015625 40.1875 58.015625 27.296875 
Q 58.015625 14.40625 51.78125 6.484375 
Q 45.5625 -1.421875 35.59375 -1.421875 
Q 29.59375 -1.421875 25.265625 0.953125 
Q 20.953125 3.328125 18.109375 8.203125 
L 18.109375 0 
L 9.078125 0 
L 9.078125 75.984375 
L 18.109375 75.984375 
z
" id="DejaVuSans-98"/>
       <path d="M 56.203125 29.59375 
L 56.203125 25.203125 
L 14.890625 25.203125 
Q 15.484375 15.921875 20.484375 11.0625 
Q 25.484375 6.203125 34.421875 6.203125 
Q 39.59375 6.203125 44.453125 7.46875 
Q 49.3125 8.734375 54.109375 11.28125 
L 54.109375 2.78125 
Q 49.265625 0.734375 44.1875 -0.34375 
Q 39.109375 -1.421875 33.890625 -1.421875 
Q 20.796875 -1.421875 13.15625 6.1875 
Q 5.515625 13.8125 5.515625 26.8125 
Q 5.515625 40.234375 12.765625 48.109375 
Q 20.015625 56 32.328125 56 
Q 43.359375 56 49.78125 48.890625 
Q 56.203125 41.796875 56.203125 29.59375 
z
M 47.21875 32.234375 
Q 47.125 39.59375 43.09375 43.984375 
Q 39.0625 48.390625 32.421875 48.390625 
Q 24.90625 48.390625 20.390625 44.140625 
Q 15.875 39.890625 15.1875 32.171875 
z
" id="DejaVuSans-101"/>
       <path d="M 9.421875 75.984375 
L 18.40625 75.984375 
L 18.40625 0 
L 9.421875 0 
z
" id="DejaVuSans-108"/>
       <path d="M 45.40625 27.984375 
Q 45.40625 37.75 41.375 43.109375 
Q 37.359375 48.484375 30.078125 48.484375 
Q 22.859375 48.484375 18.828125 43.109375 
Q 14.796875 37.75 14.796875 27.984375 
Q 14.796875 18.265625 18.828125 12.890625 
Q 22.859375 7.515625 30.078125 7.515625 
Q 37.359375 7.515625 41.375 12.890625 
Q 45.40625 18.265625 45.40625 27.984375 
z
M 54.390625 6.78125 
Q 54.390625 -7.171875 48.1875 -13.984375 
Q 42 -20.796875 29.203125 -20.796875 
Q 24.46875 -20.796875 20.265625 -20.09375 
Q 16.0625 -19.390625 12.109375 -17.921875 
L 12.109375 -9.1875 
Q 16.0625 -11.328125 19.921875 -12.34375 
Q 23.78125 -13.375 27.78125 -13.375 
Q 36.625 -13.375 41.015625 -8.765625 
Q 45.40625 -4.15625 45.40625 5.171875 
L 45.40625 9.625 
Q 42.625 4.78125 38.28125 2.390625 
Q 33.9375 0 27.875 0 
Q 17.828125 0 11.671875 7.65625 
Q 5.515625 15.328125 5.515625 27.984375 
Q 5.515625 40.671875 11.671875 48.328125 
Q 17.828125 56 27.875 56 
Q 33.9375 56 38.28125 53.609375 
Q 42.625 51.21875 45.40625 46.390625 
L 45.40625 54.6875 
L 54.390625 54.6875 
z
" id="DejaVuSans-103"/>
       <path d="M 30.609375 48.390625 
Q 23.390625 48.390625 19.1875 42.75 
Q 14.984375 37.109375 14.984375 27.296875 
Q 14.984375 17.484375 19.15625 11.84375 
Q 23.34375 6.203125 30.609375 6.203125 
Q 37.796875 6.203125 41.984375 11.859375 
Q 46.1875 17.53125 46.1875 27.296875 
Q 46.1875 37.015625 41.984375 42.703125 
Q 37.796875 48.390625 30.609375 48.390625 
z
M 30.609375 56 
Q 42.328125 56 49.015625 48.375 
Q 55.71875 40.765625 55.71875 27.296875 
Q 55.71875 13.875 49.015625 6.21875 
Q 42.328125 -1.421875 30.609375 -1.421875 
Q 18.84375 -1.421875 12.171875 6.21875 
Q 5.515625 13.875 5.515625 27.296875 
Q 5.515625 40.765625 12.171875 48.375 
Q 18.84375 56 30.609375 56 
z
" id="DejaVuSans-111"/>
       <path d="M 8.015625 75.875 
L 15.828125 75.875 
Q 23.140625 64.359375 26.78125 53.3125 
Q 30.421875 42.28125 30.421875 31.390625 
Q 30.421875 20.453125 26.78125 9.375 
Q 23.140625 -1.703125 15.828125 -13.1875 
L 8.015625 -13.1875 
Q 14.5 -2 17.703125 9.0625 
Q 20.90625 20.125 20.90625 31.390625 
Q 20.90625 42.671875 17.703125 53.65625 
Q 14.5 64.65625 8.015625 75.875 
z
" id="DejaVuSans-41"/>
      </defs>
      <use xlink:href="#DejaVuSans-1047"/>
      <use x="64.111328" xlink:href="#DejaVuSans-1040"/>
      <use x="132.519531" xlink:href="#DejaVuSans-32"/>
      <use x="164.306641" xlink:href="#DejaVuSans-1055"/>
      <use x="239.501953" xlink:href="#DejaVuSans-1056"/>
      <use x="299.804688" xlink:href="#DejaVuSans-1040"/>
      <use x="368.212891" xlink:href="#DejaVuSans-1042"/>
      <use x="436.816406" xlink:href="#DejaVuSans-1044"/>
      <use x="514.941406" xlink:href="#DejaVuSans-1059"/>
      <use x="575.878906" xlink:href="#DejaVuSans-32"/>
      <use x="607.666016" xlink:href="#DejaVuSans-1041"/>
      <use x="676.269531" xlink:href="#DejaVuSans-1077"/>
      <use x="737.792969" xlink:href="#DejaVuSans-1083"/>
      <use x="801.708984" xlink:href="#DejaVuSans-1075"/>
      <use x="854.248047" xlink:href="#DejaVuSans-1086"/>
      <use x="915.429688" xlink:href="#DejaVuSans-1088"/>
      <use x="978.90625" xlink:href="#DejaVuSans-1086"/>
      <use x="1040.087891" xlink:href="#DejaVuSans-1076"/>
      <use x="1109.228516" xlink:href="#DejaVuSans-1089"/>
      <use x="1164.208984" xlink:href="#DejaVuSans-1082"/>
      <use x="1224.609375" xlink:href="#DejaVuSans-1072"/>
      <use x="1285.888672" xlink:href="#DejaVuSans-1103"/>
      <use x="1346.044922" xlink:href="#DejaVuSans-32"/>
      <use x="1377.832031" xlink:href="#DejaVuSans-1086"/>
      <use x="1439.013672" xlink:href="#DejaVuSans-1073"/>
      <use x="1500.683594" xlink:href="#DejaVuSans-1083"/>
      <use x="1564.599609" xlink:href="#DejaVuSans-1072"/>
      <use x="1625.878906" xlink:href="#DejaVuSans-1089"/>
      <use x="1680.859375" xlink:href="#DejaVuSans-1090"/>
      <use x="1739.111328" xlink:href="#DejaVuSans-1100"/>
      <use x="1798.046875" xlink:href="#DejaVuSans-32"/>
      <use x="1829.833984" xlink:href="#DejaVuSans-40"/>
      <use x="1868.847656" xlink:href="#DejaVuSans-122"/>
      <use x="1921.337891" xlink:href="#DejaVuSans-97"/>
      <use x="1982.617188" xlink:href="#DejaVuSans-112"/>
      <use x="2046.09375" xlink:href="#DejaVuSans-114"/>
      <use x="2087.207031" xlink:href="#DejaVuSans-97"/>
      <use x="2148.486328" xlink:href="#DejaVuSans-118"/>
      <use x="2207.666016" xlink:href="#DejaVuSans-100"/>
      <use x="2271.142578" xlink:href="#DejaVuSans-117"/>
      <use x="2334.521484" xlink:href="#DejaVuSans-95"/>
      <use x="2384.521484" xlink:href="#DejaVuSans-98"/>
      <use x="2447.998047" xlink:href="#DejaVuSans-101"/>
      <use x="2509.521484" xlink:href="#DejaVuSans-108"/>
      <use x="2537.304688" xlink:href="#DejaVuSans-103"/>
      <use x="2600.78125" xlink:href="#DejaVuSans-111"/>
      <use x="2661.962891" xlink:href="#DejaVuSans-114"/>
      <use x="2700.826172" xlink:href="#DejaVuSans-111"/>
      <use x="2762.007812" xlink:href="#DejaVuSans-100"/>
      <use x="2825.484375" xlink:href="#DejaVuSans-111"/>
      <use x="2886.666016" xlink:href="#DejaVuSans-98"/>
      <use x="2950.142578" xlink:href="#DejaVuSans-108"/>
      <use x="2977.925781" xlink:href="#DejaVuSans-41"/>
     </g>
    </g>
    <g id="patch_22">
     <path d="M 351 80.925469 
L 371 80.925469 
L 371 73.925469 
L 351 73.925469 
z
" style="fill:#ff7f0e;"/>
    </g>
    <g id="text_12">
     <!-- ЗА ПРАВДУ Тамбовская область (zapravdu_tambov) -->
     <g transform="translate(379 80.925469)scale(0.1 -0.1)">
      <defs>
       <path d="M 9.078125 54.6875 
L 22.21875 54.6875 
L 37.75 18.0625 
L 53.328125 54.6875 
L 66.359375 54.6875 
L 66.359375 0 
L 57.328125 0 
L 57.328125 46.09375 
L 42.234375 10.5 
L 33.25 10.5 
L 18.109375 46.09375 
L 18.109375 0 
L 9.078125 0 
z
" id="DejaVuSans-1084"/>
       <path d="M 18.0625 25.203125 
L 18.0625 7.171875 
L 30.859375 7.171875 
Q 37.015625 7.171875 40.234375 9.484375 
Q 43.453125 11.8125 43.453125 16.21875 
Q 43.453125 20.609375 40.234375 22.90625 
Q 37.015625 25.203125 30.859375 25.203125 
z
M 18.0625 47.515625 
L 18.0625 32.375 
L 29.890625 32.375 
Q 34.96875 32.375 38.1875 34.390625 
Q 41.40625 36.421875 41.40625 40.046875 
Q 41.40625 43.65625 38.1875 45.578125 
Q 34.96875 47.515625 29.890625 47.515625 
z
M 9.078125 54.6875 
L 30.46875 54.6875 
Q 40.09375 54.6875 45.265625 51.171875 
Q 50.4375 47.65625 50.4375 41.15625 
Q 50.4375 36.140625 47.796875 33.171875 
Q 45.171875 30.21875 39.984375 29.5 
Q 46.1875 28.328125 49.609375 24.609375 
Q 53.03125 20.90625 53.03125 15.328125 
Q 53.03125 8.015625 47.390625 4 
Q 41.75 0 31.296875 0 
L 9.078125 0 
z
" id="DejaVuSans-1074"/>
       <path d="M 18.3125 70.21875 
L 18.3125 54.6875 
L 36.8125 54.6875 
L 36.8125 47.703125 
L 18.3125 47.703125 
L 18.3125 18.015625 
Q 18.3125 11.328125 20.140625 9.421875 
Q 21.96875 7.515625 27.59375 7.515625 
L 36.8125 7.515625 
L 36.8125 0 
L 27.59375 0 
Q 17.1875 0 13.234375 3.875 
Q 9.28125 7.765625 9.28125 18.015625 
L 9.28125 47.703125 
L 2.6875 47.703125 
L 2.6875 54.6875 
L 9.28125 54.6875 
L 9.28125 70.21875 
z
" id="DejaVuSans-116"/>
       <path d="M 52 44.1875 
Q 55.375 50.25 60.0625 53.125 
Q 64.75 56 71.09375 56 
Q 79.640625 56 84.28125 50.015625 
Q 88.921875 44.046875 88.921875 33.015625 
L 88.921875 0 
L 79.890625 0 
L 79.890625 32.71875 
Q 79.890625 40.578125 77.09375 44.375 
Q 74.3125 48.1875 68.609375 48.1875 
Q 61.625 48.1875 57.5625 43.546875 
Q 53.515625 38.921875 53.515625 30.90625 
L 53.515625 0 
L 44.484375 0 
L 44.484375 32.71875 
Q 44.484375 40.625 41.703125 44.40625 
Q 38.921875 48.1875 33.109375 48.1875 
Q 26.21875 48.1875 22.15625 43.53125 
Q 18.109375 38.875 18.109375 30.90625 
L 18.109375 0 
L 9.078125 0 
L 9.078125 54.6875 
L 18.109375 54.6875 
L 18.109375 46.1875 
Q 21.1875 51.21875 25.484375 53.609375 
Q 29.78125 56 35.6875 56 
Q 41.65625 56 45.828125 52.96875 
Q 50 49.953125 52 44.1875 
z
" id="DejaVuSans-109"/>
      </defs>
      <use xlink:href="#DejaVuSans-1047"/>
      <use x="64.111328" xlink:href="#DejaVuSans-1040"/>
      <use x="132.519531" xlink:href="#DejaVuSans-32"/>
      <use x="164.306641" xlink:href="#DejaVuSans-1055"/>
      <use x="239.501953" xlink:href="#DejaVuSans-1056"/>
      <use x="299.804688" xlink:href="#DejaVuSans-1040"/>
      <use x="368.212891" xlink:href="#DejaVuSans-1042"/>
      <use x="436.816406" xlink:href="#DejaVuSans-1044"/>
      <use x="514.941406" xlink:href="#DejaVuSans-1059"/>
      <use x="575.878906" xlink:href="#DejaVuSans-32"/>
      <use x="607.666016" xlink:href="#DejaVuSans-1058"/>
      <use x="668.75" xlink:href="#DejaVuSans-1072"/>
      <use x="730.029297" xlink:href="#DejaVuSans-1084"/>
      <use x="805.46875" xlink:href="#DejaVuSans-1073"/>
      <use x="867.138672" xlink:href="#DejaVuSans-1086"/>
      <use x="928.320312" xlink:href="#DejaVuSans-1074"/>
      <use x="987.255859" xlink:href="#DejaVuSans-1089"/>
      <use x="1042.236328" xlink:href="#DejaVuSans-1082"/>
      <use x="1102.636719" xlink:href="#DejaVuSans-1072"/>
      <use x="1163.916016" xlink:href="#DejaVuSans-1103"/>
      <use x="1224.072266" xlink:href="#DejaVuSans-32"/>
      <use x="1255.859375" xlink:href="#DejaVuSans-1086"/>
      <use x="1317.041016" xlink:href="#DejaVuSans-1073"/>
      <use x="1378.710938" xlink:href="#DejaVuSans-1083"/>
      <use x="1442.626953" xlink:href="#DejaVuSans-1072"/>
      <use x="1503.90625" xlink:href="#DejaVuSans-1089"/>
      <use x="1558.886719" xlink:href="#DejaVuSans-1090"/>
      <use x="1617.138672" xlink:href="#DejaVuSans-1100"/>
      <use x="1676.074219" xlink:href="#DejaVuSans-32"/>
      <use x="1707.861328" xlink:href="#DejaVuSans-40"/>
      <use x="1746.875" xlink:href="#DejaVuSans-122"/>
      <use x="1799.365234" xlink:href="#DejaVuSans-97"/>
      <use x="1860.644531" xlink:href="#DejaVuSans-112"/>
      <use x="1924.121094" xlink:href="#DejaVuSans-114"/>
      <use x="1965.234375" xlink:href="#DejaVuSans-97"/>
      <use x="2026.513672" xlink:href="#DejaVuSans-118"/>
      <use x="2085.693359" xlink:href="#DejaVuSans-100"/>
      <use x="2149.169922" xlink:href="#DejaVuSans-117"/>
      <use x="2212.548828" xlink:href="#DejaVuSans-95"/>
      <use x="2262.548828" xlink:href="#DejaVuSans-116"/>
      <use x="2301.757812" xlink:href="#DejaVuSans-97"/>
      <use x="2363.037109" xlink:href="#DejaVuSans-109"/>
      <use x="2460.449219" xlink:href="#DejaVuSans-98"/>
      <use x="2523.925781" xlink:href="#DejaVuSans-111"/>
      <use x="2585.107422" xlink:href="#DejaVuSans-118"/>
      <use x="2644.287109" xlink:href="#DejaVuSans-41"/>
     </g>
    </g>
    <g id="patch_23">
     <path d="M 351 96.052031 
L 371 96.052031 
L 371 89.052031 
L 351 89.052031 
z
" style="fill:#2ca02c;"/>
    </g>
    <g id="text_13">
     <!-- ЗА ПРАВДУ Челябинская область (zapravdu_chelyabinsk) -->
     <g transform="translate(379 96.052031)scale(0.1 -0.1)">
      <defs>
       <path d="M 48.828125 0 
L 48.828125 29.890625 
L 28.46875 29.890625 
Q 19.390625 29.890625 13.96875 35.578125 
Q 8.546875 41.265625 8.546875 52.875 
L 8.546875 72.90625 
L 18.359375 72.90625 
L 18.359375 53.65625 
Q 18.359375 45.90625 21.390625 42.046875 
Q 24.421875 38.1875 30.46875 38.1875 
L 48.828125 38.1875 
L 48.828125 72.90625 
L 58.734375 72.90625 
L 58.734375 0 
z
" id="DejaVuSans-1063"/>
       <path d="M 55.90625 54.6875 
L 55.90625 0 
L 46.96875 0 
L 46.96875 43.890625 
L 20.609375 0 
L 9.078125 0 
L 9.078125 54.6875 
L 18.015625 54.6875 
L 18.015625 10.890625 
L 44.34375 54.6875 
z
" id="DejaVuSans-1080"/>
       <path d="M 9.078125 54.6875 
L 18.109375 54.6875 
L 18.109375 32.375 
L 47.265625 32.375 
L 47.265625 54.6875 
L 56.296875 54.6875 
L 56.296875 0 
L 47.265625 0 
L 47.265625 25.203125 
L 18.109375 25.203125 
L 18.109375 0 
L 9.078125 0 
z
" id="DejaVuSans-1085"/>
       <path d="M 48.78125 52.59375 
L 48.78125 44.1875 
Q 44.96875 46.296875 41.140625 47.34375 
Q 37.3125 48.390625 33.40625 48.390625 
Q 24.65625 48.390625 19.8125 42.84375 
Q 14.984375 37.3125 14.984375 27.296875 
Q 14.984375 17.28125 19.8125 11.734375 
Q 24.65625 6.203125 33.40625 6.203125 
Q 37.3125 6.203125 41.140625 7.25 
Q 44.96875 8.296875 48.78125 10.40625 
L 48.78125 2.09375 
Q 45.015625 0.34375 40.984375 -0.53125 
Q 36.96875 -1.421875 32.421875 -1.421875 
Q 20.0625 -1.421875 12.78125 6.34375 
Q 5.515625 14.109375 5.515625 27.296875 
Q 5.515625 40.671875 12.859375 48.328125 
Q 20.21875 56 33.015625 56 
Q 37.15625 56 41.109375 55.140625 
Q 45.0625 54.296875 48.78125 52.59375 
z
" id="DejaVuSans-99"/>
       <path d="M 54.890625 33.015625 
L 54.890625 0 
L 45.90625 0 
L 45.90625 32.71875 
Q 45.90625 40.484375 42.875 44.328125 
Q 39.84375 48.1875 33.796875 48.1875 
Q 26.515625 48.1875 22.3125 43.546875 
Q 18.109375 38.921875 18.109375 30.90625 
L 18.109375 0 
L 9.078125 0 
L 9.078125 75.984375 
L 18.109375 75.984375 
L 18.109375 46.1875 
Q 21.34375 51.125 25.703125 53.5625 
Q 30.078125 56 35.796875 56 
Q 45.21875 56 50.046875 50.171875 
Q 54.890625 44.34375 54.890625 33.015625 
z
" id="DejaVuSans-104"/>
       <path d="M 32.171875 -5.078125 
Q 28.375 -14.84375 24.75 -17.8125 
Q 21.140625 -20.796875 15.09375 -20.796875 
L 7.90625 -20.796875 
L 7.90625 -13.28125 
L 13.1875 -13.28125 
Q 16.890625 -13.28125 18.9375 -11.515625 
Q 21 -9.765625 23.484375 -3.21875 
L 25.09375 0.875 
L 2.984375 54.6875 
L 12.5 54.6875 
L 29.59375 11.921875 
L 46.6875 54.6875 
L 56.203125 54.6875 
z
" id="DejaVuSans-121"/>
       <path d="M 9.421875 54.6875 
L 18.40625 54.6875 
L 18.40625 0 
L 9.421875 0 
z
M 9.421875 75.984375 
L 18.40625 75.984375 
L 18.40625 64.59375 
L 9.421875 64.59375 
z
" id="DejaVuSans-105"/>
       <path d="M 54.890625 33.015625 
L 54.890625 0 
L 45.90625 0 
L 45.90625 32.71875 
Q 45.90625 40.484375 42.875 44.328125 
Q 39.84375 48.1875 33.796875 48.1875 
Q 26.515625 48.1875 22.3125 43.546875 
Q 18.109375 38.921875 18.109375 30.90625 
L 18.109375 0 
L 9.078125 0 
L 9.078125 54.6875 
L 18.109375 54.6875 
L 18.109375 46.1875 
Q 21.34375 51.125 25.703125 53.5625 
Q 30.078125 56 35.796875 56 
Q 45.21875 56 50.046875 50.171875 
Q 54.890625 44.34375 54.890625 33.015625 
z
" id="DejaVuSans-110"/>
       <path d="M 44.28125 53.078125 
L 44.28125 44.578125 
Q 40.484375 46.53125 36.375 47.5 
Q 32.28125 48.484375 27.875 48.484375 
Q 21.1875 48.484375 17.84375 46.4375 
Q 14.5 44.390625 14.5 40.28125 
Q 14.5 37.15625 16.890625 35.375 
Q 19.28125 33.59375 26.515625 31.984375 
L 29.59375 31.296875 
Q 39.15625 29.25 43.1875 25.515625 
Q 47.21875 21.78125 47.21875 15.09375 
Q 47.21875 7.46875 41.1875 3.015625 
Q 35.15625 -1.421875 24.609375 -1.421875 
Q 20.21875 -1.421875 15.453125 -0.5625 
Q 10.6875 0.296875 5.421875 2 
L 5.421875 11.28125 
Q 10.40625 8.6875 15.234375 7.390625 
Q 20.0625 6.109375 24.8125 6.109375 
Q 31.15625 6.109375 34.5625 8.28125 
Q 37.984375 10.453125 37.984375 14.40625 
Q 37.984375 18.0625 35.515625 20.015625 
Q 33.0625 21.96875 24.703125 23.78125 
L 21.578125 24.515625 
Q 13.234375 26.265625 9.515625 29.90625 
Q 5.8125 33.546875 5.8125 39.890625 
Q 5.8125 47.609375 11.28125 51.796875 
Q 16.75 56 26.8125 56 
Q 31.78125 56 36.171875 55.265625 
Q 40.578125 54.546875 44.28125 53.078125 
z
" id="DejaVuSans-115"/>
       <path d="M 9.078125 75.984375 
L 18.109375 75.984375 
L 18.109375 31.109375 
L 44.921875 54.6875 
L 56.390625 54.6875 
L 27.390625 29.109375 
L 57.625 0 
L 45.90625 0 
L 18.109375 26.703125 
L 18.109375 0 
L 9.078125 0 
z
" id="DejaVuSans-107"/>
      </defs>
      <use xlink:href="#DejaVuSans-1047"/>
      <use x="64.111328" xlink:href="#DejaVuSans-1040"/>
      <use x="132.519531" xlink:href="#DejaVuSans-32"/>
      <use x="164.306641" xlink:href="#DejaVuSans-1055"/>
      <use x="239.501953" xlink:href="#DejaVuSans-1056"/>
      <use x="299.804688" xlink:href="#DejaVuSans-1040"/>
      <use x="368.212891" xlink:href="#DejaVuSans-1042"/>
      <use x="436.816406" xlink:href="#DejaVuSans-1044"/>
      <use x="514.941406" xlink:href="#DejaVuSans-1059"/>
      <use x="575.878906" xlink:href="#DejaVuSans-32"/>
      <use x="607.666016" xlink:href="#DejaVuSans-1063"/>
      <use x="676.220703" xlink:href="#DejaVuSans-1077"/>
      <use x="737.744141" xlink:href="#DejaVuSans-1083"/>
      <use x="801.660156" xlink:href="#DejaVuSans-1103"/>
      <use x="861.816406" xlink:href="#DejaVuSans-1073"/>
      <use x="923.486328" xlink:href="#DejaVuSans-1080"/>
      <use x="988.476562" xlink:href="#DejaVuSans-1085"/>
      <use x="1053.857422" xlink:href="#DejaVuSans-1089"/>
      <use x="1108.837891" xlink:href="#DejaVuSans-1082"/>
      <use x="1169.238281" xlink:href="#DejaVuSans-1072"/>
      <use x="1230.517578" xlink:href="#DejaVuSans-1103"/>
      <use x="1290.673828" xlink:href="#DejaVuSans-32"/>
      <use x="1322.460938" xlink:href="#DejaVuSans-1086"/>
      <use x="1383.642578" xlink:href="#DejaVuSans-1073"/>
      <use x="1445.3125" xlink:href="#DejaVuSans-1083"/>
      <use x="1509.228516" xlink:href="#DejaVuSans-1072"/>
      <use x="1570.507812" xlink:href="#DejaVuSans-1089"/>
      <use x="1625.488281" xlink:href="#DejaVuSans-1090"/>
      <use x="1683.740234" xlink:href="#DejaVuSans-1100"/>
      <use x="1742.675781" xlink:href="#DejaVuSans-32"/>
      <use x="1774.462891" xlink:href="#DejaVuSans-40"/>
      <use x="1813.476562" xlink:href="#DejaVuSans-122"/>
      <use x="1865.966797" xlink:href="#DejaVuSans-97"/>
      <use x="1927.246094" xlink:href="#DejaVuSans-112"/>
      <use x="1990.722656" xlink:href="#DejaVuSans-114"/>
      <use x="2031.835938" xlink:href="#DejaVuSans-97"/>
      <use x="2093.115234" xlink:href="#DejaVuSans-118"/>
      <use x="2152.294922" xlink:href="#DejaVuSans-100"/>
      <use x="2215.771484" xlink:href="#DejaVuSans-117"/>
      <use x="2279.150391" xlink:href="#DejaVuSans-95"/>
      <use x="2329.150391" xlink:href="#DejaVuSans-99"/>
      <use x="2384.130859" xlink:href="#DejaVuSans-104"/>
      <use x="2447.509766" xlink:href="#DejaVuSans-101"/>
      <use x="2509.033203" xlink:href="#DejaVuSans-108"/>
      <use x="2536.816406" xlink:href="#DejaVuSans-121"/>
      <use x="2595.996094" xlink:href="#DejaVuSans-97"/>
      <use x="2657.275391" xlink:href="#DejaVuSans-98"/>
      <use x="2720.751953" xlink:href="#DejaVuSans-105"/>
      <use x="2748.535156" xlink:href="#DejaVuSans-110"/>
      <use x="2811.914062" xlink:href="#DejaVuSans-115"/>
      <use x="2864.013672" xlink:href="#DejaVuSans-107"/>
      <use x="2921.923828" xlink:href="#DejaVuSans-41"/>
     </g>
    </g>
    <g id="patch_24">
     <path d="M 351 111.008281 
L 371 111.008281 
L 371 104.008281 
L 351 104.008281 
z
" style="fill:#d62728;"/>
    </g>
    <g id="text_14">
     <!-- ЗА ПРАВДУ Магадан (zapravdu_magadan) -->
     <g transform="translate(379 111.008281)scale(0.1 -0.1)">
      <defs>
       <path d="M 9.8125 72.90625 
L 24.515625 72.90625 
L 43.109375 23.296875 
L 61.8125 72.90625 
L 76.515625 72.90625 
L 76.515625 0 
L 66.890625 0 
L 66.890625 64.015625 
L 48.09375 14.015625 
L 38.1875 14.015625 
L 19.390625 64.015625 
L 19.390625 0 
L 9.8125 0 
z
" id="DejaVuSans-1052"/>
      </defs>
      <use xlink:href="#DejaVuSans-1047"/>
      <use x="64.111328" xlink:href="#DejaVuSans-1040"/>
      <use x="132.519531" xlink:href="#DejaVuSans-32"/>
      <use x="164.306641" xlink:href="#DejaVuSans-1055"/>
      <use x="239.501953" xlink:href="#DejaVuSans-1056"/>
      <use x="299.804688" xlink:href="#DejaVuSans-1040"/>
      <use x="368.212891" xlink:href="#DejaVuSans-1042"/>
      <use x="436.816406" xlink:href="#DejaVuSans-1044"/>
      <use x="514.941406" xlink:href="#DejaVuSans-1059"/>
      <use x="575.878906" xlink:href="#DejaVuSans-32"/>
      <use x="607.666016" xlink:href="#DejaVuSans-1052"/>
      <use x="693.945312" xlink:href="#DejaVuSans-1072"/>
      <use x="755.224609" xlink:href="#DejaVuSans-1075"/>
      <use x="807.763672" xlink:href="#DejaVuSans-1072"/>
      <use x="869.042969" xlink:href="#DejaVuSans-1076"/>
      <use x="938.183594" xlink:href="#DejaVuSans-1072"/>
      <use x="999.462891" xlink:href="#DejaVuSans-1085"/>
      <use x="1064.84375" xlink:href="#DejaVuSans-32"/>
      <use x="1096.630859" xlink:href="#DejaVuSans-40"/>
      <use x="1135.644531" xlink:href="#DejaVuSans-122"/>
      <use x="1188.134766" xlink:href="#DejaVuSans-97"/>
      <use x="1249.414062" xlink:href="#DejaVuSans-112"/>
      <use x="1312.890625" xlink:href="#DejaVuSans-114"/>
      <use x="1354.003906" xlink:href="#DejaVuSans-97"/>
      <use x="1415.283203" xlink:href="#DejaVuSans-118"/>
      <use x="1474.462891" xlink:href="#DejaVuSans-100"/>
      <use x="1537.939453" xlink:href="#DejaVuSans-117"/>
      <use x="1601.318359" xlink:href="#DejaVuSans-95"/>
      <use x="1651.318359" xlink:href="#DejaVuSans-109"/>
      <use x="1748.730469" xlink:href="#DejaVuSans-97"/>
      <use x="1810.009766" xlink:href="#DejaVuSans-103"/>
      <use x="1873.486328" xlink:href="#DejaVuSans-97"/>
      <use x="1934.765625" xlink:href="#DejaVuSans-100"/>
      <use x="1998.242188" xlink:href="#DejaVuSans-97"/>
      <use x="2059.521484" xlink:href="#DejaVuSans-110"/>
      <use x="2122.900391" xlink:href="#DejaVuSans-41"/>
     </g>
    </g>
    <g id="patch_25">
     <path d="M 351 125.964531 
L 371 125.964531 
L 371 118.964531 
L 351 118.964531 
z
" style="fill:#9467bd;"/>
    </g>
    <g id="text_15">
     <!-- ЗА ПРАВДУ Калининград (zapravdu_kaliningrad) -->
     <g transform="translate(379 125.964531)scale(0.1 -0.1)">
      <defs>
       <path d="M 9.8125 72.90625 
L 19.671875 72.90625 
L 19.671875 36.859375 
L 54.9375 72.90625 
L 67.578125 72.90625 
L 39.40625 44.09375 
L 69.046875 0 
L 58.296875 0 
L 33.015625 37.546875 
L 19.671875 23.921875 
L 19.671875 0 
L 9.8125 0 
z
" id="DejaVuSans-1050"/>
      </defs>
      <use xlink:href="#DejaVuSans-1047"/>
      <use x="64.111328" xlink:href="#DejaVuSans-1040"/>
      <use x="132.519531" xlink:href="#DejaVuSans-32"/>
      <use x="164.306641" xlink:href="#DejaVuSans-1055"/>
      <use x="239.501953" xlink:href="#DejaVuSans-1056"/>
      <use x="299.804688" xlink:href="#DejaVuSans-1040"/>
      <use x="368.212891" xlink:href="#DejaVuSans-1042"/>
      <use x="436.816406" xlink:href="#DejaVuSans-1044"/>
      <use x="514.941406" xlink:href="#DejaVuSans-1059"/>
      <use x="575.878906" xlink:href="#DejaVuSans-32"/>
      <use x="607.666016" xlink:href="#DejaVuSans-1050"/>
      <use x="678.662109" xlink:href="#DejaVuSans-1072"/>
      <use x="739.941406" xlink:href="#DejaVuSans-1083"/>
      <use x="803.857422" xlink:href="#DejaVuSans-1080"/>
      <use x="868.847656" xlink:href="#DejaVuSans-1085"/>
      <use x="934.228516" xlink:href="#DejaVuSans-1080"/>
      <use x="999.21875" xlink:href="#DejaVuSans-1085"/>
      <use x="1064.599609" xlink:href="#DejaVuSans-1075"/>
      <use x="1117.138672" xlink:href="#DejaVuSans-1088"/>
      <use x="1180.615234" xlink:href="#DejaVuSans-1072"/>
      <use x="1241.894531" xlink:href="#DejaVuSans-1076"/>
      <use x="1311.035156" xlink:href="#DejaVuSans-32"/>
      <use x="1342.822266" xlink:href="#DejaVuSans-40"/>
      <use x="1381.835938" xlink:href="#DejaVuSans-122"/>
      <use x="1434.326172" xlink:href="#DejaVuSans-97"/>
      <use x="1495.605469" xlink:href="#DejaVuSans-112"/>
      <use x="1559.082031" xlink:href="#DejaVuSans-114"/>
      <use x="1600.195312" xlink:href="#DejaVuSans-97"/>
      <use x="1661.474609" xlink:href="#DejaVuSans-118"/>
      <use x="1720.654297" xlink:href="#DejaVuSans-100"/>
      <use x="1784.130859" xlink:href="#DejaVuSans-117"/>
      <use x="1847.509766" xlink:href="#DejaVuSans-95"/>
      <use x="1897.509766" xlink:href="#DejaVuSans-107"/>
      <use x="1953.669922" xlink:href="#DejaVuSans-97"/>
      <use x="2014.949219" xlink:href="#DejaVuSans-108"/>
      <use x="2042.732422" xlink:href="#DejaVuSans-105"/>
      <use x="2070.515625" xlink:href="#DejaVuSans-110"/>
      <use x="2133.894531" xlink:href="#DejaVuSans-105"/>
      <use x="2161.677734" xlink:href="#DejaVuSans-110"/>
      <use x="2225.056641" xlink:href="#DejaVuSans-103"/>
      <use x="2288.533203" xlink:href="#DejaVuSans-114"/>
      <use x="2329.646484" xlink:href="#DejaVuSans-97"/>
      <use x="2390.925781" xlink:href="#DejaVuSans-100"/>
      <use x="2454.402344" xlink:href="#DejaVuSans-41"/>
     </g>
    </g>
    <g id="patch_26">
     <path d="M 351 140.920781 
L 371 140.920781 
L 371 133.920781 
L 351 133.920781 
z
" style="fill:#8c564b;"/>
    </g>
    <g id="text_16">
     <!-- ЗА ПРАВДУ Кострома (zapravdu_kostroma) -->
     <g transform="translate(379 140.920781)scale(0.1 -0.1)">
      <use xlink:href="#DejaVuSans-1047"/>
      <use x="64.111328" xlink:href="#DejaVuSans-1040"/>
      <use x="132.519531" xlink:href="#DejaVuSans-32"/>
      <use x="164.306641" xlink:href="#DejaVuSans-1055"/>
      <use x="239.501953" xlink:href="#DejaVuSans-1056"/>
      <use x="299.804688" xlink:href="#DejaVuSans-1040"/>
      <use x="368.212891" xlink:href="#DejaVuSans-1042"/>
      <use x="436.816406" xlink:href="#DejaVuSans-1044"/>
      <use x="514.941406" xlink:href="#DejaVuSans-1059"/>
      <use x="575.878906" xlink:href="#DejaVuSans-32"/>
      <use x="607.666016" xlink:href="#DejaVuSans-1050"/>
      <use x="678.662109" xlink:href="#DejaVuSans-1086"/>
      <use x="739.84375" xlink:href="#DejaVuSans-1089"/>
      <use x="794.824219" xlink:href="#DejaVuSans-1090"/>
      <use x="853.076172" xlink:href="#DejaVuSans-1088"/>
      <use x="916.552734" xlink:href="#DejaVuSans-1086"/>
      <use x="977.734375" xlink:href="#DejaVuSans-1084"/>
      <use x="1053.173828" xlink:href="#DejaVuSans-1072"/>
      <use x="1114.453125" xlink:href="#DejaVuSans-32"/>
      <use x="1146.240234" xlink:href="#DejaVuSans-40"/>
      <use x="1185.253906" xlink:href="#DejaVuSans-122"/>
      <use x="1237.744141" xlink:href="#DejaVuSans-97"/>
      <use x="1299.023438" xlink:href="#DejaVuSans-112"/>
      <use x="1362.5" xlink:href="#DejaVuSans-114"/>
      <use x="1403.613281" xlink:href="#DejaVuSans-97"/>
      <use x="1464.892578" xlink:href="#DejaVuSans-118"/>
      <use x="1524.072266" xlink:href="#DejaVuSans-100"/>
      <use x="1587.548828" xlink:href="#DejaVuSans-117"/>
      <use x="1650.927734" xlink:href="#DejaVuSans-95"/>
      <use x="1700.927734" xlink:href="#DejaVuSans-107"/>
      <use x="1755.212891" xlink:href="#DejaVuSans-111"/>
      <use x="1816.394531" xlink:href="#DejaVuSans-115"/>
      <use x="1868.494141" xlink:href="#DejaVuSans-116"/>
      <use x="1907.703125" xlink:href="#DejaVuSans-114"/>
      <use x="1946.566406" xlink:href="#DejaVuSans-111"/>
      <use x="2007.748047" xlink:href="#DejaVuSans-109"/>
      <use x="2105.160156" xlink:href="#DejaVuSans-97"/>
      <use x="2166.439453" xlink:href="#DejaVuSans-41"/>
     </g>
    </g>
    <g id="patch_27">
     <path d="M 351 156.047344 
L 371 156.047344 
L 371 149.047344 
L 351 149.047344 
z
" style="fill:#e377c2;"/>
    </g>
    <g id="text_17">
     <!-- ЗА ПРАВДУ Калужская область (zapravdu_kaluga) -->
     <g transform="translate(379 156.047344)scale(0.1 -0.1)">
      <defs>
       <path d="M 32.171875 -5.078125 
Q 28.375 -14.84375 24.75 -17.8125 
Q 21.140625 -20.796875 15.09375 -20.796875 
L 7.90625 -20.796875 
L 7.90625 -13.28125 
L 13.1875 -13.28125 
Q 16.890625 -13.28125 18.9375 -11.515625 
Q 21 -9.765625 23.484375 -3.21875 
L 25.09375 0.875 
L 2.984375 54.6875 
L 12.5 54.6875 
L 29.59375 11.921875 
L 46.6875 54.6875 
L 56.203125 54.6875 
z
" id="DejaVuSans-1091"/>
       <path d="M 40.578125 54.6875 
L 49.515625 54.6875 
L 49.515625 29 
L 73.390625 54.6875 
L 83.84375 54.6875 
L 64.203125 33.640625 
L 86.671875 0 
L 77.046875 0 
L 58.640625 27.640625 
L 49.515625 17.828125 
L 49.515625 0 
L 40.578125 0 
L 40.578125 17.828125 
L 31.453125 27.640625 
L 13.03125 0 
L 3.421875 0 
L 25.875 33.640625 
L 6.25 54.6875 
L 16.703125 54.6875 
L 40.578125 29 
z
" id="DejaVuSans-1078"/>
      </defs>
      <use xlink:href="#DejaVuSans-1047"/>
      <use x="64.111328" xlink:href="#DejaVuSans-1040"/>
      <use x="132.519531" xlink:href="#DejaVuSans-32"/>
      <use x="164.306641" xlink:href="#DejaVuSans-1055"/>
      <use x="239.501953" xlink:href="#DejaVuSans-1056"/>
      <use x="299.804688" xlink:href="#DejaVuSans-1040"/>
      <use x="368.212891" xlink:href="#DejaVuSans-1042"/>
      <use x="436.816406" xlink:href="#DejaVuSans-1044"/>
      <use x="514.941406" xlink:href="#DejaVuSans-1059"/>
      <use x="575.878906" xlink:href="#DejaVuSans-32"/>
      <use x="607.666016" xlink:href="#DejaVuSans-1050"/>
      <use x="678.662109" xlink:href="#DejaVuSans-1072"/>
      <use x="739.941406" xlink:href="#DejaVuSans-1083"/>
      <use x="803.857422" xlink:href="#DejaVuSans-1091"/>
      <use x="863.037109" xlink:href="#DejaVuSans-1078"/>
      <use x="953.125" xlink:href="#DejaVuSans-1089"/>
      <use x="1008.105469" xlink:href="#DejaVuSans-1082"/>
      <use x="1068.505859" xlink:href="#DejaVuSans-1072"/>
      <use x="1129.785156" xlink:href="#DejaVuSans-1103"/>
      <use x="1189.941406" xlink:href="#DejaVuSans-32"/>
      <use x="1221.728516" xlink:href="#DejaVuSans-1086"/>
      <use x="1282.910156" xlink:href="#DejaVuSans-1073"/>
      <use x="1344.580078" xlink:href="#DejaVuSans-1083"/>
      <use x="1408.496094" xlink:href="#DejaVuSans-1072"/>
      <use x="1469.775391" xlink:href="#DejaVuSans-1089"/>
      <use x="1524.755859" xlink:href="#DejaVuSans-1090"/>
      <use x="1583.007812" xlink:href="#DejaVuSans-1100"/>
      <use x="1641.943359" xlink:href="#DejaVuSans-32"/>
      <use x="1673.730469" xlink:href="#DejaVuSans-40"/>
      <use x="1712.744141" xlink:href="#DejaVuSans-122"/>
      <use x="1765.234375" xlink:href="#DejaVuSans-97"/>
      <use x="1826.513672" xlink:href="#DejaVuSans-112"/>
      <use x="1889.990234" xlink:href="#DejaVuSans-114"/>
      <use x="1931.103516" xlink:href="#DejaVuSans-97"/>
      <use x="1992.382812" xlink:href="#DejaVuSans-118"/>
      <use x="2051.5625" xlink:href="#DejaVuSans-100"/>
      <use x="2115.039062" xlink:href="#DejaVuSans-117"/>
      <use x="2178.417969" xlink:href="#DejaVuSans-95"/>
      <use x="2228.417969" xlink:href="#DejaVuSans-107"/>
      <use x="2284.578125" xlink:href="#DejaVuSans-97"/>
      <use x="2345.857422" xlink:href="#DejaVuSans-108"/>
      <use x="2373.640625" xlink:href="#DejaVuSans-117"/>
      <use x="2437.019531" xlink:href="#DejaVuSans-103"/>
      <use x="2500.496094" xlink:href="#DejaVuSans-97"/>
      <use x="2561.775391" xlink:href="#DejaVuSans-41"/>
     </g>
    </g>
    <g id="patch_28">
     <path d="M 351 171.003594 
L 371 171.003594 
L 371 164.003594 
L 351 164.003594 
z
" style="fill:#7f7f7f;"/>
    </g>
    <g id="text_18">
     <!-- ЗА ПРАВДУ Ставропольский край (zapravdu_stavropol) -->
     <g transform="translate(379 171.003594)scale(0.1 -0.1)">
      <defs>
       <path d="M 64.40625 67.28125 
L 64.40625 56.890625 
Q 59.421875 61.53125 53.78125 63.8125 
Q 48.140625 66.109375 41.796875 66.109375 
Q 29.296875 66.109375 22.65625 58.46875 
Q 16.015625 50.828125 16.015625 36.375 
Q 16.015625 21.96875 22.65625 14.328125 
Q 29.296875 6.6875 41.796875 6.6875 
Q 48.140625 6.6875 53.78125 8.984375 
Q 59.421875 11.28125 64.40625 15.921875 
L 64.40625 5.609375 
Q 59.234375 2.09375 53.4375 0.328125 
Q 47.65625 -1.421875 41.21875 -1.421875 
Q 24.65625 -1.421875 15.125 8.703125 
Q 5.609375 18.84375 5.609375 36.375 
Q 5.609375 53.953125 15.125 64.078125 
Q 24.65625 74.21875 41.21875 74.21875 
Q 47.75 74.21875 53.53125 72.484375 
Q 59.328125 70.75 64.40625 67.28125 
z
" id="DejaVuSans-1057"/>
       <path d="M 55.90625 54.6875 
L 55.90625 0 
L 46.96875 0 
L 46.96875 43.890625 
L 20.609375 0 
L 9.078125 0 
L 9.078125 54.6875 
L 18.015625 54.6875 
L 18.015625 10.890625 
L 44.34375 54.6875 
z
M 17.21875 75.515625 
L 22.984375 75.515625 
Q 23.515625 71.859375 25.875 70.015625 
Q 28.25 68.1875 32.5 68.1875 
Q 36.703125 68.1875 39.046875 70 
Q 41.390625 71.8125 42.015625 75.515625 
L 47.78125 75.515625 
Q 47.296875 68.53125 43.4375 65.015625 
Q 39.578125 61.5 32.5 61.5 
Q 25.421875 61.5 21.5625 65.015625 
Q 17.703125 68.53125 17.21875 75.515625 
z
" id="DejaVuSans-1081"/>
      </defs>
      <use xlink:href="#DejaVuSans-1047"/>
      <use x="64.111328" xlink:href="#DejaVuSans-1040"/>
      <use x="132.519531" xlink:href="#DejaVuSans-32"/>
      <use x="164.306641" xlink:href="#DejaVuSans-1055"/>
      <use x="239.501953" xlink:href="#DejaVuSans-1056"/>
      <use x="299.804688" xlink:href="#DejaVuSans-1040"/>
      <use x="368.212891" xlink:href="#DejaVuSans-1042"/>
      <use x="436.816406" xlink:href="#DejaVuSans-1044"/>
      <use x="514.941406" xlink:href="#DejaVuSans-1059"/>
      <use x="575.878906" xlink:href="#DejaVuSans-32"/>
      <use x="607.666016" xlink:href="#DejaVuSans-1057"/>
      <use x="677.490234" xlink:href="#DejaVuSans-1090"/>
      <use x="735.742188" xlink:href="#DejaVuSans-1072"/>
      <use x="797.021484" xlink:href="#DejaVuSans-1074"/>
      <use x="855.957031" xlink:href="#DejaVuSans-1088"/>
      <use x="919.433594" xlink:href="#DejaVuSans-1086"/>
      <use x="980.615234" xlink:href="#DejaVuSans-1087"/>
      <use x="1045.996094" xlink:href="#DejaVuSans-1086"/>
      <use x="1107.177734" xlink:href="#DejaVuSans-1083"/>
      <use x="1171.09375" xlink:href="#DejaVuSans-1100"/>
      <use x="1230.029297" xlink:href="#DejaVuSans-1089"/>
      <use x="1285.009766" xlink:href="#DejaVuSans-1082"/>
      <use x="1345.410156" xlink:href="#DejaVuSans-1080"/>
      <use x="1410.400391" xlink:href="#DejaVuSans-1081"/>
      <use x="1475.390625" xlink:href="#DejaVuSans-32"/>
      <use x="1507.177734" xlink:href="#DejaVuSans-1082"/>
      <use x="1567.578125" xlink:href="#DejaVuSans-1088"/>
      <use x="1631.054688" xlink:href="#DejaVuSans-1072"/>
      <use x="1692.333984" xlink:href="#DejaVuSans-1081"/>
      <use x="1757.324219" xlink:href="#DejaVuSans-32"/>
      <use x="1789.111328" xlink:href="#DejaVuSans-40"/>
      <use x="1828.125" xlink:href="#DejaVuSans-122"/>
      <use x="1880.615234" xlink:href="#DejaVuSans-97"/>
      <use x="1941.894531" xlink:href="#DejaVuSans-112"/>
      <use x="2005.371094" xlink:href="#DejaVuSans-114"/>
      <use x="2046.484375" xlink:href="#DejaVuSans-97"/>
      <use x="2107.763672" xlink:href="#DejaVuSans-118"/>
      <use x="2166.943359" xlink:href="#DejaVuSans-100"/>
      <use x="2230.419922" xlink:href="#DejaVuSans-117"/>
      <use x="2293.798828" xlink:href="#DejaVuSans-95"/>
      <use x="2343.798828" xlink:href="#DejaVuSans-115"/>
      <use x="2395.898438" xlink:href="#DejaVuSans-116"/>
      <use x="2435.107422" xlink:href="#DejaVuSans-97"/>
      <use x="2496.386719" xlink:href="#DejaVuSans-118"/>
      <use x="2555.566406" xlink:href="#DejaVuSans-114"/>
      <use x="2594.429688" xlink:href="#DejaVuSans-111"/>
      <use x="2655.611328" xlink:href="#DejaVuSans-112"/>
      <use x="2719.087891" xlink:href="#DejaVuSans-111"/>
      <use x="2780.269531" xlink:href="#DejaVuSans-108"/>
      <use x="2808.052734" xlink:href="#DejaVuSans-41"/>
     </g>
    </g>
    <g id="patch_29">
     <path d="M 351 186.130156 
L 371 186.130156 
L 371 179.130156 
L 351 179.130156 
z
" style="fill:#bcbd22;"/>
    </g>
    <g id="text_19">
     <!-- ЗА ПРАВДУ Новосибирская область (zapravdu_novosibirsk) -->
     <g transform="translate(379 186.130156)scale(0.1 -0.1)">
      <defs>
       <path d="M 9.8125 72.90625 
L 19.671875 72.90625 
L 19.671875 43.015625 
L 55.515625 43.015625 
L 55.515625 72.90625 
L 65.375 72.90625 
L 65.375 0 
L 55.515625 0 
L 55.515625 34.71875 
L 19.671875 34.71875 
L 19.671875 0 
L 9.8125 0 
z
" id="DejaVuSans-1053"/>
      </defs>
      <use xlink:href="#DejaVuSans-1047"/>
      <use x="64.111328" xlink:href="#DejaVuSans-1040"/>
      <use x="132.519531" xlink:href="#DejaVuSans-32"/>
      <use x="164.306641" xlink:href="#DejaVuSans-1055"/>
      <use x="239.501953" xlink:href="#DejaVuSans-1056"/>
      <use x="299.804688" xlink:href="#DejaVuSans-1040"/>
      <use x="368.212891" xlink:href="#DejaVuSans-1042"/>
      <use x="436.816406" xlink:href="#DejaVuSans-1044"/>
      <use x="514.941406" xlink:href="#DejaVuSans-1059"/>
      <use x="575.878906" xlink:href="#DejaVuSans-32"/>
      <use x="607.666016" xlink:href="#DejaVuSans-1053"/>
      <use x="682.861328" xlink:href="#DejaVuSans-1086"/>
      <use x="744.042969" xlink:href="#DejaVuSans-1074"/>
      <use x="802.978516" xlink:href="#DejaVuSans-1086"/>
      <use x="864.160156" xlink:href="#DejaVuSans-1089"/>
      <use x="919.140625" xlink:href="#DejaVuSans-1080"/>
      <use x="984.130859" xlink:href="#DejaVuSans-1073"/>
      <use x="1045.800781" xlink:href="#DejaVuSans-1080"/>
      <use x="1110.791016" xlink:href="#DejaVuSans-1088"/>
      <use x="1174.267578" xlink:href="#DejaVuSans-1089"/>
      <use x="1229.248047" xlink:href="#DejaVuSans-1082"/>
      <use x="1289.648438" xlink:href="#DejaVuSans-1072"/>
      <use x="1350.927734" xlink:href="#DejaVuSans-1103"/>
      <use x="1411.083984" xlink:href="#DejaVuSans-32"/>
      <use x="1442.871094" xlink:href="#DejaVuSans-1086"/>
      <use x="1504.052734" xlink:href="#DejaVuSans-1073"/>
      <use x="1565.722656" xlink:href="#DejaVuSans-1083"/>
      <use x="1629.638672" xlink:href="#DejaVuSans-1072"/>
      <use x="1690.917969" xlink:href="#DejaVuSans-1089"/>
      <use x="1745.898438" xlink:href="#DejaVuSans-1090"/>
      <use x="1804.150391" xlink:href="#DejaVuSans-1100"/>
      <use x="1863.085938" xlink:href="#DejaVuSans-32"/>
      <use x="1894.873047" xlink:href="#DejaVuSans-40"/>
      <use x="1933.886719" xlink:href="#DejaVuSans-122"/>
      <use x="1986.376953" xlink:href="#DejaVuSans-97"/>
      <use x="2047.65625" xlink:href="#DejaVuSans-112"/>
      <use x="2111.132812" xlink:href="#DejaVuSans-114"/>
      <use x="2152.246094" xlink:href="#DejaVuSans-97"/>
      <use x="2213.525391" xlink:href="#DejaVuSans-118"/>
      <use x="2272.705078" xlink:href="#DejaVuSans-100"/>
      <use x="2336.181641" xlink:href="#DejaVuSans-117"/>
      <use x="2399.560547" xlink:href="#DejaVuSans-95"/>
      <use x="2449.560547" xlink:href="#DejaVuSans-110"/>
      <use x="2512.939453" xlink:href="#DejaVuSans-111"/>
      <use x="2574.121094" xlink:href="#DejaVuSans-118"/>
      <use x="2633.300781" xlink:href="#DejaVuSans-111"/>
      <use x="2694.482422" xlink:href="#DejaVuSans-115"/>
      <use x="2746.582031" xlink:href="#DejaVuSans-105"/>
      <use x="2774.365234" xlink:href="#DejaVuSans-98"/>
      <use x="2837.841797" xlink:href="#DejaVuSans-105"/>
      <use x="2865.625" xlink:href="#DejaVuSans-114"/>
      <use x="2906.738281" xlink:href="#DejaVuSans-115"/>
      <use x="2958.837891" xlink:href="#DejaVuSans-107"/>
      <use x="3016.748047" xlink:href="#DejaVuSans-41"/>
     </g>
    </g>
   </g>
  </g>
 </g>
</svg>
