<?xml version="1.0" encoding="utf-8" standalone="no"?>
<!DOCTYPE svg PUBLIC "-//W3C//DTD SVG 1.1//EN"
  "http://www.w3.org/Graphics/SVG/1.1/DTD/svg11.dtd">
<!-- Created with matplotlib (https://matplotlib.org/) -->
<svg height="288pt" version="1.1" viewBox="0 0 432 288" width="432pt" xmlns="http://www.w3.org/2000/svg" xmlns:xlink="http://www.w3.org/1999/xlink">
 <metadata>
  <rdf:RDF xmlns:cc="http://creativecommons.org/ns#" xmlns:dc="http://purl.org/dc/elements/1.1/" xmlns:rdf="http://www.w3.org/1999/02/22-rdf-syntax-ns#">
   <cc:Work>
    <dc:type rdf:resource="http://purl.org/dc/dcmitype/StillImage"/>
    <dc:date>2020-12-01T00:21:42.251481</dc:date>
    <dc:format>image/svg+xml</dc:format>
    <dc:creator>
     <cc:Agent>
      <dc:title>Matplotlib v3.3.3, https://matplotlib.org/</dc:title>
     </cc:Agent>
    </dc:creator>
   </cc:Work>
  </rdf:RDF>
 </metadata>
 <defs>
  <style type="text/css">*{stroke-linecap:butt;stroke-linejoin:round;}</style>
 </defs>
 <g id="figure_1">
  <g id="patch_1">
   <path d="M 0 288 
L 432 288 
L 432 0 
L 0 0 
z
" style="fill:none;"/>
  </g>
  <g id="axes_1">
   <g id="patch_2">
    <path d="M 318.259636 145.256727 
C 318.259636 132.277655 315.703042 119.424788 310.736166 107.433688 
C 305.76929 95.442589 298.488726 84.546454 289.311136 75.368864 
C 280.133546 66.191274 269.237411 58.91071 257.246312 53.943834 
C 245.255212 48.976958 232.402345 46.420364 219.423273 46.420364 
C 206.4442 46.420364 193.591333 48.976958 181.600234 53.943834 
C 169.609135 58.91071 158.713 66.191274 149.53541 75.368864 
C 140.35782 84.546454 133.077255 95.442589 128.110379 107.433688 
C 123.143503 119.424788 120.586909 132.277655 120.586909 145.256727 
C 120.586909 158.2358 123.143503 171.088667 128.110379 183.079766 
C 133.077255 195.070865 140.35782 205.967 149.53541 215.14459 
C 158.713 224.32218 169.609135 231.602745 181.600234 236.569621 
C 193.591333 241.536497 206.4442 244.093091 219.423273 244.093091 
C 232.402345 244.093091 245.255212 241.536497 257.246312 236.569621 
C 269.237411 231.602745 280.133546 224.32218 289.311136 215.14459 
C 298.488726 205.967 305.76929 195.070865 310.736166 183.079766 
C 315.703042 171.088667 318.259636 158.2358 318.259636 145.256727 
M 268.841455 145.256727 
C 268.841455 151.746263 267.563157 158.172697 265.079719 164.168247 
C 262.596281 170.163796 258.955999 175.611864 254.367204 180.200659 
C 249.778409 184.789454 244.330342 188.429736 238.334792 190.913174 
C 232.339243 193.396612 225.912809 194.674909 219.423273 194.674909 
C 212.933737 194.674909 206.507303 193.396612 200.511753 190.913174 
C 194.516204 188.429736 189.068136 184.789454 184.479341 180.200659 
C 179.890546 175.611864 176.250264 170.163796 173.766826 164.168247 
C 171.283388 158.172697 170.005091 151.746263 170.005091 145.256727 
C 170.005091 138.767191 171.283388 132.340757 173.766826 126.345208 
C 176.250264 120.349658 179.890546 114.901591 184.479341 110.312796 
C 189.068136 105.724001 194.516204 102.083719 200.511753 99.600281 
C 206.507303 97.116843 212.933737 95.838545 219.423273 95.838545 
C 225.912809 95.838545 232.339243 97.116843 238.334792 99.600281 
C 244.330342 102.083719 249.778409 105.724001 254.367204 110.312796 
C 258.955999 114.901591 262.596281 120.349658 265.079719 126.345208 
C 267.563157 132.340757 268.841455 138.767191 268.841455 145.256727 
M 318.259636 145.256727 
z
" style="fill:#4c4c00;opacity:0.5;stroke:#4c4c00;stroke-linejoin:miter;"/>
   </g>
   <g id="patch_3">
    <path d="M 320.236364 143.28 
C 320.236364 130.300928 317.679769 117.44806 312.712893 105.456961 
C 307.746017 93.465862 300.465453 82.569727 291.287863 73.392137 
C 282.110273 64.214547 271.214138 56.933983 259.223039 51.967107 
C 247.23194 47.000231 234.379072 44.443636 221.4 44.443636 
C 208.420928 44.443636 195.56806 47.000231 183.576961 51.967107 
C 171.585862 56.933983 160.689727 64.214547 151.512137 73.392137 
C 142.334547 82.569727 135.053983 93.465862 130.087107 105.456961 
C 125.120231 117.44806 122.563636 130.300928 122.563636 143.28 
C 122.563636 156.259072 125.120231 169.11194 130.087107 181.103039 
C 135.053983 193.094138 142.334547 203.990273 151.512137 213.167863 
C 160.689727 222.345453 171.585862 229.626017 183.576961 234.592893 
C 195.56806 239.559769 208.420928 242.116364 221.4 242.116364 
C 234.379072 242.116364 247.23194 239.559769 259.223039 234.592893 
C 271.214138 229.626017 282.110273 222.345453 291.287863 213.167863 
C 300.465453 203.990273 307.746017 193.094138 312.712893 181.103039 
C 317.679769 169.11194 320.236364 156.259072 320.236364 143.28 
M 270.818182 143.28 
C 270.818182 149.769536 269.539885 156.19597 267.056447 162.191519 
C 264.573009 168.187069 260.932727 173.635136 256.343931 178.223931 
C 251.755136 182.812727 246.307069 186.453009 240.311519 188.936447 
C 234.31597 191.419885 227.889536 192.698182 221.4 192.698182 
C 214.910464 192.698182 208.48403 191.419885 202.488481 188.936447 
C 196.492931 186.453009 191.044864 182.812727 186.456069 178.223931 
C 181.867273 173.635136 178.226991 168.187069 175.743553 162.191519 
C 173.260115 156.19597 171.981818 149.769536 171.981818 143.28 
C 171.981818 136.790464 173.260115 130.36403 175.743553 124.368481 
C 178.226991 118.372931 181.867273 112.924864 186.456069 108.336069 
C 191.044864 103.747273 196.492931 100.106991 202.488481 97.623553 
C 208.48403 95.140115 214.910464 93.861818 221.4 93.861818 
C 227.889536 93.861818 234.31597 95.140115 240.311519 97.623553 
C 246.307069 100.106991 251.755136 103.747273 256.343931 108.336069 
C 260.932727 112.924864 264.573009 118.372931 267.056447 124.368481 
C 269.539885 130.36403 270.818182 136.790464 270.818182 143.28 
M 320.236364 143.28 
z
" style="fill:#ffff00;"/>
   </g>
   <g id="matplotlib.axis_1"/>
   <g id="matplotlib.axis_2"/>
   <g id="text_1">
    <!-- Семья и дети -->
    <g transform="translate(41.845625 146.039375)scale(0.1 -0.1)">
     <defs>
      <path d="M 64.40625 67.28125 
L 64.40625 56.890625 
Q 59.421875 61.53125 53.78125 63.8125 
Q 48.140625 66.109375 41.796875 66.109375 
Q 29.296875 66.109375 22.65625 58.46875 
Q 16.015625 50.828125 16.015625 36.375 
Q 16.015625 21.96875 22.65625 14.328125 
Q 29.296875 6.6875 41.796875 6.6875 
Q 48.140625 6.6875 53.78125 8.984375 
Q 59.421875 11.28125 64.40625 15.921875 
L 64.40625 5.609375 
Q 59.234375 2.09375 53.4375 0.328125 
Q 47.65625 -1.421875 41.21875 -1.421875 
Q 24.65625 -1.421875 15.125 8.703125 
Q 5.609375 18.84375 5.609375 36.375 
Q 5.609375 53.953125 15.125 64.078125 
Q 24.65625 74.21875 41.21875 74.21875 
Q 47.75 74.21875 53.53125 72.484375 
Q 59.328125 70.75 64.40625 67.28125 
z
" id="DejaVuSans-1057"/>
      <path d="M 56.203125 29.59375 
L 56.203125 25.203125 
L 14.890625 25.203125 
Q 15.484375 15.921875 20.484375 11.0625 
Q 25.484375 6.203125 34.421875 6.203125 
Q 39.59375 6.203125 44.453125 7.46875 
Q 49.3125 8.734375 54.109375 11.28125 
L 54.109375 2.78125 
Q 49.265625 0.734375 44.1875 -0.34375 
Q 39.109375 -1.421875 33.890625 -1.421875 
Q 20.796875 -1.421875 13.15625 6.1875 
Q 5.515625 13.8125 5.515625 26.8125 
Q 5.515625 40.234375 12.765625 48.109375 
Q 20.015625 56 32.328125 56 
Q 43.359375 56 49.78125 48.890625 
Q 56.203125 41.796875 56.203125 29.59375 
z
M 47.21875 32.234375 
Q 47.125 39.59375 43.09375 43.984375 
Q 39.0625 48.390625 32.421875 48.390625 
Q 24.90625 48.390625 20.390625 44.140625 
Q 15.875 39.890625 15.1875 32.171875 
z
" id="DejaVuSans-1077"/>
      <path d="M 9.078125 54.6875 
L 22.21875 54.6875 
L 37.75 18.0625 
L 53.328125 54.6875 
L 66.359375 54.6875 
L 66.359375 0 
L 57.328125 0 
L 57.328125 46.09375 
L 42.234375 10.5 
L 33.25 10.5 
L 18.109375 46.09375 
L 18.109375 0 
L 9.078125 0 
z
" id="DejaVuSans-1084"/>
      <path d="M 43.453125 16.21875 
Q 43.453125 20.609375 40.25 22.90625 
Q 37.0625 25.203125 30.90625 25.203125 
L 18.109375 25.203125 
L 18.109375 7.171875 
L 30.90625 7.171875 
Q 37.0625 7.171875 40.25 9.484375 
Q 43.453125 11.8125 43.453125 16.21875 
z
M 9.078125 54.6875 
L 18.109375 54.6875 
L 18.109375 32.375 
L 31.296875 32.375 
Q 41.75 32.375 47.390625 28.390625 
Q 53.03125 24.421875 53.03125 16.21875 
Q 53.03125 8.015625 47.390625 4 
Q 41.75 0 31.296875 0 
L 9.078125 0 
z
" id="DejaVuSans-1100"/>
      <path d="M 18.453125 38.921875 
Q 18.453125 34.859375 21.578125 32.5625 
Q 24.703125 30.28125 30.515625 30.28125 
L 42.625 30.28125 
L 42.625 47.515625 
L 30.515625 47.515625 
Q 24.703125 47.515625 21.578125 45.265625 
Q 18.453125 43.015625 18.453125 38.921875 
z
M 5.671875 0 
L 22.359375 23.96875 
Q 16.703125 25.25 12.9375 28.59375 
Q 9.1875 31.9375 9.1875 38.921875 
Q 9.1875 46.828125 14.421875 50.75 
Q 19.671875 54.6875 30.28125 54.6875 
L 51.65625 54.6875 
L 51.65625 0 
L 42.625 0 
L 42.625 23.09375 
L 31.453125 23.09375 
L 15.328125 0 
z
" id="DejaVuSans-1103"/>
      <path id="DejaVuSans-32"/>
      <path d="M 55.90625 54.6875 
L 55.90625 0 
L 46.96875 0 
L 46.96875 43.890625 
L 20.609375 0 
L 9.078125 0 
L 9.078125 54.6875 
L 18.015625 54.6875 
L 18.015625 10.890625 
L 44.34375 54.6875 
z
" id="DejaVuSans-1080"/>
      <path d="M 21.625 7.171875 
L 47.703125 7.171875 
L 47.703125 47.515625 
L 28.8125 47.515625 
L 28.8125 40.671875 
Q 28.8125 20.5625 23.046875 9.8125 
z
M 8.59375 7.171875 
Q 13.03125 9.125 14.984375 13.28125 
Q 19.78125 23.578125 19.78125 44.34375 
L 19.78125 54.6875 
L 56.734375 54.6875 
L 56.734375 7.171875 
L 63.921875 7.171875 
L 63.921875 -13.8125 
L 56.734375 -13.8125 
L 56.734375 0 
L 12.40625 0 
L 12.40625 -13.8125 
L 5.21875 -13.8125 
L 5.21875 7.171875 
z
" id="DejaVuSans-1076"/>
      <path d="M 2.9375 54.6875 
L 55.328125 54.6875 
L 55.328125 47.515625 
L 33.546875 47.515625 
L 33.546875 0 
L 24.703125 0 
L 24.703125 47.515625 
L 2.9375 47.515625 
z
" id="DejaVuSans-1090"/>
     </defs>
     <use xlink:href="#DejaVuSans-1057"/>
     <use x="69.824219" xlink:href="#DejaVuSans-1077"/>
     <use x="131.347656" xlink:href="#DejaVuSans-1084"/>
     <use x="206.787109" xlink:href="#DejaVuSans-1100"/>
     <use x="265.722656" xlink:href="#DejaVuSans-1103"/>
     <use x="325.878906" xlink:href="#DejaVuSans-32"/>
     <use x="357.666016" xlink:href="#DejaVuSans-1080"/>
     <use x="422.65625" xlink:href="#DejaVuSans-32"/>
     <use x="454.443359" xlink:href="#DejaVuSans-1076"/>
     <use x="523.583984" xlink:href="#DejaVuSans-1077"/>
     <use x="585.107422" xlink:href="#DejaVuSans-1090"/>
     <use x="643.359375" xlink:href="#DejaVuSans-1080"/>
    </g>
   </g>
   <g id="text_2">
    <!-- 100.0% -->
    <g transform="translate(143.033338 146.039375)scale(0.1 -0.1)">
     <defs>
      <path d="M 12.40625 8.296875 
L 28.515625 8.296875 
L 28.515625 63.921875 
L 10.984375 60.40625 
L 10.984375 69.390625 
L 28.421875 72.90625 
L 38.28125 72.90625 
L 38.28125 8.296875 
L 54.390625 8.296875 
L 54.390625 0 
L 12.40625 0 
z
" id="DejaVuSans-49"/>
      <path d="M 31.78125 66.40625 
Q 24.171875 66.40625 20.328125 58.90625 
Q 16.5 51.421875 16.5 36.375 
Q 16.5 21.390625 20.328125 13.890625 
Q 24.171875 6.390625 31.78125 6.390625 
Q 39.453125 6.390625 43.28125 13.890625 
Q 47.125 21.390625 47.125 36.375 
Q 47.125 51.421875 43.28125 58.90625 
Q 39.453125 66.40625 31.78125 66.40625 
z
M 31.78125 74.21875 
Q 44.046875 74.21875 50.515625 64.515625 
Q 56.984375 54.828125 56.984375 36.375 
Q 56.984375 17.96875 50.515625 8.265625 
Q 44.046875 -1.421875 31.78125 -1.421875 
Q 19.53125 -1.421875 13.0625 8.265625 
Q 6.59375 17.96875 6.59375 36.375 
Q 6.59375 54.828125 13.0625 64.515625 
Q 19.53125 74.21875 31.78125 74.21875 
z
" id="DejaVuSans-48"/>
      <path d="M 10.6875 12.40625 
L 21 12.40625 
L 21 0 
L 10.6875 0 
z
" id="DejaVuSans-46"/>
      <path d="M 72.703125 32.078125 
Q 68.453125 32.078125 66.03125 28.46875 
Q 63.625 24.859375 63.625 18.40625 
Q 63.625 12.0625 66.03125 8.421875 
Q 68.453125 4.78125 72.703125 4.78125 
Q 76.859375 4.78125 79.265625 8.421875 
Q 81.6875 12.0625 81.6875 18.40625 
Q 81.6875 24.8125 79.265625 28.4375 
Q 76.859375 32.078125 72.703125 32.078125 
z
M 72.703125 38.28125 
Q 80.421875 38.28125 84.953125 32.90625 
Q 89.5 27.546875 89.5 18.40625 
Q 89.5 9.28125 84.9375 3.921875 
Q 80.375 -1.421875 72.703125 -1.421875 
Q 64.890625 -1.421875 60.34375 3.921875 
Q 55.8125 9.28125 55.8125 18.40625 
Q 55.8125 27.59375 60.375 32.9375 
Q 64.9375 38.28125 72.703125 38.28125 
z
M 22.3125 68.015625 
Q 18.109375 68.015625 15.6875 64.375 
Q 13.28125 60.75 13.28125 54.390625 
Q 13.28125 47.953125 15.671875 44.328125 
Q 18.0625 40.71875 22.3125 40.71875 
Q 26.5625 40.71875 28.96875 44.328125 
Q 31.390625 47.953125 31.390625 54.390625 
Q 31.390625 60.6875 28.953125 64.34375 
Q 26.515625 68.015625 22.3125 68.015625 
z
M 66.40625 74.21875 
L 74.21875 74.21875 
L 28.609375 -1.421875 
L 20.796875 -1.421875 
z
M 22.3125 74.21875 
Q 30.03125 74.21875 34.609375 68.875 
Q 39.203125 63.53125 39.203125 54.390625 
Q 39.203125 45.171875 34.640625 39.84375 
Q 30.078125 34.515625 22.3125 34.515625 
Q 14.546875 34.515625 10.03125 39.859375 
Q 5.515625 45.21875 5.515625 54.390625 
Q 5.515625 63.484375 10.046875 68.84375 
Q 14.59375 74.21875 22.3125 74.21875 
z
" id="DejaVuSans-37"/>
     </defs>
     <use xlink:href="#DejaVuSans-49"/>
     <use x="63.623047" xlink:href="#DejaVuSans-48"/>
     <use x="127.246094" xlink:href="#DejaVuSans-48"/>
     <use x="190.869141" xlink:href="#DejaVuSans-46"/>
     <use x="222.65625" xlink:href="#DejaVuSans-48"/>
     <use x="286.279297" xlink:href="#DejaVuSans-37"/>
    </g>
   </g>
  </g>
 </g>
</svg>
