<?xml version="1.0" encoding="utf-8" standalone="no"?>
<!DOCTYPE svg PUBLIC "-//W3C//DTD SVG 1.1//EN"
  "http://www.w3.org/Graphics/SVG/1.1/DTD/svg11.dtd">
<!-- Created with matplotlib (https://matplotlib.org/) -->
<svg height="288pt" version="1.1" viewBox="0 0 432 288" width="432pt" xmlns="http://www.w3.org/2000/svg" xmlns:xlink="http://www.w3.org/1999/xlink">
 <metadata>
  <rdf:RDF xmlns:cc="http://creativecommons.org/ns#" xmlns:dc="http://purl.org/dc/elements/1.1/" xmlns:rdf="http://www.w3.org/1999/02/22-rdf-syntax-ns#">
   <cc:Work>
    <dc:type rdf:resource="http://purl.org/dc/dcmitype/StillImage"/>
    <dc:date>2020-12-01T09:40:52.108225</dc:date>
    <dc:format>image/svg+xml</dc:format>
    <dc:creator>
     <cc:Agent>
      <dc:title>Matplotlib v3.3.3, https://matplotlib.org/</dc:title>
     </cc:Agent>
    </dc:creator>
   </cc:Work>
  </rdf:RDF>
 </metadata>
 <defs>
  <style type="text/css">*{stroke-linecap:butt;stroke-linejoin:round;}</style>
 </defs>
 <g id="figure_1">
  <g id="patch_1">
   <path d="M 0 288 
L 432 288 
L 432 0 
L 0 0 
z
" style="fill:none;"/>
  </g>
  <g id="axes_1">
   <g id="patch_2">
    <path d="M 312.142714 137.007465 
C 312.142714 118.561521 306.416854 100.56263 295.75927 85.507107 
C 285.101686 70.451584 270.028969 59.069197 252.631594 52.938599 
C 235.234219 46.808001 216.355469 46.226353 198.613686 51.274326 
C 180.871904 56.322299 165.127065 66.755208 153.562864 81.126086 
L 188.284867 109.066776 
C 194.066968 101.881337 201.939387 96.664882 210.810278 94.140896 
C 219.68117 91.616909 229.120545 91.907733 237.819232 94.973032 
C 246.51792 98.038331 254.054278 103.729524 259.38307 111.257286 
C 264.711862 118.785047 267.574792 127.784493 267.574792 137.007465 
L 312.142714 137.007465 
z
" style="fill:#4c4c00;opacity:0.5;stroke:#4c4c00;stroke-linejoin:miter;"/>
   </g>
   <g id="patch_3">
    <path d="M 143.02191 84.840575 
C 140.726327 87.693304 138.608708 90.684777 136.681092 93.797983 
C 134.753477 96.91119 133.019525 100.140219 131.489096 103.466711 
L 171.977506 122.094333 
C 172.74272 120.431087 173.609696 118.816572 174.573504 117.259969 
C 175.537312 115.703366 176.596122 114.207629 177.743913 112.781265 
L 143.02191 84.840575 
z
" style="fill:#4c3200;opacity:0.5;stroke:#4c3200;stroke-linejoin:miter;"/>
   </g>
   <g id="patch_4">
    <path d="M 130.755908 104.93915 
C 129.990875 106.602002 129.277243 108.288024 128.616028 109.994818 
C 127.954813 111.701612 127.346327 113.428368 126.791438 115.17263 
L 169.262083 128.683512 
C 169.539528 127.811381 169.84377 126.948003 170.174378 126.094606 
C 170.504986 125.241209 170.861802 124.398198 171.244318 123.566772 
L 130.755908 104.93915 
z
" style="fill:#4c004c;opacity:0.5;stroke:#4c004c;stroke-linejoin:miter;"/>
   </g>
   <g id="patch_5">
    <path d="M 126.257084 119.487963 
C 122.358183 131.743925 121.157646 144.699784 122.738136 157.463486 
C 124.318626 170.227188 128.643016 182.498912 135.413557 193.43371 
L 173.305966 169.971719 
C 169.920695 164.50432 167.7585 158.368458 166.968255 151.986607 
C 166.17801 145.604756 166.778278 139.126826 168.727729 132.998845 
L 126.257084 119.487963 
z
" style="fill:#4c0000;opacity:0.5;stroke:#4c0000;stroke-linejoin:miter;"/>
   </g>
   <g id="patch_6">
    <path d="M 144.534077 201.247691 
C 152.770343 214.549715 164.365481 225.451721 178.149309 232.853478 
C 191.933137 240.255235 207.425825 243.899081 223.063848 243.417276 
C 238.701872 242.935472 253.940856 238.34479 267.242879 230.108523 
C 280.544903 221.872256 291.446909 210.277118 298.848665 196.493289 
L 259.583779 175.408499 
C 255.882901 182.300413 250.431898 188.097982 243.780886 192.216116 
C 237.129875 196.334249 229.510383 198.62959 221.691371 198.870492 
C 213.872359 199.111395 206.126015 197.289472 199.234101 193.588593 
C 192.342187 189.887715 186.544618 184.436712 182.426485 177.7857 
L 144.534077 201.247691 
z
" style="fill:#00004c;opacity:0.5;stroke:#00004c;stroke-linejoin:miter;"/>
   </g>
   <g id="patch_7">
    <path d="M 307.068299 190.286108 
C 309.667786 185.445246 311.814101 180.374375 313.479821 175.138283 
C 315.14554 169.902192 316.32354 164.523277 316.998768 159.070265 
L 272.768648 153.593396 
C 272.431034 156.319902 271.842034 159.00936 271.009174 161.627405 
C 270.176314 164.245451 269.103157 166.780887 267.803413 169.201318 
L 307.068299 190.286108 
z
" style="fill:#260026;opacity:0.5;stroke:#260026;stroke-linejoin:miter;"/>
   </g>
   <g id="patch_8">
    <path d="M 317.401317 156.916816 
C 317.626251 155.100293 317.795179 153.277272 317.907859 151.450348 
C 318.02054 149.623423 318.07692 147.793461 318.07692 145.963064 
L 273.508998 145.963071 
C 273.508998 146.87827 273.480808 147.793251 273.424468 148.706713 
C 273.368127 149.620176 273.283664 150.531686 273.171197 151.439947 
L 317.401317 156.916816 
z
" style="fill:#4c3a3d;opacity:0.5;stroke:#4c3a3d;stroke-linejoin:miter;"/>
   </g>
   <g id="patch_9">
    <path d="M 313.925431 135.224748 
C 313.925431 116.778804 308.199571 98.779913 297.541987 83.72439 
C 286.884403 68.668867 271.811686 57.28648 254.414311 51.155882 
C 237.016936 45.025284 218.138186 44.443636 200.396403 49.491609 
C 182.654621 54.539582 166.909782 64.972491 155.345581 79.343369 
L 190.067584 107.284059 
C 195.849685 100.09862 203.722104 94.882165 212.592995 92.358179 
C 221.463887 89.834192 230.903262 90.125016 239.601949 93.190315 
C 248.300636 96.255614 255.836995 101.946808 261.165787 109.474569 
C 266.494579 117.002331 269.357509 126.001776 269.357509 135.224748 
L 313.925431 135.224748 
z
" style="fill:#ffff00;"/>
   </g>
   <g id="patch_10">
    <path d="M 144.804626 83.057859 
C 142.509044 85.910587 140.391425 88.90206 138.463809 92.015266 
C 136.536193 95.128473 134.802241 98.357502 133.271813 101.683994 
L 173.760223 120.311616 
C 174.525437 118.64837 175.392413 117.033855 176.356221 115.477252 
C 177.320029 113.920649 178.378838 112.424913 179.52663 110.998548 
L 144.804626 83.057859 
z
" style="fill:#ffa500;"/>
   </g>
   <g id="patch_11">
    <path d="M 132.538625 103.156434 
C 131.773592 104.819285 131.05996 106.505307 130.398745 108.212101 
C 129.737529 109.918895 129.129044 111.645651 128.574155 113.389913 
L 171.0448 126.900795 
C 171.322245 126.028664 171.626487 125.165286 171.957095 124.311889 
C 172.287703 123.458492 172.644518 122.615481 173.027035 121.784055 
L 132.538625 103.156434 
z
" style="fill:#ff00ff;"/>
   </g>
   <g id="patch_12">
    <path d="M 128.039801 117.705246 
C 124.140899 129.961208 122.940363 142.917067 124.520853 155.680769 
C 126.101343 168.444471 130.425733 180.716195 137.196274 191.650993 
L 175.088683 168.189002 
C 171.703412 162.721603 169.541217 156.585741 168.750972 150.20389 
C 167.960727 143.822039 168.560995 137.344109 170.510446 131.216128 
L 128.039801 117.705246 
z
" style="fill:#ff0000;"/>
   </g>
   <g id="patch_13">
    <path d="M 146.316794 199.464974 
C 154.55306 212.766998 166.148198 223.669004 179.932026 231.070761 
C 193.715854 238.472519 209.208542 242.116364 224.846565 241.634559 
C 240.484589 241.152755 255.723573 236.562073 269.025596 228.325806 
C 282.32762 220.08954 293.229625 208.494401 300.631382 194.710572 
L 261.366496 173.625782 
C 257.665618 180.517696 252.214615 186.315266 245.563603 190.433399 
C 238.912591 194.551533 231.2931 196.846873 223.474088 197.087776 
C 215.655076 197.328678 207.908732 195.506755 201.016818 191.805877 
C 194.124904 188.104998 188.327335 182.653995 184.209202 176.002983 
L 146.316794 199.464974 
z
" style="fill:#0000ff;"/>
   </g>
   <g id="patch_14">
    <path d="M 308.851016 188.503391 
C 311.450503 183.66253 313.596818 178.591658 315.262537 173.355566 
C 316.928257 168.119475 318.106257 162.74056 318.781485 157.287548 
L 274.551365 151.810679 
C 274.213751 154.537185 273.624751 157.226643 272.791891 159.844688 
C 271.959031 162.462734 270.885874 164.99817 269.58613 167.418601 
L 308.851016 188.503391 
z
" style="fill:#800080;"/>
   </g>
   <g id="patch_15">
    <path d="M 319.184034 155.134099 
C 319.408968 153.317576 319.577895 151.494556 319.690576 149.667631 
C 319.803257 147.840706 319.859637 146.010744 319.859637 144.180347 
L 275.291715 144.180355 
C 275.291715 145.095553 275.263525 146.010534 275.207185 146.923996 
C 275.150844 147.837459 275.066381 148.748969 274.953914 149.657231 
L 319.184034 155.134099 
z
" style="fill:#ffc0cb;"/>
   </g>
   <g id="matplotlib.axis_1"/>
   <g id="matplotlib.axis_2"/>
   <g id="text_1">
    <!-- Семья и дети -->
    <g transform="translate(257.376783 45.50837)scale(0.1 -0.1)">
     <defs>
      <path d="M 64.40625 67.28125 
L 64.40625 56.890625 
Q 59.421875 61.53125 53.78125 63.8125 
Q 48.140625 66.109375 41.796875 66.109375 
Q 29.296875 66.109375 22.65625 58.46875 
Q 16.015625 50.828125 16.015625 36.375 
Q 16.015625 21.96875 22.65625 14.328125 
Q 29.296875 6.6875 41.796875 6.6875 
Q 48.140625 6.6875 53.78125 8.984375 
Q 59.421875 11.28125 64.40625 15.921875 
L 64.40625 5.609375 
Q 59.234375 2.09375 53.4375 0.328125 
Q 47.65625 -1.421875 41.21875 -1.421875 
Q 24.65625 -1.421875 15.125 8.703125 
Q 5.609375 18.84375 5.609375 36.375 
Q 5.609375 53.953125 15.125 64.078125 
Q 24.65625 74.21875 41.21875 74.21875 
Q 47.75 74.21875 53.53125 72.484375 
Q 59.328125 70.75 64.40625 67.28125 
z
" id="DejaVuSans-1057"/>
      <path d="M 56.203125 29.59375 
L 56.203125 25.203125 
L 14.890625 25.203125 
Q 15.484375 15.921875 20.484375 11.0625 
Q 25.484375 6.203125 34.421875 6.203125 
Q 39.59375 6.203125 44.453125 7.46875 
Q 49.3125 8.734375 54.109375 11.28125 
L 54.109375 2.78125 
Q 49.265625 0.734375 44.1875 -0.34375 
Q 39.109375 -1.421875 33.890625 -1.421875 
Q 20.796875 -1.421875 13.15625 6.1875 
Q 5.515625 13.8125 5.515625 26.8125 
Q 5.515625 40.234375 12.765625 48.109375 
Q 20.015625 56 32.328125 56 
Q 43.359375 56 49.78125 48.890625 
Q 56.203125 41.796875 56.203125 29.59375 
z
M 47.21875 32.234375 
Q 47.125 39.59375 43.09375 43.984375 
Q 39.0625 48.390625 32.421875 48.390625 
Q 24.90625 48.390625 20.390625 44.140625 
Q 15.875 39.890625 15.1875 32.171875 
z
" id="DejaVuSans-1077"/>
      <path d="M 9.078125 54.6875 
L 22.21875 54.6875 
L 37.75 18.0625 
L 53.328125 54.6875 
L 66.359375 54.6875 
L 66.359375 0 
L 57.328125 0 
L 57.328125 46.09375 
L 42.234375 10.5 
L 33.25 10.5 
L 18.109375 46.09375 
L 18.109375 0 
L 9.078125 0 
z
" id="DejaVuSans-1084"/>
      <path d="M 43.453125 16.21875 
Q 43.453125 20.609375 40.25 22.90625 
Q 37.0625 25.203125 30.90625 25.203125 
L 18.109375 25.203125 
L 18.109375 7.171875 
L 30.90625 7.171875 
Q 37.0625 7.171875 40.25 9.484375 
Q 43.453125 11.8125 43.453125 16.21875 
z
M 9.078125 54.6875 
L 18.109375 54.6875 
L 18.109375 32.375 
L 31.296875 32.375 
Q 41.75 32.375 47.390625 28.390625 
Q 53.03125 24.421875 53.03125 16.21875 
Q 53.03125 8.015625 47.390625 4 
Q 41.75 0 31.296875 0 
L 9.078125 0 
z
" id="DejaVuSans-1100"/>
      <path d="M 18.453125 38.921875 
Q 18.453125 34.859375 21.578125 32.5625 
Q 24.703125 30.28125 30.515625 30.28125 
L 42.625 30.28125 
L 42.625 47.515625 
L 30.515625 47.515625 
Q 24.703125 47.515625 21.578125 45.265625 
Q 18.453125 43.015625 18.453125 38.921875 
z
M 5.671875 0 
L 22.359375 23.96875 
Q 16.703125 25.25 12.9375 28.59375 
Q 9.1875 31.9375 9.1875 38.921875 
Q 9.1875 46.828125 14.421875 50.75 
Q 19.671875 54.6875 30.28125 54.6875 
L 51.65625 54.6875 
L 51.65625 0 
L 42.625 0 
L 42.625 23.09375 
L 31.453125 23.09375 
L 15.328125 0 
z
" id="DejaVuSans-1103"/>
      <path id="DejaVuSans-32"/>
      <path d="M 55.90625 54.6875 
L 55.90625 0 
L 46.96875 0 
L 46.96875 43.890625 
L 20.609375 0 
L 9.078125 0 
L 9.078125 54.6875 
L 18.015625 54.6875 
L 18.015625 10.890625 
L 44.34375 54.6875 
z
" id="DejaVuSans-1080"/>
      <path d="M 21.625 7.171875 
L 47.703125 7.171875 
L 47.703125 47.515625 
L 28.8125 47.515625 
L 28.8125 40.671875 
Q 28.8125 20.5625 23.046875 9.8125 
z
M 8.59375 7.171875 
Q 13.03125 9.125 14.984375 13.28125 
Q 19.78125 23.578125 19.78125 44.34375 
L 19.78125 54.6875 
L 56.734375 54.6875 
L 56.734375 7.171875 
L 63.921875 7.171875 
L 63.921875 -13.8125 
L 56.734375 -13.8125 
L 56.734375 0 
L 12.40625 0 
L 12.40625 -13.8125 
L 5.21875 -13.8125 
L 5.21875 7.171875 
z
" id="DejaVuSans-1076"/>
      <path d="M 2.9375 54.6875 
L 55.328125 54.6875 
L 55.328125 47.515625 
L 33.546875 47.515625 
L 33.546875 0 
L 24.703125 0 
L 24.703125 47.515625 
L 2.9375 47.515625 
z
" id="DejaVuSans-1090"/>
     </defs>
     <use xlink:href="#DejaVuSans-1057"/>
     <use x="69.824219" xlink:href="#DejaVuSans-1077"/>
     <use x="131.347656" xlink:href="#DejaVuSans-1084"/>
     <use x="206.787109" xlink:href="#DejaVuSans-1100"/>
     <use x="265.722656" xlink:href="#DejaVuSans-1103"/>
     <use x="325.878906" xlink:href="#DejaVuSans-32"/>
     <use x="357.666016" xlink:href="#DejaVuSans-1080"/>
     <use x="422.65625" xlink:href="#DejaVuSans-32"/>
     <use x="454.443359" xlink:href="#DejaVuSans-1076"/>
     <use x="523.583984" xlink:href="#DejaVuSans-1077"/>
     <use x="585.107422" xlink:href="#DejaVuSans-1090"/>
     <use x="643.359375" xlink:href="#DejaVuSans-1080"/>
    </g>
   </g>
   <g id="text_2">
    <!-- 39.2% -->
    <g transform="translate(226.680828 87.542803)scale(0.1 -0.1)">
     <defs>
      <path d="M 40.578125 39.3125 
Q 47.65625 37.796875 51.625 33 
Q 55.609375 28.21875 55.609375 21.1875 
Q 55.609375 10.40625 48.1875 4.484375 
Q 40.765625 -1.421875 27.09375 -1.421875 
Q 22.515625 -1.421875 17.65625 -0.515625 
Q 12.796875 0.390625 7.625 2.203125 
L 7.625 11.71875 
Q 11.71875 9.328125 16.59375 8.109375 
Q 21.484375 6.890625 26.8125 6.890625 
Q 36.078125 6.890625 40.9375 10.546875 
Q 45.796875 14.203125 45.796875 21.1875 
Q 45.796875 27.640625 41.28125 31.265625 
Q 36.765625 34.90625 28.71875 34.90625 
L 20.21875 34.90625 
L 20.21875 43.015625 
L 29.109375 43.015625 
Q 36.375 43.015625 40.234375 45.921875 
Q 44.09375 48.828125 44.09375 54.296875 
Q 44.09375 59.90625 40.109375 62.90625 
Q 36.140625 65.921875 28.71875 65.921875 
Q 24.65625 65.921875 20.015625 65.03125 
Q 15.375 64.15625 9.8125 62.3125 
L 9.8125 71.09375 
Q 15.4375 72.65625 20.34375 73.4375 
Q 25.25 74.21875 29.59375 74.21875 
Q 40.828125 74.21875 47.359375 69.109375 
Q 53.90625 64.015625 53.90625 55.328125 
Q 53.90625 49.265625 50.4375 45.09375 
Q 46.96875 40.921875 40.578125 39.3125 
z
" id="DejaVuSans-51"/>
      <path d="M 10.984375 1.515625 
L 10.984375 10.5 
Q 14.703125 8.734375 18.5 7.8125 
Q 22.3125 6.890625 25.984375 6.890625 
Q 35.75 6.890625 40.890625 13.453125 
Q 46.046875 20.015625 46.78125 33.40625 
Q 43.953125 29.203125 39.59375 26.953125 
Q 35.25 24.703125 29.984375 24.703125 
Q 19.046875 24.703125 12.671875 31.3125 
Q 6.296875 37.9375 6.296875 49.421875 
Q 6.296875 60.640625 12.9375 67.421875 
Q 19.578125 74.21875 30.609375 74.21875 
Q 43.265625 74.21875 49.921875 64.515625 
Q 56.59375 54.828125 56.59375 36.375 
Q 56.59375 19.140625 48.40625 8.859375 
Q 40.234375 -1.421875 26.421875 -1.421875 
Q 22.703125 -1.421875 18.890625 -0.6875 
Q 15.09375 0.046875 10.984375 1.515625 
z
M 30.609375 32.421875 
Q 37.25 32.421875 41.125 36.953125 
Q 45.015625 41.5 45.015625 49.421875 
Q 45.015625 57.28125 41.125 61.84375 
Q 37.25 66.40625 30.609375 66.40625 
Q 23.96875 66.40625 20.09375 61.84375 
Q 16.21875 57.28125 16.21875 49.421875 
Q 16.21875 41.5 20.09375 36.953125 
Q 23.96875 32.421875 30.609375 32.421875 
z
" id="DejaVuSans-57"/>
      <path d="M 10.6875 12.40625 
L 21 12.40625 
L 21 0 
L 10.6875 0 
z
" id="DejaVuSans-46"/>
      <path d="M 19.1875 8.296875 
L 53.609375 8.296875 
L 53.609375 0 
L 7.328125 0 
L 7.328125 8.296875 
Q 12.9375 14.109375 22.625 23.890625 
Q 32.328125 33.6875 34.8125 36.53125 
Q 39.546875 41.84375 41.421875 45.53125 
Q 43.3125 49.21875 43.3125 52.78125 
Q 43.3125 58.59375 39.234375 62.25 
Q 35.15625 65.921875 28.609375 65.921875 
Q 23.96875 65.921875 18.8125 64.3125 
Q 13.671875 62.703125 7.8125 59.421875 
L 7.8125 69.390625 
Q 13.765625 71.78125 18.9375 73 
Q 24.125 74.21875 28.421875 74.21875 
Q 39.75 74.21875 46.484375 68.546875 
Q 53.21875 62.890625 53.21875 53.421875 
Q 53.21875 48.921875 51.53125 44.890625 
Q 49.859375 40.875 45.40625 35.40625 
Q 44.1875 33.984375 37.640625 27.21875 
Q 31.109375 20.453125 19.1875 8.296875 
z
" id="DejaVuSans-50"/>
      <path d="M 72.703125 32.078125 
Q 68.453125 32.078125 66.03125 28.46875 
Q 63.625 24.859375 63.625 18.40625 
Q 63.625 12.0625 66.03125 8.421875 
Q 68.453125 4.78125 72.703125 4.78125 
Q 76.859375 4.78125 79.265625 8.421875 
Q 81.6875 12.0625 81.6875 18.40625 
Q 81.6875 24.8125 79.265625 28.4375 
Q 76.859375 32.078125 72.703125 32.078125 
z
M 72.703125 38.28125 
Q 80.421875 38.28125 84.953125 32.90625 
Q 89.5 27.546875 89.5 18.40625 
Q 89.5 9.28125 84.9375 3.921875 
Q 80.375 -1.421875 72.703125 -1.421875 
Q 64.890625 -1.421875 60.34375 3.921875 
Q 55.8125 9.28125 55.8125 18.40625 
Q 55.8125 27.59375 60.375 32.9375 
Q 64.9375 38.28125 72.703125 38.28125 
z
M 22.3125 68.015625 
Q 18.109375 68.015625 15.6875 64.375 
Q 13.28125 60.75 13.28125 54.390625 
Q 13.28125 47.953125 15.671875 44.328125 
Q 18.0625 40.71875 22.3125 40.71875 
Q 26.5625 40.71875 28.96875 44.328125 
Q 31.390625 47.953125 31.390625 54.390625 
Q 31.390625 60.6875 28.953125 64.34375 
Q 26.515625 68.015625 22.3125 68.015625 
z
M 66.40625 74.21875 
L 74.21875 74.21875 
L 28.609375 -1.421875 
L 20.796875 -1.421875 
z
M 22.3125 74.21875 
Q 30.03125 74.21875 34.609375 68.875 
Q 39.203125 63.53125 39.203125 54.390625 
Q 39.203125 45.171875 34.640625 39.84375 
Q 30.078125 34.515625 22.3125 34.515625 
Q 14.546875 34.515625 10.03125 39.859375 
Q 5.515625 45.21875 5.515625 54.390625 
Q 5.515625 63.484375 10.046875 68.84375 
Q 14.59375 74.21875 22.3125 74.21875 
z
" id="DejaVuSans-37"/>
     </defs>
     <use xlink:href="#DejaVuSans-51"/>
     <use x="63.623047" xlink:href="#DejaVuSans-57"/>
     <use x="127.246094" xlink:href="#DejaVuSans-46"/>
     <use x="159.033203" xlink:href="#DejaVuSans-50"/>
     <use x="222.65625" xlink:href="#DejaVuSans-37"/>
    </g>
   </g>
   <g id="text_3">
    <!-- Развлечения и отдых -->
    <g transform="translate(18.332202 90.082244)scale(0.1 -0.1)">
     <defs>
      <path d="M 19.671875 64.796875 
L 19.671875 37.40625 
L 32.078125 37.40625 
Q 38.96875 37.40625 42.71875 40.96875 
Q 46.484375 44.53125 46.484375 51.125 
Q 46.484375 57.671875 42.71875 61.234375 
Q 38.96875 64.796875 32.078125 64.796875 
z
M 9.8125 72.90625 
L 32.078125 72.90625 
Q 44.34375 72.90625 50.609375 67.359375 
Q 56.890625 61.8125 56.890625 51.125 
Q 56.890625 40.328125 50.609375 34.8125 
Q 44.34375 29.296875 32.078125 29.296875 
L 19.671875 29.296875 
L 19.671875 0 
L 9.8125 0 
z
" id="DejaVuSans-1056"/>
      <path d="M 34.28125 27.484375 
Q 23.390625 27.484375 19.1875 25 
Q 14.984375 22.515625 14.984375 16.5 
Q 14.984375 11.71875 18.140625 8.90625 
Q 21.296875 6.109375 26.703125 6.109375 
Q 34.1875 6.109375 38.703125 11.40625 
Q 43.21875 16.703125 43.21875 25.484375 
L 43.21875 27.484375 
z
M 52.203125 31.203125 
L 52.203125 0 
L 43.21875 0 
L 43.21875 8.296875 
Q 40.140625 3.328125 35.546875 0.953125 
Q 30.953125 -1.421875 24.3125 -1.421875 
Q 15.921875 -1.421875 10.953125 3.296875 
Q 6 8.015625 6 15.921875 
Q 6 25.140625 12.171875 29.828125 
Q 18.359375 34.515625 30.609375 34.515625 
L 43.21875 34.515625 
L 43.21875 35.40625 
Q 43.21875 41.609375 39.140625 45 
Q 35.0625 48.390625 27.6875 48.390625 
Q 23 48.390625 18.546875 47.265625 
Q 14.109375 46.140625 10.015625 43.890625 
L 10.015625 52.203125 
Q 14.9375 54.109375 19.578125 55.046875 
Q 24.21875 56 28.609375 56 
Q 40.484375 56 46.34375 49.84375 
Q 52.203125 43.703125 52.203125 31.203125 
z
" id="DejaVuSans-1072"/>
      <path d="M 34.46875 29.5 
Q 40.53125 28.328125 43.890625 24.75 
Q 47.265625 21.1875 47.265625 15.921875 
Q 47.265625 7.46875 40.96875 3.015625 
Q 34.671875 -1.421875 23.046875 -1.421875 
Q 19.140625 -1.421875 15.015625 -0.734375 
Q 10.890625 -0.046875 6.5 1.3125 
L 6.5 9.671875 
Q 9.96875 7.859375 14.109375 6.953125 
Q 18.265625 6.0625 22.796875 6.0625 
Q 30.171875 6.0625 34.296875 8.796875 
Q 38.421875 11.53125 38.421875 15.921875 
Q 38.421875 20.21875 34.765625 22.828125 
Q 31.109375 25.4375 24.421875 25.4375 
L 17.1875 25.4375 
L 17.1875 32.859375 
L 24.75 32.859375 
Q 30.421875 32.859375 33.71875 35.03125 
Q 37.015625 37.203125 37.015625 40.625 
Q 37.015625 43.75 33.609375 46 
Q 30.21875 48.25 24.421875 48.25 
Q 20.953125 48.25 17.015625 47.609375 
Q 13.09375 46.96875 8.34375 45.5625 
L 8.34375 53.71875 
Q 13.140625 54.890625 17.28125 55.46875 
Q 21.4375 56.0625 25.140625 56.0625 
Q 34.71875 56.0625 40.25 52.21875 
Q 45.796875 48.390625 45.796875 41.5 
Q 45.796875 36.96875 42.859375 33.8125 
Q 39.9375 30.671875 34.46875 29.5 
z
" id="DejaVuSans-1079"/>
      <path d="M 18.0625 25.203125 
L 18.0625 7.171875 
L 30.859375 7.171875 
Q 37.015625 7.171875 40.234375 9.484375 
Q 43.453125 11.8125 43.453125 16.21875 
Q 43.453125 20.609375 40.234375 22.90625 
Q 37.015625 25.203125 30.859375 25.203125 
z
M 18.0625 47.515625 
L 18.0625 32.375 
L 29.890625 32.375 
Q 34.96875 32.375 38.1875 34.390625 
Q 41.40625 36.421875 41.40625 40.046875 
Q 41.40625 43.65625 38.1875 45.578125 
Q 34.96875 47.515625 29.890625 47.515625 
z
M 9.078125 54.6875 
L 30.46875 54.6875 
Q 40.09375 54.6875 45.265625 51.171875 
Q 50.4375 47.65625 50.4375 41.15625 
Q 50.4375 36.140625 47.796875 33.171875 
Q 45.171875 30.21875 39.984375 29.5 
Q 46.1875 28.328125 49.609375 24.609375 
Q 53.03125 20.90625 53.03125 15.328125 
Q 53.03125 8.015625 47.390625 4 
Q 41.75 0 31.296875 0 
L 9.078125 0 
z
" id="DejaVuSans-1074"/>
      <path d="M 3.71875 0 
L 3.71875 7.46875 
Q 12.59375 8.84375 15.328125 14.984375 
Q 18.65625 23.640625 18.65625 45.75 
L 18.65625 54.6875 
L 55.609375 54.6875 
L 55.609375 0 
L 46.625 0 
L 46.625 47.515625 
L 27.640625 47.515625 
L 27.640625 42.09375 
Q 27.640625 21 23.34375 11.53125 
Q 18.75 1.421875 3.71875 0 
z
" id="DejaVuSans-1083"/>
      <path d="M 41.015625 0 
L 41.015625 23 
L 24.265625 23 
Q 16.796875 23 11.8125 27.640625 
Q 7.328125 31.84375 7.328125 40.828125 
L 7.328125 54.6875 
L 16.3125 54.6875 
L 16.3125 41.65625 
Q 16.3125 35.9375 18.84375 33.0625 
Q 21.4375 30.171875 26.515625 30.171875 
L 41.015625 30.171875 
L 41.015625 54.6875 
L 50 54.6875 
L 50 0 
z
" id="DejaVuSans-1095"/>
      <path d="M 9.078125 54.6875 
L 18.109375 54.6875 
L 18.109375 32.375 
L 47.265625 32.375 
L 47.265625 54.6875 
L 56.296875 54.6875 
L 56.296875 0 
L 47.265625 0 
L 47.265625 25.203125 
L 18.109375 25.203125 
L 18.109375 0 
L 9.078125 0 
z
" id="DejaVuSans-1085"/>
      <path d="M 30.609375 48.390625 
Q 23.390625 48.390625 19.1875 42.75 
Q 14.984375 37.109375 14.984375 27.296875 
Q 14.984375 17.484375 19.15625 11.84375 
Q 23.34375 6.203125 30.609375 6.203125 
Q 37.796875 6.203125 41.984375 11.859375 
Q 46.1875 17.53125 46.1875 27.296875 
Q 46.1875 37.015625 41.984375 42.703125 
Q 37.796875 48.390625 30.609375 48.390625 
z
M 30.609375 56 
Q 42.328125 56 49.015625 48.375 
Q 55.71875 40.765625 55.71875 27.296875 
Q 55.71875 13.875 49.015625 6.21875 
Q 42.328125 -1.421875 30.609375 -1.421875 
Q 18.84375 -1.421875 12.171875 6.21875 
Q 5.515625 13.875 5.515625 27.296875 
Q 5.515625 40.765625 12.171875 48.375 
Q 18.84375 56 30.609375 56 
z
" id="DejaVuSans-1086"/>
      <path d="M 61.046875 54.6875 
L 70.03125 54.6875 
L 70.03125 0 
L 61.046875 0 
z
M 65.546875 56 
z
M 43.453125 16.21875 
Q 43.453125 20.609375 40.25 22.90625 
Q 37.0625 25.203125 30.90625 25.203125 
L 18.109375 25.203125 
L 18.109375 7.171875 
L 30.90625 7.171875 
Q 37.0625 7.171875 40.25 9.484375 
Q 43.453125 11.8125 43.453125 16.21875 
z
M 9.078125 54.6875 
L 18.109375 54.6875 
L 18.109375 32.375 
L 31.296875 32.375 
Q 41.75 32.375 47.390625 28.390625 
Q 53.03125 24.421875 53.03125 16.21875 
Q 53.03125 8.015625 47.390625 4 
Q 41.75 0 31.296875 0 
L 9.078125 0 
z
" id="DejaVuSans-1099"/>
      <path d="M 54.890625 54.6875 
L 35.109375 28.078125 
L 55.90625 0 
L 45.3125 0 
L 29.390625 21.484375 
L 13.484375 0 
L 2.875 0 
L 24.125 28.609375 
L 4.6875 54.6875 
L 15.28125 54.6875 
L 29.78125 35.203125 
L 44.28125 54.6875 
z
" id="DejaVuSans-1093"/>
     </defs>
     <use xlink:href="#DejaVuSans-1056"/>
     <use x="60.302734" xlink:href="#DejaVuSans-1072"/>
     <use x="121.582031" xlink:href="#DejaVuSans-1079"/>
     <use x="174.755859" xlink:href="#DejaVuSans-1074"/>
     <use x="233.691406" xlink:href="#DejaVuSans-1083"/>
     <use x="297.607422" xlink:href="#DejaVuSans-1077"/>
     <use x="359.130859" xlink:href="#DejaVuSans-1095"/>
     <use x="418.212891" xlink:href="#DejaVuSans-1077"/>
     <use x="479.736328" xlink:href="#DejaVuSans-1085"/>
     <use x="545.117188" xlink:href="#DejaVuSans-1080"/>
     <use x="610.107422" xlink:href="#DejaVuSans-1103"/>
     <use x="670.263672" xlink:href="#DejaVuSans-32"/>
     <use x="702.050781" xlink:href="#DejaVuSans-1080"/>
     <use x="767.041016" xlink:href="#DejaVuSans-32"/>
     <use x="798.828125" xlink:href="#DejaVuSans-1086"/>
     <use x="860.009766" xlink:href="#DejaVuSans-1090"/>
     <use x="918.261719" xlink:href="#DejaVuSans-1076"/>
     <use x="987.402344" xlink:href="#DejaVuSans-1099"/>
     <use x="1066.357422" xlink:href="#DejaVuSans-1093"/>
    </g>
   </g>
   <g id="text_4">
    <!-- 3.9% -->
    <g transform="translate(156.075395 113.54423)scale(0.1 -0.1)">
     <use xlink:href="#DejaVuSans-51"/>
     <use x="63.623047" xlink:href="#DejaVuSans-46"/>
     <use x="95.410156" xlink:href="#DejaVuSans-57"/>
     <use x="159.033203" xlink:href="#DejaVuSans-37"/>
    </g>
   </g>
   <g id="text_5">
    <!-- Наука и исследования -->
    <g transform="translate(3.349575 107.751518)scale(0.1 -0.1)">
     <defs>
      <path d="M 9.8125 72.90625 
L 19.671875 72.90625 
L 19.671875 43.015625 
L 55.515625 43.015625 
L 55.515625 72.90625 
L 65.375 72.90625 
L 65.375 0 
L 55.515625 0 
L 55.515625 34.71875 
L 19.671875 34.71875 
L 19.671875 0 
L 9.8125 0 
z
" id="DejaVuSans-1053"/>
      <path d="M 32.171875 -5.078125 
Q 28.375 -14.84375 24.75 -17.8125 
Q 21.140625 -20.796875 15.09375 -20.796875 
L 7.90625 -20.796875 
L 7.90625 -13.28125 
L 13.1875 -13.28125 
Q 16.890625 -13.28125 18.9375 -11.515625 
Q 21 -9.765625 23.484375 -3.21875 
L 25.09375 0.875 
L 2.984375 54.6875 
L 12.5 54.6875 
L 29.59375 11.921875 
L 46.6875 54.6875 
L 56.203125 54.6875 
z
" id="DejaVuSans-1091"/>
      <path d="M 9.078125 54.6875 
L 18.015625 54.6875 
L 18.015625 29 
L 43.359375 54.6875 
L 54.390625 54.6875 
L 33.5 33.546875 
L 57.078125 0 
L 47.015625 0 
L 27.640625 27.59375 
L 18.015625 17.828125 
L 18.015625 0 
L 9.078125 0 
z
" id="DejaVuSans-1082"/>
      <path d="M 48.78125 52.59375 
L 48.78125 44.1875 
Q 44.96875 46.296875 41.140625 47.34375 
Q 37.3125 48.390625 33.40625 48.390625 
Q 24.65625 48.390625 19.8125 42.84375 
Q 14.984375 37.3125 14.984375 27.296875 
Q 14.984375 17.28125 19.8125 11.734375 
Q 24.65625 6.203125 33.40625 6.203125 
Q 37.3125 6.203125 41.140625 7.25 
Q 44.96875 8.296875 48.78125 10.40625 
L 48.78125 2.09375 
Q 45.015625 0.34375 40.984375 -0.53125 
Q 36.96875 -1.421875 32.421875 -1.421875 
Q 20.0625 -1.421875 12.78125 6.34375 
Q 5.515625 14.109375 5.515625 27.296875 
Q 5.515625 40.671875 12.859375 48.328125 
Q 20.21875 56 33.015625 56 
Q 37.15625 56 41.109375 55.140625 
Q 45.0625 54.296875 48.78125 52.59375 
z
" id="DejaVuSans-1089"/>
     </defs>
     <use xlink:href="#DejaVuSans-1053"/>
     <use x="75.195312" xlink:href="#DejaVuSans-1072"/>
     <use x="136.474609" xlink:href="#DejaVuSans-1091"/>
     <use x="195.654297" xlink:href="#DejaVuSans-1082"/>
     <use x="256.054688" xlink:href="#DejaVuSans-1072"/>
     <use x="317.333984" xlink:href="#DejaVuSans-32"/>
     <use x="349.121094" xlink:href="#DejaVuSans-1080"/>
     <use x="414.111328" xlink:href="#DejaVuSans-32"/>
     <use x="445.898438" xlink:href="#DejaVuSans-1080"/>
     <use x="510.888672" xlink:href="#DejaVuSans-1089"/>
     <use x="565.869141" xlink:href="#DejaVuSans-1089"/>
     <use x="620.849609" xlink:href="#DejaVuSans-1083"/>
     <use x="684.765625" xlink:href="#DejaVuSans-1077"/>
     <use x="746.289062" xlink:href="#DejaVuSans-1076"/>
     <use x="815.429688" xlink:href="#DejaVuSans-1086"/>
     <use x="876.611328" xlink:href="#DejaVuSans-1074"/>
     <use x="935.546875" xlink:href="#DejaVuSans-1072"/>
     <use x="996.826172" xlink:href="#DejaVuSans-1085"/>
     <use x="1062.207031" xlink:href="#DejaVuSans-1080"/>
     <use x="1127.197266" xlink:href="#DejaVuSans-1103"/>
    </g>
   </g>
   <g id="text_6">
    <!-- 2.0% -->
    <g transform="translate(150.943081 123.851307)scale(0.1 -0.1)">
     <defs>
      <path d="M 31.78125 66.40625 
Q 24.171875 66.40625 20.328125 58.90625 
Q 16.5 51.421875 16.5 36.375 
Q 16.5 21.390625 20.328125 13.890625 
Q 24.171875 6.390625 31.78125 6.390625 
Q 39.453125 6.390625 43.28125 13.890625 
Q 47.125 21.390625 47.125 36.375 
Q 47.125 51.421875 43.28125 58.90625 
Q 39.453125 66.40625 31.78125 66.40625 
z
M 31.78125 74.21875 
Q 44.046875 74.21875 50.515625 64.515625 
Q 56.984375 54.828125 56.984375 36.375 
Q 56.984375 17.96875 50.515625 8.265625 
Q 44.046875 -1.421875 31.78125 -1.421875 
Q 19.53125 -1.421875 13.0625 8.265625 
Q 6.59375 17.96875 6.59375 36.375 
Q 6.59375 54.828125 13.0625 64.515625 
Q 19.53125 74.21875 31.78125 74.21875 
z
" id="DejaVuSans-48"/>
     </defs>
     <use xlink:href="#DejaVuSans-50"/>
     <use x="63.623047" xlink:href="#DejaVuSans-46"/>
     <use x="95.410156" xlink:href="#DejaVuSans-48"/>
     <use x="159.033203" xlink:href="#DejaVuSans-37"/>
    </g>
   </g>
   <g id="text_7">
    <!-- Совершенствование мира -->
    <g transform="translate(-21.906421 159.53552)scale(0.1 -0.1)">
     <defs>
      <path d="M 18.109375 8.203125 
L 18.109375 -20.796875 
L 9.078125 -20.796875 
L 9.078125 54.6875 
L 18.109375 54.6875 
L 18.109375 46.390625 
Q 20.953125 51.265625 25.265625 53.625 
Q 29.59375 56 35.59375 56 
Q 45.5625 56 51.78125 48.09375 
Q 58.015625 40.1875 58.015625 27.296875 
Q 58.015625 14.40625 51.78125 6.484375 
Q 45.5625 -1.421875 35.59375 -1.421875 
Q 29.59375 -1.421875 25.265625 0.953125 
Q 20.953125 3.328125 18.109375 8.203125 
z
M 48.6875 27.296875 
Q 48.6875 37.203125 44.609375 42.84375 
Q 40.53125 48.484375 33.40625 48.484375 
Q 26.265625 48.484375 22.1875 42.84375 
Q 18.109375 37.203125 18.109375 27.296875 
Q 18.109375 17.390625 22.1875 11.75 
Q 26.265625 6.109375 33.40625 6.109375 
Q 40.53125 6.109375 44.609375 11.75 
Q 48.6875 17.390625 48.6875 27.296875 
z
" id="DejaVuSans-1088"/>
      <path d="M 50.25 7.171875 
L 73.390625 7.171875 
L 73.390625 54.6875 
L 82.421875 54.6875 
L 82.421875 0 
L 9.078125 0 
L 9.078125 54.6875 
L 18.109375 54.6875 
L 18.109375 7.171875 
L 41.21875 7.171875 
L 41.21875 54.6875 
L 50.25 54.6875 
z
" id="DejaVuSans-1096"/>
     </defs>
     <use xlink:href="#DejaVuSans-1057"/>
     <use x="69.824219" xlink:href="#DejaVuSans-1086"/>
     <use x="131.005859" xlink:href="#DejaVuSans-1074"/>
     <use x="189.941406" xlink:href="#DejaVuSans-1077"/>
     <use x="251.464844" xlink:href="#DejaVuSans-1088"/>
     <use x="314.941406" xlink:href="#DejaVuSans-1096"/>
     <use x="406.445312" xlink:href="#DejaVuSans-1077"/>
     <use x="467.96875" xlink:href="#DejaVuSans-1085"/>
     <use x="533.349609" xlink:href="#DejaVuSans-1089"/>
     <use x="588.330078" xlink:href="#DejaVuSans-1090"/>
     <use x="646.582031" xlink:href="#DejaVuSans-1074"/>
     <use x="705.517578" xlink:href="#DejaVuSans-1086"/>
     <use x="766.699219" xlink:href="#DejaVuSans-1074"/>
     <use x="825.634766" xlink:href="#DejaVuSans-1072"/>
     <use x="886.914062" xlink:href="#DejaVuSans-1085"/>
     <use x="952.294922" xlink:href="#DejaVuSans-1080"/>
     <use x="1017.285156" xlink:href="#DejaVuSans-1077"/>
     <use x="1078.808594" xlink:href="#DejaVuSans-32"/>
     <use x="1110.595703" xlink:href="#DejaVuSans-1084"/>
     <use x="1186.035156" xlink:href="#DejaVuSans-1080"/>
     <use x="1251.025391" xlink:href="#DejaVuSans-1088"/>
     <use x="1314.501953" xlink:href="#DejaVuSans-1072"/>
    </g>
   </g>
   <g id="text_8">
    <!-- 13.7% -->
    <g transform="translate(144.021354 154.058641)scale(0.1 -0.1)">
     <defs>
      <path d="M 12.40625 8.296875 
L 28.515625 8.296875 
L 28.515625 63.921875 
L 10.984375 60.40625 
L 10.984375 69.390625 
L 28.421875 72.90625 
L 38.28125 72.90625 
L 38.28125 8.296875 
L 54.390625 8.296875 
L 54.390625 0 
L 12.40625 0 
z
" id="DejaVuSans-49"/>
      <path d="M 8.203125 72.90625 
L 55.078125 72.90625 
L 55.078125 68.703125 
L 28.609375 0 
L 18.3125 0 
L 43.21875 64.59375 
L 8.203125 64.59375 
z
" id="DejaVuSans-55"/>
     </defs>
     <use xlink:href="#DejaVuSans-49"/>
     <use x="63.623047" xlink:href="#DejaVuSans-51"/>
     <use x="127.246094" xlink:href="#DejaVuSans-46"/>
     <use x="159.033203" xlink:href="#DejaVuSans-55"/>
     <use x="222.65625" xlink:href="#DejaVuSans-37"/>
    </g>
   </g>
   <g id="text_9">
    <!-- Саморазвитие -->
    <g transform="translate(225.121061 253.303291)scale(0.1 -0.1)">
     <use xlink:href="#DejaVuSans-1057"/>
     <use x="69.824219" xlink:href="#DejaVuSans-1072"/>
     <use x="131.103516" xlink:href="#DejaVuSans-1084"/>
     <use x="206.542969" xlink:href="#DejaVuSans-1086"/>
     <use x="267.724609" xlink:href="#DejaVuSans-1088"/>
     <use x="331.201172" xlink:href="#DejaVuSans-1072"/>
     <use x="392.480469" xlink:href="#DejaVuSans-1079"/>
     <use x="445.654297" xlink:href="#DejaVuSans-1074"/>
     <use x="504.589844" xlink:href="#DejaVuSans-1080"/>
     <use x="569.580078" xlink:href="#DejaVuSans-1090"/>
     <use x="627.832031" xlink:href="#DejaVuSans-1080"/>
     <use x="692.822266" xlink:href="#DejaVuSans-1077"/>
    </g>
   </g>
   <g id="text_10">
    <!-- 33.3% -->
    <g transform="translate(207.86499 208.756507)scale(0.1 -0.1)">
     <use xlink:href="#DejaVuSans-51"/>
     <use x="63.623047" xlink:href="#DejaVuSans-51"/>
     <use x="127.246094" xlink:href="#DejaVuSans-46"/>
     <use x="159.033203" xlink:href="#DejaVuSans-51"/>
     <use x="222.65625" xlink:href="#DejaVuSans-37"/>
    </g>
   </g>
   <g id="text_11">
    <!-- Красота и искусство -->
    <g transform="translate(323.756667 178.817117)scale(0.1 -0.1)">
     <defs>
      <path d="M 9.8125 72.90625 
L 19.671875 72.90625 
L 19.671875 36.859375 
L 54.9375 72.90625 
L 67.578125 72.90625 
L 39.40625 44.09375 
L 69.046875 0 
L 58.296875 0 
L 33.015625 37.546875 
L 19.671875 23.921875 
L 19.671875 0 
L 9.8125 0 
z
" id="DejaVuSans-1050"/>
     </defs>
     <use xlink:href="#DejaVuSans-1050"/>
     <use x="70.996094" xlink:href="#DejaVuSans-1088"/>
     <use x="134.472656" xlink:href="#DejaVuSans-1072"/>
     <use x="195.751953" xlink:href="#DejaVuSans-1089"/>
     <use x="250.732422" xlink:href="#DejaVuSans-1086"/>
     <use x="311.914062" xlink:href="#DejaVuSans-1090"/>
     <use x="370.166016" xlink:href="#DejaVuSans-1072"/>
     <use x="431.445312" xlink:href="#DejaVuSans-32"/>
     <use x="463.232422" xlink:href="#DejaVuSans-1080"/>
     <use x="528.222656" xlink:href="#DejaVuSans-32"/>
     <use x="560.009766" xlink:href="#DejaVuSans-1080"/>
     <use x="625" xlink:href="#DejaVuSans-1089"/>
     <use x="679.980469" xlink:href="#DejaVuSans-1082"/>
     <use x="740.380859" xlink:href="#DejaVuSans-1091"/>
     <use x="799.560547" xlink:href="#DejaVuSans-1089"/>
     <use x="854.541016" xlink:href="#DejaVuSans-1089"/>
     <use x="909.521484" xlink:href="#DejaVuSans-1090"/>
     <use x="967.773438" xlink:href="#DejaVuSans-1074"/>
     <use x="1026.708984" xlink:href="#DejaVuSans-1086"/>
    </g>
   </g>
   <g id="text_12">
    <!-- 5.9% -->
    <g transform="translate(268.583676 165.306239)scale(0.1 -0.1)">
     <defs>
      <path d="M 10.796875 72.90625 
L 49.515625 72.90625 
L 49.515625 64.59375 
L 19.828125 64.59375 
L 19.828125 46.734375 
Q 21.96875 47.46875 24.109375 47.828125 
Q 26.265625 48.1875 28.421875 48.1875 
Q 40.625 48.1875 47.75 41.5 
Q 54.890625 34.8125 54.890625 23.390625 
Q 54.890625 11.625 47.5625 5.09375 
Q 40.234375 -1.421875 26.90625 -1.421875 
Q 22.3125 -1.421875 17.546875 -0.640625 
Q 12.796875 0.140625 7.71875 1.703125 
L 7.71875 11.625 
Q 12.109375 9.234375 16.796875 8.0625 
Q 21.484375 6.890625 26.703125 6.890625 
Q 35.15625 6.890625 40.078125 11.328125 
Q 45.015625 15.765625 45.015625 23.390625 
Q 45.015625 31 40.078125 35.4375 
Q 35.15625 39.890625 26.703125 39.890625 
Q 22.75 39.890625 18.8125 39.015625 
Q 14.890625 38.140625 10.796875 36.28125 
z
" id="DejaVuSans-53"/>
     </defs>
     <use xlink:href="#DejaVuSans-53"/>
     <use x="63.623047" xlink:href="#DejaVuSans-46"/>
     <use x="95.410156" xlink:href="#DejaVuSans-57"/>
     <use x="159.033203" xlink:href="#DejaVuSans-37"/>
    </g>
   </g>
   <g id="text_13">
    <!-- Слава и влияние -->
    <g transform="translate(328.587254 152.975733)scale(0.1 -0.1)">
     <use xlink:href="#DejaVuSans-1057"/>
     <use x="69.824219" xlink:href="#DejaVuSans-1083"/>
     <use x="133.740234" xlink:href="#DejaVuSans-1072"/>
     <use x="195.019531" xlink:href="#DejaVuSans-1074"/>
     <use x="253.955078" xlink:href="#DejaVuSans-1072"/>
     <use x="315.234375" xlink:href="#DejaVuSans-32"/>
     <use x="347.021484" xlink:href="#DejaVuSans-1080"/>
     <use x="412.011719" xlink:href="#DejaVuSans-32"/>
     <use x="443.798828" xlink:href="#DejaVuSans-1074"/>
     <use x="502.734375" xlink:href="#DejaVuSans-1083"/>
     <use x="566.650391" xlink:href="#DejaVuSans-1080"/>
     <use x="631.640625" xlink:href="#DejaVuSans-1103"/>
     <use x="691.796875" xlink:href="#DejaVuSans-1085"/>
     <use x="757.177734" xlink:href="#DejaVuSans-1080"/>
     <use x="822.167969" xlink:href="#DejaVuSans-1077"/>
    </g>
   </g>
   <g id="text_14">
    <!-- 2.0% -->
    <g transform="translate(271.401519 150.232098)scale(0.1 -0.1)">
     <use xlink:href="#DejaVuSans-50"/>
     <use x="63.623047" xlink:href="#DejaVuSans-46"/>
     <use x="95.410156" xlink:href="#DejaVuSans-48"/>
     <use x="159.033203" xlink:href="#DejaVuSans-37"/>
    </g>
   </g>
  </g>
 </g>
</svg>
