<?xml version="1.0" encoding="utf-8" standalone="no"?>
<!DOCTYPE svg PUBLIC "-//W3C//DTD SVG 1.1//EN"
  "http://www.w3.org/Graphics/SVG/1.1/DTD/svg11.dtd">
<!-- Created with matplotlib (https://matplotlib.org/) -->
<svg height="288pt" version="1.1" viewBox="0 0 432 288" width="432pt" xmlns="http://www.w3.org/2000/svg" xmlns:xlink="http://www.w3.org/1999/xlink">
 <metadata>
  <rdf:RDF xmlns:cc="http://creativecommons.org/ns#" xmlns:dc="http://purl.org/dc/elements/1.1/" xmlns:rdf="http://www.w3.org/1999/02/22-rdf-syntax-ns#">
   <cc:Work>
    <dc:type rdf:resource="http://purl.org/dc/dcmitype/StillImage"/>
    <dc:date>2020-12-01T00:21:08.482085</dc:date>
    <dc:format>image/svg+xml</dc:format>
    <dc:creator>
     <cc:Agent>
      <dc:title>Matplotlib v3.3.3, https://matplotlib.org/</dc:title>
     </cc:Agent>
    </dc:creator>
   </cc:Work>
  </rdf:RDF>
 </metadata>
 <defs>
  <style type="text/css">*{stroke-linecap:butt;stroke-linejoin:round;}</style>
 </defs>
 <g id="figure_1">
  <g id="patch_1">
   <path d="M 0 288 
L 432 288 
L 432 0 
L 0 0 
z
" style="fill:none;"/>
  </g>
  <g id="axes_1">
   <g id="patch_2">
    <path d="M 310.165964 136.953115 
C 310.165964 114.985219 302.025307 93.778082 287.325915 77.452754 
C 272.626524 61.127426 252.386492 50.814615 230.538939 48.518344 
C 208.691385 46.222074 186.749493 52.101387 168.977092 65.013792 
C 151.204691 77.926197 138.832715 96.97737 134.265333 118.465215 
L 177.754702 127.709165 
C 180.038393 116.965242 186.224381 107.439656 195.110581 100.983453 
C 203.996782 94.527251 214.967728 91.587594 225.891505 92.73573 
C 236.815281 93.883865 246.935297 99.04027 254.284993 107.202934 
C 261.634688 115.365598 265.705017 125.969167 265.705017 136.953115 
L 310.165964 136.953115 
z
" style="fill:#4c4c00;opacity:0.5;stroke:#4c4c00;stroke-linejoin:miter;"/>
   </g>
   <g id="patch_3">
    <path d="M 125.212427 130.925471 
C 121.308773 149.290723 123.320272 168.428854 130.956973 185.581165 
C 138.593675 202.733477 151.470123 217.034221 167.73022 226.421991 
L 189.960692 187.917681 
C 181.830644 183.223796 175.39242 176.073424 171.574069 167.497268 
C 167.755718 158.921113 166.749969 149.352047 168.701796 140.169421 
L 125.212427 130.925471 
z
" style="fill:#002600;opacity:0.5;stroke:#002600;stroke-linejoin:miter;"/>
   </g>
   <g id="patch_4">
    <path d="M 173.105802 231.262187 
C 178.486926 234.36898 184.178901 236.90321 190.088374 238.823314 
C 195.997846 240.743418 202.092333 242.038841 208.271882 242.688337 
L 212.919314 198.470952 
C 209.82954 198.146204 206.782296 197.498492 203.82756 196.53844 
C 200.872824 195.578388 198.026836 194.311273 195.336274 192.757877 
L 173.105802 231.262187 
z
" style="fill:#4c3200;opacity:0.5;stroke:#4c3200;stroke-linejoin:miter;"/>
   </g>
   <g id="patch_5">
    <path d="M 215.465814 241.932224 
C 234.138503 243.894802 252.961534 239.893842 269.22163 230.506069 
C 285.481726 221.118297 298.358173 206.817552 305.994873 189.66524 
L 265.377776 171.581347 
C 261.559426 180.157503 255.121203 187.307875 246.991154 192.001761 
C 238.861106 196.695647 229.449591 198.696127 220.113247 197.714839 
L 215.465814 241.932224 
z
" style="fill:#4c004c;opacity:0.5;stroke:#4c004c;stroke-linejoin:miter;"/>
   </g>
   <g id="patch_6">
    <path d="M 310.246652 183.813168 
C 312.773945 178.136773 314.699319 172.211081 315.991196 166.133275 
C 317.283073 160.05547 317.934351 153.85896 317.934351 147.645373 
L 273.473404 147.645377 
C 273.473404 150.752171 273.147765 153.850425 272.501827 156.889328 
C 271.855888 159.928231 270.893201 162.891077 269.629555 165.729274 
L 310.246652 183.813168 
z
" style="fill:#4c0000;opacity:0.5;stroke:#4c0000;stroke-linejoin:miter;"/>
   </g>
   <g id="patch_7">
    <path d="M 311.944402 135.174677 
C 311.944402 113.206781 303.803745 91.999644 289.104353 75.674316 
C 274.404962 59.348988 254.16493 49.036177 232.317377 46.739907 
C 210.469823 44.443636 188.527931 50.322949 170.75553 63.235354 
C 152.983129 76.147759 140.611153 95.198932 136.043771 116.686777 
L 179.53314 125.930727 
C 181.816831 115.186804 188.002819 105.661218 196.889019 99.205015 
C 205.775219 92.748813 216.746166 89.809157 227.669942 90.957292 
C 238.593719 92.105427 248.713735 97.261832 256.063431 105.424496 
C 263.413126 113.58716 267.483455 124.190729 267.483455 135.174677 
L 311.944402 135.174677 
z
" style="fill:#ffff00;"/>
   </g>
   <g id="patch_8">
    <path d="M 126.990865 129.147033 
C 123.087211 147.512285 125.09871 166.650416 132.735411 183.802727 
C 140.372113 200.955039 153.248561 215.255783 169.508658 224.643553 
L 191.73913 186.139243 
C 183.609082 181.445358 177.170857 174.294986 173.352507 165.71883 
C 169.534156 157.142675 168.528406 147.573609 170.480234 138.390983 
L 126.990865 129.147033 
z
" style="fill:#008000;"/>
   </g>
   <g id="patch_9">
    <path d="M 174.88424 229.483749 
C 180.265364 232.590542 185.957339 235.124772 191.866811 237.044876 
C 197.776284 238.96498 203.870771 240.260403 210.05032 240.909899 
L 214.697752 196.692514 
C 211.607978 196.367766 208.560734 195.720054 205.605998 194.760002 
C 202.651261 193.79995 199.805274 192.532835 197.114712 190.979439 
L 174.88424 229.483749 
z
" style="fill:#ffa500;"/>
   </g>
   <g id="patch_10">
    <path d="M 217.244252 240.153786 
C 235.916941 242.116364 254.739972 238.115404 271.000068 228.727631 
C 287.260164 219.339859 300.136611 205.039114 307.773311 187.886802 
L 267.156214 169.802909 
C 263.337864 178.379065 256.89964 185.529437 248.769592 190.223323 
C 240.639544 194.91721 231.228029 196.91769 221.891684 195.936401 
L 217.244252 240.153786 
z
" style="fill:#ff00ff;"/>
   </g>
   <g id="patch_11">
    <path d="M 312.02509 182.03473 
C 314.552383 176.358335 316.477757 170.432643 317.769634 164.354837 
C 319.061511 158.277032 319.712789 152.080522 319.712789 145.866935 
L 275.251842 145.866939 
C 275.251842 148.973733 274.926203 152.071987 274.280264 155.11089 
C 273.634326 158.149793 272.671639 161.112639 271.407992 163.950837 
L 312.02509 182.03473 
z
" style="fill:#ff0000;"/>
   </g>
   <g id="matplotlib.axis_1"/>
   <g id="matplotlib.axis_2"/>
   <g id="text_1">
    <!-- Семья и дети -->
    <g transform="translate(233.246863 40.655805)scale(0.1 -0.1)">
     <defs>
      <path d="M 64.40625 67.28125 
L 64.40625 56.890625 
Q 59.421875 61.53125 53.78125 63.8125 
Q 48.140625 66.109375 41.796875 66.109375 
Q 29.296875 66.109375 22.65625 58.46875 
Q 16.015625 50.828125 16.015625 36.375 
Q 16.015625 21.96875 22.65625 14.328125 
Q 29.296875 6.6875 41.796875 6.6875 
Q 48.140625 6.6875 53.78125 8.984375 
Q 59.421875 11.28125 64.40625 15.921875 
L 64.40625 5.609375 
Q 59.234375 2.09375 53.4375 0.328125 
Q 47.65625 -1.421875 41.21875 -1.421875 
Q 24.65625 -1.421875 15.125 8.703125 
Q 5.609375 18.84375 5.609375 36.375 
Q 5.609375 53.953125 15.125 64.078125 
Q 24.65625 74.21875 41.21875 74.21875 
Q 47.75 74.21875 53.53125 72.484375 
Q 59.328125 70.75 64.40625 67.28125 
z
" id="DejaVuSans-1057"/>
      <path d="M 56.203125 29.59375 
L 56.203125 25.203125 
L 14.890625 25.203125 
Q 15.484375 15.921875 20.484375 11.0625 
Q 25.484375 6.203125 34.421875 6.203125 
Q 39.59375 6.203125 44.453125 7.46875 
Q 49.3125 8.734375 54.109375 11.28125 
L 54.109375 2.78125 
Q 49.265625 0.734375 44.1875 -0.34375 
Q 39.109375 -1.421875 33.890625 -1.421875 
Q 20.796875 -1.421875 13.15625 6.1875 
Q 5.515625 13.8125 5.515625 26.8125 
Q 5.515625 40.234375 12.765625 48.109375 
Q 20.015625 56 32.328125 56 
Q 43.359375 56 49.78125 48.890625 
Q 56.203125 41.796875 56.203125 29.59375 
z
M 47.21875 32.234375 
Q 47.125 39.59375 43.09375 43.984375 
Q 39.0625 48.390625 32.421875 48.390625 
Q 24.90625 48.390625 20.390625 44.140625 
Q 15.875 39.890625 15.1875 32.171875 
z
" id="DejaVuSans-1077"/>
      <path d="M 9.078125 54.6875 
L 22.21875 54.6875 
L 37.75 18.0625 
L 53.328125 54.6875 
L 66.359375 54.6875 
L 66.359375 0 
L 57.328125 0 
L 57.328125 46.09375 
L 42.234375 10.5 
L 33.25 10.5 
L 18.109375 46.09375 
L 18.109375 0 
L 9.078125 0 
z
" id="DejaVuSans-1084"/>
      <path d="M 43.453125 16.21875 
Q 43.453125 20.609375 40.25 22.90625 
Q 37.0625 25.203125 30.90625 25.203125 
L 18.109375 25.203125 
L 18.109375 7.171875 
L 30.90625 7.171875 
Q 37.0625 7.171875 40.25 9.484375 
Q 43.453125 11.8125 43.453125 16.21875 
z
M 9.078125 54.6875 
L 18.109375 54.6875 
L 18.109375 32.375 
L 31.296875 32.375 
Q 41.75 32.375 47.390625 28.390625 
Q 53.03125 24.421875 53.03125 16.21875 
Q 53.03125 8.015625 47.390625 4 
Q 41.75 0 31.296875 0 
L 9.078125 0 
z
" id="DejaVuSans-1100"/>
      <path d="M 18.453125 38.921875 
Q 18.453125 34.859375 21.578125 32.5625 
Q 24.703125 30.28125 30.515625 30.28125 
L 42.625 30.28125 
L 42.625 47.515625 
L 30.515625 47.515625 
Q 24.703125 47.515625 21.578125 45.265625 
Q 18.453125 43.015625 18.453125 38.921875 
z
M 5.671875 0 
L 22.359375 23.96875 
Q 16.703125 25.25 12.9375 28.59375 
Q 9.1875 31.9375 9.1875 38.921875 
Q 9.1875 46.828125 14.421875 50.75 
Q 19.671875 54.6875 30.28125 54.6875 
L 51.65625 54.6875 
L 51.65625 0 
L 42.625 0 
L 42.625 23.09375 
L 31.453125 23.09375 
L 15.328125 0 
z
" id="DejaVuSans-1103"/>
      <path id="DejaVuSans-32"/>
      <path d="M 55.90625 54.6875 
L 55.90625 0 
L 46.96875 0 
L 46.96875 43.890625 
L 20.609375 0 
L 9.078125 0 
L 9.078125 54.6875 
L 18.015625 54.6875 
L 18.015625 10.890625 
L 44.34375 54.6875 
z
" id="DejaVuSans-1080"/>
      <path d="M 21.625 7.171875 
L 47.703125 7.171875 
L 47.703125 47.515625 
L 28.8125 47.515625 
L 28.8125 40.671875 
Q 28.8125 20.5625 23.046875 9.8125 
z
M 8.59375 7.171875 
Q 13.03125 9.125 14.984375 13.28125 
Q 19.78125 23.578125 19.78125 44.34375 
L 19.78125 54.6875 
L 56.734375 54.6875 
L 56.734375 7.171875 
L 63.921875 7.171875 
L 63.921875 -13.8125 
L 56.734375 -13.8125 
L 56.734375 0 
L 12.40625 0 
L 12.40625 -13.8125 
L 5.21875 -13.8125 
L 5.21875 7.171875 
z
" id="DejaVuSans-1076"/>
      <path d="M 2.9375 54.6875 
L 55.328125 54.6875 
L 55.328125 47.515625 
L 33.546875 47.515625 
L 33.546875 0 
L 24.703125 0 
L 24.703125 47.515625 
L 2.9375 47.515625 
z
" id="DejaVuSans-1090"/>
     </defs>
     <use xlink:href="#DejaVuSans-1057"/>
     <use x="69.824219" xlink:href="#DejaVuSans-1077"/>
     <use x="131.347656" xlink:href="#DejaVuSans-1084"/>
     <use x="206.787109" xlink:href="#DejaVuSans-1100"/>
     <use x="265.722656" xlink:href="#DejaVuSans-1103"/>
     <use x="325.878906" xlink:href="#DejaVuSans-32"/>
     <use x="357.666016" xlink:href="#DejaVuSans-1080"/>
     <use x="422.65625" xlink:href="#DejaVuSans-32"/>
     <use x="454.443359" xlink:href="#DejaVuSans-1076"/>
     <use x="523.583984" xlink:href="#DejaVuSans-1077"/>
     <use x="585.107422" xlink:href="#DejaVuSans-1090"/>
     <use x="643.359375" xlink:href="#DejaVuSans-1080"/>
    </g>
   </g>
   <g id="text_2">
    <!-- 46.7% -->
    <g transform="translate(212.715835 84.87319)scale(0.1 -0.1)">
     <defs>
      <path d="M 37.796875 64.3125 
L 12.890625 25.390625 
L 37.796875 25.390625 
z
M 35.203125 72.90625 
L 47.609375 72.90625 
L 47.609375 25.390625 
L 58.015625 25.390625 
L 58.015625 17.1875 
L 47.609375 17.1875 
L 47.609375 0 
L 37.796875 0 
L 37.796875 17.1875 
L 4.890625 17.1875 
L 4.890625 26.703125 
z
" id="DejaVuSans-52"/>
      <path d="M 33.015625 40.375 
Q 26.375 40.375 22.484375 35.828125 
Q 18.609375 31.296875 18.609375 23.390625 
Q 18.609375 15.53125 22.484375 10.953125 
Q 26.375 6.390625 33.015625 6.390625 
Q 39.65625 6.390625 43.53125 10.953125 
Q 47.40625 15.53125 47.40625 23.390625 
Q 47.40625 31.296875 43.53125 35.828125 
Q 39.65625 40.375 33.015625 40.375 
z
M 52.59375 71.296875 
L 52.59375 62.3125 
Q 48.875 64.0625 45.09375 64.984375 
Q 41.3125 65.921875 37.59375 65.921875 
Q 27.828125 65.921875 22.671875 59.328125 
Q 17.53125 52.734375 16.796875 39.40625 
Q 19.671875 43.65625 24.015625 45.921875 
Q 28.375 48.1875 33.59375 48.1875 
Q 44.578125 48.1875 50.953125 41.515625 
Q 57.328125 34.859375 57.328125 23.390625 
Q 57.328125 12.15625 50.6875 5.359375 
Q 44.046875 -1.421875 33.015625 -1.421875 
Q 20.359375 -1.421875 13.671875 8.265625 
Q 6.984375 17.96875 6.984375 36.375 
Q 6.984375 53.65625 15.1875 63.9375 
Q 23.390625 74.21875 37.203125 74.21875 
Q 40.921875 74.21875 44.703125 73.484375 
Q 48.484375 72.75 52.59375 71.296875 
z
" id="DejaVuSans-54"/>
      <path d="M 10.6875 12.40625 
L 21 12.40625 
L 21 0 
L 10.6875 0 
z
" id="DejaVuSans-46"/>
      <path d="M 8.203125 72.90625 
L 55.078125 72.90625 
L 55.078125 68.703125 
L 28.609375 0 
L 18.3125 0 
L 43.21875 64.59375 
L 8.203125 64.59375 
z
" id="DejaVuSans-55"/>
      <path d="M 72.703125 32.078125 
Q 68.453125 32.078125 66.03125 28.46875 
Q 63.625 24.859375 63.625 18.40625 
Q 63.625 12.0625 66.03125 8.421875 
Q 68.453125 4.78125 72.703125 4.78125 
Q 76.859375 4.78125 79.265625 8.421875 
Q 81.6875 12.0625 81.6875 18.40625 
Q 81.6875 24.8125 79.265625 28.4375 
Q 76.859375 32.078125 72.703125 32.078125 
z
M 72.703125 38.28125 
Q 80.421875 38.28125 84.953125 32.90625 
Q 89.5 27.546875 89.5 18.40625 
Q 89.5 9.28125 84.9375 3.921875 
Q 80.375 -1.421875 72.703125 -1.421875 
Q 64.890625 -1.421875 60.34375 3.921875 
Q 55.8125 9.28125 55.8125 18.40625 
Q 55.8125 27.59375 60.375 32.9375 
Q 64.9375 38.28125 72.703125 38.28125 
z
M 22.3125 68.015625 
Q 18.109375 68.015625 15.6875 64.375 
Q 13.28125 60.75 13.28125 54.390625 
Q 13.28125 47.953125 15.671875 44.328125 
Q 18.0625 40.71875 22.3125 40.71875 
Q 26.5625 40.71875 28.96875 44.328125 
Q 31.390625 47.953125 31.390625 54.390625 
Q 31.390625 60.6875 28.953125 64.34375 
Q 26.515625 68.015625 22.3125 68.015625 
z
M 66.40625 74.21875 
L 74.21875 74.21875 
L 28.609375 -1.421875 
L 20.796875 -1.421875 
z
M 22.3125 74.21875 
Q 30.03125 74.21875 34.609375 68.875 
Q 39.203125 63.53125 39.203125 54.390625 
Q 39.203125 45.171875 34.640625 39.84375 
Q 30.078125 34.515625 22.3125 34.515625 
Q 14.546875 34.515625 10.03125 39.859375 
Q 5.515625 45.21875 5.515625 54.390625 
Q 5.515625 63.484375 10.046875 68.84375 
Q 14.59375 74.21875 22.3125 74.21875 
z
" id="DejaVuSans-37"/>
     </defs>
     <use xlink:href="#DejaVuSans-52"/>
     <use x="63.623047" xlink:href="#DejaVuSans-54"/>
     <use x="127.246094" xlink:href="#DejaVuSans-46"/>
     <use x="159.033203" xlink:href="#DejaVuSans-55"/>
     <use x="222.65625" xlink:href="#DejaVuSans-37"/>
    </g>
   </g>
   <g id="text_3">
    <!-- Карьера и деньги -->
    <g transform="translate(30.405742 190.178882)scale(0.1 -0.1)">
     <defs>
      <path d="M 9.8125 72.90625 
L 19.671875 72.90625 
L 19.671875 36.859375 
L 54.9375 72.90625 
L 67.578125 72.90625 
L 39.40625 44.09375 
L 69.046875 0 
L 58.296875 0 
L 33.015625 37.546875 
L 19.671875 23.921875 
L 19.671875 0 
L 9.8125 0 
z
" id="DejaVuSans-1050"/>
      <path d="M 34.28125 27.484375 
Q 23.390625 27.484375 19.1875 25 
Q 14.984375 22.515625 14.984375 16.5 
Q 14.984375 11.71875 18.140625 8.90625 
Q 21.296875 6.109375 26.703125 6.109375 
Q 34.1875 6.109375 38.703125 11.40625 
Q 43.21875 16.703125 43.21875 25.484375 
L 43.21875 27.484375 
z
M 52.203125 31.203125 
L 52.203125 0 
L 43.21875 0 
L 43.21875 8.296875 
Q 40.140625 3.328125 35.546875 0.953125 
Q 30.953125 -1.421875 24.3125 -1.421875 
Q 15.921875 -1.421875 10.953125 3.296875 
Q 6 8.015625 6 15.921875 
Q 6 25.140625 12.171875 29.828125 
Q 18.359375 34.515625 30.609375 34.515625 
L 43.21875 34.515625 
L 43.21875 35.40625 
Q 43.21875 41.609375 39.140625 45 
Q 35.0625 48.390625 27.6875 48.390625 
Q 23 48.390625 18.546875 47.265625 
Q 14.109375 46.140625 10.015625 43.890625 
L 10.015625 52.203125 
Q 14.9375 54.109375 19.578125 55.046875 
Q 24.21875 56 28.609375 56 
Q 40.484375 56 46.34375 49.84375 
Q 52.203125 43.703125 52.203125 31.203125 
z
" id="DejaVuSans-1072"/>
      <path d="M 18.109375 8.203125 
L 18.109375 -20.796875 
L 9.078125 -20.796875 
L 9.078125 54.6875 
L 18.109375 54.6875 
L 18.109375 46.390625 
Q 20.953125 51.265625 25.265625 53.625 
Q 29.59375 56 35.59375 56 
Q 45.5625 56 51.78125 48.09375 
Q 58.015625 40.1875 58.015625 27.296875 
Q 58.015625 14.40625 51.78125 6.484375 
Q 45.5625 -1.421875 35.59375 -1.421875 
Q 29.59375 -1.421875 25.265625 0.953125 
Q 20.953125 3.328125 18.109375 8.203125 
z
M 48.6875 27.296875 
Q 48.6875 37.203125 44.609375 42.84375 
Q 40.53125 48.484375 33.40625 48.484375 
Q 26.265625 48.484375 22.1875 42.84375 
Q 18.109375 37.203125 18.109375 27.296875 
Q 18.109375 17.390625 22.1875 11.75 
Q 26.265625 6.109375 33.40625 6.109375 
Q 40.53125 6.109375 44.609375 11.75 
Q 48.6875 17.390625 48.6875 27.296875 
z
" id="DejaVuSans-1088"/>
      <path d="M 9.078125 54.6875 
L 18.109375 54.6875 
L 18.109375 32.375 
L 47.265625 32.375 
L 47.265625 54.6875 
L 56.296875 54.6875 
L 56.296875 0 
L 47.265625 0 
L 47.265625 25.203125 
L 18.109375 25.203125 
L 18.109375 0 
L 9.078125 0 
z
" id="DejaVuSans-1085"/>
      <path d="M 9.078125 0 
L 9.078125 54.6875 
L 47.65625 54.6875 
L 47.65625 47.515625 
L 18.109375 47.515625 
L 18.109375 0 
z
" id="DejaVuSans-1075"/>
     </defs>
     <use xlink:href="#DejaVuSans-1050"/>
     <use x="70.996094" xlink:href="#DejaVuSans-1072"/>
     <use x="132.275391" xlink:href="#DejaVuSans-1088"/>
     <use x="195.751953" xlink:href="#DejaVuSans-1100"/>
     <use x="254.6875" xlink:href="#DejaVuSans-1077"/>
     <use x="316.210938" xlink:href="#DejaVuSans-1088"/>
     <use x="379.6875" xlink:href="#DejaVuSans-1072"/>
     <use x="440.966797" xlink:href="#DejaVuSans-32"/>
     <use x="472.753906" xlink:href="#DejaVuSans-1080"/>
     <use x="537.744141" xlink:href="#DejaVuSans-32"/>
     <use x="569.53125" xlink:href="#DejaVuSans-1076"/>
     <use x="638.671875" xlink:href="#DejaVuSans-1077"/>
     <use x="700.195312" xlink:href="#DejaVuSans-1085"/>
     <use x="765.576172" xlink:href="#DejaVuSans-1100"/>
     <use x="824.511719" xlink:href="#DejaVuSans-1075"/>
     <use x="877.050781" xlink:href="#DejaVuSans-1080"/>
    </g>
   </g>
   <g id="text_4">
    <!-- 20.0% -->
    <g transform="translate(149.345494 172.094985)scale(0.1 -0.1)">
     <defs>
      <path d="M 19.1875 8.296875 
L 53.609375 8.296875 
L 53.609375 0 
L 7.328125 0 
L 7.328125 8.296875 
Q 12.9375 14.109375 22.625 23.890625 
Q 32.328125 33.6875 34.8125 36.53125 
Q 39.546875 41.84375 41.421875 45.53125 
Q 43.3125 49.21875 43.3125 52.78125 
Q 43.3125 58.59375 39.234375 62.25 
Q 35.15625 65.921875 28.609375 65.921875 
Q 23.96875 65.921875 18.8125 64.3125 
Q 13.671875 62.703125 7.8125 59.421875 
L 7.8125 69.390625 
Q 13.765625 71.78125 18.9375 73 
Q 24.125 74.21875 28.421875 74.21875 
Q 39.75 74.21875 46.484375 68.546875 
Q 53.21875 62.890625 53.21875 53.421875 
Q 53.21875 48.921875 51.53125 44.890625 
Q 49.859375 40.875 45.40625 35.40625 
Q 44.1875 33.984375 37.640625 27.21875 
Q 31.109375 20.453125 19.1875 8.296875 
z
" id="DejaVuSans-50"/>
      <path d="M 31.78125 66.40625 
Q 24.171875 66.40625 20.328125 58.90625 
Q 16.5 51.421875 16.5 36.375 
Q 16.5 21.390625 20.328125 13.890625 
Q 24.171875 6.390625 31.78125 6.390625 
Q 39.453125 6.390625 43.28125 13.890625 
Q 47.125 21.390625 47.125 36.375 
Q 47.125 51.421875 43.28125 58.90625 
Q 39.453125 66.40625 31.78125 66.40625 
z
M 31.78125 74.21875 
Q 44.046875 74.21875 50.515625 64.515625 
Q 56.984375 54.828125 56.984375 36.375 
Q 56.984375 17.96875 50.515625 8.265625 
Q 44.046875 -1.421875 31.78125 -1.421875 
Q 19.53125 -1.421875 13.0625 8.265625 
Q 6.59375 17.96875 6.59375 36.375 
Q 6.59375 54.828125 13.0625 64.515625 
Q 19.53125 74.21875 31.78125 74.21875 
z
" id="DejaVuSans-48"/>
     </defs>
     <use xlink:href="#DejaVuSans-50"/>
     <use x="63.623047" xlink:href="#DejaVuSans-48"/>
     <use x="127.246094" xlink:href="#DejaVuSans-46"/>
     <use x="159.033203" xlink:href="#DejaVuSans-48"/>
     <use x="222.65625" xlink:href="#DejaVuSans-37"/>
    </g>
   </g>
   <g id="text_5">
    <!-- Совершенствование мира -->
    <g transform="translate(51.537724 248.261226)scale(0.1 -0.1)">
     <defs>
      <path d="M 30.609375 48.390625 
Q 23.390625 48.390625 19.1875 42.75 
Q 14.984375 37.109375 14.984375 27.296875 
Q 14.984375 17.484375 19.15625 11.84375 
Q 23.34375 6.203125 30.609375 6.203125 
Q 37.796875 6.203125 41.984375 11.859375 
Q 46.1875 17.53125 46.1875 27.296875 
Q 46.1875 37.015625 41.984375 42.703125 
Q 37.796875 48.390625 30.609375 48.390625 
z
M 30.609375 56 
Q 42.328125 56 49.015625 48.375 
Q 55.71875 40.765625 55.71875 27.296875 
Q 55.71875 13.875 49.015625 6.21875 
Q 42.328125 -1.421875 30.609375 -1.421875 
Q 18.84375 -1.421875 12.171875 6.21875 
Q 5.515625 13.875 5.515625 27.296875 
Q 5.515625 40.765625 12.171875 48.375 
Q 18.84375 56 30.609375 56 
z
" id="DejaVuSans-1086"/>
      <path d="M 18.0625 25.203125 
L 18.0625 7.171875 
L 30.859375 7.171875 
Q 37.015625 7.171875 40.234375 9.484375 
Q 43.453125 11.8125 43.453125 16.21875 
Q 43.453125 20.609375 40.234375 22.90625 
Q 37.015625 25.203125 30.859375 25.203125 
z
M 18.0625 47.515625 
L 18.0625 32.375 
L 29.890625 32.375 
Q 34.96875 32.375 38.1875 34.390625 
Q 41.40625 36.421875 41.40625 40.046875 
Q 41.40625 43.65625 38.1875 45.578125 
Q 34.96875 47.515625 29.890625 47.515625 
z
M 9.078125 54.6875 
L 30.46875 54.6875 
Q 40.09375 54.6875 45.265625 51.171875 
Q 50.4375 47.65625 50.4375 41.15625 
Q 50.4375 36.140625 47.796875 33.171875 
Q 45.171875 30.21875 39.984375 29.5 
Q 46.1875 28.328125 49.609375 24.609375 
Q 53.03125 20.90625 53.03125 15.328125 
Q 53.03125 8.015625 47.390625 4 
Q 41.75 0 31.296875 0 
L 9.078125 0 
z
" id="DejaVuSans-1074"/>
      <path d="M 50.25 7.171875 
L 73.390625 7.171875 
L 73.390625 54.6875 
L 82.421875 54.6875 
L 82.421875 0 
L 9.078125 0 
L 9.078125 54.6875 
L 18.109375 54.6875 
L 18.109375 7.171875 
L 41.21875 7.171875 
L 41.21875 54.6875 
L 50.25 54.6875 
z
" id="DejaVuSans-1096"/>
      <path d="M 48.78125 52.59375 
L 48.78125 44.1875 
Q 44.96875 46.296875 41.140625 47.34375 
Q 37.3125 48.390625 33.40625 48.390625 
Q 24.65625 48.390625 19.8125 42.84375 
Q 14.984375 37.3125 14.984375 27.296875 
Q 14.984375 17.28125 19.8125 11.734375 
Q 24.65625 6.203125 33.40625 6.203125 
Q 37.3125 6.203125 41.140625 7.25 
Q 44.96875 8.296875 48.78125 10.40625 
L 48.78125 2.09375 
Q 45.015625 0.34375 40.984375 -0.53125 
Q 36.96875 -1.421875 32.421875 -1.421875 
Q 20.0625 -1.421875 12.78125 6.34375 
Q 5.515625 14.109375 5.515625 27.296875 
Q 5.515625 40.671875 12.859375 48.328125 
Q 20.21875 56 33.015625 56 
Q 37.15625 56 41.109375 55.140625 
Q 45.0625 54.296875 48.78125 52.59375 
z
" id="DejaVuSans-1089"/>
     </defs>
     <use xlink:href="#DejaVuSans-1057"/>
     <use x="69.824219" xlink:href="#DejaVuSans-1086"/>
     <use x="131.005859" xlink:href="#DejaVuSans-1074"/>
     <use x="189.941406" xlink:href="#DejaVuSans-1077"/>
     <use x="251.464844" xlink:href="#DejaVuSans-1088"/>
     <use x="314.941406" xlink:href="#DejaVuSans-1096"/>
     <use x="406.445312" xlink:href="#DejaVuSans-1077"/>
     <use x="467.96875" xlink:href="#DejaVuSans-1085"/>
     <use x="533.349609" xlink:href="#DejaVuSans-1089"/>
     <use x="588.330078" xlink:href="#DejaVuSans-1090"/>
     <use x="646.582031" xlink:href="#DejaVuSans-1074"/>
     <use x="705.517578" xlink:href="#DejaVuSans-1086"/>
     <use x="766.699219" xlink:href="#DejaVuSans-1074"/>
     <use x="825.634766" xlink:href="#DejaVuSans-1072"/>
     <use x="886.914062" xlink:href="#DejaVuSans-1085"/>
     <use x="952.294922" xlink:href="#DejaVuSans-1080"/>
     <use x="1017.285156" xlink:href="#DejaVuSans-1077"/>
     <use x="1078.808594" xlink:href="#DejaVuSans-32"/>
     <use x="1110.595703" xlink:href="#DejaVuSans-1084"/>
     <use x="1186.035156" xlink:href="#DejaVuSans-1080"/>
     <use x="1251.025391" xlink:href="#DejaVuSans-1088"/>
     <use x="1314.501953" xlink:href="#DejaVuSans-1072"/>
    </g>
   </g>
   <g id="text_6">
    <!-- 6.7% -->
    <g transform="translate(190.155817 205.976352)scale(0.1 -0.1)">
     <use xlink:href="#DejaVuSans-54"/>
     <use x="63.623047" xlink:href="#DejaVuSans-46"/>
     <use x="95.410156" xlink:href="#DejaVuSans-55"/>
     <use x="159.033203" xlink:href="#DejaVuSans-37"/>
    </g>
   </g>
   <g id="text_7">
    <!-- Саморазвитие -->
    <g transform="translate(275.446163 239.187868)scale(0.1 -0.1)">
     <defs>
      <path d="M 34.46875 29.5 
Q 40.53125 28.328125 43.890625 24.75 
Q 47.265625 21.1875 47.265625 15.921875 
Q 47.265625 7.46875 40.96875 3.015625 
Q 34.671875 -1.421875 23.046875 -1.421875 
Q 19.140625 -1.421875 15.015625 -0.734375 
Q 10.890625 -0.046875 6.5 1.3125 
L 6.5 9.671875 
Q 9.96875 7.859375 14.109375 6.953125 
Q 18.265625 6.0625 22.796875 6.0625 
Q 30.171875 6.0625 34.296875 8.796875 
Q 38.421875 11.53125 38.421875 15.921875 
Q 38.421875 20.21875 34.765625 22.828125 
Q 31.109375 25.4375 24.421875 25.4375 
L 17.1875 25.4375 
L 17.1875 32.859375 
L 24.75 32.859375 
Q 30.421875 32.859375 33.71875 35.03125 
Q 37.015625 37.203125 37.015625 40.625 
Q 37.015625 43.75 33.609375 46 
Q 30.21875 48.25 24.421875 48.25 
Q 20.953125 48.25 17.015625 47.609375 
Q 13.09375 46.96875 8.34375 45.5625 
L 8.34375 53.71875 
Q 13.140625 54.890625 17.28125 55.46875 
Q 21.4375 56.0625 25.140625 56.0625 
Q 34.71875 56.0625 40.25 52.21875 
Q 45.796875 48.390625 45.796875 41.5 
Q 45.796875 36.96875 42.859375 33.8125 
Q 39.9375 30.671875 34.46875 29.5 
z
" id="DejaVuSans-1079"/>
     </defs>
     <use xlink:href="#DejaVuSans-1057"/>
     <use x="69.824219" xlink:href="#DejaVuSans-1072"/>
     <use x="131.103516" xlink:href="#DejaVuSans-1084"/>
     <use x="206.542969" xlink:href="#DejaVuSans-1086"/>
     <use x="267.724609" xlink:href="#DejaVuSans-1088"/>
     <use x="331.201172" xlink:href="#DejaVuSans-1072"/>
     <use x="392.480469" xlink:href="#DejaVuSans-1079"/>
     <use x="445.654297" xlink:href="#DejaVuSans-1074"/>
     <use x="504.589844" xlink:href="#DejaVuSans-1080"/>
     <use x="569.580078" xlink:href="#DejaVuSans-1090"/>
     <use x="627.832031" xlink:href="#DejaVuSans-1080"/>
     <use x="692.822266" xlink:href="#DejaVuSans-1077"/>
    </g>
   </g>
   <g id="text_8">
    <!-- 20.0% -->
    <g transform="translate(237.332094 200.68356)scale(0.1 -0.1)">
     <use xlink:href="#DejaVuSans-50"/>
     <use x="63.623047" xlink:href="#DejaVuSans-48"/>
     <use x="127.246094" xlink:href="#DejaVuSans-46"/>
     <use x="159.033203" xlink:href="#DejaVuSans-48"/>
     <use x="222.65625" xlink:href="#DejaVuSans-37"/>
    </g>
   </g>
   <g id="text_9">
    <!-- Слава и влияние -->
    <g transform="translate(326.467507 168.963002)scale(0.1 -0.1)">
     <defs>
      <path d="M 3.71875 0 
L 3.71875 7.46875 
Q 12.59375 8.84375 15.328125 14.984375 
Q 18.65625 23.640625 18.65625 45.75 
L 18.65625 54.6875 
L 55.609375 54.6875 
L 55.609375 0 
L 46.625 0 
L 46.625 47.515625 
L 27.640625 47.515625 
L 27.640625 42.09375 
Q 27.640625 21 23.34375 11.53125 
Q 18.75 1.421875 3.71875 0 
z
" id="DejaVuSans-1083"/>
     </defs>
     <use xlink:href="#DejaVuSans-1057"/>
     <use x="69.824219" xlink:href="#DejaVuSans-1083"/>
     <use x="133.740234" xlink:href="#DejaVuSans-1072"/>
     <use x="195.019531" xlink:href="#DejaVuSans-1074"/>
     <use x="253.955078" xlink:href="#DejaVuSans-1072"/>
     <use x="315.234375" xlink:href="#DejaVuSans-32"/>
     <use x="347.021484" xlink:href="#DejaVuSans-1080"/>
     <use x="412.011719" xlink:href="#DejaVuSans-32"/>
     <use x="443.798828" xlink:href="#DejaVuSans-1074"/>
     <use x="502.734375" xlink:href="#DejaVuSans-1083"/>
     <use x="566.650391" xlink:href="#DejaVuSans-1080"/>
     <use x="631.640625" xlink:href="#DejaVuSans-1103"/>
     <use x="691.796875" xlink:href="#DejaVuSans-1085"/>
     <use x="757.177734" xlink:href="#DejaVuSans-1080"/>
     <use x="822.167969" xlink:href="#DejaVuSans-1077"/>
    </g>
   </g>
   <g id="text_10">
    <!-- 6.7% -->
    <g transform="translate(270.275794 159.719055)scale(0.1 -0.1)">
     <use xlink:href="#DejaVuSans-54"/>
     <use x="63.623047" xlink:href="#DejaVuSans-46"/>
     <use x="95.410156" xlink:href="#DejaVuSans-55"/>
     <use x="159.033203" xlink:href="#DejaVuSans-37"/>
    </g>
   </g>
  </g>
 </g>
</svg>
