<?xml version="1.0" encoding="utf-8" standalone="no"?>
<!DOCTYPE svg PUBLIC "-//W3C//DTD SVG 1.1//EN"
  "http://www.w3.org/Graphics/SVG/1.1/DTD/svg11.dtd">
<!-- Created with matplotlib (https://matplotlib.org/) -->
<svg height="288pt" version="1.1" viewBox="0 0 432 288" width="432pt" xmlns="http://www.w3.org/2000/svg" xmlns:xlink="http://www.w3.org/1999/xlink">
 <metadata>
  <rdf:RDF xmlns:cc="http://creativecommons.org/ns#" xmlns:dc="http://purl.org/dc/elements/1.1/" xmlns:rdf="http://www.w3.org/1999/02/22-rdf-syntax-ns#">
   <cc:Work>
    <dc:type rdf:resource="http://purl.org/dc/dcmitype/StillImage"/>
    <dc:date>2020-12-01T00:29:59.596295</dc:date>
    <dc:format>image/svg+xml</dc:format>
    <dc:creator>
     <cc:Agent>
      <dc:title>Matplotlib v3.3.3, https://matplotlib.org/</dc:title>
     </cc:Agent>
    </dc:creator>
   </cc:Work>
  </rdf:RDF>
 </metadata>
 <defs>
  <style type="text/css">*{stroke-linecap:butt;stroke-linejoin:round;}</style>
 </defs>
 <g id="figure_1">
  <g id="patch_1">
   <path d="M 0 288 
L 432 288 
L 432 0 
L 0 0 
z
" style="fill:none;"/>
  </g>
  <g id="axes_1">
   <g id="patch_2">
    <path d="M 304.151258 136.791217 
C 304.151258 122.412391 300.684113 108.243337 294.04471 95.489162 
C 287.405307 82.734988 277.787371 71.767833 266.008926 63.520477 
C 254.230481 55.273121 240.635199 49.986205 226.379386 48.109391 
C 212.123573 46.232578 197.623184 47.820628 184.111507 52.738476 
C 170.59983 57.656324 158.471108 65.760476 148.756914 76.361659 
C 139.04272 86.962841 132.026493 99.751733 128.304978 113.640612 
C 124.583464 127.529491 124.265248 142.113109 127.377395 156.1511 
C 130.489542 170.18909 136.941246 183.271854 146.183777 194.286674 
L 180.443989 165.538945 
C 175.822723 160.031535 172.596871 153.490153 171.040798 146.471158 
C 169.484724 139.452163 169.643832 132.160354 171.50459 125.215914 
C 173.365347 118.271475 176.87346 111.877029 181.730557 106.576438 
C 186.587654 101.275846 192.652015 97.22377 199.407854 94.764846 
C 206.163692 92.305922 213.413887 91.511897 220.541793 92.450304 
C 227.6697 93.388711 234.467341 96.032169 240.356563 100.155847 
C 246.245786 104.279525 251.054754 109.763102 254.374455 116.140189 
C 257.694157 122.517277 259.427729 129.601804 259.427729 136.791217 
L 304.151258 136.791217 
z
" style="fill:#4c4c00;opacity:0.5;stroke:#4c4c00;stroke-linejoin:miter;"/>
   </g>
   <g id="patch_3">
    <path d="M 143.4935 209.54399 
C 146.840571 213.532875 150.529576 217.22188 154.518461 220.568952 
C 158.507345 223.916023 162.780895 226.908395 167.290392 229.511955 
L 189.652158 190.780244 
C 187.397409 189.478464 185.260634 187.982278 183.266192 186.308742 
C 181.27175 184.635206 179.427248 182.790704 177.753712 180.796261 
L 143.4935 209.54399 
z
" style="fill:#002600;opacity:0.5;stroke:#002600;stroke-linejoin:miter;"/>
   </g>
   <g id="patch_4">
    <path d="M 169.980668 231.065187 
C 174.490166 233.668747 179.21841 235.873563 184.111502 237.654503 
C 189.004593 239.435443 194.043867 240.785713 199.171878 241.68992 
L 206.938039 197.645842 
C 204.374034 197.193739 201.854397 196.518604 199.407851 195.628134 
C 196.961305 194.737664 194.597183 193.635256 192.342434 192.333476 
L 169.980668 231.065187 
z
" style="fill:#4c3200;opacity:0.5;stroke:#4c3200;stroke-linejoin:miter;"/>
   </g>
   <g id="patch_5">
    <path d="M 203.78438 242.093461 
C 214.05985 243.905304 224.573547 243.905305 234.849017 242.093463 
C 245.124487 240.28162 255.004131 236.685724 264.040228 231.468732 
L 241.678465 192.737019 
C 237.160416 195.345515 232.220594 197.143463 227.082859 198.049384 
C 221.945124 198.955306 216.688276 198.955305 211.550541 198.049384 
L 203.78438 242.093461 
z
" style="fill:#4c004c;opacity:0.5;stroke:#4c004c;stroke-linejoin:miter;"/>
   </g>
   <g id="patch_6">
    <path d="M 270.233339 227.132269 
C 283.829998 219.282235 295.123201 207.989033 302.973236 194.392374 
C 310.823271 180.795715 314.95687 165.368913 314.95687 149.668844 
L 270.233341 149.668844 
C 270.233341 157.518878 268.166542 165.232279 264.241524 172.030609 
C 260.316507 178.828938 254.669905 184.475539 247.871576 188.400556 
L 270.233339 227.132269 
z
" style="fill:#4c0000;opacity:0.5;stroke:#4c0000;stroke-linejoin:miter;"/>
   </g>
   <g id="patch_7">
    <path d="M 305.940199 135.002275 
C 305.940199 120.623449 302.473054 106.454395 295.833651 93.700221 
C 289.194248 80.946047 279.576312 69.978892 267.797867 61.731536 
C 256.019422 53.48418 242.42414 48.197264 228.168327 46.32045 
C 213.912514 44.443636 199.412125 46.031687 185.900448 50.949535 
C 172.388771 55.867383 160.260049 63.971535 150.545855 74.572717 
C 140.831661 85.1739 133.815434 97.962791 130.09392 111.851671 
C 126.372405 125.74055 126.054189 140.324168 129.166336 154.362159 
C 132.278483 168.400149 138.730187 181.482913 147.972718 192.497733 
L 182.23293 163.750004 
C 177.611665 158.242594 174.385812 151.701212 172.829739 144.682217 
C 171.273665 137.663222 171.432773 130.371413 173.293531 123.426973 
C 175.154288 116.482533 178.662401 110.088088 183.519498 104.787496 
C 188.376596 99.486905 194.440957 95.434829 201.196795 92.975905 
C 207.952633 90.516981 215.202828 89.722956 222.330734 90.661363 
C 229.458641 91.599769 236.256282 94.243228 242.145504 98.366906 
C 248.034727 102.490584 252.843695 107.974161 256.163396 114.351248 
C 259.483098 120.728335 261.216671 127.812862 261.216671 135.002275 
L 305.940199 135.002275 
z
" style="fill:#ffff00;"/>
   </g>
   <g id="patch_8">
    <path d="M 145.282441 207.755049 
C 148.629513 211.743934 152.318517 215.432939 156.307402 218.78001 
C 160.296286 222.127082 164.569836 225.119454 169.079333 227.723014 
L 191.441099 188.991303 
C 189.18635 187.689523 187.049576 186.193337 185.055133 184.519801 
C 183.060691 182.846265 181.216189 181.001762 179.542653 179.00732 
L 145.282441 207.755049 
z
" style="fill:#008000;"/>
   </g>
   <g id="patch_9">
    <path d="M 171.76961 229.276246 
C 176.279107 231.879805 181.007351 234.084622 185.900443 235.865562 
C 190.793534 237.646502 195.832808 238.996772 200.96082 239.900979 
L 208.72698 195.856901 
C 206.162975 195.404797 203.643338 194.729663 201.196792 193.839193 
C 198.750246 192.948723 196.386124 191.846314 194.131375 190.544535 
L 171.76961 229.276246 
z
" style="fill:#ffa500;"/>
   </g>
   <g id="patch_10">
    <path d="M 205.573321 240.30452 
C 215.848791 242.116363 226.362488 242.116364 236.637958 240.304521 
C 246.913429 238.492679 256.793072 234.896783 265.829169 229.679791 
L 243.467406 190.948078 
C 238.949357 193.556574 234.009536 195.354522 228.871801 196.260443 
C 223.734065 197.166364 218.477217 197.166364 213.339482 196.260443 
L 205.573321 240.30452 
z
" style="fill:#ff00ff;"/>
   </g>
   <g id="patch_11">
    <path d="M 272.02228 225.343328 
C 285.618939 217.493294 296.912142 206.200091 304.762177 192.603432 
C 312.612212 179.006773 316.745811 163.579972 316.745811 147.879902 
L 272.022282 147.879902 
C 272.022282 155.729937 269.955483 163.443338 266.030465 170.241667 
C 262.105448 177.039997 256.458846 182.686598 249.660517 186.611615 
L 272.02228 225.343328 
z
" style="fill:#ff0000;"/>
   </g>
   <g id="matplotlib.axis_1"/>
   <g id="matplotlib.axis_2"/>
   <g id="text_1">
    <!-- Доброта и честность -->
    <g transform="translate(72.209929 45.388792)scale(0.1 -0.1)">
     <defs>
      <path d="M 22.796875 8.296875 
L 55.03125 8.296875 
L 55.03125 64.59375 
L 31.34375 64.59375 
L 31.34375 54.25 
Q 31.34375 29.890625 25.875 13.71875 
Q 24.75 10.40625 22.796875 8.296875 
z
M 8.40625 8.296875 
Q 14.9375 11.375 16.796875 17.234375 
Q 21.53125 32.28125 21.53125 59.125 
L 21.53125 72.90625 
L 64.890625 72.90625 
L 64.890625 8.296875 
L 73.1875 8.296875 
L 73.1875 -15.671875 
L 64.890625 -15.671875 
L 64.890625 0 
L 13.234375 0 
L 13.234375 -15.671875 
L 4.9375 -15.671875 
L 4.9375 8.296875 
z
" id="DejaVuSans-1044"/>
      <path d="M 30.609375 48.390625 
Q 23.390625 48.390625 19.1875 42.75 
Q 14.984375 37.109375 14.984375 27.296875 
Q 14.984375 17.484375 19.15625 11.84375 
Q 23.34375 6.203125 30.609375 6.203125 
Q 37.796875 6.203125 41.984375 11.859375 
Q 46.1875 17.53125 46.1875 27.296875 
Q 46.1875 37.015625 41.984375 42.703125 
Q 37.796875 48.390625 30.609375 48.390625 
z
M 30.609375 56 
Q 42.328125 56 49.015625 48.375 
Q 55.71875 40.765625 55.71875 27.296875 
Q 55.71875 13.875 49.015625 6.21875 
Q 42.328125 -1.421875 30.609375 -1.421875 
Q 18.84375 -1.421875 12.171875 6.21875 
Q 5.515625 13.875 5.515625 27.296875 
Q 5.515625 40.765625 12.171875 48.375 
Q 18.84375 56 30.609375 56 
z
" id="DejaVuSans-1086"/>
      <path d="M 31.109375 56 
Q 42.828125 56 49.515625 48.375 
Q 56.203125 40.765625 56.203125 27.296875 
Q 56.203125 13.875 49.515625 6.21875 
Q 42.828125 -1.421875 31.109375 -1.421875 
Q 19.34375 -1.421875 12.84375 6 
Q 6.34375 13.421875 6 27.296875 
L 5.71875 38.484375 
Q 5.46875 44.28125 5.46875 46.296875 
Q 5.46875 54.109375 8.296875 59.859375 
Q 12.75 68.890625 20.4375 72.796875 
Q 28.125 76.703125 41.015625 76.8125 
Q 46.96875 76.859375 49.609375 77.6875 
L 52.09375 70.5625 
Q 49.703125 69.578125 47.515625 69.53125 
L 35.296875 68.703125 
Q 29.15625 68.265625 25.4375 66.109375 
Q 15.71875 60.40625 14.796875 52.9375 
L 14.453125 50.203125 
Q 20.796875 56 31.109375 56 
z
M 31.109375 48.390625 
Q 23.875 48.390625 19.671875 42.75 
Q 15.484375 37.109375 15.484375 27.296875 
Q 15.484375 17.484375 19.65625 11.84375 
Q 23.828125 6.203125 31.109375 6.203125 
Q 38.28125 6.203125 42.484375 11.859375 
Q 46.6875 17.53125 46.6875 27.296875 
Q 46.6875 37.015625 42.484375 42.703125 
Q 38.28125 48.390625 31.109375 48.390625 
z
" id="DejaVuSans-1073"/>
      <path d="M 18.109375 8.203125 
L 18.109375 -20.796875 
L 9.078125 -20.796875 
L 9.078125 54.6875 
L 18.109375 54.6875 
L 18.109375 46.390625 
Q 20.953125 51.265625 25.265625 53.625 
Q 29.59375 56 35.59375 56 
Q 45.5625 56 51.78125 48.09375 
Q 58.015625 40.1875 58.015625 27.296875 
Q 58.015625 14.40625 51.78125 6.484375 
Q 45.5625 -1.421875 35.59375 -1.421875 
Q 29.59375 -1.421875 25.265625 0.953125 
Q 20.953125 3.328125 18.109375 8.203125 
z
M 48.6875 27.296875 
Q 48.6875 37.203125 44.609375 42.84375 
Q 40.53125 48.484375 33.40625 48.484375 
Q 26.265625 48.484375 22.1875 42.84375 
Q 18.109375 37.203125 18.109375 27.296875 
Q 18.109375 17.390625 22.1875 11.75 
Q 26.265625 6.109375 33.40625 6.109375 
Q 40.53125 6.109375 44.609375 11.75 
Q 48.6875 17.390625 48.6875 27.296875 
z
" id="DejaVuSans-1088"/>
      <path d="M 2.9375 54.6875 
L 55.328125 54.6875 
L 55.328125 47.515625 
L 33.546875 47.515625 
L 33.546875 0 
L 24.703125 0 
L 24.703125 47.515625 
L 2.9375 47.515625 
z
" id="DejaVuSans-1090"/>
      <path d="M 34.28125 27.484375 
Q 23.390625 27.484375 19.1875 25 
Q 14.984375 22.515625 14.984375 16.5 
Q 14.984375 11.71875 18.140625 8.90625 
Q 21.296875 6.109375 26.703125 6.109375 
Q 34.1875 6.109375 38.703125 11.40625 
Q 43.21875 16.703125 43.21875 25.484375 
L 43.21875 27.484375 
z
M 52.203125 31.203125 
L 52.203125 0 
L 43.21875 0 
L 43.21875 8.296875 
Q 40.140625 3.328125 35.546875 0.953125 
Q 30.953125 -1.421875 24.3125 -1.421875 
Q 15.921875 -1.421875 10.953125 3.296875 
Q 6 8.015625 6 15.921875 
Q 6 25.140625 12.171875 29.828125 
Q 18.359375 34.515625 30.609375 34.515625 
L 43.21875 34.515625 
L 43.21875 35.40625 
Q 43.21875 41.609375 39.140625 45 
Q 35.0625 48.390625 27.6875 48.390625 
Q 23 48.390625 18.546875 47.265625 
Q 14.109375 46.140625 10.015625 43.890625 
L 10.015625 52.203125 
Q 14.9375 54.109375 19.578125 55.046875 
Q 24.21875 56 28.609375 56 
Q 40.484375 56 46.34375 49.84375 
Q 52.203125 43.703125 52.203125 31.203125 
z
" id="DejaVuSans-1072"/>
      <path id="DejaVuSans-32"/>
      <path d="M 55.90625 54.6875 
L 55.90625 0 
L 46.96875 0 
L 46.96875 43.890625 
L 20.609375 0 
L 9.078125 0 
L 9.078125 54.6875 
L 18.015625 54.6875 
L 18.015625 10.890625 
L 44.34375 54.6875 
z
" id="DejaVuSans-1080"/>
      <path d="M 41.015625 0 
L 41.015625 23 
L 24.265625 23 
Q 16.796875 23 11.8125 27.640625 
Q 7.328125 31.84375 7.328125 40.828125 
L 7.328125 54.6875 
L 16.3125 54.6875 
L 16.3125 41.65625 
Q 16.3125 35.9375 18.84375 33.0625 
Q 21.4375 30.171875 26.515625 30.171875 
L 41.015625 30.171875 
L 41.015625 54.6875 
L 50 54.6875 
L 50 0 
z
" id="DejaVuSans-1095"/>
      <path d="M 56.203125 29.59375 
L 56.203125 25.203125 
L 14.890625 25.203125 
Q 15.484375 15.921875 20.484375 11.0625 
Q 25.484375 6.203125 34.421875 6.203125 
Q 39.59375 6.203125 44.453125 7.46875 
Q 49.3125 8.734375 54.109375 11.28125 
L 54.109375 2.78125 
Q 49.265625 0.734375 44.1875 -0.34375 
Q 39.109375 -1.421875 33.890625 -1.421875 
Q 20.796875 -1.421875 13.15625 6.1875 
Q 5.515625 13.8125 5.515625 26.8125 
Q 5.515625 40.234375 12.765625 48.109375 
Q 20.015625 56 32.328125 56 
Q 43.359375 56 49.78125 48.890625 
Q 56.203125 41.796875 56.203125 29.59375 
z
M 47.21875 32.234375 
Q 47.125 39.59375 43.09375 43.984375 
Q 39.0625 48.390625 32.421875 48.390625 
Q 24.90625 48.390625 20.390625 44.140625 
Q 15.875 39.890625 15.1875 32.171875 
z
" id="DejaVuSans-1077"/>
      <path d="M 48.78125 52.59375 
L 48.78125 44.1875 
Q 44.96875 46.296875 41.140625 47.34375 
Q 37.3125 48.390625 33.40625 48.390625 
Q 24.65625 48.390625 19.8125 42.84375 
Q 14.984375 37.3125 14.984375 27.296875 
Q 14.984375 17.28125 19.8125 11.734375 
Q 24.65625 6.203125 33.40625 6.203125 
Q 37.3125 6.203125 41.140625 7.25 
Q 44.96875 8.296875 48.78125 10.40625 
L 48.78125 2.09375 
Q 45.015625 0.34375 40.984375 -0.53125 
Q 36.96875 -1.421875 32.421875 -1.421875 
Q 20.0625 -1.421875 12.78125 6.34375 
Q 5.515625 14.109375 5.515625 27.296875 
Q 5.515625 40.671875 12.859375 48.328125 
Q 20.21875 56 33.015625 56 
Q 37.15625 56 41.109375 55.140625 
Q 45.0625 54.296875 48.78125 52.59375 
z
" id="DejaVuSans-1089"/>
      <path d="M 9.078125 54.6875 
L 18.109375 54.6875 
L 18.109375 32.375 
L 47.265625 32.375 
L 47.265625 54.6875 
L 56.296875 54.6875 
L 56.296875 0 
L 47.265625 0 
L 47.265625 25.203125 
L 18.109375 25.203125 
L 18.109375 0 
L 9.078125 0 
z
" id="DejaVuSans-1085"/>
      <path d="M 43.453125 16.21875 
Q 43.453125 20.609375 40.25 22.90625 
Q 37.0625 25.203125 30.90625 25.203125 
L 18.109375 25.203125 
L 18.109375 7.171875 
L 30.90625 7.171875 
Q 37.0625 7.171875 40.25 9.484375 
Q 43.453125 11.8125 43.453125 16.21875 
z
M 9.078125 54.6875 
L 18.109375 54.6875 
L 18.109375 32.375 
L 31.296875 32.375 
Q 41.75 32.375 47.390625 28.390625 
Q 53.03125 24.421875 53.03125 16.21875 
Q 53.03125 8.015625 47.390625 4 
Q 41.75 0 31.296875 0 
L 9.078125 0 
z
" id="DejaVuSans-1100"/>
     </defs>
     <use xlink:href="#DejaVuSans-1044"/>
     <use x="78.125" xlink:href="#DejaVuSans-1086"/>
     <use x="139.306641" xlink:href="#DejaVuSans-1073"/>
     <use x="200.976562" xlink:href="#DejaVuSans-1088"/>
     <use x="264.453125" xlink:href="#DejaVuSans-1086"/>
     <use x="325.634766" xlink:href="#DejaVuSans-1090"/>
     <use x="383.886719" xlink:href="#DejaVuSans-1072"/>
     <use x="445.166016" xlink:href="#DejaVuSans-32"/>
     <use x="476.953125" xlink:href="#DejaVuSans-1080"/>
     <use x="541.943359" xlink:href="#DejaVuSans-32"/>
     <use x="573.730469" xlink:href="#DejaVuSans-1095"/>
     <use x="632.8125" xlink:href="#DejaVuSans-1077"/>
     <use x="694.335938" xlink:href="#DejaVuSans-1089"/>
     <use x="749.316406" xlink:href="#DejaVuSans-1090"/>
     <use x="807.568359" xlink:href="#DejaVuSans-1085"/>
     <use x="872.949219" xlink:href="#DejaVuSans-1086"/>
     <use x="934.130859" xlink:href="#DejaVuSans-1089"/>
     <use x="989.111328" xlink:href="#DejaVuSans-1090"/>
     <use x="1047.363281" xlink:href="#DejaVuSans-1100"/>
    </g>
   </g>
   <g id="text_2">
    <!-- 61.1% -->
    <g transform="translate(182.253932 87.330006)scale(0.1 -0.1)">
     <defs>
      <path d="M 33.015625 40.375 
Q 26.375 40.375 22.484375 35.828125 
Q 18.609375 31.296875 18.609375 23.390625 
Q 18.609375 15.53125 22.484375 10.953125 
Q 26.375 6.390625 33.015625 6.390625 
Q 39.65625 6.390625 43.53125 10.953125 
Q 47.40625 15.53125 47.40625 23.390625 
Q 47.40625 31.296875 43.53125 35.828125 
Q 39.65625 40.375 33.015625 40.375 
z
M 52.59375 71.296875 
L 52.59375 62.3125 
Q 48.875 64.0625 45.09375 64.984375 
Q 41.3125 65.921875 37.59375 65.921875 
Q 27.828125 65.921875 22.671875 59.328125 
Q 17.53125 52.734375 16.796875 39.40625 
Q 19.671875 43.65625 24.015625 45.921875 
Q 28.375 48.1875 33.59375 48.1875 
Q 44.578125 48.1875 50.953125 41.515625 
Q 57.328125 34.859375 57.328125 23.390625 
Q 57.328125 12.15625 50.6875 5.359375 
Q 44.046875 -1.421875 33.015625 -1.421875 
Q 20.359375 -1.421875 13.671875 8.265625 
Q 6.984375 17.96875 6.984375 36.375 
Q 6.984375 53.65625 15.1875 63.9375 
Q 23.390625 74.21875 37.203125 74.21875 
Q 40.921875 74.21875 44.703125 73.484375 
Q 48.484375 72.75 52.59375 71.296875 
z
" id="DejaVuSans-54"/>
      <path d="M 12.40625 8.296875 
L 28.515625 8.296875 
L 28.515625 63.921875 
L 10.984375 60.40625 
L 10.984375 69.390625 
L 28.421875 72.90625 
L 38.28125 72.90625 
L 38.28125 8.296875 
L 54.390625 8.296875 
L 54.390625 0 
L 12.40625 0 
z
" id="DejaVuSans-49"/>
      <path d="M 10.6875 12.40625 
L 21 12.40625 
L 21 0 
L 10.6875 0 
z
" id="DejaVuSans-46"/>
      <path d="M 72.703125 32.078125 
Q 68.453125 32.078125 66.03125 28.46875 
Q 63.625 24.859375 63.625 18.40625 
Q 63.625 12.0625 66.03125 8.421875 
Q 68.453125 4.78125 72.703125 4.78125 
Q 76.859375 4.78125 79.265625 8.421875 
Q 81.6875 12.0625 81.6875 18.40625 
Q 81.6875 24.8125 79.265625 28.4375 
Q 76.859375 32.078125 72.703125 32.078125 
z
M 72.703125 38.28125 
Q 80.421875 38.28125 84.953125 32.90625 
Q 89.5 27.546875 89.5 18.40625 
Q 89.5 9.28125 84.9375 3.921875 
Q 80.375 -1.421875 72.703125 -1.421875 
Q 64.890625 -1.421875 60.34375 3.921875 
Q 55.8125 9.28125 55.8125 18.40625 
Q 55.8125 27.59375 60.375 32.9375 
Q 64.9375 38.28125 72.703125 38.28125 
z
M 22.3125 68.015625 
Q 18.109375 68.015625 15.6875 64.375 
Q 13.28125 60.75 13.28125 54.390625 
Q 13.28125 47.953125 15.671875 44.328125 
Q 18.0625 40.71875 22.3125 40.71875 
Q 26.5625 40.71875 28.96875 44.328125 
Q 31.390625 47.953125 31.390625 54.390625 
Q 31.390625 60.6875 28.953125 64.34375 
Q 26.515625 68.015625 22.3125 68.015625 
z
M 66.40625 74.21875 
L 74.21875 74.21875 
L 28.609375 -1.421875 
L 20.796875 -1.421875 
z
M 22.3125 74.21875 
Q 30.03125 74.21875 34.609375 68.875 
Q 39.203125 63.53125 39.203125 54.390625 
Q 39.203125 45.171875 34.640625 39.84375 
Q 30.078125 34.515625 22.3125 34.515625 
Q 14.546875 34.515625 10.03125 39.859375 
Q 5.515625 45.21875 5.515625 54.390625 
Q 5.515625 63.484375 10.046875 68.84375 
Q 14.59375 74.21875 22.3125 74.21875 
z
" id="DejaVuSans-37"/>
     </defs>
     <use xlink:href="#DejaVuSans-54"/>
     <use x="63.623047" xlink:href="#DejaVuSans-49"/>
     <use x="127.246094" xlink:href="#DejaVuSans-46"/>
     <use x="159.033203" xlink:href="#DejaVuSans-49"/>
     <use x="222.65625" xlink:href="#DejaVuSans-37"/>
    </g>
   </g>
   <g id="text_3">
    <!-- Красота и здоровье -->
    <g transform="translate(45.79848 228.391427)scale(0.1 -0.1)">
     <defs>
      <path d="M 9.8125 72.90625 
L 19.671875 72.90625 
L 19.671875 36.859375 
L 54.9375 72.90625 
L 67.578125 72.90625 
L 39.40625 44.09375 
L 69.046875 0 
L 58.296875 0 
L 33.015625 37.546875 
L 19.671875 23.921875 
L 19.671875 0 
L 9.8125 0 
z
" id="DejaVuSans-1050"/>
      <path d="M 34.46875 29.5 
Q 40.53125 28.328125 43.890625 24.75 
Q 47.265625 21.1875 47.265625 15.921875 
Q 47.265625 7.46875 40.96875 3.015625 
Q 34.671875 -1.421875 23.046875 -1.421875 
Q 19.140625 -1.421875 15.015625 -0.734375 
Q 10.890625 -0.046875 6.5 1.3125 
L 6.5 9.671875 
Q 9.96875 7.859375 14.109375 6.953125 
Q 18.265625 6.0625 22.796875 6.0625 
Q 30.171875 6.0625 34.296875 8.796875 
Q 38.421875 11.53125 38.421875 15.921875 
Q 38.421875 20.21875 34.765625 22.828125 
Q 31.109375 25.4375 24.421875 25.4375 
L 17.1875 25.4375 
L 17.1875 32.859375 
L 24.75 32.859375 
Q 30.421875 32.859375 33.71875 35.03125 
Q 37.015625 37.203125 37.015625 40.625 
Q 37.015625 43.75 33.609375 46 
Q 30.21875 48.25 24.421875 48.25 
Q 20.953125 48.25 17.015625 47.609375 
Q 13.09375 46.96875 8.34375 45.5625 
L 8.34375 53.71875 
Q 13.140625 54.890625 17.28125 55.46875 
Q 21.4375 56.0625 25.140625 56.0625 
Q 34.71875 56.0625 40.25 52.21875 
Q 45.796875 48.390625 45.796875 41.5 
Q 45.796875 36.96875 42.859375 33.8125 
Q 39.9375 30.671875 34.46875 29.5 
z
" id="DejaVuSans-1079"/>
      <path d="M 21.625 7.171875 
L 47.703125 7.171875 
L 47.703125 47.515625 
L 28.8125 47.515625 
L 28.8125 40.671875 
Q 28.8125 20.5625 23.046875 9.8125 
z
M 8.59375 7.171875 
Q 13.03125 9.125 14.984375 13.28125 
Q 19.78125 23.578125 19.78125 44.34375 
L 19.78125 54.6875 
L 56.734375 54.6875 
L 56.734375 7.171875 
L 63.921875 7.171875 
L 63.921875 -13.8125 
L 56.734375 -13.8125 
L 56.734375 0 
L 12.40625 0 
L 12.40625 -13.8125 
L 5.21875 -13.8125 
L 5.21875 7.171875 
z
" id="DejaVuSans-1076"/>
      <path d="M 18.0625 25.203125 
L 18.0625 7.171875 
L 30.859375 7.171875 
Q 37.015625 7.171875 40.234375 9.484375 
Q 43.453125 11.8125 43.453125 16.21875 
Q 43.453125 20.609375 40.234375 22.90625 
Q 37.015625 25.203125 30.859375 25.203125 
z
M 18.0625 47.515625 
L 18.0625 32.375 
L 29.890625 32.375 
Q 34.96875 32.375 38.1875 34.390625 
Q 41.40625 36.421875 41.40625 40.046875 
Q 41.40625 43.65625 38.1875 45.578125 
Q 34.96875 47.515625 29.890625 47.515625 
z
M 9.078125 54.6875 
L 30.46875 54.6875 
Q 40.09375 54.6875 45.265625 51.171875 
Q 50.4375 47.65625 50.4375 41.15625 
Q 50.4375 36.140625 47.796875 33.171875 
Q 45.171875 30.21875 39.984375 29.5 
Q 46.1875 28.328125 49.609375 24.609375 
Q 53.03125 20.90625 53.03125 15.328125 
Q 53.03125 8.015625 47.390625 4 
Q 41.75 0 31.296875 0 
L 9.078125 0 
z
" id="DejaVuSans-1074"/>
     </defs>
     <use xlink:href="#DejaVuSans-1050"/>
     <use x="70.996094" xlink:href="#DejaVuSans-1088"/>
     <use x="134.472656" xlink:href="#DejaVuSans-1072"/>
     <use x="195.751953" xlink:href="#DejaVuSans-1089"/>
     <use x="250.732422" xlink:href="#DejaVuSans-1086"/>
     <use x="311.914062" xlink:href="#DejaVuSans-1090"/>
     <use x="370.166016" xlink:href="#DejaVuSans-1072"/>
     <use x="431.445312" xlink:href="#DejaVuSans-32"/>
     <use x="463.232422" xlink:href="#DejaVuSans-1080"/>
     <use x="528.222656" xlink:href="#DejaVuSans-32"/>
     <use x="560.009766" xlink:href="#DejaVuSans-1079"/>
     <use x="613.183594" xlink:href="#DejaVuSans-1076"/>
     <use x="682.324219" xlink:href="#DejaVuSans-1086"/>
     <use x="743.505859" xlink:href="#DejaVuSans-1088"/>
     <use x="806.982422" xlink:href="#DejaVuSans-1086"/>
     <use x="868.164062" xlink:href="#DejaVuSans-1074"/>
     <use x="927.099609" xlink:href="#DejaVuSans-1100"/>
     <use x="986.035156" xlink:href="#DejaVuSans-1077"/>
    </g>
   </g>
   <g id="text_4">
    <!-- 5.6% -->
    <g transform="translate(166.603243 194.131218)scale(0.1 -0.1)">
     <defs>
      <path d="M 10.796875 72.90625 
L 49.515625 72.90625 
L 49.515625 64.59375 
L 19.828125 64.59375 
L 19.828125 46.734375 
Q 21.96875 47.46875 24.109375 47.828125 
Q 26.265625 48.1875 28.421875 48.1875 
Q 40.625 48.1875 47.75 41.5 
Q 54.890625 34.8125 54.890625 23.390625 
Q 54.890625 11.625 47.5625 5.09375 
Q 40.234375 -1.421875 26.90625 -1.421875 
Q 22.3125 -1.421875 17.546875 -0.640625 
Q 12.796875 0.140625 7.71875 1.703125 
L 7.71875 11.625 
Q 12.109375 9.234375 16.796875 8.0625 
Q 21.484375 6.890625 26.703125 6.890625 
Q 35.15625 6.890625 40.078125 11.328125 
Q 45.015625 15.765625 45.015625 23.390625 
Q 45.015625 31 40.078125 35.4375 
Q 35.15625 39.890625 26.703125 39.890625 
Q 22.75 39.890625 18.8125 39.015625 
Q 14.890625 38.140625 10.796875 36.28125 
z
" id="DejaVuSans-53"/>
     </defs>
     <use xlink:href="#DejaVuSans-53"/>
     <use x="63.623047" xlink:href="#DejaVuSans-46"/>
     <use x="95.410156" xlink:href="#DejaVuSans-54"/>
     <use x="159.033203" xlink:href="#DejaVuSans-37"/>
    </g>
   </g>
   <g id="text_5">
    <!-- Власть и богатство -->
    <g transform="translate(80.55836 247.030211)scale(0.1 -0.1)">
     <defs>
      <path d="M 19.671875 34.8125 
L 19.671875 8.109375 
L 35.5 8.109375 
Q 43.453125 8.109375 47.28125 11.40625 
Q 51.125 14.703125 51.125 21.484375 
Q 51.125 28.328125 47.28125 31.5625 
Q 43.453125 34.8125 35.5 34.8125 
z
M 19.671875 64.796875 
L 19.671875 42.828125 
L 34.28125 42.828125 
Q 41.5 42.828125 45.03125 45.53125 
Q 48.578125 48.25 48.578125 53.8125 
Q 48.578125 59.328125 45.03125 62.0625 
Q 41.5 64.796875 34.28125 64.796875 
z
M 9.8125 72.90625 
L 35.015625 72.90625 
Q 46.296875 72.90625 52.390625 68.21875 
Q 58.5 63.53125 58.5 54.890625 
Q 58.5 48.1875 55.375 44.234375 
Q 52.25 40.28125 46.1875 39.3125 
Q 53.46875 37.75 57.5 32.78125 
Q 61.53125 27.828125 61.53125 20.40625 
Q 61.53125 10.640625 54.890625 5.3125 
Q 48.25 0 35.984375 0 
L 9.8125 0 
z
" id="DejaVuSans-1042"/>
      <path d="M 3.71875 0 
L 3.71875 7.46875 
Q 12.59375 8.84375 15.328125 14.984375 
Q 18.65625 23.640625 18.65625 45.75 
L 18.65625 54.6875 
L 55.609375 54.6875 
L 55.609375 0 
L 46.625 0 
L 46.625 47.515625 
L 27.640625 47.515625 
L 27.640625 42.09375 
Q 27.640625 21 23.34375 11.53125 
Q 18.75 1.421875 3.71875 0 
z
" id="DejaVuSans-1083"/>
      <path d="M 9.078125 0 
L 9.078125 54.6875 
L 47.65625 54.6875 
L 47.65625 47.515625 
L 18.109375 47.515625 
L 18.109375 0 
z
" id="DejaVuSans-1075"/>
     </defs>
     <use xlink:href="#DejaVuSans-1042"/>
     <use x="68.603516" xlink:href="#DejaVuSans-1083"/>
     <use x="132.519531" xlink:href="#DejaVuSans-1072"/>
     <use x="193.798828" xlink:href="#DejaVuSans-1089"/>
     <use x="248.779297" xlink:href="#DejaVuSans-1090"/>
     <use x="307.03125" xlink:href="#DejaVuSans-1100"/>
     <use x="365.966797" xlink:href="#DejaVuSans-32"/>
     <use x="397.753906" xlink:href="#DejaVuSans-1080"/>
     <use x="462.744141" xlink:href="#DejaVuSans-32"/>
     <use x="494.53125" xlink:href="#DejaVuSans-1073"/>
     <use x="556.201172" xlink:href="#DejaVuSans-1086"/>
     <use x="617.382812" xlink:href="#DejaVuSans-1075"/>
     <use x="669.921875" xlink:href="#DejaVuSans-1072"/>
     <use x="731.201172" xlink:href="#DejaVuSans-1090"/>
     <use x="789.453125" xlink:href="#DejaVuSans-1089"/>
     <use x="844.433594" xlink:href="#DejaVuSans-1090"/>
     <use x="902.685547" xlink:href="#DejaVuSans-1074"/>
     <use x="961.621094" xlink:href="#DejaVuSans-1086"/>
    </g>
   </g>
   <g id="text_6">
    <!-- 5.6% -->
    <g transform="translate(185.435178 205.003842)scale(0.1 -0.1)">
     <use xlink:href="#DejaVuSans-53"/>
     <use x="63.623047" xlink:href="#DejaVuSans-46"/>
     <use x="95.410156" xlink:href="#DejaVuSans-54"/>
     <use x="159.033203" xlink:href="#DejaVuSans-37"/>
    </g>
   </g>
   <g id="text_7">
    <!-- Смелость и упорство -->
    <g transform="translate(238.19119 251.872712)scale(0.1 -0.1)">
     <defs>
      <path d="M 64.40625 67.28125 
L 64.40625 56.890625 
Q 59.421875 61.53125 53.78125 63.8125 
Q 48.140625 66.109375 41.796875 66.109375 
Q 29.296875 66.109375 22.65625 58.46875 
Q 16.015625 50.828125 16.015625 36.375 
Q 16.015625 21.96875 22.65625 14.328125 
Q 29.296875 6.6875 41.796875 6.6875 
Q 48.140625 6.6875 53.78125 8.984375 
Q 59.421875 11.28125 64.40625 15.921875 
L 64.40625 5.609375 
Q 59.234375 2.09375 53.4375 0.328125 
Q 47.65625 -1.421875 41.21875 -1.421875 
Q 24.65625 -1.421875 15.125 8.703125 
Q 5.609375 18.84375 5.609375 36.375 
Q 5.609375 53.953125 15.125 64.078125 
Q 24.65625 74.21875 41.21875 74.21875 
Q 47.75 74.21875 53.53125 72.484375 
Q 59.328125 70.75 64.40625 67.28125 
z
" id="DejaVuSans-1057"/>
      <path d="M 9.078125 54.6875 
L 22.21875 54.6875 
L 37.75 18.0625 
L 53.328125 54.6875 
L 66.359375 54.6875 
L 66.359375 0 
L 57.328125 0 
L 57.328125 46.09375 
L 42.234375 10.5 
L 33.25 10.5 
L 18.109375 46.09375 
L 18.109375 0 
L 9.078125 0 
z
" id="DejaVuSans-1084"/>
      <path d="M 32.171875 -5.078125 
Q 28.375 -14.84375 24.75 -17.8125 
Q 21.140625 -20.796875 15.09375 -20.796875 
L 7.90625 -20.796875 
L 7.90625 -13.28125 
L 13.1875 -13.28125 
Q 16.890625 -13.28125 18.9375 -11.515625 
Q 21 -9.765625 23.484375 -3.21875 
L 25.09375 0.875 
L 2.984375 54.6875 
L 12.5 54.6875 
L 29.59375 11.921875 
L 46.6875 54.6875 
L 56.203125 54.6875 
z
" id="DejaVuSans-1091"/>
      <path d="M 56.296875 54.6875 
L 56.296875 0 
L 47.265625 0 
L 47.265625 47.515625 
L 18.109375 47.515625 
L 18.109375 0 
L 9.078125 0 
L 9.078125 54.6875 
z
" id="DejaVuSans-1087"/>
     </defs>
     <use xlink:href="#DejaVuSans-1057"/>
     <use x="69.824219" xlink:href="#DejaVuSans-1084"/>
     <use x="145.263672" xlink:href="#DejaVuSans-1077"/>
     <use x="206.787109" xlink:href="#DejaVuSans-1083"/>
     <use x="270.703125" xlink:href="#DejaVuSans-1086"/>
     <use x="331.884766" xlink:href="#DejaVuSans-1089"/>
     <use x="386.865234" xlink:href="#DejaVuSans-1090"/>
     <use x="445.117188" xlink:href="#DejaVuSans-1100"/>
     <use x="504.052734" xlink:href="#DejaVuSans-32"/>
     <use x="535.839844" xlink:href="#DejaVuSans-1080"/>
     <use x="600.830078" xlink:href="#DejaVuSans-32"/>
     <use x="632.617188" xlink:href="#DejaVuSans-1091"/>
     <use x="691.796875" xlink:href="#DejaVuSans-1087"/>
     <use x="757.177734" xlink:href="#DejaVuSans-1086"/>
     <use x="818.359375" xlink:href="#DejaVuSans-1088"/>
     <use x="881.835938" xlink:href="#DejaVuSans-1089"/>
     <use x="936.816406" xlink:href="#DejaVuSans-1090"/>
     <use x="995.068359" xlink:href="#DejaVuSans-1074"/>
     <use x="1054.003906" xlink:href="#DejaVuSans-1086"/>
    </g>
   </g>
   <g id="text_8">
    <!-- 11.1% -->
    <g transform="translate(214.541438 207.828634)scale(0.1 -0.1)">
     <use xlink:href="#DejaVuSans-49"/>
     <use x="63.623047" xlink:href="#DejaVuSans-49"/>
     <use x="127.246094" xlink:href="#DejaVuSans-46"/>
     <use x="159.033203" xlink:href="#DejaVuSans-49"/>
     <use x="222.65625" xlink:href="#DejaVuSans-37"/>
    </g>
   </g>
   <g id="text_9">
    <!-- Юмор и жизнелюбие -->
    <g transform="translate(312.508519 199.920317)scale(0.1 -0.1)">
     <defs>
      <path d="M 68.65625 66.21875 
Q 57.90625 66.21875 51.5625 58.203125 
Q 45.265625 50.203125 45.265625 36.375 
Q 45.265625 22.609375 51.5625 14.59375 
Q 57.90625 6.59375 68.65625 6.59375 
Q 79.390625 6.59375 85.640625 14.59375 
Q 91.9375 22.609375 91.9375 36.375 
Q 91.9375 50.203125 85.640625 58.203125 
Q 79.390625 66.21875 68.65625 66.21875 
z
M 35.015625 40.578125 
Q 35.6875 54.25 44.484375 64.265625 
Q 53.265625 74.21875 68.65625 74.21875 
Q 83.984375 74.21875 93.171875 63.96875 
Q 102.34375 53.65625 102.34375 36.375 
Q 102.34375 19.140625 93.171875 8.890625 
Q 83.984375 -1.421875 68.65625 -1.421875 
Q 53.265625 -1.421875 44.484375 8.59375 
Q 35.6875 18.609375 35.015625 32.28125 
L 20.171875 32.28125 
L 20.171875 0 
L 10.296875 0 
L 10.296875 72.90625 
L 20.171875 72.90625 
L 20.171875 40.578125 
z
" id="DejaVuSans-1070"/>
      <path d="M 40.578125 54.6875 
L 49.515625 54.6875 
L 49.515625 29 
L 73.390625 54.6875 
L 83.84375 54.6875 
L 64.203125 33.640625 
L 86.671875 0 
L 77.046875 0 
L 58.640625 27.640625 
L 49.515625 17.828125 
L 49.515625 0 
L 40.578125 0 
L 40.578125 17.828125 
L 31.453125 27.640625 
L 13.03125 0 
L 3.421875 0 
L 25.875 33.640625 
L 6.25 54.6875 
L 16.703125 54.6875 
L 40.578125 29 
z
" id="DejaVuSans-1078"/>
      <path d="M 53.609375 48.390625 
Q 46.390625 48.390625 42.1875 42.75 
Q 37.984375 37.109375 37.984375 27.296875 
Q 37.984375 17.484375 42.15625 11.84375 
Q 46.34375 6.203125 53.609375 6.203125 
Q 60.796875 6.203125 64.984375 11.859375 
Q 69.1875 17.53125 69.1875 27.296875 
Q 69.1875 37.015625 64.984375 42.703125 
Q 60.796875 48.390625 53.609375 48.390625 
z
M 28.8125 32.859375 
Q 29.734375 42.140625 35.8125 49.0625 
Q 41.890625 56 53.609375 56 
Q 65.328125 56 72.015625 48.375 
Q 78.71875 40.765625 78.71875 27.296875 
Q 78.71875 13.875 72.015625 6.21875 
Q 65.328125 -1.421875 53.609375 -1.421875 
Q 41.84375 -1.421875 35.421875 5.953125 
Q 29 13.328125 28.5625 25.4375 
L 18.40625 25.4375 
L 18.40625 0 
L 9.421875 0 
L 9.421875 54.6875 
L 18.40625 54.6875 
L 18.40625 32.859375 
z
" id="DejaVuSans-1102"/>
     </defs>
     <use xlink:href="#DejaVuSans-1070"/>
     <use x="107.958984" xlink:href="#DejaVuSans-1084"/>
     <use x="183.398438" xlink:href="#DejaVuSans-1086"/>
     <use x="244.580078" xlink:href="#DejaVuSans-1088"/>
     <use x="308.056641" xlink:href="#DejaVuSans-32"/>
     <use x="339.84375" xlink:href="#DejaVuSans-1080"/>
     <use x="404.833984" xlink:href="#DejaVuSans-32"/>
     <use x="436.621094" xlink:href="#DejaVuSans-1078"/>
     <use x="526.708984" xlink:href="#DejaVuSans-1080"/>
     <use x="591.699219" xlink:href="#DejaVuSans-1079"/>
     <use x="644.873047" xlink:href="#DejaVuSans-1085"/>
     <use x="710.253906" xlink:href="#DejaVuSans-1077"/>
     <use x="771.777344" xlink:href="#DejaVuSans-1083"/>
     <use x="835.693359" xlink:href="#DejaVuSans-1102"/>
     <use x="919.873047" xlink:href="#DejaVuSans-1073"/>
     <use x="981.542969" xlink:href="#DejaVuSans-1080"/>
     <use x="1046.533203" xlink:href="#DejaVuSans-1077"/>
    </g>
   </g>
   <g id="text_10">
    <!-- 16.7% -->
    <g transform="translate(257.893214 177.473395)scale(0.1 -0.1)">
     <defs>
      <path d="M 8.203125 72.90625 
L 55.078125 72.90625 
L 55.078125 68.703125 
L 28.609375 0 
L 18.3125 0 
L 43.21875 64.59375 
L 8.203125 64.59375 
z
" id="DejaVuSans-55"/>
     </defs>
     <use xlink:href="#DejaVuSans-49"/>
     <use x="63.623047" xlink:href="#DejaVuSans-54"/>
     <use x="127.246094" xlink:href="#DejaVuSans-46"/>
     <use x="159.033203" xlink:href="#DejaVuSans-55"/>
     <use x="222.65625" xlink:href="#DejaVuSans-37"/>
    </g>
   </g>
  </g>
 </g>
</svg>
