<?xml version="1.0" encoding="utf-8" standalone="no"?>
<!DOCTYPE svg PUBLIC "-//W3C//DTD SVG 1.1//EN"
  "http://www.w3.org/Graphics/SVG/1.1/DTD/svg11.dtd">
<!-- Created with matplotlib (https://matplotlib.org/) -->
<svg height="231.84pt" version="1.1" viewBox="0 0 560.410312 231.84" width="560.410312pt" xmlns="http://www.w3.org/2000/svg" xmlns:xlink="http://www.w3.org/1999/xlink">
 <metadata>
  <rdf:RDF xmlns:cc="http://creativecommons.org/ns#" xmlns:dc="http://purl.org/dc/elements/1.1/" xmlns:rdf="http://www.w3.org/1999/02/22-rdf-syntax-ns#">
   <cc:Work>
    <dc:type rdf:resource="http://purl.org/dc/dcmitype/StillImage"/>
    <dc:date>2020-12-03T00:23:51.972901</dc:date>
    <dc:format>image/svg+xml</dc:format>
    <dc:creator>
     <cc:Agent>
      <dc:title>Matplotlib v3.3.3, https://matplotlib.org/</dc:title>
     </cc:Agent>
    </dc:creator>
   </cc:Work>
  </rdf:RDF>
 </metadata>
 <defs>
  <style type="text/css">*{stroke-linecap:butt;stroke-linejoin:round;}</style>
 </defs>
 <g id="figure_1">
  <g id="patch_1">
   <path d="M 0 231.84 
L 560.410312 231.84 
L 560.410312 0 
L 0 0 
z
" style="fill:none;"/>
  </g>
  <g id="axes_1">
   <g id="patch_2">
    <path d="M 208.152104 112.491397 
C 208.152104 93.890466 202.185033 75.771204 191.13234 60.810167 
C 180.079648 45.849131 164.51375 34.821148 146.734022 29.355259 
L 121.176104 112.491397 
L 208.152104 112.491397 
z
" style="fill:#092436;opacity:0.5;stroke:#092436;stroke-linejoin:miter;"/>
   </g>
   <g id="patch_3">
    <path d="M 138.875129 25.86873 
C 127.818701 22.469735 116.19449 21.310263 104.684508 22.458342 
C 93.174527 23.606421 82.008371 27.039149 71.841179 32.555123 
L 113.31721 109.004867 
L 138.875129 25.86873 
z
" style="fill:#4c2604;opacity:0.5;stroke:#4c2604;stroke-linejoin:miter;"/>
   </g>
   <g id="patch_4">
    <path d="M 66.141548 35.502187 
C 56.996748 40.463485 48.815893 47.025602 41.988564 54.876043 
C 35.161235 62.726484 29.797553 71.738624 26.152943 81.483297 
L 107.617579 111.951931 
L 66.141548 35.502187 
z
" style="fill:#0d300d;opacity:0.5;stroke:#0d300d;stroke-linejoin:miter;"/>
   </g>
   <g id="patch_5">
    <path d="M 24.018244 87.190886 
C 20.373633 96.93556 18.50688 107.255588 18.50688 117.659522 
C 18.50688 128.063456 20.373634 138.383485 24.018245 148.128158 
L 105.48288 117.65952 
L 24.018244 87.190886 
z
" style="fill:#400c0c;opacity:0.5;stroke:#400c0c;stroke-linejoin:miter;"/>
   </g>
   <g id="patch_6">
    <path d="M 25.931219 153.570316 
C 29.169073 162.227435 33.766294 170.313351 39.549591 177.523266 
C 45.332887 184.733182 52.228667 190.975352 59.976996 196.014479 
L 107.395854 123.101679 
L 25.931219 153.570316 
z
" style="fill:#2c1f39;opacity:0.5;stroke:#2c1f39;stroke-linejoin:miter;"/>
   </g>
   <g id="patch_7">
    <path d="M 64.538371 198.980971 
C 72.2867 204.020098 80.78898 207.792061 89.72472 210.154674 
C 98.660461 212.517288 107.915955 213.440489 117.142319 212.889478 
L 111.957229 126.06817 
L 64.538371 198.980971 
z
" style="fill:#2a1a16;opacity:0.5;stroke:#2a1a16;stroke-linejoin:miter;"/>
   </g>
   <g id="patch_8">
    <path d="M 122.249862 212.686259 
C 130.318964 212.204361 138.281633 210.599903 145.907695 207.919265 
C 153.533756 205.238627 160.749016 201.507889 167.344905 196.834894 
L 117.064772 125.864951 
L 122.249862 212.686259 
z
" style="fill:#44243a;opacity:0.5;stroke:#44243a;stroke-linejoin:miter;"/>
   </g>
   <g id="patch_9">
    <path d="M 171.023515 194.337052 
C 176.674723 190.333335 181.827545 185.668918 186.372396 180.442997 
C 190.917246 175.217077 194.821676 169.466965 198.002651 163.314948 
L 120.743381 123.367109 
L 171.023515 194.337052 
z
" style="fill:#262626;opacity:0.5;stroke:#262626;stroke-linejoin:miter;"/>
   </g>
   <g id="patch_10">
    <path d="M 199.890941 159.662989 
C 203.071915 153.510972 205.506723 147.000974 207.143584 140.271442 
C 208.780445 133.541911 209.607671 126.640892 209.607671 119.715149 
L 122.631671 119.715149 
L 199.890941 159.662989 
z
" style="fill:#38390a;opacity:0.5;stroke:#38390a;stroke-linejoin:miter;"/>
   </g>
   <g id="patch_11">
    <path d="M 209.891624 110.751877 
C 209.891624 92.150946 203.924553 74.031684 192.87186 59.070647 
C 181.819168 44.109611 166.25327 33.081628 148.473542 27.615739 
L 122.915624 110.751877 
L 209.891624 110.751877 
z
" style="fill:#1f77b4;"/>
   </g>
   <g id="patch_12">
    <path d="M 140.614649 24.12921 
C 129.558221 20.730215 117.93401 19.570743 106.424028 20.718822 
C 94.914047 21.866901 83.747891 25.299629 73.580699 30.815603 
L 115.05673 107.265347 
L 140.614649 24.12921 
z
" style="fill:#ff7f0e;"/>
   </g>
   <g id="patch_13">
    <path d="M 67.881068 33.762667 
C 58.736268 38.723965 50.555413 45.286082 43.728084 53.136523 
C 36.900755 60.986964 31.537073 69.999104 27.892463 79.743777 
L 109.357099 110.212411 
L 67.881068 33.762667 
z
" style="fill:#2ca02c;"/>
   </g>
   <g id="patch_14">
    <path d="M 25.757764 85.451366 
C 22.113153 95.19604 20.2464 105.516068 20.2464 115.920002 
C 20.2464 126.323936 22.113154 136.643965 25.757765 146.388638 
L 107.2224 115.92 
L 25.757764 85.451366 
z
" style="fill:#d62728;"/>
   </g>
   <g id="patch_15">
    <path d="M 27.670739 151.830796 
C 30.908593 160.487915 35.505814 168.573831 41.289111 175.783746 
C 47.072407 182.993662 53.968187 189.235832 61.716516 194.274959 
L 109.135374 121.362159 
L 27.670739 151.830796 
z
" style="fill:#9467bd;"/>
   </g>
   <g id="patch_16">
    <path d="M 66.277891 197.241451 
C 74.02622 202.280578 82.5285 206.052541 91.46424 208.415154 
C 100.399981 210.777768 109.655475 211.700969 118.881839 211.149958 
L 113.696749 124.32865 
L 66.277891 197.241451 
z
" style="fill:#8c564b;"/>
   </g>
   <g id="patch_17">
    <path d="M 123.989382 210.946739 
C 132.058484 210.464841 140.021153 208.860383 147.647215 206.179745 
C 155.273276 203.499107 162.488536 199.768369 169.084425 195.095374 
L 118.804292 124.125431 
L 123.989382 210.946739 
z
" style="fill:#e377c2;"/>
   </g>
   <g id="patch_18">
    <path d="M 172.763035 192.597532 
C 178.414243 188.593815 183.567065 183.929398 188.111916 178.703477 
C 192.656766 173.477557 196.561196 167.727445 199.742171 161.575428 
L 122.482901 121.627589 
L 172.763035 192.597532 
z
" style="fill:#7f7f7f;"/>
   </g>
   <g id="patch_19">
    <path d="M 201.630461 157.923469 
C 204.811435 151.771452 207.246243 145.261454 208.883104 138.531922 
C 210.519965 131.802391 211.347191 124.901372 211.347191 117.975629 
L 124.371191 117.975629 
L 201.630461 157.923469 
z
" style="fill:#bcbd22;"/>
   </g>
   <g id="matplotlib.axis_1"/>
   <g id="matplotlib.axis_2"/>
   <g id="text_1">
    <!-- 20.3% -->
    <g style="fill:#ffffff;" transform="translate(149.005772 82.502514)scale(0.1 -0.1)">
     <defs>
      <path d="M 19.1875 8.296875 
L 53.609375 8.296875 
L 53.609375 0 
L 7.328125 0 
L 7.328125 8.296875 
Q 12.9375 14.109375 22.625 23.890625 
Q 32.328125 33.6875 34.8125 36.53125 
Q 39.546875 41.84375 41.421875 45.53125 
Q 43.3125 49.21875 43.3125 52.78125 
Q 43.3125 58.59375 39.234375 62.25 
Q 35.15625 65.921875 28.609375 65.921875 
Q 23.96875 65.921875 18.8125 64.3125 
Q 13.671875 62.703125 7.8125 59.421875 
L 7.8125 69.390625 
Q 13.765625 71.78125 18.9375 73 
Q 24.125 74.21875 28.421875 74.21875 
Q 39.75 74.21875 46.484375 68.546875 
Q 53.21875 62.890625 53.21875 53.421875 
Q 53.21875 48.921875 51.53125 44.890625 
Q 49.859375 40.875 45.40625 35.40625 
Q 44.1875 33.984375 37.640625 27.21875 
Q 31.109375 20.453125 19.1875 8.296875 
z
" id="DejaVuSans-50"/>
      <path d="M 31.78125 66.40625 
Q 24.171875 66.40625 20.328125 58.90625 
Q 16.5 51.421875 16.5 36.375 
Q 16.5 21.390625 20.328125 13.890625 
Q 24.171875 6.390625 31.78125 6.390625 
Q 39.453125 6.390625 43.28125 13.890625 
Q 47.125 21.390625 47.125 36.375 
Q 47.125 51.421875 43.28125 58.90625 
Q 39.453125 66.40625 31.78125 66.40625 
z
M 31.78125 74.21875 
Q 44.046875 74.21875 50.515625 64.515625 
Q 56.984375 54.828125 56.984375 36.375 
Q 56.984375 17.96875 50.515625 8.265625 
Q 44.046875 -1.421875 31.78125 -1.421875 
Q 19.53125 -1.421875 13.0625 8.265625 
Q 6.59375 17.96875 6.59375 36.375 
Q 6.59375 54.828125 13.0625 64.515625 
Q 19.53125 74.21875 31.78125 74.21875 
z
" id="DejaVuSans-48"/>
      <path d="M 10.6875 12.40625 
L 21 12.40625 
L 21 0 
L 10.6875 0 
z
" id="DejaVuSans-46"/>
      <path d="M 40.578125 39.3125 
Q 47.65625 37.796875 51.625 33 
Q 55.609375 28.21875 55.609375 21.1875 
Q 55.609375 10.40625 48.1875 4.484375 
Q 40.765625 -1.421875 27.09375 -1.421875 
Q 22.515625 -1.421875 17.65625 -0.515625 
Q 12.796875 0.390625 7.625 2.203125 
L 7.625 11.71875 
Q 11.71875 9.328125 16.59375 8.109375 
Q 21.484375 6.890625 26.8125 6.890625 
Q 36.078125 6.890625 40.9375 10.546875 
Q 45.796875 14.203125 45.796875 21.1875 
Q 45.796875 27.640625 41.28125 31.265625 
Q 36.765625 34.90625 28.71875 34.90625 
L 20.21875 34.90625 
L 20.21875 43.015625 
L 29.109375 43.015625 
Q 36.375 43.015625 40.234375 45.921875 
Q 44.09375 48.828125 44.09375 54.296875 
Q 44.09375 59.90625 40.109375 62.90625 
Q 36.140625 65.921875 28.71875 65.921875 
Q 24.65625 65.921875 20.015625 65.03125 
Q 15.375 64.15625 9.8125 62.3125 
L 9.8125 71.09375 
Q 15.4375 72.65625 20.34375 73.4375 
Q 25.25 74.21875 29.59375 74.21875 
Q 40.828125 74.21875 47.359375 69.109375 
Q 53.90625 64.015625 53.90625 55.328125 
Q 53.90625 49.265625 50.4375 45.09375 
Q 46.96875 40.921875 40.578125 39.3125 
z
" id="DejaVuSans-51"/>
      <path d="M 72.703125 32.078125 
Q 68.453125 32.078125 66.03125 28.46875 
Q 63.625 24.859375 63.625 18.40625 
Q 63.625 12.0625 66.03125 8.421875 
Q 68.453125 4.78125 72.703125 4.78125 
Q 76.859375 4.78125 79.265625 8.421875 
Q 81.6875 12.0625 81.6875 18.40625 
Q 81.6875 24.8125 79.265625 28.4375 
Q 76.859375 32.078125 72.703125 32.078125 
z
M 72.703125 38.28125 
Q 80.421875 38.28125 84.953125 32.90625 
Q 89.5 27.546875 89.5 18.40625 
Q 89.5 9.28125 84.9375 3.921875 
Q 80.375 -1.421875 72.703125 -1.421875 
Q 64.890625 -1.421875 60.34375 3.921875 
Q 55.8125 9.28125 55.8125 18.40625 
Q 55.8125 27.59375 60.375 32.9375 
Q 64.9375 38.28125 72.703125 38.28125 
z
M 22.3125 68.015625 
Q 18.109375 68.015625 15.6875 64.375 
Q 13.28125 60.75 13.28125 54.390625 
Q 13.28125 47.953125 15.671875 44.328125 
Q 18.0625 40.71875 22.3125 40.71875 
Q 26.5625 40.71875 28.96875 44.328125 
Q 31.390625 47.953125 31.390625 54.390625 
Q 31.390625 60.6875 28.953125 64.34375 
Q 26.515625 68.015625 22.3125 68.015625 
z
M 66.40625 74.21875 
L 74.21875 74.21875 
L 28.609375 -1.421875 
L 20.796875 -1.421875 
z
M 22.3125 74.21875 
Q 30.03125 74.21875 34.609375 68.875 
Q 39.203125 63.53125 39.203125 54.390625 
Q 39.203125 45.171875 34.640625 39.84375 
Q 30.078125 34.515625 22.3125 34.515625 
Q 14.546875 34.515625 10.03125 39.859375 
Q 5.515625 45.21875 5.515625 54.390625 
Q 5.515625 63.484375 10.046875 68.84375 
Q 14.59375 74.21875 22.3125 74.21875 
z
" id="DejaVuSans-37"/>
     </defs>
     <use xlink:href="#DejaVuSans-50"/>
     <use x="63.623047" xlink:href="#DejaVuSans-48"/>
     <use x="127.246094" xlink:href="#DejaVuSans-46"/>
     <use x="159.033203" xlink:href="#DejaVuSans-51"/>
     <use x="222.65625" xlink:href="#DejaVuSans-37"/>
    </g>
   </g>
   <g id="text_2">
    <!-- 12.7% -->
    <g style="fill:#ffffff;" transform="translate(93.993515 58.096807)scale(0.1 -0.1)">
     <defs>
      <path d="M 12.40625 8.296875 
L 28.515625 8.296875 
L 28.515625 63.921875 
L 10.984375 60.40625 
L 10.984375 69.390625 
L 28.421875 72.90625 
L 38.28125 72.90625 
L 38.28125 8.296875 
L 54.390625 8.296875 
L 54.390625 0 
L 12.40625 0 
z
" id="DejaVuSans-49"/>
      <path d="M 8.203125 72.90625 
L 55.078125 72.90625 
L 55.078125 68.703125 
L 28.609375 0 
L 18.3125 0 
L 43.21875 64.59375 
L 8.203125 64.59375 
z
" id="DejaVuSans-55"/>
     </defs>
     <use xlink:href="#DejaVuSans-49"/>
     <use x="63.623047" xlink:href="#DejaVuSans-50"/>
     <use x="127.246094" xlink:href="#DejaVuSans-46"/>
     <use x="159.033203" xlink:href="#DejaVuSans-55"/>
     <use x="222.65625" xlink:href="#DejaVuSans-37"/>
    </g>
   </g>
   <g id="text_3">
    <!-- 11.4% -->
    <g style="fill:#ffffff;" transform="translate(54.096096 78.726253)scale(0.1 -0.1)">
     <defs>
      <path d="M 37.796875 64.3125 
L 12.890625 25.390625 
L 37.796875 25.390625 
z
M 35.203125 72.90625 
L 47.609375 72.90625 
L 47.609375 25.390625 
L 58.015625 25.390625 
L 58.015625 17.1875 
L 47.609375 17.1875 
L 47.609375 0 
L 37.796875 0 
L 37.796875 17.1875 
L 4.890625 17.1875 
L 4.890625 26.703125 
z
" id="DejaVuSans-52"/>
     </defs>
     <use xlink:href="#DejaVuSans-49"/>
     <use x="63.623047" xlink:href="#DejaVuSans-49"/>
     <use x="127.246094" xlink:href="#DejaVuSans-46"/>
     <use x="159.033203" xlink:href="#DejaVuSans-52"/>
     <use x="222.65625" xlink:href="#DejaVuSans-37"/>
    </g>
   </g>
   <g id="text_4">
    <!-- 11.4% -->
    <g style="fill:#ffffff;" transform="translate(39.153206 118.679376)scale(0.1 -0.1)">
     <use xlink:href="#DejaVuSans-49"/>
     <use x="63.623047" xlink:href="#DejaVuSans-49"/>
     <use x="127.246094" xlink:href="#DejaVuSans-46"/>
     <use x="159.033203" xlink:href="#DejaVuSans-52"/>
     <use x="222.65625" xlink:href="#DejaVuSans-37"/>
    </g>
   </g>
   <g id="text_5">
    <!-- 10.1% -->
    <g style="fill:#ffffff;" transform="translate(52.544022 156.774486)scale(0.1 -0.1)">
     <use xlink:href="#DejaVuSans-49"/>
     <use x="63.623047" xlink:href="#DejaVuSans-48"/>
     <use x="127.246094" xlink:href="#DejaVuSans-46"/>
     <use x="159.033203" xlink:href="#DejaVuSans-49"/>
     <use x="222.65625" xlink:href="#DejaVuSans-37"/>
    </g>
   </g>
   <g id="text_6">
    <!-- 10.1% -->
    <g style="fill:#ffffff;" transform="translate(84.47365 177.539928)scale(0.1 -0.1)">
     <use xlink:href="#DejaVuSans-49"/>
     <use x="63.623047" xlink:href="#DejaVuSans-48"/>
     <use x="127.246094" xlink:href="#DejaVuSans-46"/>
     <use x="159.033203" xlink:href="#DejaVuSans-49"/>
     <use x="222.65625" xlink:href="#DejaVuSans-37"/>
    </g>
   </g>
   <g id="text_7">
    <!-- 8.9% -->
    <g style="fill:#ffffff;" transform="translate(123.407702 176.117395)scale(0.1 -0.1)">
     <defs>
      <path d="M 31.78125 34.625 
Q 24.75 34.625 20.71875 30.859375 
Q 16.703125 27.09375 16.703125 20.515625 
Q 16.703125 13.921875 20.71875 10.15625 
Q 24.75 6.390625 31.78125 6.390625 
Q 38.8125 6.390625 42.859375 10.171875 
Q 46.921875 13.96875 46.921875 20.515625 
Q 46.921875 27.09375 42.890625 30.859375 
Q 38.875 34.625 31.78125 34.625 
z
M 21.921875 38.8125 
Q 15.578125 40.375 12.03125 44.71875 
Q 8.5 49.078125 8.5 55.328125 
Q 8.5 64.0625 14.71875 69.140625 
Q 20.953125 74.21875 31.78125 74.21875 
Q 42.671875 74.21875 48.875 69.140625 
Q 55.078125 64.0625 55.078125 55.328125 
Q 55.078125 49.078125 51.53125 44.71875 
Q 48 40.375 41.703125 38.8125 
Q 48.828125 37.15625 52.796875 32.3125 
Q 56.78125 27.484375 56.78125 20.515625 
Q 56.78125 9.90625 50.3125 4.234375 
Q 43.84375 -1.421875 31.78125 -1.421875 
Q 19.734375 -1.421875 13.25 4.234375 
Q 6.78125 9.90625 6.78125 20.515625 
Q 6.78125 27.484375 10.78125 32.3125 
Q 14.796875 37.15625 21.921875 38.8125 
z
M 18.3125 54.390625 
Q 18.3125 48.734375 21.84375 45.5625 
Q 25.390625 42.390625 31.78125 42.390625 
Q 38.140625 42.390625 41.71875 45.5625 
Q 45.3125 48.734375 45.3125 54.390625 
Q 45.3125 60.0625 41.71875 63.234375 
Q 38.140625 66.40625 31.78125 66.40625 
Q 25.390625 66.40625 21.84375 63.234375 
Q 18.3125 60.0625 18.3125 54.390625 
z
" id="DejaVuSans-56"/>
      <path d="M 10.984375 1.515625 
L 10.984375 10.5 
Q 14.703125 8.734375 18.5 7.8125 
Q 22.3125 6.890625 25.984375 6.890625 
Q 35.75 6.890625 40.890625 13.453125 
Q 46.046875 20.015625 46.78125 33.40625 
Q 43.953125 29.203125 39.59375 26.953125 
Q 35.25 24.703125 29.984375 24.703125 
Q 19.046875 24.703125 12.671875 31.3125 
Q 6.296875 37.9375 6.296875 49.421875 
Q 6.296875 60.640625 12.9375 67.421875 
Q 19.578125 74.21875 30.609375 74.21875 
Q 43.265625 74.21875 49.921875 64.515625 
Q 56.59375 54.828125 56.59375 36.375 
Q 56.59375 19.140625 48.40625 8.859375 
Q 40.234375 -1.421875 26.421875 -1.421875 
Q 22.703125 -1.421875 18.890625 -0.6875 
Q 15.09375 0.046875 10.984375 1.515625 
z
M 30.609375 32.421875 
Q 37.25 32.421875 41.125 36.953125 
Q 45.015625 41.5 45.015625 49.421875 
Q 45.015625 57.28125 41.125 61.84375 
Q 37.25 66.40625 30.609375 66.40625 
Q 23.96875 66.40625 20.09375 61.84375 
Q 16.21875 57.28125 16.21875 49.421875 
Q 16.21875 41.5 20.09375 36.953125 
Q 23.96875 32.421875 30.609375 32.421875 
z
" id="DejaVuSans-57"/>
     </defs>
     <use xlink:href="#DejaVuSans-56"/>
     <use x="63.623047" xlink:href="#DejaVuSans-46"/>
     <use x="95.410156" xlink:href="#DejaVuSans-57"/>
     <use x="159.033203" xlink:href="#DejaVuSans-37"/>
    </g>
   </g>
   <g id="text_8">
    <!-- 7.6% -->
    <g style="fill:#ffffff;" transform="translate(149.157966 158.632497)scale(0.1 -0.1)">
     <defs>
      <path d="M 33.015625 40.375 
Q 26.375 40.375 22.484375 35.828125 
Q 18.609375 31.296875 18.609375 23.390625 
Q 18.609375 15.53125 22.484375 10.953125 
Q 26.375 6.390625 33.015625 6.390625 
Q 39.65625 6.390625 43.53125 10.953125 
Q 47.40625 15.53125 47.40625 23.390625 
Q 47.40625 31.296875 43.53125 35.828125 
Q 39.65625 40.375 33.015625 40.375 
z
M 52.59375 71.296875 
L 52.59375 62.3125 
Q 48.875 64.0625 45.09375 64.984375 
Q 41.3125 65.921875 37.59375 65.921875 
Q 27.828125 65.921875 22.671875 59.328125 
Q 17.53125 52.734375 16.796875 39.40625 
Q 19.671875 43.65625 24.015625 45.921875 
Q 28.375 48.1875 33.59375 48.1875 
Q 44.578125 48.1875 50.953125 41.515625 
Q 57.328125 34.859375 57.328125 23.390625 
Q 57.328125 12.15625 50.6875 5.359375 
Q 44.046875 -1.421875 33.015625 -1.421875 
Q 20.359375 -1.421875 13.671875 8.265625 
Q 6.984375 17.96875 6.984375 36.375 
Q 6.984375 53.65625 15.1875 63.9375 
Q 23.390625 74.21875 37.203125 74.21875 
Q 40.921875 74.21875 44.703125 73.484375 
Q 48.484375 72.75 52.59375 71.296875 
z
" id="DejaVuSans-54"/>
     </defs>
     <use xlink:href="#DejaVuSans-55"/>
     <use x="63.623047" xlink:href="#DejaVuSans-46"/>
     <use x="95.410156" xlink:href="#DejaVuSans-54"/>
     <use x="159.033203" xlink:href="#DejaVuSans-37"/>
    </g>
   </g>
   <g id="text_9">
    <!-- 7.6% -->
    <g style="fill:#ffffff;" transform="translate(162.375995 133.06878)scale(0.1 -0.1)">
     <use xlink:href="#DejaVuSans-55"/>
     <use x="63.623047" xlink:href="#DejaVuSans-46"/>
     <use x="95.410156" xlink:href="#DejaVuSans-54"/>
     <use x="159.033203" xlink:href="#DejaVuSans-37"/>
    </g>
   </g>
   <g id="legend_1">
    <g id="patch_20">
     <path d="M 231.64 196.63375 
L 551.210312 196.63375 
Q 553.210312 196.63375 553.210312 194.63375 
L 553.210312 37.20625 
Q 553.210312 35.20625 551.210312 35.20625 
L 231.64 35.20625 
Q 229.64 35.20625 229.64 37.20625 
L 229.64 194.63375 
Q 229.64 196.63375 231.64 196.63375 
z
" style="fill:#ffffff;opacity:0.8;stroke:#cccccc;stroke-linejoin:miter;"/>
    </g>
    <g id="text_10">
     <!-- Топ-10 репостов  -->
     <g transform="translate(299.788437 46.804687)scale(0.1 -0.1)">
      <defs>
       <path d="M -0.296875 72.90625 
L 61.375 72.90625 
L 61.375 64.59375 
L 35.5 64.59375 
L 35.5 0 
L 25.59375 0 
L 25.59375 64.59375 
L -0.296875 64.59375 
z
" id="DejaVuSans-1058"/>
       <path d="M 30.609375 48.390625 
Q 23.390625 48.390625 19.1875 42.75 
Q 14.984375 37.109375 14.984375 27.296875 
Q 14.984375 17.484375 19.15625 11.84375 
Q 23.34375 6.203125 30.609375 6.203125 
Q 37.796875 6.203125 41.984375 11.859375 
Q 46.1875 17.53125 46.1875 27.296875 
Q 46.1875 37.015625 41.984375 42.703125 
Q 37.796875 48.390625 30.609375 48.390625 
z
M 30.609375 56 
Q 42.328125 56 49.015625 48.375 
Q 55.71875 40.765625 55.71875 27.296875 
Q 55.71875 13.875 49.015625 6.21875 
Q 42.328125 -1.421875 30.609375 -1.421875 
Q 18.84375 -1.421875 12.171875 6.21875 
Q 5.515625 13.875 5.515625 27.296875 
Q 5.515625 40.765625 12.171875 48.375 
Q 18.84375 56 30.609375 56 
z
" id="DejaVuSans-1086"/>
       <path d="M 56.296875 54.6875 
L 56.296875 0 
L 47.265625 0 
L 47.265625 47.515625 
L 18.109375 47.515625 
L 18.109375 0 
L 9.078125 0 
L 9.078125 54.6875 
z
" id="DejaVuSans-1087"/>
       <path d="M 4.890625 31.390625 
L 31.203125 31.390625 
L 31.203125 23.390625 
L 4.890625 23.390625 
z
" id="DejaVuSans-45"/>
       <path id="DejaVuSans-32"/>
       <path d="M 18.109375 8.203125 
L 18.109375 -20.796875 
L 9.078125 -20.796875 
L 9.078125 54.6875 
L 18.109375 54.6875 
L 18.109375 46.390625 
Q 20.953125 51.265625 25.265625 53.625 
Q 29.59375 56 35.59375 56 
Q 45.5625 56 51.78125 48.09375 
Q 58.015625 40.1875 58.015625 27.296875 
Q 58.015625 14.40625 51.78125 6.484375 
Q 45.5625 -1.421875 35.59375 -1.421875 
Q 29.59375 -1.421875 25.265625 0.953125 
Q 20.953125 3.328125 18.109375 8.203125 
z
M 48.6875 27.296875 
Q 48.6875 37.203125 44.609375 42.84375 
Q 40.53125 48.484375 33.40625 48.484375 
Q 26.265625 48.484375 22.1875 42.84375 
Q 18.109375 37.203125 18.109375 27.296875 
Q 18.109375 17.390625 22.1875 11.75 
Q 26.265625 6.109375 33.40625 6.109375 
Q 40.53125 6.109375 44.609375 11.75 
Q 48.6875 17.390625 48.6875 27.296875 
z
" id="DejaVuSans-1088"/>
       <path d="M 56.203125 29.59375 
L 56.203125 25.203125 
L 14.890625 25.203125 
Q 15.484375 15.921875 20.484375 11.0625 
Q 25.484375 6.203125 34.421875 6.203125 
Q 39.59375 6.203125 44.453125 7.46875 
Q 49.3125 8.734375 54.109375 11.28125 
L 54.109375 2.78125 
Q 49.265625 0.734375 44.1875 -0.34375 
Q 39.109375 -1.421875 33.890625 -1.421875 
Q 20.796875 -1.421875 13.15625 6.1875 
Q 5.515625 13.8125 5.515625 26.8125 
Q 5.515625 40.234375 12.765625 48.109375 
Q 20.015625 56 32.328125 56 
Q 43.359375 56 49.78125 48.890625 
Q 56.203125 41.796875 56.203125 29.59375 
z
M 47.21875 32.234375 
Q 47.125 39.59375 43.09375 43.984375 
Q 39.0625 48.390625 32.421875 48.390625 
Q 24.90625 48.390625 20.390625 44.140625 
Q 15.875 39.890625 15.1875 32.171875 
z
" id="DejaVuSans-1077"/>
       <path d="M 48.78125 52.59375 
L 48.78125 44.1875 
Q 44.96875 46.296875 41.140625 47.34375 
Q 37.3125 48.390625 33.40625 48.390625 
Q 24.65625 48.390625 19.8125 42.84375 
Q 14.984375 37.3125 14.984375 27.296875 
Q 14.984375 17.28125 19.8125 11.734375 
Q 24.65625 6.203125 33.40625 6.203125 
Q 37.3125 6.203125 41.140625 7.25 
Q 44.96875 8.296875 48.78125 10.40625 
L 48.78125 2.09375 
Q 45.015625 0.34375 40.984375 -0.53125 
Q 36.96875 -1.421875 32.421875 -1.421875 
Q 20.0625 -1.421875 12.78125 6.34375 
Q 5.515625 14.109375 5.515625 27.296875 
Q 5.515625 40.671875 12.859375 48.328125 
Q 20.21875 56 33.015625 56 
Q 37.15625 56 41.109375 55.140625 
Q 45.0625 54.296875 48.78125 52.59375 
z
" id="DejaVuSans-1089"/>
       <path d="M 2.9375 54.6875 
L 55.328125 54.6875 
L 55.328125 47.515625 
L 33.546875 47.515625 
L 33.546875 0 
L 24.703125 0 
L 24.703125 47.515625 
L 2.9375 47.515625 
z
" id="DejaVuSans-1090"/>
       <path d="M 18.0625 25.203125 
L 18.0625 7.171875 
L 30.859375 7.171875 
Q 37.015625 7.171875 40.234375 9.484375 
Q 43.453125 11.8125 43.453125 16.21875 
Q 43.453125 20.609375 40.234375 22.90625 
Q 37.015625 25.203125 30.859375 25.203125 
z
M 18.0625 47.515625 
L 18.0625 32.375 
L 29.890625 32.375 
Q 34.96875 32.375 38.1875 34.390625 
Q 41.40625 36.421875 41.40625 40.046875 
Q 41.40625 43.65625 38.1875 45.578125 
Q 34.96875 47.515625 29.890625 47.515625 
z
M 9.078125 54.6875 
L 30.46875 54.6875 
Q 40.09375 54.6875 45.265625 51.171875 
Q 50.4375 47.65625 50.4375 41.15625 
Q 50.4375 36.140625 47.796875 33.171875 
Q 45.171875 30.21875 39.984375 29.5 
Q 46.1875 28.328125 49.609375 24.609375 
Q 53.03125 20.90625 53.03125 15.328125 
Q 53.03125 8.015625 47.390625 4 
Q 41.75 0 31.296875 0 
L 9.078125 0 
z
" id="DejaVuSans-1074"/>
      </defs>
      <use xlink:href="#DejaVuSans-1058"/>
      <use x="61.083984" xlink:href="#DejaVuSans-1086"/>
      <use x="122.265625" xlink:href="#DejaVuSans-1087"/>
      <use x="187.646484" xlink:href="#DejaVuSans-45"/>
      <use x="223.730469" xlink:href="#DejaVuSans-49"/>
      <use x="287.353516" xlink:href="#DejaVuSans-48"/>
      <use x="350.976562" xlink:href="#DejaVuSans-32"/>
      <use x="382.763672" xlink:href="#DejaVuSans-1088"/>
      <use x="446.240234" xlink:href="#DejaVuSans-1077"/>
      <use x="507.763672" xlink:href="#DejaVuSans-1087"/>
      <use x="573.144531" xlink:href="#DejaVuSans-1086"/>
      <use x="634.326172" xlink:href="#DejaVuSans-1089"/>
      <use x="689.306641" xlink:href="#DejaVuSans-1090"/>
      <use x="747.558594" xlink:href="#DejaVuSans-1086"/>
      <use x="808.740234" xlink:href="#DejaVuSans-1074"/>
      <use x="867.675781" xlink:href="#DejaVuSans-32"/>
     </g>
     <!-- подписчиков группы zapravdu_ekb -->
     <g transform="translate(299.788437 58.0025)scale(0.1 -0.1)">
      <defs>
       <path d="M 21.625 7.171875 
L 47.703125 7.171875 
L 47.703125 47.515625 
L 28.8125 47.515625 
L 28.8125 40.671875 
Q 28.8125 20.5625 23.046875 9.8125 
z
M 8.59375 7.171875 
Q 13.03125 9.125 14.984375 13.28125 
Q 19.78125 23.578125 19.78125 44.34375 
L 19.78125 54.6875 
L 56.734375 54.6875 
L 56.734375 7.171875 
L 63.921875 7.171875 
L 63.921875 -13.8125 
L 56.734375 -13.8125 
L 56.734375 0 
L 12.40625 0 
L 12.40625 -13.8125 
L 5.21875 -13.8125 
L 5.21875 7.171875 
z
" id="DejaVuSans-1076"/>
       <path d="M 55.90625 54.6875 
L 55.90625 0 
L 46.96875 0 
L 46.96875 43.890625 
L 20.609375 0 
L 9.078125 0 
L 9.078125 54.6875 
L 18.015625 54.6875 
L 18.015625 10.890625 
L 44.34375 54.6875 
z
" id="DejaVuSans-1080"/>
       <path d="M 41.015625 0 
L 41.015625 23 
L 24.265625 23 
Q 16.796875 23 11.8125 27.640625 
Q 7.328125 31.84375 7.328125 40.828125 
L 7.328125 54.6875 
L 16.3125 54.6875 
L 16.3125 41.65625 
Q 16.3125 35.9375 18.84375 33.0625 
Q 21.4375 30.171875 26.515625 30.171875 
L 41.015625 30.171875 
L 41.015625 54.6875 
L 50 54.6875 
L 50 0 
z
" id="DejaVuSans-1095"/>
       <path d="M 9.078125 54.6875 
L 18.015625 54.6875 
L 18.015625 29 
L 43.359375 54.6875 
L 54.390625 54.6875 
L 33.5 33.546875 
L 57.078125 0 
L 47.015625 0 
L 27.640625 27.59375 
L 18.015625 17.828125 
L 18.015625 0 
L 9.078125 0 
z
" id="DejaVuSans-1082"/>
       <path d="M 9.078125 0 
L 9.078125 54.6875 
L 47.65625 54.6875 
L 47.65625 47.515625 
L 18.109375 47.515625 
L 18.109375 0 
z
" id="DejaVuSans-1075"/>
       <path d="M 32.171875 -5.078125 
Q 28.375 -14.84375 24.75 -17.8125 
Q 21.140625 -20.796875 15.09375 -20.796875 
L 7.90625 -20.796875 
L 7.90625 -13.28125 
L 13.1875 -13.28125 
Q 16.890625 -13.28125 18.9375 -11.515625 
Q 21 -9.765625 23.484375 -3.21875 
L 25.09375 0.875 
L 2.984375 54.6875 
L 12.5 54.6875 
L 29.59375 11.921875 
L 46.6875 54.6875 
L 56.203125 54.6875 
z
" id="DejaVuSans-1091"/>
       <path d="M 61.046875 54.6875 
L 70.03125 54.6875 
L 70.03125 0 
L 61.046875 0 
z
M 65.546875 56 
z
M 43.453125 16.21875 
Q 43.453125 20.609375 40.25 22.90625 
Q 37.0625 25.203125 30.90625 25.203125 
L 18.109375 25.203125 
L 18.109375 7.171875 
L 30.90625 7.171875 
Q 37.0625 7.171875 40.25 9.484375 
Q 43.453125 11.8125 43.453125 16.21875 
z
M 9.078125 54.6875 
L 18.109375 54.6875 
L 18.109375 32.375 
L 31.296875 32.375 
Q 41.75 32.375 47.390625 28.390625 
Q 53.03125 24.421875 53.03125 16.21875 
Q 53.03125 8.015625 47.390625 4 
Q 41.75 0 31.296875 0 
L 9.078125 0 
z
" id="DejaVuSans-1099"/>
       <path d="M 5.515625 54.6875 
L 48.1875 54.6875 
L 48.1875 46.484375 
L 14.40625 7.171875 
L 48.1875 7.171875 
L 48.1875 0 
L 4.296875 0 
L 4.296875 8.203125 
L 38.09375 47.515625 
L 5.515625 47.515625 
z
" id="DejaVuSans-122"/>
       <path d="M 34.28125 27.484375 
Q 23.390625 27.484375 19.1875 25 
Q 14.984375 22.515625 14.984375 16.5 
Q 14.984375 11.71875 18.140625 8.90625 
Q 21.296875 6.109375 26.703125 6.109375 
Q 34.1875 6.109375 38.703125 11.40625 
Q 43.21875 16.703125 43.21875 25.484375 
L 43.21875 27.484375 
z
M 52.203125 31.203125 
L 52.203125 0 
L 43.21875 0 
L 43.21875 8.296875 
Q 40.140625 3.328125 35.546875 0.953125 
Q 30.953125 -1.421875 24.3125 -1.421875 
Q 15.921875 -1.421875 10.953125 3.296875 
Q 6 8.015625 6 15.921875 
Q 6 25.140625 12.171875 29.828125 
Q 18.359375 34.515625 30.609375 34.515625 
L 43.21875 34.515625 
L 43.21875 35.40625 
Q 43.21875 41.609375 39.140625 45 
Q 35.0625 48.390625 27.6875 48.390625 
Q 23 48.390625 18.546875 47.265625 
Q 14.109375 46.140625 10.015625 43.890625 
L 10.015625 52.203125 
Q 14.9375 54.109375 19.578125 55.046875 
Q 24.21875 56 28.609375 56 
Q 40.484375 56 46.34375 49.84375 
Q 52.203125 43.703125 52.203125 31.203125 
z
" id="DejaVuSans-97"/>
       <path d="M 18.109375 8.203125 
L 18.109375 -20.796875 
L 9.078125 -20.796875 
L 9.078125 54.6875 
L 18.109375 54.6875 
L 18.109375 46.390625 
Q 20.953125 51.265625 25.265625 53.625 
Q 29.59375 56 35.59375 56 
Q 45.5625 56 51.78125 48.09375 
Q 58.015625 40.1875 58.015625 27.296875 
Q 58.015625 14.40625 51.78125 6.484375 
Q 45.5625 -1.421875 35.59375 -1.421875 
Q 29.59375 -1.421875 25.265625 0.953125 
Q 20.953125 3.328125 18.109375 8.203125 
z
M 48.6875 27.296875 
Q 48.6875 37.203125 44.609375 42.84375 
Q 40.53125 48.484375 33.40625 48.484375 
Q 26.265625 48.484375 22.1875 42.84375 
Q 18.109375 37.203125 18.109375 27.296875 
Q 18.109375 17.390625 22.1875 11.75 
Q 26.265625 6.109375 33.40625 6.109375 
Q 40.53125 6.109375 44.609375 11.75 
Q 48.6875 17.390625 48.6875 27.296875 
z
" id="DejaVuSans-112"/>
       <path d="M 41.109375 46.296875 
Q 39.59375 47.171875 37.8125 47.578125 
Q 36.03125 48 33.890625 48 
Q 26.265625 48 22.1875 43.046875 
Q 18.109375 38.09375 18.109375 28.8125 
L 18.109375 0 
L 9.078125 0 
L 9.078125 54.6875 
L 18.109375 54.6875 
L 18.109375 46.1875 
Q 20.953125 51.171875 25.484375 53.578125 
Q 30.03125 56 36.53125 56 
Q 37.453125 56 38.578125 55.875 
Q 39.703125 55.765625 41.0625 55.515625 
z
" id="DejaVuSans-114"/>
       <path d="M 2.984375 54.6875 
L 12.5 54.6875 
L 29.59375 8.796875 
L 46.6875 54.6875 
L 56.203125 54.6875 
L 35.6875 0 
L 23.484375 0 
z
" id="DejaVuSans-118"/>
       <path d="M 45.40625 46.390625 
L 45.40625 75.984375 
L 54.390625 75.984375 
L 54.390625 0 
L 45.40625 0 
L 45.40625 8.203125 
Q 42.578125 3.328125 38.25 0.953125 
Q 33.9375 -1.421875 27.875 -1.421875 
Q 17.96875 -1.421875 11.734375 6.484375 
Q 5.515625 14.40625 5.515625 27.296875 
Q 5.515625 40.1875 11.734375 48.09375 
Q 17.96875 56 27.875 56 
Q 33.9375 56 38.25 53.625 
Q 42.578125 51.265625 45.40625 46.390625 
z
M 14.796875 27.296875 
Q 14.796875 17.390625 18.875 11.75 
Q 22.953125 6.109375 30.078125 6.109375 
Q 37.203125 6.109375 41.296875 11.75 
Q 45.40625 17.390625 45.40625 27.296875 
Q 45.40625 37.203125 41.296875 42.84375 
Q 37.203125 48.484375 30.078125 48.484375 
Q 22.953125 48.484375 18.875 42.84375 
Q 14.796875 37.203125 14.796875 27.296875 
z
" id="DejaVuSans-100"/>
       <path d="M 8.5 21.578125 
L 8.5 54.6875 
L 17.484375 54.6875 
L 17.484375 21.921875 
Q 17.484375 14.15625 20.5 10.265625 
Q 23.53125 6.390625 29.59375 6.390625 
Q 36.859375 6.390625 41.078125 11.03125 
Q 45.3125 15.671875 45.3125 23.6875 
L 45.3125 54.6875 
L 54.296875 54.6875 
L 54.296875 0 
L 45.3125 0 
L 45.3125 8.40625 
Q 42.046875 3.421875 37.71875 1 
Q 33.40625 -1.421875 27.6875 -1.421875 
Q 18.265625 -1.421875 13.375 4.4375 
Q 8.5 10.296875 8.5 21.578125 
z
M 31.109375 56 
z
" id="DejaVuSans-117"/>
       <path d="M 50.984375 -16.609375 
L 50.984375 -23.578125 
L -0.984375 -23.578125 
L -0.984375 -16.609375 
z
" id="DejaVuSans-95"/>
       <path d="M 56.203125 29.59375 
L 56.203125 25.203125 
L 14.890625 25.203125 
Q 15.484375 15.921875 20.484375 11.0625 
Q 25.484375 6.203125 34.421875 6.203125 
Q 39.59375 6.203125 44.453125 7.46875 
Q 49.3125 8.734375 54.109375 11.28125 
L 54.109375 2.78125 
Q 49.265625 0.734375 44.1875 -0.34375 
Q 39.109375 -1.421875 33.890625 -1.421875 
Q 20.796875 -1.421875 13.15625 6.1875 
Q 5.515625 13.8125 5.515625 26.8125 
Q 5.515625 40.234375 12.765625 48.109375 
Q 20.015625 56 32.328125 56 
Q 43.359375 56 49.78125 48.890625 
Q 56.203125 41.796875 56.203125 29.59375 
z
M 47.21875 32.234375 
Q 47.125 39.59375 43.09375 43.984375 
Q 39.0625 48.390625 32.421875 48.390625 
Q 24.90625 48.390625 20.390625 44.140625 
Q 15.875 39.890625 15.1875 32.171875 
z
" id="DejaVuSans-101"/>
       <path d="M 9.078125 75.984375 
L 18.109375 75.984375 
L 18.109375 31.109375 
L 44.921875 54.6875 
L 56.390625 54.6875 
L 27.390625 29.109375 
L 57.625 0 
L 45.90625 0 
L 18.109375 26.703125 
L 18.109375 0 
L 9.078125 0 
z
" id="DejaVuSans-107"/>
       <path d="M 48.6875 27.296875 
Q 48.6875 37.203125 44.609375 42.84375 
Q 40.53125 48.484375 33.40625 48.484375 
Q 26.265625 48.484375 22.1875 42.84375 
Q 18.109375 37.203125 18.109375 27.296875 
Q 18.109375 17.390625 22.1875 11.75 
Q 26.265625 6.109375 33.40625 6.109375 
Q 40.53125 6.109375 44.609375 11.75 
Q 48.6875 17.390625 48.6875 27.296875 
z
M 18.109375 46.390625 
Q 20.953125 51.265625 25.265625 53.625 
Q 29.59375 56 35.59375 56 
Q 45.5625 56 51.78125 48.09375 
Q 58.015625 40.1875 58.015625 27.296875 
Q 58.015625 14.40625 51.78125 6.484375 
Q 45.5625 -1.421875 35.59375 -1.421875 
Q 29.59375 -1.421875 25.265625 0.953125 
Q 20.953125 3.328125 18.109375 8.203125 
L 18.109375 0 
L 9.078125 0 
L 9.078125 75.984375 
L 18.109375 75.984375 
z
" id="DejaVuSans-98"/>
      </defs>
      <use xlink:href="#DejaVuSans-1087"/>
      <use x="65.380859" xlink:href="#DejaVuSans-1086"/>
      <use x="126.5625" xlink:href="#DejaVuSans-1076"/>
      <use x="195.703125" xlink:href="#DejaVuSans-1087"/>
      <use x="261.083984" xlink:href="#DejaVuSans-1080"/>
      <use x="326.074219" xlink:href="#DejaVuSans-1089"/>
      <use x="381.054688" xlink:href="#DejaVuSans-1095"/>
      <use x="440.136719" xlink:href="#DejaVuSans-1080"/>
      <use x="505.126953" xlink:href="#DejaVuSans-1082"/>
      <use x="565.527344" xlink:href="#DejaVuSans-1086"/>
      <use x="626.708984" xlink:href="#DejaVuSans-1074"/>
      <use x="685.644531" xlink:href="#DejaVuSans-32"/>
      <use x="717.431641" xlink:href="#DejaVuSans-1075"/>
      <use x="769.970703" xlink:href="#DejaVuSans-1088"/>
      <use x="833.447266" xlink:href="#DejaVuSans-1091"/>
      <use x="892.626953" xlink:href="#DejaVuSans-1087"/>
      <use x="958.007812" xlink:href="#DejaVuSans-1087"/>
      <use x="1023.388672" xlink:href="#DejaVuSans-1099"/>
      <use x="1102.34375" xlink:href="#DejaVuSans-32"/>
      <use x="1134.130859" xlink:href="#DejaVuSans-122"/>
      <use x="1186.621094" xlink:href="#DejaVuSans-97"/>
      <use x="1247.900391" xlink:href="#DejaVuSans-112"/>
      <use x="1311.376953" xlink:href="#DejaVuSans-114"/>
      <use x="1352.490234" xlink:href="#DejaVuSans-97"/>
      <use x="1413.769531" xlink:href="#DejaVuSans-118"/>
      <use x="1472.949219" xlink:href="#DejaVuSans-100"/>
      <use x="1536.425781" xlink:href="#DejaVuSans-117"/>
      <use x="1599.804688" xlink:href="#DejaVuSans-95"/>
      <use x="1649.804688" xlink:href="#DejaVuSans-101"/>
      <use x="1711.328125" xlink:href="#DejaVuSans-107"/>
      <use x="1769.238281" xlink:href="#DejaVuSans-98"/>
     </g>
    </g>
    <g id="patch_21">
     <path d="M 233.64 72.95875 
L 253.64 72.95875 
L 253.64 65.95875 
L 233.64 65.95875 
z
" style="fill:#1f77b4;"/>
    </g>
    <g id="text_11">
     <!-- Движение ЗА ПРАВДУ -->
     <g transform="translate(261.64 72.95875)scale(0.1 -0.1)">
      <defs>
       <path d="M 22.796875 8.296875 
L 55.03125 8.296875 
L 55.03125 64.59375 
L 31.34375 64.59375 
L 31.34375 54.25 
Q 31.34375 29.890625 25.875 13.71875 
Q 24.75 10.40625 22.796875 8.296875 
z
M 8.40625 8.296875 
Q 14.9375 11.375 16.796875 17.234375 
Q 21.53125 32.28125 21.53125 59.125 
L 21.53125 72.90625 
L 64.890625 72.90625 
L 64.890625 8.296875 
L 73.1875 8.296875 
L 73.1875 -15.671875 
L 64.890625 -15.671875 
L 64.890625 0 
L 13.234375 0 
L 13.234375 -15.671875 
L 4.9375 -15.671875 
L 4.9375 8.296875 
z
" id="DejaVuSans-1044"/>
       <path d="M 40.578125 54.6875 
L 49.515625 54.6875 
L 49.515625 29 
L 73.390625 54.6875 
L 83.84375 54.6875 
L 64.203125 33.640625 
L 86.671875 0 
L 77.046875 0 
L 58.640625 27.640625 
L 49.515625 17.828125 
L 49.515625 0 
L 40.578125 0 
L 40.578125 17.828125 
L 31.453125 27.640625 
L 13.03125 0 
L 3.421875 0 
L 25.875 33.640625 
L 6.25 54.6875 
L 16.703125 54.6875 
L 40.578125 29 
z
" id="DejaVuSans-1078"/>
       <path d="M 9.078125 54.6875 
L 18.109375 54.6875 
L 18.109375 32.375 
L 47.265625 32.375 
L 47.265625 54.6875 
L 56.296875 54.6875 
L 56.296875 0 
L 47.265625 0 
L 47.265625 25.203125 
L 18.109375 25.203125 
L 18.109375 0 
L 9.078125 0 
z
" id="DejaVuSans-1085"/>
       <path d="M 28.5625 74.21875 
Q 40.578125 74.21875 48.1875 69.109375 
Q 55.8125 64.015625 55.8125 55.328125 
Q 55.8125 49.265625 52.34375 45.09375 
Q 48.875 40.921875 42.484375 39.3125 
Q 49.5625 37.796875 53.53125 33 
Q 57.515625 28.21875 57.515625 21.1875 
Q 57.515625 9.96875 48.84375 4.265625 
Q 40.1875 -1.421875 28.5625 -1.421875 
Q 22.609375 -1.421875 15.671875 0.1875 
Q 8.734375 1.8125 6.59375 3.171875 
L 6.59375 13.328125 
Q 14.0625 8.984375 18.1875 7.9375 
Q 22.3125 6.890625 28.375 6.890625 
Q 37.546875 6.890625 42.625 10.40625 
Q 47.703125 13.921875 47.703125 21.1875 
Q 47.703125 27.640625 43.1875 31.265625 
Q 38.671875 34.90625 29.15625 34.90625 
L 19.1875 34.90625 
L 19.1875 43.015625 
L 29.546875 43.015625 
Q 38.28125 43.015625 42.140625 45.921875 
Q 46 48.828125 46 54.296875 
Q 46 59.90625 42.015625 62.90625 
Q 38.03125 65.921875 28.375 65.921875 
Q 21.828125 65.921875 19.578125 65.328125 
Q 17.328125 64.75 7.328125 60.984375 
L 7.328125 70.609375 
Q 12.84375 72.5625 18.59375 73.390625 
Q 24.359375 74.21875 28.5625 74.21875 
z
" id="DejaVuSans-1047"/>
       <path d="M 34.1875 63.1875 
L 20.796875 26.90625 
L 47.609375 26.90625 
z
M 28.609375 72.90625 
L 39.796875 72.90625 
L 67.578125 0 
L 57.328125 0 
L 50.6875 18.703125 
L 17.828125 18.703125 
L 11.1875 0 
L 0.78125 0 
z
" id="DejaVuSans-1040"/>
       <path d="M 65.375 72.90625 
L 65.375 0 
L 55.515625 0 
L 55.515625 64.59375 
L 19.671875 64.59375 
L 19.671875 0 
L 9.8125 0 
L 9.8125 72.90625 
z
" id="DejaVuSans-1055"/>
       <path d="M 19.671875 64.796875 
L 19.671875 37.40625 
L 32.078125 37.40625 
Q 38.96875 37.40625 42.71875 40.96875 
Q 46.484375 44.53125 46.484375 51.125 
Q 46.484375 57.671875 42.71875 61.234375 
Q 38.96875 64.796875 32.078125 64.796875 
z
M 9.8125 72.90625 
L 32.078125 72.90625 
Q 44.34375 72.90625 50.609375 67.359375 
Q 56.890625 61.8125 56.890625 51.125 
Q 56.890625 40.328125 50.609375 34.8125 
Q 44.34375 29.296875 32.078125 29.296875 
L 19.671875 29.296875 
L 19.671875 0 
L 9.8125 0 
z
" id="DejaVuSans-1056"/>
       <path d="M 19.671875 34.8125 
L 19.671875 8.109375 
L 35.5 8.109375 
Q 43.453125 8.109375 47.28125 11.40625 
Q 51.125 14.703125 51.125 21.484375 
Q 51.125 28.328125 47.28125 31.5625 
Q 43.453125 34.8125 35.5 34.8125 
z
M 19.671875 64.796875 
L 19.671875 42.828125 
L 34.28125 42.828125 
Q 41.5 42.828125 45.03125 45.53125 
Q 48.578125 48.25 48.578125 53.8125 
Q 48.578125 59.328125 45.03125 62.0625 
Q 41.5 64.796875 34.28125 64.796875 
z
M 9.8125 72.90625 
L 35.015625 72.90625 
Q 46.296875 72.90625 52.390625 68.21875 
Q 58.5 63.53125 58.5 54.890625 
Q 58.5 48.1875 55.375 44.234375 
Q 52.25 40.28125 46.1875 39.3125 
Q 53.46875 37.75 57.5 32.78125 
Q 61.53125 27.828125 61.53125 20.40625 
Q 61.53125 10.640625 54.890625 5.3125 
Q 48.25 0 35.984375 0 
L 9.8125 0 
z
" id="DejaVuSans-1042"/>
       <path d="M 31.984375 8.84375 
Q 30.953125 6.390625 29.390625 4.546875 
Q 25.53125 0 13.28125 0 
L 9.515625 0 
L 9.515625 8.296875 
L 12.59375 8.296875 
Q 18.40625 8.296875 20.65625 9.625 
Q 22.015625 10.453125 22.90625 12.5 
L 25.09375 17.671875 
L 1.703125 72.90625 
L 12.3125 72.90625 
L 30.421875 30.125 
L 48.640625 72.90625 
L 59.234375 72.90625 
z
" id="DejaVuSans-1059"/>
      </defs>
      <use xlink:href="#DejaVuSans-1044"/>
      <use x="78.125" xlink:href="#DejaVuSans-1074"/>
      <use x="137.060547" xlink:href="#DejaVuSans-1080"/>
      <use x="202.050781" xlink:href="#DejaVuSans-1078"/>
      <use x="292.138672" xlink:href="#DejaVuSans-1077"/>
      <use x="353.662109" xlink:href="#DejaVuSans-1085"/>
      <use x="419.042969" xlink:href="#DejaVuSans-1080"/>
      <use x="484.033203" xlink:href="#DejaVuSans-1077"/>
      <use x="545.556641" xlink:href="#DejaVuSans-32"/>
      <use x="577.34375" xlink:href="#DejaVuSans-1047"/>
      <use x="641.455078" xlink:href="#DejaVuSans-1040"/>
      <use x="709.863281" xlink:href="#DejaVuSans-32"/>
      <use x="741.650391" xlink:href="#DejaVuSans-1055"/>
      <use x="816.845703" xlink:href="#DejaVuSans-1056"/>
      <use x="877.148438" xlink:href="#DejaVuSans-1040"/>
      <use x="945.556641" xlink:href="#DejaVuSans-1042"/>
      <use x="1014.160156" xlink:href="#DejaVuSans-1044"/>
      <use x="1092.285156" xlink:href="#DejaVuSans-1059"/>
     </g>
    </g>
    <g id="patch_22">
     <path d="M 233.64 87.636875 
L 253.64 87.636875 
L 253.64 80.636875 
L 233.64 80.636875 
z
" style="fill:#ff7f0e;"/>
    </g>
    <g id="text_12">
     <!-- Захар Прилепин -->
     <g transform="translate(261.64 87.636875)scale(0.1 -0.1)">
      <defs>
       <path d="M 34.28125 27.484375 
Q 23.390625 27.484375 19.1875 25 
Q 14.984375 22.515625 14.984375 16.5 
Q 14.984375 11.71875 18.140625 8.90625 
Q 21.296875 6.109375 26.703125 6.109375 
Q 34.1875 6.109375 38.703125 11.40625 
Q 43.21875 16.703125 43.21875 25.484375 
L 43.21875 27.484375 
z
M 52.203125 31.203125 
L 52.203125 0 
L 43.21875 0 
L 43.21875 8.296875 
Q 40.140625 3.328125 35.546875 0.953125 
Q 30.953125 -1.421875 24.3125 -1.421875 
Q 15.921875 -1.421875 10.953125 3.296875 
Q 6 8.015625 6 15.921875 
Q 6 25.140625 12.171875 29.828125 
Q 18.359375 34.515625 30.609375 34.515625 
L 43.21875 34.515625 
L 43.21875 35.40625 
Q 43.21875 41.609375 39.140625 45 
Q 35.0625 48.390625 27.6875 48.390625 
Q 23 48.390625 18.546875 47.265625 
Q 14.109375 46.140625 10.015625 43.890625 
L 10.015625 52.203125 
Q 14.9375 54.109375 19.578125 55.046875 
Q 24.21875 56 28.609375 56 
Q 40.484375 56 46.34375 49.84375 
Q 52.203125 43.703125 52.203125 31.203125 
z
" id="DejaVuSans-1072"/>
       <path d="M 54.890625 54.6875 
L 35.109375 28.078125 
L 55.90625 0 
L 45.3125 0 
L 29.390625 21.484375 
L 13.484375 0 
L 2.875 0 
L 24.125 28.609375 
L 4.6875 54.6875 
L 15.28125 54.6875 
L 29.78125 35.203125 
L 44.28125 54.6875 
z
" id="DejaVuSans-1093"/>
       <path d="M 3.71875 0 
L 3.71875 7.46875 
Q 12.59375 8.84375 15.328125 14.984375 
Q 18.65625 23.640625 18.65625 45.75 
L 18.65625 54.6875 
L 55.609375 54.6875 
L 55.609375 0 
L 46.625 0 
L 46.625 47.515625 
L 27.640625 47.515625 
L 27.640625 42.09375 
Q 27.640625 21 23.34375 11.53125 
Q 18.75 1.421875 3.71875 0 
z
" id="DejaVuSans-1083"/>
      </defs>
      <use xlink:href="#DejaVuSans-1047"/>
      <use x="64.111328" xlink:href="#DejaVuSans-1072"/>
      <use x="125.390625" xlink:href="#DejaVuSans-1093"/>
      <use x="184.570312" xlink:href="#DejaVuSans-1072"/>
      <use x="245.849609" xlink:href="#DejaVuSans-1088"/>
      <use x="309.326172" xlink:href="#DejaVuSans-32"/>
      <use x="341.113281" xlink:href="#DejaVuSans-1055"/>
      <use x="416.308594" xlink:href="#DejaVuSans-1088"/>
      <use x="479.785156" xlink:href="#DejaVuSans-1080"/>
      <use x="544.775391" xlink:href="#DejaVuSans-1083"/>
      <use x="608.691406" xlink:href="#DejaVuSans-1077"/>
      <use x="670.214844" xlink:href="#DejaVuSans-1087"/>
      <use x="735.595703" xlink:href="#DejaVuSans-1080"/>
      <use x="800.585938" xlink:href="#DejaVuSans-1085"/>
     </g>
    </g>
    <g id="patch_23">
     <path d="M 233.64 102.315 
L 253.64 102.315 
L 253.64 95.315 
L 233.64 95.315 
z
" style="fill:#2ca02c;"/>
    </g>
    <g id="text_13">
     <!-- Психология -->
     <g transform="translate(261.64 102.315)scale(0.1 -0.1)">
      <defs>
       <path d="M 18.453125 38.921875 
Q 18.453125 34.859375 21.578125 32.5625 
Q 24.703125 30.28125 30.515625 30.28125 
L 42.625 30.28125 
L 42.625 47.515625 
L 30.515625 47.515625 
Q 24.703125 47.515625 21.578125 45.265625 
Q 18.453125 43.015625 18.453125 38.921875 
z
M 5.671875 0 
L 22.359375 23.96875 
Q 16.703125 25.25 12.9375 28.59375 
Q 9.1875 31.9375 9.1875 38.921875 
Q 9.1875 46.828125 14.421875 50.75 
Q 19.671875 54.6875 30.28125 54.6875 
L 51.65625 54.6875 
L 51.65625 0 
L 42.625 0 
L 42.625 23.09375 
L 31.453125 23.09375 
L 15.328125 0 
z
" id="DejaVuSans-1103"/>
      </defs>
      <use xlink:href="#DejaVuSans-1055"/>
      <use x="75.195312" xlink:href="#DejaVuSans-1089"/>
      <use x="130.175781" xlink:href="#DejaVuSans-1080"/>
      <use x="195.166016" xlink:href="#DejaVuSans-1093"/>
      <use x="254.345703" xlink:href="#DejaVuSans-1086"/>
      <use x="315.527344" xlink:href="#DejaVuSans-1083"/>
      <use x="379.443359" xlink:href="#DejaVuSans-1086"/>
      <use x="440.625" xlink:href="#DejaVuSans-1075"/>
      <use x="493.164062" xlink:href="#DejaVuSans-1080"/>
      <use x="558.154297" xlink:href="#DejaVuSans-1103"/>
     </g>
    </g>
    <g id="patch_24">
     <path d="M 233.64 116.993125 
L 253.64 116.993125 
L 253.64 109.993125 
L 233.64 109.993125 
z
" style="fill:#d62728;"/>
    </g>
    <g id="text_14">
     <!-- лапингауэр (стихи 18+) -->
     <g transform="translate(261.64 116.993125)scale(0.1 -0.1)">
      <defs>
       <path d="M 5.515625 10.40625 
Q 13.234375 6.203125 20.90625 6.203125 
Q 28.078125 6.203125 33.203125 10.375 
Q 38.328125 14.546875 39.265625 25.203125 
L 11.53125 25.203125 
L 11.53125 32.375 
L 38.96875 32.375 
Q 38.375 37.5 34.484375 42.9375 
Q 30.609375 48.390625 20.90625 48.390625 
Q 13.375 48.390625 5.515625 44.1875 
L 5.515625 52.59375 
Q 13.1875 56 21.296875 56 
Q 34.078125 56 41.421875 48.265625 
Q 48.78125 40.53125 48.78125 27.296875 
Q 48.78125 14.109375 41.625 6.34375 
Q 34.46875 -1.421875 21.921875 -1.421875 
Q 12.703125 -1.421875 5.515625 2.09375 
z
" id="DejaVuSans-1101"/>
       <path d="M 31 75.875 
Q 24.46875 64.65625 21.28125 53.65625 
Q 18.109375 42.671875 18.109375 31.390625 
Q 18.109375 20.125 21.3125 9.0625 
Q 24.515625 -2 31 -13.1875 
L 23.1875 -13.1875 
Q 15.875 -1.703125 12.234375 9.375 
Q 8.59375 20.453125 8.59375 31.390625 
Q 8.59375 42.28125 12.203125 53.3125 
Q 15.828125 64.359375 23.1875 75.875 
z
" id="DejaVuSans-40"/>
       <path d="M 46 62.703125 
L 46 35.5 
L 73.1875 35.5 
L 73.1875 27.203125 
L 46 27.203125 
L 46 0 
L 37.796875 0 
L 37.796875 27.203125 
L 10.59375 27.203125 
L 10.59375 35.5 
L 37.796875 35.5 
L 37.796875 62.703125 
z
" id="DejaVuSans-43"/>
       <path d="M 8.015625 75.875 
L 15.828125 75.875 
Q 23.140625 64.359375 26.78125 53.3125 
Q 30.421875 42.28125 30.421875 31.390625 
Q 30.421875 20.453125 26.78125 9.375 
Q 23.140625 -1.703125 15.828125 -13.1875 
L 8.015625 -13.1875 
Q 14.5 -2 17.703125 9.0625 
Q 20.90625 20.125 20.90625 31.390625 
Q 20.90625 42.671875 17.703125 53.65625 
Q 14.5 64.65625 8.015625 75.875 
z
" id="DejaVuSans-41"/>
      </defs>
      <use xlink:href="#DejaVuSans-1083"/>
      <use x="63.916016" xlink:href="#DejaVuSans-1072"/>
      <use x="125.195312" xlink:href="#DejaVuSans-1087"/>
      <use x="190.576172" xlink:href="#DejaVuSans-1080"/>
      <use x="255.566406" xlink:href="#DejaVuSans-1085"/>
      <use x="320.947266" xlink:href="#DejaVuSans-1075"/>
      <use x="373.486328" xlink:href="#DejaVuSans-1072"/>
      <use x="434.765625" xlink:href="#DejaVuSans-1091"/>
      <use x="493.945312" xlink:href="#DejaVuSans-1101"/>
      <use x="548.828125" xlink:href="#DejaVuSans-1088"/>
      <use x="612.304688" xlink:href="#DejaVuSans-32"/>
      <use x="644.091797" xlink:href="#DejaVuSans-40"/>
      <use x="683.105469" xlink:href="#DejaVuSans-1089"/>
      <use x="738.085938" xlink:href="#DejaVuSans-1090"/>
      <use x="796.337891" xlink:href="#DejaVuSans-1080"/>
      <use x="861.328125" xlink:href="#DejaVuSans-1093"/>
      <use x="920.507812" xlink:href="#DejaVuSans-1080"/>
      <use x="985.498047" xlink:href="#DejaVuSans-32"/>
      <use x="1017.285156" xlink:href="#DejaVuSans-49"/>
      <use x="1080.908203" xlink:href="#DejaVuSans-56"/>
      <use x="1144.53125" xlink:href="#DejaVuSans-43"/>
      <use x="1228.320312" xlink:href="#DejaVuSans-41"/>
     </g>
    </g>
    <g id="patch_25">
     <path d="M 233.64 131.67125 
L 253.64 131.67125 
L 253.64 124.67125 
L 233.64 124.67125 
z
" style="fill:#9467bd;"/>
    </g>
    <g id="text_15">
     <!-- Движение ЗА ПРАВДУ/Захар Прилепин/Калининград/ -->
     <g transform="translate(261.64 131.67125)scale(0.1 -0.1)">
      <defs>
       <path d="M 25.390625 72.90625 
L 33.6875 72.90625 
L 8.296875 -9.28125 
L 0 -9.28125 
z
" id="DejaVuSans-47"/>
       <path d="M 9.8125 72.90625 
L 19.671875 72.90625 
L 19.671875 36.859375 
L 54.9375 72.90625 
L 67.578125 72.90625 
L 39.40625 44.09375 
L 69.046875 0 
L 58.296875 0 
L 33.015625 37.546875 
L 19.671875 23.921875 
L 19.671875 0 
L 9.8125 0 
z
" id="DejaVuSans-1050"/>
      </defs>
      <use xlink:href="#DejaVuSans-1044"/>
      <use x="78.125" xlink:href="#DejaVuSans-1074"/>
      <use x="137.060547" xlink:href="#DejaVuSans-1080"/>
      <use x="202.050781" xlink:href="#DejaVuSans-1078"/>
      <use x="292.138672" xlink:href="#DejaVuSans-1077"/>
      <use x="353.662109" xlink:href="#DejaVuSans-1085"/>
      <use x="419.042969" xlink:href="#DejaVuSans-1080"/>
      <use x="484.033203" xlink:href="#DejaVuSans-1077"/>
      <use x="545.556641" xlink:href="#DejaVuSans-32"/>
      <use x="577.34375" xlink:href="#DejaVuSans-1047"/>
      <use x="641.455078" xlink:href="#DejaVuSans-1040"/>
      <use x="709.863281" xlink:href="#DejaVuSans-32"/>
      <use x="741.650391" xlink:href="#DejaVuSans-1055"/>
      <use x="816.845703" xlink:href="#DejaVuSans-1056"/>
      <use x="877.148438" xlink:href="#DejaVuSans-1040"/>
      <use x="945.556641" xlink:href="#DejaVuSans-1042"/>
      <use x="1014.160156" xlink:href="#DejaVuSans-1044"/>
      <use x="1092.285156" xlink:href="#DejaVuSans-1059"/>
      <use x="1153.222656" xlink:href="#DejaVuSans-47"/>
      <use x="1186.914062" xlink:href="#DejaVuSans-1047"/>
      <use x="1251.025391" xlink:href="#DejaVuSans-1072"/>
      <use x="1312.304688" xlink:href="#DejaVuSans-1093"/>
      <use x="1371.484375" xlink:href="#DejaVuSans-1072"/>
      <use x="1432.763672" xlink:href="#DejaVuSans-1088"/>
      <use x="1496.240234" xlink:href="#DejaVuSans-32"/>
      <use x="1528.027344" xlink:href="#DejaVuSans-1055"/>
      <use x="1603.222656" xlink:href="#DejaVuSans-1088"/>
      <use x="1666.699219" xlink:href="#DejaVuSans-1080"/>
      <use x="1731.689453" xlink:href="#DejaVuSans-1083"/>
      <use x="1795.605469" xlink:href="#DejaVuSans-1077"/>
      <use x="1857.128906" xlink:href="#DejaVuSans-1087"/>
      <use x="1922.509766" xlink:href="#DejaVuSans-1080"/>
      <use x="1987.5" xlink:href="#DejaVuSans-1085"/>
      <use x="2052.880859" xlink:href="#DejaVuSans-47"/>
      <use x="2086.572266" xlink:href="#DejaVuSans-1050"/>
      <use x="2157.568359" xlink:href="#DejaVuSans-1072"/>
      <use x="2218.847656" xlink:href="#DejaVuSans-1083"/>
      <use x="2282.763672" xlink:href="#DejaVuSans-1080"/>
      <use x="2347.753906" xlink:href="#DejaVuSans-1085"/>
      <use x="2413.134766" xlink:href="#DejaVuSans-1080"/>
      <use x="2478.125" xlink:href="#DejaVuSans-1085"/>
      <use x="2543.505859" xlink:href="#DejaVuSans-1075"/>
      <use x="2596.044922" xlink:href="#DejaVuSans-1088"/>
      <use x="2659.521484" xlink:href="#DejaVuSans-1072"/>
      <use x="2720.800781" xlink:href="#DejaVuSans-1076"/>
      <use x="2789.941406" xlink:href="#DejaVuSans-47"/>
     </g>
    </g>
    <g id="patch_26">
     <path d="M 233.64 146.519687 
L 253.64 146.519687 
L 253.64 139.519687 
L 233.64 139.519687 
z
" style="fill:#8c564b;"/>
    </g>
    <g id="text_16">
     <!-- Типография Хорс, визитки, листовки, Екатеринбург -->
     <g transform="translate(261.64 146.519687)scale(0.1 -0.1)">
      <defs>
       <path d="M 14.796875 27.296875 
Q 14.796875 15.828125 18.328125 10.96875 
Q 21.875 6.109375 27.875 6.109375 
Q 32.671875 6.109375 38.234375 14.3125 
L 38.234375 40.28125 
Q 32.671875 48.484375 27.875 48.484375 
Q 21.875 48.484375 18.328125 43.625 
Q 14.796875 38.765625 14.796875 27.296875 
z
M 38.234375 -20.796875 
L 38.234375 6.984375 
Q 35.453125 2.390625 32.25 0.484375 
Q 29.046875 -1.421875 25 -1.421875 
Q 16.84375 -1.421875 11.15625 6.125 
Q 5.46875 13.671875 5.46875 27.09375 
Q 5.46875 40.53125 11.15625 48.265625 
Q 16.84375 56 25 56 
Q 29.046875 56 32.25 54.140625 
Q 35.453125 52.296875 38.234375 47.703125 
L 38.234375 72.90625 
L 47.265625 72.90625 
L 47.265625 47.703125 
Q 50.046875 52.296875 53.25 54.140625 
Q 56.453125 56 60.5 56 
Q 68.65625 56 74.34375 48.265625 
Q 80.03125 40.53125 80.03125 27.09375 
Q 80.03125 13.671875 74.34375 6.125 
Q 68.65625 -1.421875 60.5 -1.421875 
Q 56.453125 -1.421875 53.25 0.484375 
Q 50.046875 2.390625 47.265625 6.984375 
L 47.265625 -20.796875 
z
M 70.703125 27.296875 
Q 70.703125 38.765625 67.15625 43.625 
Q 63.625 48.484375 57.625 48.484375 
Q 52.828125 48.484375 47.265625 40.28125 
L 47.265625 14.3125 
Q 52.828125 6.109375 57.625 6.109375 
Q 63.625 6.109375 67.15625 10.96875 
Q 70.703125 15.828125 70.703125 27.296875 
z
" id="DejaVuSans-1092"/>
       <path d="M 6.296875 72.90625 
L 16.890625 72.90625 
L 35.015625 45.796875 
L 53.21875 72.90625 
L 63.8125 72.90625 
L 40.375 37.890625 
L 65.375 0 
L 54.78125 0 
L 34.28125 31 
L 13.625 0 
L 2.984375 0 
L 29 38.921875 
z
" id="DejaVuSans-1061"/>
       <path d="M 11.71875 12.40625 
L 22.015625 12.40625 
L 22.015625 4 
L 14.015625 -11.625 
L 7.71875 -11.625 
L 11.71875 4 
z
" id="DejaVuSans-44"/>
       <path d="M 34.46875 29.5 
Q 40.53125 28.328125 43.890625 24.75 
Q 47.265625 21.1875 47.265625 15.921875 
Q 47.265625 7.46875 40.96875 3.015625 
Q 34.671875 -1.421875 23.046875 -1.421875 
Q 19.140625 -1.421875 15.015625 -0.734375 
Q 10.890625 -0.046875 6.5 1.3125 
L 6.5 9.671875 
Q 9.96875 7.859375 14.109375 6.953125 
Q 18.265625 6.0625 22.796875 6.0625 
Q 30.171875 6.0625 34.296875 8.796875 
Q 38.421875 11.53125 38.421875 15.921875 
Q 38.421875 20.21875 34.765625 22.828125 
Q 31.109375 25.4375 24.421875 25.4375 
L 17.1875 25.4375 
L 17.1875 32.859375 
L 24.75 32.859375 
Q 30.421875 32.859375 33.71875 35.03125 
Q 37.015625 37.203125 37.015625 40.625 
Q 37.015625 43.75 33.609375 46 
Q 30.21875 48.25 24.421875 48.25 
Q 20.953125 48.25 17.015625 47.609375 
Q 13.09375 46.96875 8.34375 45.5625 
L 8.34375 53.71875 
Q 13.140625 54.890625 17.28125 55.46875 
Q 21.4375 56.0625 25.140625 56.0625 
Q 34.71875 56.0625 40.25 52.21875 
Q 45.796875 48.390625 45.796875 41.5 
Q 45.796875 36.96875 42.859375 33.8125 
Q 39.9375 30.671875 34.46875 29.5 
z
" id="DejaVuSans-1079"/>
       <path d="M 9.8125 72.90625 
L 55.90625 72.90625 
L 55.90625 64.59375 
L 19.671875 64.59375 
L 19.671875 43.015625 
L 54.390625 43.015625 
L 54.390625 34.71875 
L 19.671875 34.71875 
L 19.671875 8.296875 
L 56.78125 8.296875 
L 56.78125 0 
L 9.8125 0 
z
" id="DejaVuSans-1045"/>
       <path d="M 31.109375 56 
Q 42.828125 56 49.515625 48.375 
Q 56.203125 40.765625 56.203125 27.296875 
Q 56.203125 13.875 49.515625 6.21875 
Q 42.828125 -1.421875 31.109375 -1.421875 
Q 19.34375 -1.421875 12.84375 6 
Q 6.34375 13.421875 6 27.296875 
L 5.71875 38.484375 
Q 5.46875 44.28125 5.46875 46.296875 
Q 5.46875 54.109375 8.296875 59.859375 
Q 12.75 68.890625 20.4375 72.796875 
Q 28.125 76.703125 41.015625 76.8125 
Q 46.96875 76.859375 49.609375 77.6875 
L 52.09375 70.5625 
Q 49.703125 69.578125 47.515625 69.53125 
L 35.296875 68.703125 
Q 29.15625 68.265625 25.4375 66.109375 
Q 15.71875 60.40625 14.796875 52.9375 
L 14.453125 50.203125 
Q 20.796875 56 31.109375 56 
z
M 31.109375 48.390625 
Q 23.875 48.390625 19.671875 42.75 
Q 15.484375 37.109375 15.484375 27.296875 
Q 15.484375 17.484375 19.65625 11.84375 
Q 23.828125 6.203125 31.109375 6.203125 
Q 38.28125 6.203125 42.484375 11.859375 
Q 46.6875 17.53125 46.6875 27.296875 
Q 46.6875 37.015625 42.484375 42.703125 
Q 38.28125 48.390625 31.109375 48.390625 
z
" id="DejaVuSans-1073"/>
      </defs>
      <use xlink:href="#DejaVuSans-1058"/>
      <use x="61.083984" xlink:href="#DejaVuSans-1080"/>
      <use x="126.074219" xlink:href="#DejaVuSans-1087"/>
      <use x="191.455078" xlink:href="#DejaVuSans-1086"/>
      <use x="252.636719" xlink:href="#DejaVuSans-1075"/>
      <use x="305.175781" xlink:href="#DejaVuSans-1088"/>
      <use x="368.652344" xlink:href="#DejaVuSans-1072"/>
      <use x="429.931641" xlink:href="#DejaVuSans-1092"/>
      <use x="515.429688" xlink:href="#DejaVuSans-1080"/>
      <use x="580.419922" xlink:href="#DejaVuSans-1103"/>
      <use x="640.576172" xlink:href="#DejaVuSans-32"/>
      <use x="672.363281" xlink:href="#DejaVuSans-1061"/>
      <use x="740.869141" xlink:href="#DejaVuSans-1086"/>
      <use x="802.050781" xlink:href="#DejaVuSans-1088"/>
      <use x="865.527344" xlink:href="#DejaVuSans-1089"/>
      <use x="920.507812" xlink:href="#DejaVuSans-44"/>
      <use x="952.294922" xlink:href="#DejaVuSans-32"/>
      <use x="984.082031" xlink:href="#DejaVuSans-1074"/>
      <use x="1043.017578" xlink:href="#DejaVuSans-1080"/>
      <use x="1108.007812" xlink:href="#DejaVuSans-1079"/>
      <use x="1161.181641" xlink:href="#DejaVuSans-1080"/>
      <use x="1226.171875" xlink:href="#DejaVuSans-1090"/>
      <use x="1284.423828" xlink:href="#DejaVuSans-1082"/>
      <use x="1344.824219" xlink:href="#DejaVuSans-1080"/>
      <use x="1409.814453" xlink:href="#DejaVuSans-44"/>
      <use x="1441.601562" xlink:href="#DejaVuSans-32"/>
      <use x="1473.388672" xlink:href="#DejaVuSans-1083"/>
      <use x="1537.304688" xlink:href="#DejaVuSans-1080"/>
      <use x="1602.294922" xlink:href="#DejaVuSans-1089"/>
      <use x="1657.275391" xlink:href="#DejaVuSans-1090"/>
      <use x="1715.527344" xlink:href="#DejaVuSans-1086"/>
      <use x="1776.708984" xlink:href="#DejaVuSans-1074"/>
      <use x="1835.644531" xlink:href="#DejaVuSans-1082"/>
      <use x="1896.044922" xlink:href="#DejaVuSans-1080"/>
      <use x="1961.035156" xlink:href="#DejaVuSans-44"/>
      <use x="1992.822266" xlink:href="#DejaVuSans-32"/>
      <use x="2024.609375" xlink:href="#DejaVuSans-1045"/>
      <use x="2087.792969" xlink:href="#DejaVuSans-1082"/>
      <use x="2148.193359" xlink:href="#DejaVuSans-1072"/>
      <use x="2209.472656" xlink:href="#DejaVuSans-1090"/>
      <use x="2267.724609" xlink:href="#DejaVuSans-1077"/>
      <use x="2329.248047" xlink:href="#DejaVuSans-1088"/>
      <use x="2392.724609" xlink:href="#DejaVuSans-1080"/>
      <use x="2457.714844" xlink:href="#DejaVuSans-1085"/>
      <use x="2523.095703" xlink:href="#DejaVuSans-1073"/>
      <use x="2584.765625" xlink:href="#DejaVuSans-1091"/>
      <use x="2643.945312" xlink:href="#DejaVuSans-1088"/>
      <use x="2707.421875" xlink:href="#DejaVuSans-1075"/>
     </g>
    </g>
    <g id="patch_27">
     <path d="M 233.64 161.197812 
L 253.64 161.197812 
L 253.64 154.197812 
L 233.64 154.197812 
z
" style="fill:#e377c2;"/>
    </g>
    <g id="text_17">
     <!-- СЕРЕБРО БУСЫ СУВЕНИРЫ РЕМОНТ СКУПКА ЗАРЕЧНЫЙ -->
     <g transform="translate(261.64 161.197812)scale(0.1 -0.1)">
      <defs>
       <path d="M 64.40625 67.28125 
L 64.40625 56.890625 
Q 59.421875 61.53125 53.78125 63.8125 
Q 48.140625 66.109375 41.796875 66.109375 
Q 29.296875 66.109375 22.65625 58.46875 
Q 16.015625 50.828125 16.015625 36.375 
Q 16.015625 21.96875 22.65625 14.328125 
Q 29.296875 6.6875 41.796875 6.6875 
Q 48.140625 6.6875 53.78125 8.984375 
Q 59.421875 11.28125 64.40625 15.921875 
L 64.40625 5.609375 
Q 59.234375 2.09375 53.4375 0.328125 
Q 47.65625 -1.421875 41.21875 -1.421875 
Q 24.65625 -1.421875 15.125 8.703125 
Q 5.609375 18.84375 5.609375 36.375 
Q 5.609375 53.953125 15.125 64.078125 
Q 24.65625 74.21875 41.21875 74.21875 
Q 47.75 74.21875 53.53125 72.484375 
Q 59.328125 70.75 64.40625 67.28125 
z
" id="DejaVuSans-1057"/>
       <path d="M 51.125 21.4375 
Q 51.125 28.21875 47.28125 31.515625 
Q 43.453125 34.8125 35.5 34.8125 
L 19.671875 34.8125 
L 19.671875 8.109375 
L 35.5 8.109375 
Q 43.453125 8.109375 47.28125 11.40625 
Q 51.125 14.703125 51.125 21.4375 
z
M 56.390625 72.90625 
L 56.390625 64.796875 
L 19.671875 64.796875 
L 19.671875 42.921875 
L 35.984375 42.921875 
Q 48.25 42.921875 54.890625 37.59375 
Q 61.53125 32.28125 61.53125 21.4375 
Q 61.53125 10.640625 55.109375 5.3125 
Q 48.6875 0 35.984375 0 
L 9.8125 0 
L 9.8125 72.90625 
z
" id="DejaVuSans-1041"/>
       <path d="M 39.40625 66.21875 
Q 28.65625 66.21875 22.328125 58.203125 
Q 16.015625 50.203125 16.015625 36.375 
Q 16.015625 22.609375 22.328125 14.59375 
Q 28.65625 6.59375 39.40625 6.59375 
Q 50.140625 6.59375 56.421875 14.59375 
Q 62.703125 22.609375 62.703125 36.375 
Q 62.703125 50.203125 56.421875 58.203125 
Q 50.140625 66.21875 39.40625 66.21875 
z
M 39.40625 74.21875 
Q 54.734375 74.21875 63.90625 63.9375 
Q 73.09375 53.65625 73.09375 36.375 
Q 73.09375 19.140625 63.90625 8.859375 
Q 54.734375 -1.421875 39.40625 -1.421875 
Q 24.03125 -1.421875 14.8125 8.828125 
Q 5.609375 19.09375 5.609375 36.375 
Q 5.609375 53.65625 14.8125 63.9375 
Q 24.03125 74.21875 39.40625 74.21875 
z
" id="DejaVuSans-1054"/>
       <path d="M 51.125 21.4375 
Q 51.125 28.21875 47.265625 31.546875 
Q 43.453125 34.8125 35.5 34.8125 
L 19.671875 34.8125 
L 19.671875 8.109375 
L 35.5 8.109375 
Q 43.453125 8.109375 47.265625 11.421875 
Q 51.125 14.703125 51.125 21.4375 
z
M 9.8125 72.90625 
L 19.671875 72.90625 
L 19.671875 42.921875 
L 35.984375 42.921875 
Q 48.25 42.921875 54.890625 37.59375 
Q 61.53125 32.28125 61.53125 21.4375 
Q 61.53125 10.640625 54.890625 5.3125 
Q 48.25 0 35.984375 0 
L 9.8125 0 
z
M 68.5625 72.90625 
L 78.421875 72.90625 
L 78.421875 0 
L 68.5625 0 
z
" id="DejaVuSans-1067"/>
       <path d="M 9.8125 72.90625 
L 19.671875 72.90625 
L 19.671875 43.015625 
L 55.515625 43.015625 
L 55.515625 72.90625 
L 65.375 72.90625 
L 65.375 0 
L 55.515625 0 
L 55.515625 34.71875 
L 19.671875 34.71875 
L 19.671875 0 
L 9.8125 0 
z
" id="DejaVuSans-1053"/>
       <path d="M 64.984375 72.90625 
L 64.984375 0 
L 55.421875 0 
L 55.421875 60.984375 
L 23.09375 0 
L 9.8125 0 
L 9.8125 72.90625 
L 19.390625 72.90625 
L 19.390625 11.921875 
L 51.703125 72.90625 
z
" id="DejaVuSans-1048"/>
       <path d="M 9.8125 72.90625 
L 24.515625 72.90625 
L 43.109375 23.296875 
L 61.8125 72.90625 
L 76.515625 72.90625 
L 76.515625 0 
L 66.890625 0 
L 66.890625 64.015625 
L 48.09375 14.015625 
L 38.1875 14.015625 
L 19.390625 64.015625 
L 19.390625 0 
L 9.8125 0 
z
" id="DejaVuSans-1052"/>
       <path d="M 48.828125 0 
L 48.828125 29.890625 
L 28.46875 29.890625 
Q 19.390625 29.890625 13.96875 35.578125 
Q 8.546875 41.265625 8.546875 52.875 
L 8.546875 72.90625 
L 18.359375 72.90625 
L 18.359375 53.65625 
Q 18.359375 45.90625 21.390625 42.046875 
Q 24.421875 38.1875 30.46875 38.1875 
L 48.828125 38.1875 
L 48.828125 72.90625 
L 58.734375 72.90625 
L 58.734375 0 
z
" id="DejaVuSans-1063"/>
       <path d="M 64.984375 72.90625 
L 64.984375 0 
L 55.421875 0 
L 55.421875 60.984375 
L 23.09375 0 
L 9.8125 0 
L 9.8125 72.90625 
L 19.390625 72.90625 
L 19.390625 11.921875 
L 51.703125 72.90625 
z
M 21.71875 92.609375 
L 27.484375 92.609375 
Q 28.109375 89.96875 30.53125 88.578125 
Q 32.953125 87.1875 37 87.1875 
Q 41 87.1875 43.359375 88.53125 
Q 45.734375 89.875 46.515625 92.609375 
L 52.28125 92.609375 
Q 51.796875 86.796875 47.890625 83.796875 
Q 43.984375 80.796875 37 80.796875 
Q 29.96875 80.796875 26.078125 83.765625 
Q 22.203125 86.75 21.71875 92.609375 
z
" id="DejaVuSans-1049"/>
      </defs>
      <use xlink:href="#DejaVuSans-1057"/>
      <use x="69.824219" xlink:href="#DejaVuSans-1045"/>
      <use x="133.007812" xlink:href="#DejaVuSans-1056"/>
      <use x="193.310547" xlink:href="#DejaVuSans-1045"/>
      <use x="256.494141" xlink:href="#DejaVuSans-1041"/>
      <use x="325.097656" xlink:href="#DejaVuSans-1056"/>
      <use x="385.400391" xlink:href="#DejaVuSans-1054"/>
      <use x="464.111328" xlink:href="#DejaVuSans-32"/>
      <use x="495.898438" xlink:href="#DejaVuSans-1041"/>
      <use x="564.501953" xlink:href="#DejaVuSans-1059"/>
      <use x="625.439453" xlink:href="#DejaVuSans-1057"/>
      <use x="695.263672" xlink:href="#DejaVuSans-1067"/>
      <use x="783.496094" xlink:href="#DejaVuSans-32"/>
      <use x="815.283203" xlink:href="#DejaVuSans-1057"/>
      <use x="885.107422" xlink:href="#DejaVuSans-1059"/>
      <use x="946.044922" xlink:href="#DejaVuSans-1042"/>
      <use x="1014.648438" xlink:href="#DejaVuSans-1045"/>
      <use x="1077.832031" xlink:href="#DejaVuSans-1053"/>
      <use x="1153.027344" xlink:href="#DejaVuSans-1048"/>
      <use x="1227.832031" xlink:href="#DejaVuSans-1056"/>
      <use x="1288.134766" xlink:href="#DejaVuSans-1067"/>
      <use x="1376.367188" xlink:href="#DejaVuSans-32"/>
      <use x="1408.154297" xlink:href="#DejaVuSans-1056"/>
      <use x="1468.457031" xlink:href="#DejaVuSans-1045"/>
      <use x="1531.640625" xlink:href="#DejaVuSans-1052"/>
      <use x="1617.919922" xlink:href="#DejaVuSans-1054"/>
      <use x="1696.630859" xlink:href="#DejaVuSans-1053"/>
      <use x="1771.826172" xlink:href="#DejaVuSans-1058"/>
      <use x="1832.910156" xlink:href="#DejaVuSans-32"/>
      <use x="1864.697266" xlink:href="#DejaVuSans-1057"/>
      <use x="1934.521484" xlink:href="#DejaVuSans-1050"/>
      <use x="2005.517578" xlink:href="#DejaVuSans-1059"/>
      <use x="2066.455078" xlink:href="#DejaVuSans-1055"/>
      <use x="2141.650391" xlink:href="#DejaVuSans-1050"/>
      <use x="2212.646484" xlink:href="#DejaVuSans-1040"/>
      <use x="2281.054688" xlink:href="#DejaVuSans-32"/>
      <use x="2312.841797" xlink:href="#DejaVuSans-1047"/>
      <use x="2376.953125" xlink:href="#DejaVuSans-1040"/>
      <use x="2445.361328" xlink:href="#DejaVuSans-1056"/>
      <use x="2505.664062" xlink:href="#DejaVuSans-1045"/>
      <use x="2568.847656" xlink:href="#DejaVuSans-1063"/>
      <use x="2637.402344" xlink:href="#DejaVuSans-1053"/>
      <use x="2712.597656" xlink:href="#DejaVuSans-1067"/>
      <use x="2800.830078" xlink:href="#DejaVuSans-1049"/>
     </g>
    </g>
    <g id="patch_28">
     <path d="M 233.64 175.875937 
L 253.64 175.875937 
L 253.64 168.875937 
L 233.64 168.875937 
z
" style="fill:#7f7f7f;"/>
    </g>
    <g id="text_18">
     <!-- ЗА ПРАВДУ Уфа -->
     <g transform="translate(261.64 175.875937)scale(0.1 -0.1)">
      <use xlink:href="#DejaVuSans-1047"/>
      <use x="64.111328" xlink:href="#DejaVuSans-1040"/>
      <use x="132.519531" xlink:href="#DejaVuSans-32"/>
      <use x="164.306641" xlink:href="#DejaVuSans-1055"/>
      <use x="239.501953" xlink:href="#DejaVuSans-1056"/>
      <use x="299.804688" xlink:href="#DejaVuSans-1040"/>
      <use x="368.212891" xlink:href="#DejaVuSans-1042"/>
      <use x="436.816406" xlink:href="#DejaVuSans-1044"/>
      <use x="514.941406" xlink:href="#DejaVuSans-1059"/>
      <use x="575.878906" xlink:href="#DejaVuSans-32"/>
      <use x="607.666016" xlink:href="#DejaVuSans-1059"/>
      <use x="668.603516" xlink:href="#DejaVuSans-1092"/>
      <use x="754.101562" xlink:href="#DejaVuSans-1072"/>
     </g>
    </g>
    <g id="patch_29">
     <path d="M 233.64 190.554062 
L 253.64 190.554062 
L 253.64 183.554062 
L 233.64 183.554062 
z
" style="fill:#bcbd22;"/>
    </g>
    <g id="text_19">
     <!-- НОД Пенза :: официальная группа -->
     <g transform="translate(261.64 190.554062)scale(0.1 -0.1)">
      <defs>
       <path d="M 11.71875 12.40625 
L 22.015625 12.40625 
L 22.015625 0 
L 11.71875 0 
z
M 11.71875 51.703125 
L 22.015625 51.703125 
L 22.015625 39.3125 
L 11.71875 39.3125 
z
" id="DejaVuSans-58"/>
       <path d="M 56.296875 0 
L 9.078125 0 
L 9.078125 54.6875 
L 18.109375 54.6875 
L 18.109375 7.171875 
L 47.265625 7.171875 
L 47.265625 54.6875 
L 56.296875 54.6875 
L 56.296875 7.171875 
L 63.484375 7.171875 
L 63.484375 -13.8125 
L 56.296875 -13.8125 
z
" id="DejaVuSans-1094"/>
       <path d="M 43.453125 16.21875 
Q 43.453125 20.609375 40.25 22.90625 
Q 37.0625 25.203125 30.90625 25.203125 
L 18.109375 25.203125 
L 18.109375 7.171875 
L 30.90625 7.171875 
Q 37.0625 7.171875 40.25 9.484375 
Q 43.453125 11.8125 43.453125 16.21875 
z
M 9.078125 54.6875 
L 18.109375 54.6875 
L 18.109375 32.375 
L 31.296875 32.375 
Q 41.75 32.375 47.390625 28.390625 
Q 53.03125 24.421875 53.03125 16.21875 
Q 53.03125 8.015625 47.390625 4 
Q 41.75 0 31.296875 0 
L 9.078125 0 
z
" id="DejaVuSans-1100"/>
      </defs>
      <use xlink:href="#DejaVuSans-1053"/>
      <use x="75.195312" xlink:href="#DejaVuSans-1054"/>
      <use x="153.90625" xlink:href="#DejaVuSans-1044"/>
      <use x="232.03125" xlink:href="#DejaVuSans-32"/>
      <use x="263.818359" xlink:href="#DejaVuSans-1055"/>
      <use x="339.013672" xlink:href="#DejaVuSans-1077"/>
      <use x="400.537109" xlink:href="#DejaVuSans-1085"/>
      <use x="465.917969" xlink:href="#DejaVuSans-1079"/>
      <use x="519.091797" xlink:href="#DejaVuSans-1072"/>
      <use x="580.371094" xlink:href="#DejaVuSans-32"/>
      <use x="612.158203" xlink:href="#DejaVuSans-58"/>
      <use x="645.849609" xlink:href="#DejaVuSans-58"/>
      <use x="679.541016" xlink:href="#DejaVuSans-32"/>
      <use x="711.328125" xlink:href="#DejaVuSans-1086"/>
      <use x="772.509766" xlink:href="#DejaVuSans-1092"/>
      <use x="858.007812" xlink:href="#DejaVuSans-1080"/>
      <use x="922.998047" xlink:href="#DejaVuSans-1094"/>
      <use x="991.064453" xlink:href="#DejaVuSans-1080"/>
      <use x="1056.054688" xlink:href="#DejaVuSans-1072"/>
      <use x="1117.333984" xlink:href="#DejaVuSans-1083"/>
      <use x="1181.25" xlink:href="#DejaVuSans-1100"/>
      <use x="1240.185547" xlink:href="#DejaVuSans-1085"/>
      <use x="1305.566406" xlink:href="#DejaVuSans-1072"/>
      <use x="1366.845703" xlink:href="#DejaVuSans-1103"/>
      <use x="1427.001953" xlink:href="#DejaVuSans-32"/>
      <use x="1458.789062" xlink:href="#DejaVuSans-1075"/>
      <use x="1511.328125" xlink:href="#DejaVuSans-1088"/>
      <use x="1574.804688" xlink:href="#DejaVuSans-1091"/>
      <use x="1633.984375" xlink:href="#DejaVuSans-1087"/>
      <use x="1699.365234" xlink:href="#DejaVuSans-1087"/>
      <use x="1764.746094" xlink:href="#DejaVuSans-1072"/>
     </g>
    </g>
   </g>
  </g>
 </g>
</svg>
