<?xml version="1.0" encoding="utf-8" standalone="no"?>
<!DOCTYPE svg PUBLIC "-//W3C//DTD SVG 1.1//EN"
  "http://www.w3.org/Graphics/SVG/1.1/DTD/svg11.dtd">
<!-- Created with matplotlib (https://matplotlib.org/) -->
<svg height="231.84pt" version="1.1" viewBox="0 0 544.1025 231.84" width="544.1025pt" xmlns="http://www.w3.org/2000/svg" xmlns:xlink="http://www.w3.org/1999/xlink">
 <metadata>
  <rdf:RDF xmlns:cc="http://creativecommons.org/ns#" xmlns:dc="http://purl.org/dc/elements/1.1/" xmlns:rdf="http://www.w3.org/1999/02/22-rdf-syntax-ns#">
   <cc:Work>
    <dc:type rdf:resource="http://purl.org/dc/dcmitype/StillImage"/>
    <dc:date>2020-12-02T23:37:31.204660</dc:date>
    <dc:format>image/svg+xml</dc:format>
    <dc:creator>
     <cc:Agent>
      <dc:title>Matplotlib v3.3.3, https://matplotlib.org/</dc:title>
     </cc:Agent>
    </dc:creator>
   </cc:Work>
  </rdf:RDF>
 </metadata>
 <defs>
  <style type="text/css">*{stroke-linecap:butt;stroke-linejoin:round;}</style>
 </defs>
 <g id="figure_1">
  <g id="patch_1">
   <path d="M 0 231.84 
L 544.1025 231.84 
L 544.1025 0 
L 0 0 
z
" style="fill:none;"/>
  </g>
  <g id="axes_1">
   <g id="patch_2">
    <path d="M 209.081981 114.076968 
C 209.081981 101.722688 206.449734 89.509018 201.360991 78.251446 
C 196.272248 66.993875 188.842843 56.948656 179.568828 48.786496 
L 122.105981 114.076968 
L 209.081981 114.076968 
z
" style="fill:#092436;opacity:0.5;stroke:#092436;stroke-linejoin:miter;"/>
   </g>
   <g id="patch_3">
    <path d="M 174.540844 44.168277 
C 166.200119 36.827515 156.529485 31.152561 146.053166 27.451041 
C 135.576848 23.749522 124.487629 22.089553 113.386633 22.561117 
L 117.077997 109.458749 
L 174.540844 44.168277 
z
" style="fill:#4c2604;opacity:0.5;stroke:#4c2604;stroke-linejoin:miter;"/>
   </g>
   <g id="patch_4">
    <path d="M 106.906564 22.836387 
C 95.805568 23.307951 84.897073 25.902371 74.772406 30.479009 
C 64.64774 35.055647 55.493213 41.530284 47.805075 49.551943 
L 110.597928 109.734019 
L 106.906564 22.836387 
z
" style="fill:#0d300d;opacity:0.5;stroke:#0d300d;stroke-linejoin:miter;"/>
   </g>
   <g id="patch_5">
    <path d="M 43.31722 54.234488 
C 35.629082 62.256147 29.548808 71.677216 25.405997 81.986998 
C 21.263185 92.29678 19.134072 103.305556 19.134072 114.416563 
L 106.110072 114.416563 
L 43.31722 54.234488 
z
" style="fill:#400c0c;opacity:0.5;stroke:#400c0c;stroke-linejoin:miter;"/>
   </g>
   <g id="patch_6">
    <path d="M 19.134072 120.902477 
C 19.134072 132.013484 21.263185 143.02226 25.405997 153.332042 
C 29.548808 163.641824 35.629082 173.062893 43.31722 181.084552 
L 106.110072 120.902477 
L 19.134072 120.902477 
z
" style="fill:#2c1f39;opacity:0.5;stroke:#2c1f39;stroke-linejoin:miter;"/>
   </g>
   <g id="patch_7">
    <path d="M 47.145852 185.434724 
C 53.11839 191.666357 59.985445 196.974338 67.520951 201.183924 
C 75.056457 205.39351 83.176805 208.457994 91.614667 210.276493 
L 109.938705 125.252648 
L 47.145852 185.434724 
z
" style="fill:#2a1a16;opacity:0.5;stroke:#2a1a16;stroke-linejoin:miter;"/>
   </g>
   <g id="patch_8">
    <path d="M 96.594051 211.349632 
C 105.031914 213.16813 113.693671 213.720465 122.294172 212.988454 
C 130.894674 212.256443 139.338494 210.248208 147.347658 207.029861 
L 114.918088 126.325787 
L 96.594051 211.349632 
z
" style="fill:#44243a;opacity:0.5;stroke:#44243a;stroke-linejoin:miter;"/>
   </g>
   <g id="patch_9">
    <path d="M 152.074056 205.130638 
C 160.08322 201.912291 167.568863 197.51954 174.284553 192.096998 
C 181.000244 186.674456 186.871469 180.282287 191.704946 173.130925 
L 119.644487 124.426563 
L 152.074056 205.130638 
z
" style="fill:#262626;opacity:0.5;stroke:#262626;stroke-linejoin:miter;"/>
   </g>
   <g id="patch_10">
    <path d="M 194.557295 168.910736 
C 199.390771 161.759375 203.132869 153.928167 205.660396 145.674921 
C 208.187923 137.421675 209.472837 128.837963 209.472836 120.206366 
L 122.496836 120.206375 
L 194.557295 168.910736 
z
" style="fill:#38390a;opacity:0.5;stroke:#38390a;stroke-linejoin:miter;"/>
   </g>
   <g id="patch_11">
    <path d="M 210.821501 112.337448 
C 210.821501 99.983168 208.189254 87.769498 203.100511 76.511926 
C 198.011768 65.254355 190.582363 55.209136 181.308348 47.046976 
L 123.845501 112.337448 
L 210.821501 112.337448 
z
" style="fill:#1f77b4;"/>
   </g>
   <g id="patch_12">
    <path d="M 176.280364 42.428757 
C 167.939639 35.087995 158.269005 29.413041 147.792686 25.711521 
C 137.316368 22.010002 126.227149 20.350033 115.126153 20.821597 
L 118.817517 107.719229 
L 176.280364 42.428757 
z
" style="fill:#ff7f0e;"/>
   </g>
   <g id="patch_13">
    <path d="M 108.646084 21.096867 
C 97.545088 21.568431 86.636593 24.162851 76.511926 28.739489 
C 66.38726 33.316127 57.232733 39.790764 49.544595 47.812423 
L 112.337448 107.994499 
L 108.646084 21.096867 
z
" style="fill:#2ca02c;"/>
   </g>
   <g id="patch_14">
    <path d="M 45.05674 52.494968 
C 37.368602 60.516627 31.288328 69.937696 27.145517 80.247478 
C 23.002705 90.55726 20.873592 101.566036 20.873592 112.677043 
L 107.849592 112.677043 
L 45.05674 52.494968 
z
" style="fill:#d62728;"/>
   </g>
   <g id="patch_15">
    <path d="M 20.873592 119.162957 
C 20.873592 130.273964 23.002705 141.28274 27.145517 151.592522 
C 31.288328 161.902304 37.368602 171.323373 45.05674 179.345032 
L 107.849592 119.162957 
L 20.873592 119.162957 
z
" style="fill:#9467bd;"/>
   </g>
   <g id="patch_16">
    <path d="M 48.885372 183.695204 
C 54.85791 189.926837 61.724965 195.234818 69.260471 199.444404 
C 76.795977 203.65399 84.916325 206.718474 93.354187 208.536973 
L 111.678225 123.513128 
L 48.885372 183.695204 
z
" style="fill:#8c564b;"/>
   </g>
   <g id="patch_17">
    <path d="M 98.333571 209.610112 
C 106.771434 211.42861 115.433191 211.980945 124.033692 211.248934 
C 132.634194 210.516923 141.078014 208.508688 149.087178 205.290341 
L 116.657608 124.586267 
L 98.333571 209.610112 
z
" style="fill:#e377c2;"/>
   </g>
   <g id="patch_18">
    <path d="M 153.813576 203.391118 
C 161.82274 200.172771 169.308383 195.78002 176.024073 190.357478 
C 182.739764 184.934936 188.610989 178.542767 193.444466 171.391405 
L 121.384007 122.687043 
L 153.813576 203.391118 
z
" style="fill:#7f7f7f;"/>
   </g>
   <g id="patch_19">
    <path d="M 196.296815 167.171216 
C 201.130291 160.019855 204.872389 152.188647 207.399916 143.935401 
C 209.927443 135.682155 211.212357 127.098443 211.212356 118.466846 
L 124.236356 118.466855 
L 196.296815 167.171216 
z
" style="fill:#bcbd22;"/>
   </g>
   <g id="matplotlib.axis_1"/>
   <g id="matplotlib.axis_2"/>
   <g id="text_1">
    <!-- 13.5% -->
    <g style="fill:#ffffff;" transform="translate(155.514913 93.60151)scale(0.1 -0.1)">
     <defs>
      <path d="M 12.40625 8.296875 
L 28.515625 8.296875 
L 28.515625 63.921875 
L 10.984375 60.40625 
L 10.984375 69.390625 
L 28.421875 72.90625 
L 38.28125 72.90625 
L 38.28125 8.296875 
L 54.390625 8.296875 
L 54.390625 0 
L 12.40625 0 
z
" id="DejaVuSans-49"/>
      <path d="M 40.578125 39.3125 
Q 47.65625 37.796875 51.625 33 
Q 55.609375 28.21875 55.609375 21.1875 
Q 55.609375 10.40625 48.1875 4.484375 
Q 40.765625 -1.421875 27.09375 -1.421875 
Q 22.515625 -1.421875 17.65625 -0.515625 
Q 12.796875 0.390625 7.625 2.203125 
L 7.625 11.71875 
Q 11.71875 9.328125 16.59375 8.109375 
Q 21.484375 6.890625 26.8125 6.890625 
Q 36.078125 6.890625 40.9375 10.546875 
Q 45.796875 14.203125 45.796875 21.1875 
Q 45.796875 27.640625 41.28125 31.265625 
Q 36.765625 34.90625 28.71875 34.90625 
L 20.21875 34.90625 
L 20.21875 43.015625 
L 29.109375 43.015625 
Q 36.375 43.015625 40.234375 45.921875 
Q 44.09375 48.828125 44.09375 54.296875 
Q 44.09375 59.90625 40.109375 62.90625 
Q 36.140625 65.921875 28.71875 65.921875 
Q 24.65625 65.921875 20.015625 65.03125 
Q 15.375 64.15625 9.8125 62.3125 
L 9.8125 71.09375 
Q 15.4375 72.65625 20.34375 73.4375 
Q 25.25 74.21875 29.59375 74.21875 
Q 40.828125 74.21875 47.359375 69.109375 
Q 53.90625 64.015625 53.90625 55.328125 
Q 53.90625 49.265625 50.4375 45.09375 
Q 46.96875 40.921875 40.578125 39.3125 
z
" id="DejaVuSans-51"/>
      <path d="M 10.6875 12.40625 
L 21 12.40625 
L 21 0 
L 10.6875 0 
z
" id="DejaVuSans-46"/>
      <path d="M 10.796875 72.90625 
L 49.515625 72.90625 
L 49.515625 64.59375 
L 19.828125 64.59375 
L 19.828125 46.734375 
Q 21.96875 47.46875 24.109375 47.828125 
Q 26.265625 48.1875 28.421875 48.1875 
Q 40.625 48.1875 47.75 41.5 
Q 54.890625 34.8125 54.890625 23.390625 
Q 54.890625 11.625 47.5625 5.09375 
Q 40.234375 -1.421875 26.90625 -1.421875 
Q 22.3125 -1.421875 17.546875 -0.640625 
Q 12.796875 0.140625 7.71875 1.703125 
L 7.71875 11.625 
Q 12.109375 9.234375 16.796875 8.0625 
Q 21.484375 6.890625 26.703125 6.890625 
Q 35.15625 6.890625 40.078125 11.328125 
Q 45.015625 15.765625 45.015625 23.390625 
Q 45.015625 31 40.078125 35.4375 
Q 35.15625 39.890625 26.703125 39.890625 
Q 22.75 39.890625 18.8125 39.015625 
Q 14.890625 38.140625 10.796875 36.28125 
z
" id="DejaVuSans-53"/>
      <path d="M 72.703125 32.078125 
Q 68.453125 32.078125 66.03125 28.46875 
Q 63.625 24.859375 63.625 18.40625 
Q 63.625 12.0625 66.03125 8.421875 
Q 68.453125 4.78125 72.703125 4.78125 
Q 76.859375 4.78125 79.265625 8.421875 
Q 81.6875 12.0625 81.6875 18.40625 
Q 81.6875 24.8125 79.265625 28.4375 
Q 76.859375 32.078125 72.703125 32.078125 
z
M 72.703125 38.28125 
Q 80.421875 38.28125 84.953125 32.90625 
Q 89.5 27.546875 89.5 18.40625 
Q 89.5 9.28125 84.9375 3.921875 
Q 80.375 -1.421875 72.703125 -1.421875 
Q 64.890625 -1.421875 60.34375 3.921875 
Q 55.8125 9.28125 55.8125 18.40625 
Q 55.8125 27.59375 60.375 32.9375 
Q 64.9375 38.28125 72.703125 38.28125 
z
M 22.3125 68.015625 
Q 18.109375 68.015625 15.6875 64.375 
Q 13.28125 60.75 13.28125 54.390625 
Q 13.28125 47.953125 15.671875 44.328125 
Q 18.0625 40.71875 22.3125 40.71875 
Q 26.5625 40.71875 28.96875 44.328125 
Q 31.390625 47.953125 31.390625 54.390625 
Q 31.390625 60.6875 28.953125 64.34375 
Q 26.515625 68.015625 22.3125 68.015625 
z
M 66.40625 74.21875 
L 74.21875 74.21875 
L 28.609375 -1.421875 
L 20.796875 -1.421875 
z
M 22.3125 74.21875 
Q 30.03125 74.21875 34.609375 68.875 
Q 39.203125 63.53125 39.203125 54.390625 
Q 39.203125 45.171875 34.640625 39.84375 
Q 30.078125 34.515625 22.3125 34.515625 
Q 14.546875 34.515625 10.03125 39.859375 
Q 5.515625 45.21875 5.515625 54.390625 
Q 5.515625 63.484375 10.046875 68.84375 
Q 14.59375 74.21875 22.3125 74.21875 
z
" id="DejaVuSans-37"/>
     </defs>
     <use xlink:href="#DejaVuSans-49"/>
     <use x="63.623047" xlink:href="#DejaVuSans-51"/>
     <use x="127.246094" xlink:href="#DejaVuSans-46"/>
     <use x="159.033203" xlink:href="#DejaVuSans-53"/>
     <use x="222.65625" xlink:href="#DejaVuSans-37"/>
    </g>
   </g>
   <g id="text_2">
    <!-- 12.2% -->
    <g style="fill:#ffffff;" transform="translate(120.319025 61.27398)scale(0.1 -0.1)">
     <defs>
      <path d="M 19.1875 8.296875 
L 53.609375 8.296875 
L 53.609375 0 
L 7.328125 0 
L 7.328125 8.296875 
Q 12.9375 14.109375 22.625 23.890625 
Q 32.328125 33.6875 34.8125 36.53125 
Q 39.546875 41.84375 41.421875 45.53125 
Q 43.3125 49.21875 43.3125 52.78125 
Q 43.3125 58.59375 39.234375 62.25 
Q 35.15625 65.921875 28.609375 65.921875 
Q 23.96875 65.921875 18.8125 64.3125 
Q 13.671875 62.703125 7.8125 59.421875 
L 7.8125 69.390625 
Q 13.765625 71.78125 18.9375 73 
Q 24.125 74.21875 28.421875 74.21875 
Q 39.75 74.21875 46.484375 68.546875 
Q 53.21875 62.890625 53.21875 53.421875 
Q 53.21875 48.921875 51.53125 44.890625 
Q 49.859375 40.875 45.40625 35.40625 
Q 44.1875 33.984375 37.640625 27.21875 
Q 31.109375 20.453125 19.1875 8.296875 
z
" id="DejaVuSans-50"/>
     </defs>
     <use xlink:href="#DejaVuSans-49"/>
     <use x="63.623047" xlink:href="#DejaVuSans-50"/>
     <use x="127.246094" xlink:href="#DejaVuSans-46"/>
     <use x="159.033203" xlink:href="#DejaVuSans-50"/>
     <use x="222.65625" xlink:href="#DejaVuSans-37"/>
    </g>
   </g>
   <g id="text_3">
    <!-- 12.2% -->
    <g style="fill:#ffffff;" transform="translate(74.958541 63.200868)scale(0.1 -0.1)">
     <use xlink:href="#DejaVuSans-49"/>
     <use x="63.623047" xlink:href="#DejaVuSans-50"/>
     <use x="127.246094" xlink:href="#DejaVuSans-46"/>
     <use x="159.033203" xlink:href="#DejaVuSans-50"/>
     <use x="222.65625" xlink:href="#DejaVuSans-37"/>
    </g>
   </g>
   <g id="text_4">
    <!-- 12.2% -->
    <g style="fill:#ffffff;" transform="translate(43.543553 95.978679)scale(0.1 -0.1)">
     <use xlink:href="#DejaVuSans-49"/>
     <use x="63.623047" xlink:href="#DejaVuSans-50"/>
     <use x="127.246094" xlink:href="#DejaVuSans-46"/>
     <use x="159.033203" xlink:href="#DejaVuSans-50"/>
     <use x="222.65625" xlink:href="#DejaVuSans-37"/>
    </g>
   </g>
   <g id="text_5">
    <!-- 12.2% -->
    <g style="fill:#ffffff;" transform="translate(43.543553 141.380071)scale(0.1 -0.1)">
     <use xlink:href="#DejaVuSans-49"/>
     <use x="63.623047" xlink:href="#DejaVuSans-50"/>
     <use x="127.246094" xlink:href="#DejaVuSans-46"/>
     <use x="159.033203" xlink:href="#DejaVuSans-50"/>
     <use x="222.65625" xlink:href="#DejaVuSans-37"/>
    </g>
   </g>
   <g id="text_6">
    <!-- 9.5% -->
    <g style="fill:#ffffff;" transform="translate(73.525229 171.831269)scale(0.1 -0.1)">
     <defs>
      <path d="M 10.984375 1.515625 
L 10.984375 10.5 
Q 14.703125 8.734375 18.5 7.8125 
Q 22.3125 6.890625 25.984375 6.890625 
Q 35.75 6.890625 40.890625 13.453125 
Q 46.046875 20.015625 46.78125 33.40625 
Q 43.953125 29.203125 39.59375 26.953125 
Q 35.25 24.703125 29.984375 24.703125 
Q 19.046875 24.703125 12.671875 31.3125 
Q 6.296875 37.9375 6.296875 49.421875 
Q 6.296875 60.640625 12.9375 67.421875 
Q 19.578125 74.21875 30.609375 74.21875 
Q 43.265625 74.21875 49.921875 64.515625 
Q 56.59375 54.828125 56.59375 36.375 
Q 56.59375 19.140625 48.40625 8.859375 
Q 40.234375 -1.421875 26.421875 -1.421875 
Q 22.703125 -1.421875 18.890625 -0.6875 
Q 15.09375 0.046875 10.984375 1.515625 
z
M 30.609375 32.421875 
Q 37.25 32.421875 41.125 36.953125 
Q 45.015625 41.5 45.015625 49.421875 
Q 45.015625 57.28125 41.125 61.84375 
Q 37.25 66.40625 30.609375 66.40625 
Q 23.96875 66.40625 20.09375 61.84375 
Q 16.21875 57.28125 16.21875 49.421875 
Q 16.21875 41.5 20.09375 36.953125 
Q 23.96875 32.421875 30.609375 32.421875 
z
" id="DejaVuSans-57"/>
     </defs>
     <use xlink:href="#DejaVuSans-57"/>
     <use x="63.623047" xlink:href="#DejaVuSans-46"/>
     <use x="95.410156" xlink:href="#DejaVuSans-53"/>
     <use x="159.033203" xlink:href="#DejaVuSans-37"/>
    </g>
   </g>
   <g id="text_7">
    <!-- 9.5% -->
    <g style="fill:#ffffff;" transform="translate(108.380915 179.343242)scale(0.1 -0.1)">
     <use xlink:href="#DejaVuSans-57"/>
     <use x="63.623047" xlink:href="#DejaVuSans-46"/>
     <use x="95.410156" xlink:href="#DejaVuSans-53"/>
     <use x="159.033203" xlink:href="#DejaVuSans-37"/>
    </g>
   </g>
   <g id="text_8">
    <!-- 9.5% -->
    <g style="fill:#ffffff;" transform="translate(141.465703 166.048679)scale(0.1 -0.1)">
     <use xlink:href="#DejaVuSans-57"/>
     <use x="63.623047" xlink:href="#DejaVuSans-46"/>
     <use x="95.410156" xlink:href="#DejaVuSans-53"/>
     <use x="159.033203" xlink:href="#DejaVuSans-37"/>
    </g>
   </g>
   <g id="text_9">
    <!-- 9.5% -->
    <g style="fill:#ffffff;" transform="translate(161.432148 136.507357)scale(0.1 -0.1)">
     <use xlink:href="#DejaVuSans-57"/>
     <use x="63.623047" xlink:href="#DejaVuSans-46"/>
     <use x="95.410156" xlink:href="#DejaVuSans-53"/>
     <use x="159.033203" xlink:href="#DejaVuSans-37"/>
    </g>
   </g>
   <g id="legend_1">
    <g id="patch_20">
     <path d="M 231.64 197.116562 
L 534.9025 197.116562 
Q 536.9025 197.116562 536.9025 195.116562 
L 536.9025 36.723437 
Q 536.9025 34.723437 534.9025 34.723437 
L 231.64 34.723437 
Q 229.64 34.723437 229.64 36.723437 
L 229.64 195.116562 
Q 229.64 197.116562 231.64 197.116562 
z
" style="fill:#ffffff;opacity:0.8;stroke:#cccccc;stroke-linejoin:miter;"/>
    </g>
    <g id="text_10">
     <!-- Топ-10 репостов  -->
     <g transform="translate(279.735313 46.321875)scale(0.1 -0.1)">
      <defs>
       <path d="M -0.296875 72.90625 
L 61.375 72.90625 
L 61.375 64.59375 
L 35.5 64.59375 
L 35.5 0 
L 25.59375 0 
L 25.59375 64.59375 
L -0.296875 64.59375 
z
" id="DejaVuSans-1058"/>
       <path d="M 30.609375 48.390625 
Q 23.390625 48.390625 19.1875 42.75 
Q 14.984375 37.109375 14.984375 27.296875 
Q 14.984375 17.484375 19.15625 11.84375 
Q 23.34375 6.203125 30.609375 6.203125 
Q 37.796875 6.203125 41.984375 11.859375 
Q 46.1875 17.53125 46.1875 27.296875 
Q 46.1875 37.015625 41.984375 42.703125 
Q 37.796875 48.390625 30.609375 48.390625 
z
M 30.609375 56 
Q 42.328125 56 49.015625 48.375 
Q 55.71875 40.765625 55.71875 27.296875 
Q 55.71875 13.875 49.015625 6.21875 
Q 42.328125 -1.421875 30.609375 -1.421875 
Q 18.84375 -1.421875 12.171875 6.21875 
Q 5.515625 13.875 5.515625 27.296875 
Q 5.515625 40.765625 12.171875 48.375 
Q 18.84375 56 30.609375 56 
z
" id="DejaVuSans-1086"/>
       <path d="M 56.296875 54.6875 
L 56.296875 0 
L 47.265625 0 
L 47.265625 47.515625 
L 18.109375 47.515625 
L 18.109375 0 
L 9.078125 0 
L 9.078125 54.6875 
z
" id="DejaVuSans-1087"/>
       <path d="M 4.890625 31.390625 
L 31.203125 31.390625 
L 31.203125 23.390625 
L 4.890625 23.390625 
z
" id="DejaVuSans-45"/>
       <path d="M 31.78125 66.40625 
Q 24.171875 66.40625 20.328125 58.90625 
Q 16.5 51.421875 16.5 36.375 
Q 16.5 21.390625 20.328125 13.890625 
Q 24.171875 6.390625 31.78125 6.390625 
Q 39.453125 6.390625 43.28125 13.890625 
Q 47.125 21.390625 47.125 36.375 
Q 47.125 51.421875 43.28125 58.90625 
Q 39.453125 66.40625 31.78125 66.40625 
z
M 31.78125 74.21875 
Q 44.046875 74.21875 50.515625 64.515625 
Q 56.984375 54.828125 56.984375 36.375 
Q 56.984375 17.96875 50.515625 8.265625 
Q 44.046875 -1.421875 31.78125 -1.421875 
Q 19.53125 -1.421875 13.0625 8.265625 
Q 6.59375 17.96875 6.59375 36.375 
Q 6.59375 54.828125 13.0625 64.515625 
Q 19.53125 74.21875 31.78125 74.21875 
z
" id="DejaVuSans-48"/>
       <path id="DejaVuSans-32"/>
       <path d="M 18.109375 8.203125 
L 18.109375 -20.796875 
L 9.078125 -20.796875 
L 9.078125 54.6875 
L 18.109375 54.6875 
L 18.109375 46.390625 
Q 20.953125 51.265625 25.265625 53.625 
Q 29.59375 56 35.59375 56 
Q 45.5625 56 51.78125 48.09375 
Q 58.015625 40.1875 58.015625 27.296875 
Q 58.015625 14.40625 51.78125 6.484375 
Q 45.5625 -1.421875 35.59375 -1.421875 
Q 29.59375 -1.421875 25.265625 0.953125 
Q 20.953125 3.328125 18.109375 8.203125 
z
M 48.6875 27.296875 
Q 48.6875 37.203125 44.609375 42.84375 
Q 40.53125 48.484375 33.40625 48.484375 
Q 26.265625 48.484375 22.1875 42.84375 
Q 18.109375 37.203125 18.109375 27.296875 
Q 18.109375 17.390625 22.1875 11.75 
Q 26.265625 6.109375 33.40625 6.109375 
Q 40.53125 6.109375 44.609375 11.75 
Q 48.6875 17.390625 48.6875 27.296875 
z
" id="DejaVuSans-1088"/>
       <path d="M 56.203125 29.59375 
L 56.203125 25.203125 
L 14.890625 25.203125 
Q 15.484375 15.921875 20.484375 11.0625 
Q 25.484375 6.203125 34.421875 6.203125 
Q 39.59375 6.203125 44.453125 7.46875 
Q 49.3125 8.734375 54.109375 11.28125 
L 54.109375 2.78125 
Q 49.265625 0.734375 44.1875 -0.34375 
Q 39.109375 -1.421875 33.890625 -1.421875 
Q 20.796875 -1.421875 13.15625 6.1875 
Q 5.515625 13.8125 5.515625 26.8125 
Q 5.515625 40.234375 12.765625 48.109375 
Q 20.015625 56 32.328125 56 
Q 43.359375 56 49.78125 48.890625 
Q 56.203125 41.796875 56.203125 29.59375 
z
M 47.21875 32.234375 
Q 47.125 39.59375 43.09375 43.984375 
Q 39.0625 48.390625 32.421875 48.390625 
Q 24.90625 48.390625 20.390625 44.140625 
Q 15.875 39.890625 15.1875 32.171875 
z
" id="DejaVuSans-1077"/>
       <path d="M 48.78125 52.59375 
L 48.78125 44.1875 
Q 44.96875 46.296875 41.140625 47.34375 
Q 37.3125 48.390625 33.40625 48.390625 
Q 24.65625 48.390625 19.8125 42.84375 
Q 14.984375 37.3125 14.984375 27.296875 
Q 14.984375 17.28125 19.8125 11.734375 
Q 24.65625 6.203125 33.40625 6.203125 
Q 37.3125 6.203125 41.140625 7.25 
Q 44.96875 8.296875 48.78125 10.40625 
L 48.78125 2.09375 
Q 45.015625 0.34375 40.984375 -0.53125 
Q 36.96875 -1.421875 32.421875 -1.421875 
Q 20.0625 -1.421875 12.78125 6.34375 
Q 5.515625 14.109375 5.515625 27.296875 
Q 5.515625 40.671875 12.859375 48.328125 
Q 20.21875 56 33.015625 56 
Q 37.15625 56 41.109375 55.140625 
Q 45.0625 54.296875 48.78125 52.59375 
z
" id="DejaVuSans-1089"/>
       <path d="M 2.9375 54.6875 
L 55.328125 54.6875 
L 55.328125 47.515625 
L 33.546875 47.515625 
L 33.546875 0 
L 24.703125 0 
L 24.703125 47.515625 
L 2.9375 47.515625 
z
" id="DejaVuSans-1090"/>
       <path d="M 18.0625 25.203125 
L 18.0625 7.171875 
L 30.859375 7.171875 
Q 37.015625 7.171875 40.234375 9.484375 
Q 43.453125 11.8125 43.453125 16.21875 
Q 43.453125 20.609375 40.234375 22.90625 
Q 37.015625 25.203125 30.859375 25.203125 
z
M 18.0625 47.515625 
L 18.0625 32.375 
L 29.890625 32.375 
Q 34.96875 32.375 38.1875 34.390625 
Q 41.40625 36.421875 41.40625 40.046875 
Q 41.40625 43.65625 38.1875 45.578125 
Q 34.96875 47.515625 29.890625 47.515625 
z
M 9.078125 54.6875 
L 30.46875 54.6875 
Q 40.09375 54.6875 45.265625 51.171875 
Q 50.4375 47.65625 50.4375 41.15625 
Q 50.4375 36.140625 47.796875 33.171875 
Q 45.171875 30.21875 39.984375 29.5 
Q 46.1875 28.328125 49.609375 24.609375 
Q 53.03125 20.90625 53.03125 15.328125 
Q 53.03125 8.015625 47.390625 4 
Q 41.75 0 31.296875 0 
L 9.078125 0 
z
" id="DejaVuSans-1074"/>
      </defs>
      <use xlink:href="#DejaVuSans-1058"/>
      <use x="61.083984" xlink:href="#DejaVuSans-1086"/>
      <use x="122.265625" xlink:href="#DejaVuSans-1087"/>
      <use x="187.646484" xlink:href="#DejaVuSans-45"/>
      <use x="223.730469" xlink:href="#DejaVuSans-49"/>
      <use x="287.353516" xlink:href="#DejaVuSans-48"/>
      <use x="350.976562" xlink:href="#DejaVuSans-32"/>
      <use x="382.763672" xlink:href="#DejaVuSans-1088"/>
      <use x="446.240234" xlink:href="#DejaVuSans-1077"/>
      <use x="507.763672" xlink:href="#DejaVuSans-1087"/>
      <use x="573.144531" xlink:href="#DejaVuSans-1086"/>
      <use x="634.326172" xlink:href="#DejaVuSans-1089"/>
      <use x="689.306641" xlink:href="#DejaVuSans-1090"/>
      <use x="747.558594" xlink:href="#DejaVuSans-1086"/>
      <use x="808.740234" xlink:href="#DejaVuSans-1074"/>
      <use x="867.675781" xlink:href="#DejaVuSans-32"/>
     </g>
     <!-- подписчиков группы zapravdu_neoficial -->
     <g transform="translate(279.735313 57.519687)scale(0.1 -0.1)">
      <defs>
       <path d="M 21.625 7.171875 
L 47.703125 7.171875 
L 47.703125 47.515625 
L 28.8125 47.515625 
L 28.8125 40.671875 
Q 28.8125 20.5625 23.046875 9.8125 
z
M 8.59375 7.171875 
Q 13.03125 9.125 14.984375 13.28125 
Q 19.78125 23.578125 19.78125 44.34375 
L 19.78125 54.6875 
L 56.734375 54.6875 
L 56.734375 7.171875 
L 63.921875 7.171875 
L 63.921875 -13.8125 
L 56.734375 -13.8125 
L 56.734375 0 
L 12.40625 0 
L 12.40625 -13.8125 
L 5.21875 -13.8125 
L 5.21875 7.171875 
z
" id="DejaVuSans-1076"/>
       <path d="M 55.90625 54.6875 
L 55.90625 0 
L 46.96875 0 
L 46.96875 43.890625 
L 20.609375 0 
L 9.078125 0 
L 9.078125 54.6875 
L 18.015625 54.6875 
L 18.015625 10.890625 
L 44.34375 54.6875 
z
" id="DejaVuSans-1080"/>
       <path d="M 41.015625 0 
L 41.015625 23 
L 24.265625 23 
Q 16.796875 23 11.8125 27.640625 
Q 7.328125 31.84375 7.328125 40.828125 
L 7.328125 54.6875 
L 16.3125 54.6875 
L 16.3125 41.65625 
Q 16.3125 35.9375 18.84375 33.0625 
Q 21.4375 30.171875 26.515625 30.171875 
L 41.015625 30.171875 
L 41.015625 54.6875 
L 50 54.6875 
L 50 0 
z
" id="DejaVuSans-1095"/>
       <path d="M 9.078125 54.6875 
L 18.015625 54.6875 
L 18.015625 29 
L 43.359375 54.6875 
L 54.390625 54.6875 
L 33.5 33.546875 
L 57.078125 0 
L 47.015625 0 
L 27.640625 27.59375 
L 18.015625 17.828125 
L 18.015625 0 
L 9.078125 0 
z
" id="DejaVuSans-1082"/>
       <path d="M 9.078125 0 
L 9.078125 54.6875 
L 47.65625 54.6875 
L 47.65625 47.515625 
L 18.109375 47.515625 
L 18.109375 0 
z
" id="DejaVuSans-1075"/>
       <path d="M 32.171875 -5.078125 
Q 28.375 -14.84375 24.75 -17.8125 
Q 21.140625 -20.796875 15.09375 -20.796875 
L 7.90625 -20.796875 
L 7.90625 -13.28125 
L 13.1875 -13.28125 
Q 16.890625 -13.28125 18.9375 -11.515625 
Q 21 -9.765625 23.484375 -3.21875 
L 25.09375 0.875 
L 2.984375 54.6875 
L 12.5 54.6875 
L 29.59375 11.921875 
L 46.6875 54.6875 
L 56.203125 54.6875 
z
" id="DejaVuSans-1091"/>
       <path d="M 61.046875 54.6875 
L 70.03125 54.6875 
L 70.03125 0 
L 61.046875 0 
z
M 65.546875 56 
z
M 43.453125 16.21875 
Q 43.453125 20.609375 40.25 22.90625 
Q 37.0625 25.203125 30.90625 25.203125 
L 18.109375 25.203125 
L 18.109375 7.171875 
L 30.90625 7.171875 
Q 37.0625 7.171875 40.25 9.484375 
Q 43.453125 11.8125 43.453125 16.21875 
z
M 9.078125 54.6875 
L 18.109375 54.6875 
L 18.109375 32.375 
L 31.296875 32.375 
Q 41.75 32.375 47.390625 28.390625 
Q 53.03125 24.421875 53.03125 16.21875 
Q 53.03125 8.015625 47.390625 4 
Q 41.75 0 31.296875 0 
L 9.078125 0 
z
" id="DejaVuSans-1099"/>
       <path d="M 5.515625 54.6875 
L 48.1875 54.6875 
L 48.1875 46.484375 
L 14.40625 7.171875 
L 48.1875 7.171875 
L 48.1875 0 
L 4.296875 0 
L 4.296875 8.203125 
L 38.09375 47.515625 
L 5.515625 47.515625 
z
" id="DejaVuSans-122"/>
       <path d="M 34.28125 27.484375 
Q 23.390625 27.484375 19.1875 25 
Q 14.984375 22.515625 14.984375 16.5 
Q 14.984375 11.71875 18.140625 8.90625 
Q 21.296875 6.109375 26.703125 6.109375 
Q 34.1875 6.109375 38.703125 11.40625 
Q 43.21875 16.703125 43.21875 25.484375 
L 43.21875 27.484375 
z
M 52.203125 31.203125 
L 52.203125 0 
L 43.21875 0 
L 43.21875 8.296875 
Q 40.140625 3.328125 35.546875 0.953125 
Q 30.953125 -1.421875 24.3125 -1.421875 
Q 15.921875 -1.421875 10.953125 3.296875 
Q 6 8.015625 6 15.921875 
Q 6 25.140625 12.171875 29.828125 
Q 18.359375 34.515625 30.609375 34.515625 
L 43.21875 34.515625 
L 43.21875 35.40625 
Q 43.21875 41.609375 39.140625 45 
Q 35.0625 48.390625 27.6875 48.390625 
Q 23 48.390625 18.546875 47.265625 
Q 14.109375 46.140625 10.015625 43.890625 
L 10.015625 52.203125 
Q 14.9375 54.109375 19.578125 55.046875 
Q 24.21875 56 28.609375 56 
Q 40.484375 56 46.34375 49.84375 
Q 52.203125 43.703125 52.203125 31.203125 
z
" id="DejaVuSans-97"/>
       <path d="M 18.109375 8.203125 
L 18.109375 -20.796875 
L 9.078125 -20.796875 
L 9.078125 54.6875 
L 18.109375 54.6875 
L 18.109375 46.390625 
Q 20.953125 51.265625 25.265625 53.625 
Q 29.59375 56 35.59375 56 
Q 45.5625 56 51.78125 48.09375 
Q 58.015625 40.1875 58.015625 27.296875 
Q 58.015625 14.40625 51.78125 6.484375 
Q 45.5625 -1.421875 35.59375 -1.421875 
Q 29.59375 -1.421875 25.265625 0.953125 
Q 20.953125 3.328125 18.109375 8.203125 
z
M 48.6875 27.296875 
Q 48.6875 37.203125 44.609375 42.84375 
Q 40.53125 48.484375 33.40625 48.484375 
Q 26.265625 48.484375 22.1875 42.84375 
Q 18.109375 37.203125 18.109375 27.296875 
Q 18.109375 17.390625 22.1875 11.75 
Q 26.265625 6.109375 33.40625 6.109375 
Q 40.53125 6.109375 44.609375 11.75 
Q 48.6875 17.390625 48.6875 27.296875 
z
" id="DejaVuSans-112"/>
       <path d="M 41.109375 46.296875 
Q 39.59375 47.171875 37.8125 47.578125 
Q 36.03125 48 33.890625 48 
Q 26.265625 48 22.1875 43.046875 
Q 18.109375 38.09375 18.109375 28.8125 
L 18.109375 0 
L 9.078125 0 
L 9.078125 54.6875 
L 18.109375 54.6875 
L 18.109375 46.1875 
Q 20.953125 51.171875 25.484375 53.578125 
Q 30.03125 56 36.53125 56 
Q 37.453125 56 38.578125 55.875 
Q 39.703125 55.765625 41.0625 55.515625 
z
" id="DejaVuSans-114"/>
       <path d="M 2.984375 54.6875 
L 12.5 54.6875 
L 29.59375 8.796875 
L 46.6875 54.6875 
L 56.203125 54.6875 
L 35.6875 0 
L 23.484375 0 
z
" id="DejaVuSans-118"/>
       <path d="M 45.40625 46.390625 
L 45.40625 75.984375 
L 54.390625 75.984375 
L 54.390625 0 
L 45.40625 0 
L 45.40625 8.203125 
Q 42.578125 3.328125 38.25 0.953125 
Q 33.9375 -1.421875 27.875 -1.421875 
Q 17.96875 -1.421875 11.734375 6.484375 
Q 5.515625 14.40625 5.515625 27.296875 
Q 5.515625 40.1875 11.734375 48.09375 
Q 17.96875 56 27.875 56 
Q 33.9375 56 38.25 53.625 
Q 42.578125 51.265625 45.40625 46.390625 
z
M 14.796875 27.296875 
Q 14.796875 17.390625 18.875 11.75 
Q 22.953125 6.109375 30.078125 6.109375 
Q 37.203125 6.109375 41.296875 11.75 
Q 45.40625 17.390625 45.40625 27.296875 
Q 45.40625 37.203125 41.296875 42.84375 
Q 37.203125 48.484375 30.078125 48.484375 
Q 22.953125 48.484375 18.875 42.84375 
Q 14.796875 37.203125 14.796875 27.296875 
z
" id="DejaVuSans-100"/>
       <path d="M 8.5 21.578125 
L 8.5 54.6875 
L 17.484375 54.6875 
L 17.484375 21.921875 
Q 17.484375 14.15625 20.5 10.265625 
Q 23.53125 6.390625 29.59375 6.390625 
Q 36.859375 6.390625 41.078125 11.03125 
Q 45.3125 15.671875 45.3125 23.6875 
L 45.3125 54.6875 
L 54.296875 54.6875 
L 54.296875 0 
L 45.3125 0 
L 45.3125 8.40625 
Q 42.046875 3.421875 37.71875 1 
Q 33.40625 -1.421875 27.6875 -1.421875 
Q 18.265625 -1.421875 13.375 4.4375 
Q 8.5 10.296875 8.5 21.578125 
z
M 31.109375 56 
z
" id="DejaVuSans-117"/>
       <path d="M 50.984375 -16.609375 
L 50.984375 -23.578125 
L -0.984375 -23.578125 
L -0.984375 -16.609375 
z
" id="DejaVuSans-95"/>
       <path d="M 54.890625 33.015625 
L 54.890625 0 
L 45.90625 0 
L 45.90625 32.71875 
Q 45.90625 40.484375 42.875 44.328125 
Q 39.84375 48.1875 33.796875 48.1875 
Q 26.515625 48.1875 22.3125 43.546875 
Q 18.109375 38.921875 18.109375 30.90625 
L 18.109375 0 
L 9.078125 0 
L 9.078125 54.6875 
L 18.109375 54.6875 
L 18.109375 46.1875 
Q 21.34375 51.125 25.703125 53.5625 
Q 30.078125 56 35.796875 56 
Q 45.21875 56 50.046875 50.171875 
Q 54.890625 44.34375 54.890625 33.015625 
z
" id="DejaVuSans-110"/>
       <path d="M 56.203125 29.59375 
L 56.203125 25.203125 
L 14.890625 25.203125 
Q 15.484375 15.921875 20.484375 11.0625 
Q 25.484375 6.203125 34.421875 6.203125 
Q 39.59375 6.203125 44.453125 7.46875 
Q 49.3125 8.734375 54.109375 11.28125 
L 54.109375 2.78125 
Q 49.265625 0.734375 44.1875 -0.34375 
Q 39.109375 -1.421875 33.890625 -1.421875 
Q 20.796875 -1.421875 13.15625 6.1875 
Q 5.515625 13.8125 5.515625 26.8125 
Q 5.515625 40.234375 12.765625 48.109375 
Q 20.015625 56 32.328125 56 
Q 43.359375 56 49.78125 48.890625 
Q 56.203125 41.796875 56.203125 29.59375 
z
M 47.21875 32.234375 
Q 47.125 39.59375 43.09375 43.984375 
Q 39.0625 48.390625 32.421875 48.390625 
Q 24.90625 48.390625 20.390625 44.140625 
Q 15.875 39.890625 15.1875 32.171875 
z
" id="DejaVuSans-101"/>
       <path d="M 30.609375 48.390625 
Q 23.390625 48.390625 19.1875 42.75 
Q 14.984375 37.109375 14.984375 27.296875 
Q 14.984375 17.484375 19.15625 11.84375 
Q 23.34375 6.203125 30.609375 6.203125 
Q 37.796875 6.203125 41.984375 11.859375 
Q 46.1875 17.53125 46.1875 27.296875 
Q 46.1875 37.015625 41.984375 42.703125 
Q 37.796875 48.390625 30.609375 48.390625 
z
M 30.609375 56 
Q 42.328125 56 49.015625 48.375 
Q 55.71875 40.765625 55.71875 27.296875 
Q 55.71875 13.875 49.015625 6.21875 
Q 42.328125 -1.421875 30.609375 -1.421875 
Q 18.84375 -1.421875 12.171875 6.21875 
Q 5.515625 13.875 5.515625 27.296875 
Q 5.515625 40.765625 12.171875 48.375 
Q 18.84375 56 30.609375 56 
z
" id="DejaVuSans-111"/>
       <path d="M 37.109375 75.984375 
L 37.109375 68.5 
L 28.515625 68.5 
Q 23.6875 68.5 21.796875 66.546875 
Q 19.921875 64.59375 19.921875 59.515625 
L 19.921875 54.6875 
L 34.71875 54.6875 
L 34.71875 47.703125 
L 19.921875 47.703125 
L 19.921875 0 
L 10.890625 0 
L 10.890625 47.703125 
L 2.296875 47.703125 
L 2.296875 54.6875 
L 10.890625 54.6875 
L 10.890625 58.5 
Q 10.890625 67.625 15.140625 71.796875 
Q 19.390625 75.984375 28.609375 75.984375 
z
" id="DejaVuSans-102"/>
       <path d="M 9.421875 54.6875 
L 18.40625 54.6875 
L 18.40625 0 
L 9.421875 0 
z
M 9.421875 75.984375 
L 18.40625 75.984375 
L 18.40625 64.59375 
L 9.421875 64.59375 
z
" id="DejaVuSans-105"/>
       <path d="M 48.78125 52.59375 
L 48.78125 44.1875 
Q 44.96875 46.296875 41.140625 47.34375 
Q 37.3125 48.390625 33.40625 48.390625 
Q 24.65625 48.390625 19.8125 42.84375 
Q 14.984375 37.3125 14.984375 27.296875 
Q 14.984375 17.28125 19.8125 11.734375 
Q 24.65625 6.203125 33.40625 6.203125 
Q 37.3125 6.203125 41.140625 7.25 
Q 44.96875 8.296875 48.78125 10.40625 
L 48.78125 2.09375 
Q 45.015625 0.34375 40.984375 -0.53125 
Q 36.96875 -1.421875 32.421875 -1.421875 
Q 20.0625 -1.421875 12.78125 6.34375 
Q 5.515625 14.109375 5.515625 27.296875 
Q 5.515625 40.671875 12.859375 48.328125 
Q 20.21875 56 33.015625 56 
Q 37.15625 56 41.109375 55.140625 
Q 45.0625 54.296875 48.78125 52.59375 
z
" id="DejaVuSans-99"/>
       <path d="M 9.421875 75.984375 
L 18.40625 75.984375 
L 18.40625 0 
L 9.421875 0 
z
" id="DejaVuSans-108"/>
      </defs>
      <use xlink:href="#DejaVuSans-1087"/>
      <use x="65.380859" xlink:href="#DejaVuSans-1086"/>
      <use x="126.5625" xlink:href="#DejaVuSans-1076"/>
      <use x="195.703125" xlink:href="#DejaVuSans-1087"/>
      <use x="261.083984" xlink:href="#DejaVuSans-1080"/>
      <use x="326.074219" xlink:href="#DejaVuSans-1089"/>
      <use x="381.054688" xlink:href="#DejaVuSans-1095"/>
      <use x="440.136719" xlink:href="#DejaVuSans-1080"/>
      <use x="505.126953" xlink:href="#DejaVuSans-1082"/>
      <use x="565.527344" xlink:href="#DejaVuSans-1086"/>
      <use x="626.708984" xlink:href="#DejaVuSans-1074"/>
      <use x="685.644531" xlink:href="#DejaVuSans-32"/>
      <use x="717.431641" xlink:href="#DejaVuSans-1075"/>
      <use x="769.970703" xlink:href="#DejaVuSans-1088"/>
      <use x="833.447266" xlink:href="#DejaVuSans-1091"/>
      <use x="892.626953" xlink:href="#DejaVuSans-1087"/>
      <use x="958.007812" xlink:href="#DejaVuSans-1087"/>
      <use x="1023.388672" xlink:href="#DejaVuSans-1099"/>
      <use x="1102.34375" xlink:href="#DejaVuSans-32"/>
      <use x="1134.130859" xlink:href="#DejaVuSans-122"/>
      <use x="1186.621094" xlink:href="#DejaVuSans-97"/>
      <use x="1247.900391" xlink:href="#DejaVuSans-112"/>
      <use x="1311.376953" xlink:href="#DejaVuSans-114"/>
      <use x="1352.490234" xlink:href="#DejaVuSans-97"/>
      <use x="1413.769531" xlink:href="#DejaVuSans-118"/>
      <use x="1472.949219" xlink:href="#DejaVuSans-100"/>
      <use x="1536.425781" xlink:href="#DejaVuSans-117"/>
      <use x="1599.804688" xlink:href="#DejaVuSans-95"/>
      <use x="1649.804688" xlink:href="#DejaVuSans-110"/>
      <use x="1713.183594" xlink:href="#DejaVuSans-101"/>
      <use x="1774.707031" xlink:href="#DejaVuSans-111"/>
      <use x="1835.888672" xlink:href="#DejaVuSans-102"/>
      <use x="1871.09375" xlink:href="#DejaVuSans-105"/>
      <use x="1898.876953" xlink:href="#DejaVuSans-99"/>
      <use x="1953.857422" xlink:href="#DejaVuSans-105"/>
      <use x="1981.640625" xlink:href="#DejaVuSans-97"/>
      <use x="2042.919922" xlink:href="#DejaVuSans-108"/>
     </g>
    </g>
    <g id="patch_21">
     <path d="M 233.64 72.475937 
L 253.64 72.475937 
L 253.64 65.475937 
L 233.64 65.475937 
z
" style="fill:#1f77b4;"/>
    </g>
    <g id="text_11">
     <!-- MyFamily. Одинаковая одежда в стиле FAMILY LOOK -->
     <g transform="translate(261.64 72.475937)scale(0.1 -0.1)">
      <defs>
       <path d="M 9.8125 72.90625 
L 24.515625 72.90625 
L 43.109375 23.296875 
L 61.8125 72.90625 
L 76.515625 72.90625 
L 76.515625 0 
L 66.890625 0 
L 66.890625 64.015625 
L 48.09375 14.015625 
L 38.1875 14.015625 
L 19.390625 64.015625 
L 19.390625 0 
L 9.8125 0 
z
" id="DejaVuSans-77"/>
       <path d="M 32.171875 -5.078125 
Q 28.375 -14.84375 24.75 -17.8125 
Q 21.140625 -20.796875 15.09375 -20.796875 
L 7.90625 -20.796875 
L 7.90625 -13.28125 
L 13.1875 -13.28125 
Q 16.890625 -13.28125 18.9375 -11.515625 
Q 21 -9.765625 23.484375 -3.21875 
L 25.09375 0.875 
L 2.984375 54.6875 
L 12.5 54.6875 
L 29.59375 11.921875 
L 46.6875 54.6875 
L 56.203125 54.6875 
z
" id="DejaVuSans-121"/>
       <path d="M 9.8125 72.90625 
L 51.703125 72.90625 
L 51.703125 64.59375 
L 19.671875 64.59375 
L 19.671875 43.109375 
L 48.578125 43.109375 
L 48.578125 34.8125 
L 19.671875 34.8125 
L 19.671875 0 
L 9.8125 0 
z
" id="DejaVuSans-70"/>
       <path d="M 52 44.1875 
Q 55.375 50.25 60.0625 53.125 
Q 64.75 56 71.09375 56 
Q 79.640625 56 84.28125 50.015625 
Q 88.921875 44.046875 88.921875 33.015625 
L 88.921875 0 
L 79.890625 0 
L 79.890625 32.71875 
Q 79.890625 40.578125 77.09375 44.375 
Q 74.3125 48.1875 68.609375 48.1875 
Q 61.625 48.1875 57.5625 43.546875 
Q 53.515625 38.921875 53.515625 30.90625 
L 53.515625 0 
L 44.484375 0 
L 44.484375 32.71875 
Q 44.484375 40.625 41.703125 44.40625 
Q 38.921875 48.1875 33.109375 48.1875 
Q 26.21875 48.1875 22.15625 43.53125 
Q 18.109375 38.875 18.109375 30.90625 
L 18.109375 0 
L 9.078125 0 
L 9.078125 54.6875 
L 18.109375 54.6875 
L 18.109375 46.1875 
Q 21.1875 51.21875 25.484375 53.609375 
Q 29.78125 56 35.6875 56 
Q 41.65625 56 45.828125 52.96875 
Q 50 49.953125 52 44.1875 
z
" id="DejaVuSans-109"/>
       <path d="M 39.40625 66.21875 
Q 28.65625 66.21875 22.328125 58.203125 
Q 16.015625 50.203125 16.015625 36.375 
Q 16.015625 22.609375 22.328125 14.59375 
Q 28.65625 6.59375 39.40625 6.59375 
Q 50.140625 6.59375 56.421875 14.59375 
Q 62.703125 22.609375 62.703125 36.375 
Q 62.703125 50.203125 56.421875 58.203125 
Q 50.140625 66.21875 39.40625 66.21875 
z
M 39.40625 74.21875 
Q 54.734375 74.21875 63.90625 63.9375 
Q 73.09375 53.65625 73.09375 36.375 
Q 73.09375 19.140625 63.90625 8.859375 
Q 54.734375 -1.421875 39.40625 -1.421875 
Q 24.03125 -1.421875 14.8125 8.828125 
Q 5.609375 19.09375 5.609375 36.375 
Q 5.609375 53.65625 14.8125 63.9375 
Q 24.03125 74.21875 39.40625 74.21875 
z
" id="DejaVuSans-1054"/>
       <path d="M 9.078125 54.6875 
L 18.109375 54.6875 
L 18.109375 32.375 
L 47.265625 32.375 
L 47.265625 54.6875 
L 56.296875 54.6875 
L 56.296875 0 
L 47.265625 0 
L 47.265625 25.203125 
L 18.109375 25.203125 
L 18.109375 0 
L 9.078125 0 
z
" id="DejaVuSans-1085"/>
       <path d="M 34.28125 27.484375 
Q 23.390625 27.484375 19.1875 25 
Q 14.984375 22.515625 14.984375 16.5 
Q 14.984375 11.71875 18.140625 8.90625 
Q 21.296875 6.109375 26.703125 6.109375 
Q 34.1875 6.109375 38.703125 11.40625 
Q 43.21875 16.703125 43.21875 25.484375 
L 43.21875 27.484375 
z
M 52.203125 31.203125 
L 52.203125 0 
L 43.21875 0 
L 43.21875 8.296875 
Q 40.140625 3.328125 35.546875 0.953125 
Q 30.953125 -1.421875 24.3125 -1.421875 
Q 15.921875 -1.421875 10.953125 3.296875 
Q 6 8.015625 6 15.921875 
Q 6 25.140625 12.171875 29.828125 
Q 18.359375 34.515625 30.609375 34.515625 
L 43.21875 34.515625 
L 43.21875 35.40625 
Q 43.21875 41.609375 39.140625 45 
Q 35.0625 48.390625 27.6875 48.390625 
Q 23 48.390625 18.546875 47.265625 
Q 14.109375 46.140625 10.015625 43.890625 
L 10.015625 52.203125 
Q 14.9375 54.109375 19.578125 55.046875 
Q 24.21875 56 28.609375 56 
Q 40.484375 56 46.34375 49.84375 
Q 52.203125 43.703125 52.203125 31.203125 
z
" id="DejaVuSans-1072"/>
       <path d="M 18.453125 38.921875 
Q 18.453125 34.859375 21.578125 32.5625 
Q 24.703125 30.28125 30.515625 30.28125 
L 42.625 30.28125 
L 42.625 47.515625 
L 30.515625 47.515625 
Q 24.703125 47.515625 21.578125 45.265625 
Q 18.453125 43.015625 18.453125 38.921875 
z
M 5.671875 0 
L 22.359375 23.96875 
Q 16.703125 25.25 12.9375 28.59375 
Q 9.1875 31.9375 9.1875 38.921875 
Q 9.1875 46.828125 14.421875 50.75 
Q 19.671875 54.6875 30.28125 54.6875 
L 51.65625 54.6875 
L 51.65625 0 
L 42.625 0 
L 42.625 23.09375 
L 31.453125 23.09375 
L 15.328125 0 
z
" id="DejaVuSans-1103"/>
       <path d="M 40.578125 54.6875 
L 49.515625 54.6875 
L 49.515625 29 
L 73.390625 54.6875 
L 83.84375 54.6875 
L 64.203125 33.640625 
L 86.671875 0 
L 77.046875 0 
L 58.640625 27.640625 
L 49.515625 17.828125 
L 49.515625 0 
L 40.578125 0 
L 40.578125 17.828125 
L 31.453125 27.640625 
L 13.03125 0 
L 3.421875 0 
L 25.875 33.640625 
L 6.25 54.6875 
L 16.703125 54.6875 
L 40.578125 29 
z
" id="DejaVuSans-1078"/>
       <path d="M 3.71875 0 
L 3.71875 7.46875 
Q 12.59375 8.84375 15.328125 14.984375 
Q 18.65625 23.640625 18.65625 45.75 
L 18.65625 54.6875 
L 55.609375 54.6875 
L 55.609375 0 
L 46.625 0 
L 46.625 47.515625 
L 27.640625 47.515625 
L 27.640625 42.09375 
Q 27.640625 21 23.34375 11.53125 
Q 18.75 1.421875 3.71875 0 
z
" id="DejaVuSans-1083"/>
       <path d="M 34.1875 63.1875 
L 20.796875 26.90625 
L 47.609375 26.90625 
z
M 28.609375 72.90625 
L 39.796875 72.90625 
L 67.578125 0 
L 57.328125 0 
L 50.6875 18.703125 
L 17.828125 18.703125 
L 11.1875 0 
L 0.78125 0 
z
" id="DejaVuSans-65"/>
       <path d="M 9.8125 72.90625 
L 19.671875 72.90625 
L 19.671875 0 
L 9.8125 0 
z
" id="DejaVuSans-73"/>
       <path d="M 9.8125 72.90625 
L 19.671875 72.90625 
L 19.671875 8.296875 
L 55.171875 8.296875 
L 55.171875 0 
L 9.8125 0 
z
" id="DejaVuSans-76"/>
       <path d="M -0.203125 72.90625 
L 10.40625 72.90625 
L 30.609375 42.921875 
L 50.6875 72.90625 
L 61.28125 72.90625 
L 35.5 34.71875 
L 35.5 0 
L 25.59375 0 
L 25.59375 34.71875 
z
" id="DejaVuSans-89"/>
       <path d="M 39.40625 66.21875 
Q 28.65625 66.21875 22.328125 58.203125 
Q 16.015625 50.203125 16.015625 36.375 
Q 16.015625 22.609375 22.328125 14.59375 
Q 28.65625 6.59375 39.40625 6.59375 
Q 50.140625 6.59375 56.421875 14.59375 
Q 62.703125 22.609375 62.703125 36.375 
Q 62.703125 50.203125 56.421875 58.203125 
Q 50.140625 66.21875 39.40625 66.21875 
z
M 39.40625 74.21875 
Q 54.734375 74.21875 63.90625 63.9375 
Q 73.09375 53.65625 73.09375 36.375 
Q 73.09375 19.140625 63.90625 8.859375 
Q 54.734375 -1.421875 39.40625 -1.421875 
Q 24.03125 -1.421875 14.8125 8.828125 
Q 5.609375 19.09375 5.609375 36.375 
Q 5.609375 53.65625 14.8125 63.9375 
Q 24.03125 74.21875 39.40625 74.21875 
z
" id="DejaVuSans-79"/>
       <path d="M 9.8125 72.90625 
L 19.671875 72.90625 
L 19.671875 42.09375 
L 52.390625 72.90625 
L 65.09375 72.90625 
L 28.90625 38.921875 
L 67.671875 0 
L 54.6875 0 
L 19.671875 35.109375 
L 19.671875 0 
L 9.8125 0 
z
" id="DejaVuSans-75"/>
      </defs>
      <use xlink:href="#DejaVuSans-77"/>
      <use x="86.279297" xlink:href="#DejaVuSans-121"/>
      <use x="145.458984" xlink:href="#DejaVuSans-70"/>
      <use x="193.853516" xlink:href="#DejaVuSans-97"/>
      <use x="255.132812" xlink:href="#DejaVuSans-109"/>
      <use x="352.544922" xlink:href="#DejaVuSans-105"/>
      <use x="380.328125" xlink:href="#DejaVuSans-108"/>
      <use x="408.111328" xlink:href="#DejaVuSans-121"/>
      <use x="453.041016" xlink:href="#DejaVuSans-46"/>
      <use x="484.828125" xlink:href="#DejaVuSans-32"/>
      <use x="516.615234" xlink:href="#DejaVuSans-1054"/>
      <use x="595.326172" xlink:href="#DejaVuSans-1076"/>
      <use x="664.466797" xlink:href="#DejaVuSans-1080"/>
      <use x="729.457031" xlink:href="#DejaVuSans-1085"/>
      <use x="794.837891" xlink:href="#DejaVuSans-1072"/>
      <use x="856.117188" xlink:href="#DejaVuSans-1082"/>
      <use x="916.517578" xlink:href="#DejaVuSans-1086"/>
      <use x="977.699219" xlink:href="#DejaVuSans-1074"/>
      <use x="1036.634766" xlink:href="#DejaVuSans-1072"/>
      <use x="1097.914062" xlink:href="#DejaVuSans-1103"/>
      <use x="1158.070312" xlink:href="#DejaVuSans-32"/>
      <use x="1189.857422" xlink:href="#DejaVuSans-1086"/>
      <use x="1251.039062" xlink:href="#DejaVuSans-1076"/>
      <use x="1320.179688" xlink:href="#DejaVuSans-1077"/>
      <use x="1381.703125" xlink:href="#DejaVuSans-1078"/>
      <use x="1471.791016" xlink:href="#DejaVuSans-1076"/>
      <use x="1540.931641" xlink:href="#DejaVuSans-1072"/>
      <use x="1602.210938" xlink:href="#DejaVuSans-32"/>
      <use x="1633.998047" xlink:href="#DejaVuSans-1074"/>
      <use x="1692.933594" xlink:href="#DejaVuSans-32"/>
      <use x="1724.720703" xlink:href="#DejaVuSans-1089"/>
      <use x="1779.701172" xlink:href="#DejaVuSans-1090"/>
      <use x="1837.953125" xlink:href="#DejaVuSans-1080"/>
      <use x="1902.943359" xlink:href="#DejaVuSans-1083"/>
      <use x="1966.859375" xlink:href="#DejaVuSans-1077"/>
      <use x="2028.382812" xlink:href="#DejaVuSans-32"/>
      <use x="2060.169922" xlink:href="#DejaVuSans-70"/>
      <use x="2108.564453" xlink:href="#DejaVuSans-65"/>
      <use x="2176.972656" xlink:href="#DejaVuSans-77"/>
      <use x="2263.251953" xlink:href="#DejaVuSans-73"/>
      <use x="2292.744141" xlink:href="#DejaVuSans-76"/>
      <use x="2335.207031" xlink:href="#DejaVuSans-89"/>
      <use x="2396.291016" xlink:href="#DejaVuSans-32"/>
      <use x="2428.078125" xlink:href="#DejaVuSans-76"/>
      <use x="2480.166016" xlink:href="#DejaVuSans-79"/>
      <use x="2558.876953" xlink:href="#DejaVuSans-79"/>
      <use x="2637.587891" xlink:href="#DejaVuSans-75"/>
     </g>
    </g>
    <g id="patch_22">
     <path d="M 233.64 87.197812 
L 253.64 87.197812 
L 253.64 80.197812 
L 233.64 80.197812 
z
" style="fill:#ff7f0e;"/>
    </g>
    <g id="text_12">
     <!-- Квартира в Кумертау | Ипотека -->
     <g transform="translate(261.64 87.197812)scale(0.1 -0.1)">
      <defs>
       <path d="M 9.8125 72.90625 
L 19.671875 72.90625 
L 19.671875 36.859375 
L 54.9375 72.90625 
L 67.578125 72.90625 
L 39.40625 44.09375 
L 69.046875 0 
L 58.296875 0 
L 33.015625 37.546875 
L 19.671875 23.921875 
L 19.671875 0 
L 9.8125 0 
z
" id="DejaVuSans-1050"/>
       <path d="M 9.078125 54.6875 
L 22.21875 54.6875 
L 37.75 18.0625 
L 53.328125 54.6875 
L 66.359375 54.6875 
L 66.359375 0 
L 57.328125 0 
L 57.328125 46.09375 
L 42.234375 10.5 
L 33.25 10.5 
L 18.109375 46.09375 
L 18.109375 0 
L 9.078125 0 
z
" id="DejaVuSans-1084"/>
       <path d="M 21 76.421875 
L 21 -23.578125 
L 12.703125 -23.578125 
L 12.703125 76.421875 
z
" id="DejaVuSans-124"/>
       <path d="M 64.984375 72.90625 
L 64.984375 0 
L 55.421875 0 
L 55.421875 60.984375 
L 23.09375 0 
L 9.8125 0 
L 9.8125 72.90625 
L 19.390625 72.90625 
L 19.390625 11.921875 
L 51.703125 72.90625 
z
" id="DejaVuSans-1048"/>
      </defs>
      <use xlink:href="#DejaVuSans-1050"/>
      <use x="70.996094" xlink:href="#DejaVuSans-1074"/>
      <use x="129.931641" xlink:href="#DejaVuSans-1072"/>
      <use x="191.210938" xlink:href="#DejaVuSans-1088"/>
      <use x="254.6875" xlink:href="#DejaVuSans-1090"/>
      <use x="312.939453" xlink:href="#DejaVuSans-1080"/>
      <use x="377.929688" xlink:href="#DejaVuSans-1088"/>
      <use x="441.40625" xlink:href="#DejaVuSans-1072"/>
      <use x="502.685547" xlink:href="#DejaVuSans-32"/>
      <use x="534.472656" xlink:href="#DejaVuSans-1074"/>
      <use x="593.408203" xlink:href="#DejaVuSans-32"/>
      <use x="625.195312" xlink:href="#DejaVuSans-1050"/>
      <use x="696.191406" xlink:href="#DejaVuSans-1091"/>
      <use x="755.371094" xlink:href="#DejaVuSans-1084"/>
      <use x="830.810547" xlink:href="#DejaVuSans-1077"/>
      <use x="892.333984" xlink:href="#DejaVuSans-1088"/>
      <use x="955.810547" xlink:href="#DejaVuSans-1090"/>
      <use x="1014.0625" xlink:href="#DejaVuSans-1072"/>
      <use x="1075.341797" xlink:href="#DejaVuSans-1091"/>
      <use x="1134.521484" xlink:href="#DejaVuSans-32"/>
      <use x="1166.308594" xlink:href="#DejaVuSans-124"/>
      <use x="1200" xlink:href="#DejaVuSans-32"/>
      <use x="1231.787109" xlink:href="#DejaVuSans-1048"/>
      <use x="1306.591797" xlink:href="#DejaVuSans-1087"/>
      <use x="1371.972656" xlink:href="#DejaVuSans-1086"/>
      <use x="1433.154297" xlink:href="#DejaVuSans-1090"/>
      <use x="1491.40625" xlink:href="#DejaVuSans-1077"/>
      <use x="1552.929688" xlink:href="#DejaVuSans-1082"/>
      <use x="1613.330078" xlink:href="#DejaVuSans-1072"/>
     </g>
    </g>
    <g id="patch_23">
     <path d="M 233.64 102.197812 
L 253.64 102.197812 
L 253.64 95.197812 
L 233.64 95.197812 
z
" style="fill:#2ca02c;"/>
    </g>
    <g id="text_13">
     <!-- Шедевры кулинарии| Новогодние рецепты -->
     <g transform="translate(261.64 102.197812)scale(0.1 -0.1)">
      <defs>
       <path d="M 58.40625 8.296875 
L 87.25 8.296875 
L 87.25 72.90625 
L 97.125 72.90625 
L 97.125 0 
L 9.8125 0 
L 9.8125 72.90625 
L 19.671875 72.90625 
L 19.671875 8.296875 
L 48.53125 8.296875 
L 48.53125 72.90625 
L 58.40625 72.90625 
z
" id="DejaVuSans-1064"/>
       <path d="M 9.8125 72.90625 
L 19.671875 72.90625 
L 19.671875 43.015625 
L 55.515625 43.015625 
L 55.515625 72.90625 
L 65.375 72.90625 
L 65.375 0 
L 55.515625 0 
L 55.515625 34.71875 
L 19.671875 34.71875 
L 19.671875 0 
L 9.8125 0 
z
" id="DejaVuSans-1053"/>
       <path d="M 56.296875 0 
L 9.078125 0 
L 9.078125 54.6875 
L 18.109375 54.6875 
L 18.109375 7.171875 
L 47.265625 7.171875 
L 47.265625 54.6875 
L 56.296875 54.6875 
L 56.296875 7.171875 
L 63.484375 7.171875 
L 63.484375 -13.8125 
L 56.296875 -13.8125 
z
" id="DejaVuSans-1094"/>
      </defs>
      <use xlink:href="#DejaVuSans-1064"/>
      <use x="106.933594" xlink:href="#DejaVuSans-1077"/>
      <use x="168.457031" xlink:href="#DejaVuSans-1076"/>
      <use x="237.597656" xlink:href="#DejaVuSans-1077"/>
      <use x="299.121094" xlink:href="#DejaVuSans-1074"/>
      <use x="358.056641" xlink:href="#DejaVuSans-1088"/>
      <use x="421.533203" xlink:href="#DejaVuSans-1099"/>
      <use x="500.488281" xlink:href="#DejaVuSans-32"/>
      <use x="532.275391" xlink:href="#DejaVuSans-1082"/>
      <use x="592.675781" xlink:href="#DejaVuSans-1091"/>
      <use x="651.855469" xlink:href="#DejaVuSans-1083"/>
      <use x="715.771484" xlink:href="#DejaVuSans-1080"/>
      <use x="780.761719" xlink:href="#DejaVuSans-1085"/>
      <use x="846.142578" xlink:href="#DejaVuSans-1072"/>
      <use x="907.421875" xlink:href="#DejaVuSans-1088"/>
      <use x="970.898438" xlink:href="#DejaVuSans-1080"/>
      <use x="1035.888672" xlink:href="#DejaVuSans-1080"/>
      <use x="1100.878906" xlink:href="#DejaVuSans-124"/>
      <use x="1134.570312" xlink:href="#DejaVuSans-32"/>
      <use x="1166.357422" xlink:href="#DejaVuSans-1053"/>
      <use x="1241.552734" xlink:href="#DejaVuSans-1086"/>
      <use x="1302.734375" xlink:href="#DejaVuSans-1074"/>
      <use x="1361.669922" xlink:href="#DejaVuSans-1086"/>
      <use x="1422.851562" xlink:href="#DejaVuSans-1075"/>
      <use x="1475.390625" xlink:href="#DejaVuSans-1086"/>
      <use x="1536.572266" xlink:href="#DejaVuSans-1076"/>
      <use x="1605.712891" xlink:href="#DejaVuSans-1085"/>
      <use x="1671.09375" xlink:href="#DejaVuSans-1080"/>
      <use x="1736.083984" xlink:href="#DejaVuSans-1077"/>
      <use x="1797.607422" xlink:href="#DejaVuSans-32"/>
      <use x="1829.394531" xlink:href="#DejaVuSans-1088"/>
      <use x="1892.871094" xlink:href="#DejaVuSans-1077"/>
      <use x="1954.394531" xlink:href="#DejaVuSans-1094"/>
      <use x="2022.460938" xlink:href="#DejaVuSans-1077"/>
      <use x="2083.984375" xlink:href="#DejaVuSans-1087"/>
      <use x="2149.365234" xlink:href="#DejaVuSans-1090"/>
      <use x="2207.617188" xlink:href="#DejaVuSans-1099"/>
     </g>
    </g>
    <g id="patch_24">
     <path d="M 233.64 117.154062 
L 253.64 117.154062 
L 253.64 110.154062 
L 233.64 110.154062 
z
" style="fill:#d62728;"/>
    </g>
    <g id="text_14">
     <!-- Мир парикмахера. Профессиональная косметика. -->
     <g transform="translate(261.64 117.154062)scale(0.1 -0.1)">
      <defs>
       <path d="M 9.8125 72.90625 
L 24.515625 72.90625 
L 43.109375 23.296875 
L 61.8125 72.90625 
L 76.515625 72.90625 
L 76.515625 0 
L 66.890625 0 
L 66.890625 64.015625 
L 48.09375 14.015625 
L 38.1875 14.015625 
L 19.390625 64.015625 
L 19.390625 0 
L 9.8125 0 
z
" id="DejaVuSans-1052"/>
       <path d="M 54.890625 54.6875 
L 35.109375 28.078125 
L 55.90625 0 
L 45.3125 0 
L 29.390625 21.484375 
L 13.484375 0 
L 2.875 0 
L 24.125 28.609375 
L 4.6875 54.6875 
L 15.28125 54.6875 
L 29.78125 35.203125 
L 44.28125 54.6875 
z
" id="DejaVuSans-1093"/>
       <path d="M 65.375 72.90625 
L 65.375 0 
L 55.515625 0 
L 55.515625 64.59375 
L 19.671875 64.59375 
L 19.671875 0 
L 9.8125 0 
L 9.8125 72.90625 
z
" id="DejaVuSans-1055"/>
       <path d="M 14.796875 27.296875 
Q 14.796875 15.828125 18.328125 10.96875 
Q 21.875 6.109375 27.875 6.109375 
Q 32.671875 6.109375 38.234375 14.3125 
L 38.234375 40.28125 
Q 32.671875 48.484375 27.875 48.484375 
Q 21.875 48.484375 18.328125 43.625 
Q 14.796875 38.765625 14.796875 27.296875 
z
M 38.234375 -20.796875 
L 38.234375 6.984375 
Q 35.453125 2.390625 32.25 0.484375 
Q 29.046875 -1.421875 25 -1.421875 
Q 16.84375 -1.421875 11.15625 6.125 
Q 5.46875 13.671875 5.46875 27.09375 
Q 5.46875 40.53125 11.15625 48.265625 
Q 16.84375 56 25 56 
Q 29.046875 56 32.25 54.140625 
Q 35.453125 52.296875 38.234375 47.703125 
L 38.234375 72.90625 
L 47.265625 72.90625 
L 47.265625 47.703125 
Q 50.046875 52.296875 53.25 54.140625 
Q 56.453125 56 60.5 56 
Q 68.65625 56 74.34375 48.265625 
Q 80.03125 40.53125 80.03125 27.09375 
Q 80.03125 13.671875 74.34375 6.125 
Q 68.65625 -1.421875 60.5 -1.421875 
Q 56.453125 -1.421875 53.25 0.484375 
Q 50.046875 2.390625 47.265625 6.984375 
L 47.265625 -20.796875 
z
M 70.703125 27.296875 
Q 70.703125 38.765625 67.15625 43.625 
Q 63.625 48.484375 57.625 48.484375 
Q 52.828125 48.484375 47.265625 40.28125 
L 47.265625 14.3125 
Q 52.828125 6.109375 57.625 6.109375 
Q 63.625 6.109375 67.15625 10.96875 
Q 70.703125 15.828125 70.703125 27.296875 
z
" id="DejaVuSans-1092"/>
       <path d="M 43.453125 16.21875 
Q 43.453125 20.609375 40.25 22.90625 
Q 37.0625 25.203125 30.90625 25.203125 
L 18.109375 25.203125 
L 18.109375 7.171875 
L 30.90625 7.171875 
Q 37.0625 7.171875 40.25 9.484375 
Q 43.453125 11.8125 43.453125 16.21875 
z
M 9.078125 54.6875 
L 18.109375 54.6875 
L 18.109375 32.375 
L 31.296875 32.375 
Q 41.75 32.375 47.390625 28.390625 
Q 53.03125 24.421875 53.03125 16.21875 
Q 53.03125 8.015625 47.390625 4 
Q 41.75 0 31.296875 0 
L 9.078125 0 
z
" id="DejaVuSans-1100"/>
      </defs>
      <use xlink:href="#DejaVuSans-1052"/>
      <use x="86.279297" xlink:href="#DejaVuSans-1080"/>
      <use x="151.269531" xlink:href="#DejaVuSans-1088"/>
      <use x="214.746094" xlink:href="#DejaVuSans-32"/>
      <use x="246.533203" xlink:href="#DejaVuSans-1087"/>
      <use x="311.914062" xlink:href="#DejaVuSans-1072"/>
      <use x="373.193359" xlink:href="#DejaVuSans-1088"/>
      <use x="436.669922" xlink:href="#DejaVuSans-1080"/>
      <use x="501.660156" xlink:href="#DejaVuSans-1082"/>
      <use x="562.060547" xlink:href="#DejaVuSans-1084"/>
      <use x="637.5" xlink:href="#DejaVuSans-1072"/>
      <use x="698.779297" xlink:href="#DejaVuSans-1093"/>
      <use x="757.958984" xlink:href="#DejaVuSans-1077"/>
      <use x="819.482422" xlink:href="#DejaVuSans-1088"/>
      <use x="882.958984" xlink:href="#DejaVuSans-1072"/>
      <use x="944.238281" xlink:href="#DejaVuSans-46"/>
      <use x="976.025391" xlink:href="#DejaVuSans-32"/>
      <use x="1007.8125" xlink:href="#DejaVuSans-1055"/>
      <use x="1083.007812" xlink:href="#DejaVuSans-1088"/>
      <use x="1146.484375" xlink:href="#DejaVuSans-1086"/>
      <use x="1207.666016" xlink:href="#DejaVuSans-1092"/>
      <use x="1293.164062" xlink:href="#DejaVuSans-1077"/>
      <use x="1354.6875" xlink:href="#DejaVuSans-1089"/>
      <use x="1409.667969" xlink:href="#DejaVuSans-1089"/>
      <use x="1464.648438" xlink:href="#DejaVuSans-1080"/>
      <use x="1529.638672" xlink:href="#DejaVuSans-1086"/>
      <use x="1590.820312" xlink:href="#DejaVuSans-1085"/>
      <use x="1656.201172" xlink:href="#DejaVuSans-1072"/>
      <use x="1717.480469" xlink:href="#DejaVuSans-1083"/>
      <use x="1781.396484" xlink:href="#DejaVuSans-1100"/>
      <use x="1840.332031" xlink:href="#DejaVuSans-1085"/>
      <use x="1905.712891" xlink:href="#DejaVuSans-1072"/>
      <use x="1966.992188" xlink:href="#DejaVuSans-1103"/>
      <use x="2027.148438" xlink:href="#DejaVuSans-32"/>
      <use x="2058.935547" xlink:href="#DejaVuSans-1082"/>
      <use x="2119.335938" xlink:href="#DejaVuSans-1086"/>
      <use x="2180.517578" xlink:href="#DejaVuSans-1089"/>
      <use x="2235.498047" xlink:href="#DejaVuSans-1084"/>
      <use x="2310.9375" xlink:href="#DejaVuSans-1077"/>
      <use x="2372.460938" xlink:href="#DejaVuSans-1090"/>
      <use x="2430.712891" xlink:href="#DejaVuSans-1080"/>
      <use x="2495.703125" xlink:href="#DejaVuSans-1082"/>
      <use x="2556.103516" xlink:href="#DejaVuSans-1072"/>
      <use x="2617.382812" xlink:href="#DejaVuSans-46"/>
     </g>
    </g>
    <g id="patch_25">
     <path d="M 233.64 132.0025 
L 253.64 132.0025 
L 253.64 125.0025 
L 233.64 125.0025 
z
" style="fill:#9467bd;"/>
    </g>
    <g id="text_15">
     <!-- P.O.N.I Mila одежда и обувь из Европы СКИДКИ! -->
     <g transform="translate(261.64 132.0025)scale(0.1 -0.1)">
      <defs>
       <path d="M 19.671875 64.796875 
L 19.671875 37.40625 
L 32.078125 37.40625 
Q 38.96875 37.40625 42.71875 40.96875 
Q 46.484375 44.53125 46.484375 51.125 
Q 46.484375 57.671875 42.71875 61.234375 
Q 38.96875 64.796875 32.078125 64.796875 
z
M 9.8125 72.90625 
L 32.078125 72.90625 
Q 44.34375 72.90625 50.609375 67.359375 
Q 56.890625 61.8125 56.890625 51.125 
Q 56.890625 40.328125 50.609375 34.8125 
Q 44.34375 29.296875 32.078125 29.296875 
L 19.671875 29.296875 
L 19.671875 0 
L 9.8125 0 
z
" id="DejaVuSans-80"/>
       <path d="M 9.8125 72.90625 
L 23.09375 72.90625 
L 55.421875 11.921875 
L 55.421875 72.90625 
L 64.984375 72.90625 
L 64.984375 0 
L 51.703125 0 
L 19.390625 60.984375 
L 19.390625 0 
L 9.8125 0 
z
" id="DejaVuSans-78"/>
       <path d="M 31.109375 56 
Q 42.828125 56 49.515625 48.375 
Q 56.203125 40.765625 56.203125 27.296875 
Q 56.203125 13.875 49.515625 6.21875 
Q 42.828125 -1.421875 31.109375 -1.421875 
Q 19.34375 -1.421875 12.84375 6 
Q 6.34375 13.421875 6 27.296875 
L 5.71875 38.484375 
Q 5.46875 44.28125 5.46875 46.296875 
Q 5.46875 54.109375 8.296875 59.859375 
Q 12.75 68.890625 20.4375 72.796875 
Q 28.125 76.703125 41.015625 76.8125 
Q 46.96875 76.859375 49.609375 77.6875 
L 52.09375 70.5625 
Q 49.703125 69.578125 47.515625 69.53125 
L 35.296875 68.703125 
Q 29.15625 68.265625 25.4375 66.109375 
Q 15.71875 60.40625 14.796875 52.9375 
L 14.453125 50.203125 
Q 20.796875 56 31.109375 56 
z
M 31.109375 48.390625 
Q 23.875 48.390625 19.671875 42.75 
Q 15.484375 37.109375 15.484375 27.296875 
Q 15.484375 17.484375 19.65625 11.84375 
Q 23.828125 6.203125 31.109375 6.203125 
Q 38.28125 6.203125 42.484375 11.859375 
Q 46.6875 17.53125 46.6875 27.296875 
Q 46.6875 37.015625 42.484375 42.703125 
Q 38.28125 48.390625 31.109375 48.390625 
z
" id="DejaVuSans-1073"/>
       <path d="M 34.46875 29.5 
Q 40.53125 28.328125 43.890625 24.75 
Q 47.265625 21.1875 47.265625 15.921875 
Q 47.265625 7.46875 40.96875 3.015625 
Q 34.671875 -1.421875 23.046875 -1.421875 
Q 19.140625 -1.421875 15.015625 -0.734375 
Q 10.890625 -0.046875 6.5 1.3125 
L 6.5 9.671875 
Q 9.96875 7.859375 14.109375 6.953125 
Q 18.265625 6.0625 22.796875 6.0625 
Q 30.171875 6.0625 34.296875 8.796875 
Q 38.421875 11.53125 38.421875 15.921875 
Q 38.421875 20.21875 34.765625 22.828125 
Q 31.109375 25.4375 24.421875 25.4375 
L 17.1875 25.4375 
L 17.1875 32.859375 
L 24.75 32.859375 
Q 30.421875 32.859375 33.71875 35.03125 
Q 37.015625 37.203125 37.015625 40.625 
Q 37.015625 43.75 33.609375 46 
Q 30.21875 48.25 24.421875 48.25 
Q 20.953125 48.25 17.015625 47.609375 
Q 13.09375 46.96875 8.34375 45.5625 
L 8.34375 53.71875 
Q 13.140625 54.890625 17.28125 55.46875 
Q 21.4375 56.0625 25.140625 56.0625 
Q 34.71875 56.0625 40.25 52.21875 
Q 45.796875 48.390625 45.796875 41.5 
Q 45.796875 36.96875 42.859375 33.8125 
Q 39.9375 30.671875 34.46875 29.5 
z
" id="DejaVuSans-1079"/>
       <path d="M 9.8125 72.90625 
L 55.90625 72.90625 
L 55.90625 64.59375 
L 19.671875 64.59375 
L 19.671875 43.015625 
L 54.390625 43.015625 
L 54.390625 34.71875 
L 19.671875 34.71875 
L 19.671875 8.296875 
L 56.78125 8.296875 
L 56.78125 0 
L 9.8125 0 
z
" id="DejaVuSans-1045"/>
       <path d="M 64.40625 67.28125 
L 64.40625 56.890625 
Q 59.421875 61.53125 53.78125 63.8125 
Q 48.140625 66.109375 41.796875 66.109375 
Q 29.296875 66.109375 22.65625 58.46875 
Q 16.015625 50.828125 16.015625 36.375 
Q 16.015625 21.96875 22.65625 14.328125 
Q 29.296875 6.6875 41.796875 6.6875 
Q 48.140625 6.6875 53.78125 8.984375 
Q 59.421875 11.28125 64.40625 15.921875 
L 64.40625 5.609375 
Q 59.234375 2.09375 53.4375 0.328125 
Q 47.65625 -1.421875 41.21875 -1.421875 
Q 24.65625 -1.421875 15.125 8.703125 
Q 5.609375 18.84375 5.609375 36.375 
Q 5.609375 53.953125 15.125 64.078125 
Q 24.65625 74.21875 41.21875 74.21875 
Q 47.75 74.21875 53.53125 72.484375 
Q 59.328125 70.75 64.40625 67.28125 
z
" id="DejaVuSans-1057"/>
       <path d="M 22.796875 8.296875 
L 55.03125 8.296875 
L 55.03125 64.59375 
L 31.34375 64.59375 
L 31.34375 54.25 
Q 31.34375 29.890625 25.875 13.71875 
Q 24.75 10.40625 22.796875 8.296875 
z
M 8.40625 8.296875 
Q 14.9375 11.375 16.796875 17.234375 
Q 21.53125 32.28125 21.53125 59.125 
L 21.53125 72.90625 
L 64.890625 72.90625 
L 64.890625 8.296875 
L 73.1875 8.296875 
L 73.1875 -15.671875 
L 64.890625 -15.671875 
L 64.890625 0 
L 13.234375 0 
L 13.234375 -15.671875 
L 4.9375 -15.671875 
L 4.9375 8.296875 
z
" id="DejaVuSans-1044"/>
       <path d="M 15.09375 12.40625 
L 25 12.40625 
L 25 0 
L 15.09375 0 
z
M 15.09375 72.90625 
L 25 72.90625 
L 25 40.921875 
L 24.03125 23.484375 
L 16.109375 23.484375 
L 15.09375 40.921875 
z
" id="DejaVuSans-33"/>
      </defs>
      <use xlink:href="#DejaVuSans-80"/>
      <use x="44.677734" xlink:href="#DejaVuSans-46"/>
      <use x="76.464844" xlink:href="#DejaVuSans-79"/>
      <use x="151.175781" xlink:href="#DejaVuSans-46"/>
      <use x="182.962891" xlink:href="#DejaVuSans-78"/>
      <use x="257.767578" xlink:href="#DejaVuSans-46"/>
      <use x="289.554688" xlink:href="#DejaVuSans-73"/>
      <use x="319.046875" xlink:href="#DejaVuSans-32"/>
      <use x="350.833984" xlink:href="#DejaVuSans-77"/>
      <use x="437.113281" xlink:href="#DejaVuSans-105"/>
      <use x="464.896484" xlink:href="#DejaVuSans-108"/>
      <use x="492.679688" xlink:href="#DejaVuSans-97"/>
      <use x="553.958984" xlink:href="#DejaVuSans-32"/>
      <use x="585.746094" xlink:href="#DejaVuSans-1086"/>
      <use x="646.927734" xlink:href="#DejaVuSans-1076"/>
      <use x="716.068359" xlink:href="#DejaVuSans-1077"/>
      <use x="777.591797" xlink:href="#DejaVuSans-1078"/>
      <use x="867.679688" xlink:href="#DejaVuSans-1076"/>
      <use x="936.820312" xlink:href="#DejaVuSans-1072"/>
      <use x="998.099609" xlink:href="#DejaVuSans-32"/>
      <use x="1029.886719" xlink:href="#DejaVuSans-1080"/>
      <use x="1094.876953" xlink:href="#DejaVuSans-32"/>
      <use x="1126.664062" xlink:href="#DejaVuSans-1086"/>
      <use x="1187.845703" xlink:href="#DejaVuSans-1073"/>
      <use x="1249.515625" xlink:href="#DejaVuSans-1091"/>
      <use x="1308.695312" xlink:href="#DejaVuSans-1074"/>
      <use x="1367.630859" xlink:href="#DejaVuSans-1100"/>
      <use x="1426.566406" xlink:href="#DejaVuSans-32"/>
      <use x="1458.353516" xlink:href="#DejaVuSans-1080"/>
      <use x="1523.34375" xlink:href="#DejaVuSans-1079"/>
      <use x="1576.517578" xlink:href="#DejaVuSans-32"/>
      <use x="1608.304688" xlink:href="#DejaVuSans-1045"/>
      <use x="1671.488281" xlink:href="#DejaVuSans-1074"/>
      <use x="1730.423828" xlink:href="#DejaVuSans-1088"/>
      <use x="1793.900391" xlink:href="#DejaVuSans-1086"/>
      <use x="1855.082031" xlink:href="#DejaVuSans-1087"/>
      <use x="1920.462891" xlink:href="#DejaVuSans-1099"/>
      <use x="1999.417969" xlink:href="#DejaVuSans-32"/>
      <use x="2031.205078" xlink:href="#DejaVuSans-1057"/>
      <use x="2101.029297" xlink:href="#DejaVuSans-1050"/>
      <use x="2172.025391" xlink:href="#DejaVuSans-1048"/>
      <use x="2246.830078" xlink:href="#DejaVuSans-1044"/>
      <use x="2324.955078" xlink:href="#DejaVuSans-1050"/>
      <use x="2395.951172" xlink:href="#DejaVuSans-1048"/>
      <use x="2470.755859" xlink:href="#DejaVuSans-33"/>
     </g>
    </g>
    <g id="patch_26">
     <path d="M 233.64 146.680625 
L 253.64 146.680625 
L 253.64 139.680625 
L 233.64 139.680625 
z
" style="fill:#8c564b;"/>
    </g>
    <g id="text_16">
     <!-- Башкирский мёд Зайниева Вениамина -->
     <g transform="translate(261.64 146.680625)scale(0.1 -0.1)">
      <defs>
       <path d="M 51.125 21.4375 
Q 51.125 28.21875 47.28125 31.515625 
Q 43.453125 34.8125 35.5 34.8125 
L 19.671875 34.8125 
L 19.671875 8.109375 
L 35.5 8.109375 
Q 43.453125 8.109375 47.28125 11.40625 
Q 51.125 14.703125 51.125 21.4375 
z
M 56.390625 72.90625 
L 56.390625 64.796875 
L 19.671875 64.796875 
L 19.671875 42.921875 
L 35.984375 42.921875 
Q 48.25 42.921875 54.890625 37.59375 
Q 61.53125 32.28125 61.53125 21.4375 
Q 61.53125 10.640625 55.109375 5.3125 
Q 48.6875 0 35.984375 0 
L 9.8125 0 
L 9.8125 72.90625 
z
" id="DejaVuSans-1041"/>
       <path d="M 50.25 7.171875 
L 73.390625 7.171875 
L 73.390625 54.6875 
L 82.421875 54.6875 
L 82.421875 0 
L 9.078125 0 
L 9.078125 54.6875 
L 18.109375 54.6875 
L 18.109375 7.171875 
L 41.21875 7.171875 
L 41.21875 54.6875 
L 50.25 54.6875 
z
" id="DejaVuSans-1096"/>
       <path d="M 55.90625 54.6875 
L 55.90625 0 
L 46.96875 0 
L 46.96875 43.890625 
L 20.609375 0 
L 9.078125 0 
L 9.078125 54.6875 
L 18.015625 54.6875 
L 18.015625 10.890625 
L 44.34375 54.6875 
z
M 17.21875 75.515625 
L 22.984375 75.515625 
Q 23.515625 71.859375 25.875 70.015625 
Q 28.25 68.1875 32.5 68.1875 
Q 36.703125 68.1875 39.046875 70 
Q 41.390625 71.8125 42.015625 75.515625 
L 47.78125 75.515625 
Q 47.296875 68.53125 43.4375 65.015625 
Q 39.578125 61.5 32.5 61.5 
Q 25.421875 61.5 21.5625 65.015625 
Q 17.703125 68.53125 17.21875 75.515625 
z
" id="DejaVuSans-1081"/>
       <path d="M 56.203125 29.59375 
L 56.203125 25.203125 
L 14.890625 25.203125 
Q 15.484375 15.921875 20.484375 11.0625 
Q 25.484375 6.203125 34.421875 6.203125 
Q 39.59375 6.203125 44.453125 7.46875 
Q 49.3125 8.734375 54.109375 11.28125 
L 54.109375 2.78125 
Q 49.265625 0.734375 44.1875 -0.34375 
Q 39.109375 -1.421875 33.890625 -1.421875 
Q 20.796875 -1.421875 13.15625 6.1875 
Q 5.515625 13.8125 5.515625 26.8125 
Q 5.515625 40.234375 12.765625 48.109375 
Q 20.015625 56 32.328125 56 
Q 43.359375 56 49.78125 48.890625 
Q 56.203125 41.796875 56.203125 29.59375 
z
M 47.21875 32.234375 
Q 47.125 39.59375 43.09375 43.984375 
Q 39.0625 48.390625 32.421875 48.390625 
Q 24.90625 48.390625 20.390625 44.140625 
Q 15.875 39.890625 15.1875 32.171875 
z
M 36.96875 75.78125 
L 46.875 75.78125 
L 46.875 65.921875 
L 36.96875 65.921875 
z
M 17.875 75.78125 
L 27.78125 75.78125 
L 27.78125 65.921875 
L 17.875 65.921875 
z
" id="DejaVuSans-1105"/>
       <path d="M 28.5625 74.21875 
Q 40.578125 74.21875 48.1875 69.109375 
Q 55.8125 64.015625 55.8125 55.328125 
Q 55.8125 49.265625 52.34375 45.09375 
Q 48.875 40.921875 42.484375 39.3125 
Q 49.5625 37.796875 53.53125 33 
Q 57.515625 28.21875 57.515625 21.1875 
Q 57.515625 9.96875 48.84375 4.265625 
Q 40.1875 -1.421875 28.5625 -1.421875 
Q 22.609375 -1.421875 15.671875 0.1875 
Q 8.734375 1.8125 6.59375 3.171875 
L 6.59375 13.328125 
Q 14.0625 8.984375 18.1875 7.9375 
Q 22.3125 6.890625 28.375 6.890625 
Q 37.546875 6.890625 42.625 10.40625 
Q 47.703125 13.921875 47.703125 21.1875 
Q 47.703125 27.640625 43.1875 31.265625 
Q 38.671875 34.90625 29.15625 34.90625 
L 19.1875 34.90625 
L 19.1875 43.015625 
L 29.546875 43.015625 
Q 38.28125 43.015625 42.140625 45.921875 
Q 46 48.828125 46 54.296875 
Q 46 59.90625 42.015625 62.90625 
Q 38.03125 65.921875 28.375 65.921875 
Q 21.828125 65.921875 19.578125 65.328125 
Q 17.328125 64.75 7.328125 60.984375 
L 7.328125 70.609375 
Q 12.84375 72.5625 18.59375 73.390625 
Q 24.359375 74.21875 28.5625 74.21875 
z
" id="DejaVuSans-1047"/>
       <path d="M 19.671875 34.8125 
L 19.671875 8.109375 
L 35.5 8.109375 
Q 43.453125 8.109375 47.28125 11.40625 
Q 51.125 14.703125 51.125 21.484375 
Q 51.125 28.328125 47.28125 31.5625 
Q 43.453125 34.8125 35.5 34.8125 
z
M 19.671875 64.796875 
L 19.671875 42.828125 
L 34.28125 42.828125 
Q 41.5 42.828125 45.03125 45.53125 
Q 48.578125 48.25 48.578125 53.8125 
Q 48.578125 59.328125 45.03125 62.0625 
Q 41.5 64.796875 34.28125 64.796875 
z
M 9.8125 72.90625 
L 35.015625 72.90625 
Q 46.296875 72.90625 52.390625 68.21875 
Q 58.5 63.53125 58.5 54.890625 
Q 58.5 48.1875 55.375 44.234375 
Q 52.25 40.28125 46.1875 39.3125 
Q 53.46875 37.75 57.5 32.78125 
Q 61.53125 27.828125 61.53125 20.40625 
Q 61.53125 10.640625 54.890625 5.3125 
Q 48.25 0 35.984375 0 
L 9.8125 0 
z
" id="DejaVuSans-1042"/>
      </defs>
      <use xlink:href="#DejaVuSans-1041"/>
      <use x="68.603516" xlink:href="#DejaVuSans-1072"/>
      <use x="129.882812" xlink:href="#DejaVuSans-1096"/>
      <use x="221.386719" xlink:href="#DejaVuSans-1082"/>
      <use x="281.787109" xlink:href="#DejaVuSans-1080"/>
      <use x="346.777344" xlink:href="#DejaVuSans-1088"/>
      <use x="410.253906" xlink:href="#DejaVuSans-1089"/>
      <use x="465.234375" xlink:href="#DejaVuSans-1082"/>
      <use x="525.634766" xlink:href="#DejaVuSans-1080"/>
      <use x="590.625" xlink:href="#DejaVuSans-1081"/>
      <use x="655.615234" xlink:href="#DejaVuSans-32"/>
      <use x="687.402344" xlink:href="#DejaVuSans-1084"/>
      <use x="762.841797" xlink:href="#DejaVuSans-1105"/>
      <use x="824.365234" xlink:href="#DejaVuSans-1076"/>
      <use x="893.505859" xlink:href="#DejaVuSans-32"/>
      <use x="925.292969" xlink:href="#DejaVuSans-1047"/>
      <use x="989.404297" xlink:href="#DejaVuSans-1072"/>
      <use x="1050.683594" xlink:href="#DejaVuSans-1081"/>
      <use x="1115.673828" xlink:href="#DejaVuSans-1085"/>
      <use x="1181.054688" xlink:href="#DejaVuSans-1080"/>
      <use x="1246.044922" xlink:href="#DejaVuSans-1077"/>
      <use x="1307.568359" xlink:href="#DejaVuSans-1074"/>
      <use x="1366.503906" xlink:href="#DejaVuSans-1072"/>
      <use x="1427.783203" xlink:href="#DejaVuSans-32"/>
      <use x="1459.570312" xlink:href="#DejaVuSans-1042"/>
      <use x="1528.173828" xlink:href="#DejaVuSans-1077"/>
      <use x="1589.697266" xlink:href="#DejaVuSans-1085"/>
      <use x="1655.078125" xlink:href="#DejaVuSans-1080"/>
      <use x="1720.068359" xlink:href="#DejaVuSans-1072"/>
      <use x="1781.347656" xlink:href="#DejaVuSans-1084"/>
      <use x="1856.787109" xlink:href="#DejaVuSans-1080"/>
      <use x="1921.777344" xlink:href="#DejaVuSans-1085"/>
      <use x="1987.158203" xlink:href="#DejaVuSans-1072"/>
     </g>
    </g>
    <g id="patch_27">
     <path d="M 233.64 161.35875 
L 253.64 161.35875 
L 253.64 154.35875 
L 233.64 154.35875 
z
" style="fill:#e377c2;"/>
    </g>
    <g id="text_17">
     <!-- ММБУК "Гагинская ЦКС" (Районный Дом Культуры) -->
     <g transform="translate(261.64 161.35875)scale(0.1 -0.1)">
      <defs>
       <path d="M 31.984375 8.84375 
Q 30.953125 6.390625 29.390625 4.546875 
Q 25.53125 0 13.28125 0 
L 9.515625 0 
L 9.515625 8.296875 
L 12.59375 8.296875 
Q 18.40625 8.296875 20.65625 9.625 
Q 22.015625 10.453125 22.90625 12.5 
L 25.09375 17.671875 
L 1.703125 72.90625 
L 12.3125 72.90625 
L 30.421875 30.125 
L 48.640625 72.90625 
L 59.234375 72.90625 
z
" id="DejaVuSans-1059"/>
       <path d="M 17.921875 72.90625 
L 17.921875 45.796875 
L 9.625 45.796875 
L 9.625 72.90625 
z
M 36.375 72.90625 
L 36.375 45.796875 
L 28.078125 45.796875 
L 28.078125 72.90625 
z
" id="DejaVuSans-34"/>
       <path d="M 9.8125 0 
L 9.8125 72.90625 
L 55.171875 72.90625 
L 55.171875 64.59375 
L 19.671875 64.59375 
L 19.671875 0 
z
" id="DejaVuSans-1043"/>
       <path d="M 65.375 0 
L 9.8125 0 
L 9.8125 72.90625 
L 19.671875 72.90625 
L 19.671875 8.296875 
L 55.515625 8.296875 
L 55.515625 72.90625 
L 65.375 72.90625 
L 65.375 8.296875 
L 73.6875 8.296875 
L 73.6875 -15.671875 
L 65.375 -15.671875 
z
" id="DejaVuSans-1062"/>
       <path d="M 31 75.875 
Q 24.46875 64.65625 21.28125 53.65625 
Q 18.109375 42.671875 18.109375 31.390625 
Q 18.109375 20.125 21.3125 9.0625 
Q 24.515625 -2 31 -13.1875 
L 23.1875 -13.1875 
Q 15.875 -1.703125 12.234375 9.375 
Q 8.59375 20.453125 8.59375 31.390625 
Q 8.59375 42.28125 12.203125 53.3125 
Q 15.828125 64.359375 23.1875 75.875 
z
" id="DejaVuSans-40"/>
       <path d="M 19.671875 64.796875 
L 19.671875 37.40625 
L 32.078125 37.40625 
Q 38.96875 37.40625 42.71875 40.96875 
Q 46.484375 44.53125 46.484375 51.125 
Q 46.484375 57.671875 42.71875 61.234375 
Q 38.96875 64.796875 32.078125 64.796875 
z
M 9.8125 72.90625 
L 32.078125 72.90625 
Q 44.34375 72.90625 50.609375 67.359375 
Q 56.890625 61.8125 56.890625 51.125 
Q 56.890625 40.328125 50.609375 34.8125 
Q 44.34375 29.296875 32.078125 29.296875 
L 19.671875 29.296875 
L 19.671875 0 
L 9.8125 0 
z
" id="DejaVuSans-1056"/>
       <path d="M 8.015625 75.875 
L 15.828125 75.875 
Q 23.140625 64.359375 26.78125 53.3125 
Q 30.421875 42.28125 30.421875 31.390625 
Q 30.421875 20.453125 26.78125 9.375 
Q 23.140625 -1.703125 15.828125 -13.1875 
L 8.015625 -13.1875 
Q 14.5 -2 17.703125 9.0625 
Q 20.90625 20.125 20.90625 31.390625 
Q 20.90625 42.671875 17.703125 53.65625 
Q 14.5 64.65625 8.015625 75.875 
z
" id="DejaVuSans-41"/>
      </defs>
      <use xlink:href="#DejaVuSans-1052"/>
      <use x="86.279297" xlink:href="#DejaVuSans-1052"/>
      <use x="172.558594" xlink:href="#DejaVuSans-1041"/>
      <use x="241.162109" xlink:href="#DejaVuSans-1059"/>
      <use x="302.099609" xlink:href="#DejaVuSans-1050"/>
      <use x="373.095703" xlink:href="#DejaVuSans-32"/>
      <use x="404.882812" xlink:href="#DejaVuSans-34"/>
      <use x="450.878906" xlink:href="#DejaVuSans-1043"/>
      <use x="511.865234" xlink:href="#DejaVuSans-1072"/>
      <use x="573.144531" xlink:href="#DejaVuSans-1075"/>
      <use x="625.683594" xlink:href="#DejaVuSans-1080"/>
      <use x="690.673828" xlink:href="#DejaVuSans-1085"/>
      <use x="756.054688" xlink:href="#DejaVuSans-1089"/>
      <use x="811.035156" xlink:href="#DejaVuSans-1082"/>
      <use x="871.435547" xlink:href="#DejaVuSans-1072"/>
      <use x="932.714844" xlink:href="#DejaVuSans-1103"/>
      <use x="992.871094" xlink:href="#DejaVuSans-32"/>
      <use x="1024.658203" xlink:href="#DejaVuSans-1062"/>
      <use x="1102.294922" xlink:href="#DejaVuSans-1050"/>
      <use x="1173.291016" xlink:href="#DejaVuSans-1057"/>
      <use x="1243.115234" xlink:href="#DejaVuSans-34"/>
      <use x="1289.111328" xlink:href="#DejaVuSans-32"/>
      <use x="1320.898438" xlink:href="#DejaVuSans-40"/>
      <use x="1359.912109" xlink:href="#DejaVuSans-1056"/>
      <use x="1420.214844" xlink:href="#DejaVuSans-1072"/>
      <use x="1481.494141" xlink:href="#DejaVuSans-1081"/>
      <use x="1546.484375" xlink:href="#DejaVuSans-1086"/>
      <use x="1607.666016" xlink:href="#DejaVuSans-1085"/>
      <use x="1673.046875" xlink:href="#DejaVuSans-1085"/>
      <use x="1738.427734" xlink:href="#DejaVuSans-1099"/>
      <use x="1817.382812" xlink:href="#DejaVuSans-1081"/>
      <use x="1882.373047" xlink:href="#DejaVuSans-32"/>
      <use x="1914.160156" xlink:href="#DejaVuSans-1044"/>
      <use x="1992.285156" xlink:href="#DejaVuSans-1086"/>
      <use x="2053.466797" xlink:href="#DejaVuSans-1084"/>
      <use x="2128.90625" xlink:href="#DejaVuSans-32"/>
      <use x="2160.693359" xlink:href="#DejaVuSans-1050"/>
      <use x="2231.689453" xlink:href="#DejaVuSans-1091"/>
      <use x="2290.869141" xlink:href="#DejaVuSans-1083"/>
      <use x="2354.785156" xlink:href="#DejaVuSans-1100"/>
      <use x="2413.720703" xlink:href="#DejaVuSans-1090"/>
      <use x="2471.972656" xlink:href="#DejaVuSans-1091"/>
      <use x="2531.152344" xlink:href="#DejaVuSans-1088"/>
      <use x="2594.628906" xlink:href="#DejaVuSans-1099"/>
      <use x="2673.583984" xlink:href="#DejaVuSans-41"/>
     </g>
    </g>
    <g id="patch_28">
     <path d="M 233.64 176.080625 
L 253.64 176.080625 
L 253.64 169.080625 
L 233.64 169.080625 
z
" style="fill:#7f7f7f;"/>
    </g>
    <g id="text_18">
     <!-- Eva Graffova||Великий Новгород||Женская одежда -->
     <g transform="translate(261.64 176.080625)scale(0.1 -0.1)">
      <defs>
       <path d="M 9.8125 72.90625 
L 55.90625 72.90625 
L 55.90625 64.59375 
L 19.671875 64.59375 
L 19.671875 43.015625 
L 54.390625 43.015625 
L 54.390625 34.71875 
L 19.671875 34.71875 
L 19.671875 8.296875 
L 56.78125 8.296875 
L 56.78125 0 
L 9.8125 0 
z
" id="DejaVuSans-69"/>
       <path d="M 59.515625 10.40625 
L 59.515625 29.984375 
L 43.40625 29.984375 
L 43.40625 38.09375 
L 69.28125 38.09375 
L 69.28125 6.78125 
Q 63.578125 2.734375 56.6875 0.65625 
Q 49.8125 -1.421875 42 -1.421875 
Q 24.90625 -1.421875 15.25 8.5625 
Q 5.609375 18.5625 5.609375 36.375 
Q 5.609375 54.25 15.25 64.234375 
Q 24.90625 74.21875 42 74.21875 
Q 49.125 74.21875 55.546875 72.453125 
Q 61.96875 70.703125 67.390625 67.28125 
L 67.390625 56.78125 
Q 61.921875 61.421875 55.765625 63.765625 
Q 49.609375 66.109375 42.828125 66.109375 
Q 29.4375 66.109375 22.71875 58.640625 
Q 16.015625 51.171875 16.015625 36.375 
Q 16.015625 21.625 22.71875 14.15625 
Q 29.4375 6.6875 42.828125 6.6875 
Q 48.046875 6.6875 52.140625 7.59375 
Q 56.25 8.5 59.515625 10.40625 
z
" id="DejaVuSans-71"/>
       <path d="M 48.921875 72.90625 
L 58.796875 72.90625 
L 58.796875 36.859375 
L 92.09375 72.90625 
L 104.046875 72.90625 
L 77.4375 44.140625 
L 105.765625 0 
L 95.453125 0 
L 71.390625 37.546875 
L 58.796875 23.921875 
L 58.796875 0 
L 48.921875 0 
L 48.921875 23.921875 
L 36.328125 37.546875 
L 12.25 0 
L 1.953125 0 
L 30.28125 44.140625 
L 3.65625 72.90625 
L 15.625 72.90625 
L 48.921875 36.859375 
z
" id="DejaVuSans-1046"/>
      </defs>
      <use xlink:href="#DejaVuSans-69"/>
      <use x="63.183594" xlink:href="#DejaVuSans-118"/>
      <use x="122.363281" xlink:href="#DejaVuSans-97"/>
      <use x="183.642578" xlink:href="#DejaVuSans-32"/>
      <use x="215.429688" xlink:href="#DejaVuSans-71"/>
      <use x="292.919922" xlink:href="#DejaVuSans-114"/>
      <use x="334.033203" xlink:href="#DejaVuSans-97"/>
      <use x="395.3125" xlink:href="#DejaVuSans-102"/>
      <use x="430.517578" xlink:href="#DejaVuSans-102"/>
      <use x="465.722656" xlink:href="#DejaVuSans-111"/>
      <use x="526.904297" xlink:href="#DejaVuSans-118"/>
      <use x="586.083984" xlink:href="#DejaVuSans-97"/>
      <use x="647.363281" xlink:href="#DejaVuSans-124"/>
      <use x="681.054688" xlink:href="#DejaVuSans-124"/>
      <use x="714.746094" xlink:href="#DejaVuSans-1042"/>
      <use x="783.349609" xlink:href="#DejaVuSans-1077"/>
      <use x="844.873047" xlink:href="#DejaVuSans-1083"/>
      <use x="908.789062" xlink:href="#DejaVuSans-1080"/>
      <use x="973.779297" xlink:href="#DejaVuSans-1082"/>
      <use x="1034.179688" xlink:href="#DejaVuSans-1080"/>
      <use x="1099.169922" xlink:href="#DejaVuSans-1081"/>
      <use x="1164.160156" xlink:href="#DejaVuSans-32"/>
      <use x="1195.947266" xlink:href="#DejaVuSans-1053"/>
      <use x="1271.142578" xlink:href="#DejaVuSans-1086"/>
      <use x="1332.324219" xlink:href="#DejaVuSans-1074"/>
      <use x="1391.259766" xlink:href="#DejaVuSans-1075"/>
      <use x="1443.798828" xlink:href="#DejaVuSans-1086"/>
      <use x="1504.980469" xlink:href="#DejaVuSans-1088"/>
      <use x="1568.457031" xlink:href="#DejaVuSans-1086"/>
      <use x="1629.638672" xlink:href="#DejaVuSans-1076"/>
      <use x="1698.779297" xlink:href="#DejaVuSans-124"/>
      <use x="1732.470703" xlink:href="#DejaVuSans-124"/>
      <use x="1766.162109" xlink:href="#DejaVuSans-1046"/>
      <use x="1873.876953" xlink:href="#DejaVuSans-1077"/>
      <use x="1935.400391" xlink:href="#DejaVuSans-1085"/>
      <use x="2000.78125" xlink:href="#DejaVuSans-1089"/>
      <use x="2055.761719" xlink:href="#DejaVuSans-1082"/>
      <use x="2116.162109" xlink:href="#DejaVuSans-1072"/>
      <use x="2177.441406" xlink:href="#DejaVuSans-1103"/>
      <use x="2237.597656" xlink:href="#DejaVuSans-32"/>
      <use x="2269.384766" xlink:href="#DejaVuSans-1086"/>
      <use x="2330.566406" xlink:href="#DejaVuSans-1076"/>
      <use x="2399.707031" xlink:href="#DejaVuSans-1077"/>
      <use x="2461.230469" xlink:href="#DejaVuSans-1078"/>
      <use x="2551.318359" xlink:href="#DejaVuSans-1076"/>
      <use x="2620.458984" xlink:href="#DejaVuSans-1072"/>
     </g>
    </g>
    <g id="patch_29">
     <path d="M 233.64 191.036875 
L 253.64 191.036875 
L 253.64 184.036875 
L 233.64 184.036875 
z
" style="fill:#bcbd22;"/>
    </g>
    <g id="text_19">
     <!-- Национальный симфонический оркестр РБ -->
     <g transform="translate(261.64 191.036875)scale(0.1 -0.1)">
      <use xlink:href="#DejaVuSans-1053"/>
      <use x="75.195312" xlink:href="#DejaVuSans-1072"/>
      <use x="136.474609" xlink:href="#DejaVuSans-1094"/>
      <use x="204.541016" xlink:href="#DejaVuSans-1080"/>
      <use x="269.53125" xlink:href="#DejaVuSans-1086"/>
      <use x="330.712891" xlink:href="#DejaVuSans-1085"/>
      <use x="396.09375" xlink:href="#DejaVuSans-1072"/>
      <use x="457.373047" xlink:href="#DejaVuSans-1083"/>
      <use x="521.289062" xlink:href="#DejaVuSans-1100"/>
      <use x="580.224609" xlink:href="#DejaVuSans-1085"/>
      <use x="645.605469" xlink:href="#DejaVuSans-1099"/>
      <use x="724.560547" xlink:href="#DejaVuSans-1081"/>
      <use x="789.550781" xlink:href="#DejaVuSans-32"/>
      <use x="821.337891" xlink:href="#DejaVuSans-1089"/>
      <use x="876.318359" xlink:href="#DejaVuSans-1080"/>
      <use x="941.308594" xlink:href="#DejaVuSans-1084"/>
      <use x="1016.748047" xlink:href="#DejaVuSans-1092"/>
      <use x="1102.246094" xlink:href="#DejaVuSans-1086"/>
      <use x="1163.427734" xlink:href="#DejaVuSans-1085"/>
      <use x="1228.808594" xlink:href="#DejaVuSans-1080"/>
      <use x="1293.798828" xlink:href="#DejaVuSans-1095"/>
      <use x="1352.880859" xlink:href="#DejaVuSans-1077"/>
      <use x="1414.404297" xlink:href="#DejaVuSans-1089"/>
      <use x="1469.384766" xlink:href="#DejaVuSans-1082"/>
      <use x="1529.785156" xlink:href="#DejaVuSans-1080"/>
      <use x="1594.775391" xlink:href="#DejaVuSans-1081"/>
      <use x="1659.765625" xlink:href="#DejaVuSans-32"/>
      <use x="1691.552734" xlink:href="#DejaVuSans-1086"/>
      <use x="1752.734375" xlink:href="#DejaVuSans-1088"/>
      <use x="1816.210938" xlink:href="#DejaVuSans-1082"/>
      <use x="1876.611328" xlink:href="#DejaVuSans-1077"/>
      <use x="1938.134766" xlink:href="#DejaVuSans-1089"/>
      <use x="1993.115234" xlink:href="#DejaVuSans-1090"/>
      <use x="2051.367188" xlink:href="#DejaVuSans-1088"/>
      <use x="2114.84375" xlink:href="#DejaVuSans-32"/>
      <use x="2146.630859" xlink:href="#DejaVuSans-1056"/>
      <use x="2206.933594" xlink:href="#DejaVuSans-1041"/>
     </g>
    </g>
   </g>
  </g>
 </g>
</svg>
