<?xml version="1.0" encoding="utf-8" standalone="no"?>
<!DOCTYPE svg PUBLIC "-//W3C//DTD SVG 1.1//EN"
  "http://www.w3.org/Graphics/SVG/1.1/DTD/svg11.dtd">
<!-- Created with matplotlib (https://matplotlib.org/) -->
<svg height="231.84pt" version="1.1" viewBox="0 0 554.682188 231.84" width="554.682188pt" xmlns="http://www.w3.org/2000/svg" xmlns:xlink="http://www.w3.org/1999/xlink">
 <metadata>
  <rdf:RDF xmlns:cc="http://creativecommons.org/ns#" xmlns:dc="http://purl.org/dc/elements/1.1/" xmlns:rdf="http://www.w3.org/1999/02/22-rdf-syntax-ns#">
   <cc:Work>
    <dc:type rdf:resource="http://purl.org/dc/dcmitype/StillImage"/>
    <dc:date>2020-12-03T00:01:10.062673</dc:date>
    <dc:format>image/svg+xml</dc:format>
    <dc:creator>
     <cc:Agent>
      <dc:title>Matplotlib v3.3.3, https://matplotlib.org/</dc:title>
     </cc:Agent>
    </dc:creator>
   </cc:Work>
  </rdf:RDF>
 </metadata>
 <defs>
  <style type="text/css">*{stroke-linecap:butt;stroke-linejoin:round;}</style>
 </defs>
 <g id="figure_1">
  <g id="patch_1">
   <path d="M 0 231.84 
L 554.682188 231.84 
L 554.682188 0 
L 0 0 
z
" style="fill:none;"/>
  </g>
  <g id="axes_1">
   <g id="patch_2">
    <path d="M 208.192986 112.547199 
C 208.192986 94.182525 202.376532 76.281321 191.582048 61.423988 
C 180.787563 46.566655 165.55989 35.503103 148.094047 29.828107 
L 121.216986 112.547199 
L 208.192986 112.547199 
z
" style="fill:#092436;opacity:0.5;stroke:#092436;stroke-linejoin:miter;"/>
   </g>
   <g id="patch_3">
    <path d="M 139.819743 26.331357 
C 127.165446 22.219727 113.734791 21.066167 100.564707 22.959739 
C 87.394622 24.853312 74.832999 29.743997 63.84967 37.254205 
L 112.942682 109.050449 
L 139.819743 26.331357 
z
" style="fill:#4c2604;opacity:0.5;stroke:#4c2604;stroke-linejoin:miter;"/>
   </g>
   <g id="patch_4">
    <path d="M 57.770581 41.160998 
C 48.169843 47.725814 39.982707 56.150177 33.694727 65.934465 
C 27.406747 75.718753 23.144735 86.66564 21.161458 98.125902 
L 106.863593 112.957242 
L 57.770581 41.160998 
z
" style="fill:#0d300d;opacity:0.5;stroke:#0d300d;stroke-linejoin:miter;"/>
   </g>
   <g id="patch_5">
    <path d="M 19.908132 104.311313 
C 18.209668 114.125798 18.209668 124.159506 19.908131 133.97399 
C 21.606594 143.788474 24.978415 153.238666 29.876255 161.911615 
L 105.610266 119.142654 
L 19.908132 104.311313 
z
" style="fill:#400c0c;opacity:0.5;stroke:#400c0c;stroke-linejoin:miter;"/>
   </g>
   <g id="patch_6">
    <path d="M 32.384784 166.665807 
C 36.463286 173.887898 41.553961 180.489602 47.501953 186.270101 
C 53.449945 192.050599 60.194327 196.950679 67.529938 200.821284 
L 108.118796 123.896846 
L 32.384784 166.665807 
z
" style="fill:#2c1f39;opacity:0.5;stroke:#2c1f39;stroke-linejoin:miter;"/>
   </g>
   <g id="patch_7">
    <path d="M 71.864362 203.108324 
C 79.199974 206.978929 87.051672 209.78041 95.180615 211.427547 
C 103.309559 213.074684 111.632477 213.550606 119.896193 212.840835 
L 112.45322 126.183886 
L 71.864362 203.108324 
z
" style="fill:#2a1a16;opacity:0.5;stroke:#2a1a16;stroke-linejoin:miter;"/>
   </g>
   <g id="patch_8">
    <path d="M 124.779009 212.421449 
C 133.042725 211.711678 141.162589 209.823484 148.891601 206.814306 
C 156.620613 203.805127 163.8796 199.705789 170.447748 194.640989 
L 117.336036 125.764501 
L 124.779009 212.421449 
z
" style="fill:#44243a;opacity:0.5;stroke:#44243a;stroke-linejoin:miter;"/>
   </g>
   <g id="patch_9">
    <path d="M 174.025366 192.041697 
C 179.276685 187.992325 184.047718 183.355643 188.245396 178.222099 
C 192.443074 173.088555 196.039923 167.491748 198.96578 161.540854 
L 120.913654 123.165209 
L 174.025366 192.041697 
z
" style="fill:#262626;opacity:0.5;stroke:#262626;stroke-linejoin:miter;"/>
   </g>
   <g id="patch_10">
    <path d="M 200.704172 158.005144 
C 203.63003 152.05425 205.865745 145.788219 207.367707 139.32928 
C 208.869668 132.870342 209.628046 126.26077 209.628046 119.629498 
L 122.652046 119.629498 
L 200.704172 158.005144 
z
" style="fill:#38390a;opacity:0.5;stroke:#38390a;stroke-linejoin:miter;"/>
   </g>
   <g id="patch_11">
    <path d="M 209.932506 110.807679 
C 209.932506 92.443005 204.116052 74.541801 193.321568 59.684468 
C 182.527083 44.827135 167.29941 33.763583 149.833567 28.088587 
L 122.956506 110.807679 
L 209.932506 110.807679 
z
" style="fill:#1f77b4;"/>
   </g>
   <g id="patch_12">
    <path d="M 141.559263 24.591837 
C 128.904966 20.480207 115.474311 19.326647 102.304227 21.220219 
C 89.134142 23.113792 76.572519 28.004477 65.58919 35.514685 
L 114.682202 107.310929 
L 141.559263 24.591837 
z
" style="fill:#ff7f0e;"/>
   </g>
   <g id="patch_13">
    <path d="M 59.510101 39.421478 
C 49.909363 45.986294 41.722227 54.410657 35.434247 64.194945 
C 29.146267 73.979233 24.884255 84.92612 22.900978 96.386382 
L 108.603113 111.217722 
L 59.510101 39.421478 
z
" style="fill:#2ca02c;"/>
   </g>
   <g id="patch_14">
    <path d="M 21.647652 102.571793 
C 19.949188 112.386278 19.949188 122.419986 21.647651 132.23447 
C 23.346114 142.048954 26.717935 151.499146 31.615775 160.172095 
L 107.349786 117.403134 
L 21.647652 102.571793 
z
" style="fill:#d62728;"/>
   </g>
   <g id="patch_15">
    <path d="M 34.124304 164.926287 
C 38.202806 172.148378 43.293481 178.750082 49.241473 184.530581 
C 55.189465 190.311079 61.933847 195.211159 69.269458 199.081764 
L 109.858316 122.157326 
L 34.124304 164.926287 
z
" style="fill:#9467bd;"/>
   </g>
   <g id="patch_16">
    <path d="M 73.603882 201.368804 
C 80.939494 205.239409 88.791192 208.04089 96.920135 209.688027 
C 105.049079 211.335164 113.371997 211.811086 121.635713 211.101315 
L 114.19274 124.444366 
L 73.603882 201.368804 
z
" style="fill:#8c564b;"/>
   </g>
   <g id="patch_17">
    <path d="M 126.518529 210.681929 
C 134.782245 209.972158 142.902109 208.083964 150.631121 205.074786 
C 158.360133 202.065607 165.61912 197.966269 172.187268 192.901469 
L 119.075556 124.024981 
L 126.518529 210.681929 
z
" style="fill:#e377c2;"/>
   </g>
   <g id="patch_18">
    <path d="M 175.764886 190.302177 
C 181.016205 186.252805 185.787238 181.616123 189.984916 176.482579 
C 194.182594 171.349035 197.779443 165.752228 200.7053 159.801334 
L 122.653174 121.425689 
L 175.764886 190.302177 
z
" style="fill:#7f7f7f;"/>
   </g>
   <g id="patch_19">
    <path d="M 202.443692 156.265624 
C 205.36955 150.31473 207.605265 144.048699 209.107227 137.58976 
C 210.609188 131.130822 211.367566 124.52125 211.367566 117.889978 
L 124.391566 117.889978 
L 202.443692 156.265624 
z
" style="fill:#bcbd22;"/>
   </g>
   <g id="matplotlib.axis_1"/>
   <g id="matplotlib.axis_2"/>
   <g id="text_1">
    <!-- 20.0% -->
    <g style="fill:#ffffff;" transform="translate(149.291949 82.893127)scale(0.1 -0.1)">
     <defs>
      <path d="M 19.1875 8.296875 
L 53.609375 8.296875 
L 53.609375 0 
L 7.328125 0 
L 7.328125 8.296875 
Q 12.9375 14.109375 22.625 23.890625 
Q 32.328125 33.6875 34.8125 36.53125 
Q 39.546875 41.84375 41.421875 45.53125 
Q 43.3125 49.21875 43.3125 52.78125 
Q 43.3125 58.59375 39.234375 62.25 
Q 35.15625 65.921875 28.609375 65.921875 
Q 23.96875 65.921875 18.8125 64.3125 
Q 13.671875 62.703125 7.8125 59.421875 
L 7.8125 69.390625 
Q 13.765625 71.78125 18.9375 73 
Q 24.125 74.21875 28.421875 74.21875 
Q 39.75 74.21875 46.484375 68.546875 
Q 53.21875 62.890625 53.21875 53.421875 
Q 53.21875 48.921875 51.53125 44.890625 
Q 49.859375 40.875 45.40625 35.40625 
Q 44.1875 33.984375 37.640625 27.21875 
Q 31.109375 20.453125 19.1875 8.296875 
z
" id="DejaVuSans-50"/>
      <path d="M 31.78125 66.40625 
Q 24.171875 66.40625 20.328125 58.90625 
Q 16.5 51.421875 16.5 36.375 
Q 16.5 21.390625 20.328125 13.890625 
Q 24.171875 6.390625 31.78125 6.390625 
Q 39.453125 6.390625 43.28125 13.890625 
Q 47.125 21.390625 47.125 36.375 
Q 47.125 51.421875 43.28125 58.90625 
Q 39.453125 66.40625 31.78125 66.40625 
z
M 31.78125 74.21875 
Q 44.046875 74.21875 50.515625 64.515625 
Q 56.984375 54.828125 56.984375 36.375 
Q 56.984375 17.96875 50.515625 8.265625 
Q 44.046875 -1.421875 31.78125 -1.421875 
Q 19.53125 -1.421875 13.0625 8.265625 
Q 6.59375 17.96875 6.59375 36.375 
Q 6.59375 54.828125 13.0625 64.515625 
Q 19.53125 74.21875 31.78125 74.21875 
z
" id="DejaVuSans-48"/>
      <path d="M 10.6875 12.40625 
L 21 12.40625 
L 21 0 
L 10.6875 0 
z
" id="DejaVuSans-46"/>
      <path d="M 72.703125 32.078125 
Q 68.453125 32.078125 66.03125 28.46875 
Q 63.625 24.859375 63.625 18.40625 
Q 63.625 12.0625 66.03125 8.421875 
Q 68.453125 4.78125 72.703125 4.78125 
Q 76.859375 4.78125 79.265625 8.421875 
Q 81.6875 12.0625 81.6875 18.40625 
Q 81.6875 24.8125 79.265625 28.4375 
Q 76.859375 32.078125 72.703125 32.078125 
z
M 72.703125 38.28125 
Q 80.421875 38.28125 84.953125 32.90625 
Q 89.5 27.546875 89.5 18.40625 
Q 89.5 9.28125 84.9375 3.921875 
Q 80.375 -1.421875 72.703125 -1.421875 
Q 64.890625 -1.421875 60.34375 3.921875 
Q 55.8125 9.28125 55.8125 18.40625 
Q 55.8125 27.59375 60.375 32.9375 
Q 64.9375 38.28125 72.703125 38.28125 
z
M 22.3125 68.015625 
Q 18.109375 68.015625 15.6875 64.375 
Q 13.28125 60.75 13.28125 54.390625 
Q 13.28125 47.953125 15.671875 44.328125 
Q 18.0625 40.71875 22.3125 40.71875 
Q 26.5625 40.71875 28.96875 44.328125 
Q 31.390625 47.953125 31.390625 54.390625 
Q 31.390625 60.6875 28.953125 64.34375 
Q 26.515625 68.015625 22.3125 68.015625 
z
M 66.40625 74.21875 
L 74.21875 74.21875 
L 28.609375 -1.421875 
L 20.796875 -1.421875 
z
M 22.3125 74.21875 
Q 30.03125 74.21875 34.609375 68.875 
Q 39.203125 63.53125 39.203125 54.390625 
Q 39.203125 45.171875 34.640625 39.84375 
Q 30.078125 34.515625 22.3125 34.515625 
Q 14.546875 34.515625 10.03125 39.859375 
Q 5.515625 45.21875 5.515625 54.390625 
Q 5.515625 63.484375 10.046875 68.84375 
Q 14.59375 74.21875 22.3125 74.21875 
z
" id="DejaVuSans-37"/>
     </defs>
     <use xlink:href="#DejaVuSans-50"/>
     <use x="63.623047" xlink:href="#DejaVuSans-48"/>
     <use x="127.246094" xlink:href="#DejaVuSans-46"/>
     <use x="159.033203" xlink:href="#DejaVuSans-48"/>
     <use x="222.65625" xlink:href="#DejaVuSans-37"/>
    </g>
   </g>
   <g id="text_2">
    <!-- 14.5% -->
    <g style="fill:#ffffff;" transform="translate(91.371823 58.415878)scale(0.1 -0.1)">
     <defs>
      <path d="M 12.40625 8.296875 
L 28.515625 8.296875 
L 28.515625 63.921875 
L 10.984375 60.40625 
L 10.984375 69.390625 
L 28.421875 72.90625 
L 38.28125 72.90625 
L 38.28125 8.296875 
L 54.390625 8.296875 
L 54.390625 0 
L 12.40625 0 
z
" id="DejaVuSans-49"/>
      <path d="M 37.796875 64.3125 
L 12.890625 25.390625 
L 37.796875 25.390625 
z
M 35.203125 72.90625 
L 47.609375 72.90625 
L 47.609375 25.390625 
L 58.015625 25.390625 
L 58.015625 17.1875 
L 47.609375 17.1875 
L 47.609375 0 
L 37.796875 0 
L 37.796875 17.1875 
L 4.890625 17.1875 
L 4.890625 26.703125 
z
" id="DejaVuSans-52"/>
      <path d="M 10.796875 72.90625 
L 49.515625 72.90625 
L 49.515625 64.59375 
L 19.828125 64.59375 
L 19.828125 46.734375 
Q 21.96875 47.46875 24.109375 47.828125 
Q 26.265625 48.1875 28.421875 48.1875 
Q 40.625 48.1875 47.75 41.5 
Q 54.890625 34.8125 54.890625 23.390625 
Q 54.890625 11.625 47.5625 5.09375 
Q 40.234375 -1.421875 26.90625 -1.421875 
Q 22.3125 -1.421875 17.546875 -0.640625 
Q 12.796875 0.140625 7.71875 1.703125 
L 7.71875 11.625 
Q 12.109375 9.234375 16.796875 8.0625 
Q 21.484375 6.890625 26.703125 6.890625 
Q 35.15625 6.890625 40.078125 11.328125 
Q 45.015625 15.765625 45.015625 23.390625 
Q 45.015625 31 40.078125 35.4375 
Q 35.15625 39.890625 26.703125 39.890625 
Q 22.75 39.890625 18.8125 39.015625 
Q 14.890625 38.140625 10.796875 36.28125 
z
" id="DejaVuSans-53"/>
     </defs>
     <use xlink:href="#DejaVuSans-49"/>
     <use x="63.623047" xlink:href="#DejaVuSans-52"/>
     <use x="127.246094" xlink:href="#DejaVuSans-46"/>
     <use x="159.033203" xlink:href="#DejaVuSans-53"/>
     <use x="222.65625" xlink:href="#DejaVuSans-37"/>
    </g>
   </g>
   <g id="text_3">
    <!-- 12.7% -->
    <g style="fill:#ffffff;" transform="translate(48.8182 85.763431)scale(0.1 -0.1)">
     <defs>
      <path d="M 8.203125 72.90625 
L 55.078125 72.90625 
L 55.078125 68.703125 
L 28.609375 0 
L 18.3125 0 
L 43.21875 64.59375 
L 8.203125 64.59375 
z
" id="DejaVuSans-55"/>
     </defs>
     <use xlink:href="#DejaVuSans-49"/>
     <use x="63.623047" xlink:href="#DejaVuSans-50"/>
     <use x="127.246094" xlink:href="#DejaVuSans-46"/>
     <use x="159.033203" xlink:href="#DejaVuSans-55"/>
     <use x="222.65625" xlink:href="#DejaVuSans-37"/>
    </g>
   </g>
   <g id="text_4">
    <!-- 10.9% -->
    <g style="fill:#ffffff;" transform="translate(40.044911 129.06131)scale(0.1 -0.1)">
     <defs>
      <path d="M 10.984375 1.515625 
L 10.984375 10.5 
Q 14.703125 8.734375 18.5 7.8125 
Q 22.3125 6.890625 25.984375 6.890625 
Q 35.75 6.890625 40.890625 13.453125 
Q 46.046875 20.015625 46.78125 33.40625 
Q 43.953125 29.203125 39.59375 26.953125 
Q 35.25 24.703125 29.984375 24.703125 
Q 19.046875 24.703125 12.671875 31.3125 
Q 6.296875 37.9375 6.296875 49.421875 
Q 6.296875 60.640625 12.9375 67.421875 
Q 19.578125 74.21875 30.609375 74.21875 
Q 43.265625 74.21875 49.921875 64.515625 
Q 56.59375 54.828125 56.59375 36.375 
Q 56.59375 19.140625 48.40625 8.859375 
Q 40.234375 -1.421875 26.421875 -1.421875 
Q 22.703125 -1.421875 18.890625 -0.6875 
Q 15.09375 0.046875 10.984375 1.515625 
z
M 30.609375 32.421875 
Q 37.25 32.421875 41.125 36.953125 
Q 45.015625 41.5 45.015625 49.421875 
Q 45.015625 57.28125 41.125 61.84375 
Q 37.25 66.40625 30.609375 66.40625 
Q 23.96875 66.40625 20.09375 61.84375 
Q 16.21875 57.28125 16.21875 49.421875 
Q 16.21875 41.5 20.09375 36.953125 
Q 23.96875 32.421875 30.609375 32.421875 
z
" id="DejaVuSans-57"/>
     </defs>
     <use xlink:href="#DejaVuSans-49"/>
     <use x="63.623047" xlink:href="#DejaVuSans-48"/>
     <use x="127.246094" xlink:href="#DejaVuSans-46"/>
     <use x="159.033203" xlink:href="#DejaVuSans-57"/>
     <use x="222.65625" xlink:href="#DejaVuSans-37"/>
    </g>
   </g>
   <g id="text_5">
    <!-- 9.1% -->
    <g style="fill:#ffffff;" transform="translate(60.785866 162.340654)scale(0.1 -0.1)">
     <use xlink:href="#DejaVuSans-57"/>
     <use x="63.623047" xlink:href="#DejaVuSans-46"/>
     <use x="95.410156" xlink:href="#DejaVuSans-49"/>
     <use x="159.033203" xlink:href="#DejaVuSans-37"/>
    </g>
   </g>
   <g id="text_6">
    <!-- 9.1% -->
    <g style="fill:#ffffff;" transform="translate(91.126833 178.349938)scale(0.1 -0.1)">
     <use xlink:href="#DejaVuSans-57"/>
     <use x="63.623047" xlink:href="#DejaVuSans-46"/>
     <use x="95.410156" xlink:href="#DejaVuSans-49"/>
     <use x="159.033203" xlink:href="#DejaVuSans-37"/>
    </g>
   </g>
   <g id="text_7">
    <!-- 9.1% -->
    <g style="fill:#ffffff;" transform="translate(125.306551 175.414239)scale(0.1 -0.1)">
     <use xlink:href="#DejaVuSans-57"/>
     <use x="63.623047" xlink:href="#DejaVuSans-46"/>
     <use x="95.410156" xlink:href="#DejaVuSans-49"/>
     <use x="159.033203" xlink:href="#DejaVuSans-37"/>
    </g>
   </g>
   <g id="text_8">
    <!-- 7.3% -->
    <g style="fill:#ffffff;" transform="translate(150.349876 157.219198)scale(0.1 -0.1)">
     <defs>
      <path d="M 40.578125 39.3125 
Q 47.65625 37.796875 51.625 33 
Q 55.609375 28.21875 55.609375 21.1875 
Q 55.609375 10.40625 48.1875 4.484375 
Q 40.765625 -1.421875 27.09375 -1.421875 
Q 22.515625 -1.421875 17.65625 -0.515625 
Q 12.796875 0.390625 7.625 2.203125 
L 7.625 11.71875 
Q 11.71875 9.328125 16.59375 8.109375 
Q 21.484375 6.890625 26.8125 6.890625 
Q 36.078125 6.890625 40.9375 10.546875 
Q 45.796875 14.203125 45.796875 21.1875 
Q 45.796875 27.640625 41.28125 31.265625 
Q 36.765625 34.90625 28.71875 34.90625 
L 20.21875 34.90625 
L 20.21875 43.015625 
L 29.109375 43.015625 
Q 36.375 43.015625 40.234375 45.921875 
Q 44.09375 48.828125 44.09375 54.296875 
Q 44.09375 59.90625 40.109375 62.90625 
Q 36.140625 65.921875 28.71875 65.921875 
Q 24.65625 65.921875 20.015625 65.03125 
Q 15.375 64.15625 9.8125 62.3125 
L 9.8125 71.09375 
Q 15.4375 72.65625 20.34375 73.4375 
Q 25.25 74.21875 29.59375 74.21875 
Q 40.828125 74.21875 47.359375 69.109375 
Q 53.90625 64.015625 53.90625 55.328125 
Q 53.90625 49.265625 50.4375 45.09375 
Q 46.96875 40.921875 40.578125 39.3125 
z
" id="DejaVuSans-51"/>
     </defs>
     <use xlink:href="#DejaVuSans-55"/>
     <use x="63.623047" xlink:href="#DejaVuSans-46"/>
     <use x="95.410156" xlink:href="#DejaVuSans-51"/>
     <use x="159.033203" xlink:href="#DejaVuSans-37"/>
    </g>
   </g>
   <g id="text_9">
    <!-- 7.3% -->
    <g style="fill:#ffffff;" transform="translate(162.518619 132.469223)scale(0.1 -0.1)">
     <use xlink:href="#DejaVuSans-55"/>
     <use x="63.623047" xlink:href="#DejaVuSans-46"/>
     <use x="95.410156" xlink:href="#DejaVuSans-51"/>
     <use x="159.033203" xlink:href="#DejaVuSans-37"/>
    </g>
   </g>
   <g id="legend_1">
    <g id="patch_20">
     <path d="M 231.64 196.889219 
L 545.482188 196.889219 
Q 547.482188 196.889219 547.482188 194.889219 
L 547.482188 36.950781 
Q 547.482188 34.950781 545.482188 34.950781 
L 231.64 34.950781 
Q 229.64 34.950781 229.64 36.950781 
L 229.64 194.889219 
Q 229.64 196.889219 231.64 196.889219 
z
" style="fill:#ffffff;opacity:0.8;stroke:#cccccc;stroke-linejoin:miter;"/>
    </g>
    <g id="text_10">
     <!-- Топ-10 репостов  -->
     <g transform="translate(286.090781 46.549219)scale(0.1 -0.1)">
      <defs>
       <path d="M -0.296875 72.90625 
L 61.375 72.90625 
L 61.375 64.59375 
L 35.5 64.59375 
L 35.5 0 
L 25.59375 0 
L 25.59375 64.59375 
L -0.296875 64.59375 
z
" id="DejaVuSans-1058"/>
       <path d="M 30.609375 48.390625 
Q 23.390625 48.390625 19.1875 42.75 
Q 14.984375 37.109375 14.984375 27.296875 
Q 14.984375 17.484375 19.15625 11.84375 
Q 23.34375 6.203125 30.609375 6.203125 
Q 37.796875 6.203125 41.984375 11.859375 
Q 46.1875 17.53125 46.1875 27.296875 
Q 46.1875 37.015625 41.984375 42.703125 
Q 37.796875 48.390625 30.609375 48.390625 
z
M 30.609375 56 
Q 42.328125 56 49.015625 48.375 
Q 55.71875 40.765625 55.71875 27.296875 
Q 55.71875 13.875 49.015625 6.21875 
Q 42.328125 -1.421875 30.609375 -1.421875 
Q 18.84375 -1.421875 12.171875 6.21875 
Q 5.515625 13.875 5.515625 27.296875 
Q 5.515625 40.765625 12.171875 48.375 
Q 18.84375 56 30.609375 56 
z
" id="DejaVuSans-1086"/>
       <path d="M 56.296875 54.6875 
L 56.296875 0 
L 47.265625 0 
L 47.265625 47.515625 
L 18.109375 47.515625 
L 18.109375 0 
L 9.078125 0 
L 9.078125 54.6875 
z
" id="DejaVuSans-1087"/>
       <path d="M 4.890625 31.390625 
L 31.203125 31.390625 
L 31.203125 23.390625 
L 4.890625 23.390625 
z
" id="DejaVuSans-45"/>
       <path id="DejaVuSans-32"/>
       <path d="M 18.109375 8.203125 
L 18.109375 -20.796875 
L 9.078125 -20.796875 
L 9.078125 54.6875 
L 18.109375 54.6875 
L 18.109375 46.390625 
Q 20.953125 51.265625 25.265625 53.625 
Q 29.59375 56 35.59375 56 
Q 45.5625 56 51.78125 48.09375 
Q 58.015625 40.1875 58.015625 27.296875 
Q 58.015625 14.40625 51.78125 6.484375 
Q 45.5625 -1.421875 35.59375 -1.421875 
Q 29.59375 -1.421875 25.265625 0.953125 
Q 20.953125 3.328125 18.109375 8.203125 
z
M 48.6875 27.296875 
Q 48.6875 37.203125 44.609375 42.84375 
Q 40.53125 48.484375 33.40625 48.484375 
Q 26.265625 48.484375 22.1875 42.84375 
Q 18.109375 37.203125 18.109375 27.296875 
Q 18.109375 17.390625 22.1875 11.75 
Q 26.265625 6.109375 33.40625 6.109375 
Q 40.53125 6.109375 44.609375 11.75 
Q 48.6875 17.390625 48.6875 27.296875 
z
" id="DejaVuSans-1088"/>
       <path d="M 56.203125 29.59375 
L 56.203125 25.203125 
L 14.890625 25.203125 
Q 15.484375 15.921875 20.484375 11.0625 
Q 25.484375 6.203125 34.421875 6.203125 
Q 39.59375 6.203125 44.453125 7.46875 
Q 49.3125 8.734375 54.109375 11.28125 
L 54.109375 2.78125 
Q 49.265625 0.734375 44.1875 -0.34375 
Q 39.109375 -1.421875 33.890625 -1.421875 
Q 20.796875 -1.421875 13.15625 6.1875 
Q 5.515625 13.8125 5.515625 26.8125 
Q 5.515625 40.234375 12.765625 48.109375 
Q 20.015625 56 32.328125 56 
Q 43.359375 56 49.78125 48.890625 
Q 56.203125 41.796875 56.203125 29.59375 
z
M 47.21875 32.234375 
Q 47.125 39.59375 43.09375 43.984375 
Q 39.0625 48.390625 32.421875 48.390625 
Q 24.90625 48.390625 20.390625 44.140625 
Q 15.875 39.890625 15.1875 32.171875 
z
" id="DejaVuSans-1077"/>
       <path d="M 48.78125 52.59375 
L 48.78125 44.1875 
Q 44.96875 46.296875 41.140625 47.34375 
Q 37.3125 48.390625 33.40625 48.390625 
Q 24.65625 48.390625 19.8125 42.84375 
Q 14.984375 37.3125 14.984375 27.296875 
Q 14.984375 17.28125 19.8125 11.734375 
Q 24.65625 6.203125 33.40625 6.203125 
Q 37.3125 6.203125 41.140625 7.25 
Q 44.96875 8.296875 48.78125 10.40625 
L 48.78125 2.09375 
Q 45.015625 0.34375 40.984375 -0.53125 
Q 36.96875 -1.421875 32.421875 -1.421875 
Q 20.0625 -1.421875 12.78125 6.34375 
Q 5.515625 14.109375 5.515625 27.296875 
Q 5.515625 40.671875 12.859375 48.328125 
Q 20.21875 56 33.015625 56 
Q 37.15625 56 41.109375 55.140625 
Q 45.0625 54.296875 48.78125 52.59375 
z
" id="DejaVuSans-1089"/>
       <path d="M 2.9375 54.6875 
L 55.328125 54.6875 
L 55.328125 47.515625 
L 33.546875 47.515625 
L 33.546875 0 
L 24.703125 0 
L 24.703125 47.515625 
L 2.9375 47.515625 
z
" id="DejaVuSans-1090"/>
       <path d="M 18.0625 25.203125 
L 18.0625 7.171875 
L 30.859375 7.171875 
Q 37.015625 7.171875 40.234375 9.484375 
Q 43.453125 11.8125 43.453125 16.21875 
Q 43.453125 20.609375 40.234375 22.90625 
Q 37.015625 25.203125 30.859375 25.203125 
z
M 18.0625 47.515625 
L 18.0625 32.375 
L 29.890625 32.375 
Q 34.96875 32.375 38.1875 34.390625 
Q 41.40625 36.421875 41.40625 40.046875 
Q 41.40625 43.65625 38.1875 45.578125 
Q 34.96875 47.515625 29.890625 47.515625 
z
M 9.078125 54.6875 
L 30.46875 54.6875 
Q 40.09375 54.6875 45.265625 51.171875 
Q 50.4375 47.65625 50.4375 41.15625 
Q 50.4375 36.140625 47.796875 33.171875 
Q 45.171875 30.21875 39.984375 29.5 
Q 46.1875 28.328125 49.609375 24.609375 
Q 53.03125 20.90625 53.03125 15.328125 
Q 53.03125 8.015625 47.390625 4 
Q 41.75 0 31.296875 0 
L 9.078125 0 
z
" id="DejaVuSans-1074"/>
      </defs>
      <use xlink:href="#DejaVuSans-1058"/>
      <use x="61.083984" xlink:href="#DejaVuSans-1086"/>
      <use x="122.265625" xlink:href="#DejaVuSans-1087"/>
      <use x="187.646484" xlink:href="#DejaVuSans-45"/>
      <use x="223.730469" xlink:href="#DejaVuSans-49"/>
      <use x="287.353516" xlink:href="#DejaVuSans-48"/>
      <use x="350.976562" xlink:href="#DejaVuSans-32"/>
      <use x="382.763672" xlink:href="#DejaVuSans-1088"/>
      <use x="446.240234" xlink:href="#DejaVuSans-1077"/>
      <use x="507.763672" xlink:href="#DejaVuSans-1087"/>
      <use x="573.144531" xlink:href="#DejaVuSans-1086"/>
      <use x="634.326172" xlink:href="#DejaVuSans-1089"/>
      <use x="689.306641" xlink:href="#DejaVuSans-1090"/>
      <use x="747.558594" xlink:href="#DejaVuSans-1086"/>
      <use x="808.740234" xlink:href="#DejaVuSans-1074"/>
      <use x="867.675781" xlink:href="#DejaVuSans-32"/>
     </g>
     <!-- подписчиков группы zapravdu_kuzbass -->
     <g transform="translate(286.090781 57.747031)scale(0.1 -0.1)">
      <defs>
       <path d="M 21.625 7.171875 
L 47.703125 7.171875 
L 47.703125 47.515625 
L 28.8125 47.515625 
L 28.8125 40.671875 
Q 28.8125 20.5625 23.046875 9.8125 
z
M 8.59375 7.171875 
Q 13.03125 9.125 14.984375 13.28125 
Q 19.78125 23.578125 19.78125 44.34375 
L 19.78125 54.6875 
L 56.734375 54.6875 
L 56.734375 7.171875 
L 63.921875 7.171875 
L 63.921875 -13.8125 
L 56.734375 -13.8125 
L 56.734375 0 
L 12.40625 0 
L 12.40625 -13.8125 
L 5.21875 -13.8125 
L 5.21875 7.171875 
z
" id="DejaVuSans-1076"/>
       <path d="M 55.90625 54.6875 
L 55.90625 0 
L 46.96875 0 
L 46.96875 43.890625 
L 20.609375 0 
L 9.078125 0 
L 9.078125 54.6875 
L 18.015625 54.6875 
L 18.015625 10.890625 
L 44.34375 54.6875 
z
" id="DejaVuSans-1080"/>
       <path d="M 41.015625 0 
L 41.015625 23 
L 24.265625 23 
Q 16.796875 23 11.8125 27.640625 
Q 7.328125 31.84375 7.328125 40.828125 
L 7.328125 54.6875 
L 16.3125 54.6875 
L 16.3125 41.65625 
Q 16.3125 35.9375 18.84375 33.0625 
Q 21.4375 30.171875 26.515625 30.171875 
L 41.015625 30.171875 
L 41.015625 54.6875 
L 50 54.6875 
L 50 0 
z
" id="DejaVuSans-1095"/>
       <path d="M 9.078125 54.6875 
L 18.015625 54.6875 
L 18.015625 29 
L 43.359375 54.6875 
L 54.390625 54.6875 
L 33.5 33.546875 
L 57.078125 0 
L 47.015625 0 
L 27.640625 27.59375 
L 18.015625 17.828125 
L 18.015625 0 
L 9.078125 0 
z
" id="DejaVuSans-1082"/>
       <path d="M 9.078125 0 
L 9.078125 54.6875 
L 47.65625 54.6875 
L 47.65625 47.515625 
L 18.109375 47.515625 
L 18.109375 0 
z
" id="DejaVuSans-1075"/>
       <path d="M 32.171875 -5.078125 
Q 28.375 -14.84375 24.75 -17.8125 
Q 21.140625 -20.796875 15.09375 -20.796875 
L 7.90625 -20.796875 
L 7.90625 -13.28125 
L 13.1875 -13.28125 
Q 16.890625 -13.28125 18.9375 -11.515625 
Q 21 -9.765625 23.484375 -3.21875 
L 25.09375 0.875 
L 2.984375 54.6875 
L 12.5 54.6875 
L 29.59375 11.921875 
L 46.6875 54.6875 
L 56.203125 54.6875 
z
" id="DejaVuSans-1091"/>
       <path d="M 61.046875 54.6875 
L 70.03125 54.6875 
L 70.03125 0 
L 61.046875 0 
z
M 65.546875 56 
z
M 43.453125 16.21875 
Q 43.453125 20.609375 40.25 22.90625 
Q 37.0625 25.203125 30.90625 25.203125 
L 18.109375 25.203125 
L 18.109375 7.171875 
L 30.90625 7.171875 
Q 37.0625 7.171875 40.25 9.484375 
Q 43.453125 11.8125 43.453125 16.21875 
z
M 9.078125 54.6875 
L 18.109375 54.6875 
L 18.109375 32.375 
L 31.296875 32.375 
Q 41.75 32.375 47.390625 28.390625 
Q 53.03125 24.421875 53.03125 16.21875 
Q 53.03125 8.015625 47.390625 4 
Q 41.75 0 31.296875 0 
L 9.078125 0 
z
" id="DejaVuSans-1099"/>
       <path d="M 5.515625 54.6875 
L 48.1875 54.6875 
L 48.1875 46.484375 
L 14.40625 7.171875 
L 48.1875 7.171875 
L 48.1875 0 
L 4.296875 0 
L 4.296875 8.203125 
L 38.09375 47.515625 
L 5.515625 47.515625 
z
" id="DejaVuSans-122"/>
       <path d="M 34.28125 27.484375 
Q 23.390625 27.484375 19.1875 25 
Q 14.984375 22.515625 14.984375 16.5 
Q 14.984375 11.71875 18.140625 8.90625 
Q 21.296875 6.109375 26.703125 6.109375 
Q 34.1875 6.109375 38.703125 11.40625 
Q 43.21875 16.703125 43.21875 25.484375 
L 43.21875 27.484375 
z
M 52.203125 31.203125 
L 52.203125 0 
L 43.21875 0 
L 43.21875 8.296875 
Q 40.140625 3.328125 35.546875 0.953125 
Q 30.953125 -1.421875 24.3125 -1.421875 
Q 15.921875 -1.421875 10.953125 3.296875 
Q 6 8.015625 6 15.921875 
Q 6 25.140625 12.171875 29.828125 
Q 18.359375 34.515625 30.609375 34.515625 
L 43.21875 34.515625 
L 43.21875 35.40625 
Q 43.21875 41.609375 39.140625 45 
Q 35.0625 48.390625 27.6875 48.390625 
Q 23 48.390625 18.546875 47.265625 
Q 14.109375 46.140625 10.015625 43.890625 
L 10.015625 52.203125 
Q 14.9375 54.109375 19.578125 55.046875 
Q 24.21875 56 28.609375 56 
Q 40.484375 56 46.34375 49.84375 
Q 52.203125 43.703125 52.203125 31.203125 
z
" id="DejaVuSans-97"/>
       <path d="M 18.109375 8.203125 
L 18.109375 -20.796875 
L 9.078125 -20.796875 
L 9.078125 54.6875 
L 18.109375 54.6875 
L 18.109375 46.390625 
Q 20.953125 51.265625 25.265625 53.625 
Q 29.59375 56 35.59375 56 
Q 45.5625 56 51.78125 48.09375 
Q 58.015625 40.1875 58.015625 27.296875 
Q 58.015625 14.40625 51.78125 6.484375 
Q 45.5625 -1.421875 35.59375 -1.421875 
Q 29.59375 -1.421875 25.265625 0.953125 
Q 20.953125 3.328125 18.109375 8.203125 
z
M 48.6875 27.296875 
Q 48.6875 37.203125 44.609375 42.84375 
Q 40.53125 48.484375 33.40625 48.484375 
Q 26.265625 48.484375 22.1875 42.84375 
Q 18.109375 37.203125 18.109375 27.296875 
Q 18.109375 17.390625 22.1875 11.75 
Q 26.265625 6.109375 33.40625 6.109375 
Q 40.53125 6.109375 44.609375 11.75 
Q 48.6875 17.390625 48.6875 27.296875 
z
" id="DejaVuSans-112"/>
       <path d="M 41.109375 46.296875 
Q 39.59375 47.171875 37.8125 47.578125 
Q 36.03125 48 33.890625 48 
Q 26.265625 48 22.1875 43.046875 
Q 18.109375 38.09375 18.109375 28.8125 
L 18.109375 0 
L 9.078125 0 
L 9.078125 54.6875 
L 18.109375 54.6875 
L 18.109375 46.1875 
Q 20.953125 51.171875 25.484375 53.578125 
Q 30.03125 56 36.53125 56 
Q 37.453125 56 38.578125 55.875 
Q 39.703125 55.765625 41.0625 55.515625 
z
" id="DejaVuSans-114"/>
       <path d="M 2.984375 54.6875 
L 12.5 54.6875 
L 29.59375 8.796875 
L 46.6875 54.6875 
L 56.203125 54.6875 
L 35.6875 0 
L 23.484375 0 
z
" id="DejaVuSans-118"/>
       <path d="M 45.40625 46.390625 
L 45.40625 75.984375 
L 54.390625 75.984375 
L 54.390625 0 
L 45.40625 0 
L 45.40625 8.203125 
Q 42.578125 3.328125 38.25 0.953125 
Q 33.9375 -1.421875 27.875 -1.421875 
Q 17.96875 -1.421875 11.734375 6.484375 
Q 5.515625 14.40625 5.515625 27.296875 
Q 5.515625 40.1875 11.734375 48.09375 
Q 17.96875 56 27.875 56 
Q 33.9375 56 38.25 53.625 
Q 42.578125 51.265625 45.40625 46.390625 
z
M 14.796875 27.296875 
Q 14.796875 17.390625 18.875 11.75 
Q 22.953125 6.109375 30.078125 6.109375 
Q 37.203125 6.109375 41.296875 11.75 
Q 45.40625 17.390625 45.40625 27.296875 
Q 45.40625 37.203125 41.296875 42.84375 
Q 37.203125 48.484375 30.078125 48.484375 
Q 22.953125 48.484375 18.875 42.84375 
Q 14.796875 37.203125 14.796875 27.296875 
z
" id="DejaVuSans-100"/>
       <path d="M 8.5 21.578125 
L 8.5 54.6875 
L 17.484375 54.6875 
L 17.484375 21.921875 
Q 17.484375 14.15625 20.5 10.265625 
Q 23.53125 6.390625 29.59375 6.390625 
Q 36.859375 6.390625 41.078125 11.03125 
Q 45.3125 15.671875 45.3125 23.6875 
L 45.3125 54.6875 
L 54.296875 54.6875 
L 54.296875 0 
L 45.3125 0 
L 45.3125 8.40625 
Q 42.046875 3.421875 37.71875 1 
Q 33.40625 -1.421875 27.6875 -1.421875 
Q 18.265625 -1.421875 13.375 4.4375 
Q 8.5 10.296875 8.5 21.578125 
z
M 31.109375 56 
z
" id="DejaVuSans-117"/>
       <path d="M 50.984375 -16.609375 
L 50.984375 -23.578125 
L -0.984375 -23.578125 
L -0.984375 -16.609375 
z
" id="DejaVuSans-95"/>
       <path d="M 9.078125 75.984375 
L 18.109375 75.984375 
L 18.109375 31.109375 
L 44.921875 54.6875 
L 56.390625 54.6875 
L 27.390625 29.109375 
L 57.625 0 
L 45.90625 0 
L 18.109375 26.703125 
L 18.109375 0 
L 9.078125 0 
z
" id="DejaVuSans-107"/>
       <path d="M 48.6875 27.296875 
Q 48.6875 37.203125 44.609375 42.84375 
Q 40.53125 48.484375 33.40625 48.484375 
Q 26.265625 48.484375 22.1875 42.84375 
Q 18.109375 37.203125 18.109375 27.296875 
Q 18.109375 17.390625 22.1875 11.75 
Q 26.265625 6.109375 33.40625 6.109375 
Q 40.53125 6.109375 44.609375 11.75 
Q 48.6875 17.390625 48.6875 27.296875 
z
M 18.109375 46.390625 
Q 20.953125 51.265625 25.265625 53.625 
Q 29.59375 56 35.59375 56 
Q 45.5625 56 51.78125 48.09375 
Q 58.015625 40.1875 58.015625 27.296875 
Q 58.015625 14.40625 51.78125 6.484375 
Q 45.5625 -1.421875 35.59375 -1.421875 
Q 29.59375 -1.421875 25.265625 0.953125 
Q 20.953125 3.328125 18.109375 8.203125 
L 18.109375 0 
L 9.078125 0 
L 9.078125 75.984375 
L 18.109375 75.984375 
z
" id="DejaVuSans-98"/>
       <path d="M 44.28125 53.078125 
L 44.28125 44.578125 
Q 40.484375 46.53125 36.375 47.5 
Q 32.28125 48.484375 27.875 48.484375 
Q 21.1875 48.484375 17.84375 46.4375 
Q 14.5 44.390625 14.5 40.28125 
Q 14.5 37.15625 16.890625 35.375 
Q 19.28125 33.59375 26.515625 31.984375 
L 29.59375 31.296875 
Q 39.15625 29.25 43.1875 25.515625 
Q 47.21875 21.78125 47.21875 15.09375 
Q 47.21875 7.46875 41.1875 3.015625 
Q 35.15625 -1.421875 24.609375 -1.421875 
Q 20.21875 -1.421875 15.453125 -0.5625 
Q 10.6875 0.296875 5.421875 2 
L 5.421875 11.28125 
Q 10.40625 8.6875 15.234375 7.390625 
Q 20.0625 6.109375 24.8125 6.109375 
Q 31.15625 6.109375 34.5625 8.28125 
Q 37.984375 10.453125 37.984375 14.40625 
Q 37.984375 18.0625 35.515625 20.015625 
Q 33.0625 21.96875 24.703125 23.78125 
L 21.578125 24.515625 
Q 13.234375 26.265625 9.515625 29.90625 
Q 5.8125 33.546875 5.8125 39.890625 
Q 5.8125 47.609375 11.28125 51.796875 
Q 16.75 56 26.8125 56 
Q 31.78125 56 36.171875 55.265625 
Q 40.578125 54.546875 44.28125 53.078125 
z
" id="DejaVuSans-115"/>
      </defs>
      <use xlink:href="#DejaVuSans-1087"/>
      <use x="65.380859" xlink:href="#DejaVuSans-1086"/>
      <use x="126.5625" xlink:href="#DejaVuSans-1076"/>
      <use x="195.703125" xlink:href="#DejaVuSans-1087"/>
      <use x="261.083984" xlink:href="#DejaVuSans-1080"/>
      <use x="326.074219" xlink:href="#DejaVuSans-1089"/>
      <use x="381.054688" xlink:href="#DejaVuSans-1095"/>
      <use x="440.136719" xlink:href="#DejaVuSans-1080"/>
      <use x="505.126953" xlink:href="#DejaVuSans-1082"/>
      <use x="565.527344" xlink:href="#DejaVuSans-1086"/>
      <use x="626.708984" xlink:href="#DejaVuSans-1074"/>
      <use x="685.644531" xlink:href="#DejaVuSans-32"/>
      <use x="717.431641" xlink:href="#DejaVuSans-1075"/>
      <use x="769.970703" xlink:href="#DejaVuSans-1088"/>
      <use x="833.447266" xlink:href="#DejaVuSans-1091"/>
      <use x="892.626953" xlink:href="#DejaVuSans-1087"/>
      <use x="958.007812" xlink:href="#DejaVuSans-1087"/>
      <use x="1023.388672" xlink:href="#DejaVuSans-1099"/>
      <use x="1102.34375" xlink:href="#DejaVuSans-32"/>
      <use x="1134.130859" xlink:href="#DejaVuSans-122"/>
      <use x="1186.621094" xlink:href="#DejaVuSans-97"/>
      <use x="1247.900391" xlink:href="#DejaVuSans-112"/>
      <use x="1311.376953" xlink:href="#DejaVuSans-114"/>
      <use x="1352.490234" xlink:href="#DejaVuSans-97"/>
      <use x="1413.769531" xlink:href="#DejaVuSans-118"/>
      <use x="1472.949219" xlink:href="#DejaVuSans-100"/>
      <use x="1536.425781" xlink:href="#DejaVuSans-117"/>
      <use x="1599.804688" xlink:href="#DejaVuSans-95"/>
      <use x="1649.804688" xlink:href="#DejaVuSans-107"/>
      <use x="1704.589844" xlink:href="#DejaVuSans-117"/>
      <use x="1767.96875" xlink:href="#DejaVuSans-122"/>
      <use x="1820.458984" xlink:href="#DejaVuSans-98"/>
      <use x="1883.935547" xlink:href="#DejaVuSans-97"/>
      <use x="1945.214844" xlink:href="#DejaVuSans-115"/>
      <use x="1997.314453" xlink:href="#DejaVuSans-115"/>
     </g>
    </g>
    <g id="patch_21">
     <path d="M 233.64 72.703281 
L 253.64 72.703281 
L 253.64 65.703281 
L 233.64 65.703281 
z
" style="fill:#1f77b4;"/>
    </g>
    <g id="text_11">
     <!-- ЗА ПРАВДУ Мособласть -->
     <g transform="translate(261.64 72.703281)scale(0.1 -0.1)">
      <defs>
       <path d="M 28.5625 74.21875 
Q 40.578125 74.21875 48.1875 69.109375 
Q 55.8125 64.015625 55.8125 55.328125 
Q 55.8125 49.265625 52.34375 45.09375 
Q 48.875 40.921875 42.484375 39.3125 
Q 49.5625 37.796875 53.53125 33 
Q 57.515625 28.21875 57.515625 21.1875 
Q 57.515625 9.96875 48.84375 4.265625 
Q 40.1875 -1.421875 28.5625 -1.421875 
Q 22.609375 -1.421875 15.671875 0.1875 
Q 8.734375 1.8125 6.59375 3.171875 
L 6.59375 13.328125 
Q 14.0625 8.984375 18.1875 7.9375 
Q 22.3125 6.890625 28.375 6.890625 
Q 37.546875 6.890625 42.625 10.40625 
Q 47.703125 13.921875 47.703125 21.1875 
Q 47.703125 27.640625 43.1875 31.265625 
Q 38.671875 34.90625 29.15625 34.90625 
L 19.1875 34.90625 
L 19.1875 43.015625 
L 29.546875 43.015625 
Q 38.28125 43.015625 42.140625 45.921875 
Q 46 48.828125 46 54.296875 
Q 46 59.90625 42.015625 62.90625 
Q 38.03125 65.921875 28.375 65.921875 
Q 21.828125 65.921875 19.578125 65.328125 
Q 17.328125 64.75 7.328125 60.984375 
L 7.328125 70.609375 
Q 12.84375 72.5625 18.59375 73.390625 
Q 24.359375 74.21875 28.5625 74.21875 
z
" id="DejaVuSans-1047"/>
       <path d="M 34.1875 63.1875 
L 20.796875 26.90625 
L 47.609375 26.90625 
z
M 28.609375 72.90625 
L 39.796875 72.90625 
L 67.578125 0 
L 57.328125 0 
L 50.6875 18.703125 
L 17.828125 18.703125 
L 11.1875 0 
L 0.78125 0 
z
" id="DejaVuSans-1040"/>
       <path d="M 65.375 72.90625 
L 65.375 0 
L 55.515625 0 
L 55.515625 64.59375 
L 19.671875 64.59375 
L 19.671875 0 
L 9.8125 0 
L 9.8125 72.90625 
z
" id="DejaVuSans-1055"/>
       <path d="M 19.671875 64.796875 
L 19.671875 37.40625 
L 32.078125 37.40625 
Q 38.96875 37.40625 42.71875 40.96875 
Q 46.484375 44.53125 46.484375 51.125 
Q 46.484375 57.671875 42.71875 61.234375 
Q 38.96875 64.796875 32.078125 64.796875 
z
M 9.8125 72.90625 
L 32.078125 72.90625 
Q 44.34375 72.90625 50.609375 67.359375 
Q 56.890625 61.8125 56.890625 51.125 
Q 56.890625 40.328125 50.609375 34.8125 
Q 44.34375 29.296875 32.078125 29.296875 
L 19.671875 29.296875 
L 19.671875 0 
L 9.8125 0 
z
" id="DejaVuSans-1056"/>
       <path d="M 19.671875 34.8125 
L 19.671875 8.109375 
L 35.5 8.109375 
Q 43.453125 8.109375 47.28125 11.40625 
Q 51.125 14.703125 51.125 21.484375 
Q 51.125 28.328125 47.28125 31.5625 
Q 43.453125 34.8125 35.5 34.8125 
z
M 19.671875 64.796875 
L 19.671875 42.828125 
L 34.28125 42.828125 
Q 41.5 42.828125 45.03125 45.53125 
Q 48.578125 48.25 48.578125 53.8125 
Q 48.578125 59.328125 45.03125 62.0625 
Q 41.5 64.796875 34.28125 64.796875 
z
M 9.8125 72.90625 
L 35.015625 72.90625 
Q 46.296875 72.90625 52.390625 68.21875 
Q 58.5 63.53125 58.5 54.890625 
Q 58.5 48.1875 55.375 44.234375 
Q 52.25 40.28125 46.1875 39.3125 
Q 53.46875 37.75 57.5 32.78125 
Q 61.53125 27.828125 61.53125 20.40625 
Q 61.53125 10.640625 54.890625 5.3125 
Q 48.25 0 35.984375 0 
L 9.8125 0 
z
" id="DejaVuSans-1042"/>
       <path d="M 22.796875 8.296875 
L 55.03125 8.296875 
L 55.03125 64.59375 
L 31.34375 64.59375 
L 31.34375 54.25 
Q 31.34375 29.890625 25.875 13.71875 
Q 24.75 10.40625 22.796875 8.296875 
z
M 8.40625 8.296875 
Q 14.9375 11.375 16.796875 17.234375 
Q 21.53125 32.28125 21.53125 59.125 
L 21.53125 72.90625 
L 64.890625 72.90625 
L 64.890625 8.296875 
L 73.1875 8.296875 
L 73.1875 -15.671875 
L 64.890625 -15.671875 
L 64.890625 0 
L 13.234375 0 
L 13.234375 -15.671875 
L 4.9375 -15.671875 
L 4.9375 8.296875 
z
" id="DejaVuSans-1044"/>
       <path d="M 31.984375 8.84375 
Q 30.953125 6.390625 29.390625 4.546875 
Q 25.53125 0 13.28125 0 
L 9.515625 0 
L 9.515625 8.296875 
L 12.59375 8.296875 
Q 18.40625 8.296875 20.65625 9.625 
Q 22.015625 10.453125 22.90625 12.5 
L 25.09375 17.671875 
L 1.703125 72.90625 
L 12.3125 72.90625 
L 30.421875 30.125 
L 48.640625 72.90625 
L 59.234375 72.90625 
z
" id="DejaVuSans-1059"/>
       <path d="M 9.8125 72.90625 
L 24.515625 72.90625 
L 43.109375 23.296875 
L 61.8125 72.90625 
L 76.515625 72.90625 
L 76.515625 0 
L 66.890625 0 
L 66.890625 64.015625 
L 48.09375 14.015625 
L 38.1875 14.015625 
L 19.390625 64.015625 
L 19.390625 0 
L 9.8125 0 
z
" id="DejaVuSans-1052"/>
       <path d="M 31.109375 56 
Q 42.828125 56 49.515625 48.375 
Q 56.203125 40.765625 56.203125 27.296875 
Q 56.203125 13.875 49.515625 6.21875 
Q 42.828125 -1.421875 31.109375 -1.421875 
Q 19.34375 -1.421875 12.84375 6 
Q 6.34375 13.421875 6 27.296875 
L 5.71875 38.484375 
Q 5.46875 44.28125 5.46875 46.296875 
Q 5.46875 54.109375 8.296875 59.859375 
Q 12.75 68.890625 20.4375 72.796875 
Q 28.125 76.703125 41.015625 76.8125 
Q 46.96875 76.859375 49.609375 77.6875 
L 52.09375 70.5625 
Q 49.703125 69.578125 47.515625 69.53125 
L 35.296875 68.703125 
Q 29.15625 68.265625 25.4375 66.109375 
Q 15.71875 60.40625 14.796875 52.9375 
L 14.453125 50.203125 
Q 20.796875 56 31.109375 56 
z
M 31.109375 48.390625 
Q 23.875 48.390625 19.671875 42.75 
Q 15.484375 37.109375 15.484375 27.296875 
Q 15.484375 17.484375 19.65625 11.84375 
Q 23.828125 6.203125 31.109375 6.203125 
Q 38.28125 6.203125 42.484375 11.859375 
Q 46.6875 17.53125 46.6875 27.296875 
Q 46.6875 37.015625 42.484375 42.703125 
Q 38.28125 48.390625 31.109375 48.390625 
z
" id="DejaVuSans-1073"/>
       <path d="M 3.71875 0 
L 3.71875 7.46875 
Q 12.59375 8.84375 15.328125 14.984375 
Q 18.65625 23.640625 18.65625 45.75 
L 18.65625 54.6875 
L 55.609375 54.6875 
L 55.609375 0 
L 46.625 0 
L 46.625 47.515625 
L 27.640625 47.515625 
L 27.640625 42.09375 
Q 27.640625 21 23.34375 11.53125 
Q 18.75 1.421875 3.71875 0 
z
" id="DejaVuSans-1083"/>
       <path d="M 34.28125 27.484375 
Q 23.390625 27.484375 19.1875 25 
Q 14.984375 22.515625 14.984375 16.5 
Q 14.984375 11.71875 18.140625 8.90625 
Q 21.296875 6.109375 26.703125 6.109375 
Q 34.1875 6.109375 38.703125 11.40625 
Q 43.21875 16.703125 43.21875 25.484375 
L 43.21875 27.484375 
z
M 52.203125 31.203125 
L 52.203125 0 
L 43.21875 0 
L 43.21875 8.296875 
Q 40.140625 3.328125 35.546875 0.953125 
Q 30.953125 -1.421875 24.3125 -1.421875 
Q 15.921875 -1.421875 10.953125 3.296875 
Q 6 8.015625 6 15.921875 
Q 6 25.140625 12.171875 29.828125 
Q 18.359375 34.515625 30.609375 34.515625 
L 43.21875 34.515625 
L 43.21875 35.40625 
Q 43.21875 41.609375 39.140625 45 
Q 35.0625 48.390625 27.6875 48.390625 
Q 23 48.390625 18.546875 47.265625 
Q 14.109375 46.140625 10.015625 43.890625 
L 10.015625 52.203125 
Q 14.9375 54.109375 19.578125 55.046875 
Q 24.21875 56 28.609375 56 
Q 40.484375 56 46.34375 49.84375 
Q 52.203125 43.703125 52.203125 31.203125 
z
" id="DejaVuSans-1072"/>
       <path d="M 43.453125 16.21875 
Q 43.453125 20.609375 40.25 22.90625 
Q 37.0625 25.203125 30.90625 25.203125 
L 18.109375 25.203125 
L 18.109375 7.171875 
L 30.90625 7.171875 
Q 37.0625 7.171875 40.25 9.484375 
Q 43.453125 11.8125 43.453125 16.21875 
z
M 9.078125 54.6875 
L 18.109375 54.6875 
L 18.109375 32.375 
L 31.296875 32.375 
Q 41.75 32.375 47.390625 28.390625 
Q 53.03125 24.421875 53.03125 16.21875 
Q 53.03125 8.015625 47.390625 4 
Q 41.75 0 31.296875 0 
L 9.078125 0 
z
" id="DejaVuSans-1100"/>
      </defs>
      <use xlink:href="#DejaVuSans-1047"/>
      <use x="64.111328" xlink:href="#DejaVuSans-1040"/>
      <use x="132.519531" xlink:href="#DejaVuSans-32"/>
      <use x="164.306641" xlink:href="#DejaVuSans-1055"/>
      <use x="239.501953" xlink:href="#DejaVuSans-1056"/>
      <use x="299.804688" xlink:href="#DejaVuSans-1040"/>
      <use x="368.212891" xlink:href="#DejaVuSans-1042"/>
      <use x="436.816406" xlink:href="#DejaVuSans-1044"/>
      <use x="514.941406" xlink:href="#DejaVuSans-1059"/>
      <use x="575.878906" xlink:href="#DejaVuSans-32"/>
      <use x="607.666016" xlink:href="#DejaVuSans-1052"/>
      <use x="693.945312" xlink:href="#DejaVuSans-1086"/>
      <use x="755.126953" xlink:href="#DejaVuSans-1089"/>
      <use x="810.107422" xlink:href="#DejaVuSans-1086"/>
      <use x="871.289062" xlink:href="#DejaVuSans-1073"/>
      <use x="932.958984" xlink:href="#DejaVuSans-1083"/>
      <use x="996.875" xlink:href="#DejaVuSans-1072"/>
      <use x="1058.154297" xlink:href="#DejaVuSans-1089"/>
      <use x="1113.134766" xlink:href="#DejaVuSans-1090"/>
      <use x="1171.386719" xlink:href="#DejaVuSans-1100"/>
     </g>
    </g>
    <g id="patch_22">
     <path d="M 233.64 87.551719 
L 253.64 87.551719 
L 253.64 80.551719 
L 233.64 80.551719 
z
" style="fill:#ff7f0e;"/>
    </g>
    <g id="text_12">
     <!-- PrkRealTV Реклама Объявления Прокопьевска -->
     <g transform="translate(261.64 87.551719)scale(0.1 -0.1)">
      <defs>
       <path d="M 19.671875 64.796875 
L 19.671875 37.40625 
L 32.078125 37.40625 
Q 38.96875 37.40625 42.71875 40.96875 
Q 46.484375 44.53125 46.484375 51.125 
Q 46.484375 57.671875 42.71875 61.234375 
Q 38.96875 64.796875 32.078125 64.796875 
z
M 9.8125 72.90625 
L 32.078125 72.90625 
Q 44.34375 72.90625 50.609375 67.359375 
Q 56.890625 61.8125 56.890625 51.125 
Q 56.890625 40.328125 50.609375 34.8125 
Q 44.34375 29.296875 32.078125 29.296875 
L 19.671875 29.296875 
L 19.671875 0 
L 9.8125 0 
z
" id="DejaVuSans-80"/>
       <path d="M 44.390625 34.1875 
Q 47.5625 33.109375 50.5625 29.59375 
Q 53.5625 26.078125 56.59375 19.921875 
L 66.609375 0 
L 56 0 
L 46.6875 18.703125 
Q 43.0625 26.03125 39.671875 28.421875 
Q 36.28125 30.8125 30.421875 30.8125 
L 19.671875 30.8125 
L 19.671875 0 
L 9.8125 0 
L 9.8125 72.90625 
L 32.078125 72.90625 
Q 44.578125 72.90625 50.734375 67.671875 
Q 56.890625 62.453125 56.890625 51.90625 
Q 56.890625 45.015625 53.6875 40.46875 
Q 50.484375 35.9375 44.390625 34.1875 
z
M 19.671875 64.796875 
L 19.671875 38.921875 
L 32.078125 38.921875 
Q 39.203125 38.921875 42.84375 42.21875 
Q 46.484375 45.515625 46.484375 51.90625 
Q 46.484375 58.296875 42.84375 61.546875 
Q 39.203125 64.796875 32.078125 64.796875 
z
" id="DejaVuSans-82"/>
       <path d="M 56.203125 29.59375 
L 56.203125 25.203125 
L 14.890625 25.203125 
Q 15.484375 15.921875 20.484375 11.0625 
Q 25.484375 6.203125 34.421875 6.203125 
Q 39.59375 6.203125 44.453125 7.46875 
Q 49.3125 8.734375 54.109375 11.28125 
L 54.109375 2.78125 
Q 49.265625 0.734375 44.1875 -0.34375 
Q 39.109375 -1.421875 33.890625 -1.421875 
Q 20.796875 -1.421875 13.15625 6.1875 
Q 5.515625 13.8125 5.515625 26.8125 
Q 5.515625 40.234375 12.765625 48.109375 
Q 20.015625 56 32.328125 56 
Q 43.359375 56 49.78125 48.890625 
Q 56.203125 41.796875 56.203125 29.59375 
z
M 47.21875 32.234375 
Q 47.125 39.59375 43.09375 43.984375 
Q 39.0625 48.390625 32.421875 48.390625 
Q 24.90625 48.390625 20.390625 44.140625 
Q 15.875 39.890625 15.1875 32.171875 
z
" id="DejaVuSans-101"/>
       <path d="M 9.421875 75.984375 
L 18.40625 75.984375 
L 18.40625 0 
L 9.421875 0 
z
" id="DejaVuSans-108"/>
       <path d="M -0.296875 72.90625 
L 61.375 72.90625 
L 61.375 64.59375 
L 35.5 64.59375 
L 35.5 0 
L 25.59375 0 
L 25.59375 64.59375 
L -0.296875 64.59375 
z
" id="DejaVuSans-84"/>
       <path d="M 28.609375 0 
L 0.78125 72.90625 
L 11.078125 72.90625 
L 34.1875 11.53125 
L 57.328125 72.90625 
L 67.578125 72.90625 
L 39.796875 0 
z
" id="DejaVuSans-86"/>
       <path d="M 9.078125 54.6875 
L 22.21875 54.6875 
L 37.75 18.0625 
L 53.328125 54.6875 
L 66.359375 54.6875 
L 66.359375 0 
L 57.328125 0 
L 57.328125 46.09375 
L 42.234375 10.5 
L 33.25 10.5 
L 18.109375 46.09375 
L 18.109375 0 
L 9.078125 0 
z
" id="DejaVuSans-1084"/>
       <path d="M 39.40625 66.21875 
Q 28.65625 66.21875 22.328125 58.203125 
Q 16.015625 50.203125 16.015625 36.375 
Q 16.015625 22.609375 22.328125 14.59375 
Q 28.65625 6.59375 39.40625 6.59375 
Q 50.140625 6.59375 56.421875 14.59375 
Q 62.703125 22.609375 62.703125 36.375 
Q 62.703125 50.203125 56.421875 58.203125 
Q 50.140625 66.21875 39.40625 66.21875 
z
M 39.40625 74.21875 
Q 54.734375 74.21875 63.90625 63.9375 
Q 73.09375 53.65625 73.09375 36.375 
Q 73.09375 19.140625 63.90625 8.859375 
Q 54.734375 -1.421875 39.40625 -1.421875 
Q 24.03125 -1.421875 14.8125 8.828125 
Q 5.609375 19.09375 5.609375 36.375 
Q 5.609375 53.65625 14.8125 63.9375 
Q 24.03125 74.21875 39.40625 74.21875 
z
" id="DejaVuSans-1054"/>
       <path d="M 43.015625 32.375 
Q 53.46875 32.375 59.109375 28.390625 
Q 64.75 24.421875 64.75 16.21875 
Q 64.75 8.015625 59.109375 4 
Q 53.46875 0 43.015625 0 
L 20.75 0 
L 20.75 47.515625 
L 3.03125 47.515625 
L 3.03125 54.6875 
L 29.78125 54.6875 
L 29.78125 32.375 
z
M 42.625 25.203125 
L 29.78125 25.203125 
L 29.78125 7.171875 
L 42.625 7.171875 
Q 48.78125 7.171875 51.96875 9.484375 
Q 55.171875 11.8125 55.171875 16.21875 
Q 55.171875 20.609375 51.96875 22.90625 
Q 48.78125 25.203125 42.625 25.203125 
z
" id="DejaVuSans-1098"/>
       <path d="M 18.453125 38.921875 
Q 18.453125 34.859375 21.578125 32.5625 
Q 24.703125 30.28125 30.515625 30.28125 
L 42.625 30.28125 
L 42.625 47.515625 
L 30.515625 47.515625 
Q 24.703125 47.515625 21.578125 45.265625 
Q 18.453125 43.015625 18.453125 38.921875 
z
M 5.671875 0 
L 22.359375 23.96875 
Q 16.703125 25.25 12.9375 28.59375 
Q 9.1875 31.9375 9.1875 38.921875 
Q 9.1875 46.828125 14.421875 50.75 
Q 19.671875 54.6875 30.28125 54.6875 
L 51.65625 54.6875 
L 51.65625 0 
L 42.625 0 
L 42.625 23.09375 
L 31.453125 23.09375 
L 15.328125 0 
z
" id="DejaVuSans-1103"/>
       <path d="M 9.078125 54.6875 
L 18.109375 54.6875 
L 18.109375 32.375 
L 47.265625 32.375 
L 47.265625 54.6875 
L 56.296875 54.6875 
L 56.296875 0 
L 47.265625 0 
L 47.265625 25.203125 
L 18.109375 25.203125 
L 18.109375 0 
L 9.078125 0 
z
" id="DejaVuSans-1085"/>
      </defs>
      <use xlink:href="#DejaVuSans-80"/>
      <use x="58.552734" xlink:href="#DejaVuSans-114"/>
      <use x="99.666016" xlink:href="#DejaVuSans-107"/>
      <use x="157.576172" xlink:href="#DejaVuSans-82"/>
      <use x="222.558594" xlink:href="#DejaVuSans-101"/>
      <use x="284.082031" xlink:href="#DejaVuSans-97"/>
      <use x="345.361328" xlink:href="#DejaVuSans-108"/>
      <use x="373.144531" xlink:href="#DejaVuSans-84"/>
      <use x="434.228516" xlink:href="#DejaVuSans-86"/>
      <use x="502.636719" xlink:href="#DejaVuSans-32"/>
      <use x="534.423828" xlink:href="#DejaVuSans-1056"/>
      <use x="594.726562" xlink:href="#DejaVuSans-1077"/>
      <use x="656.25" xlink:href="#DejaVuSans-1082"/>
      <use x="716.650391" xlink:href="#DejaVuSans-1083"/>
      <use x="780.566406" xlink:href="#DejaVuSans-1072"/>
      <use x="841.845703" xlink:href="#DejaVuSans-1084"/>
      <use x="917.285156" xlink:href="#DejaVuSans-1072"/>
      <use x="978.564453" xlink:href="#DejaVuSans-32"/>
      <use x="1010.351562" xlink:href="#DejaVuSans-1054"/>
      <use x="1089.0625" xlink:href="#DejaVuSans-1073"/>
      <use x="1150.732422" xlink:href="#DejaVuSans-1098"/>
      <use x="1221.386719" xlink:href="#DejaVuSans-1103"/>
      <use x="1281.542969" xlink:href="#DejaVuSans-1074"/>
      <use x="1340.478516" xlink:href="#DejaVuSans-1083"/>
      <use x="1404.394531" xlink:href="#DejaVuSans-1077"/>
      <use x="1465.917969" xlink:href="#DejaVuSans-1085"/>
      <use x="1531.298828" xlink:href="#DejaVuSans-1080"/>
      <use x="1596.289062" xlink:href="#DejaVuSans-1103"/>
      <use x="1656.445312" xlink:href="#DejaVuSans-32"/>
      <use x="1688.232422" xlink:href="#DejaVuSans-1055"/>
      <use x="1763.427734" xlink:href="#DejaVuSans-1088"/>
      <use x="1826.904297" xlink:href="#DejaVuSans-1086"/>
      <use x="1888.085938" xlink:href="#DejaVuSans-1082"/>
      <use x="1948.486328" xlink:href="#DejaVuSans-1086"/>
      <use x="2009.667969" xlink:href="#DejaVuSans-1087"/>
      <use x="2075.048828" xlink:href="#DejaVuSans-1100"/>
      <use x="2133.984375" xlink:href="#DejaVuSans-1077"/>
      <use x="2195.507812" xlink:href="#DejaVuSans-1074"/>
      <use x="2254.443359" xlink:href="#DejaVuSans-1089"/>
      <use x="2309.423828" xlink:href="#DejaVuSans-1082"/>
      <use x="2369.824219" xlink:href="#DejaVuSans-1072"/>
     </g>
    </g>
    <g id="patch_23">
     <path d="M 233.64 102.229844 
L 253.64 102.229844 
L 253.64 95.229844 
L 233.64 95.229844 
z
" style="fill:#2ca02c;"/>
    </g>
    <g id="text_13">
     <!-- Движение ЗА ПРАВДУ -->
     <g transform="translate(261.64 102.229844)scale(0.1 -0.1)">
      <defs>
       <path d="M 40.578125 54.6875 
L 49.515625 54.6875 
L 49.515625 29 
L 73.390625 54.6875 
L 83.84375 54.6875 
L 64.203125 33.640625 
L 86.671875 0 
L 77.046875 0 
L 58.640625 27.640625 
L 49.515625 17.828125 
L 49.515625 0 
L 40.578125 0 
L 40.578125 17.828125 
L 31.453125 27.640625 
L 13.03125 0 
L 3.421875 0 
L 25.875 33.640625 
L 6.25 54.6875 
L 16.703125 54.6875 
L 40.578125 29 
z
" id="DejaVuSans-1078"/>
      </defs>
      <use xlink:href="#DejaVuSans-1044"/>
      <use x="78.125" xlink:href="#DejaVuSans-1074"/>
      <use x="137.060547" xlink:href="#DejaVuSans-1080"/>
      <use x="202.050781" xlink:href="#DejaVuSans-1078"/>
      <use x="292.138672" xlink:href="#DejaVuSans-1077"/>
      <use x="353.662109" xlink:href="#DejaVuSans-1085"/>
      <use x="419.042969" xlink:href="#DejaVuSans-1080"/>
      <use x="484.033203" xlink:href="#DejaVuSans-1077"/>
      <use x="545.556641" xlink:href="#DejaVuSans-32"/>
      <use x="577.34375" xlink:href="#DejaVuSans-1047"/>
      <use x="641.455078" xlink:href="#DejaVuSans-1040"/>
      <use x="709.863281" xlink:href="#DejaVuSans-32"/>
      <use x="741.650391" xlink:href="#DejaVuSans-1055"/>
      <use x="816.845703" xlink:href="#DejaVuSans-1056"/>
      <use x="877.148438" xlink:href="#DejaVuSans-1040"/>
      <use x="945.556641" xlink:href="#DejaVuSans-1042"/>
      <use x="1014.160156" xlink:href="#DejaVuSans-1044"/>
      <use x="1092.285156" xlink:href="#DejaVuSans-1059"/>
     </g>
    </g>
    <g id="patch_24">
     <path d="M 233.64 116.907969 
L 253.64 116.907969 
L 253.64 109.907969 
L 233.64 109.907969 
z
" style="fill:#d62728;"/>
    </g>
    <g id="text_14">
     <!-- Доставка суши и пиццы Панда (Шерегеш, Таштагол) -->
     <g transform="translate(261.64 116.907969)scale(0.1 -0.1)">
      <defs>
       <path d="M 50.25 7.171875 
L 73.390625 7.171875 
L 73.390625 54.6875 
L 82.421875 54.6875 
L 82.421875 0 
L 9.078125 0 
L 9.078125 54.6875 
L 18.109375 54.6875 
L 18.109375 7.171875 
L 41.21875 7.171875 
L 41.21875 54.6875 
L 50.25 54.6875 
z
" id="DejaVuSans-1096"/>
       <path d="M 56.296875 0 
L 9.078125 0 
L 9.078125 54.6875 
L 18.109375 54.6875 
L 18.109375 7.171875 
L 47.265625 7.171875 
L 47.265625 54.6875 
L 56.296875 54.6875 
L 56.296875 7.171875 
L 63.484375 7.171875 
L 63.484375 -13.8125 
L 56.296875 -13.8125 
z
" id="DejaVuSans-1094"/>
       <path d="M 31 75.875 
Q 24.46875 64.65625 21.28125 53.65625 
Q 18.109375 42.671875 18.109375 31.390625 
Q 18.109375 20.125 21.3125 9.0625 
Q 24.515625 -2 31 -13.1875 
L 23.1875 -13.1875 
Q 15.875 -1.703125 12.234375 9.375 
Q 8.59375 20.453125 8.59375 31.390625 
Q 8.59375 42.28125 12.203125 53.3125 
Q 15.828125 64.359375 23.1875 75.875 
z
" id="DejaVuSans-40"/>
       <path d="M 58.40625 8.296875 
L 87.25 8.296875 
L 87.25 72.90625 
L 97.125 72.90625 
L 97.125 0 
L 9.8125 0 
L 9.8125 72.90625 
L 19.671875 72.90625 
L 19.671875 8.296875 
L 48.53125 8.296875 
L 48.53125 72.90625 
L 58.40625 72.90625 
z
" id="DejaVuSans-1064"/>
       <path d="M 11.71875 12.40625 
L 22.015625 12.40625 
L 22.015625 4 
L 14.015625 -11.625 
L 7.71875 -11.625 
L 11.71875 4 
z
" id="DejaVuSans-44"/>
       <path d="M 8.015625 75.875 
L 15.828125 75.875 
Q 23.140625 64.359375 26.78125 53.3125 
Q 30.421875 42.28125 30.421875 31.390625 
Q 30.421875 20.453125 26.78125 9.375 
Q 23.140625 -1.703125 15.828125 -13.1875 
L 8.015625 -13.1875 
Q 14.5 -2 17.703125 9.0625 
Q 20.90625 20.125 20.90625 31.390625 
Q 20.90625 42.671875 17.703125 53.65625 
Q 14.5 64.65625 8.015625 75.875 
z
" id="DejaVuSans-41"/>
      </defs>
      <use xlink:href="#DejaVuSans-1044"/>
      <use x="78.125" xlink:href="#DejaVuSans-1086"/>
      <use x="139.306641" xlink:href="#DejaVuSans-1089"/>
      <use x="194.287109" xlink:href="#DejaVuSans-1090"/>
      <use x="252.539062" xlink:href="#DejaVuSans-1072"/>
      <use x="313.818359" xlink:href="#DejaVuSans-1074"/>
      <use x="372.753906" xlink:href="#DejaVuSans-1082"/>
      <use x="433.154297" xlink:href="#DejaVuSans-1072"/>
      <use x="494.433594" xlink:href="#DejaVuSans-32"/>
      <use x="526.220703" xlink:href="#DejaVuSans-1089"/>
      <use x="581.201172" xlink:href="#DejaVuSans-1091"/>
      <use x="640.380859" xlink:href="#DejaVuSans-1096"/>
      <use x="731.884766" xlink:href="#DejaVuSans-1080"/>
      <use x="796.875" xlink:href="#DejaVuSans-32"/>
      <use x="828.662109" xlink:href="#DejaVuSans-1080"/>
      <use x="893.652344" xlink:href="#DejaVuSans-32"/>
      <use x="925.439453" xlink:href="#DejaVuSans-1087"/>
      <use x="990.820312" xlink:href="#DejaVuSans-1080"/>
      <use x="1055.810547" xlink:href="#DejaVuSans-1094"/>
      <use x="1123.876953" xlink:href="#DejaVuSans-1094"/>
      <use x="1191.943359" xlink:href="#DejaVuSans-1099"/>
      <use x="1270.898438" xlink:href="#DejaVuSans-32"/>
      <use x="1302.685547" xlink:href="#DejaVuSans-1055"/>
      <use x="1377.880859" xlink:href="#DejaVuSans-1072"/>
      <use x="1439.160156" xlink:href="#DejaVuSans-1085"/>
      <use x="1504.541016" xlink:href="#DejaVuSans-1076"/>
      <use x="1573.681641" xlink:href="#DejaVuSans-1072"/>
      <use x="1634.960938" xlink:href="#DejaVuSans-32"/>
      <use x="1666.748047" xlink:href="#DejaVuSans-40"/>
      <use x="1705.761719" xlink:href="#DejaVuSans-1064"/>
      <use x="1812.695312" xlink:href="#DejaVuSans-1077"/>
      <use x="1874.21875" xlink:href="#DejaVuSans-1088"/>
      <use x="1937.695312" xlink:href="#DejaVuSans-1077"/>
      <use x="1999.21875" xlink:href="#DejaVuSans-1075"/>
      <use x="2051.757812" xlink:href="#DejaVuSans-1077"/>
      <use x="2113.28125" xlink:href="#DejaVuSans-1096"/>
      <use x="2204.785156" xlink:href="#DejaVuSans-44"/>
      <use x="2236.572266" xlink:href="#DejaVuSans-32"/>
      <use x="2268.359375" xlink:href="#DejaVuSans-1058"/>
      <use x="2329.443359" xlink:href="#DejaVuSans-1072"/>
      <use x="2390.722656" xlink:href="#DejaVuSans-1096"/>
      <use x="2482.226562" xlink:href="#DejaVuSans-1090"/>
      <use x="2540.478516" xlink:href="#DejaVuSans-1072"/>
      <use x="2601.757812" xlink:href="#DejaVuSans-1075"/>
      <use x="2654.296875" xlink:href="#DejaVuSans-1086"/>
      <use x="2715.478516" xlink:href="#DejaVuSans-1083"/>
      <use x="2779.394531" xlink:href="#DejaVuSans-41"/>
     </g>
    </g>
    <g id="patch_25">
     <path d="M 233.64 131.586094 
L 253.64 131.586094 
L 253.64 124.586094 
L 233.64 124.586094 
z
" style="fill:#9467bd;"/>
    </g>
    <g id="text_15">
     <!-- Со смыслом.. -->
     <g transform="translate(261.64 131.586094)scale(0.1 -0.1)">
      <defs>
       <path d="M 64.40625 67.28125 
L 64.40625 56.890625 
Q 59.421875 61.53125 53.78125 63.8125 
Q 48.140625 66.109375 41.796875 66.109375 
Q 29.296875 66.109375 22.65625 58.46875 
Q 16.015625 50.828125 16.015625 36.375 
Q 16.015625 21.96875 22.65625 14.328125 
Q 29.296875 6.6875 41.796875 6.6875 
Q 48.140625 6.6875 53.78125 8.984375 
Q 59.421875 11.28125 64.40625 15.921875 
L 64.40625 5.609375 
Q 59.234375 2.09375 53.4375 0.328125 
Q 47.65625 -1.421875 41.21875 -1.421875 
Q 24.65625 -1.421875 15.125 8.703125 
Q 5.609375 18.84375 5.609375 36.375 
Q 5.609375 53.953125 15.125 64.078125 
Q 24.65625 74.21875 41.21875 74.21875 
Q 47.75 74.21875 53.53125 72.484375 
Q 59.328125 70.75 64.40625 67.28125 
z
" id="DejaVuSans-1057"/>
      </defs>
      <use xlink:href="#DejaVuSans-1057"/>
      <use x="69.824219" xlink:href="#DejaVuSans-1086"/>
      <use x="131.005859" xlink:href="#DejaVuSans-32"/>
      <use x="162.792969" xlink:href="#DejaVuSans-1089"/>
      <use x="217.773438" xlink:href="#DejaVuSans-1084"/>
      <use x="293.212891" xlink:href="#DejaVuSans-1099"/>
      <use x="372.167969" xlink:href="#DejaVuSans-1089"/>
      <use x="427.148438" xlink:href="#DejaVuSans-1083"/>
      <use x="491.064453" xlink:href="#DejaVuSans-1086"/>
      <use x="552.246094" xlink:href="#DejaVuSans-1084"/>
      <use x="627.685547" xlink:href="#DejaVuSans-46"/>
      <use x="659.472656" xlink:href="#DejaVuSans-46"/>
     </g>
    </g>
    <g id="patch_26">
     <path d="M 233.64 146.264219 
L 253.64 146.264219 
L 253.64 139.264219 
L 233.64 139.264219 
z
" style="fill:#8c564b;"/>
    </g>
    <g id="text_16">
     <!-- ♔ Счастье ♔ -->
     <g transform="translate(261.64 146.264219)scale(0.1 -0.1)">
      <defs>
       <path d="M 41.40625 47.21875 
Q 41.453125 47.359375 41.546875 47.515625 
Q 39.84375 49.609375 37.359375 50.984375 
Q 33.734375 52.984375 29.921875 52.984375 
Q 26.125 52.984375 22.53125 51 
Q 18.953125 49.03125 16.890625 45.390625 
Q 14.84375 41.75 14.84375 37.84375 
Q 14.84375 33.890625 16.84375 30.328125 
Q 18.84375 26.765625 22.46875 24.8125 
Q 23.53125 24.125 24.65625 23.734375 
L 41.40625 23.734375 
z
M 48.296875 23.734375 
L 64.984375 23.734375 
Q 66.15625 24.125 67.234375 24.8125 
Q 70.84375 26.765625 72.828125 30.328125 
Q 74.8125 33.890625 74.8125 37.84375 
Q 74.8125 41.75 72.78125 45.390625 
Q 70.75 49.03125 67.15625 51 
Q 63.578125 52.984375 59.71875 52.984375 
Q 55.953125 52.984375 52.34375 50.984375 
Q 49.8125 49.609375 48.140625 47.515625 
Q 48.25 47.359375 48.296875 47.21875 
z
M 26.375 18.703125 
L 26.375 3.90625 
L 63.328125 3.90625 
L 63.328125 18.703125 
z
M 22.359375 0 
L 22.359375 18.703125 
Q 20.3125 19.34375 18.453125 20.40625 
Q 15.09375 23.046875 12.453125 27.828125 
Q 9.8125 32.625 9.8125 37.84375 
Q 9.8125 43.109375 12.5 47.921875 
Q 15.1875 52.734375 20.015625 55.3125 
Q 24.859375 57.90625 29.9375 57.90625 
Q 33.84375 57.90625 37.546875 56.390625 
L 37.546875 56.5 
Q 37.546875 58.25 38.421875 59.78125 
Q 39.3125 61.328125 40.875 62.203125 
Q 41.5 62.546875 42.28125 62.75 
L 42.28125 65.375 
L 37.015625 65.375 
L 37.015625 68.796875 
L 42.28125 68.796875 
L 42.28125 73.046875 
L 47.40625 73.046875 
L 47.40625 68.796875 
L 52.6875 68.796875 
L 52.6875 65.375 
L 47.40625 65.375 
L 47.40625 62.75 
Q 48.1875 62.546875 48.828125 62.203125 
Q 50.34375 61.328125 51.25 59.78125 
Q 52.15625 58.25 52.15625 56.5 
L 52.15625 56.390625 
Q 55.859375 57.90625 59.71875 57.90625 
Q 64.796875 57.90625 69.625 55.3125 
Q 74.46875 52.734375 77.140625 47.921875 
Q 79.828125 43.109375 79.828125 37.84375 
Q 79.828125 32.625 77.1875 27.828125 
Q 74.5625 23.046875 71.234375 20.40625 
Q 69.34375 19.34375 67.328125 18.703125 
L 67.328125 0 
z
M 40.28125 56.109375 
Q 40.28125 54.890625 40.890625 53.828125 
Q 41.5 52.78125 42.59375 52.171875 
Q 43.703125 51.5625 44.828125 51.5625 
Q 46 51.5625 47.09375 52.171875 
Q 48.1875 52.78125 48.765625 53.828125 
Q 49.359375 54.890625 49.359375 56.109375 
Q 49.359375 57.28125 48.765625 58.375 
Q 48.1875 59.46875 47.09375 60.03125 
Q 46 60.59375 44.828125 60.59375 
Q 43.703125 60.59375 42.59375 60.03125 
Q 41.5 59.46875 40.890625 58.375 
Q 40.28125 57.28125 40.28125 56.109375 
z
" id="DejaVuSans-9812"/>
      </defs>
      <use xlink:href="#DejaVuSans-9812"/>
      <use x="89.648438" xlink:href="#DejaVuSans-32"/>
      <use x="121.435547" xlink:href="#DejaVuSans-1057"/>
      <use x="191.259766" xlink:href="#DejaVuSans-1095"/>
      <use x="250.341797" xlink:href="#DejaVuSans-1072"/>
      <use x="311.621094" xlink:href="#DejaVuSans-1089"/>
      <use x="366.601562" xlink:href="#DejaVuSans-1090"/>
      <use x="424.853516" xlink:href="#DejaVuSans-1100"/>
      <use x="483.789062" xlink:href="#DejaVuSans-1077"/>
      <use x="545.3125" xlink:href="#DejaVuSans-32"/>
      <use x="577.099609" xlink:href="#DejaVuSans-9812"/>
     </g>
    </g>
    <g id="patch_27">
     <path d="M 233.64 161.112656 
L 253.64 161.112656 
L 253.64 154.112656 
L 233.64 154.112656 
z
" style="fill:#e377c2;"/>
    </g>
    <g id="text_17">
     <!-- ТРОЛЛЬ ГНЕТ ЕЛЬ - 12 ноября -Новокузнецк -->
     <g transform="translate(261.64 161.112656)scale(0.1 -0.1)">
      <defs>
       <path d="M 4.109375 0 
L 4.109375 8.296875 
Q 14.703125 10.59375 17.71875 18.609375 
Q 21.96875 31.203125 21.96875 60.5 
L 21.96875 72.90625 
L 65.328125 72.90625 
L 65.328125 0 
L 55.46875 0 
L 55.46875 64.59375 
L 31.78125 64.59375 
L 31.78125 55.609375 
Q 31.78125 27.984375 26.8125 15.09375 
Q 22.015625 2.734375 4.109375 0 
z
" id="DejaVuSans-1051"/>
       <path d="M 51.125 21.4375 
Q 51.125 28.21875 47.265625 31.546875 
Q 43.453125 34.8125 35.5 34.8125 
L 19.671875 34.8125 
L 19.671875 8.109375 
L 35.5 8.109375 
Q 43.453125 8.109375 47.265625 11.421875 
Q 51.125 14.703125 51.125 21.4375 
z
M 9.8125 72.90625 
L 19.671875 72.90625 
L 19.671875 42.921875 
L 35.984375 42.921875 
Q 48.25 42.921875 54.890625 37.59375 
Q 61.53125 32.28125 61.53125 21.4375 
Q 61.53125 10.640625 54.890625 5.3125 
Q 48.25 0 35.984375 0 
L 9.8125 0 
z
" id="DejaVuSans-1068"/>
       <path d="M 9.8125 0 
L 9.8125 72.90625 
L 55.171875 72.90625 
L 55.171875 64.59375 
L 19.671875 64.59375 
L 19.671875 0 
z
" id="DejaVuSans-1043"/>
       <path d="M 9.8125 72.90625 
L 19.671875 72.90625 
L 19.671875 43.015625 
L 55.515625 43.015625 
L 55.515625 72.90625 
L 65.375 72.90625 
L 65.375 0 
L 55.515625 0 
L 55.515625 34.71875 
L 19.671875 34.71875 
L 19.671875 0 
L 9.8125 0 
z
" id="DejaVuSans-1053"/>
       <path d="M 9.8125 72.90625 
L 55.90625 72.90625 
L 55.90625 64.59375 
L 19.671875 64.59375 
L 19.671875 43.015625 
L 54.390625 43.015625 
L 54.390625 34.71875 
L 19.671875 34.71875 
L 19.671875 8.296875 
L 56.78125 8.296875 
L 56.78125 0 
L 9.8125 0 
z
" id="DejaVuSans-1045"/>
       <path d="M 34.46875 29.5 
Q 40.53125 28.328125 43.890625 24.75 
Q 47.265625 21.1875 47.265625 15.921875 
Q 47.265625 7.46875 40.96875 3.015625 
Q 34.671875 -1.421875 23.046875 -1.421875 
Q 19.140625 -1.421875 15.015625 -0.734375 
Q 10.890625 -0.046875 6.5 1.3125 
L 6.5 9.671875 
Q 9.96875 7.859375 14.109375 6.953125 
Q 18.265625 6.0625 22.796875 6.0625 
Q 30.171875 6.0625 34.296875 8.796875 
Q 38.421875 11.53125 38.421875 15.921875 
Q 38.421875 20.21875 34.765625 22.828125 
Q 31.109375 25.4375 24.421875 25.4375 
L 17.1875 25.4375 
L 17.1875 32.859375 
L 24.75 32.859375 
Q 30.421875 32.859375 33.71875 35.03125 
Q 37.015625 37.203125 37.015625 40.625 
Q 37.015625 43.75 33.609375 46 
Q 30.21875 48.25 24.421875 48.25 
Q 20.953125 48.25 17.015625 47.609375 
Q 13.09375 46.96875 8.34375 45.5625 
L 8.34375 53.71875 
Q 13.140625 54.890625 17.28125 55.46875 
Q 21.4375 56.0625 25.140625 56.0625 
Q 34.71875 56.0625 40.25 52.21875 
Q 45.796875 48.390625 45.796875 41.5 
Q 45.796875 36.96875 42.859375 33.8125 
Q 39.9375 30.671875 34.46875 29.5 
z
" id="DejaVuSans-1079"/>
      </defs>
      <use xlink:href="#DejaVuSans-1058"/>
      <use x="61.083984" xlink:href="#DejaVuSans-1056"/>
      <use x="121.386719" xlink:href="#DejaVuSans-1054"/>
      <use x="200.097656" xlink:href="#DejaVuSans-1051"/>
      <use x="275.292969" xlink:href="#DejaVuSans-1051"/>
      <use x="350.488281" xlink:href="#DejaVuSans-1068"/>
      <use x="419.091797" xlink:href="#DejaVuSans-32"/>
      <use x="450.878906" xlink:href="#DejaVuSans-1043"/>
      <use x="511.865234" xlink:href="#DejaVuSans-1053"/>
      <use x="587.060547" xlink:href="#DejaVuSans-1045"/>
      <use x="650.244141" xlink:href="#DejaVuSans-1058"/>
      <use x="711.328125" xlink:href="#DejaVuSans-32"/>
      <use x="743.115234" xlink:href="#DejaVuSans-1045"/>
      <use x="806.298828" xlink:href="#DejaVuSans-1051"/>
      <use x="881.494141" xlink:href="#DejaVuSans-1068"/>
      <use x="950.097656" xlink:href="#DejaVuSans-32"/>
      <use x="981.884766" xlink:href="#DejaVuSans-45"/>
      <use x="1017.96875" xlink:href="#DejaVuSans-32"/>
      <use x="1049.755859" xlink:href="#DejaVuSans-49"/>
      <use x="1113.378906" xlink:href="#DejaVuSans-50"/>
      <use x="1177.001953" xlink:href="#DejaVuSans-32"/>
      <use x="1208.789062" xlink:href="#DejaVuSans-1085"/>
      <use x="1274.169922" xlink:href="#DejaVuSans-1086"/>
      <use x="1335.351562" xlink:href="#DejaVuSans-1103"/>
      <use x="1395.507812" xlink:href="#DejaVuSans-1073"/>
      <use x="1457.177734" xlink:href="#DejaVuSans-1088"/>
      <use x="1520.654297" xlink:href="#DejaVuSans-1103"/>
      <use x="1580.810547" xlink:href="#DejaVuSans-32"/>
      <use x="1612.597656" xlink:href="#DejaVuSans-45"/>
      <use x="1648.681641" xlink:href="#DejaVuSans-1053"/>
      <use x="1723.876953" xlink:href="#DejaVuSans-1086"/>
      <use x="1785.058594" xlink:href="#DejaVuSans-1074"/>
      <use x="1843.994141" xlink:href="#DejaVuSans-1086"/>
      <use x="1905.175781" xlink:href="#DejaVuSans-1082"/>
      <use x="1965.576172" xlink:href="#DejaVuSans-1091"/>
      <use x="2024.755859" xlink:href="#DejaVuSans-1079"/>
      <use x="2077.929688" xlink:href="#DejaVuSans-1085"/>
      <use x="2143.310547" xlink:href="#DejaVuSans-1077"/>
      <use x="2204.833984" xlink:href="#DejaVuSans-1094"/>
      <use x="2272.900391" xlink:href="#DejaVuSans-1082"/>
     </g>
    </g>
    <g id="patch_28">
     <path d="M 233.64 175.961094 
L 253.64 175.961094 
L 253.64 168.961094 
L 233.64 168.961094 
z
" style="fill:#7f7f7f;"/>
    </g>
    <g id="text_18">
     <!-- Гороскоп. Рыбы -->
     <g transform="translate(261.64 175.961094)scale(0.1 -0.1)">
      <use xlink:href="#DejaVuSans-1043"/>
      <use x="60.986328" xlink:href="#DejaVuSans-1086"/>
      <use x="122.167969" xlink:href="#DejaVuSans-1088"/>
      <use x="185.644531" xlink:href="#DejaVuSans-1086"/>
      <use x="246.826172" xlink:href="#DejaVuSans-1089"/>
      <use x="301.806641" xlink:href="#DejaVuSans-1082"/>
      <use x="362.207031" xlink:href="#DejaVuSans-1086"/>
      <use x="423.388672" xlink:href="#DejaVuSans-1087"/>
      <use x="488.769531" xlink:href="#DejaVuSans-46"/>
      <use x="520.556641" xlink:href="#DejaVuSans-32"/>
      <use x="552.34375" xlink:href="#DejaVuSans-1056"/>
      <use x="612.646484" xlink:href="#DejaVuSans-1099"/>
      <use x="691.601562" xlink:href="#DejaVuSans-1073"/>
      <use x="753.271484" xlink:href="#DejaVuSans-1099"/>
     </g>
    </g>
    <g id="patch_29">
     <path d="M 233.64 190.809531 
L 253.64 190.809531 
L 253.64 183.809531 
L 233.64 183.809531 
z
" style="fill:#bcbd22;"/>
    </g>
    <g id="text_19">
     <!-- Рыбы ( 2 декабря ) -->
     <g transform="translate(261.64 190.809531)scale(0.1 -0.1)">
      <use xlink:href="#DejaVuSans-1056"/>
      <use x="60.302734" xlink:href="#DejaVuSans-1099"/>
      <use x="139.257812" xlink:href="#DejaVuSans-1073"/>
      <use x="200.927734" xlink:href="#DejaVuSans-1099"/>
      <use x="279.882812" xlink:href="#DejaVuSans-32"/>
      <use x="311.669922" xlink:href="#DejaVuSans-40"/>
      <use x="350.683594" xlink:href="#DejaVuSans-32"/>
      <use x="382.470703" xlink:href="#DejaVuSans-50"/>
      <use x="446.09375" xlink:href="#DejaVuSans-32"/>
      <use x="477.880859" xlink:href="#DejaVuSans-1076"/>
      <use x="547.021484" xlink:href="#DejaVuSans-1077"/>
      <use x="608.544922" xlink:href="#DejaVuSans-1082"/>
      <use x="668.945312" xlink:href="#DejaVuSans-1072"/>
      <use x="730.224609" xlink:href="#DejaVuSans-1073"/>
      <use x="791.894531" xlink:href="#DejaVuSans-1088"/>
      <use x="855.371094" xlink:href="#DejaVuSans-1103"/>
      <use x="915.527344" xlink:href="#DejaVuSans-32"/>
      <use x="947.314453" xlink:href="#DejaVuSans-41"/>
     </g>
    </g>
   </g>
  </g>
 </g>
</svg>
