<?xml version="1.0" encoding="utf-8" standalone="no"?>
<!DOCTYPE svg PUBLIC "-//W3C//DTD SVG 1.1//EN"
  "http://www.w3.org/Graphics/SVG/1.1/DTD/svg11.dtd">
<!-- Created with matplotlib (https://matplotlib.org/) -->
<svg height="231.84pt" version="1.1" viewBox="0 0 532.1025 231.84" width="532.1025pt" xmlns="http://www.w3.org/2000/svg" xmlns:xlink="http://www.w3.org/1999/xlink">
 <metadata>
  <rdf:RDF xmlns:cc="http://creativecommons.org/ns#" xmlns:dc="http://purl.org/dc/elements/1.1/" xmlns:rdf="http://www.w3.org/1999/02/22-rdf-syntax-ns#">
   <cc:Work>
    <dc:type rdf:resource="http://purl.org/dc/dcmitype/StillImage"/>
    <dc:date>2020-12-03T00:18:32.364536</dc:date>
    <dc:format>image/svg+xml</dc:format>
    <dc:creator>
     <cc:Agent>
      <dc:title>Matplotlib v3.3.3, https://matplotlib.org/</dc:title>
     </cc:Agent>
    </dc:creator>
   </cc:Work>
  </rdf:RDF>
 </metadata>
 <defs>
  <style type="text/css">*{stroke-linecap:butt;stroke-linejoin:round;}</style>
 </defs>
 <g id="figure_1">
  <g id="patch_1">
   <path d="M 0 231.84 
L 532.1025 231.84 
L 532.1025 0 
L 0 0 
z
" style="fill:none;"/>
  </g>
  <g id="axes_1">
   <g id="patch_2">
    <path d="M 208.342774 112.759987 
C 208.342774 95.282853 203.074938 78.204947 193.229717 63.764661 
C 183.384497 49.324375 169.411679 38.181425 153.142673 31.796312 
L 121.366774 112.759987 
L 208.342774 112.759987 
z
" style="fill:#092436;opacity:0.5;stroke:#092436;stroke-linejoin:miter;"/>
   </g>
   <g id="patch_3">
    <path d="M 144.020981 28.216311 
C 127.751975 21.831197 109.930044 20.495629 92.891098 24.384658 
C 75.852152 28.273686 60.374629 37.209639 48.487159 50.021286 
L 112.245082 109.179987 
L 144.020981 28.216311 
z
" style="fill:#4c2604;opacity:0.5;stroke:#4c2604;stroke-linejoin:miter;"/>
   </g>
   <g id="patch_4">
    <path d="M 42.586291 54.727072 
C 36.675228 61.097683 31.752223 68.318406 27.981543 76.148305 
C 24.210863 83.978204 21.634918 92.329212 20.339662 100.922678 
L 106.344213 113.885773 
L 42.586291 54.727072 
z
" style="fill:#0d300d;opacity:0.5;stroke:#0d300d;stroke-linejoin:miter;"/>
   </g>
   <g id="patch_5">
    <path d="M 19.575474 105.992735 
C 18.280218 114.586201 18.280219 123.32547 19.575476 131.918936 
C 20.870733 140.512402 23.446678 148.863409 27.217359 156.693308 
L 105.580025 118.955831 
L 19.575474 105.992735 
z
" style="fill:#400c0c;opacity:0.5;stroke:#400c0c;stroke-linejoin:miter;"/>
   </g>
   <g id="patch_6">
    <path d="M 29.442023 161.312868 
C 33.212704 169.142767 38.13571 176.363489 44.046773 182.7341 
C 49.957837 189.10471 56.790473 194.553554 64.316694 198.89882 
L 107.804688 123.575391 
L 29.442023 161.312868 
z
" style="fill:#2c1f39;opacity:0.5;stroke:#2c1f39;stroke-linejoin:miter;"/>
   </g>
   <g id="patch_7">
    <path d="M 68.757089 201.462482 
C 76.28331 205.807747 84.418467 209.00056 92.891109 210.934385 
C 101.363751 212.868209 110.078584 213.521295 118.744815 212.87185 
L 112.245083 126.139053 
L 68.757089 201.462482 
z
" style="fill:#2a1a16;opacity:0.5;stroke:#2a1a16;stroke-linejoin:miter;"/>
   </g>
   <g id="patch_8">
    <path d="M 123.857803 212.488684 
C 132.524035 211.839239 141.044192 209.894568 149.133979 206.719559 
C 157.223767 203.544551 164.792196 199.174916 171.586727 193.756457 
L 117.358071 125.755887 
L 123.857803 212.488684 
z
" style="fill:#44243a;opacity:0.5;stroke:#44243a;stroke-linejoin:miter;"/>
   </g>
   <g id="patch_9">
    <path d="M 175.209194 191.082954 
C 180.300955 187.022409 184.920575 182.402788 188.981119 177.311026 
C 193.041663 172.219264 196.517497 166.687504 199.343211 160.819847 
L 120.980538 123.082384 
L 175.209194 191.082954 
z
" style="fill:#262626;opacity:0.5;stroke:#262626;stroke-linejoin:miter;"/>
   </g>
   <g id="patch_10">
    <path d="M 201.022686 157.33238 
C 203.8484 151.464723 206.006155 145.298209 207.455346 138.948887 
C 208.904537 132.599564 209.636014 126.107512 209.636013 119.594905 
L 122.660013 119.594917 
L 201.022686 157.33238 
z
" style="fill:#38390a;opacity:0.5;stroke:#38390a;stroke-linejoin:miter;"/>
   </g>
   <g id="patch_11">
    <path d="M 210.082294 111.020467 
C 210.082294 93.543333 204.814458 76.465427 194.969237 62.025141 
C 185.124017 47.584855 171.151199 36.441905 154.882193 30.056792 
L 123.106294 111.020467 
L 210.082294 111.020467 
z
" style="fill:#1f77b4;"/>
   </g>
   <g id="patch_12">
    <path d="M 145.760501 26.476791 
C 129.491495 20.091677 111.669564 18.756109 94.630618 22.645138 
C 77.591672 26.534166 62.114149 35.470119 50.226679 48.281766 
L 113.984602 107.440467 
L 145.760501 26.476791 
z
" style="fill:#ff7f0e;"/>
   </g>
   <g id="patch_13">
    <path d="M 44.325811 52.987552 
C 38.414748 59.358163 33.491743 66.578886 29.721063 74.408785 
C 25.950383 82.238684 23.374438 90.589692 22.079182 99.183158 
L 108.083733 112.146253 
L 44.325811 52.987552 
z
" style="fill:#2ca02c;"/>
   </g>
   <g id="patch_14">
    <path d="M 21.314994 104.253215 
C 20.019738 112.846681 20.019739 121.58595 21.314996 130.179416 
C 22.610253 138.772882 25.186198 147.123889 28.956879 154.953788 
L 107.319545 117.216311 
L 21.314994 104.253215 
z
" style="fill:#d62728;"/>
   </g>
   <g id="patch_15">
    <path d="M 31.181543 159.573348 
C 34.952224 167.403247 39.87523 174.623969 45.786293 180.99458 
C 51.697357 187.36519 58.529993 192.814034 66.056214 197.1593 
L 109.544208 121.835871 
L 31.181543 159.573348 
z
" style="fill:#9467bd;"/>
   </g>
   <g id="patch_16">
    <path d="M 70.496609 199.722962 
C 78.02283 204.068227 86.157987 207.26104 94.630629 209.194865 
C 103.103271 211.128689 111.818104 211.781775 120.484335 211.13233 
L 113.984603 124.399533 
L 70.496609 199.722962 
z
" style="fill:#8c564b;"/>
   </g>
   <g id="patch_17">
    <path d="M 125.597323 210.749164 
C 134.263555 210.099719 142.783712 208.155048 150.873499 204.980039 
C 158.963287 201.805031 166.531716 197.435396 173.326247 192.016937 
L 119.097591 124.016367 
L 125.597323 210.749164 
z
" style="fill:#e377c2;"/>
   </g>
   <g id="patch_18">
    <path d="M 176.948714 189.343434 
C 182.040475 185.282889 186.660095 180.663268 190.720639 175.571506 
C 194.781183 170.479744 198.257017 164.947984 201.082731 159.080327 
L 122.720058 121.342864 
L 176.948714 189.343434 
z
" style="fill:#7f7f7f;"/>
   </g>
   <g id="patch_19">
    <path d="M 202.762206 155.59286 
C 205.58792 149.725203 207.745675 143.558689 209.194866 137.209367 
C 210.644057 130.860044 211.375534 124.367992 211.375533 117.855385 
L 124.399533 117.855397 
L 202.762206 155.59286 
z
" style="fill:#bcbd22;"/>
   </g>
   <g id="matplotlib.axis_1"/>
   <g id="matplotlib.axis_2"/>
   <g id="text_1">
    <!-- 19.0% -->
    <g style="fill:#ffffff;" transform="translate(150.340466 84.382647)scale(0.1 -0.1)">
     <defs>
      <path d="M 12.40625 8.296875 
L 28.515625 8.296875 
L 28.515625 63.921875 
L 10.984375 60.40625 
L 10.984375 69.390625 
L 28.421875 72.90625 
L 38.28125 72.90625 
L 38.28125 8.296875 
L 54.390625 8.296875 
L 54.390625 0 
L 12.40625 0 
z
" id="DejaVuSans-49"/>
      <path d="M 10.984375 1.515625 
L 10.984375 10.5 
Q 14.703125 8.734375 18.5 7.8125 
Q 22.3125 6.890625 25.984375 6.890625 
Q 35.75 6.890625 40.890625 13.453125 
Q 46.046875 20.015625 46.78125 33.40625 
Q 43.953125 29.203125 39.59375 26.953125 
Q 35.25 24.703125 29.984375 24.703125 
Q 19.046875 24.703125 12.671875 31.3125 
Q 6.296875 37.9375 6.296875 49.421875 
Q 6.296875 60.640625 12.9375 67.421875 
Q 19.578125 74.21875 30.609375 74.21875 
Q 43.265625 74.21875 49.921875 64.515625 
Q 56.59375 54.828125 56.59375 36.375 
Q 56.59375 19.140625 48.40625 8.859375 
Q 40.234375 -1.421875 26.421875 -1.421875 
Q 22.703125 -1.421875 18.890625 -0.6875 
Q 15.09375 0.046875 10.984375 1.515625 
z
M 30.609375 32.421875 
Q 37.25 32.421875 41.125 36.953125 
Q 45.015625 41.5 45.015625 49.421875 
Q 45.015625 57.28125 41.125 61.84375 
Q 37.25 66.40625 30.609375 66.40625 
Q 23.96875 66.40625 20.09375 61.84375 
Q 16.21875 57.28125 16.21875 49.421875 
Q 16.21875 41.5 20.09375 36.953125 
Q 23.96875 32.421875 30.609375 32.421875 
z
" id="DejaVuSans-57"/>
      <path d="M 10.6875 12.40625 
L 21 12.40625 
L 21 0 
L 10.6875 0 
z
" id="DejaVuSans-46"/>
      <path d="M 31.78125 66.40625 
Q 24.171875 66.40625 20.328125 58.90625 
Q 16.5 51.421875 16.5 36.375 
Q 16.5 21.390625 20.328125 13.890625 
Q 24.171875 6.390625 31.78125 6.390625 
Q 39.453125 6.390625 43.28125 13.890625 
Q 47.125 21.390625 47.125 36.375 
Q 47.125 51.421875 43.28125 58.90625 
Q 39.453125 66.40625 31.78125 66.40625 
z
M 31.78125 74.21875 
Q 44.046875 74.21875 50.515625 64.515625 
Q 56.984375 54.828125 56.984375 36.375 
Q 56.984375 17.96875 50.515625 8.265625 
Q 44.046875 -1.421875 31.78125 -1.421875 
Q 19.53125 -1.421875 13.0625 8.265625 
Q 6.59375 17.96875 6.59375 36.375 
Q 6.59375 54.828125 13.0625 64.515625 
Q 19.53125 74.21875 31.78125 74.21875 
z
" id="DejaVuSans-48"/>
      <path d="M 72.703125 32.078125 
Q 68.453125 32.078125 66.03125 28.46875 
Q 63.625 24.859375 63.625 18.40625 
Q 63.625 12.0625 66.03125 8.421875 
Q 68.453125 4.78125 72.703125 4.78125 
Q 76.859375 4.78125 79.265625 8.421875 
Q 81.6875 12.0625 81.6875 18.40625 
Q 81.6875 24.8125 79.265625 28.4375 
Q 76.859375 32.078125 72.703125 32.078125 
z
M 72.703125 38.28125 
Q 80.421875 38.28125 84.953125 32.90625 
Q 89.5 27.546875 89.5 18.40625 
Q 89.5 9.28125 84.9375 3.921875 
Q 80.375 -1.421875 72.703125 -1.421875 
Q 64.890625 -1.421875 60.34375 3.921875 
Q 55.8125 9.28125 55.8125 18.40625 
Q 55.8125 27.59375 60.375 32.9375 
Q 64.9375 38.28125 72.703125 38.28125 
z
M 22.3125 68.015625 
Q 18.109375 68.015625 15.6875 64.375 
Q 13.28125 60.75 13.28125 54.390625 
Q 13.28125 47.953125 15.671875 44.328125 
Q 18.0625 40.71875 22.3125 40.71875 
Q 26.5625 40.71875 28.96875 44.328125 
Q 31.390625 47.953125 31.390625 54.390625 
Q 31.390625 60.6875 28.953125 64.34375 
Q 26.515625 68.015625 22.3125 68.015625 
z
M 66.40625 74.21875 
L 74.21875 74.21875 
L 28.609375 -1.421875 
L 20.796875 -1.421875 
z
M 22.3125 74.21875 
Q 30.03125 74.21875 34.609375 68.875 
Q 39.203125 63.53125 39.203125 54.390625 
Q 39.203125 45.171875 34.640625 39.84375 
Q 30.078125 34.515625 22.3125 34.515625 
Q 14.546875 34.515625 10.03125 39.859375 
Q 5.515625 45.21875 5.515625 54.390625 
Q 5.515625 63.484375 10.046875 68.84375 
Q 14.59375 74.21875 22.3125 74.21875 
z
" id="DejaVuSans-37"/>
     </defs>
     <use xlink:href="#DejaVuSans-49"/>
     <use x="63.623047" xlink:href="#DejaVuSans-57"/>
     <use x="127.246094" xlink:href="#DejaVuSans-46"/>
     <use x="159.033203" xlink:href="#DejaVuSans-48"/>
     <use x="222.65625" xlink:href="#DejaVuSans-37"/>
    </g>
   </g>
   <g id="text_2">
    <!-- 19.0% -->
    <g style="fill:#ffffff;" transform="translate(86.488618 59.322644)scale(0.1 -0.1)">
     <use xlink:href="#DejaVuSans-49"/>
     <use x="63.623047" xlink:href="#DejaVuSans-57"/>
     <use x="127.246094" xlink:href="#DejaVuSans-46"/>
     <use x="159.033203" xlink:href="#DejaVuSans-48"/>
     <use x="222.65625" xlink:href="#DejaVuSans-37"/>
    </g>
   </g>
   <g id="text_3">
    <!-- 9.5% -->
    <g style="fill:#ffffff;" transform="translate(48.363787 92.263147)scale(0.1 -0.1)">
     <defs>
      <path d="M 10.796875 72.90625 
L 49.515625 72.90625 
L 49.515625 64.59375 
L 19.828125 64.59375 
L 19.828125 46.734375 
Q 21.96875 47.46875 24.109375 47.828125 
Q 26.265625 48.1875 28.421875 48.1875 
Q 40.625 48.1875 47.75 41.5 
Q 54.890625 34.8125 54.890625 23.390625 
Q 54.890625 11.625 47.5625 5.09375 
Q 40.234375 -1.421875 26.90625 -1.421875 
Q 22.3125 -1.421875 17.546875 -0.640625 
Q 12.796875 0.140625 7.71875 1.703125 
L 7.71875 11.625 
Q 12.109375 9.234375 16.796875 8.0625 
Q 21.484375 6.890625 26.703125 6.890625 
Q 35.15625 6.890625 40.078125 11.328125 
Q 45.015625 15.765625 45.015625 23.390625 
Q 45.015625 31 40.078125 35.4375 
Q 35.15625 39.890625 26.703125 39.890625 
Q 22.75 39.890625 18.8125 39.015625 
Q 14.890625 38.140625 10.796875 36.28125 
z
" id="DejaVuSans-53"/>
     </defs>
     <use xlink:href="#DejaVuSans-57"/>
     <use x="63.623047" xlink:href="#DejaVuSans-46"/>
     <use x="95.410156" xlink:href="#DejaVuSans-53"/>
     <use x="159.033203" xlink:href="#DejaVuSans-37"/>
    </g>
   </g>
   <g id="text_4">
    <!-- 9.5% -->
    <g style="fill:#ffffff;" transform="translate(43.014472 127.753549)scale(0.1 -0.1)">
     <use xlink:href="#DejaVuSans-57"/>
     <use x="63.623047" xlink:href="#DejaVuSans-46"/>
     <use x="95.410156" xlink:href="#DejaVuSans-53"/>
     <use x="159.033203" xlink:href="#DejaVuSans-37"/>
    </g>
   </g>
   <g id="text_5">
    <!-- 9.5% -->
    <g style="fill:#ffffff;" transform="translate(58.587116 160.090471)scale(0.1 -0.1)">
     <use xlink:href="#DejaVuSans-57"/>
     <use x="63.623047" xlink:href="#DejaVuSans-46"/>
     <use x="95.410156" xlink:href="#DejaVuSans-53"/>
     <use x="159.033203" xlink:href="#DejaVuSans-37"/>
    </g>
   </g>
   <g id="text_6">
    <!-- 9.5% -->
    <g style="fill:#ffffff;" transform="translate(89.669875 178.036107)scale(0.1 -0.1)">
     <use xlink:href="#DejaVuSans-57"/>
     <use x="63.623047" xlink:href="#DejaVuSans-46"/>
     <use x="95.410156" xlink:href="#DejaVuSans-53"/>
     <use x="159.033203" xlink:href="#DejaVuSans-37"/>
    </g>
   </g>
   <g id="text_7">
    <!-- 9.5% -->
    <g style="fill:#ffffff;" transform="translate(125.460792 175.353946)scale(0.1 -0.1)">
     <use xlink:href="#DejaVuSans-57"/>
     <use x="63.623047" xlink:href="#DejaVuSans-46"/>
     <use x="95.410156" xlink:href="#DejaVuSans-53"/>
     <use x="159.033203" xlink:href="#DejaVuSans-37"/>
    </g>
   </g>
   <g id="text_8">
    <!-- 7.1% -->
    <g style="fill:#ffffff;" transform="translate(150.818063 156.639424)scale(0.1 -0.1)">
     <defs>
      <path d="M 8.203125 72.90625 
L 55.078125 72.90625 
L 55.078125 68.703125 
L 28.609375 0 
L 18.3125 0 
L 43.21875 64.59375 
L 8.203125 64.59375 
z
" id="DejaVuSans-55"/>
     </defs>
     <use xlink:href="#DejaVuSans-55"/>
     <use x="63.623047" xlink:href="#DejaVuSans-46"/>
     <use x="95.410156" xlink:href="#DejaVuSans-49"/>
     <use x="159.033203" xlink:href="#DejaVuSans-37"/>
    </g>
   </g>
   <g id="text_9">
    <!-- 7.1% -->
    <g style="fill:#ffffff;" transform="translate(162.574389 132.227154)scale(0.1 -0.1)">
     <use xlink:href="#DejaVuSans-55"/>
     <use x="63.623047" xlink:href="#DejaVuSans-46"/>
     <use x="95.410156" xlink:href="#DejaVuSans-49"/>
     <use x="159.033203" xlink:href="#DejaVuSans-37"/>
    </g>
   </g>
   <g id="legend_1">
    <g id="patch_20">
     <path d="M 231.64 197.550156 
L 522.9025 197.550156 
Q 524.9025 197.550156 524.9025 195.550156 
L 524.9025 36.289844 
Q 524.9025 34.289844 522.9025 34.289844 
L 231.64 34.289844 
Q 229.64 34.289844 229.64 36.289844 
L 229.64 195.550156 
Q 229.64 197.550156 231.64 197.550156 
z
" style="fill:#ffffff;opacity:0.8;stroke:#cccccc;stroke-linejoin:miter;"/>
    </g>
    <g id="text_10">
     <!-- Топ-10 репостов  -->
     <g transform="translate(282.257969 45.888281)scale(0.1 -0.1)">
      <defs>
       <path d="M -0.296875 72.90625 
L 61.375 72.90625 
L 61.375 64.59375 
L 35.5 64.59375 
L 35.5 0 
L 25.59375 0 
L 25.59375 64.59375 
L -0.296875 64.59375 
z
" id="DejaVuSans-1058"/>
       <path d="M 30.609375 48.390625 
Q 23.390625 48.390625 19.1875 42.75 
Q 14.984375 37.109375 14.984375 27.296875 
Q 14.984375 17.484375 19.15625 11.84375 
Q 23.34375 6.203125 30.609375 6.203125 
Q 37.796875 6.203125 41.984375 11.859375 
Q 46.1875 17.53125 46.1875 27.296875 
Q 46.1875 37.015625 41.984375 42.703125 
Q 37.796875 48.390625 30.609375 48.390625 
z
M 30.609375 56 
Q 42.328125 56 49.015625 48.375 
Q 55.71875 40.765625 55.71875 27.296875 
Q 55.71875 13.875 49.015625 6.21875 
Q 42.328125 -1.421875 30.609375 -1.421875 
Q 18.84375 -1.421875 12.171875 6.21875 
Q 5.515625 13.875 5.515625 27.296875 
Q 5.515625 40.765625 12.171875 48.375 
Q 18.84375 56 30.609375 56 
z
" id="DejaVuSans-1086"/>
       <path d="M 56.296875 54.6875 
L 56.296875 0 
L 47.265625 0 
L 47.265625 47.515625 
L 18.109375 47.515625 
L 18.109375 0 
L 9.078125 0 
L 9.078125 54.6875 
z
" id="DejaVuSans-1087"/>
       <path d="M 4.890625 31.390625 
L 31.203125 31.390625 
L 31.203125 23.390625 
L 4.890625 23.390625 
z
" id="DejaVuSans-45"/>
       <path id="DejaVuSans-32"/>
       <path d="M 18.109375 8.203125 
L 18.109375 -20.796875 
L 9.078125 -20.796875 
L 9.078125 54.6875 
L 18.109375 54.6875 
L 18.109375 46.390625 
Q 20.953125 51.265625 25.265625 53.625 
Q 29.59375 56 35.59375 56 
Q 45.5625 56 51.78125 48.09375 
Q 58.015625 40.1875 58.015625 27.296875 
Q 58.015625 14.40625 51.78125 6.484375 
Q 45.5625 -1.421875 35.59375 -1.421875 
Q 29.59375 -1.421875 25.265625 0.953125 
Q 20.953125 3.328125 18.109375 8.203125 
z
M 48.6875 27.296875 
Q 48.6875 37.203125 44.609375 42.84375 
Q 40.53125 48.484375 33.40625 48.484375 
Q 26.265625 48.484375 22.1875 42.84375 
Q 18.109375 37.203125 18.109375 27.296875 
Q 18.109375 17.390625 22.1875 11.75 
Q 26.265625 6.109375 33.40625 6.109375 
Q 40.53125 6.109375 44.609375 11.75 
Q 48.6875 17.390625 48.6875 27.296875 
z
" id="DejaVuSans-1088"/>
       <path d="M 56.203125 29.59375 
L 56.203125 25.203125 
L 14.890625 25.203125 
Q 15.484375 15.921875 20.484375 11.0625 
Q 25.484375 6.203125 34.421875 6.203125 
Q 39.59375 6.203125 44.453125 7.46875 
Q 49.3125 8.734375 54.109375 11.28125 
L 54.109375 2.78125 
Q 49.265625 0.734375 44.1875 -0.34375 
Q 39.109375 -1.421875 33.890625 -1.421875 
Q 20.796875 -1.421875 13.15625 6.1875 
Q 5.515625 13.8125 5.515625 26.8125 
Q 5.515625 40.234375 12.765625 48.109375 
Q 20.015625 56 32.328125 56 
Q 43.359375 56 49.78125 48.890625 
Q 56.203125 41.796875 56.203125 29.59375 
z
M 47.21875 32.234375 
Q 47.125 39.59375 43.09375 43.984375 
Q 39.0625 48.390625 32.421875 48.390625 
Q 24.90625 48.390625 20.390625 44.140625 
Q 15.875 39.890625 15.1875 32.171875 
z
" id="DejaVuSans-1077"/>
       <path d="M 48.78125 52.59375 
L 48.78125 44.1875 
Q 44.96875 46.296875 41.140625 47.34375 
Q 37.3125 48.390625 33.40625 48.390625 
Q 24.65625 48.390625 19.8125 42.84375 
Q 14.984375 37.3125 14.984375 27.296875 
Q 14.984375 17.28125 19.8125 11.734375 
Q 24.65625 6.203125 33.40625 6.203125 
Q 37.3125 6.203125 41.140625 7.25 
Q 44.96875 8.296875 48.78125 10.40625 
L 48.78125 2.09375 
Q 45.015625 0.34375 40.984375 -0.53125 
Q 36.96875 -1.421875 32.421875 -1.421875 
Q 20.0625 -1.421875 12.78125 6.34375 
Q 5.515625 14.109375 5.515625 27.296875 
Q 5.515625 40.671875 12.859375 48.328125 
Q 20.21875 56 33.015625 56 
Q 37.15625 56 41.109375 55.140625 
Q 45.0625 54.296875 48.78125 52.59375 
z
" id="DejaVuSans-1089"/>
       <path d="M 2.9375 54.6875 
L 55.328125 54.6875 
L 55.328125 47.515625 
L 33.546875 47.515625 
L 33.546875 0 
L 24.703125 0 
L 24.703125 47.515625 
L 2.9375 47.515625 
z
" id="DejaVuSans-1090"/>
       <path d="M 18.0625 25.203125 
L 18.0625 7.171875 
L 30.859375 7.171875 
Q 37.015625 7.171875 40.234375 9.484375 
Q 43.453125 11.8125 43.453125 16.21875 
Q 43.453125 20.609375 40.234375 22.90625 
Q 37.015625 25.203125 30.859375 25.203125 
z
M 18.0625 47.515625 
L 18.0625 32.375 
L 29.890625 32.375 
Q 34.96875 32.375 38.1875 34.390625 
Q 41.40625 36.421875 41.40625 40.046875 
Q 41.40625 43.65625 38.1875 45.578125 
Q 34.96875 47.515625 29.890625 47.515625 
z
M 9.078125 54.6875 
L 30.46875 54.6875 
Q 40.09375 54.6875 45.265625 51.171875 
Q 50.4375 47.65625 50.4375 41.15625 
Q 50.4375 36.140625 47.796875 33.171875 
Q 45.171875 30.21875 39.984375 29.5 
Q 46.1875 28.328125 49.609375 24.609375 
Q 53.03125 20.90625 53.03125 15.328125 
Q 53.03125 8.015625 47.390625 4 
Q 41.75 0 31.296875 0 
L 9.078125 0 
z
" id="DejaVuSans-1074"/>
      </defs>
      <use xlink:href="#DejaVuSans-1058"/>
      <use x="61.083984" xlink:href="#DejaVuSans-1086"/>
      <use x="122.265625" xlink:href="#DejaVuSans-1087"/>
      <use x="187.646484" xlink:href="#DejaVuSans-45"/>
      <use x="223.730469" xlink:href="#DejaVuSans-49"/>
      <use x="287.353516" xlink:href="#DejaVuSans-48"/>
      <use x="350.976562" xlink:href="#DejaVuSans-32"/>
      <use x="382.763672" xlink:href="#DejaVuSans-1088"/>
      <use x="446.240234" xlink:href="#DejaVuSans-1077"/>
      <use x="507.763672" xlink:href="#DejaVuSans-1087"/>
      <use x="573.144531" xlink:href="#DejaVuSans-1086"/>
      <use x="634.326172" xlink:href="#DejaVuSans-1089"/>
      <use x="689.306641" xlink:href="#DejaVuSans-1090"/>
      <use x="747.558594" xlink:href="#DejaVuSans-1086"/>
      <use x="808.740234" xlink:href="#DejaVuSans-1074"/>
      <use x="867.675781" xlink:href="#DejaVuSans-32"/>
     </g>
     <!-- подписчиков группы zapravdu_oryol -->
     <g transform="translate(282.257969 57.086094)scale(0.1 -0.1)">
      <defs>
       <path d="M 21.625 7.171875 
L 47.703125 7.171875 
L 47.703125 47.515625 
L 28.8125 47.515625 
L 28.8125 40.671875 
Q 28.8125 20.5625 23.046875 9.8125 
z
M 8.59375 7.171875 
Q 13.03125 9.125 14.984375 13.28125 
Q 19.78125 23.578125 19.78125 44.34375 
L 19.78125 54.6875 
L 56.734375 54.6875 
L 56.734375 7.171875 
L 63.921875 7.171875 
L 63.921875 -13.8125 
L 56.734375 -13.8125 
L 56.734375 0 
L 12.40625 0 
L 12.40625 -13.8125 
L 5.21875 -13.8125 
L 5.21875 7.171875 
z
" id="DejaVuSans-1076"/>
       <path d="M 55.90625 54.6875 
L 55.90625 0 
L 46.96875 0 
L 46.96875 43.890625 
L 20.609375 0 
L 9.078125 0 
L 9.078125 54.6875 
L 18.015625 54.6875 
L 18.015625 10.890625 
L 44.34375 54.6875 
z
" id="DejaVuSans-1080"/>
       <path d="M 41.015625 0 
L 41.015625 23 
L 24.265625 23 
Q 16.796875 23 11.8125 27.640625 
Q 7.328125 31.84375 7.328125 40.828125 
L 7.328125 54.6875 
L 16.3125 54.6875 
L 16.3125 41.65625 
Q 16.3125 35.9375 18.84375 33.0625 
Q 21.4375 30.171875 26.515625 30.171875 
L 41.015625 30.171875 
L 41.015625 54.6875 
L 50 54.6875 
L 50 0 
z
" id="DejaVuSans-1095"/>
       <path d="M 9.078125 54.6875 
L 18.015625 54.6875 
L 18.015625 29 
L 43.359375 54.6875 
L 54.390625 54.6875 
L 33.5 33.546875 
L 57.078125 0 
L 47.015625 0 
L 27.640625 27.59375 
L 18.015625 17.828125 
L 18.015625 0 
L 9.078125 0 
z
" id="DejaVuSans-1082"/>
       <path d="M 9.078125 0 
L 9.078125 54.6875 
L 47.65625 54.6875 
L 47.65625 47.515625 
L 18.109375 47.515625 
L 18.109375 0 
z
" id="DejaVuSans-1075"/>
       <path d="M 32.171875 -5.078125 
Q 28.375 -14.84375 24.75 -17.8125 
Q 21.140625 -20.796875 15.09375 -20.796875 
L 7.90625 -20.796875 
L 7.90625 -13.28125 
L 13.1875 -13.28125 
Q 16.890625 -13.28125 18.9375 -11.515625 
Q 21 -9.765625 23.484375 -3.21875 
L 25.09375 0.875 
L 2.984375 54.6875 
L 12.5 54.6875 
L 29.59375 11.921875 
L 46.6875 54.6875 
L 56.203125 54.6875 
z
" id="DejaVuSans-1091"/>
       <path d="M 61.046875 54.6875 
L 70.03125 54.6875 
L 70.03125 0 
L 61.046875 0 
z
M 65.546875 56 
z
M 43.453125 16.21875 
Q 43.453125 20.609375 40.25 22.90625 
Q 37.0625 25.203125 30.90625 25.203125 
L 18.109375 25.203125 
L 18.109375 7.171875 
L 30.90625 7.171875 
Q 37.0625 7.171875 40.25 9.484375 
Q 43.453125 11.8125 43.453125 16.21875 
z
M 9.078125 54.6875 
L 18.109375 54.6875 
L 18.109375 32.375 
L 31.296875 32.375 
Q 41.75 32.375 47.390625 28.390625 
Q 53.03125 24.421875 53.03125 16.21875 
Q 53.03125 8.015625 47.390625 4 
Q 41.75 0 31.296875 0 
L 9.078125 0 
z
" id="DejaVuSans-1099"/>
       <path d="M 5.515625 54.6875 
L 48.1875 54.6875 
L 48.1875 46.484375 
L 14.40625 7.171875 
L 48.1875 7.171875 
L 48.1875 0 
L 4.296875 0 
L 4.296875 8.203125 
L 38.09375 47.515625 
L 5.515625 47.515625 
z
" id="DejaVuSans-122"/>
       <path d="M 34.28125 27.484375 
Q 23.390625 27.484375 19.1875 25 
Q 14.984375 22.515625 14.984375 16.5 
Q 14.984375 11.71875 18.140625 8.90625 
Q 21.296875 6.109375 26.703125 6.109375 
Q 34.1875 6.109375 38.703125 11.40625 
Q 43.21875 16.703125 43.21875 25.484375 
L 43.21875 27.484375 
z
M 52.203125 31.203125 
L 52.203125 0 
L 43.21875 0 
L 43.21875 8.296875 
Q 40.140625 3.328125 35.546875 0.953125 
Q 30.953125 -1.421875 24.3125 -1.421875 
Q 15.921875 -1.421875 10.953125 3.296875 
Q 6 8.015625 6 15.921875 
Q 6 25.140625 12.171875 29.828125 
Q 18.359375 34.515625 30.609375 34.515625 
L 43.21875 34.515625 
L 43.21875 35.40625 
Q 43.21875 41.609375 39.140625 45 
Q 35.0625 48.390625 27.6875 48.390625 
Q 23 48.390625 18.546875 47.265625 
Q 14.109375 46.140625 10.015625 43.890625 
L 10.015625 52.203125 
Q 14.9375 54.109375 19.578125 55.046875 
Q 24.21875 56 28.609375 56 
Q 40.484375 56 46.34375 49.84375 
Q 52.203125 43.703125 52.203125 31.203125 
z
" id="DejaVuSans-97"/>
       <path d="M 18.109375 8.203125 
L 18.109375 -20.796875 
L 9.078125 -20.796875 
L 9.078125 54.6875 
L 18.109375 54.6875 
L 18.109375 46.390625 
Q 20.953125 51.265625 25.265625 53.625 
Q 29.59375 56 35.59375 56 
Q 45.5625 56 51.78125 48.09375 
Q 58.015625 40.1875 58.015625 27.296875 
Q 58.015625 14.40625 51.78125 6.484375 
Q 45.5625 -1.421875 35.59375 -1.421875 
Q 29.59375 -1.421875 25.265625 0.953125 
Q 20.953125 3.328125 18.109375 8.203125 
z
M 48.6875 27.296875 
Q 48.6875 37.203125 44.609375 42.84375 
Q 40.53125 48.484375 33.40625 48.484375 
Q 26.265625 48.484375 22.1875 42.84375 
Q 18.109375 37.203125 18.109375 27.296875 
Q 18.109375 17.390625 22.1875 11.75 
Q 26.265625 6.109375 33.40625 6.109375 
Q 40.53125 6.109375 44.609375 11.75 
Q 48.6875 17.390625 48.6875 27.296875 
z
" id="DejaVuSans-112"/>
       <path d="M 41.109375 46.296875 
Q 39.59375 47.171875 37.8125 47.578125 
Q 36.03125 48 33.890625 48 
Q 26.265625 48 22.1875 43.046875 
Q 18.109375 38.09375 18.109375 28.8125 
L 18.109375 0 
L 9.078125 0 
L 9.078125 54.6875 
L 18.109375 54.6875 
L 18.109375 46.1875 
Q 20.953125 51.171875 25.484375 53.578125 
Q 30.03125 56 36.53125 56 
Q 37.453125 56 38.578125 55.875 
Q 39.703125 55.765625 41.0625 55.515625 
z
" id="DejaVuSans-114"/>
       <path d="M 2.984375 54.6875 
L 12.5 54.6875 
L 29.59375 8.796875 
L 46.6875 54.6875 
L 56.203125 54.6875 
L 35.6875 0 
L 23.484375 0 
z
" id="DejaVuSans-118"/>
       <path d="M 45.40625 46.390625 
L 45.40625 75.984375 
L 54.390625 75.984375 
L 54.390625 0 
L 45.40625 0 
L 45.40625 8.203125 
Q 42.578125 3.328125 38.25 0.953125 
Q 33.9375 -1.421875 27.875 -1.421875 
Q 17.96875 -1.421875 11.734375 6.484375 
Q 5.515625 14.40625 5.515625 27.296875 
Q 5.515625 40.1875 11.734375 48.09375 
Q 17.96875 56 27.875 56 
Q 33.9375 56 38.25 53.625 
Q 42.578125 51.265625 45.40625 46.390625 
z
M 14.796875 27.296875 
Q 14.796875 17.390625 18.875 11.75 
Q 22.953125 6.109375 30.078125 6.109375 
Q 37.203125 6.109375 41.296875 11.75 
Q 45.40625 17.390625 45.40625 27.296875 
Q 45.40625 37.203125 41.296875 42.84375 
Q 37.203125 48.484375 30.078125 48.484375 
Q 22.953125 48.484375 18.875 42.84375 
Q 14.796875 37.203125 14.796875 27.296875 
z
" id="DejaVuSans-100"/>
       <path d="M 8.5 21.578125 
L 8.5 54.6875 
L 17.484375 54.6875 
L 17.484375 21.921875 
Q 17.484375 14.15625 20.5 10.265625 
Q 23.53125 6.390625 29.59375 6.390625 
Q 36.859375 6.390625 41.078125 11.03125 
Q 45.3125 15.671875 45.3125 23.6875 
L 45.3125 54.6875 
L 54.296875 54.6875 
L 54.296875 0 
L 45.3125 0 
L 45.3125 8.40625 
Q 42.046875 3.421875 37.71875 1 
Q 33.40625 -1.421875 27.6875 -1.421875 
Q 18.265625 -1.421875 13.375 4.4375 
Q 8.5 10.296875 8.5 21.578125 
z
M 31.109375 56 
z
" id="DejaVuSans-117"/>
       <path d="M 50.984375 -16.609375 
L 50.984375 -23.578125 
L -0.984375 -23.578125 
L -0.984375 -16.609375 
z
" id="DejaVuSans-95"/>
       <path d="M 30.609375 48.390625 
Q 23.390625 48.390625 19.1875 42.75 
Q 14.984375 37.109375 14.984375 27.296875 
Q 14.984375 17.484375 19.15625 11.84375 
Q 23.34375 6.203125 30.609375 6.203125 
Q 37.796875 6.203125 41.984375 11.859375 
Q 46.1875 17.53125 46.1875 27.296875 
Q 46.1875 37.015625 41.984375 42.703125 
Q 37.796875 48.390625 30.609375 48.390625 
z
M 30.609375 56 
Q 42.328125 56 49.015625 48.375 
Q 55.71875 40.765625 55.71875 27.296875 
Q 55.71875 13.875 49.015625 6.21875 
Q 42.328125 -1.421875 30.609375 -1.421875 
Q 18.84375 -1.421875 12.171875 6.21875 
Q 5.515625 13.875 5.515625 27.296875 
Q 5.515625 40.765625 12.171875 48.375 
Q 18.84375 56 30.609375 56 
z
" id="DejaVuSans-111"/>
       <path d="M 32.171875 -5.078125 
Q 28.375 -14.84375 24.75 -17.8125 
Q 21.140625 -20.796875 15.09375 -20.796875 
L 7.90625 -20.796875 
L 7.90625 -13.28125 
L 13.1875 -13.28125 
Q 16.890625 -13.28125 18.9375 -11.515625 
Q 21 -9.765625 23.484375 -3.21875 
L 25.09375 0.875 
L 2.984375 54.6875 
L 12.5 54.6875 
L 29.59375 11.921875 
L 46.6875 54.6875 
L 56.203125 54.6875 
z
" id="DejaVuSans-121"/>
       <path d="M 9.421875 75.984375 
L 18.40625 75.984375 
L 18.40625 0 
L 9.421875 0 
z
" id="DejaVuSans-108"/>
      </defs>
      <use xlink:href="#DejaVuSans-1087"/>
      <use x="65.380859" xlink:href="#DejaVuSans-1086"/>
      <use x="126.5625" xlink:href="#DejaVuSans-1076"/>
      <use x="195.703125" xlink:href="#DejaVuSans-1087"/>
      <use x="261.083984" xlink:href="#DejaVuSans-1080"/>
      <use x="326.074219" xlink:href="#DejaVuSans-1089"/>
      <use x="381.054688" xlink:href="#DejaVuSans-1095"/>
      <use x="440.136719" xlink:href="#DejaVuSans-1080"/>
      <use x="505.126953" xlink:href="#DejaVuSans-1082"/>
      <use x="565.527344" xlink:href="#DejaVuSans-1086"/>
      <use x="626.708984" xlink:href="#DejaVuSans-1074"/>
      <use x="685.644531" xlink:href="#DejaVuSans-32"/>
      <use x="717.431641" xlink:href="#DejaVuSans-1075"/>
      <use x="769.970703" xlink:href="#DejaVuSans-1088"/>
      <use x="833.447266" xlink:href="#DejaVuSans-1091"/>
      <use x="892.626953" xlink:href="#DejaVuSans-1087"/>
      <use x="958.007812" xlink:href="#DejaVuSans-1087"/>
      <use x="1023.388672" xlink:href="#DejaVuSans-1099"/>
      <use x="1102.34375" xlink:href="#DejaVuSans-32"/>
      <use x="1134.130859" xlink:href="#DejaVuSans-122"/>
      <use x="1186.621094" xlink:href="#DejaVuSans-97"/>
      <use x="1247.900391" xlink:href="#DejaVuSans-112"/>
      <use x="1311.376953" xlink:href="#DejaVuSans-114"/>
      <use x="1352.490234" xlink:href="#DejaVuSans-97"/>
      <use x="1413.769531" xlink:href="#DejaVuSans-118"/>
      <use x="1472.949219" xlink:href="#DejaVuSans-100"/>
      <use x="1536.425781" xlink:href="#DejaVuSans-117"/>
      <use x="1599.804688" xlink:href="#DejaVuSans-95"/>
      <use x="1649.804688" xlink:href="#DejaVuSans-111"/>
      <use x="1710.986328" xlink:href="#DejaVuSans-114"/>
      <use x="1752.099609" xlink:href="#DejaVuSans-121"/>
      <use x="1811.279297" xlink:href="#DejaVuSans-111"/>
      <use x="1872.460938" xlink:href="#DejaVuSans-108"/>
     </g>
    </g>
    <g id="patch_21">
     <path d="M 233.64 72.042344 
L 253.64 72.042344 
L 253.64 65.042344 
L 233.64 65.042344 
z
" style="fill:#1f77b4;"/>
    </g>
    <g id="text_11">
     <!-- Bergauf - официальная группа -->
     <g transform="translate(261.64 72.042344)scale(0.1 -0.1)">
      <defs>
       <path d="M 19.671875 34.8125 
L 19.671875 8.109375 
L 35.5 8.109375 
Q 43.453125 8.109375 47.28125 11.40625 
Q 51.125 14.703125 51.125 21.484375 
Q 51.125 28.328125 47.28125 31.5625 
Q 43.453125 34.8125 35.5 34.8125 
z
M 19.671875 64.796875 
L 19.671875 42.828125 
L 34.28125 42.828125 
Q 41.5 42.828125 45.03125 45.53125 
Q 48.578125 48.25 48.578125 53.8125 
Q 48.578125 59.328125 45.03125 62.0625 
Q 41.5 64.796875 34.28125 64.796875 
z
M 9.8125 72.90625 
L 35.015625 72.90625 
Q 46.296875 72.90625 52.390625 68.21875 
Q 58.5 63.53125 58.5 54.890625 
Q 58.5 48.1875 55.375 44.234375 
Q 52.25 40.28125 46.1875 39.3125 
Q 53.46875 37.75 57.5 32.78125 
Q 61.53125 27.828125 61.53125 20.40625 
Q 61.53125 10.640625 54.890625 5.3125 
Q 48.25 0 35.984375 0 
L 9.8125 0 
z
" id="DejaVuSans-66"/>
       <path d="M 56.203125 29.59375 
L 56.203125 25.203125 
L 14.890625 25.203125 
Q 15.484375 15.921875 20.484375 11.0625 
Q 25.484375 6.203125 34.421875 6.203125 
Q 39.59375 6.203125 44.453125 7.46875 
Q 49.3125 8.734375 54.109375 11.28125 
L 54.109375 2.78125 
Q 49.265625 0.734375 44.1875 -0.34375 
Q 39.109375 -1.421875 33.890625 -1.421875 
Q 20.796875 -1.421875 13.15625 6.1875 
Q 5.515625 13.8125 5.515625 26.8125 
Q 5.515625 40.234375 12.765625 48.109375 
Q 20.015625 56 32.328125 56 
Q 43.359375 56 49.78125 48.890625 
Q 56.203125 41.796875 56.203125 29.59375 
z
M 47.21875 32.234375 
Q 47.125 39.59375 43.09375 43.984375 
Q 39.0625 48.390625 32.421875 48.390625 
Q 24.90625 48.390625 20.390625 44.140625 
Q 15.875 39.890625 15.1875 32.171875 
z
" id="DejaVuSans-101"/>
       <path d="M 45.40625 27.984375 
Q 45.40625 37.75 41.375 43.109375 
Q 37.359375 48.484375 30.078125 48.484375 
Q 22.859375 48.484375 18.828125 43.109375 
Q 14.796875 37.75 14.796875 27.984375 
Q 14.796875 18.265625 18.828125 12.890625 
Q 22.859375 7.515625 30.078125 7.515625 
Q 37.359375 7.515625 41.375 12.890625 
Q 45.40625 18.265625 45.40625 27.984375 
z
M 54.390625 6.78125 
Q 54.390625 -7.171875 48.1875 -13.984375 
Q 42 -20.796875 29.203125 -20.796875 
Q 24.46875 -20.796875 20.265625 -20.09375 
Q 16.0625 -19.390625 12.109375 -17.921875 
L 12.109375 -9.1875 
Q 16.0625 -11.328125 19.921875 -12.34375 
Q 23.78125 -13.375 27.78125 -13.375 
Q 36.625 -13.375 41.015625 -8.765625 
Q 45.40625 -4.15625 45.40625 5.171875 
L 45.40625 9.625 
Q 42.625 4.78125 38.28125 2.390625 
Q 33.9375 0 27.875 0 
Q 17.828125 0 11.671875 7.65625 
Q 5.515625 15.328125 5.515625 27.984375 
Q 5.515625 40.671875 11.671875 48.328125 
Q 17.828125 56 27.875 56 
Q 33.9375 56 38.28125 53.609375 
Q 42.625 51.21875 45.40625 46.390625 
L 45.40625 54.6875 
L 54.390625 54.6875 
z
" id="DejaVuSans-103"/>
       <path d="M 37.109375 75.984375 
L 37.109375 68.5 
L 28.515625 68.5 
Q 23.6875 68.5 21.796875 66.546875 
Q 19.921875 64.59375 19.921875 59.515625 
L 19.921875 54.6875 
L 34.71875 54.6875 
L 34.71875 47.703125 
L 19.921875 47.703125 
L 19.921875 0 
L 10.890625 0 
L 10.890625 47.703125 
L 2.296875 47.703125 
L 2.296875 54.6875 
L 10.890625 54.6875 
L 10.890625 58.5 
Q 10.890625 67.625 15.140625 71.796875 
Q 19.390625 75.984375 28.609375 75.984375 
z
" id="DejaVuSans-102"/>
       <path d="M 14.796875 27.296875 
Q 14.796875 15.828125 18.328125 10.96875 
Q 21.875 6.109375 27.875 6.109375 
Q 32.671875 6.109375 38.234375 14.3125 
L 38.234375 40.28125 
Q 32.671875 48.484375 27.875 48.484375 
Q 21.875 48.484375 18.328125 43.625 
Q 14.796875 38.765625 14.796875 27.296875 
z
M 38.234375 -20.796875 
L 38.234375 6.984375 
Q 35.453125 2.390625 32.25 0.484375 
Q 29.046875 -1.421875 25 -1.421875 
Q 16.84375 -1.421875 11.15625 6.125 
Q 5.46875 13.671875 5.46875 27.09375 
Q 5.46875 40.53125 11.15625 48.265625 
Q 16.84375 56 25 56 
Q 29.046875 56 32.25 54.140625 
Q 35.453125 52.296875 38.234375 47.703125 
L 38.234375 72.90625 
L 47.265625 72.90625 
L 47.265625 47.703125 
Q 50.046875 52.296875 53.25 54.140625 
Q 56.453125 56 60.5 56 
Q 68.65625 56 74.34375 48.265625 
Q 80.03125 40.53125 80.03125 27.09375 
Q 80.03125 13.671875 74.34375 6.125 
Q 68.65625 -1.421875 60.5 -1.421875 
Q 56.453125 -1.421875 53.25 0.484375 
Q 50.046875 2.390625 47.265625 6.984375 
L 47.265625 -20.796875 
z
M 70.703125 27.296875 
Q 70.703125 38.765625 67.15625 43.625 
Q 63.625 48.484375 57.625 48.484375 
Q 52.828125 48.484375 47.265625 40.28125 
L 47.265625 14.3125 
Q 52.828125 6.109375 57.625 6.109375 
Q 63.625 6.109375 67.15625 10.96875 
Q 70.703125 15.828125 70.703125 27.296875 
z
" id="DejaVuSans-1092"/>
       <path d="M 56.296875 0 
L 9.078125 0 
L 9.078125 54.6875 
L 18.109375 54.6875 
L 18.109375 7.171875 
L 47.265625 7.171875 
L 47.265625 54.6875 
L 56.296875 54.6875 
L 56.296875 7.171875 
L 63.484375 7.171875 
L 63.484375 -13.8125 
L 56.296875 -13.8125 
z
" id="DejaVuSans-1094"/>
       <path d="M 34.28125 27.484375 
Q 23.390625 27.484375 19.1875 25 
Q 14.984375 22.515625 14.984375 16.5 
Q 14.984375 11.71875 18.140625 8.90625 
Q 21.296875 6.109375 26.703125 6.109375 
Q 34.1875 6.109375 38.703125 11.40625 
Q 43.21875 16.703125 43.21875 25.484375 
L 43.21875 27.484375 
z
M 52.203125 31.203125 
L 52.203125 0 
L 43.21875 0 
L 43.21875 8.296875 
Q 40.140625 3.328125 35.546875 0.953125 
Q 30.953125 -1.421875 24.3125 -1.421875 
Q 15.921875 -1.421875 10.953125 3.296875 
Q 6 8.015625 6 15.921875 
Q 6 25.140625 12.171875 29.828125 
Q 18.359375 34.515625 30.609375 34.515625 
L 43.21875 34.515625 
L 43.21875 35.40625 
Q 43.21875 41.609375 39.140625 45 
Q 35.0625 48.390625 27.6875 48.390625 
Q 23 48.390625 18.546875 47.265625 
Q 14.109375 46.140625 10.015625 43.890625 
L 10.015625 52.203125 
Q 14.9375 54.109375 19.578125 55.046875 
Q 24.21875 56 28.609375 56 
Q 40.484375 56 46.34375 49.84375 
Q 52.203125 43.703125 52.203125 31.203125 
z
" id="DejaVuSans-1072"/>
       <path d="M 3.71875 0 
L 3.71875 7.46875 
Q 12.59375 8.84375 15.328125 14.984375 
Q 18.65625 23.640625 18.65625 45.75 
L 18.65625 54.6875 
L 55.609375 54.6875 
L 55.609375 0 
L 46.625 0 
L 46.625 47.515625 
L 27.640625 47.515625 
L 27.640625 42.09375 
Q 27.640625 21 23.34375 11.53125 
Q 18.75 1.421875 3.71875 0 
z
" id="DejaVuSans-1083"/>
       <path d="M 43.453125 16.21875 
Q 43.453125 20.609375 40.25 22.90625 
Q 37.0625 25.203125 30.90625 25.203125 
L 18.109375 25.203125 
L 18.109375 7.171875 
L 30.90625 7.171875 
Q 37.0625 7.171875 40.25 9.484375 
Q 43.453125 11.8125 43.453125 16.21875 
z
M 9.078125 54.6875 
L 18.109375 54.6875 
L 18.109375 32.375 
L 31.296875 32.375 
Q 41.75 32.375 47.390625 28.390625 
Q 53.03125 24.421875 53.03125 16.21875 
Q 53.03125 8.015625 47.390625 4 
Q 41.75 0 31.296875 0 
L 9.078125 0 
z
" id="DejaVuSans-1100"/>
       <path d="M 9.078125 54.6875 
L 18.109375 54.6875 
L 18.109375 32.375 
L 47.265625 32.375 
L 47.265625 54.6875 
L 56.296875 54.6875 
L 56.296875 0 
L 47.265625 0 
L 47.265625 25.203125 
L 18.109375 25.203125 
L 18.109375 0 
L 9.078125 0 
z
" id="DejaVuSans-1085"/>
       <path d="M 18.453125 38.921875 
Q 18.453125 34.859375 21.578125 32.5625 
Q 24.703125 30.28125 30.515625 30.28125 
L 42.625 30.28125 
L 42.625 47.515625 
L 30.515625 47.515625 
Q 24.703125 47.515625 21.578125 45.265625 
Q 18.453125 43.015625 18.453125 38.921875 
z
M 5.671875 0 
L 22.359375 23.96875 
Q 16.703125 25.25 12.9375 28.59375 
Q 9.1875 31.9375 9.1875 38.921875 
Q 9.1875 46.828125 14.421875 50.75 
Q 19.671875 54.6875 30.28125 54.6875 
L 51.65625 54.6875 
L 51.65625 0 
L 42.625 0 
L 42.625 23.09375 
L 31.453125 23.09375 
L 15.328125 0 
z
" id="DejaVuSans-1103"/>
      </defs>
      <use xlink:href="#DejaVuSans-66"/>
      <use x="68.603516" xlink:href="#DejaVuSans-101"/>
      <use x="130.126953" xlink:href="#DejaVuSans-114"/>
      <use x="169.490234" xlink:href="#DejaVuSans-103"/>
      <use x="232.966797" xlink:href="#DejaVuSans-97"/>
      <use x="294.246094" xlink:href="#DejaVuSans-117"/>
      <use x="357.625" xlink:href="#DejaVuSans-102"/>
      <use x="392.830078" xlink:href="#DejaVuSans-32"/>
      <use x="424.617188" xlink:href="#DejaVuSans-45"/>
      <use x="460.701172" xlink:href="#DejaVuSans-32"/>
      <use x="492.488281" xlink:href="#DejaVuSans-1086"/>
      <use x="553.669922" xlink:href="#DejaVuSans-1092"/>
      <use x="639.167969" xlink:href="#DejaVuSans-1080"/>
      <use x="704.158203" xlink:href="#DejaVuSans-1094"/>
      <use x="772.224609" xlink:href="#DejaVuSans-1080"/>
      <use x="837.214844" xlink:href="#DejaVuSans-1072"/>
      <use x="898.494141" xlink:href="#DejaVuSans-1083"/>
      <use x="962.410156" xlink:href="#DejaVuSans-1100"/>
      <use x="1021.345703" xlink:href="#DejaVuSans-1085"/>
      <use x="1086.726562" xlink:href="#DejaVuSans-1072"/>
      <use x="1148.005859" xlink:href="#DejaVuSans-1103"/>
      <use x="1208.162109" xlink:href="#DejaVuSans-32"/>
      <use x="1239.949219" xlink:href="#DejaVuSans-1075"/>
      <use x="1292.488281" xlink:href="#DejaVuSans-1088"/>
      <use x="1355.964844" xlink:href="#DejaVuSans-1091"/>
      <use x="1415.144531" xlink:href="#DejaVuSans-1087"/>
      <use x="1480.525391" xlink:href="#DejaVuSans-1087"/>
      <use x="1545.90625" xlink:href="#DejaVuSans-1072"/>
     </g>
    </g>
    <g id="patch_22">
     <path d="M 233.64 88.382969 
L 253.64 88.382969 
L 253.64 81.382969 
L 233.64 81.382969 
z
" style="fill:#ff7f0e;"/>
    </g>
    <g id="text_12">
     <!-- ВОЛОДИН АРТЕМ-ОСОБЫЙ МАЛЫШ.Сбор открыт! -->
     <g transform="translate(261.64 88.382969)scale(0.1 -0.1)">
      <defs>
       <path d="M 19.671875 34.8125 
L 19.671875 8.109375 
L 35.5 8.109375 
Q 43.453125 8.109375 47.28125 11.40625 
Q 51.125 14.703125 51.125 21.484375 
Q 51.125 28.328125 47.28125 31.5625 
Q 43.453125 34.8125 35.5 34.8125 
z
M 19.671875 64.796875 
L 19.671875 42.828125 
L 34.28125 42.828125 
Q 41.5 42.828125 45.03125 45.53125 
Q 48.578125 48.25 48.578125 53.8125 
Q 48.578125 59.328125 45.03125 62.0625 
Q 41.5 64.796875 34.28125 64.796875 
z
M 9.8125 72.90625 
L 35.015625 72.90625 
Q 46.296875 72.90625 52.390625 68.21875 
Q 58.5 63.53125 58.5 54.890625 
Q 58.5 48.1875 55.375 44.234375 
Q 52.25 40.28125 46.1875 39.3125 
Q 53.46875 37.75 57.5 32.78125 
Q 61.53125 27.828125 61.53125 20.40625 
Q 61.53125 10.640625 54.890625 5.3125 
Q 48.25 0 35.984375 0 
L 9.8125 0 
z
" id="DejaVuSans-1042"/>
       <path d="M 39.40625 66.21875 
Q 28.65625 66.21875 22.328125 58.203125 
Q 16.015625 50.203125 16.015625 36.375 
Q 16.015625 22.609375 22.328125 14.59375 
Q 28.65625 6.59375 39.40625 6.59375 
Q 50.140625 6.59375 56.421875 14.59375 
Q 62.703125 22.609375 62.703125 36.375 
Q 62.703125 50.203125 56.421875 58.203125 
Q 50.140625 66.21875 39.40625 66.21875 
z
M 39.40625 74.21875 
Q 54.734375 74.21875 63.90625 63.9375 
Q 73.09375 53.65625 73.09375 36.375 
Q 73.09375 19.140625 63.90625 8.859375 
Q 54.734375 -1.421875 39.40625 -1.421875 
Q 24.03125 -1.421875 14.8125 8.828125 
Q 5.609375 19.09375 5.609375 36.375 
Q 5.609375 53.65625 14.8125 63.9375 
Q 24.03125 74.21875 39.40625 74.21875 
z
" id="DejaVuSans-1054"/>
       <path d="M 4.109375 0 
L 4.109375 8.296875 
Q 14.703125 10.59375 17.71875 18.609375 
Q 21.96875 31.203125 21.96875 60.5 
L 21.96875 72.90625 
L 65.328125 72.90625 
L 65.328125 0 
L 55.46875 0 
L 55.46875 64.59375 
L 31.78125 64.59375 
L 31.78125 55.609375 
Q 31.78125 27.984375 26.8125 15.09375 
Q 22.015625 2.734375 4.109375 0 
z
" id="DejaVuSans-1051"/>
       <path d="M 22.796875 8.296875 
L 55.03125 8.296875 
L 55.03125 64.59375 
L 31.34375 64.59375 
L 31.34375 54.25 
Q 31.34375 29.890625 25.875 13.71875 
Q 24.75 10.40625 22.796875 8.296875 
z
M 8.40625 8.296875 
Q 14.9375 11.375 16.796875 17.234375 
Q 21.53125 32.28125 21.53125 59.125 
L 21.53125 72.90625 
L 64.890625 72.90625 
L 64.890625 8.296875 
L 73.1875 8.296875 
L 73.1875 -15.671875 
L 64.890625 -15.671875 
L 64.890625 0 
L 13.234375 0 
L 13.234375 -15.671875 
L 4.9375 -15.671875 
L 4.9375 8.296875 
z
" id="DejaVuSans-1044"/>
       <path d="M 64.984375 72.90625 
L 64.984375 0 
L 55.421875 0 
L 55.421875 60.984375 
L 23.09375 0 
L 9.8125 0 
L 9.8125 72.90625 
L 19.390625 72.90625 
L 19.390625 11.921875 
L 51.703125 72.90625 
z
" id="DejaVuSans-1048"/>
       <path d="M 9.8125 72.90625 
L 19.671875 72.90625 
L 19.671875 43.015625 
L 55.515625 43.015625 
L 55.515625 72.90625 
L 65.375 72.90625 
L 65.375 0 
L 55.515625 0 
L 55.515625 34.71875 
L 19.671875 34.71875 
L 19.671875 0 
L 9.8125 0 
z
" id="DejaVuSans-1053"/>
       <path d="M 34.1875 63.1875 
L 20.796875 26.90625 
L 47.609375 26.90625 
z
M 28.609375 72.90625 
L 39.796875 72.90625 
L 67.578125 0 
L 57.328125 0 
L 50.6875 18.703125 
L 17.828125 18.703125 
L 11.1875 0 
L 0.78125 0 
z
" id="DejaVuSans-1040"/>
       <path d="M 19.671875 64.796875 
L 19.671875 37.40625 
L 32.078125 37.40625 
Q 38.96875 37.40625 42.71875 40.96875 
Q 46.484375 44.53125 46.484375 51.125 
Q 46.484375 57.671875 42.71875 61.234375 
Q 38.96875 64.796875 32.078125 64.796875 
z
M 9.8125 72.90625 
L 32.078125 72.90625 
Q 44.34375 72.90625 50.609375 67.359375 
Q 56.890625 61.8125 56.890625 51.125 
Q 56.890625 40.328125 50.609375 34.8125 
Q 44.34375 29.296875 32.078125 29.296875 
L 19.671875 29.296875 
L 19.671875 0 
L 9.8125 0 
z
" id="DejaVuSans-1056"/>
       <path d="M 9.8125 72.90625 
L 55.90625 72.90625 
L 55.90625 64.59375 
L 19.671875 64.59375 
L 19.671875 43.015625 
L 54.390625 43.015625 
L 54.390625 34.71875 
L 19.671875 34.71875 
L 19.671875 8.296875 
L 56.78125 8.296875 
L 56.78125 0 
L 9.8125 0 
z
" id="DejaVuSans-1045"/>
       <path d="M 9.8125 72.90625 
L 24.515625 72.90625 
L 43.109375 23.296875 
L 61.8125 72.90625 
L 76.515625 72.90625 
L 76.515625 0 
L 66.890625 0 
L 66.890625 64.015625 
L 48.09375 14.015625 
L 38.1875 14.015625 
L 19.390625 64.015625 
L 19.390625 0 
L 9.8125 0 
z
" id="DejaVuSans-1052"/>
       <path d="M 64.40625 67.28125 
L 64.40625 56.890625 
Q 59.421875 61.53125 53.78125 63.8125 
Q 48.140625 66.109375 41.796875 66.109375 
Q 29.296875 66.109375 22.65625 58.46875 
Q 16.015625 50.828125 16.015625 36.375 
Q 16.015625 21.96875 22.65625 14.328125 
Q 29.296875 6.6875 41.796875 6.6875 
Q 48.140625 6.6875 53.78125 8.984375 
Q 59.421875 11.28125 64.40625 15.921875 
L 64.40625 5.609375 
Q 59.234375 2.09375 53.4375 0.328125 
Q 47.65625 -1.421875 41.21875 -1.421875 
Q 24.65625 -1.421875 15.125 8.703125 
Q 5.609375 18.84375 5.609375 36.375 
Q 5.609375 53.953125 15.125 64.078125 
Q 24.65625 74.21875 41.21875 74.21875 
Q 47.75 74.21875 53.53125 72.484375 
Q 59.328125 70.75 64.40625 67.28125 
z
" id="DejaVuSans-1057"/>
       <path d="M 51.125 21.4375 
Q 51.125 28.21875 47.28125 31.515625 
Q 43.453125 34.8125 35.5 34.8125 
L 19.671875 34.8125 
L 19.671875 8.109375 
L 35.5 8.109375 
Q 43.453125 8.109375 47.28125 11.40625 
Q 51.125 14.703125 51.125 21.4375 
z
M 56.390625 72.90625 
L 56.390625 64.796875 
L 19.671875 64.796875 
L 19.671875 42.921875 
L 35.984375 42.921875 
Q 48.25 42.921875 54.890625 37.59375 
Q 61.53125 32.28125 61.53125 21.4375 
Q 61.53125 10.640625 55.109375 5.3125 
Q 48.6875 0 35.984375 0 
L 9.8125 0 
L 9.8125 72.90625 
z
" id="DejaVuSans-1041"/>
       <path d="M 51.125 21.4375 
Q 51.125 28.21875 47.265625 31.546875 
Q 43.453125 34.8125 35.5 34.8125 
L 19.671875 34.8125 
L 19.671875 8.109375 
L 35.5 8.109375 
Q 43.453125 8.109375 47.265625 11.421875 
Q 51.125 14.703125 51.125 21.4375 
z
M 9.8125 72.90625 
L 19.671875 72.90625 
L 19.671875 42.921875 
L 35.984375 42.921875 
Q 48.25 42.921875 54.890625 37.59375 
Q 61.53125 32.28125 61.53125 21.4375 
Q 61.53125 10.640625 54.890625 5.3125 
Q 48.25 0 35.984375 0 
L 9.8125 0 
z
M 68.5625 72.90625 
L 78.421875 72.90625 
L 78.421875 0 
L 68.5625 0 
z
" id="DejaVuSans-1067"/>
       <path d="M 64.984375 72.90625 
L 64.984375 0 
L 55.421875 0 
L 55.421875 60.984375 
L 23.09375 0 
L 9.8125 0 
L 9.8125 72.90625 
L 19.390625 72.90625 
L 19.390625 11.921875 
L 51.703125 72.90625 
z
M 21.71875 92.609375 
L 27.484375 92.609375 
Q 28.109375 89.96875 30.53125 88.578125 
Q 32.953125 87.1875 37 87.1875 
Q 41 87.1875 43.359375 88.53125 
Q 45.734375 89.875 46.515625 92.609375 
L 52.28125 92.609375 
Q 51.796875 86.796875 47.890625 83.796875 
Q 43.984375 80.796875 37 80.796875 
Q 29.96875 80.796875 26.078125 83.765625 
Q 22.203125 86.75 21.71875 92.609375 
z
" id="DejaVuSans-1049"/>
       <path d="M 58.40625 8.296875 
L 87.25 8.296875 
L 87.25 72.90625 
L 97.125 72.90625 
L 97.125 0 
L 9.8125 0 
L 9.8125 72.90625 
L 19.671875 72.90625 
L 19.671875 8.296875 
L 48.53125 8.296875 
L 48.53125 72.90625 
L 58.40625 72.90625 
z
" id="DejaVuSans-1064"/>
       <path d="M 31.109375 56 
Q 42.828125 56 49.515625 48.375 
Q 56.203125 40.765625 56.203125 27.296875 
Q 56.203125 13.875 49.515625 6.21875 
Q 42.828125 -1.421875 31.109375 -1.421875 
Q 19.34375 -1.421875 12.84375 6 
Q 6.34375 13.421875 6 27.296875 
L 5.71875 38.484375 
Q 5.46875 44.28125 5.46875 46.296875 
Q 5.46875 54.109375 8.296875 59.859375 
Q 12.75 68.890625 20.4375 72.796875 
Q 28.125 76.703125 41.015625 76.8125 
Q 46.96875 76.859375 49.609375 77.6875 
L 52.09375 70.5625 
Q 49.703125 69.578125 47.515625 69.53125 
L 35.296875 68.703125 
Q 29.15625 68.265625 25.4375 66.109375 
Q 15.71875 60.40625 14.796875 52.9375 
L 14.453125 50.203125 
Q 20.796875 56 31.109375 56 
z
M 31.109375 48.390625 
Q 23.875 48.390625 19.671875 42.75 
Q 15.484375 37.109375 15.484375 27.296875 
Q 15.484375 17.484375 19.65625 11.84375 
Q 23.828125 6.203125 31.109375 6.203125 
Q 38.28125 6.203125 42.484375 11.859375 
Q 46.6875 17.53125 46.6875 27.296875 
Q 46.6875 37.015625 42.484375 42.703125 
Q 38.28125 48.390625 31.109375 48.390625 
z
" id="DejaVuSans-1073"/>
       <path d="M 15.09375 12.40625 
L 25 12.40625 
L 25 0 
L 15.09375 0 
z
M 15.09375 72.90625 
L 25 72.90625 
L 25 40.921875 
L 24.03125 23.484375 
L 16.109375 23.484375 
L 15.09375 40.921875 
z
" id="DejaVuSans-33"/>
      </defs>
      <use xlink:href="#DejaVuSans-1042"/>
      <use x="68.603516" xlink:href="#DejaVuSans-1054"/>
      <use x="147.314453" xlink:href="#DejaVuSans-1051"/>
      <use x="222.509766" xlink:href="#DejaVuSans-1054"/>
      <use x="301.220703" xlink:href="#DejaVuSans-1044"/>
      <use x="379.345703" xlink:href="#DejaVuSans-1048"/>
      <use x="454.150391" xlink:href="#DejaVuSans-1053"/>
      <use x="529.345703" xlink:href="#DejaVuSans-32"/>
      <use x="561.132812" xlink:href="#DejaVuSans-1040"/>
      <use x="629.541016" xlink:href="#DejaVuSans-1056"/>
      <use x="689.84375" xlink:href="#DejaVuSans-1058"/>
      <use x="750.927734" xlink:href="#DejaVuSans-1045"/>
      <use x="814.111328" xlink:href="#DejaVuSans-1052"/>
      <use x="900.390625" xlink:href="#DejaVuSans-45"/>
      <use x="936.474609" xlink:href="#DejaVuSans-1054"/>
      <use x="1015.185547" xlink:href="#DejaVuSans-1057"/>
      <use x="1085.009766" xlink:href="#DejaVuSans-1054"/>
      <use x="1163.720703" xlink:href="#DejaVuSans-1041"/>
      <use x="1232.324219" xlink:href="#DejaVuSans-1067"/>
      <use x="1320.556641" xlink:href="#DejaVuSans-1049"/>
      <use x="1395.361328" xlink:href="#DejaVuSans-32"/>
      <use x="1427.148438" xlink:href="#DejaVuSans-1052"/>
      <use x="1513.427734" xlink:href="#DejaVuSans-1040"/>
      <use x="1581.835938" xlink:href="#DejaVuSans-1051"/>
      <use x="1657.03125" xlink:href="#DejaVuSans-1067"/>
      <use x="1745.263672" xlink:href="#DejaVuSans-1064"/>
      <use x="1852.197266" xlink:href="#DejaVuSans-46"/>
      <use x="1883.984375" xlink:href="#DejaVuSans-1057"/>
      <use x="1953.808594" xlink:href="#DejaVuSans-1073"/>
      <use x="2015.478516" xlink:href="#DejaVuSans-1086"/>
      <use x="2076.660156" xlink:href="#DejaVuSans-1088"/>
      <use x="2140.136719" xlink:href="#DejaVuSans-32"/>
      <use x="2171.923828" xlink:href="#DejaVuSans-1086"/>
      <use x="2233.105469" xlink:href="#DejaVuSans-1090"/>
      <use x="2291.357422" xlink:href="#DejaVuSans-1082"/>
      <use x="2351.757812" xlink:href="#DejaVuSans-1088"/>
      <use x="2415.234375" xlink:href="#DejaVuSans-1099"/>
      <use x="2494.189453" xlink:href="#DejaVuSans-1090"/>
      <use x="2552.441406" xlink:href="#DejaVuSans-33"/>
     </g>
    </g>
    <g id="patch_23">
     <path d="M 233.64 103.231406 
L 253.64 103.231406 
L 253.64 96.231406 
L 233.64 96.231406 
z
" style="fill:#2ca02c;"/>
    </g>
    <g id="text_13">
     <!-- Екатеринбург ЗА ПРАВДУ -->
     <g transform="translate(261.64 103.231406)scale(0.1 -0.1)">
      <defs>
       <path d="M 28.5625 74.21875 
Q 40.578125 74.21875 48.1875 69.109375 
Q 55.8125 64.015625 55.8125 55.328125 
Q 55.8125 49.265625 52.34375 45.09375 
Q 48.875 40.921875 42.484375 39.3125 
Q 49.5625 37.796875 53.53125 33 
Q 57.515625 28.21875 57.515625 21.1875 
Q 57.515625 9.96875 48.84375 4.265625 
Q 40.1875 -1.421875 28.5625 -1.421875 
Q 22.609375 -1.421875 15.671875 0.1875 
Q 8.734375 1.8125 6.59375 3.171875 
L 6.59375 13.328125 
Q 14.0625 8.984375 18.1875 7.9375 
Q 22.3125 6.890625 28.375 6.890625 
Q 37.546875 6.890625 42.625 10.40625 
Q 47.703125 13.921875 47.703125 21.1875 
Q 47.703125 27.640625 43.1875 31.265625 
Q 38.671875 34.90625 29.15625 34.90625 
L 19.1875 34.90625 
L 19.1875 43.015625 
L 29.546875 43.015625 
Q 38.28125 43.015625 42.140625 45.921875 
Q 46 48.828125 46 54.296875 
Q 46 59.90625 42.015625 62.90625 
Q 38.03125 65.921875 28.375 65.921875 
Q 21.828125 65.921875 19.578125 65.328125 
Q 17.328125 64.75 7.328125 60.984375 
L 7.328125 70.609375 
Q 12.84375 72.5625 18.59375 73.390625 
Q 24.359375 74.21875 28.5625 74.21875 
z
" id="DejaVuSans-1047"/>
       <path d="M 65.375 72.90625 
L 65.375 0 
L 55.515625 0 
L 55.515625 64.59375 
L 19.671875 64.59375 
L 19.671875 0 
L 9.8125 0 
L 9.8125 72.90625 
z
" id="DejaVuSans-1055"/>
       <path d="M 31.984375 8.84375 
Q 30.953125 6.390625 29.390625 4.546875 
Q 25.53125 0 13.28125 0 
L 9.515625 0 
L 9.515625 8.296875 
L 12.59375 8.296875 
Q 18.40625 8.296875 20.65625 9.625 
Q 22.015625 10.453125 22.90625 12.5 
L 25.09375 17.671875 
L 1.703125 72.90625 
L 12.3125 72.90625 
L 30.421875 30.125 
L 48.640625 72.90625 
L 59.234375 72.90625 
z
" id="DejaVuSans-1059"/>
      </defs>
      <use xlink:href="#DejaVuSans-1045"/>
      <use x="63.183594" xlink:href="#DejaVuSans-1082"/>
      <use x="123.583984" xlink:href="#DejaVuSans-1072"/>
      <use x="184.863281" xlink:href="#DejaVuSans-1090"/>
      <use x="243.115234" xlink:href="#DejaVuSans-1077"/>
      <use x="304.638672" xlink:href="#DejaVuSans-1088"/>
      <use x="368.115234" xlink:href="#DejaVuSans-1080"/>
      <use x="433.105469" xlink:href="#DejaVuSans-1085"/>
      <use x="498.486328" xlink:href="#DejaVuSans-1073"/>
      <use x="560.15625" xlink:href="#DejaVuSans-1091"/>
      <use x="619.335938" xlink:href="#DejaVuSans-1088"/>
      <use x="682.8125" xlink:href="#DejaVuSans-1075"/>
      <use x="735.351562" xlink:href="#DejaVuSans-32"/>
      <use x="767.138672" xlink:href="#DejaVuSans-1047"/>
      <use x="831.25" xlink:href="#DejaVuSans-1040"/>
      <use x="899.658203" xlink:href="#DejaVuSans-32"/>
      <use x="931.445312" xlink:href="#DejaVuSans-1055"/>
      <use x="1006.640625" xlink:href="#DejaVuSans-1056"/>
      <use x="1066.943359" xlink:href="#DejaVuSans-1040"/>
      <use x="1135.351562" xlink:href="#DejaVuSans-1042"/>
      <use x="1203.955078" xlink:href="#DejaVuSans-1044"/>
      <use x="1282.080078" xlink:href="#DejaVuSans-1059"/>
     </g>
    </g>
    <g id="patch_24">
     <path d="M 233.64 118.079844 
L 253.64 118.079844 
L 253.64 111.079844 
L 233.64 111.079844 
z
" style="fill:#d62728;"/>
    </g>
    <g id="text_14">
     <!-- от любви до психушки -->
     <g transform="translate(261.64 118.079844)scale(0.1 -0.1)">
      <defs>
       <path d="M 53.609375 48.390625 
Q 46.390625 48.390625 42.1875 42.75 
Q 37.984375 37.109375 37.984375 27.296875 
Q 37.984375 17.484375 42.15625 11.84375 
Q 46.34375 6.203125 53.609375 6.203125 
Q 60.796875 6.203125 64.984375 11.859375 
Q 69.1875 17.53125 69.1875 27.296875 
Q 69.1875 37.015625 64.984375 42.703125 
Q 60.796875 48.390625 53.609375 48.390625 
z
M 28.8125 32.859375 
Q 29.734375 42.140625 35.8125 49.0625 
Q 41.890625 56 53.609375 56 
Q 65.328125 56 72.015625 48.375 
Q 78.71875 40.765625 78.71875 27.296875 
Q 78.71875 13.875 72.015625 6.21875 
Q 65.328125 -1.421875 53.609375 -1.421875 
Q 41.84375 -1.421875 35.421875 5.953125 
Q 29 13.328125 28.5625 25.4375 
L 18.40625 25.4375 
L 18.40625 0 
L 9.421875 0 
L 9.421875 54.6875 
L 18.40625 54.6875 
L 18.40625 32.859375 
z
" id="DejaVuSans-1102"/>
       <path d="M 54.890625 54.6875 
L 35.109375 28.078125 
L 55.90625 0 
L 45.3125 0 
L 29.390625 21.484375 
L 13.484375 0 
L 2.875 0 
L 24.125 28.609375 
L 4.6875 54.6875 
L 15.28125 54.6875 
L 29.78125 35.203125 
L 44.28125 54.6875 
z
" id="DejaVuSans-1093"/>
       <path d="M 50.25 7.171875 
L 73.390625 7.171875 
L 73.390625 54.6875 
L 82.421875 54.6875 
L 82.421875 0 
L 9.078125 0 
L 9.078125 54.6875 
L 18.109375 54.6875 
L 18.109375 7.171875 
L 41.21875 7.171875 
L 41.21875 54.6875 
L 50.25 54.6875 
z
" id="DejaVuSans-1096"/>
      </defs>
      <use xlink:href="#DejaVuSans-1086"/>
      <use x="61.181641" xlink:href="#DejaVuSans-1090"/>
      <use x="119.433594" xlink:href="#DejaVuSans-32"/>
      <use x="151.220703" xlink:href="#DejaVuSans-1083"/>
      <use x="215.136719" xlink:href="#DejaVuSans-1102"/>
      <use x="299.316406" xlink:href="#DejaVuSans-1073"/>
      <use x="360.986328" xlink:href="#DejaVuSans-1074"/>
      <use x="419.921875" xlink:href="#DejaVuSans-1080"/>
      <use x="484.912109" xlink:href="#DejaVuSans-32"/>
      <use x="516.699219" xlink:href="#DejaVuSans-1076"/>
      <use x="585.839844" xlink:href="#DejaVuSans-1086"/>
      <use x="647.021484" xlink:href="#DejaVuSans-32"/>
      <use x="678.808594" xlink:href="#DejaVuSans-1087"/>
      <use x="744.189453" xlink:href="#DejaVuSans-1089"/>
      <use x="799.169922" xlink:href="#DejaVuSans-1080"/>
      <use x="864.160156" xlink:href="#DejaVuSans-1093"/>
      <use x="923.339844" xlink:href="#DejaVuSans-1091"/>
      <use x="982.519531" xlink:href="#DejaVuSans-1096"/>
      <use x="1074.023438" xlink:href="#DejaVuSans-1082"/>
      <use x="1134.423828" xlink:href="#DejaVuSans-1080"/>
     </g>
    </g>
    <g id="patch_25">
     <path d="M 233.64 132.757969 
L 253.64 132.757969 
L 253.64 125.757969 
L 233.64 125.757969 
z
" style="fill:#9467bd;"/>
    </g>
    <g id="text_15">
     <!-- Орловский театр кукол -->
     <g transform="translate(261.64 132.757969)scale(0.1 -0.1)">
      <defs>
       <path d="M 55.90625 54.6875 
L 55.90625 0 
L 46.96875 0 
L 46.96875 43.890625 
L 20.609375 0 
L 9.078125 0 
L 9.078125 54.6875 
L 18.015625 54.6875 
L 18.015625 10.890625 
L 44.34375 54.6875 
z
M 17.21875 75.515625 
L 22.984375 75.515625 
Q 23.515625 71.859375 25.875 70.015625 
Q 28.25 68.1875 32.5 68.1875 
Q 36.703125 68.1875 39.046875 70 
Q 41.390625 71.8125 42.015625 75.515625 
L 47.78125 75.515625 
Q 47.296875 68.53125 43.4375 65.015625 
Q 39.578125 61.5 32.5 61.5 
Q 25.421875 61.5 21.5625 65.015625 
Q 17.703125 68.53125 17.21875 75.515625 
z
" id="DejaVuSans-1081"/>
      </defs>
      <use xlink:href="#DejaVuSans-1054"/>
      <use x="78.710938" xlink:href="#DejaVuSans-1088"/>
      <use x="142.1875" xlink:href="#DejaVuSans-1083"/>
      <use x="206.103516" xlink:href="#DejaVuSans-1086"/>
      <use x="267.285156" xlink:href="#DejaVuSans-1074"/>
      <use x="326.220703" xlink:href="#DejaVuSans-1089"/>
      <use x="381.201172" xlink:href="#DejaVuSans-1082"/>
      <use x="441.601562" xlink:href="#DejaVuSans-1080"/>
      <use x="506.591797" xlink:href="#DejaVuSans-1081"/>
      <use x="571.582031" xlink:href="#DejaVuSans-32"/>
      <use x="603.369141" xlink:href="#DejaVuSans-1090"/>
      <use x="661.621094" xlink:href="#DejaVuSans-1077"/>
      <use x="723.144531" xlink:href="#DejaVuSans-1072"/>
      <use x="784.423828" xlink:href="#DejaVuSans-1090"/>
      <use x="842.675781" xlink:href="#DejaVuSans-1088"/>
      <use x="906.152344" xlink:href="#DejaVuSans-32"/>
      <use x="937.939453" xlink:href="#DejaVuSans-1082"/>
      <use x="998.339844" xlink:href="#DejaVuSans-1091"/>
      <use x="1057.519531" xlink:href="#DejaVuSans-1082"/>
      <use x="1117.919922" xlink:href="#DejaVuSans-1086"/>
      <use x="1179.101562" xlink:href="#DejaVuSans-1083"/>
     </g>
    </g>
    <g id="patch_26">
     <path d="M 233.64 147.436094 
L 253.64 147.436094 
L 253.64 140.436094 
L 233.64 140.436094 
z
" style="fill:#8c564b;"/>
    </g>
    <g id="text_16">
     <!-- Тверь ЗА ПРАВДУ -->
     <g transform="translate(261.64 147.436094)scale(0.1 -0.1)">
      <use xlink:href="#DejaVuSans-1058"/>
      <use x="61.083984" xlink:href="#DejaVuSans-1074"/>
      <use x="120.019531" xlink:href="#DejaVuSans-1077"/>
      <use x="181.542969" xlink:href="#DejaVuSans-1088"/>
      <use x="245.019531" xlink:href="#DejaVuSans-1100"/>
      <use x="303.955078" xlink:href="#DejaVuSans-32"/>
      <use x="335.742188" xlink:href="#DejaVuSans-1047"/>
      <use x="399.853516" xlink:href="#DejaVuSans-1040"/>
      <use x="468.261719" xlink:href="#DejaVuSans-32"/>
      <use x="500.048828" xlink:href="#DejaVuSans-1055"/>
      <use x="575.244141" xlink:href="#DejaVuSans-1056"/>
      <use x="635.546875" xlink:href="#DejaVuSans-1040"/>
      <use x="703.955078" xlink:href="#DejaVuSans-1042"/>
      <use x="772.558594" xlink:href="#DejaVuSans-1044"/>
      <use x="850.683594" xlink:href="#DejaVuSans-1059"/>
     </g>
    </g>
    <g id="patch_27">
     <path d="M 233.64 162.114219 
L 253.64 162.114219 
L 253.64 155.114219 
L 233.64 155.114219 
z
" style="fill:#e377c2;"/>
    </g>
    <g id="text_17">
     <!-- РООО ИППО "НАСЛЕДИЕ" -->
     <g transform="translate(261.64 162.114219)scale(0.1 -0.1)">
      <defs>
       <path d="M 17.921875 72.90625 
L 17.921875 45.796875 
L 9.625 45.796875 
L 9.625 72.90625 
z
M 36.375 72.90625 
L 36.375 45.796875 
L 28.078125 45.796875 
L 28.078125 72.90625 
z
" id="DejaVuSans-34"/>
      </defs>
      <use xlink:href="#DejaVuSans-1056"/>
      <use x="60.302734" xlink:href="#DejaVuSans-1054"/>
      <use x="139.013672" xlink:href="#DejaVuSans-1054"/>
      <use x="217.724609" xlink:href="#DejaVuSans-1054"/>
      <use x="296.435547" xlink:href="#DejaVuSans-32"/>
      <use x="328.222656" xlink:href="#DejaVuSans-1048"/>
      <use x="403.027344" xlink:href="#DejaVuSans-1055"/>
      <use x="478.222656" xlink:href="#DejaVuSans-1055"/>
      <use x="553.417969" xlink:href="#DejaVuSans-1054"/>
      <use x="632.128906" xlink:href="#DejaVuSans-32"/>
      <use x="663.916016" xlink:href="#DejaVuSans-34"/>
      <use x="709.912109" xlink:href="#DejaVuSans-1053"/>
      <use x="785.107422" xlink:href="#DejaVuSans-1040"/>
      <use x="853.515625" xlink:href="#DejaVuSans-1057"/>
      <use x="923.339844" xlink:href="#DejaVuSans-1051"/>
      <use x="998.535156" xlink:href="#DejaVuSans-1045"/>
      <use x="1061.71875" xlink:href="#DejaVuSans-1044"/>
      <use x="1139.84375" xlink:href="#DejaVuSans-1048"/>
      <use x="1214.648438" xlink:href="#DejaVuSans-1045"/>
      <use x="1277.832031" xlink:href="#DejaVuSans-34"/>
     </g>
    </g>
    <g id="patch_28">
     <path d="M 233.64 176.792344 
L 253.64 176.792344 
L 253.64 169.792344 
L 233.64 169.792344 
z
" style="fill:#7f7f7f;"/>
    </g>
    <g id="text_18">
     <!-- На колени только перед Богом -->
     <g transform="translate(261.64 176.792344)scale(0.1 -0.1)">
      <defs>
       <path d="M 9.078125 54.6875 
L 22.21875 54.6875 
L 37.75 18.0625 
L 53.328125 54.6875 
L 66.359375 54.6875 
L 66.359375 0 
L 57.328125 0 
L 57.328125 46.09375 
L 42.234375 10.5 
L 33.25 10.5 
L 18.109375 46.09375 
L 18.109375 0 
L 9.078125 0 
z
" id="DejaVuSans-1084"/>
      </defs>
      <use xlink:href="#DejaVuSans-1053"/>
      <use x="75.195312" xlink:href="#DejaVuSans-1072"/>
      <use x="136.474609" xlink:href="#DejaVuSans-32"/>
      <use x="168.261719" xlink:href="#DejaVuSans-1082"/>
      <use x="228.662109" xlink:href="#DejaVuSans-1086"/>
      <use x="289.84375" xlink:href="#DejaVuSans-1083"/>
      <use x="353.759766" xlink:href="#DejaVuSans-1077"/>
      <use x="415.283203" xlink:href="#DejaVuSans-1085"/>
      <use x="480.664062" xlink:href="#DejaVuSans-1080"/>
      <use x="545.654297" xlink:href="#DejaVuSans-32"/>
      <use x="577.441406" xlink:href="#DejaVuSans-1090"/>
      <use x="635.693359" xlink:href="#DejaVuSans-1086"/>
      <use x="696.875" xlink:href="#DejaVuSans-1083"/>
      <use x="760.791016" xlink:href="#DejaVuSans-1100"/>
      <use x="819.726562" xlink:href="#DejaVuSans-1082"/>
      <use x="880.126953" xlink:href="#DejaVuSans-1086"/>
      <use x="941.308594" xlink:href="#DejaVuSans-32"/>
      <use x="973.095703" xlink:href="#DejaVuSans-1087"/>
      <use x="1038.476562" xlink:href="#DejaVuSans-1077"/>
      <use x="1100" xlink:href="#DejaVuSans-1088"/>
      <use x="1163.476562" xlink:href="#DejaVuSans-1077"/>
      <use x="1225" xlink:href="#DejaVuSans-1076"/>
      <use x="1294.140625" xlink:href="#DejaVuSans-32"/>
      <use x="1325.927734" xlink:href="#DejaVuSans-1041"/>
      <use x="1394.53125" xlink:href="#DejaVuSans-1086"/>
      <use x="1455.712891" xlink:href="#DejaVuSans-1075"/>
      <use x="1508.251953" xlink:href="#DejaVuSans-1086"/>
      <use x="1569.433594" xlink:href="#DejaVuSans-1084"/>
     </g>
    </g>
    <g id="patch_29">
     <path d="M 233.64 191.470469 
L 253.64 191.470469 
L 253.64 184.470469 
L 233.64 184.470469 
z
" style="fill:#bcbd22;"/>
    </g>
    <g id="text_19">
     <!-- Бесплатный -->
     <g transform="translate(261.64 191.470469)scale(0.1 -0.1)">
      <use xlink:href="#DejaVuSans-1041"/>
      <use x="68.603516" xlink:href="#DejaVuSans-1077"/>
      <use x="130.126953" xlink:href="#DejaVuSans-1089"/>
      <use x="185.107422" xlink:href="#DejaVuSans-1087"/>
      <use x="250.488281" xlink:href="#DejaVuSans-1083"/>
      <use x="314.404297" xlink:href="#DejaVuSans-1072"/>
      <use x="375.683594" xlink:href="#DejaVuSans-1090"/>
      <use x="433.935547" xlink:href="#DejaVuSans-1085"/>
      <use x="499.316406" xlink:href="#DejaVuSans-1099"/>
      <use x="578.271484" xlink:href="#DejaVuSans-1081"/>
     </g>
    </g>
   </g>
  </g>
 </g>
</svg>
